<svg width="250" height="250" viewBox="0 0 250 250" fill="none" xmlns="http://www.w3.org/2000/svg">
<path fill-rule="evenodd" clip-rule="evenodd" d="M58.3206 146.599C73.5959 189.369 124.662 225 124.662 225C124.662 225 175.727 189.369 191.003 146.599C206.278 103.828 200.079 56.0302 200.079 56.0302C200.079 56.0302 176.704 53.1528 158.587 45.9769C138.498 38.0018 124.662 25 124.662 25C124.662 25 110.825 38.0018 90.7362 45.9769C72.619 53.1528 49.2442 56.0302 49.2442 56.0302C49.2442 56.0302 43.0453 103.828 58.3206 146.599Z" fill="#0755A3"/>
<path fill-rule="evenodd" clip-rule="evenodd" d="M67.1837 143.703C80.2643 180.329 123.649 210.915 124.644 211.613V211.625H124.661H124.662H124.679V211.613C125.674 210.915 169.059 180.329 182.14 143.703C195.372 106.652 189.99 65.2486 189.99 65.2486C189.99 65.2486 169.724 62.7619 154.04 56.5274C137.179 49.8347 125.401 39.059 124.679 38.3897V38.3569C124.679 38.3569 124.673 38.3625 124.662 38.3733C124.65 38.3625 124.644 38.3569 124.644 38.3569V38.3897C123.922 39.059 112.144 49.8347 95.2831 56.5274C79.5993 62.7619 59.3329 65.2486 59.3329 65.2486C59.3329 65.2486 53.951 106.652 67.1837 143.703Z" fill="#E34F1B"/>
<path fill-rule="evenodd" clip-rule="evenodd" d="M117.419 147.805L91.7573 122.144L100.243 113.659L121.661 135.078L163.32 93.4188L171.805 101.904L125.904 147.805C123.561 150.149 119.762 150.149 117.419 147.805Z" fill="#F6F6F6"/>
</svg>
