<svg width="250" height="250" viewBox="0 0 250 250" fill="none" xmlns="http://www.w3.org/2000/svg">
<path d="M164.795 173.017C164.269 164.733 161.193 157.141 156.372 150.99C149.446 141.044 135.038 133.674 135.038 125.112C135.038 116.551 149.446 109.153 156.345 99.2066C161.166 93.0557 164.213 85.4641 164.74 77.1798C164.74 77.069 164.768 76.9581 164.768 76.8196C164.795 76.0715 164.823 75.3234 164.851 74.5754C164.851 52.5209 146.952 38.9723 124.898 39C102.843 39 84.9724 52.5763 84.9724 74.6308C84.9724 74.7416 84.9724 74.8524 85.0001 74.9633C85.0001 75.6005 85.0278 76.2101 85.0555 76.8473C85.0555 77.0135 85.0833 77.1798 85.0833 77.3183C85.6374 85.5472 88.6851 93.1111 93.4784 99.2066C100.405 109.181 114.813 116.551 114.813 125.112C114.813 133.701 100.405 141.071 93.5061 151.046C88.6851 157.169 85.6651 164.733 85.111 172.962C85.111 173.128 85.0832 173.266 85.0555 173.433C85.0278 174.07 85.0279 174.679 85.0001 175.317C85.0001 175.428 85.0001 175.538 85.0001 175.649C85.0001 197.676 102.899 211.224 124.953 211.224C147.008 211.197 164.878 197.648 164.878 175.594C164.878 174.846 164.851 174.098 164.795 173.35C164.823 173.266 164.823 173.128 164.795 173.017Z" fill="#F6F6F6"/>
<path d="M157.488 195.54C157.488 182.906 141.363 168.775 125.514 168.775C109.666 168.775 93.5409 182.933 93.5409 195.568C93.5409 208.202 109.666 209.449 125.514 209.449C141.363 209.449 157.488 208.174 157.488 195.54Z" fill="#E34F1B"/>
<path d="M131.25 121.12C131.25 114.027 137.234 108.597 143.579 102.861C147.153 99.6197 150.866 96.2672 153.304 92.7484L153.443 92.5545C156.019 89.2574 157.959 85.5724 159.233 81.6658L91.6014 81.6935C92.8759 85.6001 94.8154 89.2574 97.3921 92.5545L97.5584 92.7761C100.024 96.2949 103.737 99.6474 107.311 102.889C113.656 108.624 119.668 114.055 119.668 121.148C119.696 128.213 131.25 128.213 131.25 121.12Z" fill="#E34F1B"/>
<path d="M123.215 168.776C121.802 168.665 120.583 168.471 119.557 168.194C118.532 167.944 117.757 167.556 117.147 167.169L118.671 162.32C119.114 162.708 119.696 162.985 120.499 163.262C121.303 163.539 122.19 163.733 123.242 163.871L123.298 154.119C122.522 153.648 121.774 153.121 121.026 152.595C120.278 152.041 119.641 151.376 119.031 150.655C118.449 149.907 117.978 149.076 117.646 148.079C117.258 147.137 117.092 146.001 117.092 144.643C117.092 142.316 117.673 140.542 118.782 139.157C119.918 137.8 121.442 136.941 123.353 136.553V132.452L127.592 132.535V136.47C128.618 136.553 129.56 136.747 130.335 136.996C131.139 137.218 131.915 137.495 132.607 137.827L131.083 142.454C130.668 142.205 130.169 141.956 129.532 141.762C128.95 141.568 128.257 141.429 127.537 141.318L127.482 150.129C128.257 150.572 129.005 151.126 129.781 151.708C130.529 152.262 131.222 152.872 131.832 153.675C132.413 154.368 132.94 155.282 133.3 156.224C133.688 157.194 133.882 158.302 133.882 159.605C133.854 162.154 133.272 164.149 132.109 165.589C130.973 167.058 129.366 168.055 127.398 168.498V172.682L123.159 172.627L123.215 168.776ZM125.21 141.235C124.129 141.346 123.381 141.734 122.993 142.371C122.577 142.953 122.384 143.673 122.384 144.366C122.384 145.308 122.633 146.167 123.159 146.804C123.713 147.414 124.378 148.023 125.154 148.633L125.21 141.235ZM125.653 163.899C126.595 163.678 127.315 163.345 127.786 162.625C128.257 161.96 128.507 161.101 128.507 160.076C128.507 159.078 128.257 158.219 127.731 157.554C127.205 156.889 126.512 156.197 125.681 155.726L125.653 163.899Z" fill="#0755A3"/>
<path d="M173.696 203.838C173.696 198.962 169.734 195 164.858 195L85.8383 195.055C80.9343 195.055 77 199.017 77 203.894C77 208.77 80.962 212.732 85.8661 212.732L164.885 212.677C169.762 212.677 173.696 208.715 173.696 203.838Z" fill="#0755A3"/>
<path d="M173.696 46.8384C173.696 41.9621 169.734 38 164.858 38L85.8384 38.0554C80.9343 38.0554 77 42.0175 77 46.8938C77 51.7702 80.9621 55.7323 85.8662 55.7323L164.885 55.7045C169.734 55.6768 173.669 51.7148 173.696 46.8384Z" fill="#0755A3"/>
</svg>
