<svg width="250" height="250" viewBox="0 0 250 250" fill="none" xmlns="http://www.w3.org/2000/svg">
<path d="M197.636 49.0369H51.6083C50.1637 49.0369 49 50.2006 49 51.6051V222.392C49 223.836 50.1637 225 51.6083 225H197.636C199.08 225 200.244 223.836 200.244 222.392V51.6051C200.204 50.2006 199.04 49.0369 197.636 49.0369Z" fill="#0755A3"/>
<path d="M181.384 62.4399H69.8272C68.3826 62.4399 67.2188 63.6037 67.2188 65.0483V201.164C67.2188 202.609 68.3826 203.772 69.8272 203.772H181.384C182.829 203.772 183.993 202.609 183.993 201.164V65.0483C183.993 63.6037 182.829 62.4399 181.384 62.4399Z" fill="white"/>
<path d="M166.683 173.881L161.542 168.74C161.381 168.579 161.152 168.485 160.924 168.485C160.696 168.485 160.481 168.579 160.307 168.74L143.056 185.99L135.257 178.191C134.921 177.855 134.371 177.855 134.035 178.191L129.35 182.876C129.015 183.211 129.015 183.762 129.35 184.097L142.909 197.656C143.083 197.83 143.298 197.911 143.526 197.911C143.755 197.911 143.969 197.83 144.144 197.656L166.683 175.116C167.032 174.767 167.032 174.217 166.683 173.881Z" fill="#E34F1B"/>
<path d="M168.141 41.0915H143.141C141.857 32.0225 134.072 25 124.642 25C115.212 25 107.427 32.0225 106.143 41.0915H81.1425C79.6979 41.0915 78.5342 42.2552 78.5342 43.6998V71.3082C78.5342 72.7528 79.6979 73.9165 81.1425 73.9165H168.141C169.586 73.9165 170.749 72.7528 170.749 71.3082V43.6998C170.709 42.2552 169.545 41.0915 168.141 41.0915Z" fill="#E34F1B"/>
<path d="M95.8298 90.5297C95.8298 94.382 92.6998 97.512 88.8474 97.512C84.9951 97.512 81.8651 94.382 81.8651 90.5297C81.8651 86.6773 84.9951 83.5474 88.8474 83.5474C92.6998 83.5474 95.8298 86.6773 95.8298 90.5297Z" fill="#E34F1B"/>
<path d="M164.209 93.0975H107.869C106.424 93.0975 105.26 91.9338 105.26 90.4892C105.26 89.0446 106.424 87.8809 107.869 87.8809H164.209C165.653 87.8809 166.817 89.0446 166.817 90.4892C166.777 91.9338 165.613 93.0975 164.209 93.0975Z" fill="#0755A3"/>
<path d="M95.8298 113.082C95.8298 116.934 92.6998 120.064 88.8474 120.064C84.9951 120.064 81.8651 116.934 81.8651 113.082C81.8651 109.229 84.9951 106.099 88.8474 106.099C92.6998 106.139 95.8298 109.229 95.8298 113.082Z" fill="#E34F1B"/>
<path d="M164.209 115.691H107.869C106.424 115.691 105.26 114.527 105.26 113.082C105.26 111.638 106.424 110.474 107.869 110.474H164.209C165.653 110.474 166.817 111.638 166.817 113.082C166.777 114.527 165.613 115.691 164.209 115.691Z" fill="#0755A3"/>
<path d="M95.8298 135.674C95.8298 139.527 92.6998 142.657 88.8474 142.657C84.9951 142.657 81.8651 139.527 81.8651 135.674C81.8651 131.822 84.9951 128.692 88.8474 128.692C92.6998 128.692 95.8298 131.822 95.8298 135.674Z" fill="#E34F1B"/>
<path d="M164.209 138.242H107.869C106.424 138.242 105.26 137.078 105.26 135.634C105.26 134.189 106.424 133.025 107.869 133.025H164.209C165.653 133.025 166.817 134.189 166.817 135.634C166.777 137.078 165.613 138.242 164.209 138.242Z" fill="#0755A3"/>
<path d="M95.8298 158.226C95.8298 162.078 92.6998 165.208 88.8474 165.208C84.9951 165.208 81.8651 162.078 81.8651 158.226C81.8651 154.374 84.9951 151.244 88.8474 151.244C92.6998 151.284 95.8298 154.374 95.8298 158.226Z" fill="#E34F1B"/>
<path d="M164.018 160.835H107.677C106.233 160.835 105.069 159.671 105.069 158.227C105.069 156.782 106.233 155.618 107.677 155.618H164.018C165.462 155.618 166.626 156.782 166.626 158.227C166.586 159.671 165.422 160.835 164.018 160.835Z" fill="#0755A3"/>
</svg>
