<svg width="1709" height="2082" viewBox="0 0 1709 2082" fill="none" xmlns="http://www.w3.org/2000/svg">
<path d="M306.747 0C306.747 0 0.118149 342.378 247.338 630.602C457.043 875.005 726.867 650.434 892.075 809.569C1081.9 992.456 1229 981.887 1229 981.887L1215.04 0.593823L306.747 0Z" fill="#104BA9"/>
<path d="M1708.92 1955C1708.92 1644.5 1143.36 1806 1007.54 1554.98C896.622 1349.96 727.84 1412.6 635.518 1493.36C543.082 1574.11 493.098 1803.15 248.199 1847C-90.6044 1907.67 -82.082 2081.5 270.918 2081.5C527.772 2081.5 656.076 1984.98 912.918 1982.5C1010.15 1981.56 1708.92 2191.76 1708.92 1955Z" fill="#447BD4"/>
</svg>
