<svg width="1170" height="793" viewBox="0 0 1170 793" fill="none" xmlns="http://www.w3.org/2000/svg">
<path d="M176.133 159.523C171.513 157.762 166.472 157.105 161.563 157.604C157.232 161.731 149.12 162.887 143.162 163.282C137.019 157.315 129.642 151.743 122.003 147.879C116.911 145.277 110.952 142.543 109.377 137.05C106.856 128.271 91.8409 124.723 82.9419 126.747C71.654 123.698 58.7648 127.64 49.6819 135.026C45.6655 138.285 50.1807 146.407 53.6458 150.245C57.1109 154.082 61.3899 158.393 60.6023 163.492C56.4284 165.621 50.7582 165.752 46.0593 165.542C43.303 165.411 40.4679 164.885 37.8428 165.7C35.2177 166.514 32.9076 169.379 33.9314 171.955C32.1201 175.109 29.9412 176.765 32.0413 179.735C33.6689 182.048 36.4515 183.967 36.4515 186.806C36.4252 189.066 34.5351 190.88 32.5138 191.905C30.4925 192.93 28.2349 193.429 26.3449 194.638C20.3859 198.423 20.3334 206.939 20.9634 213.984C24.8223 218.715 25.4261 226.863 23.5622 232.671C22.8535 234.879 21.7247 237.245 22.5122 239.427C23.431 241.924 26.3711 242.922 28.9437 243.579C34.4564 244.999 40.9141 246.234 45.298 242.607C56.8484 233.04 74.7516 238.007 89.3734 241.293C94.4135 242.423 99.7425 244.289 102.683 248.547C106.62 254.224 104.94 262.11 101.711 268.208C98.4824 274.305 93.836 279.72 91.7884 286.317C89.8721 292.494 90.3971 299.144 90.9484 305.584C91.6309 313.521 92.471 321.88 97.0649 328.398C101.895 335.232 104.914 345.404 104.546 353.736C104.231 360.438 101.869 367.009 102.499 373.712C103.601 385.829 114.075 394.897 124.733 400.732C135.89 406.83 145.498 417.212 149.357 429.355C151.299 435.453 151.851 441.893 153.557 448.043C156.497 458.715 162.902 468.387 171.539 475.274C177.839 480.294 188.182 482.081 196.11 483.527C200.231 484.289 204.641 484.867 207.739 487.68C209.156 488.968 210.206 490.65 211.571 492.017C218.187 498.588 230.393 495.88 237.087 502.373C238.82 504.055 240.001 506.184 241.524 508.05C245.619 513.07 252.26 515.856 258.692 515.304C257.196 520.219 263.076 526.002 261.264 530.838C259.794 534.728 255.358 536.41 252.313 539.249C247.036 544.138 246.196 552.47 248.48 559.304C250.764 566.138 255.568 571.789 260.398 577.124C269.324 587.06 280.086 591.87 289.773 601.043C298.751 609.559 300.798 623.332 298.83 635.554C296.861 647.776 291.506 659.157 287.699 670.932C280.559 692.932 278.826 717.114 285.652 739.192C292.477 761.297 308.437 780.984 329.858 789.684C332.221 790.656 335.135 788.974 336.867 787.108C338.6 785.242 338.967 782.219 337.76 779.985C333.901 772.862 327.023 766.79 322.009 760.43C320.434 758.432 318.78 756.172 318.964 753.622C319.2 750.783 321.642 748.707 323.453 746.499C326.183 743.135 327.679 738.771 327.548 734.435C327.443 730.361 325.054 726.365 325.212 722.291C325.343 718.217 327.548 713.933 331.407 712.619C333.166 712.014 335.108 712.067 336.815 711.331C342.38 708.86 341.514 700.344 345.53 695.771C347.394 693.642 350.15 692.59 352.697 691.355C363.486 686.151 372.358 675.874 373.33 663.941C374.117 654.4 370.652 642.782 377.897 636.526C384.565 630.77 394.803 634.581 403.466 633.188C406.983 632.61 409.346 629.325 411 626.144C412.654 622.964 412.837 619.205 412.26 615.657C411.525 611.32 409.661 607.062 410.081 602.673C410.659 596.496 415.489 591.738 419.216 586.797C423.627 580.962 426.777 574.181 428.43 567.031C430.294 558.883 425.097 549.263 417.799 545.189C410.501 541.115 401.733 541.01 393.385 540.774C385.038 540.537 376.191 539.906 369.366 535.07C363.118 530.654 359.574 523.4 354.639 517.565C346.291 507.682 334.19 501.978 322.455 496.59C318.019 494.54 313.058 492.463 308.437 493.988C306.6 494.592 304.972 495.723 303.082 496.091C297.911 497.089 293.711 492.174 289.091 489.677C279.456 484.473 265.648 492.017 264.782 502.924C259.794 504.633 250.58 503.161 247.745 498.719C245.724 495.512 244.91 491.044 241.393 489.572C239.529 488.784 237.192 489.099 235.67 487.759C233.15 485.524 235.119 481.529 235.565 478.191C236.274 472.882 232.31 467.809 227.48 465.496C222.649 463.183 217.11 462.999 211.755 462.815C206.4 462.631 200.861 462.394 196.057 460.003C186.738 455.324 182.905 442.655 187.001 433.035C191.096 423.415 201.806 417.501 212.228 417.79C222.439 418.079 233.229 425.57 233.36 435.795C233.386 438.397 237.534 438.686 239.791 437.398C242.049 436.11 243.23 433.508 243.781 430.985C244.333 428.462 244.411 425.807 245.173 423.336C246.958 417.606 252.759 413.375 258.771 413.453C265.045 413.532 269.429 407.277 273.865 402.861C278.301 398.445 280.979 391.795 279.22 385.776C278.275 382.543 276.123 379.258 277.199 376.051C278.039 373.554 280.611 372.082 283.053 371.057C289.799 368.219 297.176 366.904 304.5 367.193C310.879 367.456 314.16 363.461 317.415 357.941C319.778 353.973 320.802 348.952 324.556 346.245C330.173 342.224 337.917 345.772 344.795 345.299C354.849 344.615 362.698 333.34 359.837 323.667C358.472 319.067 355.269 315.282 352.644 311.261C349.048 305.715 346.501 299.486 345.189 293.02C343.981 287.08 343.64 280.509 339.729 275.883C333.612 276.172 326.183 275.988 320.723 278.8C319.647 272.544 318.465 266.026 314.606 261.006C310.748 255.986 303.345 253.068 297.911 256.275C292.582 259.429 291.427 266.736 292.424 272.86C293.422 278.984 295.942 284.898 295.785 291.075C295.627 297.251 291.322 304.112 285.127 303.954C281.898 303.875 279.01 301.904 276.753 299.591C273.497 296.305 270.951 292.1 266.777 290.129C263.575 288.604 259.899 288.657 256.461 287.868C244.7 285.24 236.641 271.703 239.87 260.086C243.125 248.468 257.012 241.109 268.431 244.946C282.265 239.873 287.909 222.394 282.37 208.727C276.858 195.059 262 186.543 247.299 185.912C242.994 185.728 238.61 186.096 234.41 185.045C222.597 182.048 216.402 169.038 206.138 162.493C199.26 158.235 183.614 162.362 176.133 159.523Z" fill="#8AA9EF"/>
<path d="M362.383 117.258C357.842 124.197 362.935 133.659 369.55 138.679C376.165 143.673 384.46 146.696 389.684 153.135C398.085 163.491 395.696 178.789 391.102 191.326C386.508 203.864 379.998 216.506 381.573 229.78C382.308 236.035 384.854 241.949 388.188 247.311C391.417 252.489 395.801 257.457 401.707 258.903C409.241 260.716 416.854 256.274 422.55 251.044C428.247 245.813 433.208 239.479 440.165 236.062C450.166 231.147 463.056 232.986 471.771 226.021C482.56 217.4 480.959 200.999 483.925 187.489C488.913 164.832 508.47 148.115 516.135 126.22C517.631 121.936 518.655 117.442 518.55 112.894C518.209 98.228 505.897 86.0584 492.063 81.1696C475.026 75.1505 457.806 78.9354 440.296 78.1206C430.793 77.7001 420.267 73.6523 411.079 77.5161C396.877 83.4826 401.051 97.492 391.732 105.824C383.699 113.026 368.841 107.375 362.383 117.258Z" fill="#8AA9EF"/>
<path d="M745.962 206.071C737.824 198.133 724.541 205.808 716.088 213.405C707.688 220.948 699.287 228.492 690.887 236.035C684.587 241.712 677.788 247.6 669.44 249.019C661.092 250.412 651.038 245.103 650.671 236.64C656.393 231.251 667.786 239.268 673.01 233.38C677.63 228.176 670.805 220.711 664.767 217.216C653.742 210.829 642.349 204.336 629.722 202.602C617.096 200.893 602.789 205.099 596.226 216.033C590.609 225.39 591.659 237.612 586.093 246.996C582.628 252.883 576.879 257.089 572.942 262.661C569.004 268.233 567.298 276.644 572.128 281.48C576.039 285.37 582.681 285.37 586.54 289.313C589.506 292.336 590.53 297.408 594.415 299.064C598.878 300.983 603.918 296.672 604.968 291.941C606.044 287.21 604.548 282.321 603.76 277.538C601.45 263.213 608.617 245.603 622.976 243.552C626.231 243.684 627.334 248.362 625.864 251.28C624.394 254.197 621.558 256.221 620.01 259.113C617.096 264.553 620.482 272.307 626.441 273.858C632.663 275.488 643.032 274.173 642.218 280.56C641.352 287.342 628.83 282.9 624.787 288.393C622.398 291.626 624.498 296.147 624.446 300.168C624.341 308.053 615.652 313.179 607.803 313.731C599.954 314.283 592.105 311.97 584.256 312.679C576.433 313.389 567.901 318.961 568.243 326.82C557.401 331.919 546.113 336.046 534.537 339.174C535.035 347.69 551.101 348.505 551.022 357.021C550.996 362.146 544.643 364.801 539.55 364.433C534.458 364.065 529.286 362.015 524.351 363.329C515.793 365.589 512.801 377.628 517.552 385.092C522.277 392.557 532.016 395.527 540.837 394.844C544.381 394.554 548.161 393.634 550.366 390.848C552.466 388.194 552.65 384.566 553.542 381.281C555.537 373.948 561.759 367.955 569.162 366.273C573.335 365.326 578.428 365.248 580.659 361.594C590.188 366.746 596.883 376.813 597.985 387.615C601.056 391.584 607.882 386.459 607.199 381.517C606.543 376.55 602.159 373.107 598.668 369.506C595.176 365.905 592.289 360.306 595.019 356.101C611.294 360.884 624.472 375.052 628.069 391.663C633.739 390.533 636.889 382.832 633.608 378.048C635.366 374.079 641.85 376.34 643.688 380.282C645.552 384.198 645.368 389.035 648.046 392.478C655.737 402.387 676.318 390.296 682.618 401.152C687.028 408.774 677.079 417.632 668.311 417.369C659.517 417.106 651.511 412.06 642.769 411.192C633.109 410.22 623.737 414.399 614.103 415.503C604.469 416.607 592.577 412.848 590.556 403.36C590.005 400.81 590.241 397.998 588.876 395.737C586.96 392.557 582.628 391.821 578.927 392.241C562.888 394.055 546.612 410.614 533.381 401.388C524.929 417.895 504.217 424.098 492.666 438.607C480.092 454.403 481.142 478.769 493.349 494.828C505.555 510.888 527.107 518.484 547.111 515.961C551.678 515.382 556.509 514.357 560.787 516.118C565.014 517.879 567.718 521.953 571.235 524.871C574.753 527.788 580.607 529.234 583.521 525.712C580.161 534.018 581.106 543.927 585.936 551.444C591.16 559.566 600.873 566.005 600.689 575.678C600.584 580.672 597.67 585.14 596.331 589.977C590.11 612.029 616.151 630.034 620.246 652.585C621.348 658.657 621.348 665.964 626.467 669.407C628.83 670.984 631.77 671.3 634.605 671.484C649.122 672.43 667.419 668.119 670.438 653.847C671.304 649.826 670.674 645.646 670.805 641.52C671.173 629.192 678.707 617.365 689.68 611.819C692.646 610.32 695.927 609.19 698.316 606.851C703.566 601.699 702.385 592.947 699.707 586.087C697.004 579.226 693.092 572.314 694.037 565.033C695.56 553.31 708.108 547.134 717.637 540.142C731.97 529.628 741.814 513.148 744.308 495.538C731.077 499.691 714.907 503.239 704.826 493.724C701.335 490.412 699.182 485.97 697.109 481.634C690.887 468.597 684.666 455.586 678.444 442.575C677.63 440.867 676.79 438.896 677.447 437.108C679.258 432.272 686.529 436.32 689.312 440.657C699.287 456.164 708.265 472.329 716.114 488.993C732.206 486.076 747.589 479.373 760.688 469.595C764.862 466.468 769.01 462.735 770.427 457.715C771.845 452.695 769.246 446.255 764.101 445.362C762.106 445.02 760.085 445.519 758.09 445.729C745.962 446.991 735.435 437.765 727.507 428.487C732.941 422.389 742.811 425.911 750.214 429.328C763.497 435.426 777.568 439.816 791.979 442.313C795.576 442.943 799.251 443.469 802.48 445.151C804.737 446.334 806.706 448.016 808.57 449.751C825.187 465.075 837.472 485.051 843.668 506.814C850.02 508.233 854.483 500.4 854.982 493.935C855.481 487.442 854.719 479.951 859.392 475.431C863.067 471.882 869.079 471.383 872.307 467.414C876.35 462.42 874.25 453.983 878.975 449.62C884.908 444.152 894.516 450.829 897.666 458.267C900.816 465.705 901.997 474.826 908.665 479.373C912.261 478.848 915.858 478.348 919.454 477.822C919.507 496.037 925.833 514.2 937.095 528.498C943.264 525.265 940.455 515.908 936.622 510.099C932.79 504.29 929.009 495.643 934.47 491.359C942.056 491.438 945.574 501.899 952.95 503.686C960.274 505.473 966.811 496.747 965.498 489.309C964.186 481.87 957.807 476.403 951.191 472.75C945.285 466.284 953.817 455.928 962.453 454.456C971.09 452.984 980.54 455.455 988.363 451.512C997.734 446.781 1000.88 434.401 998.758 424.098C996.632 413.794 990.515 404.858 985.554 395.606C981.301 387.694 979.201 375.367 987.47 371.898C989.675 370.978 992.169 371.004 994.558 370.899C1025.85 369.585 1051.73 336.414 1045.43 305.688C1044.25 299.905 1042.02 294.149 1037.9 289.944C1030.47 282.348 1017.84 280.56 1012.28 271.492C1005.48 260.4 1013.88 245.681 1024.77 238.558C1035.64 231.435 1048.95 228.334 1059.11 220.212C1061.81 220.133 1063.26 217.479 1063.76 214.824C1064.07 213.142 1063.65 211.433 1063.65 209.725C1063.62 205.046 1066.96 200.552 1071.42 199.237C1075.91 197.923 1081.13 199.894 1083.63 203.837C1086.7 208.7 1085.46 215.139 1083.23 220.449C1081 225.758 1077.83 230.857 1077.25 236.587C1076.67 242.317 1079.93 249.072 1085.62 249.703C1092.61 250.491 1097.15 242.186 1097.59 235.141C1098.04 228.097 1096.67 220.422 1100.45 214.482C1106.2 205.44 1122.03 203.311 1122.45 192.614C1122.79 183.966 1111.9 178.867 1109.96 170.43C1109.17 167.013 1109.96 163.491 1110.27 159.995C1111.48 147.011 1105.76 133.58 1095.57 125.432C1085.39 117.284 1071.03 114.708 1058.66 118.755C1054.62 120.07 1050.81 122.041 1046.72 123.119C1040.65 124.722 1034.28 124.301 1028.03 123.881C1016.85 123.119 1005.66 122.356 994.453 121.594C984.451 120.911 973.846 120.333 964.947 125.011C951.979 131.845 944.602 148.877 930.059 150.638C919.795 151.873 910.634 144.777 901.026 140.966C885.485 134.815 866.716 137.706 853.722 148.273C848.839 145.776 850.362 138.521 848.629 133.317C846.844 127.876 841.016 124.617 835.32 124.117C829.623 123.618 824.006 125.353 818.572 127.14C806.89 130.951 793.266 137.496 792.189 149.771C791.874 153.214 792.662 156.894 791.218 160.048C789.144 164.516 783.553 166.014 780.062 169.51C775.914 173.689 775.258 180.103 775.074 185.99C774.89 191.878 774.838 198.186 771.451 202.996C768.065 207.78 750.188 210.198 745.962 206.071Z" fill="#8AA9EF"/>
<path d="M964.842 545.057C967.546 548.973 972.009 551.286 976.393 553.152C981.696 555.413 988.127 557.148 992.905 553.941C996.16 551.733 1007.03 536.672 1007.79 533.413C1009.26 527.105 1007.16 527.473 1000.88 526.211C990.7 524.108 953.213 528.077 964.842 545.057Z" fill="#8AA9EF"/>
<path d="M927.881 542.928C942.45 569.475 972.298 586.875 1002.54 586.455C1004.64 584.3 1001.54 581.04 998.785 579.858C991.146 576.625 982.929 575.021 975.107 572.262C967.284 569.528 959.54 565.375 954.92 558.489C952.977 555.624 951.664 552.391 950.063 549.289C945.469 540.432 927.54 518.116 916.304 523.452C919.218 529.629 924.311 536.41 927.881 542.928Z" fill="#8AA9EF"/>
<path d="M1006.95 604.748C1003.06 609.111 999.442 614.42 993.771 615.761C990.411 616.549 986.841 615.813 983.481 616.576C973.611 618.862 971.327 632.136 973.558 642.045C975.816 651.928 980.436 662.31 976.735 671.746C976 673.638 974.923 675.505 974.949 677.555C975.002 679.999 976.656 682.154 978.625 683.626C987.629 690.381 1000.41 685.545 1010.34 680.157C1020.23 674.795 1032.23 668.986 1042.13 674.374C1052.7 680.157 1053.7 694.797 1060.21 704.943C1065.94 713.879 1078.59 719.215 1087.51 713.511C1090.56 711.566 1092.79 708.649 1095 705.784C1099.48 699.922 1103.95 694.061 1108.44 688.2C1114.37 680.446 1120.51 672.193 1121.64 662.494C1123.84 643.78 1107.28 628.719 1092.32 617.285C1091.53 611.319 1090.66 605.168 1087.62 599.964C1081.53 589.556 1069.06 588.452 1072.47 603.197C1062.73 603.539 1054.83 589.03 1043.99 587.637C1030.79 585.955 1015.35 595.338 1006.95 604.748Z" fill="#8AA9EF"/>
<path d="M831.146 361.463C831.146 369.873 824.347 376.707 815.921 376.707C807.521 376.707 800.695 369.9 800.695 361.463C800.695 353.052 807.494 346.218 815.921 346.218C824.347 346.218 831.146 353.052 831.146 361.463Z" fill="#1848D3"/>
<path d="M1061.26 635.658C1061.26 644.069 1054.46 650.902 1046.04 650.902C1037.64 650.902 1030.81 644.095 1030.81 635.658C1030.81 627.247 1037.61 620.413 1046.04 620.413C1054.46 620.413 1061.26 627.247 1061.26 635.658Z" fill="#1848D3"/>
<path d="M981.38 302.428C981.38 310.839 974.581 317.673 966.155 317.673C957.754 317.673 950.929 310.866 950.929 302.428C950.929 294.017 957.728 287.184 966.155 287.184C974.581 287.21 981.38 294.017 981.38 302.428Z" fill="#1848D3"/>
<path d="M477.441 157.734C477.441 166.144 470.642 172.978 462.215 172.978C453.815 172.978 446.99 166.171 446.99 157.734C446.99 149.296 453.789 142.489 462.215 142.489C470.642 142.489 477.441 149.296 477.441 157.734Z" fill="#1848D3"/>
<path d="M152.244 195.793C152.244 204.204 145.445 211.038 137.019 211.038C128.618 211.038 121.793 204.23 121.793 195.793C121.793 187.382 128.592 180.548 137.019 180.548C145.445 180.575 152.244 187.382 152.244 195.793Z" fill="#1848D3"/>
<path d="M369.051 593.761C369.051 602.172 362.252 609.006 353.825 609.006C345.425 609.006 338.6 602.198 338.6 593.761C338.6 585.35 345.399 578.516 353.825 578.516C362.226 578.516 369.051 585.35 369.051 593.761Z" fill="#1848D3"/>
<path d="M249.242 355.759C249.242 364.17 242.443 371.004 234.016 371.004C225.616 371.004 218.791 364.196 218.791 355.759C218.791 347.348 225.59 340.514 234.016 340.514C242.416 340.514 249.242 347.348 249.242 355.759Z" fill="#1848D3"/>
<path d="M595.333 471.908C595.333 480.319 588.534 487.153 580.108 487.153C571.708 487.153 564.882 480.346 564.882 471.908C564.882 463.497 571.681 456.664 580.108 456.664C588.534 456.664 595.333 463.497 595.333 471.908Z" fill="#1848D3"/>
<path d="M134.656 193.296C135.496 192.271 136.336 191.272 137.176 190.273" stroke="white" stroke-miterlimit="10"/>
<path d="M142.295 184.359C225.353 91.9702 365.691 78.6179 464.683 154.342" stroke="#3967CF" stroke-miterlimit="10" stroke-dasharray="2.98 2.98"/>
<path d="M467.781 156.76C468.804 157.574 469.828 158.389 470.852 159.23C470.852 159.23 471.771 158.074 473.425 156.26" stroke="#3967CF" stroke-miterlimit="10"/>
<path d="M479.016 150.636C505.687 126.086 588.141 79.2481 580.318 448.723" stroke="#3967CF" stroke-miterlimit="10" stroke-dasharray="3.02 3.02"/>
<path d="M580.213 452.719C580.187 454.033 580.161 455.347 580.108 456.661" stroke="#3967CF" stroke-miterlimit="10"/>
<path d="M815.658 361.384C814.425 360.911 813.191 360.438 811.983 359.991" stroke="#3967CF" stroke-miterlimit="10"/>
<path d="M804.449 357.441C715.905 329.448 620.062 372.738 582.655 458.319" stroke="#3967CF" stroke-miterlimit="10" stroke-dasharray="3.03 3.03"/>
<path d="M581.106 461.919C580.607 463.128 580.109 464.364 579.636 465.573" stroke="#3967CF" stroke-miterlimit="10"/>
<path d="M955.339 301.849C954.106 301.376 952.872 300.929 951.638 300.483" stroke="#3967CF" stroke-miterlimit="10"/>
<path d="M944.393 298.248C894.884 284.896 842.487 308.92 820.436 355.653" stroke="#3967CF" stroke-miterlimit="10" stroke-dasharray="2.9 2.9"/>
<path d="M818.861 359.122C818.336 360.331 817.837 361.54 817.365 362.776" stroke="#3967CF" stroke-miterlimit="10"/>
<path d="M578.113 465.39C577.509 464.233 576.879 463.077 576.249 461.92" stroke="#3967CF" stroke-miterlimit="10"/>
<path d="M572.443 455.165C505.03 339.252 359.469 294.648 238.609 353.524" stroke="#3967CF" stroke-miterlimit="10" stroke-dasharray="2.95 2.95"/>
<path d="M235.145 355.259C233.963 355.864 232.808 356.442 231.653 357.073" stroke="#3967CF" stroke-miterlimit="10"/>
<path d="M354.298 595.075C354.639 593.813 355.007 592.552 355.4 591.29" stroke="#3967CF" stroke-miterlimit="10"/>
<path d="M357.842 583.721C388.293 496.116 480.066 445.23 570.711 466.336" stroke="#3967CF" stroke-miterlimit="10" stroke-dasharray="3.03 3.03"/>
<path d="M574.517 467.257C575.777 467.572 577.063 467.914 578.323 468.282C578.323 468.282 579.242 467.231 581.001 465.417" stroke="#3967CF" stroke-miterlimit="10"/>
<path d="M586.619 459.976C626.809 422.652 809.095 286.658 1041.63 629.114" stroke="#3967CF" stroke-miterlimit="10" stroke-dasharray="2.98 2.98"/>
<path d="M1043.86 632.372C1044.59 633.45 1045.33 634.554 1046.06 635.631" stroke="#3967CF" stroke-miterlimit="10"/>
<path d="M519.443 14.9333H437.96C434.547 14.9333 431.791 17.6932 431.791 21.1101C431.791 24.5271 434.547 27.2869 437.96 27.2869H519.443C522.855 27.2869 525.612 24.5271 525.612 21.1101C525.612 17.6932 522.855 14.9333 519.443 14.9333Z" fill="#B0CEF1"/>
<path d="M551.626 3.60449H470.143C466.731 3.60449 463.974 6.36432 463.974 9.78125C463.974 13.1982 466.731 15.958 470.143 15.958H551.626C555.039 15.958 557.795 13.1982 557.795 9.78125C557.795 6.36432 555.039 3.60449 551.626 3.60449Z" fill="#B0CEF1"/>
<path d="M575.987 27.1292H494.505C491.092 27.1292 488.336 29.889 488.336 33.3059C488.336 36.7228 491.092 39.4827 494.505 39.4827H575.987C579.4 39.4827 582.156 36.7228 582.156 33.3059C582.156 29.889 579.374 27.1292 575.987 27.1292Z" fill="#B0CEF1"/>
<path d="M1079.06 431.326H1145.19C1147.94 431.326 1150.2 429.092 1150.2 426.306C1150.2 423.546 1147.97 421.286 1145.19 421.286H1079.06C1076.3 421.286 1074.05 423.52 1074.05 426.306C1074.05 429.092 1076.28 431.326 1079.06 431.326Z" fill="#B0CEF1"/>
<path d="M1052.91 440.526H1119.04C1121.8 440.526 1124.05 438.292 1124.05 435.506C1124.05 432.746 1121.82 430.485 1119.04 430.485H1052.91C1050.16 430.485 1047.9 432.72 1047.9 435.506C1047.93 438.292 1050.16 440.526 1052.91 440.526Z" fill="#B0CEF1"/>
<path d="M1033.15 421.442H1099.27C1102.03 421.442 1104.29 419.208 1104.29 416.422C1104.29 413.662 1102.06 411.402 1099.27 411.402H1033.15C1030.39 411.402 1028.13 413.636 1028.13 416.422C1028.16 419.182 1030.39 421.442 1033.15 421.442Z" fill="#B0CEF1"/>
<path d="M833.85 708.806H767.724C764.967 708.806 762.71 711.04 762.71 713.826C762.71 716.586 764.941 718.846 767.724 718.846H833.85C836.606 718.846 838.864 716.612 838.864 713.826C838.864 711.066 836.606 708.806 833.85 708.806Z" fill="#B0CEF1"/>
<path d="M859.969 699.606H793.843C791.087 699.606 788.829 701.841 788.829 704.627C788.829 707.386 791.061 709.647 793.843 709.647H859.969C862.726 709.647 864.983 707.413 864.983 704.627C864.983 701.867 862.726 699.606 859.969 699.606Z" fill="#B0CEF1"/>
<path d="M879.736 718.715H813.61C810.854 718.715 808.596 720.949 808.596 723.735C808.596 726.495 810.828 728.755 813.61 728.755H879.736C882.493 728.755 884.75 726.521 884.75 723.735C884.75 720.949 882.493 718.715 879.736 718.715Z" fill="#B0CEF1"/>
<path d="M305.602 11.332H239.476C236.72 11.332 234.462 13.5662 234.462 16.3523C234.462 19.1121 236.693 21.3726 239.476 21.3726H305.602C308.358 21.3726 310.616 19.1384 310.616 16.3523C310.59 13.5662 308.358 11.332 305.602 11.332Z" fill="#B0CEF1"/>
<path d="M285.783 21.2144H219.656C216.9 21.2144 214.642 23.4485 214.642 26.2346C214.642 29.0207 216.874 31.2549 219.656 31.2549H285.783C288.539 31.2549 290.796 29.0207 290.796 26.2346C290.796 23.4485 288.565 21.2144 285.783 21.2144Z" fill="#B0CEF1"/>
<path d="M203.696 724.419H137.544C134.788 724.419 132.53 726.653 132.53 729.439C132.53 732.199 134.761 734.46 137.544 734.46H203.67C206.426 734.46 208.684 732.226 208.684 729.439C208.684 726.653 206.453 724.419 203.696 724.419Z" fill="#B0CEF1"/>
<path d="M98.1409 650.167H51.9655C49.2091 650.167 46.9515 652.401 46.9515 655.187C46.9515 657.947 49.1829 660.208 51.9655 660.208H98.1409C100.897 660.208 103.155 657.973 103.155 655.187C103.155 652.401 100.897 650.167 98.1409 650.167Z" fill="#B0CEF1"/>
<path d="M121.032 640.126H74.8832C72.1268 640.126 69.8693 642.36 69.8693 645.146C69.8693 647.906 72.1006 650.167 74.8832 650.167H121.059C123.815 650.167 126.073 647.933 126.073 645.146C126.046 642.36 123.815 640.126 121.032 640.126Z" fill="#B0CEF1"/>
<path d="M504.716 654.451H458.54C455.784 654.451 453.526 656.686 453.526 659.472C453.526 662.232 455.758 664.492 458.54 664.492H504.716C507.472 664.492 509.73 662.258 509.73 659.472C509.73 656.712 507.498 654.451 504.716 654.451Z" fill="#B0CEF1"/>
<path d="M494.95 664.466H448.775C446.019 664.466 443.761 666.7 443.761 669.486C443.761 672.246 445.992 674.506 448.775 674.506H494.95C497.707 674.506 499.964 672.272 499.964 669.486C499.964 666.7 497.707 664.466 494.95 664.466Z" fill="#B0CEF1"/>
</svg>
