<svg width="120" height="120" viewBox="0 0 120 120" fill="none" xmlns="http://www.w3.org/2000/svg">
<path d="M107.206 20.8656C106.935 17.8222 104.426 15.527 101.37 15.527H86.2116V13.293H86.5067C88.6713 13.293 90.4323 11.532 90.4323 9.36762V3.9254C90.4323 1.76103 88.6713 0 86.5067 0H41.8904C40.9196 0 40.1326 0.786768 40.1326 1.75775C40.1326 2.72873 40.9196 3.51549 41.8904 3.51549H86.5067C86.7328 3.51549 86.9168 3.69924 86.9168 3.9254V9.36762C86.9168 9.59379 86.7328 9.77753 86.5067 9.77753H20.789C20.5628 9.77753 20.3788 9.59379 20.3788 9.36762V3.9254C20.3788 3.69924 20.5628 3.51549 20.789 3.51549H33.6489C34.6196 3.51549 35.4066 2.72873 35.4066 1.75775C35.4066 0.786768 34.6196 0 33.6489 0H20.789C18.6244 0 16.8633 1.76103 16.8633 3.9254V9.36762C16.8633 11.532 18.6244 13.293 20.789 13.293H21.084V15.527H5.92521C2.86955 15.527 0.360655 17.8222 0.0892591 20.8656C0.0536354 21.2636 -0.736179 30.7374 3.14329 41.23C6.69276 50.8301 14.8361 63.0879 33.494 67.8985C36.4976 70.2717 39.9273 72.1288 43.6483 73.3323L44.5331 74.7926C46.2053 77.5532 47.0891 80.8168 47.0891 84.2303C47.0891 86.3155 46.7567 88.3526 46.1015 90.2845L44.8729 93.905H40.7853C36.5906 93.905 33.1778 97.3178 33.1778 101.513V105.195H26.7805C24.9752 105.195 23.5064 106.664 23.5064 108.469V116.726C23.5064 118.531 24.9752 120 26.7805 120H80.5154C82.3207 120 83.7894 118.531 83.7894 116.726V108.469C83.7894 106.664 82.3207 105.195 80.5154 105.195H74.1181V101.513C74.1181 97.3178 70.7052 93.905 66.5106 93.905H62.423L61.1944 90.2845C60.5389 88.3528 60.2066 86.3157 60.2066 84.2303C60.2066 80.817 61.0904 77.5535 62.7626 74.7926L63.6473 73.3323C67.3683 72.1288 70.7978 70.2719 73.8017 67.8985C92.4596 63.0879 100.603 50.8301 104.152 41.23C108.032 30.7374 107.242 21.2638 107.206 20.8656ZM21.7349 48.8312C18.4575 45.7628 15.9467 41.9565 14.2295 37.4199C13.0364 34.2676 12.2555 30.8452 11.9079 27.2453H21.084V42.3413C21.084 44.5631 21.3088 46.7334 21.7349 48.8312ZM6.44082 40.011C2.83275 30.2525 3.55835 21.5439 3.59093 21.178C3.69944 19.9607 4.70299 19.0427 5.92521 19.0427H21.084V23.7301H11.7623C10.8127 23.7301 9.90147 24.1325 9.26212 24.8342C8.62207 25.5368 8.30567 26.4827 8.39403 27.4295C8.76409 31.3957 9.62117 35.1758 10.9416 38.6646C13.5494 45.5545 17.7706 50.9344 23.5486 54.7644C24.6855 57.5083 26.1871 60.0643 27.9931 62.3717C15.2581 57.093 9.26048 47.6368 6.44082 40.011ZM80.2739 108.71V116.485H27.0217V108.71H80.2739ZM66.5106 97.4205C68.7668 97.4205 70.6026 99.2562 70.6026 101.513V105.195H36.6933V101.513C36.6933 99.2562 38.5291 97.4205 40.7853 97.4205H66.5106ZM57.8655 91.4141L58.7106 93.905H48.5848L49.4302 91.4139C50.2092 89.1173 50.6043 86.7005 50.6043 84.2303C50.6043 80.7727 49.8316 77.4346 48.3622 74.4739C50.0831 74.7561 51.8481 74.9051 53.6478 74.9051C55.4473 74.9051 57.2125 74.7561 58.9333 74.4739C57.4638 77.4346 56.6911 80.7727 56.6911 84.2303C56.6913 86.7008 57.0862 89.1176 57.8655 91.4141ZM53.6478 71.3894C37.6305 71.3894 24.5995 58.3584 24.5995 42.3413V13.293H82.6961V42.3413C82.6961 58.3586 69.6651 71.3894 53.6478 71.3894ZM100.855 40.011C98.0354 47.6371 92.0375 57.0942 79.3018 62.3728C81.1111 60.0613 82.615 57.5004 83.7529 54.7508C88.7142 51.4563 92.5351 47.0193 95.1661 41.4634C95.5816 40.5862 95.2071 39.5378 94.3298 39.1225C93.4528 38.7072 92.4047 39.0813 91.989 39.9588C90.3601 43.3985 88.2119 46.3621 85.5594 48.8419C85.9869 46.7408 86.2121 44.5671 86.2121 42.3416V27.2456H95.3882C95.2134 29.0542 94.9228 30.8478 94.5241 32.5793C94.3064 33.5254 94.8968 34.469 95.8429 34.6865C96.7881 34.9053 97.7324 34.314 97.9501 33.3679C98.394 31.4393 98.7141 29.4413 98.9021 27.4295C98.9904 26.4827 98.674 25.5368 98.034 24.8342C97.3946 24.1325 96.4834 23.7301 95.5338 23.7301H86.2121V19.0427H101.371C102.593 19.0427 103.597 19.9607 103.705 21.1783C103.737 21.5439 104.463 30.2525 100.855 40.011Z" fill="#AA155B"/>
<path d="M65.2062 34.1385L60.166 33.4061C59.9464 33.374 59.7568 33.2362 59.6586 33.0375L57.4044 28.4701C56.6936 27.0297 55.2541 26.1349 53.6478 26.1349C52.0414 26.1349 50.6019 27.0297 49.8911 28.4701L47.637 33.0375C47.5388 33.2364 47.3492 33.3742 47.1296 33.4061L42.0893 34.1385C40.4996 34.3694 39.2038 35.4618 38.7074 36.9896C38.211 38.5174 38.6171 40.1629 39.7674 41.2843L43.4146 44.8392C43.5735 44.9941 43.6459 45.217 43.6084 45.4359L42.7474 50.456C42.4758 52.0392 43.1144 53.609 44.414 54.5532C45.7133 55.497 47.404 55.6196 48.8261 54.8722L53.3342 52.5021C53.5306 52.3987 53.7649 52.3987 53.9613 52.5021L58.4696 54.8722C59.0881 55.1973 59.7572 55.3578 60.4228 55.3578C61.2879 55.3578 62.1473 55.0867 62.8816 54.553C64.1811 53.6087 64.8198 52.0387 64.5481 50.4558L63.6871 45.4357C63.6496 45.2168 63.722 44.9939 63.8809 44.8392L67.5283 41.2839C68.6786 40.1627 69.0848 38.517 68.5884 36.9893C68.092 35.4618 66.7957 34.3694 65.2062 34.1385ZM65.0743 38.7668L61.4269 42.3221C60.4395 43.2847 59.989 44.6707 60.222 46.03L61.083 51.0502C61.1447 51.4095 60.9415 51.6173 60.8149 51.7094C60.6886 51.8015 60.428 51.9309 60.1053 51.7608L55.597 49.3906C54.9867 49.0698 54.3171 48.9092 53.6475 48.9092C52.9779 48.9092 52.3084 49.0698 51.6981 49.3906L47.19 51.7608C46.8675 51.9307 46.6069 51.8013 46.4801 51.7094C46.3536 51.6173 46.1506 51.4097 46.212 51.0502L47.0731 46.03C47.3063 44.6707 46.8558 43.2847 45.8682 42.3219L42.221 38.767C41.9599 38.5125 42.0019 38.2249 42.0504 38.0761C42.0987 37.9273 42.2337 37.6699 42.5943 37.6175L47.6346 36.8851C48.9996 36.6866 50.1787 35.8299 50.789 34.5934L53.0431 30.0261C53.2043 29.6991 53.491 29.6504 53.6473 29.6504C53.8036 29.6504 54.0902 29.6991 54.2515 30.0261L56.5056 34.5934C57.1159 35.8299 58.295 36.6868 59.66 36.8851L64.7005 37.6175C65.0612 37.6699 65.1962 37.9273 65.2444 38.0761C65.2932 38.2249 65.3352 38.5125 65.0743 38.7668Z" fill="#AA155B"/>
</svg>
