<svg width="120" height="120" viewBox="0 0 120 120" fill="none" xmlns="http://www.w3.org/2000/svg">
<path d="M114 0H6C2.68629 0 0 2.68629 0 6V74C0 77.3137 2.68629 80 6 80H20V108C16.6863 108 14 110.686 14 114C14 117.314 16.6863 120 20 120H32C35.3137 120 38 117.314 38 114C38 110.686 35.3137 108 32 108V100H88V108C84.6863 108 82 110.686 82 114C82 117.314 84.6863 120 88 120H100C103.314 120 106 117.314 106 114C106 110.686 103.314 108 100 108V80H114C117.314 80 120 77.3137 120 74V6C120 2.68629 117.314 0 114 0ZM34 114C34 115.105 33.1046 116 32 116H20C18.8954 116 18 115.105 18 114C18 112.895 18.8954 112 20 112H32C33.1046 112 34 112.895 34 114ZM24 108V80H28V108H24ZM88 80V88H32V80H88ZM32 96V92H88V96H32ZM102 114C102 115.105 101.105 116 100 116H88C86.8954 116 86 115.105 86 114C86 112.895 86.8954 112 88 112H100C101.105 112 102 112.895 102 114ZM96 108H92V80H96V108ZM116 74C116 75.1046 115.105 76 114 76H6C4.89543 76 4 75.1046 4 74V6C4 4.89543 4.89543 4 6 4H114C115.105 4 116 4.89543 116 6V74Z" fill="#AA155B"/>
<path d="M110 7.99999H9.9996C8.89503 7.99999 7.9996 8.89542 7.9996 9.99999V70C7.9996 71.1046 8.89503 72 9.9996 72H110C111.104 72 112 71.1046 112 70V9.99999C112 8.89542 111.104 7.99999 110 7.99999ZM108 68H11.9996V12H108V68Z" fill="#AA155B"/>
<path d="M82.9189 44.8649V50.8649C82.9189 53.074 84.7098 54.8649 86.9189 54.8649H98.9189C101.128 54.8649 102.919 53.074 102.919 50.8649V38.8649C102.919 36.6557 101.128 34.8649 98.9189 34.8649C98.9115 34.3353 98.7044 33.8281 98.3389 33.4449L90.9189 26.0449C90.1722 25.2937 89.1581 24.8693 88.0989 24.8649H82.9189C80.7098 24.8649 78.9189 26.6557 78.9189 28.8649V40.8649C78.9189 43.074 80.7098 44.8649 82.9189 44.8649ZM98.9189 50.8649H86.9189V44.8649H94.9189C97.1281 44.8649 98.9189 43.074 98.9189 40.8649V50.8649ZM82.9189 28.8649H88.0989L92.0989 32.8649H90.9189C89.8143 32.8649 88.9189 33.7603 88.9189 34.8649C88.9189 35.9694 89.8143 36.8649 90.9189 36.8649H94.9189V40.8649H82.9189V28.8649Z" fill="#AA155B"/>
<path d="M16.2162 26.8649C16.2162 27.9694 17.1116 28.8649 18.2162 28.8649H54.7568C55.8613 28.8649 56.7568 27.9694 56.7568 26.8649C56.7568 25.7603 55.8613 24.8649 54.7568 24.8649H18.2162C17.1116 24.8649 16.2162 25.7603 16.2162 26.8649Z" fill="#AA155B"/>
<path d="M17.9998 47.2432H47.9998C49.1044 47.2432 49.9998 46.3478 49.9998 45.2432C49.9998 44.1387 49.1044 43.2432 47.9998 43.2432H17.9998C16.8952 43.2432 15.9998 44.1387 15.9998 45.2432C15.9998 46.3478 16.8952 47.2432 17.9998 47.2432Z" fill="#AA155B"/>
<path d="M17.9998 55.2432H35.9998C37.1044 55.2432 37.9998 54.3478 37.9998 53.2432C37.9998 52.1386 37.1044 51.2432 35.9998 51.2432H17.9998C16.8952 51.2432 15.9998 52.1386 15.9998 53.2432C15.9998 54.3478 16.8952 55.2432 17.9998 55.2432Z" fill="#AA155B"/>
</svg>
