<svg width="120" height="120" viewBox="0 0 120 120" fill="none" xmlns="http://www.w3.org/2000/svg">
<path d="M117.533 23.4825L89.5169 2.93742C89.538 2.62453 89.5832 2.31914 89.5832 1.99992C89.5832 0.895311 88.6879 0 87.5833 0H79.5834C78.4788 0 77.5835 0.895311 77.5835 1.99992C77.5835 4.44632 70.5717 7.99991 59.5835 7.99991C48.5953 7.99991 41.5835 4.44609 41.5835 1.99992C41.5835 0.895311 40.6882 0 39.5836 0H31.5837C30.4791 0 29.5838 0.895311 29.5838 1.99992C29.5838 2.31914 29.629 2.62453 29.6501 2.93742L1.63205 23.4834C0.180095 24.5528 -0.379357 26.4602 0.264939 28.1446L8.92601 50.6622C9.33101 51.715 10.1614 52.5477 11.213 52.9555C12.2647 53.3633 13.4396 53.3083 14.4483 52.8039L22.6885 48.6838C23.3084 48.3733 24.0448 48.4061 24.6345 48.7705C25.2242 49.1348 25.5832 49.7786 25.583 50.4719V118C25.583 119.105 26.4783 120 27.5829 120H91.5829C92.6875 120 93.5828 119.105 93.5828 118V50.4716C93.5826 49.7783 93.9416 49.1345 94.5313 48.7703C95.121 48.4061 95.8574 48.3733 96.4773 48.6836L104.717 52.8037C105.726 53.308 106.901 53.3631 107.953 52.9553C109.005 52.5475 109.836 51.7147 110.241 50.6622L118.9 28.1456C119.546 26.4607 118.986 24.5521 117.533 23.4825ZM37.965 4.00007C40.0245 9.21209 50.0705 12 59.583 12C69.0956 12 79.1416 9.21209 81.201 4.00007H85.3759C83.838 11.2579 73.8614 16 59.583 16C45.3047 16 35.3283 11.2579 33.7901 4.00007H37.965ZM12.6596 49.2264L3.99853 26.7089L6.53586 24.8482L15.3875 47.8621L12.6596 49.2264ZM89.5832 116H29.5833V112H89.5832V116ZM98.2668 45.1054C96.4082 44.1688 94.1959 44.2684 92.429 45.3681C90.6545 46.4558 89.5757 48.3904 89.5832 50.4716V108H29.5833V50.4716C29.5831 48.3923 28.5064 46.461 26.7373 45.3679C24.9685 44.2748 22.7595 44.1754 20.8997 45.1054L18.9821 46.0644L9.87922 22.3966L30.6324 7.17796C33.8972 15.0164 44.7026 20.0001 59.5833 20.0001C74.4639 20.0001 85.2693 15.0164 88.5341 7.17796L109.287 22.3966L100.184 46.0642L98.2668 45.1054ZM106.507 49.2255L103.779 47.8616L112.631 24.8482L115.168 26.7089L106.507 49.2255Z" fill="#AA155B"/>
<path d="M75.583 37.7777H43.5829C38.0627 37.7843 33.5894 42.2575 33.5828 47.7778V61.7777C33.5828 62.8823 34.4784 63.7776 35.5828 63.7776V79.7776C35.5828 80.3706 35.8457 80.9331 36.3011 81.313C36.7563 81.6929 37.3567 81.8514 37.9401 81.7454L81.9399 73.7455C82.891 73.5728 83.5824 72.7445 83.5824 71.7777V63.7776C84.687 63.7776 85.5824 62.8823 85.5824 61.7777V47.7778C85.5765 42.2575 81.103 37.784 75.583 37.7777ZM79.5828 70.1087L39.5828 77.3811V63.7776H79.5828V70.1087ZM81.583 59.7775H37.5829V47.7775C37.5864 44.4654 40.2707 41.7811 43.5829 41.7775H75.5828C78.895 41.7811 81.5792 44.4654 81.5828 47.7775L81.583 59.7775Z" fill="#AA155B"/>
<path d="M43.583 49.7777C42.4783 49.7777 41.583 50.673 41.583 51.7776V53.7775C41.583 54.8821 42.4783 55.7774 43.583 55.7774C44.6876 55.7774 45.5829 54.8819 45.5829 53.7775V51.7776C45.5831 50.673 44.6876 49.7777 43.583 49.7777Z" fill="#AA155B"/>
<path d="M51.5832 49.7777C50.4785 49.7777 49.5832 50.673 49.5832 51.7776V53.7775C49.5832 54.8821 50.4785 55.7774 51.5832 55.7774C52.6878 55.7774 53.5831 54.8819 53.5831 53.7775V51.7776C53.5831 50.673 52.6875 49.7777 51.5832 49.7777Z" fill="#AA155B"/>
<path d="M59.5834 49.7777C58.4788 49.7777 57.5834 50.673 57.5834 51.7776V53.7775C57.5834 54.8821 58.4788 55.7774 59.5834 55.7774C60.688 55.7774 61.5833 54.8819 61.5833 53.7775V51.7776C61.5833 50.673 60.688 49.7777 59.5834 49.7777Z" fill="#AA155B"/>
<path d="M67.5836 49.7777C66.479 49.7777 65.5836 50.673 65.5836 51.7776V53.7775C65.5836 54.8821 66.479 55.7774 67.5836 55.7774C68.6882 55.7774 69.5835 54.8819 69.5835 53.7775V51.7776C69.5837 50.673 68.6882 49.7777 67.5836 49.7777Z" fill="#AA155B"/>
<path d="M75.5838 49.7777C74.4792 49.7777 73.5838 50.673 73.5838 51.7776V53.7775C73.5838 54.8821 74.4792 55.7774 75.5838 55.7774C76.6884 55.7774 77.5837 54.8819 77.5837 53.7775V51.7776C77.5837 50.673 76.6881 49.7777 75.5838 49.7777Z" fill="#AA155B"/>
</svg>
