<svg width="854" height="604" viewBox="0 0 854 604" fill="none" xmlns="http://www.w3.org/2000/svg">
<path d="M837.48 149.373C828.75 132.417 817.306 117.003 803.599 103.741L333.627 99.8265L720.572 53.8847C695.254 45.4133 668.762 40.9708 642.065 40.7196C604.814 15.2887 556.937 0 504.714 0C457.858 0 414.53 12.3111 379.207 33.1999C349.158 20.1028 314.953 12.7041 278.608 12.7041C174.186 12.7041 87.1764 73.844 67.6553 154.928L837.48 149.373Z" fill="#D7FFD7"/>
<path d="M854 217.352C853.968 195.135 848.963 173.206 839.354 153.174L24.834 225.477C16.5679 238.081 10.1422 251.8 5.75127 266.219L257.984 298.006L0 321.184C7.76158 412.97 100.84 485.453 214.543 485.453C271.776 485.453 323.779 467.081 362.315 437.131C400.972 467.648 453.451 486.398 511.327 486.398C597.158 486.398 671.244 445.082 705.744 385.34C774.956 366.771 828.72 320.134 847.123 261.805L528.142 219.998H854C854 219.128 854 218.252 854 217.352Z" fill="#D7FFD7"/>
<path d="M214.195 417.981C214.195 417.981 179.265 367.58 185.197 320.013C187.809 300.078 183.885 279.834 174.012 262.319C169.261 254.04 163.762 246.213 157.582 238.937" stroke="#535461" stroke-width="2" stroke-miterlimit="10"/>
<path d="M161.142 208.941C163.409 215.781 157.582 239.73 157.582 239.73C157.582 239.73 138.62 223.988 136.353 217.141C135.266 213.854 135.529 210.269 137.084 207.176C138.64 204.083 141.36 201.734 144.647 200.647C147.934 199.559 151.519 199.822 154.612 201.378C157.706 202.933 160.054 205.654 161.142 208.941Z" fill="#1EAA1E"/>
<path d="M194.168 240.07C192.354 247.046 174.45 263.982 174.45 263.982C174.45 263.982 167.089 240.463 168.911 233.488C169.323 231.808 170.065 230.226 171.093 228.835C172.122 227.444 173.417 226.272 174.903 225.386C176.388 224.5 178.035 223.918 179.748 223.674C181.461 223.431 183.205 223.53 184.879 223.966C186.553 224.402 188.123 225.167 189.499 226.216C190.875 227.264 192.029 228.576 192.893 230.075C193.757 231.573 194.315 233.229 194.534 234.945C194.753 236.661 194.629 238.403 194.168 240.07Z" fill="#1EAA1E"/>
<path d="M214.717 305.148C209.623 310.257 185.62 315.834 185.62 315.834C185.62 315.834 191.145 291.816 196.201 286.715C198.645 284.264 201.963 282.884 205.425 282.879C208.887 282.874 212.209 284.244 214.66 286.689C217.111 289.133 218.491 292.451 218.496 295.913C218.501 299.375 217.131 302.696 214.686 305.148H214.717Z" fill="#6C63FF"/>
<path d="M219.168 357.922C215.012 363.809 192.294 373.369 192.294 373.369C192.294 373.369 193.677 348.762 197.834 342.875C199.829 340.045 202.866 338.125 206.278 337.535C209.689 336.946 213.195 337.735 216.025 339.731C218.854 341.726 220.774 344.764 221.364 348.175C221.954 351.586 221.164 355.092 219.168 357.922Z" fill="#6C63FF"/>
<path d="M148.883 273.92C155.367 277.064 179.869 274.434 179.869 274.434C179.869 274.434 166.749 253.576 160.219 250.424C157.123 249.06 153.618 248.952 150.443 250.122C147.268 251.292 144.672 253.649 143.202 256.697C141.732 259.744 141.502 263.243 142.562 266.456C143.622 269.67 145.888 272.346 148.883 273.92Z" fill="#1EAA1E"/>
<path d="M154.861 335.536C161.996 336.595 184.592 326.755 184.592 326.755C184.592 326.755 165.827 310.771 158.708 309.713C157.012 309.461 155.284 309.545 153.621 309.961C151.958 310.377 150.393 311.116 149.016 312.137C146.234 314.199 144.385 317.28 143.876 320.705C143.367 324.129 144.239 327.616 146.301 330.397C148.362 333.179 151.444 335.027 154.869 335.536H154.861Z" fill="#1EAA1E"/>
<path d="M168.903 394.621C175.758 396.888 199.692 390.993 199.692 390.993C199.692 390.993 183.897 372.099 177.02 369.832C175.391 369.297 173.673 369.088 171.964 369.217C170.254 369.346 168.587 369.811 167.057 370.584C165.527 371.358 164.165 372.425 163.047 373.725C161.93 375.025 161.079 376.532 160.544 378.16C160.009 379.789 159.801 381.507 159.93 383.217C160.059 384.926 160.523 386.593 161.296 388.123C162.07 389.653 163.137 391.015 164.437 392.133C165.737 393.25 167.244 394.101 168.873 394.636L168.903 394.621Z" fill="#1EAA1E"/>
<path opacity="0.25" d="M161.142 208.941C163.409 215.781 157.582 239.73 157.582 239.73C157.582 239.73 138.62 223.988 136.353 217.141C135.266 213.854 135.529 210.269 137.084 207.176C138.64 204.083 141.36 201.734 144.647 200.647C147.934 199.559 151.519 199.822 154.612 201.378C157.706 202.933 160.054 205.654 161.142 208.941Z" fill="black"/>
<path opacity="0.25" d="M194.168 240.07C192.354 247.046 174.45 263.982 174.45 263.982C174.45 263.982 167.089 240.463 168.911 233.488C169.323 231.808 170.065 230.226 171.093 228.835C172.122 227.444 173.417 226.272 174.903 225.386C176.388 224.5 178.035 223.918 179.748 223.674C181.461 223.431 183.205 223.53 184.879 223.966C186.553 224.402 188.123 225.167 189.499 226.216C190.875 227.264 192.029 228.576 192.893 230.075C193.757 231.573 194.315 233.229 194.534 234.945C194.753 236.661 194.629 238.403 194.168 240.07Z" fill="black"/>
<path opacity="0.25" d="M214.717 305.148C209.623 310.257 185.62 315.834 185.62 315.834C185.62 315.834 191.145 291.816 196.201 286.715C198.645 284.264 201.963 282.884 205.425 282.879C208.887 282.874 212.209 284.244 214.66 286.689C217.111 289.133 218.491 292.451 218.496 295.913C218.501 299.375 217.131 302.696 214.686 305.148H214.717Z" fill="black"/>
<path opacity="0.25" d="M219.168 357.922C215.012 363.809 192.294 373.369 192.294 373.369C192.294 373.369 193.677 348.762 197.834 342.875C199.829 340.045 202.866 338.125 206.278 337.535C209.689 336.946 213.195 337.735 216.025 339.731C218.854 341.726 220.774 344.764 221.364 348.175C221.954 351.586 221.164 355.092 219.168 357.922Z" fill="black"/>
<path opacity="0.25" d="M148.883 273.92C155.367 277.064 179.869 274.434 179.869 274.434C179.869 274.434 166.749 253.576 160.219 250.424C157.123 249.06 153.618 248.952 150.443 250.122C147.268 251.292 144.672 253.649 143.202 256.697C141.732 259.744 141.502 263.243 142.562 266.456C143.622 269.67 145.888 272.346 148.883 273.92Z" fill="black"/>
<path opacity="0.25" d="M154.861 335.536C161.996 336.595 184.592 326.755 184.592 326.755C184.592 326.755 165.827 310.771 158.708 309.713C157.012 309.461 155.284 309.545 153.621 309.961C151.958 310.377 150.393 311.116 149.016 312.137C146.234 314.199 144.385 317.28 143.876 320.705C143.367 324.129 144.239 327.616 146.301 330.397C148.362 333.179 151.444 335.027 154.869 335.536H154.861Z" fill="black"/>
<path opacity="0.25" d="M168.903 394.621C175.758 396.888 199.692 390.993 199.692 390.993C199.692 390.993 183.897 372.099 177.02 369.832C175.391 369.297 173.673 369.088 171.964 369.217C170.254 369.346 168.587 369.811 167.057 370.584C165.527 371.358 164.165 372.425 163.047 373.725C161.93 375.025 161.079 376.532 160.544 378.16C160.009 379.789 159.801 381.507 159.93 383.217C160.059 384.926 160.523 386.593 161.296 388.123C162.07 389.653 163.137 391.015 164.437 392.133C165.737 393.25 167.244 394.101 168.873 394.636L168.903 394.621Z" fill="black"/>
<path d="M213.999 415.955C213.999 415.955 161.641 384.033 147.78 338.114C142.088 318.833 130.298 301.918 114.179 289.905C106.482 284.262 98.2826 279.336 89.6855 275.19" stroke="#535461" stroke-width="2" stroke-miterlimit="10"/>
<path d="M80.7825 246.351C85.6269 251.686 90.0027 275.938 90.0027 275.938C90.0027 275.938 66.2948 269.227 61.4504 263.891C59.1243 261.328 57.9119 257.945 58.0798 254.488C58.2478 251.03 59.7824 247.781 62.346 245.455C64.9096 243.129 68.2922 241.917 71.7497 242.084C75.2073 242.252 78.4565 243.787 80.7825 246.351Z" fill="#1EAA1E"/>
<path d="M123.595 261.42C124.759 268.539 115.282 291.28 115.282 291.28C115.282 291.28 99.0031 272.756 97.8316 265.637C97.2724 262.221 98.0933 258.722 100.114 255.911C102.134 253.1 105.188 251.206 108.605 250.647C112.021 250.088 115.52 250.909 118.331 252.929C121.143 254.949 123.036 258.004 123.595 261.42Z" fill="#1EAA1E"/>
<path d="M168.752 312.577C166.16 319.31 146.48 334.138 146.48 334.138C146.48 334.138 141.795 309.954 144.379 303.213C145.621 299.981 148.096 297.375 151.259 295.967C154.423 294.56 158.016 294.467 161.248 295.708C164.48 296.95 167.086 299.425 168.494 302.588C169.901 305.752 169.994 309.345 168.752 312.577Z" fill="#1EAA1E"/>
<path d="M194.229 359.002C192.816 366.076 175.917 384.018 175.917 384.018C175.917 384.018 167.211 360.96 168.624 353.894C168.959 352.212 169.623 350.614 170.576 349.189C171.529 347.764 172.754 346.541 174.18 345.589C175.606 344.638 177.205 343.976 178.887 343.643C180.569 343.309 182.3 343.31 183.981 343.646C185.662 343.981 187.261 344.644 188.686 345.598C190.111 346.551 191.334 347.776 192.285 349.202C193.237 350.628 193.898 352.227 194.232 353.909C194.565 355.59 194.564 357.321 194.229 359.002Z" fill="#1EAA1E"/>
<path d="M95.8902 310.725C103.1 310.974 124.435 298.633 124.435 298.633C124.435 298.633 103.992 284.878 96.782 284.614C95.069 284.555 93.3612 284.835 91.7562 285.436C90.1512 286.038 88.6803 286.949 87.4277 288.119C86.175 289.289 85.165 290.694 84.4554 292.254C83.7457 293.814 83.3504 295.499 83.2918 297.212C83.2332 298.925 83.5127 300.633 84.1141 302.238C84.7155 303.843 85.6272 305.314 86.7971 306.566C87.967 307.819 89.3721 308.829 90.9323 309.539C92.4925 310.248 94.1772 310.644 95.8902 310.702V310.725Z" fill="#1EAA1E"/>
<path d="M126.339 364.625C133.292 362.705 149.964 344.552 149.964 344.552C149.964 344.552 126.331 337.516 119.409 339.466C117.74 339.908 116.175 340.675 114.805 341.726C113.435 342.776 112.287 344.087 111.427 345.584C110.567 347.081 110.013 348.734 109.797 350.446C109.58 352.159 109.705 353.897 110.165 355.561C110.625 357.225 111.41 358.781 112.475 360.139C113.541 361.497 114.865 362.631 116.371 363.474C117.878 364.317 119.536 364.853 121.251 365.05C122.966 365.248 124.703 365.103 126.362 364.625H126.339Z" fill="#1EAA1E"/>
<path d="M163.122 412.955C170.302 412.199 189.8 397.16 189.8 397.16C189.8 397.16 167.694 386.262 160.522 386.98C158.817 387.151 157.161 387.656 155.651 388.466C154.141 389.276 152.805 390.376 151.719 391.703C149.527 394.383 148.49 397.823 148.834 401.267C149.005 402.973 149.51 404.628 150.321 406.139C151.131 407.649 152.231 408.985 153.558 410.07C156.237 412.262 159.677 413.3 163.122 412.955Z" fill="#1EAA1E"/>
<path opacity="0.1" d="M427.537 562.804C502.249 562.804 562.816 559.211 562.816 554.778C562.816 550.346 502.249 546.752 427.537 546.752C352.824 546.752 292.257 550.346 292.257 554.778C292.257 559.211 352.824 562.804 427.537 562.804Z" fill="#6C63FF"/>
<path opacity="0.1" d="M564.449 596.874C584.008 596.874 599.863 593.987 599.863 590.427C599.863 586.867 584.008 583.98 564.449 583.98C544.89 583.98 529.034 586.867 529.034 590.427C529.034 593.987 544.89 596.874 564.449 596.874Z" fill="#6C63FF"/>
<path d="M489.728 540.668V545.513H346.422V541.568C355.163 538.329 362.746 532.57 368.212 525.019C373.678 517.468 376.782 508.466 377.129 499.151C377.476 489.836 375.051 480.627 370.162 472.691C365.273 464.754 358.14 458.446 349.664 454.566H488.783C480.503 458.365 473.502 464.483 468.626 472.177C463.75 479.872 461.209 488.815 461.309 497.924C461.409 507.033 464.146 515.918 469.189 523.504C474.233 531.09 481.367 537.052 489.728 540.668Z" fill="#C8CAD7"/>
<path opacity="0.1" d="M488.783 454.574C482.387 457.509 476.729 461.837 472.223 467.242C467.717 472.646 464.477 478.99 462.74 485.809H375.707C373.97 478.99 370.73 472.646 366.224 467.242C361.718 461.837 356.06 457.509 349.664 454.574H488.783Z" fill="black"/>
<path d="M182.295 429.884V457.09C182.295 472.115 193.291 484.297 206.857 484.297H628.567C642.132 484.297 653.129 472.115 653.129 457.09V429.884H182.295Z" fill="#C8CAD7"/>
<path opacity="0.1" d="M489.728 540.668V545.513H346.422V541.568C350.351 540.109 354.066 538.132 357.471 535.688H480.961C483.697 537.656 486.636 539.326 489.728 540.668Z" fill="black"/>
<path d="M529.941 537.2H306.238C302.273 537.2 299.059 540.414 299.059 544.379C299.059 548.345 302.273 551.559 306.238 551.559H529.941C533.906 551.559 537.121 548.345 537.121 544.379C537.121 540.414 533.906 537.2 529.941 537.2Z" fill="#C8CAD7"/>
<path d="M653.129 131.741C653.129 125.227 650.541 118.98 645.935 114.374C641.328 109.767 635.081 107.18 628.567 107.18H206.857C200.343 107.18 194.095 109.767 189.489 114.374C184.883 118.98 182.295 125.227 182.295 131.741V435.174H653.129V131.741Z" fill="#474157"/>
<path d="M628.189 130.608H207.235C200.556 130.608 195.143 136.022 195.143 142.7V403.432C195.143 410.11 200.556 415.524 207.235 415.524H628.189C634.867 415.524 640.281 410.11 640.281 403.432V142.7C640.281 136.022 634.867 130.608 628.189 130.608Z" fill="#EDEDF4"/>
<path d="M417.712 124.562C420.843 124.562 423.38 122.024 423.38 118.894C423.38 115.764 420.843 113.226 417.712 113.226C414.582 113.226 412.044 115.764 412.044 118.894C412.044 122.024 414.582 124.562 417.712 124.562Z" fill="white"/>
<path d="M417.712 472.206C425.434 472.206 431.693 465.946 431.693 458.224C431.693 450.503 425.434 444.243 417.712 444.243C409.99 444.243 403.73 450.503 403.73 458.224C403.73 465.946 409.99 472.206 417.712 472.206Z" fill="white"/>
<path d="M640.281 142.7H195.143C195.143 139.493 196.417 136.417 198.684 134.149C200.952 131.882 204.028 130.608 207.235 130.608H628.189C631.396 130.608 634.471 131.882 636.739 134.149C639.007 136.417 640.281 139.493 640.281 142.7Z" fill="#C8CAD7"/>
<path d="M207.235 139.677C208.904 139.677 210.258 138.324 210.258 136.654C210.258 134.985 208.904 133.631 207.235 133.631C205.565 133.631 204.212 134.985 204.212 136.654C204.212 138.324 205.565 139.677 207.235 139.677Z" fill="#EDEDF4"/>
<path d="M216.304 139.677C217.974 139.677 219.327 138.324 219.327 136.654C219.327 134.985 217.974 133.631 216.304 133.631C214.635 133.631 213.281 134.985 213.281 136.654C213.281 138.324 214.635 139.677 216.304 139.677Z" fill="#EDEDF4"/>
<path d="M225.373 139.677C227.042 139.677 228.396 138.324 228.396 136.654C228.396 134.985 227.042 133.631 225.373 133.631C223.703 133.631 222.35 134.985 222.35 136.654C222.35 138.324 223.703 139.677 225.373 139.677Z" fill="#EDEDF4"/>
<path d="M325.888 152.903H211.77V159.705H325.888V152.903Z" fill="#F15317"/>
<path d="M325.888 351.664H211.77V358.466H325.888V351.664Z" fill="#F15317"/>
<path d="M423.38 366.779H211.77V373.58H423.38V366.779Z" fill="#F4D8CA"/>
<path d="M423.38 376.611H211.77V383.413H423.38V376.611Z" fill="#F4D8CA"/>
<path d="M423.38 386.436H211.77V393.238H423.38V386.436Z" fill="#F4D8CA"/>
<path d="M417.175 171.041H207.076V285.158H417.175V171.041Z" fill="#F4D8CA"/>
<path d="M263.16 295.739H214.036V341.084H263.16V295.739Z" fill="#F4D8CA"/>
<path d="M421.868 295.739H372.744V341.084H421.868V295.739Z" fill="#F4D8CA"/>
<path d="M341.381 295.739H292.257V341.084H341.381V295.739Z" fill="#F4D8CA"/>
<path d="M606.62 204.233H462.021V310.665H606.62V204.233Z" fill="#F4D8CA"/>
<path d="M596.07 225.832H481.951V232.634H596.07V225.832Z" fill="#EDEDF4"/>
<path d="M596.07 239.942H481.951V246.744H596.07V239.942Z" fill="#EDEDF4"/>
<path d="M596.07 254.052H481.951V260.853H596.07V254.052Z" fill="#EDEDF4"/>
<path d="M596.07 268.154H481.951V274.956H596.07V268.154Z" fill="#EDEDF4"/>
<path d="M596.07 282.264H481.951V289.066H596.07V282.264Z" fill="#EDEDF4"/>
<path d="M588.988 322.756H479.653V341.899H588.988V322.756Z" fill="#F15317"/>
<path d="M547.127 386.542H473.812V399.382H547.127V386.542Z" fill="#F15317"/>
<path opacity="0.1" d="M195.309 588.175C207.246 588.175 216.923 587.193 216.923 585.983C216.923 584.773 207.246 583.791 195.309 583.791C183.371 583.791 173.694 584.773 173.694 585.983C173.694 587.193 183.371 588.175 195.309 588.175Z" fill="#1EAA1E"/>
<path opacity="0.1" d="M637.756 555.957C644.91 555.957 650.71 555.368 650.71 554.642C650.71 553.916 644.91 553.327 637.756 553.327C630.602 553.327 624.803 553.916 624.803 554.642C624.803 555.368 630.602 555.957 637.756 555.957Z" fill="#6C63FF"/>
<path d="M202.859 549.881C202.859 549.881 174.669 564.444 189.255 581.622C189.255 581.622 190.623 585.401 194.591 585.084C194.591 585.084 193.797 583.64 196.858 582.491C197.925 582.071 198.94 581.528 199.881 580.874C201.162 579.988 202.12 578.71 202.609 577.231C202.609 577.231 208.376 569.515 203.909 555.239C203.909 555.239 204.484 551.203 203.977 550.553L200.516 555.171C200.516 555.171 204.06 557.544 204.461 561.036C204.461 561.036 200.773 555.179 199.972 555.844C199.813 555.98 198.271 558.413 198.271 558.413C198.271 558.413 204.408 562.577 204.869 567.981C204.869 567.981 201.408 560.424 197.674 559.328L195.566 563.144C195.566 563.144 202.277 567.225 203.033 573.362C203.033 573.362 199.141 565.578 195.165 564.006L193.593 568.034C193.593 568.034 200.055 572.145 200.652 577.254C200.652 577.254 195.248 568.714 193.299 568.941C193.299 568.941 192.082 572.72 192.24 573.891C192.24 573.891 196.813 576.914 196.896 579.937C196.896 579.937 192.679 574.609 192.029 574.964C192.029 574.964 191.757 580.315 193.057 583.103C193.057 583.103 190.835 579.128 191.19 574.964C189.877 576.13 188.936 577.658 188.484 579.355C188.484 579.355 187.268 576.408 191.273 573.702C191.273 573.702 191.651 569.538 192.112 569.024C192.112 569.024 187.782 571.132 185.945 573.732C185.945 573.732 186.618 569.863 192.49 567.943L194.001 563.862C194.001 563.862 188.137 566.349 186.33 568.54C186.33 568.54 187.63 564.701 194.462 562.865L196.488 559.086C196.488 559.086 191.273 560.839 188.734 562.865C188.734 562.865 190.706 559.57 197.115 558.05L198.763 555.7C198.763 555.7 194.984 557.053 193.926 557.537C192.868 558.02 192.656 557.778 192.656 557.778C194.594 556.142 196.949 555.077 199.458 554.703C199.458 554.703 203.123 550.1 202.859 549.881Z" fill="#1EAA1E"/>
<path opacity="0.1" d="M127.949 554.272C137.098 554.272 144.515 553.521 144.515 552.594C144.515 551.667 137.098 550.916 127.949 550.916C118.8 550.916 111.383 551.667 111.383 552.594C111.383 553.521 118.8 554.272 127.949 554.272Z" fill="#1EAA1E"/>
<path d="M133.769 524.941C133.769 524.941 112.169 536.096 123.324 549.246C123.639 550.063 124.203 550.76 124.938 551.236C125.672 551.713 126.538 551.945 127.413 551.899C127.413 551.899 126.808 550.796 129.128 549.911C129.948 549.587 130.729 549.171 131.456 548.672C132.438 547.991 133.172 547.01 133.549 545.876C133.549 545.876 137.963 539.966 134.539 529.03C134.539 529.03 134.985 525.931 134.592 525.433L131.97 529.038C131.97 529.038 134.683 530.859 134.993 533.527C134.993 533.527 132.166 529.045 131.554 529.551C131.433 529.657 130.254 531.524 130.254 531.524C130.254 531.524 134.955 534.713 135.31 538.855C135.31 538.855 132.658 533.051 129.793 532.227L128.184 535.144C128.184 535.144 133.315 538.273 133.897 542.974C133.897 542.974 130.912 537.011 127.851 535.809L126.649 538.893C126.649 538.893 131.607 542.044 132.061 545.959C132.061 545.959 127.919 539.414 126.423 539.618C126.423 539.618 125.493 542.52 125.614 543.397C125.614 543.397 129.121 545.74 129.181 548.037C129.181 548.037 125.946 543.956 125.448 544.258C125.448 544.258 125.244 548.354 126.241 550.493C125.228 548.575 124.733 546.426 124.805 544.258C123.807 545.145 123.087 546.303 122.735 547.591C122.735 547.591 121.805 545.324 124.873 543.261C124.873 543.261 125.161 540.071 125.516 539.679C125.516 539.679 122.198 541.296 120.792 543.283C120.792 543.283 121.306 540.321 125.803 538.847L126.944 535.718C126.944 535.718 122.447 537.623 121.057 539.308C121.057 539.308 122.054 536.361 127.292 534.955L128.849 532.076C128.849 532.076 124.851 533.421 122.901 534.955C122.901 534.955 124.412 532.423 129.325 531.267L130.587 529.461C130.587 529.461 127.692 530.496 126.884 530.874C126.075 531.252 125.909 531.055 125.909 531.055C127.391 529.804 129.19 528.988 131.108 528.697C131.108 528.697 133.935 525.093 133.769 524.941Z" fill="#1EAA1E"/>
<path d="M643.705 532.808C643.705 532.808 626.814 541.567 635.535 551.815C635.781 552.454 636.223 552.998 636.797 553.37C637.371 553.742 638.049 553.922 638.732 553.886C638.732 553.886 638.256 553.025 640.077 552.329C640.72 552.08 641.332 551.755 641.898 551.362C642.664 550.829 643.237 550.063 643.531 549.178C643.531 549.178 646.985 544.553 644.287 536.005C644.287 536.005 644.627 533.587 644.324 533.194L642.276 536.005C642.276 536.005 644.4 537.434 644.642 539.527C644.642 539.527 642.427 536.013 641.951 536.413C641.853 536.496 640.931 537.925 640.931 537.925C640.931 537.925 644.611 540.419 644.884 543.653C644.884 543.653 642.813 539.119 640.576 538.476L639.367 540.812C639.367 540.812 643.38 543.253 643.833 546.933C643.833 546.933 641.505 542.27 639.117 541.326L638.18 543.744C638.18 543.744 642.05 546.2 642.412 549.269C642.412 549.269 639.17 544.145 638.006 544.311C637.674 545.269 637.461 546.264 637.371 547.273C637.371 547.273 640.107 549.102 640.16 550.901C640.16 550.901 637.628 547.712 637.243 547.923C637.243 547.923 637.077 551.128 637.855 552.798C637.068 551.297 636.683 549.617 636.737 547.923C635.956 548.617 635.394 549.523 635.119 550.531C635.119 550.531 634.364 548.762 636.789 547.145C636.789 547.145 637.016 544.651 637.288 544.341C637.288 544.341 634.696 545.603 633.6 547.16C633.6 547.16 634.001 544.84 637.515 543.691L638.407 541.25C638.407 541.25 634.893 542.762 633.804 544.046C633.804 544.046 634.56 541.779 638.686 540.645L639.896 538.378C638.256 538.932 636.693 539.694 635.248 540.645C635.248 540.645 636.434 538.673 640.273 537.766L641.256 536.353C641.256 536.353 638.989 537.169 638.361 537.456C637.734 537.743 637.606 537.6 637.606 537.6C638.764 536.62 640.171 535.981 641.672 535.756C641.672 535.756 643.856 532.959 643.705 532.808Z" fill="#1EAA1E"/>
<path opacity="0.1" d="M707.414 603.992C724.84 603.992 738.967 602.811 738.967 601.355C738.967 599.898 724.84 598.717 707.414 598.717C689.988 598.717 675.861 599.898 675.861 601.355C675.861 602.811 689.988 603.992 707.414 603.992Z" fill="#6C63FF"/>
<path d="M732.679 518.14C731.955 519.137 731.375 520.231 730.956 521.389C730.85 521.669 730.752 521.994 730.646 522.304C730.452 522.214 730.249 522.143 730.041 522.092C729.163 521.871 728.254 521.794 727.351 521.866C727.351 521.51 727.389 521.148 727.404 520.755C727.51 516.772 727.041 511.217 723.24 513.575C719.597 515.842 722.197 519.621 724.547 522.039C724.751 522.251 724.955 522.447 725.152 522.636C723.013 524.148 722.597 527.723 722.242 531.433C721.887 535.144 718.735 539.202 716.649 541.507L716.052 542.15C715.211 541.478 714.238 540.992 713.196 540.722C712.154 540.453 711.067 540.406 710.006 540.585C709.916 540.26 709.825 539.92 709.719 539.565C708.034 533.451 704.52 522.863 700.03 520.543C700.227 520.309 700.423 520.059 700.627 519.787C702.532 517.293 704.671 513.598 701.504 512.653C698.337 511.708 698.058 515.857 698.232 518.971C698.232 519.364 698.262 519.734 698.322 520.082C697.688 520.111 697.067 520.269 696.496 520.547C695.925 520.825 695.418 521.217 695.005 521.699L694.521 521.117C691.951 518.094 687.236 513.28 685.815 516.915C684.485 520.301 688.626 524.7 691.543 527.246L691.732 527.405C689.767 535.348 698.315 541.825 702.917 544.659L703.514 545.022C697.166 552.504 693.251 566.53 693.251 566.53L711.027 569.704C711.027 569.704 722.809 559.532 721.305 549.979H721.426C733.2 547.621 735.883 535.061 734.047 527.602L734.251 527.519C736.398 526.641 738.278 525.219 739.707 523.392C742.972 518.797 736.102 513.605 732.679 518.14Z" fill="#1EAA1E"/>
<path opacity="0.1" d="M732.679 518.14C731.955 519.137 731.375 520.231 730.956 521.389C730.85 521.669 730.752 521.994 730.646 522.304C730.452 522.214 730.249 522.143 730.041 522.092C729.163 521.871 728.254 521.794 727.351 521.866C727.351 521.51 727.389 521.148 727.404 520.755C727.51 516.772 727.041 511.217 723.24 513.575C719.597 515.842 722.197 519.621 724.547 522.039C724.751 522.251 724.955 522.447 725.152 522.636C723.013 524.148 722.597 527.723 722.242 531.433C721.887 535.144 718.735 539.202 716.649 541.507L716.052 542.15C715.211 541.478 714.238 540.992 713.196 540.722C712.154 540.453 711.067 540.406 710.006 540.585C709.916 540.26 709.825 539.92 709.719 539.565C708.034 533.451 704.52 522.863 700.03 520.543C700.227 520.309 700.423 520.059 700.627 519.787C702.532 517.293 704.671 513.598 701.504 512.653C698.337 511.708 698.058 515.857 698.232 518.971C698.232 519.364 698.262 519.734 698.322 520.082C697.688 520.111 697.067 520.269 696.496 520.547C695.925 520.825 695.418 521.217 695.005 521.699L694.521 521.117C691.951 518.094 687.236 513.28 685.815 516.915C684.485 520.301 688.626 524.7 691.543 527.246L691.732 527.405C689.767 535.348 698.315 541.825 702.917 544.659L703.514 545.022C697.166 552.504 693.251 566.53 693.251 566.53L711.027 569.704C711.027 569.704 722.809 559.532 721.305 549.979H721.426C733.2 547.621 735.883 535.061 734.047 527.602L734.251 527.519C736.398 526.641 738.278 525.219 739.707 523.392C742.972 518.797 736.102 513.605 732.679 518.14Z" fill="black"/>
<path d="M697.295 523.248L695.217 529.294C695.217 529.294 694.06 528.478 692.602 527.193C689.692 524.646 685.543 520.248 686.873 516.862C688.294 513.227 693.01 518.026 695.579 521.064C696.607 522.311 697.295 523.248 697.295 523.248Z" fill="#1EAA1E"/>
<path d="M701.686 519.772C701.052 520.602 700.376 521.399 699.661 522.16C699.479 521.1 699.355 520.03 699.29 518.956C699.117 515.842 699.442 511.708 702.563 512.638C705.684 513.568 703.606 517.278 701.686 519.772Z" fill="#1EAA1E"/>
<path d="M728.492 520.732C728.424 522.734 728.227 524.337 728.227 524.337C727.313 523.621 726.447 522.846 725.635 522.016C723.285 519.575 720.685 515.812 724.328 513.552C728.129 511.194 728.598 516.749 728.492 520.732Z" fill="#1EAA1E"/>
<path d="M740.766 523.354C739.337 525.179 737.46 526.601 735.317 527.481C734.72 527.737 734.11 527.959 733.488 528.146L731.039 524.707C731.294 523.571 731.63 522.455 732.044 521.367C732.464 520.208 733.044 519.114 733.767 518.117C737.153 513.605 744.061 518.797 740.766 523.354Z" fill="#1EAA1E"/>
<path opacity="0.1" d="M695.579 521.102C696.607 522.311 697.295 523.248 697.295 523.248L695.217 529.294C695.217 529.294 694.06 528.478 692.602 527.193C692.929 525.246 693.734 523.41 694.944 521.85C695.144 521.59 695.355 521.341 695.579 521.102Z" fill="black"/>
<path opacity="0.1" d="M701.686 519.772C701.052 520.602 700.376 521.399 699.66 522.16C699.479 521.099 699.355 520.03 699.29 518.956C700.154 518.974 700.99 519.259 701.686 519.772Z" fill="black"/>
<path d="M711.918 543.926L706.749 546.193C706.749 546.193 705.615 545.649 703.991 544.636C698.564 541.296 687.636 532.884 694.922 522.969C702.207 513.053 708.351 530.836 710.792 539.535C711.51 542.142 711.918 543.926 711.918 543.926Z" fill="#1EAA1E"/>
<path opacity="0.1" d="M725.636 522.017C726.389 521.239 727.411 520.779 728.492 520.732C728.424 522.735 728.228 524.337 728.228 524.337C727.314 523.621 726.448 522.846 725.636 522.017Z" fill="black"/>
<path opacity="0.1" d="M735.347 527.481C734.751 527.737 734.14 527.959 733.518 528.146L731.069 524.707C731.324 523.571 731.66 522.455 732.074 521.367C733.624 522.289 734.788 524.586 735.347 527.481Z" fill="black"/>
<path d="M722.499 549.942C722.212 550.002 721.917 550.055 721.622 550.093C704.301 552.73 715.909 543.382 715.909 543.382C715.909 543.382 716.665 542.664 717.753 541.485C719.839 539.218 722.983 535.144 723.346 531.411C723.89 525.795 724.517 520.528 731.145 522.07C737.773 523.611 738.884 546.654 722.499 549.942Z" fill="#1EAA1E"/>
<path d="M722.159 593.087H689.05V601.793H722.159V593.087Z" fill="#D4DFEC"/>
<path d="M727.042 564.792H683.782V595.173H727.042V564.792Z" fill="#D4DFEC"/>
<path opacity="0.1" d="M722.159 593.087H689.05V601.793H722.159V593.087Z" fill="black"/>
<path opacity="0.1" d="M727.042 564.792H683.782V595.173H727.042V564.792Z" fill="black"/>
<path d="M724.336 593.087H691.227V601.793H724.336V593.087Z" fill="#D4DFEC"/>
<path opacity="0.1" d="M710.777 539.542C711.533 542.142 711.903 543.925 711.903 543.925L706.734 546.193C706.734 546.193 705.6 545.649 703.976 544.636C706.001 542.074 708.291 540.139 710.777 539.542Z" fill="black"/>
<path opacity="0.1" d="M722.499 549.942C722.212 550.002 721.917 550.055 721.623 550.093C704.301 552.73 715.909 543.382 715.909 543.382C715.909 543.382 716.665 542.664 717.753 541.485C720.988 544.077 722.31 546.994 722.499 549.942Z" fill="black"/>
<path d="M694.31 566.507C694.31 566.507 704.013 531.743 717.617 542.467C731.22 553.191 712.085 569.674 712.085 569.674L694.31 566.507Z" fill="#1EAA1E"/>
<path opacity="0.1" d="M699.206 529.513C699.807 529.513 700.295 529.026 700.295 528.425C700.295 527.824 699.807 527.337 699.206 527.337C698.605 527.337 698.118 527.824 698.118 528.425C698.118 529.026 698.605 529.513 699.206 529.513Z" fill="black"/>
<path opacity="0.1" d="M699.117 534.592C699.718 534.592 700.205 534.105 700.205 533.504C700.205 532.903 699.718 532.416 699.117 532.416C698.516 532.416 698.028 532.903 698.028 533.504C698.028 534.105 698.516 534.592 699.117 534.592Z" fill="black"/>
<path opacity="0.1" d="M730.676 530.511C731.277 530.511 731.764 530.024 731.764 529.423C731.764 528.822 731.277 528.335 730.676 528.335C730.075 528.335 729.588 528.822 729.588 529.423C729.588 530.024 730.075 530.511 730.676 530.511Z" fill="black"/>
<path opacity="0.1" d="M705.283 556.539C705.884 556.539 706.371 556.052 706.371 555.451C706.371 554.85 705.884 554.362 705.283 554.362C704.682 554.362 704.194 554.85 704.194 555.451C704.194 556.052 704.682 556.539 705.283 556.539Z" fill="black"/>
<path opacity="0.1" d="M728.409 538.945C729.01 538.945 729.497 538.458 729.497 537.857C729.497 537.256 729.01 536.769 728.409 536.769C727.808 536.769 727.32 537.256 727.32 537.857C727.32 538.458 727.808 538.945 728.409 538.945Z" fill="black"/>
<path opacity="0.1" d="M717.163 550.191C717.764 550.191 718.252 549.704 718.252 549.103C718.252 548.502 717.764 548.014 717.163 548.014C716.562 548.014 716.075 548.502 716.075 549.103C716.075 549.704 716.562 550.191 717.163 550.191Z" fill="black"/>
<path opacity="0.1" d="M702.925 531.69C703.526 531.69 704.013 531.203 704.013 530.602C704.013 530.001 703.526 529.513 702.925 529.513C702.324 529.513 701.837 530.001 701.837 530.602C701.837 531.203 702.324 531.69 702.925 531.69Z" fill="black"/>
<path opacity="0.1" d="M727.684 533.776C728.285 533.776 728.772 533.289 728.772 532.688C728.772 532.087 728.285 531.6 727.684 531.6C727.083 531.6 726.596 532.087 726.596 532.688C726.596 533.289 727.083 533.776 727.684 533.776Z" fill="black"/>
<path opacity="0.1" d="M723.965 542.21C724.566 542.21 725.054 541.723 725.054 541.122C725.054 540.521 724.566 540.034 723.965 540.034C723.364 540.034 722.877 540.521 722.877 541.122C722.877 541.723 723.364 542.21 723.965 542.21Z" fill="black"/>
<path opacity="0.1" d="M712.539 555.723C713.14 555.723 713.627 555.236 713.627 554.635C713.627 554.034 713.14 553.546 712.539 553.546C711.937 553.546 711.45 554.034 711.45 554.635C711.45 555.236 711.937 555.723 712.539 555.723Z" fill="black"/>
<path opacity="0.1" d="M710.18 550.372C710.781 550.372 711.268 549.885 711.268 549.284C711.268 548.683 710.781 548.196 710.18 548.196C709.579 548.196 709.092 548.683 709.092 549.284C709.092 549.885 709.579 550.372 710.18 550.372Z" fill="black"/>
<path opacity="0.1" d="M704.557 538.311C705.158 538.311 705.645 537.824 705.645 537.223C705.645 536.622 705.158 536.134 704.557 536.134C703.956 536.134 703.469 536.622 703.469 537.223C703.469 537.824 703.956 538.311 704.557 538.311Z" fill="black"/>
<path opacity="0.1" d="M724.336 593.087H691.227V596.268H724.336V593.087Z" fill="black"/>
<path d="M729.225 564.792H685.966V595.173H729.225V564.792Z" fill="#D4DFEC"/>
<path opacity="0.1" d="M713.99 560.62C714.591 560.62 715.078 560.133 715.078 559.532C715.078 558.931 714.591 558.443 713.99 558.443C713.389 558.443 712.901 558.931 712.901 559.532C712.901 560.133 713.389 560.62 713.99 560.62Z" fill="black"/>
<path opacity="0.1" d="M707.459 561.98C708.06 561.98 708.548 561.493 708.548 560.892C708.548 560.291 708.06 559.804 707.459 559.804C706.858 559.804 706.371 560.291 706.371 560.892C706.371 561.493 706.858 561.98 707.459 561.98Z" fill="black"/>
<path d="M632.776 433.594C631.869 432.945 631.491 431.38 631.355 429.816C631.355 429.461 631.302 429.113 631.287 428.78C631.694 428.532 632.051 428.209 632.338 427.828C634.129 425.289 629.851 416.076 629.851 416.076C629.851 416.076 631.506 411.27 629.851 407.128C628.196 402.987 627.44 402.186 627.44 402.186C627.44 402.186 621.848 390.698 622.679 389.338C623.51 387.978 621.296 377.246 619.656 375.092C618.97 374.16 618.234 373.267 617.449 372.417C617.449 372.417 617.729 367.746 615.379 364.104C613.028 360.461 610.413 350.349 610.413 350.349C610.413 350.349 607.519 340.864 605.448 337.501C604.603 336.319 603.584 335.272 602.425 334.395C602.75 332.884 603.498 330.881 601.352 319.031C600.475 314.164 601.843 311.262 602.969 306.448C604.095 301.634 603.853 296.064 600.4 292.429C596.946 288.794 591.587 288.113 587.302 285.627C583.524 283.443 580.161 279.747 575.747 279.815C572.505 279.868 572.512 280.375 569.527 281.591C564.365 283.692 558.561 283.057 553.316 284.796C548.6 286.36 542.607 291.499 544.036 296.948C544.261 298.182 544.869 299.314 545.774 300.183C546.794 301.112 548.041 301.12 549.439 300.84C549.439 300.931 549.439 301.014 549.386 301.105C549.264 301.854 549.204 302.612 549.205 303.372C549.205 311.451 555.939 318.011 564.267 318.064C564.312 318.237 564.35 318.419 564.396 318.6C564.509 319.084 564.615 319.568 564.72 320.066C564.327 320.588 563.919 321.109 563.534 321.631C562.577 322.85 561.812 324.208 561.267 325.659C556.898 326.551 549.575 327.994 548.419 329.883C546.907 332.423 540.695 344.998 541.383 350.719C541.421 351.037 541.451 351.475 541.481 351.929C541.481 351.929 537.657 358.73 537.105 360.869C536.554 363.008 535.314 371.019 532.964 372.885C530.613 374.752 525.792 380.768 526.479 381.954C527.167 383.141 519.995 384.622 519.995 384.622C519.995 384.622 515.173 386.489 515.461 387.963C515.544 388.408 515.204 388.832 514.705 389.24C509.218 387.434 502.227 386.217 496.809 388.968C489.251 392.799 502.507 395.437 510.412 396.593C511.712 396.79 512.861 396.941 513.753 397.047C513.813 397.304 514.062 397.53 514.697 397.749C515.196 397.923 515.937 398.195 516.798 398.505L517.116 397.523C519.738 398.452 526.895 401.347 526.895 401.347C526.895 401.347 533.107 402.36 534.899 398.755C535.654 397.296 537.717 394.976 539.962 392.709L539.713 393.517L534.483 410.771C534.483 410.771 526.207 423.619 526.623 426.392C527.039 429.166 524.001 436.277 523.313 436.973C522.625 437.668 515.755 457.937 512.135 459.275C508.515 460.612 503.716 465.283 505.333 466.757C506.951 468.23 513.647 473.029 516.67 471.427C519.693 469.825 524.983 472.765 524.983 472.765C524.983 472.765 530.772 471.813 535.488 474.08C535.541 474.601 535.601 475.168 535.662 475.765C536.153 480.3 536.954 486.565 537.808 488.386C539.191 491.326 540.431 496.533 539.32 498.536C538.209 500.538 540.287 538.734 542.343 545.279C543.96 550.403 546.174 558.648 545.796 564.029C545.57 567.301 545.434 570.573 545.411 573.853C545.411 574.035 545.411 574.216 545.411 574.398C545.411 574.579 545.283 574.685 545.222 574.836V575.131C544.743 576.263 544.342 577.427 544.02 578.615C544.02 578.615 540.461 587.563 541.662 589.898C541.803 590.154 541.996 590.378 542.229 590.555C543.945 591.931 548.275 592.226 549.787 592.286L549.719 594.553H551.752C551.752 594.553 551.805 592.286 551.941 589.46C552.534 587.869 552.831 586.184 552.817 584.487C552.789 581.525 553.408 578.592 554.631 575.894C554.631 575.894 554.677 575.66 554.722 575.282C554.826 574.503 554.868 573.717 554.85 572.931C554.933 571.557 554.674 570.183 554.095 568.934C554.034 568.117 554.085 567.295 554.246 566.492C554.797 564.49 553.414 550.471 553.414 550.471L555.757 524.692C555.757 524.692 557.14 504.793 556.589 499.586C556.444 498.192 556.477 496.785 556.687 495.399C557.552 489.739 558.057 484.029 558.198 478.304C558.198 477.768 558.198 477.239 558.198 476.702C563.217 478.425 571.726 477.012 571.726 477.012C571.726 477.012 573.706 476.967 576.336 477.012C576.404 477.556 576.48 478.093 576.556 478.614C576.956 481.418 577.432 483.905 577.924 484.97C579.299 487.91 580.546 493.117 579.435 495.12C578.324 497.122 580.395 535.318 582.458 541.863C584.083 546.987 586.297 555.224 585.919 560.613C585.693 563.878 585.557 567.15 585.534 570.437V571.042C585.466 571.186 585.398 571.329 585.337 571.48C585.277 571.632 585.337 571.684 585.337 571.775C584.879 572.915 584.498 574.084 584.196 575.274C584.196 575.274 580.629 584.23 581.838 586.565C581.977 586.821 582.171 587.042 582.405 587.215C584.121 588.598 588.451 588.885 589.963 588.946L589.895 591.213H591.928C591.928 591.213 591.98 588.946 592.117 586.119C592.71 584.529 593.007 582.844 592.993 581.146C592.957 578.187 593.566 575.255 594.777 572.554C594.942 571.58 595.016 570.593 594.996 569.606C595.073 568.221 594.8 566.838 594.202 565.586C594.146 564.771 594.196 563.953 594.354 563.152C594.905 561.149 593.53 547.123 593.53 547.123L595.873 521.352C595.873 521.352 597.256 501.453 596.696 496.246C596.558 494.851 596.593 493.445 596.802 492.059C597.634 486.681 598.138 481.257 598.314 475.818C598.314 475.274 598.314 474.737 598.314 474.193C598.812 473.581 599.825 473.097 602.621 472.16C607.451 470.558 617.109 462.54 620.971 462.011C624.833 461.482 628.279 458.935 627.176 456.932C626.072 454.929 620.004 453.592 620.555 450.523C621.107 447.455 616.83 445.581 614.902 440.51C612.975 435.439 604.549 431.441 604.413 427.662C604.277 423.883 596.462 412.335 596.462 412.335C596.462 412.335 588.61 399.276 586.872 391.295C586.872 391.114 586.804 390.948 586.773 390.781H586.872C586.738 390.184 586.642 389.578 586.584 388.968C586.584 388.794 586.622 388.612 586.652 388.454H586.547V388.167C586.547 388.167 586.547 388.167 586.547 388.114C586.599 388.074 586.655 388.039 586.713 388.008L587.166 387.743L587.015 387.804C587.92 387.216 588.759 386.532 589.517 385.763C590.766 384.657 591.751 383.282 592.396 381.743C593.005 380.037 593.383 378.258 593.522 376.453L594.505 374.941C595.457 378.924 596.848 384.637 597.286 385.914C599.372 391.309 601.035 396.858 602.259 402.511C603.484 407.992 605.522 413.26 608.305 418.139C608.305 418.139 615.341 427.352 620.722 427.753C626.103 428.153 623.072 429.619 623.896 429.891L624.13 429.944L624.213 431.025L624.448 434.161C624.448 434.161 629.965 456.599 636.177 453.395C642.389 450.191 634.832 435.061 632.776 433.594Z" fill="url(#paint0_linear)"/>
<path d="M633.502 453.493C627.531 456.682 622.226 434.403 622.226 434.403L621.999 431.282L621.568 425.379L628.861 426.309C628.751 427.584 628.751 428.866 628.861 430.14C628.99 431.652 629.36 433.231 630.229 433.866C632.172 435.332 639.465 450.311 633.502 453.493Z" fill="#FFC0C6"/>
<path d="M543.545 583.587L544.051 583.202C543.898 583.35 543.728 583.479 543.545 583.587Z" fill="#A1616A"/>
<path d="M558.576 461.187V476.408C558.576 477.068 558.576 477.725 558.576 478.38C558.42 484.066 557.915 489.737 557.065 495.362C556.862 496.735 556.829 498.129 556.966 499.511C557.495 504.687 556.211 524.45 556.211 524.45L553.943 550.047C553.943 550.047 555.266 563.968 554.699 565.918C554.549 566.717 554.501 567.532 554.555 568.344C554.631 570.611 555.024 573.521 555.152 574.39V574.654L555.069 574.715L543.982 583.172C545.751 581.562 546.204 577.813 546.197 574.337C546.197 573.959 546.197 573.581 546.197 573.203C546.197 569.954 546.323 566.704 546.575 563.454C546.937 558.111 544.806 549.926 543.249 544.833C541.262 538.341 539.266 500.41 540.332 498.422C541.398 496.435 540.196 491.258 538.873 488.341C538.095 486.565 537.339 480.352 536.886 475.818C536.599 473.067 536.425 470.981 536.425 470.981L558.576 461.187Z" fill="#FFC0C6"/>
<path d="M582.126 580.186L582.67 579.778C582.504 579.933 582.321 580.07 582.126 580.186Z" fill="#A1616A"/>
<path d="M597.157 457.786V473.006C597.157 473.943 597.157 474.888 597.157 475.825C596.985 481.227 596.498 486.615 595.699 491.96C595.496 493.334 595.463 494.728 595.6 496.109C596.129 501.286 594.845 521.049 594.845 521.049L592.577 546.646C592.577 546.646 593.907 560.567 593.378 562.517C593.225 563.313 593.177 564.126 593.235 564.935C593.31 567.202 593.711 570.157 593.832 570.981C593.832 571.147 593.87 571.231 593.87 571.231L593.787 571.291L582.685 579.748C584.4 578.1 584.846 574.397 584.838 570.966C584.838 570.588 584.838 570.21 584.838 569.825C584.838 566.575 584.99 563.325 585.209 560.076C585.564 554.733 583.44 546.555 581.883 541.462C579.888 534.97 577.901 497.039 578.966 495.051C580.032 493.064 578.83 487.887 577.508 484.97C577.032 483.942 576.578 481.44 576.185 478.659C575.482 473.611 574.983 467.603 574.983 467.603L597.157 457.786Z" fill="#FFC0C6"/>
<path opacity="0.1" d="M576.45 313.461L576.337 313.635C575.168 315.289 573.667 316.681 571.93 317.722C570.193 318.763 568.257 319.431 566.247 319.681C565.659 319.763 565.066 319.804 564.471 319.802C564.426 319.62 564.388 319.439 564.343 319.265C563.474 315.487 562.552 312.464 562.552 312.464C562.552 312.464 563.542 311.035 564.985 309.214C568.908 304.256 576.133 296.419 575.566 306.894C575.444 309.015 575.7 311.142 576.322 313.174C576.374 313.227 576.405 313.333 576.45 313.461Z" fill="black"/>
<path d="M579.042 304.641C579.043 308.2 577.743 311.635 575.386 314.301C573.029 316.967 569.779 318.679 566.247 319.114C565.651 319.19 565.05 319.228 564.449 319.227H564.343C561.463 319.205 558.654 318.331 556.27 316.714C553.887 315.098 552.035 312.812 550.948 310.145C549.862 307.478 549.589 304.549 550.164 301.727C550.74 298.905 552.138 296.317 554.182 294.288C556.227 292.26 558.826 290.882 561.652 290.328C564.478 289.774 567.405 290.07 570.064 291.177C572.723 292.284 574.994 294.154 576.592 296.55C578.189 298.946 579.042 301.761 579.042 304.641Z" fill="#FFC0C6"/>
<path d="M593.19 347.144L579.042 359.236C579.042 359.236 563.617 337.229 565.439 332.717C566.021 331.304 565.953 328.795 565.582 325.999C565.378 324.487 565.083 322.817 564.751 321.245C564.653 320.754 564.547 320.27 564.441 319.794C564.396 319.613 564.358 319.431 564.313 319.257C563.443 315.479 562.521 312.456 562.521 312.456C562.521 312.456 563.511 311.027 564.955 309.206C568.877 304.248 576.102 296.411 575.535 306.886C575.414 309.007 575.67 311.134 576.291 313.166C576.291 313.287 576.359 313.408 576.405 313.521C578.415 319.703 583.312 324.638 587.076 327.699C588.617 328.967 590.246 330.123 591.95 331.16L593.19 347.144Z" fill="#A1616A"/>
<path opacity="0.1" d="M536.425 471.004L558.576 461.179V476.4C558.576 477.06 558.576 477.717 558.576 478.372C558.075 478.198 557.594 477.973 557.14 477.699C552.764 474.994 547.315 477.095 546.93 477.095C546.544 477.095 542.153 478.954 537.513 476.165C537.309 476.044 537.105 475.931 536.909 475.833C536.584 473.089 536.425 471.004 536.425 471.004Z" fill="black"/>
<path opacity="0.1" d="M597.158 457.786V473.006C597.158 473.943 597.158 474.888 597.158 475.825C596.844 476.351 596.59 476.912 596.402 477.495C595.601 479.354 590.167 480.02 585.391 479.234C582.357 478.837 579.299 478.645 576.239 478.659C575.536 473.611 575.037 467.603 575.037 467.603L597.158 457.786Z" fill="black"/>
<path d="M618.916 462.116C615.198 462.645 605.917 470.603 601.277 472.198C596.636 473.792 597.166 474.049 596.372 475.909C595.578 477.768 590.137 478.425 585.361 477.639C580.584 476.853 571.568 477.103 571.568 477.103C571.568 477.103 561.524 478.841 557.118 476.113C552.712 473.384 547.293 475.508 546.908 475.508C546.523 475.508 542.132 477.367 537.491 474.578C532.851 471.79 526.616 472.855 526.616 472.855C526.616 472.855 521.575 469.938 518.658 471.533C515.741 473.127 509.377 468.351 507.783 466.892C506.188 465.434 510.806 460.794 514.282 459.463C517.759 458.133 524.364 437.978 525.021 437.32C525.679 436.663 528.604 429.627 528.203 426.845C527.803 424.064 535.761 411.322 535.761 411.322L540.794 394.197L542.305 388.907L542.366 385.756C542.366 384.335 542.434 382.513 542.472 380.465C542.608 372.001 542.751 359.448 542.472 353.772C542.426 352.896 542.381 352.185 542.321 351.671C541.655 345.973 547.611 333.533 549.085 330.987C550.173 329.105 557.216 327.676 561.411 326.792C562.411 326.611 563.4 326.374 564.373 326.082C564.753 325.986 565.147 325.955 565.537 325.991C569.497 326.15 581.174 328.598 581.174 328.598C580.116 360.559 582.239 354.989 582.239 354.989C585.686 352.336 583.562 328.863 583.562 328.863C585.285 329.656 587.046 327.661 587.046 327.661L593.772 330.45C595.82 331.68 597.801 333.02 599.705 334.463C601.301 335.588 602.703 336.966 603.854 338.544C605.842 341.862 608.63 351.278 608.63 351.278L606.242 355.057C604.156 358.405 600.952 363.552 597.664 368.766L591.83 378.054C589.223 382.196 587.099 385.559 586.215 386.927C586.015 387.255 585.875 387.616 585.799 387.993C585.749 388.242 585.716 388.494 585.701 388.748C585.664 389.805 585.768 390.863 586.011 391.892C587.681 399.812 595.231 412.789 595.231 412.789C595.231 412.789 602.788 424.321 602.924 428.032C603.06 431.743 611.147 435.725 613.006 440.766C614.865 445.807 618.969 447.659 618.44 450.712C617.911 453.765 623.73 455.088 624.803 457.075C625.877 459.063 622.627 461.587 618.916 462.116Z" fill="#F15317"/>
<path opacity="0.1" d="M628.846 430.14C626.798 431.524 623.193 431.471 621.999 431.282L621.568 425.379L628.861 426.309C628.746 427.583 628.741 428.865 628.846 430.14Z" fill="black"/>
<path d="M603.264 347.409L608.706 351.256C608.706 351.256 611.223 361.33 613.475 364.912C615.727 368.495 615.462 373.135 615.462 373.135C616.222 373.976 616.931 374.862 617.586 375.787C619.181 377.911 621.297 388.56 620.503 389.935C619.71 391.31 625.083 402.707 625.083 402.707C625.083 402.707 625.839 403.463 627.403 407.612C628.968 411.761 627.403 416.5 627.403 416.5C627.403 416.5 631.514 425.652 629.791 428.168C628.068 430.685 622.491 430.436 621.697 430.156C620.904 429.876 623.821 428.433 618.674 428.032C613.528 427.632 606.733 418.487 606.733 418.487C604.043 413.627 602.077 408.4 600.899 402.972C599.723 397.378 598.129 391.881 596.13 386.527C595.465 384.539 592.548 371.676 592.548 371.676L603.264 347.409Z" fill="#F15317"/>
<path opacity="0.1" d="M562.552 347.409C562.552 347.409 562.151 378.176 558.44 384.275L562.552 347.409Z" fill="black"/>
<path opacity="0.1" d="M584.038 358.284C584.038 358.284 580.592 389.051 577.871 390.638C575.151 392.225 584.038 358.284 584.038 358.284Z" fill="black"/>
<path opacity="0.1" d="M579.042 353.908C579.042 353.908 578.203 382.921 573.827 385.786C569.452 388.65 579.042 353.908 579.042 353.908Z" fill="black"/>
<path opacity="0.1" d="M540.937 408.806C540.937 408.806 535.451 424.85 536.07 431.478C536.69 438.106 540.937 408.806 540.937 408.806Z" fill="black"/>
<path opacity="0.1" d="M586.086 392.95C578.906 394.56 559.483 397.447 542.403 386.821C542.403 385.4 542.471 383.579 542.509 381.531C548.993 385.098 567.207 394.379 576.48 391.779C581.105 390.456 584.038 389.617 585.874 389.073C585.69 390.367 585.762 391.684 586.086 392.95Z" fill="black"/>
<path opacity="0.1" d="M586.086 391.363C578.906 392.965 559.483 395.852 542.403 385.234C542.403 383.813 542.471 381.984 542.509 379.944C548.993 383.511 567.207 392.792 576.48 390.192C581.105 388.877 584.038 388.03 585.874 387.494C585.692 388.785 585.763 390.1 586.086 391.363Z" fill="black"/>
<path d="M586.086 391.93C578.906 393.532 559.483 396.419 542.403 385.801C542.403 384.38 542.471 382.559 542.509 380.511C548.993 384.078 567.207 393.359 576.48 390.759C581.105 389.444 584.038 388.597 585.874 388.061C585.692 389.352 585.763 390.667 586.086 391.93Z" fill="#605D82"/>
<path opacity="0.1" d="M586.086 391.93C578.906 393.532 559.483 396.419 542.403 385.801C542.403 384.38 542.471 382.559 542.509 380.511C548.993 384.078 567.207 393.359 576.48 390.759C581.105 389.444 584.038 388.597 585.874 388.061C585.692 389.352 585.763 390.667 586.086 391.93Z" fill="black"/>
<path opacity="0.1" d="M555.183 574.42C555.183 574.594 555.145 574.707 555.138 574.745L544.051 583.202C545.819 581.592 546.273 577.844 546.265 574.367C546.265 573.989 546.265 573.611 546.265 573.233C547.241 570.831 548.627 568.616 550.361 566.689C552.251 566.197 553.437 566.689 554.14 567.543C554.14 567.626 554.14 567.709 554.14 567.785C554.291 567.967 554.423 568.165 554.533 568.374C555.644 570.286 555.327 573.407 555.183 574.42Z" fill="black"/>
<path opacity="0.1" d="M554.321 570.128L545.955 575.871C545.955 575.871 546.008 575.199 546.084 574.209C547.08 571.64 548.531 569.271 550.369 567.218C552.258 566.734 553.445 567.218 554.147 568.072C554.215 569.311 554.321 570.128 554.321 570.128Z" fill="black"/>
<path d="M555.13 575.289C553.955 577.982 553.363 580.892 553.392 583.829C553.441 586.243 552.827 588.625 551.616 590.714C551.446 591.01 551.251 591.291 551.034 591.553C551.034 591.553 545.222 591.508 543.189 589.822C542.958 589.651 542.767 589.432 542.63 589.18C541.466 586.86 544.897 577.972 544.897 577.972C546.696 571.117 550.353 567.46 550.353 567.46C556.876 565.752 555.13 575.289 555.13 575.289Z" fill="#5A5773"/>
<path opacity="0.1" d="M551.616 590.691C551.447 590.987 551.252 591.268 551.034 591.53C551.034 591.53 545.222 591.485 543.189 589.799C544.187 586.489 547.384 576.476 548.873 578.176C550.362 579.876 551.261 587.494 551.616 590.691Z" fill="black"/>
<path d="M550.815 578.818L550.414 593.828H552.364C552.364 593.828 552.674 580.662 553.551 578.818C554.427 576.974 550.815 578.818 550.815 578.818Z" fill="#5A5773"/>
<path opacity="0.1" d="M593.764 571.042L593.719 571.352L582.685 579.748C584.4 578.101 584.846 574.397 584.838 570.966C584.838 570.589 584.838 570.211 584.838 569.825C585.812 567.426 587.196 565.214 588.927 563.288C590.817 562.797 592.011 563.288 592.744 564.134C592.744 564.225 592.744 564.301 592.744 564.384C592.896 564.562 593.028 564.758 593.137 564.966C594.233 566.908 593.908 570.037 593.764 571.042Z" fill="black"/>
<path opacity="0.1" d="M592.902 566.719L584.536 572.47C584.536 572.47 584.589 571.798 584.672 570.808C585.662 568.237 587.111 565.868 588.95 563.817C590.839 563.333 592.026 563.779 592.766 564.671C592.796 565.91 592.902 566.719 592.902 566.719Z" fill="black"/>
<path d="M593.719 571.888C592.539 574.579 591.944 577.49 591.974 580.428C592.023 582.843 591.409 585.224 590.198 587.313C590.026 587.608 589.831 587.888 589.616 588.152C589.616 588.152 583.804 588.107 581.771 586.421C581.547 586.244 581.362 586.023 581.227 585.772C580.07 583.451 583.494 574.564 583.494 574.564C585.293 567.709 588.951 564.051 588.951 564.051C595.458 562.366 593.719 571.888 593.719 571.888Z" fill="#5A5773"/>
<path opacity="0.1" d="M590.197 587.313C590.025 587.607 589.831 587.888 589.615 588.152C589.615 588.152 583.803 588.107 581.771 586.421C582.768 583.111 585.965 573.09 587.454 574.79C588.943 576.491 589.842 584.094 590.197 587.313Z" fill="black"/>
<path d="M589.403 575.418L588.995 590.419H590.945C590.945 590.419 591.255 577.262 592.132 575.418C593.008 573.574 589.403 575.418 589.403 575.418Z" fill="#5A5773"/>
<path opacity="0.1" d="M606.778 359.214C606.688 362.993 604.624 367.021 601.004 368.147C599.946 368.472 598.82 368.547 597.74 368.767C597.22 368.863 596.713 369.017 596.228 369.228C593.908 370.293 592.752 372.938 592.283 375.447C592.117 376.309 592.011 377.178 591.905 378.055C591.78 379.724 591.432 381.368 590.87 382.944C589.834 385.373 588.049 387.406 585.776 388.749C583.136 390.318 580.29 391.508 577.319 392.285C578.819 389.974 579.799 387.365 580.191 384.637C580.582 381.91 580.376 379.13 579.586 376.49C579.103 374.941 578.075 373.21 576.435 373.256C575.158 373.294 574.243 374.427 573.291 375.289C568.605 379.506 561.274 377.624 555.342 375.5C565.922 364.746 568.862 347.281 562.484 333.64C561.904 332.575 561.467 331.44 561.184 330.261C560.996 329.089 561.108 327.888 561.509 326.77C562.024 325.339 562.747 323.992 563.655 322.772C564.025 322.25 564.411 321.737 564.804 321.215C565.31 320.527 565.817 319.832 566.27 319.114C566.942 318.109 567.452 317.005 567.782 315.842C568.454 313.272 567.509 310.022 565.023 309.146L564.887 309.093C562.136 308.231 561.282 307.974 559.408 305.768C558.153 304.301 557.443 301.989 555.296 301.558C553.649 301.218 551.805 301.951 550.074 302.397C550.411 300.22 551.236 298.147 552.489 296.334C553.741 294.521 555.387 293.015 557.304 291.929C559.221 290.844 561.36 290.206 563.558 290.064C565.757 289.923 567.959 290.281 570 291.112C572.04 291.942 573.866 293.225 575.341 294.862C576.815 296.499 577.9 298.449 578.513 300.565C579.126 302.681 579.253 304.909 578.882 307.081C578.512 309.253 577.654 311.313 576.374 313.106C578.309 319.454 583.32 324.518 587.159 327.639L593.885 330.428C595.933 331.658 597.914 332.997 599.818 334.441C600.856 339.159 602.287 343.783 604.095 348.263C605.017 350.472 605.775 352.745 606.363 355.065C606.674 356.425 606.813 357.819 606.778 359.214Z" fill="black"/>
<path d="M565.378 308.564C567.962 309.372 568.96 312.698 568.272 315.313C567.584 317.927 565.733 320.044 564.168 322.243C562.604 324.442 561.213 327.072 561.69 329.732C561.973 330.91 562.41 332.046 562.99 333.11C569.368 346.752 566.39 364.209 555.848 374.971C561.78 377.095 569.119 378.977 573.797 374.76C574.749 373.898 575.663 372.764 576.941 372.727C578.566 372.674 579.616 374.412 580.092 375.961C580.882 378.6 581.088 381.378 580.696 384.104C580.305 386.831 579.325 389.439 577.825 391.749C583.289 390.162 589.29 387.705 591.383 382.415C592.32 380.05 592.32 377.42 592.789 374.911C593.257 372.402 594.414 369.764 596.734 368.698C598.245 368.018 599.946 368.101 601.51 367.618C605.13 366.492 607.193 362.471 607.284 358.685C607.375 354.899 605.924 351.263 604.563 347.734C597.006 328.085 604.11 343.827 599.968 320.18C599.122 315.35 600.445 312.463 601.525 307.687C602.606 302.911 602.372 297.379 599.054 293.766C595.736 290.154 590.582 289.481 586.463 287.033C582.813 284.856 579.601 281.191 575.354 281.259C572.24 281.304 572.247 281.81 569.376 283.02C564.41 285.105 558.84 284.478 553.792 286.201C549.257 287.758 543.499 292.852 544.874 298.293C546.726 305.616 551.804 300.228 555.765 301.052C557.911 301.505 558.621 303.787 559.876 305.261C561.78 307.438 562.627 307.702 565.378 308.564Z" fill="#4A4347"/>
<path d="M517.69 397.893C517.69 397.893 515.543 397.666 512.657 397.22C505.099 396.072 492.319 393.442 499.59 389.663C506.263 386.171 515.46 389.134 520.841 391.507C522.372 392.183 523.865 392.939 525.315 393.774L517.69 397.893Z" fill="#FFC0C6"/>
<path opacity="0.1" d="M557.911 351.785C557.911 351.785 554.465 369.167 552.742 372.999C551.019 376.83 548.207 386.927 548.207 386.927C548.207 386.927 544.134 390.615 540.771 394.197L542.282 388.907L542.342 385.756C542.342 384.335 542.411 382.513 542.448 380.465C542.584 372.001 542.728 359.448 542.448 353.772C542.743 353.221 542.932 352.881 542.932 352.881L545.615 348.626C545.615 348.626 549.991 336.957 552.507 333.639C555.024 330.322 557.911 351.785 557.911 351.785Z" fill="black"/>
<path opacity="0.1" d="M519.799 395.588C519.799 395.588 519.413 397.099 518.763 399.14C517.939 398.807 517.252 398.543 516.745 398.384C514.478 397.628 517.146 396.661 516.481 394.673C515.914 392.965 514.864 393.502 513.654 393.026C514.445 391.949 515.301 390.922 516.216 389.95L519.799 395.588Z" fill="black"/>
<path d="M545.177 348.603L542.494 352.858C542.494 352.858 538.851 359.607 538.284 361.7C537.717 363.794 536.584 371.805 534.316 373.664C532.049 375.523 527.416 381.486 528.081 382.68C528.747 383.874 521.847 385.333 521.847 385.333C521.847 385.333 517.206 387.192 517.471 388.65C517.735 390.109 513.624 391.303 515.083 392.361C516.541 393.419 517.871 392.361 518.536 394.349C519.201 396.336 516.541 397.273 518.801 398.067C521.061 398.86 528.482 401.966 528.482 401.966C528.482 401.966 534.445 402.972 536.168 399.389C537.891 395.807 547.708 386.927 547.708 386.927C547.708 386.927 550.49 376.845 552.243 372.999C553.996 369.152 557.42 351.785 557.42 351.785C557.42 351.785 554.631 330.299 552.13 333.647C549.628 336.995 545.177 348.603 545.177 348.603Z" fill="#F15317"/>
<path opacity="0.1" d="M537.62 382.816C537.62 382.816 524.492 384.539 531.521 387.456C538.549 390.373 540.938 387.456 540.938 387.456L537.62 382.816Z" fill="black"/>
<path opacity="0.1" d="M521.311 390.638C521.311 390.638 529.004 389.051 530.992 390.638C532.979 392.225 521.311 390.638 521.311 390.638Z" fill="black"/>
<path opacity="0.1" d="M520.517 394.621C520.517 394.621 521.046 393.291 523.698 394.621C526.351 395.951 520.517 394.621 520.517 394.621Z" fill="black"/>
<path opacity="0.1" d="M607.308 407.287C607.308 407.287 608.109 419.379 611.366 419.772C614.623 420.165 607.308 407.287 607.308 407.287Z" fill="black"/>
<path opacity="0.1" d="M614.276 379.914C614.276 379.914 614.827 383.609 611.366 384.274C607.905 384.939 614.276 379.914 614.276 379.914Z" fill="black"/>
<path opacity="0.1" d="M575.014 415.88C575.014 415.88 574.84 453.191 582.443 457.786L575.014 415.88Z" fill="black"/>
<path opacity="0.1" d="M585.088 417.474C585.088 417.474 584.952 454.778 592.51 459.38L585.088 417.474Z" fill="black"/>
<path opacity="0.1" d="M544.686 498.256C546.407 498.096 548.141 498.096 549.862 498.256C552.742 498.49 544.686 498.256 544.686 498.256Z" fill="black"/>
<path opacity="0.1" d="M544.686 500.863C546.407 500.703 548.141 500.703 549.862 500.863C552.742 501.128 544.686 500.863 544.686 500.863Z" fill="black"/>
<path opacity="0.1" d="M584.022 495.195C585.744 495.035 587.477 495.035 589.199 495.195C592.079 495.467 584.022 495.195 584.022 495.195Z" fill="black"/>
<path opacity="0.1" d="M584.907 497.281C586.629 497.121 588.362 497.121 590.084 497.281C592.956 497.545 584.907 497.281 584.907 497.281Z" fill="black"/>
<g opacity="0.1">
<path opacity="0.1" d="M558.637 373.664C569.217 362.91 572.157 345.452 565.778 331.803C565.199 330.739 564.762 329.603 564.479 328.425C564.002 325.765 565.385 323.135 566.957 320.935C568.529 318.736 570.381 316.62 571.061 314.005C571.741 311.39 570.751 308.065 568.167 307.264C565.416 306.402 564.562 306.138 562.687 303.931C561.433 302.465 560.722 300.152 558.576 299.729C554.616 298.905 549.507 304.264 547.686 296.963C546.643 292.867 549.688 288.952 553.203 286.617C548.812 288.438 543.733 293.275 545.033 298.391C546.885 305.715 551.963 300.334 555.923 301.158C558.07 301.603 558.78 303.893 560.035 305.359C561.917 307.566 562.763 307.831 565.514 308.692C568.099 309.493 569.096 312.819 568.408 315.434C567.721 318.048 565.869 320.165 564.305 322.364C562.74 324.563 561.35 327.193 561.826 329.861C562.111 331.036 562.548 332.169 563.126 333.231C569.504 346.88 566.527 364.338 555.984 375.092C561.697 377.14 568.703 378.954 573.366 375.326C568.945 376.883 563.352 375.349 558.637 373.664Z" fill="black"/>
<path opacity="0.1" d="M599.546 367.398C598.984 367.654 598.472 368.007 598.034 368.441C599.228 368.147 600.49 368.109 601.662 367.739C602.57 367.457 603.409 366.989 604.125 366.363C602.622 366.786 600.974 366.741 599.546 367.398Z" fill="black"/>
<path opacity="0.1" d="M586.38 388.371C584.519 389.203 582.599 389.897 580.636 390.449C582.136 388.139 583.116 385.531 583.508 382.805C583.899 380.079 583.693 377.3 582.904 374.662C582.428 373.15 581.392 371.374 579.752 371.419C578.767 371.571 577.873 372.083 577.243 372.855C578.755 372.908 579.79 374.586 580.266 376.09C581.056 378.728 581.262 381.507 580.87 384.233C580.479 386.959 579.499 389.568 577.999 391.877C580.94 391.098 583.76 389.918 586.38 388.371Z" fill="black"/>
</g>
<path d="M326.025 233.232H320.858L318.007 225.837H304.993L302.313 233.232H297.36L295.688 230.981L307.501 201.061H315.498L327.633 230.981L326.025 233.232ZM315.906 219.579L311.425 208.262L307.029 219.579H315.906Z" fill="#1EAA1E"/>
<path fill-rule="evenodd" clip-rule="evenodd" d="M311.66 192.058C324.139 192.058 334.237 202.175 334.237 214.627C334.237 220.136 332.265 225.194 328.963 229.116L326.068 221.915C327.183 219.729 327.805 217.264 327.805 214.627C327.805 205.711 320.58 198.467 311.639 198.467C302.72 198.467 295.473 205.69 295.473 214.627C295.473 217.135 296.052 219.514 297.06 221.615L294.187 228.966C290.971 225.065 289.041 220.071 289.041 214.606C289.084 202.153 299.182 192.058 311.66 192.058Z" fill="#FF6300"/>
<path d="M269.659 263.924H265.65L265.071 258.544H261.962L261.276 263.924H257.76L260.761 242.319H266.636L269.659 263.924ZM263.613 245.298L262.348 255.715H264.749L263.613 245.298ZM271.353 255.908H275.255V260.73C275.255 261.094 275.341 261.352 275.534 261.437C275.727 261.545 276.048 261.587 276.52 261.587C276.992 261.587 277.313 261.545 277.485 261.437C277.656 261.33 277.742 261.094 277.742 260.73V258.158C277.742 257.537 277.613 257.022 277.335 256.593C277.142 256.293 276.884 255.95 276.52 255.565C276.413 255.436 275.577 254.6 274.054 253.1C272.982 252.028 272.253 251.192 271.867 250.571C271.524 250.035 271.353 249.22 271.353 248.149V245.427C271.353 244.055 271.825 243.155 272.746 242.683C273.454 242.319 274.698 242.148 276.499 242.148C279.414 242.148 281.065 242.748 281.451 243.969C281.58 244.377 281.666 244.912 281.666 245.534V249.906H277.742V245.534C277.742 245.17 277.656 244.912 277.485 244.827C277.313 244.72 276.992 244.677 276.52 244.677C276.048 244.677 275.705 244.72 275.534 244.827C275.341 244.934 275.255 245.17 275.255 245.534V248.02C275.255 248.535 275.405 248.985 275.705 249.413C275.834 249.628 276.113 249.928 276.52 250.378C277.335 251.192 278.149 252.028 278.943 252.843C280.036 253.936 280.765 254.793 281.108 255.372C281.494 256.015 281.687 256.851 281.687 257.901V260.837C281.687 262.209 281.215 263.109 280.293 263.581C279.586 263.945 278.342 264.116 276.541 264.116C273.626 264.116 271.975 263.516 271.589 262.295C271.46 261.887 271.374 261.352 271.374 260.73V255.908H271.353ZM287.862 263.924H283.895V242.319H287.862V263.924ZM301.026 263.924H297.017L296.438 258.544H293.329L292.643 263.924H289.127L292.128 242.319H298.003L301.026 263.924ZM294.98 245.298L293.715 255.715H296.116L294.98 245.298Z" fill="#1EAA1E"/>
<path d="M302.784 245.534C302.784 244.141 303.256 243.219 304.178 242.726C304.907 242.34 306.172 242.148 307.973 242.148C310.867 242.148 312.539 242.748 312.968 243.969C313.097 244.355 313.183 244.891 313.183 245.534V260.73C313.183 261.394 313.118 261.909 312.968 262.295C312.539 263.516 310.867 264.116 307.973 264.116C306.172 264.116 304.907 263.924 304.178 263.538C303.234 263.045 302.784 262.123 302.784 260.73V245.534ZM309.216 260.73V245.534C309.216 245.17 309.131 244.912 308.959 244.827C308.787 244.72 308.466 244.677 307.994 244.677C307.522 244.677 307.179 244.72 307.008 244.827C306.815 244.934 306.729 245.17 306.729 245.534V260.73C306.729 261.094 306.815 261.352 307.008 261.437C307.201 261.545 307.522 261.587 307.994 261.587C308.466 261.587 308.787 261.545 308.959 261.437C309.131 261.352 309.216 261.116 309.216 260.73ZM319.336 245.105V253.464H320.537C321.116 253.464 321.459 253.293 321.587 252.95C321.652 252.8 321.694 252.435 321.694 251.835V246.756C321.694 246.156 321.652 245.791 321.587 245.641C321.459 245.277 321.094 245.105 320.537 245.105H319.336ZM319.336 263.924H315.412V242.319H321.716C322.574 242.319 323.26 242.383 323.774 242.491C324.653 242.683 325.232 243.241 325.489 244.184C325.618 244.634 325.704 245.427 325.704 246.541V252.05C325.704 253.507 325.532 254.514 325.168 255.093C324.825 255.672 324.16 256.015 323.195 256.143C322.702 256.208 321.416 256.251 319.358 256.251V263.924H319.336ZM333.937 263.924H330.013V245.105H327.012V242.319H336.96V245.105H333.958V263.924H333.937ZM338.525 245.534C338.525 244.141 338.997 243.219 339.919 242.726C340.648 242.34 341.913 242.148 343.714 242.148C346.608 242.148 348.28 242.748 348.709 243.969C348.838 244.355 348.924 244.891 348.924 245.534V260.73C348.924 261.394 348.859 261.909 348.709 262.295C348.28 263.516 346.608 264.116 343.714 264.116C341.913 264.116 340.648 263.924 339.919 263.538C338.975 263.045 338.525 262.123 338.525 260.73V245.534ZM344.957 260.73V245.534C344.957 245.17 344.871 244.912 344.7 244.827C344.528 244.72 344.207 244.677 343.735 244.677C343.263 244.677 342.92 244.72 342.749 244.827C342.556 244.934 342.47 245.17 342.47 245.534V260.73C342.47 261.094 342.556 261.352 342.749 261.437C342.942 261.545 343.263 261.587 343.735 261.587C344.207 261.587 344.528 261.545 344.7 261.437C344.871 261.352 344.957 261.116 344.957 260.73ZM360.48 242.319H366.29V263.924H362.86V246.606H362.753L360.394 263.924H357.028L354.605 246.606V263.924H351.111V242.319H356.985L358.979 257.687L360.48 242.319Z" fill="#FF6300"/>
<defs>
<linearGradient id="paint0_linear" x1="566.595" y1="594.674" x2="566.595" y2="279.898" gradientUnits="userSpaceOnUse">
<stop stop-color="#808080" stop-opacity="0.25"/>
<stop offset="0.54" stop-color="#808080" stop-opacity="0.12"/>
<stop offset="1" stop-color="#808080" stop-opacity="0.1"/>
</linearGradient>
</defs>
</svg>
