<svg width="1100" height="860" viewBox="0 0 1100 860" fill="none" xmlns="http://www.w3.org/2000/svg">
<path d="M1078.72 274.401C1067.48 252.56 1052.74 232.706 1035.08 215.625L429.73 210.582L928.137 151.407C895.525 140.495 861.402 134.773 827.015 134.449C779.034 101.693 717.365 82 650.1 82C589.746 82 533.938 97.8574 488.439 124.763C449.734 107.894 405.676 98.3636 358.863 98.3636C224.361 98.3636 112.288 177.115 87.1433 281.556L1078.72 274.401Z" fill="#D7FFD7"/>
<path d="M1100 361.962C1099.96 333.345 1093.51 305.099 1081.13 279.297L31.9876 372.426C21.3404 388.661 13.0638 406.332 7.40797 424.905L332.297 465.848L0 495.703C9.99735 613.928 129.888 707.291 276.343 707.291C350.063 707.291 417.046 683.627 466.682 645.049C516.474 684.357 584.071 708.508 658.618 708.508C769.173 708.508 864.6 655.29 909.038 578.339C998.187 554.422 1067.44 494.35 1091.14 419.22L680.277 365.369H1100C1100 364.25 1100 363.12 1100 361.962Z" fill="#D7FFD7"/>
<path d="M275.895 620.382C275.895 620.382 230.902 555.463 238.544 494.195C241.909 468.518 236.853 442.442 224.137 419.882C218.018 409.217 210.934 399.135 202.974 389.764" stroke="#535461" stroke-width="2" stroke-miterlimit="10"/>
<path d="M207.559 351.128C210.48 359.938 202.974 390.786 202.974 390.786C202.974 390.786 178.55 370.509 175.63 361.69C174.229 357.456 174.568 352.839 176.572 348.855C178.575 344.87 182.08 341.845 186.314 340.445C190.548 339.044 195.165 339.383 199.149 341.386C203.133 343.39 206.159 346.894 207.559 351.128Z" fill="#1EAA1E"/>
<path d="M250.099 391.224C247.763 400.209 224.702 422.024 224.702 422.024C224.702 422.024 215.221 391.73 217.567 382.745C218.097 380.581 219.053 378.544 220.378 376.753C221.703 374.961 223.37 373.451 225.284 372.31C227.198 371.168 229.32 370.419 231.526 370.105C233.732 369.791 235.978 369.919 238.134 370.481C240.29 371.043 242.313 372.028 244.086 373.378C245.858 374.729 247.344 376.419 248.457 378.349C249.57 380.279 250.289 382.411 250.571 384.622C250.853 386.832 250.693 389.076 250.099 391.224Z" fill="#1EAA1E"/>
<path d="M276.567 475.048C270.006 481.628 239.089 488.812 239.089 488.812C239.089 488.812 246.205 457.876 252.718 451.305C255.866 448.148 260.14 446.37 264.599 446.364C269.058 446.358 273.337 448.123 276.494 451.271C279.652 454.42 281.429 458.693 281.436 463.152C281.442 467.611 279.677 471.89 276.528 475.048H276.567Z" fill="#6C63FF"/>
<path d="M282.301 543.023C276.947 550.607 247.685 562.921 247.685 562.921C247.685 562.921 249.466 531.225 254.82 523.642C257.391 519.998 261.303 517.524 265.697 516.765C270.091 516.005 274.607 517.023 278.251 519.593C281.896 522.163 284.369 526.075 285.129 530.469C285.888 534.863 284.871 539.379 282.301 543.023Z" fill="#6C63FF"/>
<path d="M191.77 434.825C200.122 438.874 231.681 435.487 231.681 435.487C231.681 435.487 214.782 408.62 206.372 404.56C202.383 402.803 197.869 402.664 193.779 404.171C189.69 405.678 186.346 408.715 184.452 412.64C182.559 416.565 182.263 421.072 183.628 425.211C184.993 429.35 187.912 432.796 191.77 434.825Z" fill="#1EAA1E"/>
<path d="M199.47 514.19C208.659 515.553 237.765 502.879 237.765 502.879C237.765 502.879 213.594 482.29 204.425 480.927C202.24 480.603 200.014 480.711 197.872 481.247C195.73 481.783 193.714 482.735 191.94 484.05C188.357 486.706 185.976 490.675 185.321 495.086C184.665 499.497 185.788 503.988 188.443 507.57C191.099 511.153 195.068 513.534 199.479 514.19H199.47Z" fill="#1EAA1E"/>
<path d="M217.557 590.293C226.386 593.214 257.215 585.621 257.215 585.621C257.215 585.621 236.87 561.285 228.012 558.365C225.914 557.676 223.701 557.406 221.499 557.573C219.297 557.739 217.15 558.337 215.179 559.333C213.209 560.329 211.454 561.704 210.014 563.378C208.575 565.053 207.479 566.994 206.79 569.092C206.101 571.19 205.832 573.403 205.998 575.604C206.165 577.806 206.763 579.954 207.759 581.924C208.755 583.895 210.13 585.65 211.804 587.089C213.478 588.528 215.42 589.624 217.518 590.313L217.557 590.293Z" fill="#1EAA1E"/>
<path opacity="0.25" d="M207.559 351.128C210.48 359.938 202.974 390.786 202.974 390.786C202.974 390.786 178.55 370.509 175.63 361.69C174.229 357.456 174.568 352.839 176.572 348.855C178.575 344.87 182.08 341.845 186.314 340.445C190.548 339.044 195.165 339.383 199.149 341.386C203.133 343.39 206.159 346.894 207.559 351.128Z" fill="black"/>
<path opacity="0.25" d="M250.099 391.224C247.763 400.209 224.702 422.024 224.702 422.024C224.702 422.024 215.221 391.73 217.567 382.745C218.097 380.581 219.053 378.544 220.378 376.753C221.703 374.961 223.37 373.451 225.284 372.31C227.198 371.168 229.32 370.419 231.526 370.105C233.732 369.791 235.978 369.919 238.134 370.481C240.29 371.043 242.313 372.028 244.086 373.378C245.858 374.729 247.344 376.419 248.457 378.349C249.57 380.279 250.289 382.411 250.571 384.622C250.853 386.832 250.693 389.076 250.099 391.224Z" fill="black"/>
<path opacity="0.25" d="M276.567 475.048C270.006 481.628 239.089 488.812 239.089 488.812C239.089 488.812 246.205 457.876 252.718 451.305C255.866 448.148 260.14 446.37 264.599 446.364C269.058 446.358 273.337 448.123 276.494 451.271C279.652 454.42 281.429 458.693 281.436 463.152C281.442 467.611 279.677 471.89 276.528 475.048H276.567Z" fill="black"/>
<path opacity="0.25" d="M282.301 543.023C276.947 550.607 247.685 562.921 247.685 562.921C247.685 562.921 249.466 531.225 254.82 523.642C257.391 519.998 261.303 517.524 265.697 516.765C270.091 516.005 274.607 517.023 278.251 519.593C281.896 522.163 284.369 526.075 285.129 530.469C285.888 534.863 284.871 539.379 282.301 543.023Z" fill="black"/>
<path opacity="0.25" d="M191.77 434.825C200.122 438.874 231.681 435.487 231.681 435.487C231.681 435.487 214.782 408.62 206.372 404.56C202.383 402.803 197.869 402.664 193.779 404.171C189.69 405.678 186.346 408.715 184.452 412.64C182.559 416.565 182.263 421.072 183.628 425.211C184.993 429.35 187.912 432.796 191.77 434.825Z" fill="black"/>
<path opacity="0.25" d="M199.47 514.19C208.659 515.553 237.765 502.879 237.765 502.879C237.765 502.879 213.594 482.29 204.425 480.927C202.24 480.603 200.014 480.711 197.872 481.247C195.73 481.783 193.714 482.735 191.94 484.05C188.357 486.706 185.976 490.675 185.321 495.086C184.665 499.497 185.788 503.988 188.443 507.57C191.099 511.153 195.068 513.534 199.479 514.19H199.47Z" fill="black"/>
<path opacity="0.25" d="M217.557 590.293C226.386 593.214 257.215 585.621 257.215 585.621C257.215 585.621 236.87 561.285 228.012 558.365C225.914 557.676 223.701 557.406 221.499 557.573C219.297 557.739 217.15 558.337 215.179 559.333C213.209 560.329 211.454 561.704 210.014 563.378C208.575 565.053 207.479 566.994 206.79 569.092C206.101 571.19 205.832 573.403 205.998 575.604C206.165 577.806 206.763 579.954 207.759 581.924C208.755 583.895 210.13 585.65 211.804 587.089C213.478 588.528 215.42 589.624 217.518 590.313L217.557 590.293Z" fill="black"/>
<path d="M275.643 617.774C275.643 617.774 208.202 576.655 190.349 517.509C183.016 492.675 167.831 470.887 147.069 455.413C137.154 448.145 126.593 441.801 115.52 436.46" stroke="#535461" stroke-width="2" stroke-miterlimit="10"/>
<path d="M104.052 399.314C110.292 406.186 115.928 437.424 115.928 437.424C115.928 437.424 85.3911 428.78 79.1513 421.907C76.1552 418.605 74.5935 414.248 74.8099 409.795C75.0262 405.341 77.0028 401.156 80.3049 398.16C83.6069 395.164 87.964 393.602 92.4174 393.819C96.8709 394.035 101.056 396.012 104.052 399.314Z" fill="#1EAA1E"/>
<path d="M159.198 418.724C160.697 427.894 148.49 457.185 148.49 457.185C148.49 457.185 127.522 433.326 126.013 424.156C125.293 419.755 126.35 415.249 128.953 411.628C131.555 408.007 135.489 405.568 139.89 404.848C144.291 404.127 148.797 405.185 152.418 407.787C156.039 410.389 158.478 414.323 159.198 418.724Z" fill="#1EAA1E"/>
<path d="M217.362 484.617C214.023 493.29 188.674 512.389 188.674 512.389C188.674 512.389 182.639 481.239 185.968 472.556C187.567 468.393 190.755 465.036 194.83 463.223C198.905 461.41 203.532 461.29 207.696 462.89C211.859 464.489 215.216 467.677 217.029 471.751C218.841 475.826 218.961 480.454 217.362 484.617Z" fill="#1EAA1E"/>
<path d="M250.177 544.415C248.357 553.526 226.59 576.636 226.59 576.636C226.59 576.636 215.376 546.936 217.196 537.834C217.629 535.669 218.483 533.61 219.711 531.774C220.939 529.939 222.516 528.364 224.353 527.138C226.19 525.912 228.25 525.06 230.416 524.631C232.582 524.201 234.811 524.203 236.977 524.635C239.143 525.067 241.202 525.921 243.037 527.149C244.872 528.377 246.448 529.954 247.674 531.791C248.899 533.628 249.751 535.688 250.181 537.854C250.61 540.02 250.609 542.249 250.177 544.415Z" fill="#1EAA1E"/>
<path d="M123.512 482.231C132.798 482.553 160.279 466.656 160.279 466.656C160.279 466.656 133.947 448.94 124.66 448.599C122.454 448.524 120.254 448.883 118.187 449.658C116.12 450.433 114.225 451.607 112.611 453.114C110.998 454.621 109.697 456.431 108.783 458.44C107.869 460.45 107.36 462.62 107.284 464.826C107.209 467.033 107.569 469.232 108.343 471.3C109.118 473.367 110.292 475.261 111.799 476.875C113.306 478.488 115.116 479.789 117.126 480.703C119.135 481.617 121.305 482.127 123.512 482.202V482.231Z" fill="#1EAA1E"/>
<path d="M162.732 551.657C171.688 549.185 193.162 525.803 193.162 525.803C193.162 525.803 162.722 516.74 153.805 519.251C151.656 519.82 149.64 520.809 147.876 522.162C146.111 523.514 144.632 525.203 143.525 527.132C142.417 529.06 141.704 531.188 141.424 533.394C141.145 535.6 141.307 537.839 141.899 539.982C142.491 542.125 143.503 544.13 144.875 545.879C146.247 547.629 147.953 549.089 149.893 550.174C151.833 551.26 153.97 551.95 156.178 552.205C158.387 552.46 160.625 552.273 162.761 551.657H162.732Z" fill="#1EAA1E"/>
<path d="M210.11 613.909C219.358 612.936 244.473 593.564 244.473 593.564C244.473 593.564 215.999 579.527 206.761 580.452C204.564 580.672 202.432 581.322 200.487 582.366C198.541 583.41 196.82 584.826 195.422 586.535C192.599 589.987 191.263 594.418 191.707 598.855C191.927 601.051 192.577 603.183 193.621 605.129C194.665 607.074 196.081 608.795 197.79 610.193C201.242 613.016 205.673 614.353 210.11 613.909Z" fill="#1EAA1E"/>
<path opacity="0.1" d="M550.691 806.924C646.926 806.924 724.939 802.295 724.939 796.586C724.939 790.876 646.926 786.248 550.691 786.248C454.457 786.248 376.443 790.876 376.443 796.586C376.443 802.295 454.457 806.924 550.691 806.924Z" fill="#6C63FF"/>
<path opacity="0.1" d="M727.042 850.807C752.235 850.807 772.658 847.089 772.658 842.503C772.658 837.917 752.235 834.2 727.042 834.2C701.849 834.2 681.426 837.917 681.426 842.503C681.426 847.089 701.849 850.807 727.042 850.807Z" fill="#6C63FF"/>
<path d="M630.796 778.411V784.651H446.21V779.569C457.469 775.398 467.237 767.979 474.278 758.254C481.318 748.528 485.315 736.932 485.762 724.934C486.21 712.936 483.087 701.074 476.79 690.852C470.492 680.629 461.304 672.504 450.387 667.506H629.579C618.915 672.4 609.897 680.279 603.617 690.19C597.336 700.102 594.062 711.621 594.191 723.354C594.32 735.086 597.846 746.531 604.342 756.302C610.838 766.073 620.027 773.752 630.796 778.411Z" fill="#C8CAD7"/>
<path opacity="0.1" d="M629.58 667.517C621.342 671.297 614.054 676.872 608.25 683.834C602.446 690.795 598.272 698.966 596.035 707.749H483.932C481.694 698.966 477.521 690.795 471.717 683.834C465.912 676.872 458.624 671.297 450.387 667.517H629.58Z" fill="black"/>
<path d="M234.806 635.714V670.758C234.806 690.11 248.97 705.802 266.443 705.802H809.629C827.103 705.802 841.266 690.11 841.266 670.758V635.714H234.806Z" fill="#C8CAD7"/>
<path opacity="0.1" d="M630.796 778.411V784.651H446.21V779.57C451.271 777.691 456.057 775.144 460.442 771.996H619.504C623.028 774.531 626.814 776.682 630.796 778.411Z" fill="black"/>
<path d="M682.594 773.943H394.452C389.345 773.943 385.205 778.084 385.205 783.191C385.205 788.299 389.345 792.439 394.452 792.439H682.594C687.701 792.439 691.842 788.299 691.842 783.191C691.842 778.084 687.701 773.943 682.594 773.943Z" fill="#C8CAD7"/>
<path d="M841.266 251.69C841.266 243.3 837.933 235.253 832 229.32C826.067 223.387 818.02 220.053 809.629 220.053H266.443C258.053 220.053 250.006 223.387 244.072 229.32C238.139 235.253 234.806 243.3 234.806 251.69V642.528H841.266V251.69Z" fill="#474157"/>
<path d="M809.143 250.23H266.93C258.328 250.23 251.355 257.203 251.355 265.805V601.643C251.355 610.245 258.328 617.219 266.93 617.219H809.143C817.745 617.219 824.718 610.245 824.718 601.643V265.805C824.718 257.203 817.745 250.23 809.143 250.23Z" fill="#EDEDF4"/>
<path d="M538.036 242.442C542.068 242.442 545.337 239.174 545.337 235.142C545.337 231.11 542.068 227.841 538.036 227.841C534.004 227.841 530.735 231.11 530.735 235.142C530.735 239.174 534.004 242.442 538.036 242.442Z" fill="white"/>
<path d="M538.036 690.227C547.982 690.227 556.045 682.164 556.045 672.218C556.045 662.272 547.982 654.209 538.036 654.209C528.09 654.209 520.027 662.272 520.027 672.218C520.027 682.164 528.09 690.227 538.036 690.227Z" fill="white"/>
<path d="M824.718 265.805H251.355C251.355 261.675 252.996 257.713 255.917 254.792C258.838 251.871 262.799 250.23 266.93 250.23H809.143C813.273 250.23 817.235 251.871 820.156 254.792C823.077 257.713 824.718 261.675 824.718 265.805Z" fill="#C8CAD7"/>
<path d="M266.93 261.912C269.08 261.912 270.824 260.169 270.824 258.019C270.824 255.868 269.08 254.125 266.93 254.125C264.779 254.125 263.036 255.868 263.036 258.019C263.036 260.169 264.779 261.912 266.93 261.912Z" fill="#EDEDF4"/>
<path d="M278.612 261.912C280.762 261.912 282.505 260.169 282.505 258.019C282.505 255.868 280.762 254.125 278.612 254.125C276.461 254.125 274.718 255.868 274.718 258.019C274.718 260.169 276.461 261.912 278.612 261.912Z" fill="#EDEDF4"/>
<path d="M290.293 261.912C292.443 261.912 294.187 260.169 294.187 258.019C294.187 255.868 292.443 254.125 290.293 254.125C288.142 254.125 286.399 255.868 286.399 258.019C286.399 260.169 288.142 261.912 290.293 261.912Z" fill="#EDEDF4"/>
<path d="M419.762 278.948H272.771V287.708H419.762V278.948Z" fill="#F15317"/>
<path d="M419.762 534.963H272.771V543.724H419.762V534.963Z" fill="#F15317"/>
<path d="M545.337 554.431H272.771V563.192H545.337V554.431Z" fill="#F4D8CA"/>
<path d="M545.337 567.097H272.771V575.858H545.337V567.097Z" fill="#F4D8CA"/>
<path d="M545.337 579.751H272.771V588.512H545.337V579.751Z" fill="#F4D8CA"/>
<path d="M537.345 302.31H266.726V449.3H537.345V302.31Z" fill="#F4D8CA"/>
<path d="M338.966 462.928H275.691V521.335H338.966V462.928Z" fill="#F4D8CA"/>
<path d="M543.39 462.928H480.116V521.335H543.39V462.928Z" fill="#F4D8CA"/>
<path d="M439.718 462.928H376.443V521.335H439.718V462.928Z" fill="#F4D8CA"/>
<path d="M781.36 345.063H595.11V482.154H781.36V345.063Z" fill="#F4D8CA"/>
<path d="M767.77 372.884H620.779V381.645H767.77V372.884Z" fill="#EDEDF4"/>
<path d="M767.77 391.059H620.779V399.82H767.77V391.059Z" fill="#EDEDF4"/>
<path d="M767.77 409.233H620.779V417.994H767.77V409.233Z" fill="#EDEDF4"/>
<path d="M767.77 427.397H620.779V436.158H767.77V427.397Z" fill="#EDEDF4"/>
<path d="M767.77 445.572H620.779V454.333H767.77V445.572Z" fill="#EDEDF4"/>
<path d="M758.65 497.728H617.82V522.386H758.65V497.728Z" fill="#F15317"/>
<path d="M704.73 579.887H610.295V596.426H704.73V579.887Z" fill="#F15317"/>
<path opacity="0.1" d="M251.569 839.602C266.945 839.602 279.41 838.338 279.41 836.779C279.41 835.219 266.945 833.956 251.569 833.956C236.193 833.956 223.729 835.219 223.729 836.779C223.729 838.338 236.193 839.602 251.569 839.602Z" fill="#1EAA1E"/>
<path opacity="0.1" d="M821.466 798.104C830.681 798.104 838.151 797.346 838.151 796.41C838.151 795.475 830.681 794.717 821.466 794.717C812.251 794.717 804.781 795.475 804.781 796.41C804.781 797.346 812.251 798.104 821.466 798.104Z" fill="#6C63FF"/>
<path d="M261.294 790.277C261.294 790.277 224.984 809.036 243.771 831.162C243.771 831.162 245.533 836.029 250.644 835.62C250.644 835.62 249.622 833.761 253.564 832.281C254.939 831.74 256.245 831.041 257.458 830.198C259.108 829.057 260.341 827.41 260.972 825.506C260.972 825.506 268.4 815.567 262.647 797.179C262.647 797.179 263.387 791.981 262.734 791.144L258.276 797.091C258.276 797.091 262.841 800.148 263.357 804.645C263.357 804.645 258.607 797.101 257.575 797.958C257.371 798.133 255.385 801.268 255.385 801.268C255.385 801.268 263.289 806.631 263.883 813.591C263.883 813.591 259.425 803.857 254.616 802.445L251.9 807.361C251.9 807.361 260.544 812.618 261.517 820.522C261.517 820.522 256.504 810.496 251.384 808.471L249.359 813.659C249.359 813.659 257.682 818.955 258.451 825.535C258.451 825.535 251.491 814.536 248.979 814.828C248.979 814.828 247.412 819.695 247.617 821.204C247.617 821.204 253.506 825.097 253.613 828.991C253.613 828.991 248.181 822.128 247.344 822.586C247.344 822.586 246.994 829.478 248.668 833.07C248.668 833.07 245.806 827.95 246.264 822.586C244.572 824.088 243.36 826.055 242.779 828.242C242.779 828.242 241.211 824.445 246.371 820.96C246.371 820.96 246.857 815.597 247.451 814.935C247.451 814.935 241.873 817.651 239.508 820.999C239.508 820.999 240.374 816.015 247.938 813.543L249.885 808.286C249.885 808.286 242.331 811.489 240.004 814.312C240.004 814.312 241.679 809.367 250.479 807.001L253.087 802.134C253.087 802.134 246.371 804.392 243.1 807.001C243.1 807.001 245.641 802.757 253.895 800.8L256.017 797.773C256.017 797.773 251.15 799.515 249.787 800.138C248.425 800.761 248.152 800.45 248.152 800.45C250.648 798.342 253.682 796.97 256.913 796.488C256.913 796.488 261.634 790.56 261.294 790.277Z" fill="#1EAA1E"/>
<path opacity="0.1" d="M164.805 795.933C176.59 795.933 186.143 794.965 186.143 793.772C186.143 792.578 176.59 791.611 164.805 791.611C153.021 791.611 143.467 792.578 143.467 793.772C143.467 794.965 153.021 795.933 164.805 795.933Z" fill="#1EAA1E"/>
<path d="M172.301 758.154C172.301 758.154 144.479 772.522 158.848 789.46C159.253 790.512 159.98 791.41 160.926 792.023C161.872 792.637 162.988 792.936 164.114 792.877C164.114 792.877 163.335 791.456 166.324 790.317C167.38 789.899 168.386 789.363 169.322 788.72C170.587 787.843 171.533 786.579 172.018 785.119C172.018 785.119 177.703 777.506 173.294 763.42C173.294 763.42 173.868 759.429 173.362 758.787L169.984 763.43C169.984 763.43 173.479 765.776 173.878 769.212C173.878 769.212 170.237 763.44 169.448 764.092C169.293 764.228 167.774 766.633 167.774 766.633C167.774 766.633 173.829 770.741 174.287 776.075C174.287 776.075 170.87 768.599 167.18 767.538L165.107 771.296C165.107 771.296 171.717 775.326 172.466 781.38C172.466 781.38 168.621 773.7 164.679 772.152L163.131 776.124C163.131 776.124 169.517 780.183 170.101 785.226C170.101 785.226 164.766 776.796 162.839 777.058C162.839 777.058 161.641 780.796 161.797 781.926C161.797 781.926 166.314 784.943 166.392 787.903C166.392 787.903 162.225 782.646 161.583 783.035C161.583 783.035 161.32 788.311 162.605 791.066C161.3 788.596 160.663 785.828 160.756 783.035C159.469 784.178 158.543 785.669 158.088 787.328C158.088 787.328 156.891 784.408 160.843 781.75C160.843 781.75 161.213 777.642 161.671 777.136C161.671 777.136 157.397 779.219 155.587 781.78C155.587 781.78 156.248 777.964 162.041 776.065L163.51 772.035C163.51 772.035 157.718 774.488 155.927 776.659C155.927 776.659 157.212 772.863 163.958 771.052L165.964 767.343C165.964 767.343 160.814 769.076 158.302 771.052C158.302 771.052 160.249 767.791 166.577 766.302L168.202 763.975C168.202 763.975 164.474 765.309 163.433 765.796C162.391 766.282 162.177 766.029 162.177 766.029C164.086 764.417 166.404 763.366 168.874 762.992C168.874 762.992 172.515 758.349 172.301 758.154Z" fill="#1EAA1E"/>
<path d="M829.127 768.287C829.127 768.287 807.371 779.57 818.604 792.769C818.922 793.592 819.491 794.292 820.23 794.772C820.97 795.251 821.842 795.483 822.722 795.437C822.722 795.437 822.109 794.327 824.455 793.431C825.283 793.11 826.071 792.692 826.801 792.185C827.787 791.499 828.524 790.512 828.904 789.372C828.904 789.372 833.352 783.415 829.877 772.405C829.877 772.405 830.315 769.29 829.926 768.784L827.288 772.405C827.288 772.405 830.023 774.245 830.334 776.941C830.334 776.941 827.482 772.415 826.869 772.931C826.742 773.038 825.555 774.878 825.555 774.878C825.555 774.878 830.296 778.09 830.646 782.256C830.646 782.256 827.979 776.416 825.097 775.588L823.54 778.596C823.54 778.596 828.709 781.74 829.293 786.481C829.293 786.481 826.295 780.475 823.219 779.258L822.011 782.373C822.011 782.373 826.996 785.537 827.463 789.489C827.463 789.489 823.287 782.889 821.788 783.103C821.36 784.337 821.085 785.618 820.97 786.919C820.97 786.919 824.494 789.275 824.562 791.592C824.562 791.592 821.301 787.484 820.804 787.756C820.804 787.756 820.59 791.884 821.593 794.035C820.579 792.101 820.083 789.938 820.152 787.756C819.147 788.65 818.423 789.817 818.069 791.115C818.069 791.115 817.096 788.837 820.22 786.754C820.22 786.754 820.512 783.541 820.863 783.142C820.863 783.142 817.524 784.768 816.112 786.773C816.112 786.773 816.628 783.785 821.155 782.305L822.303 779.161C822.303 779.161 817.777 781.108 816.375 782.763C816.375 782.763 817.349 779.842 822.664 778.382L824.221 775.462C822.109 776.174 820.097 777.156 818.234 778.382C818.234 778.382 819.763 775.841 824.708 774.673L825.973 772.853C825.973 772.853 823.053 773.904 822.245 774.274C821.437 774.644 821.272 774.459 821.272 774.459C822.763 773.197 824.577 772.374 826.509 772.084C826.509 772.084 829.322 768.482 829.127 768.287Z" fill="#1EAA1E"/>
<path opacity="0.1" d="M911.19 859.976C933.635 859.976 951.831 858.455 951.831 856.578C951.831 854.702 933.635 853.181 911.19 853.181C888.744 853.181 870.548 854.702 870.548 856.578C870.548 858.455 888.744 859.976 911.19 859.976Z" fill="#6C63FF"/>
<path d="M943.732 749.393C942.8 750.677 942.053 752.086 941.512 753.579C941.376 753.939 941.249 754.357 941.113 754.756C940.863 754.641 940.602 754.55 940.334 754.484C939.203 754.198 938.032 754.1 936.869 754.192C936.869 753.734 936.918 753.267 936.937 752.761C937.073 747.631 936.47 740.476 931.573 743.513C926.881 746.434 930.23 751.301 933.257 754.416C933.52 754.688 933.783 754.941 934.036 755.185C931.281 757.132 930.746 761.736 930.288 766.516C929.831 771.295 925.772 776.523 923.085 779.492L922.316 780.319C921.232 779.454 919.979 778.828 918.637 778.481C917.295 778.133 915.895 778.073 914.528 778.304C914.411 777.886 914.295 777.447 914.158 776.99C911.987 769.115 907.461 755.477 901.679 752.488C901.932 752.187 902.185 751.865 902.448 751.515C904.901 748.303 907.656 743.542 903.577 742.326C899.498 741.109 899.138 746.453 899.362 750.464C899.362 750.97 899.401 751.447 899.479 751.895C898.662 751.932 897.861 752.135 897.126 752.494C896.391 752.852 895.737 753.357 895.205 753.978L894.582 753.228C891.272 749.334 885.198 743.134 883.368 747.816C881.655 752.177 886.989 757.842 890.747 761.123L890.99 761.327C888.459 771.558 899.469 779.901 905.397 783.551L906.166 784.018C897.989 793.655 892.947 811.722 892.947 811.722L915.842 815.811C915.842 815.811 931.018 802.708 929.081 790.404H929.237C944.403 787.367 947.859 771.188 945.494 761.58L945.756 761.473C948.521 760.343 950.944 758.511 952.785 756.158C956.99 750.24 948.141 743.552 943.732 749.393Z" fill="#1EAA1E"/>
<path opacity="0.1" d="M943.732 749.393C942.8 750.677 942.053 752.086 941.512 753.579C941.376 753.939 941.249 754.357 941.113 754.756C940.863 754.641 940.602 754.55 940.334 754.484C939.203 754.198 938.032 754.1 936.869 754.192C936.869 753.734 936.918 753.267 936.937 752.761C937.073 747.631 936.47 740.476 931.573 743.513C926.881 746.434 930.23 751.301 933.257 754.416C933.52 754.688 933.783 754.941 934.036 755.185C931.281 757.132 930.746 761.736 930.288 766.516C929.831 771.295 925.772 776.523 923.085 779.492L922.316 780.319C921.232 779.454 919.979 778.828 918.637 778.481C917.295 778.133 915.895 778.073 914.528 778.304C914.411 777.886 914.295 777.447 914.158 776.99C911.987 769.115 907.461 755.477 901.679 752.488C901.932 752.187 902.185 751.865 902.448 751.515C904.901 748.303 907.656 743.542 903.577 742.326C899.498 741.109 899.138 746.453 899.362 750.464C899.362 750.97 899.401 751.447 899.479 751.895C898.662 751.932 897.861 752.135 897.126 752.494C896.391 752.852 895.737 753.357 895.205 753.978L894.582 753.228C891.272 749.334 885.198 743.134 883.368 747.816C881.655 752.177 886.989 757.842 890.747 761.123L890.99 761.327C888.459 771.558 899.469 779.901 905.397 783.551L906.166 784.018C897.989 793.655 892.947 811.722 892.947 811.722L915.842 815.811C915.842 815.811 931.018 802.708 929.081 790.404H929.237C944.403 787.367 947.859 771.188 945.494 761.58L945.756 761.473C948.521 760.343 950.944 758.511 952.785 756.158C956.99 750.24 948.141 743.552 943.732 749.393Z" fill="black"/>
<path d="M898.155 755.973L895.478 763.761C895.478 763.761 893.988 762.709 892.11 761.055C888.362 757.774 883.018 752.109 884.731 747.748C886.561 743.065 892.635 749.247 895.945 753.16C897.269 754.766 898.155 755.973 898.155 755.973Z" fill="#1EAA1E"/>
<path d="M903.811 751.496C902.994 752.565 902.124 753.592 901.202 754.572C900.968 753.206 900.809 751.828 900.725 750.444C900.501 746.434 900.92 741.109 904.94 742.306C908.96 743.504 906.283 748.283 903.811 751.496Z" fill="#1EAA1E"/>
<path d="M938.339 752.731C938.252 755.311 937.998 757.375 937.998 757.375C936.821 756.453 935.706 755.455 934.66 754.386C931.632 751.242 928.283 746.394 932.975 743.484C937.872 740.446 938.475 747.601 938.339 752.731Z" fill="#1EAA1E"/>
<path d="M954.147 756.109C952.308 758.459 949.889 760.291 947.129 761.424C946.361 761.755 945.574 762.041 944.773 762.281L941.619 757.852C941.947 756.389 942.38 754.951 942.914 753.549C943.454 752.057 944.201 750.648 945.133 749.363C949.494 743.552 958.392 750.24 954.147 756.109Z" fill="#1EAA1E"/>
<path opacity="0.1" d="M895.945 753.209C897.269 754.766 898.155 755.973 898.155 755.973L895.478 763.761C895.478 763.761 893.989 762.71 892.11 761.055C892.532 758.547 893.568 756.182 895.128 754.172C895.384 753.838 895.657 753.516 895.945 753.209Z" fill="black"/>
<path opacity="0.1" d="M903.81 751.495C902.994 752.564 902.123 753.591 901.202 754.571C900.967 753.205 900.808 751.827 900.725 750.444C901.837 750.468 902.915 750.835 903.81 751.495Z" fill="black"/>
<path d="M916.991 782.607L910.333 785.527C910.333 785.527 908.872 784.826 906.78 783.522C899.79 779.219 885.714 768.385 895.098 755.613C904.482 742.841 912.396 765.746 915.541 776.951C916.465 780.309 916.991 782.607 916.991 782.607Z" fill="#1EAA1E"/>
<path opacity="0.1" d="M934.659 754.387C935.629 753.385 936.946 752.793 938.339 752.732C938.251 755.312 937.998 757.375 937.998 757.375C936.821 756.454 935.705 755.455 934.659 754.387Z" fill="black"/>
<path opacity="0.1" d="M947.168 761.425C946.4 761.755 945.613 762.041 944.812 762.281L941.658 757.852C941.986 756.389 942.419 754.951 942.953 753.55C944.949 754.737 946.448 757.696 947.168 761.425Z" fill="black"/>
<path d="M930.619 790.356C930.249 790.434 929.87 790.502 929.49 790.551C907.179 793.948 922.131 781.907 922.131 781.907C922.131 781.907 923.104 780.982 924.506 779.463C927.193 776.543 931.242 771.296 931.709 766.487C932.41 759.254 933.218 752.47 941.755 754.455C950.293 756.441 951.724 786.122 930.619 790.356Z" fill="#1EAA1E"/>
<path d="M930.182 845.929H887.535V857.143H930.182V845.929Z" fill="#D4DFEC"/>
<path d="M936.47 809.484H880.75V848.616H936.47V809.484Z" fill="#D4DFEC"/>
<path opacity="0.1" d="M930.182 845.929H887.535V857.143H930.182V845.929Z" fill="black"/>
<path opacity="0.1" d="M936.47 809.484H880.75V848.616H936.47V809.484Z" fill="black"/>
<path d="M932.985 845.929H890.338V857.143H932.985V845.929Z" fill="#D4DFEC"/>
<path opacity="0.1" d="M915.521 776.961C916.495 780.31 916.972 782.607 916.972 782.607L910.313 785.527C910.313 785.527 908.853 784.826 906.76 783.522C909.369 780.222 912.319 777.73 915.521 776.961Z" fill="black"/>
<path opacity="0.1" d="M930.619 790.356C930.249 790.434 929.87 790.502 929.49 790.55C907.179 793.948 922.131 781.906 922.131 781.906C922.131 781.906 923.104 780.981 924.506 779.463C928.672 782.802 930.376 786.559 930.619 790.356Z" fill="black"/>
<path d="M894.31 811.693C894.31 811.693 906.809 766.915 924.331 780.728C941.853 794.541 917.205 815.772 917.205 815.772L894.31 811.693Z" fill="#1EAA1E"/>
<path opacity="0.1" d="M900.618 764.043C901.392 764.043 902.019 763.415 902.019 762.641C902.019 761.867 901.392 761.24 900.618 761.24C899.843 761.24 899.216 761.867 899.216 762.641C899.216 763.415 899.843 764.043 900.618 764.043Z" fill="black"/>
<path opacity="0.1" d="M900.501 770.585C901.275 770.585 901.903 769.957 901.903 769.183C901.903 768.409 901.275 767.781 900.501 767.781C899.727 767.781 899.099 768.409 899.099 769.183C899.099 769.957 899.727 770.585 900.501 770.585Z" fill="black"/>
<path opacity="0.1" d="M941.152 765.329C941.926 765.329 942.554 764.701 942.554 763.927C942.554 763.153 941.926 762.525 941.152 762.525C940.378 762.525 939.75 763.153 939.75 763.927C939.75 764.701 940.378 765.329 941.152 765.329Z" fill="black"/>
<path opacity="0.1" d="M908.444 798.853C909.218 798.853 909.846 798.226 909.846 797.452C909.846 796.677 909.218 796.05 908.444 796.05C907.67 796.05 907.042 796.677 907.042 797.452C907.042 798.226 907.67 798.853 908.444 798.853Z" fill="black"/>
<path opacity="0.1" d="M938.232 776.192C939.006 776.192 939.634 775.565 939.634 774.79C939.634 774.016 939.006 773.389 938.232 773.389C937.458 773.389 936.83 774.016 936.83 774.79C936.83 775.565 937.458 776.192 938.232 776.192Z" fill="black"/>
<path opacity="0.1" d="M923.747 790.677C924.521 790.677 925.149 790.049 925.149 789.275C925.149 788.501 924.521 787.874 923.747 787.874C922.973 787.874 922.345 788.501 922.345 789.275C922.345 790.049 922.973 790.677 923.747 790.677Z" fill="black"/>
<path opacity="0.1" d="M905.407 766.847C906.181 766.847 906.809 766.219 906.809 765.445C906.809 764.671 906.181 764.043 905.407 764.043C904.633 764.043 904.005 764.671 904.005 765.445C904.005 766.219 904.633 766.847 905.407 766.847Z" fill="black"/>
<path opacity="0.1" d="M937.297 769.534C938.072 769.534 938.699 768.906 938.699 768.132C938.699 767.358 938.072 766.73 937.297 766.73C936.523 766.73 935.896 767.358 935.896 768.132C935.896 768.906 936.523 769.534 937.297 769.534Z" fill="black"/>
<path opacity="0.1" d="M932.508 780.397C933.282 780.397 933.91 779.77 933.91 778.996C933.91 778.221 933.282 777.594 932.508 777.594C931.734 777.594 931.106 778.221 931.106 778.996C931.106 779.77 931.734 780.397 932.508 780.397Z" fill="black"/>
<path opacity="0.1" d="M917.79 797.802C918.564 797.802 919.191 797.175 919.191 796.401C919.191 795.626 918.564 794.999 917.79 794.999C917.015 794.999 916.388 795.626 916.388 796.401C916.388 797.175 917.015 797.802 917.79 797.802Z" fill="black"/>
<path opacity="0.1" d="M914.752 790.91C915.527 790.91 916.154 790.283 916.154 789.509C916.154 788.735 915.527 788.107 914.752 788.107C913.978 788.107 913.351 788.735 913.351 789.509C913.351 790.283 913.978 790.91 914.752 790.91Z" fill="black"/>
<path opacity="0.1" d="M907.51 775.375C908.284 775.375 908.912 774.747 908.912 773.973C908.912 773.199 908.284 772.571 907.51 772.571C906.736 772.571 906.108 773.199 906.108 773.973C906.108 774.747 906.736 775.375 907.51 775.375Z" fill="black"/>
<path opacity="0.1" d="M932.985 845.929H890.338V850.027H932.985V845.929Z" fill="black"/>
<path d="M939.283 809.484H883.563V848.616H939.283V809.484Z" fill="#D4DFEC"/>
<path opacity="0.1" d="M919.659 804.11C920.433 804.11 921.06 803.482 921.06 802.708C921.06 801.934 920.433 801.306 919.659 801.306C918.884 801.306 918.257 801.934 918.257 802.708C918.257 803.482 918.884 804.11 919.659 804.11Z" fill="black"/>
<path opacity="0.1" d="M911.247 805.862C912.022 805.862 912.649 805.234 912.649 804.46C912.649 803.686 912.022 803.059 911.247 803.059C910.473 803.059 909.846 803.686 909.846 804.46C909.846 805.234 910.473 805.862 911.247 805.862Z" fill="black"/>
<path d="M815.051 640.494C813.883 639.657 813.396 637.642 813.221 635.627C813.221 635.17 813.153 634.722 813.134 634.293C813.658 633.974 814.117 633.557 814.487 633.067C816.794 629.796 811.284 617.93 811.284 617.93C811.284 617.93 813.416 611.739 811.284 606.404C809.152 601.07 808.179 600.038 808.179 600.038C808.179 600.038 800.975 585.242 802.046 583.489C803.117 581.737 800.265 567.914 798.152 565.14C797.269 563.94 796.32 562.789 795.31 561.694C795.31 561.694 795.67 555.678 792.642 550.986C789.615 546.294 786.247 533.269 786.247 533.269C786.247 533.269 782.519 521.053 779.851 516.721C778.763 515.198 777.45 513.849 775.958 512.72C776.376 510.773 777.34 508.194 774.575 492.93C773.446 486.661 775.208 482.923 776.658 476.722C778.109 470.521 777.797 463.347 773.349 458.665C768.9 453.982 761.998 453.106 756.479 449.904C751.611 447.09 747.28 442.33 741.595 442.418C737.419 442.486 737.428 443.138 733.583 444.706C726.935 447.412 719.458 446.594 712.703 448.833C706.628 450.848 698.909 457.467 700.749 464.486C701.039 466.075 701.822 467.533 702.988 468.652C704.302 469.85 705.908 469.859 707.709 469.499C707.709 469.616 707.709 469.723 707.641 469.84C707.483 470.805 707.405 471.782 707.407 472.76C707.407 483.166 716.08 491.616 726.808 491.684C726.866 491.908 726.915 492.141 726.973 492.375C727.119 492.998 727.256 493.621 727.392 494.264C726.886 494.935 726.36 495.607 725.864 496.279C724.631 497.849 723.646 499.599 722.943 501.467C717.317 502.616 707.884 504.475 706.395 506.909C704.448 510.179 696.446 526.377 697.332 533.746C697.38 534.155 697.419 534.72 697.458 535.304C697.458 535.304 692.533 544.065 691.822 546.82C691.111 549.575 689.515 559.893 686.488 562.298C683.46 564.702 677.25 572.451 678.135 573.979C679.021 575.507 669.783 577.415 669.783 577.415C669.783 577.415 663.572 579.82 663.942 581.718C664.049 582.292 663.611 582.837 662.969 583.363C655.902 581.036 646.897 579.469 639.918 583.012C630.183 587.948 647.257 591.345 657.44 592.834C659.114 593.088 660.594 593.282 661.742 593.419C661.82 593.749 662.142 594.042 662.959 594.324C663.602 594.548 664.556 594.898 665.665 595.297L666.074 594.032C669.452 595.229 678.671 598.957 678.671 598.957C678.671 598.957 686.673 600.262 688.98 595.619C689.953 593.74 692.611 590.751 695.502 587.831L695.181 588.872L688.444 611.096C688.444 611.096 677.785 627.645 678.32 631.217C678.856 634.79 674.942 643.95 674.057 644.846C673.171 645.741 664.322 671.849 659.659 673.572C654.996 675.295 648.815 681.311 650.898 683.209C652.981 685.107 661.606 691.289 665.5 689.225C669.394 687.161 676.208 690.948 676.208 690.948C676.208 690.948 683.665 689.721 689.739 692.642C689.807 693.313 689.885 694.043 689.963 694.812C690.596 700.653 691.627 708.723 692.727 711.069C694.509 714.856 696.105 721.563 694.674 724.142C693.243 726.722 695.92 775.92 698.568 784.35C700.651 790.95 703.504 801.57 703.017 808.501C702.725 812.716 702.55 816.931 702.52 821.156C702.52 821.389 702.52 821.623 702.52 821.857C702.52 822.09 702.355 822.226 702.277 822.421V822.801C701.66 824.26 701.143 825.759 700.729 827.288C700.729 827.288 696.144 838.814 697.692 841.822C697.873 842.152 698.122 842.441 698.422 842.669C700.632 844.44 706.21 844.82 708.157 844.898L708.069 847.818H710.688C710.688 847.818 710.756 844.898 710.931 841.257C711.695 839.209 712.078 837.038 712.06 834.852C712.023 831.036 712.821 827.259 714.396 823.784C714.396 823.784 714.455 823.482 714.513 822.995C714.647 821.992 714.702 820.98 714.679 819.968C714.786 818.197 714.451 816.428 713.705 814.819C713.627 813.766 713.692 812.709 713.9 811.674C714.611 809.095 712.829 791.037 712.829 791.037L715.847 757.833C715.847 757.833 717.628 732.202 716.918 725.495C716.731 723.7 716.774 721.887 717.044 720.102C718.159 712.811 718.809 705.457 718.991 698.083C718.991 697.392 718.991 696.711 718.991 696.019C725.455 698.239 736.416 696.419 736.416 696.419C736.416 696.419 738.966 696.36 742.354 696.419C742.442 697.119 742.539 697.811 742.636 698.482C743.152 702.094 743.765 705.296 744.398 706.669C746.17 710.456 747.776 717.163 746.345 719.742C744.914 722.322 747.581 771.52 750.239 779.95C752.332 786.55 755.184 797.16 754.697 804.101C754.405 808.306 754.23 812.521 754.201 816.756V817.534C754.113 817.719 754.026 817.904 753.948 818.099C753.87 818.294 753.948 818.362 753.948 818.479C753.358 819.947 752.867 821.452 752.478 822.986C752.478 822.986 747.883 834.521 749.441 837.529C749.62 837.858 749.869 838.144 750.171 838.366C752.381 840.148 757.958 840.517 759.905 840.595L759.818 843.516H762.436C762.436 843.516 762.504 840.595 762.68 836.955C763.444 834.906 763.826 832.735 763.809 830.549C763.763 826.737 764.547 822.96 766.106 819.481C766.32 818.228 766.414 816.956 766.388 815.685C766.488 813.9 766.136 812.119 765.366 810.506C765.293 809.457 765.359 808.403 765.561 807.372C766.272 804.792 764.5 786.725 764.5 786.725L767.518 753.531C767.518 753.531 769.299 727.9 768.579 721.193C768.4 719.396 768.446 717.585 768.715 715.8C769.786 708.872 770.436 701.887 770.662 694.881C770.662 694.18 770.662 693.488 770.662 692.788C771.304 691.999 772.609 691.376 776.211 690.169C782.431 688.105 794.872 677.777 799.846 677.096C804.82 676.414 809.259 673.134 807.838 670.554C806.417 667.975 798.6 666.252 799.311 662.299C800.021 658.347 794.512 655.933 792.029 649.401C789.547 642.869 778.693 637.72 778.518 632.853C778.342 627.986 768.277 613.111 768.277 613.111C768.277 613.111 758.163 596.29 755.924 586.011C755.924 585.777 755.836 585.563 755.797 585.349H755.924C755.751 584.579 755.628 583.798 755.554 583.012C755.554 582.789 755.603 582.555 755.642 582.35H755.505V581.981C755.505 581.981 755.505 581.981 755.505 581.912C755.573 581.861 755.645 581.816 755.719 581.776L756.304 581.435L756.109 581.513C757.274 580.756 758.355 579.875 759.331 578.885C760.941 577.459 762.208 575.689 763.04 573.706C763.823 571.509 764.311 569.218 764.49 566.892L765.756 564.945C766.982 570.075 768.773 577.435 769.338 579.08C772.025 586.028 774.167 593.175 775.743 600.457C777.322 607.517 779.947 614.303 783.531 620.587C783.531 620.587 792.594 632.454 799.525 632.97C806.456 633.485 802.552 635.374 803.613 635.724L803.915 635.792L804.022 637.185L804.324 641.224C804.324 641.224 811.43 670.126 819.432 665.998C827.434 661.871 817.699 642.383 815.051 640.494Z" fill="url(#paint0_linear)"/>
<path d="M815.986 666.125C808.296 670.233 801.462 641.536 801.462 641.536L801.17 637.515L800.615 629.913L810.009 631.11C809.867 632.752 809.867 634.403 810.009 636.045C810.175 637.992 810.652 640.027 811.771 640.844C814.273 642.733 823.667 662.027 815.986 666.125Z" fill="#FFC0C6"/>
<path d="M700.116 833.693L700.768 833.197C700.571 833.387 700.352 833.554 700.116 833.693Z" fill="#A1616A"/>
<path d="M719.478 676.035V695.64C719.478 696.49 719.478 697.337 719.478 698.181C719.277 705.505 718.627 712.809 717.531 720.054C717.27 721.823 717.228 723.618 717.404 725.398C718.086 732.066 716.431 757.522 716.431 757.522L713.511 790.492C713.511 790.492 715.214 808.423 714.484 810.934C714.291 811.964 714.229 813.014 714.299 814.059C714.396 816.979 714.903 820.727 715.068 821.847V822.187L714.961 822.265L700.68 833.158C702.958 831.085 703.542 826.256 703.533 821.779C703.533 821.292 703.533 820.805 703.533 820.318C703.533 816.133 703.695 811.947 704.019 807.761C704.487 800.879 701.741 790.336 699.736 783.775C697.176 775.413 694.606 726.556 695.979 723.996C697.351 721.436 695.803 714.768 694.1 711.01C693.097 708.723 692.124 700.721 691.54 694.881C691.17 691.337 690.946 688.65 690.946 688.65L719.478 676.035Z" fill="#FFC0C6"/>
<path d="M749.811 829.313L750.511 828.787C750.297 828.987 750.062 829.163 749.811 829.313Z" fill="#A1616A"/>
<path d="M769.172 671.654V691.259C769.172 692.466 769.172 693.683 769.172 694.89C768.951 701.848 768.323 708.787 767.294 715.673C767.033 717.442 766.99 719.237 767.167 721.017C767.849 727.685 766.194 753.14 766.194 753.14L763.273 786.111C763.273 786.111 764.987 804.042 764.305 806.553C764.107 807.579 764.045 808.626 764.12 809.668C764.218 812.589 764.733 816.395 764.889 817.456C764.889 817.67 764.938 817.777 764.938 817.777L764.831 817.855L750.531 828.748C752.741 826.626 753.315 821.856 753.305 817.436C753.305 816.95 753.305 816.463 753.305 815.967C753.305 811.781 753.5 807.595 753.782 803.409C754.24 796.527 751.504 785.994 749.499 779.433C746.929 771.071 744.369 722.214 745.741 719.654C747.114 717.094 745.566 710.426 743.863 706.668C743.249 705.344 742.665 702.122 742.159 698.54C741.254 692.037 740.611 684.299 740.611 684.299L769.172 671.654Z" fill="#FFC0C6"/>
<path opacity="0.1" d="M742.5 485.756L742.354 485.979C740.849 488.11 738.915 489.903 736.678 491.244C734.44 492.585 731.947 493.444 729.358 493.767C728.6 493.873 727.836 493.925 727.071 493.923C727.012 493.689 726.964 493.455 726.905 493.232C725.786 488.364 724.598 484.471 724.598 484.471C724.598 484.471 725.873 482.631 727.733 480.285C732.785 473.899 742.091 463.804 741.361 477.296C741.204 480.029 741.534 482.768 742.334 485.386C742.403 485.454 742.441 485.59 742.5 485.756Z" fill="black"/>
<path d="M745.839 474.395C745.84 478.978 744.165 483.403 741.129 486.837C738.094 490.271 733.907 492.476 729.358 493.036C728.59 493.134 727.816 493.183 727.042 493.182H726.905C723.196 493.153 719.578 492.027 716.508 489.945C713.437 487.863 711.052 484.919 709.652 481.484C708.253 478.048 707.901 474.276 708.643 470.641C709.384 467.006 711.185 463.672 713.818 461.059C716.451 458.446 719.799 456.672 723.439 455.958C727.08 455.245 730.85 455.626 734.274 457.052C737.699 458.478 740.624 460.886 742.683 463.972C744.741 467.059 745.839 470.685 745.839 474.395Z" fill="#FFC0C6"/>
<path d="M764.062 529.142L745.839 544.717C745.839 544.717 725.971 516.37 728.317 510.559C729.067 508.738 728.979 505.506 728.502 501.905C728.239 499.958 727.86 497.806 727.431 495.782C727.305 495.149 727.168 494.526 727.032 493.913C726.974 493.679 726.925 493.445 726.867 493.222C725.747 488.354 724.56 484.461 724.56 484.461C724.56 484.461 725.835 482.621 727.694 480.275C732.746 473.889 742.052 463.794 741.322 477.286C741.166 480.019 741.495 482.758 742.296 485.376C742.296 485.531 742.383 485.687 742.442 485.833C745.031 493.796 751.339 500.152 756.187 504.095C758.172 505.728 760.27 507.217 762.466 508.553L764.062 529.142Z" fill="#A1616A"/>
<path opacity="0.1" d="M690.946 688.679L719.478 676.024V695.629C719.478 696.479 719.478 697.326 719.478 698.17C718.833 697.946 718.213 697.656 717.628 697.304C711.992 693.819 704.973 696.525 704.477 696.525C703.98 696.525 698.325 698.92 692.348 695.328C692.085 695.172 691.822 695.026 691.569 694.899C691.15 691.366 690.946 688.679 690.946 688.679Z" fill="black"/>
<path opacity="0.1" d="M769.173 671.654V691.259C769.173 692.466 769.173 693.683 769.173 694.89C768.768 695.568 768.441 696.289 768.199 697.041C767.167 699.436 760.168 700.292 754.016 699.28C750.108 698.769 746.169 698.522 742.227 698.54C741.322 692.037 740.68 684.299 740.68 684.299L769.173 671.654Z" fill="black"/>
<path d="M797.198 677.232C792.409 677.913 780.455 688.163 774.478 690.217C768.501 692.271 769.182 692.602 768.16 694.997C767.138 697.392 760.129 698.239 753.977 697.226C747.825 696.214 736.211 696.535 736.211 696.535C736.211 696.535 723.274 698.774 717.599 695.26C711.924 691.746 704.944 694.481 704.448 694.481C703.951 694.481 698.295 696.876 692.318 693.284C686.341 689.692 678.31 691.064 678.31 691.064C678.31 691.064 671.817 687.307 668.06 689.361C664.302 691.415 656.106 685.263 654.052 683.384C651.998 681.505 657.946 675.528 662.424 673.815C666.901 672.102 675.409 646.14 676.256 645.293C677.103 644.446 680.871 635.383 680.355 631.801C679.839 628.219 690.089 611.806 690.089 611.806L696.572 589.748L698.519 582.934L698.597 578.875C698.597 577.045 698.685 574.699 698.733 572.061C698.909 561.158 699.094 544.989 698.733 537.679C698.675 536.55 698.617 535.634 698.539 534.973C697.682 527.633 705.353 511.61 707.251 508.329C708.653 505.906 717.725 504.066 723.128 502.927C724.416 502.694 725.69 502.388 726.944 502.012C727.434 501.888 727.94 501.849 728.443 501.895C733.544 502.099 748.584 505.253 748.584 505.253C747.221 546.42 749.956 539.246 749.956 539.246C754.395 535.829 751.66 505.594 751.66 505.594C753.879 506.616 756.148 504.046 756.148 504.046L764.811 507.638C767.449 509.223 770 510.948 772.453 512.807C774.509 514.256 776.315 516.032 777.797 518.064C780.357 522.337 783.949 534.466 783.949 534.466L780.873 539.334C778.187 543.646 774.059 550.275 769.825 556.992L762.31 568.956C758.951 574.29 756.216 578.622 755.077 580.384C754.82 580.807 754.639 581.271 754.541 581.756C754.477 582.077 754.435 582.403 754.415 582.73C754.367 584.091 754.501 585.453 754.814 586.779C756.965 596.981 766.69 613.695 766.69 613.695C766.69 613.695 776.425 628.55 776.6 633.329C776.775 638.109 787.191 643.239 789.586 649.732C791.98 656.225 797.266 658.61 796.585 662.542C795.903 666.475 803.399 668.179 804.781 670.739C806.164 673.299 801.978 676.55 797.198 677.232Z" fill="#F15317"/>
<path opacity="0.1" d="M809.99 636.045C807.352 637.827 802.708 637.759 801.17 637.515L800.615 629.913L810.009 631.11C809.861 632.751 809.854 634.403 809.99 636.045Z" fill="black"/>
<path d="M777.038 529.482L784.047 534.437C784.047 534.437 787.288 547.413 790.189 552.027C793.09 556.642 792.749 562.618 792.749 562.618C793.728 563.702 794.641 564.843 795.485 566.035C797.539 568.771 800.264 582.486 799.242 584.258C798.22 586.03 805.141 600.709 805.141 600.709C805.141 600.709 806.115 601.683 808.13 607.027C810.145 612.371 808.13 618.475 808.13 618.475C808.13 618.475 813.426 630.263 811.206 633.505C808.987 636.746 801.803 636.425 800.78 636.065C799.758 635.705 803.516 633.845 796.887 633.329C790.257 632.814 781.506 621.035 781.506 621.035C778.041 614.775 775.509 608.042 773.991 601.05C772.476 593.846 770.423 586.765 767.849 579.868C766.992 577.308 763.234 560.74 763.234 560.74L777.038 529.482Z" fill="#F15317"/>
<path opacity="0.1" d="M724.598 529.482C724.598 529.482 724.082 569.111 719.303 576.967L724.598 529.482Z" fill="black"/>
<path opacity="0.1" d="M752.273 543.49C752.273 543.49 747.834 583.119 744.33 585.163C740.826 587.208 752.273 543.49 752.273 543.49Z" fill="black"/>
<path opacity="0.1" d="M745.839 537.854C745.839 537.854 744.758 575.224 739.122 578.914C733.486 582.603 745.839 537.854 745.839 537.854Z" fill="black"/>
<path opacity="0.1" d="M696.757 608.565C696.757 608.565 689.69 629.232 690.488 637.769C691.286 646.306 696.757 608.565 696.757 608.565Z" fill="black"/>
<path opacity="0.1" d="M754.911 588.142C745.664 590.216 720.646 593.934 698.646 580.248C698.646 578.418 698.734 576.072 698.782 573.434C707.134 578.028 730.595 589.982 742.539 586.633C748.496 584.93 752.273 583.849 754.639 583.149C754.402 584.815 754.495 586.512 754.911 588.142Z" fill="black"/>
<path opacity="0.1" d="M754.911 586.098C745.664 588.162 720.646 591.88 698.646 578.203C698.646 576.373 698.734 574.017 698.782 571.389C707.134 575.984 730.595 587.938 742.539 584.589C748.496 582.895 752.273 581.805 754.639 581.114C754.404 582.777 754.496 584.47 754.911 586.098Z" fill="black"/>
<path d="M754.911 586.828C745.664 588.892 720.646 592.61 698.646 578.933C698.646 577.103 698.734 574.757 698.782 572.119C707.134 576.714 730.595 588.668 742.539 585.319C748.496 583.625 752.273 582.535 754.639 581.844C754.404 583.507 754.496 585.2 754.911 586.828Z" fill="#605D82"/>
<path opacity="0.1" d="M754.911 586.828C745.664 588.892 720.646 592.61 698.646 578.933C698.646 577.103 698.734 574.757 698.782 572.119C707.134 576.714 730.595 588.668 742.539 585.319C748.496 583.625 752.273 582.535 754.639 581.844C754.404 583.507 754.496 585.2 754.911 586.828Z" fill="black"/>
<path opacity="0.1" d="M715.107 821.885C715.107 822.109 715.058 822.255 715.049 822.304L700.768 833.196C703.046 831.123 703.63 826.295 703.62 821.817C703.62 821.33 703.62 820.843 703.62 820.357C704.877 817.262 706.663 814.41 708.896 811.927C711.33 811.294 712.858 811.927 713.764 813.027C713.764 813.134 713.764 813.241 713.764 813.338C713.958 813.573 714.127 813.828 714.27 814.097C715.701 816.56 715.292 820.58 715.107 821.885Z" fill="black"/>
<path opacity="0.1" d="M713.997 816.356L703.221 823.755C703.221 823.755 703.289 822.888 703.387 821.613C704.67 818.304 706.54 815.254 708.906 812.609C711.34 811.986 712.868 812.609 713.773 813.709C713.861 815.305 713.997 816.356 713.997 816.356Z" fill="black"/>
<path d="M715.039 823.005C713.526 826.473 712.763 830.221 712.8 834.005C712.864 837.115 712.073 840.182 710.512 842.873C710.294 843.254 710.043 843.616 709.763 843.953C709.763 843.953 702.277 843.895 699.658 841.724C699.361 841.504 699.115 841.221 698.938 840.897C697.439 837.908 701.858 826.461 701.858 826.461C704.175 817.631 708.886 812.92 708.886 812.92C717.287 810.72 715.039 823.005 715.039 823.005Z" fill="#5A5773"/>
<path opacity="0.1" d="M710.512 842.844C710.294 843.225 710.043 843.586 709.763 843.924C709.763 843.924 702.277 843.866 699.658 841.695C700.943 837.431 705.061 824.533 706.979 826.724C708.896 828.914 710.055 838.726 710.512 842.844Z" fill="black"/>
<path d="M709.48 827.551L708.964 846.883H711.476C711.476 846.883 711.875 829.926 713.004 827.551C714.134 825.176 709.48 827.551 709.48 827.551Z" fill="#5A5773"/>
<path opacity="0.1" d="M764.802 817.534L764.744 817.933L750.531 828.748C752.741 826.626 753.315 821.856 753.306 817.436C753.306 816.95 753.306 816.463 753.306 815.966C754.56 812.876 756.342 810.027 758.572 807.546C761.006 806.913 762.544 807.546 763.488 808.636C763.488 808.753 763.488 808.851 763.488 808.958C763.684 809.188 763.854 809.439 763.994 809.707C765.406 812.209 764.987 816.239 764.802 817.534Z" fill="black"/>
<path opacity="0.1" d="M763.692 811.966L752.916 819.374C752.916 819.374 752.984 818.507 753.091 817.232C754.366 813.921 756.233 810.87 758.601 808.228C761.035 807.605 762.563 808.179 763.517 809.328C763.556 810.924 763.692 811.966 763.692 811.966Z" fill="black"/>
<path d="M764.744 818.625C763.223 822.091 762.457 825.84 762.495 829.625C762.559 832.734 761.768 835.802 760.207 838.493C759.986 838.872 759.735 839.233 759.458 839.573C759.458 839.573 751.972 839.515 749.353 837.344C749.065 837.116 748.826 836.831 748.652 836.507C747.163 833.518 751.573 822.071 751.573 822.071C753.89 813.241 758.601 808.53 758.601 808.53C766.983 806.359 764.744 818.625 764.744 818.625Z" fill="#5A5773"/>
<path opacity="0.1" d="M760.207 838.492C759.986 838.871 759.735 839.233 759.457 839.573C759.457 839.573 751.972 839.514 749.353 837.344C750.638 833.08 754.756 820.172 756.673 822.362C758.591 824.553 759.749 834.345 760.207 838.492Z" fill="black"/>
<path d="M759.185 823.17L758.659 842.493H761.171C761.171 842.493 761.57 825.546 762.699 823.17C763.828 820.795 759.185 823.17 759.185 823.17Z" fill="#5A5773"/>
<path opacity="0.1" d="M781.564 544.688C781.448 549.555 778.79 554.744 774.127 556.194C772.764 556.613 771.314 556.71 769.922 556.992C769.253 557.116 768.599 557.315 767.975 557.586C764.987 558.959 763.497 562.366 762.894 565.598C762.68 566.707 762.543 567.827 762.407 568.956C762.246 571.105 761.797 573.224 761.073 575.254C759.739 578.382 757.441 581.001 754.512 582.73C751.112 584.751 747.446 586.285 743.619 587.286C745.552 584.309 746.814 580.948 747.318 577.435C747.822 573.922 747.557 570.341 746.54 566.941C745.917 564.945 744.593 562.716 742.48 562.775C740.835 562.823 739.657 564.283 738.431 565.393C732.395 570.825 722.953 568.401 715.311 565.666C728.94 551.814 732.726 529.317 724.51 511.747C723.764 510.376 723.201 508.913 722.836 507.395C722.594 505.885 722.738 504.338 723.255 502.898C723.918 501.055 724.85 499.32 726.019 497.748C726.496 497.077 726.993 496.415 727.499 495.743C728.151 494.857 728.803 493.962 729.387 493.037C730.253 491.742 730.91 490.32 731.334 488.822C732.201 485.512 730.984 481.326 727.781 480.197L727.606 480.129C724.063 479.019 722.963 478.688 720.549 475.846C718.933 473.958 718.018 470.979 715.253 470.424C713.131 469.986 710.756 470.93 708.526 471.504C708.96 468.7 710.023 466.03 711.636 463.695C713.249 461.36 715.37 459.42 717.839 458.022C720.308 456.623 723.063 455.802 725.895 455.619C728.727 455.437 731.563 455.898 734.192 456.968C736.82 458.038 739.172 459.69 741.071 461.799C742.97 463.908 744.367 466.419 745.157 469.145C745.947 471.871 746.11 474.74 745.633 477.538C745.156 480.335 744.051 482.988 742.403 485.298C744.895 493.475 751.348 499.997 756.294 504.017L764.957 507.609C767.596 509.194 770.146 510.92 772.599 512.778C773.937 518.856 775.78 524.812 778.109 530.583C779.296 533.427 780.272 536.356 781.029 539.344C781.43 541.096 781.609 542.891 781.564 544.688Z" fill="black"/>
<path d="M728.239 479.448C731.568 480.489 732.853 484.772 731.967 488.14C731.082 491.509 728.697 494.234 726.682 497.067C724.666 499.9 722.875 503.287 723.489 506.714C723.853 508.231 724.416 509.694 725.163 511.065C733.379 528.636 729.543 551.122 715.964 564.984C723.605 567.719 733.058 570.143 739.083 564.712C740.31 563.602 741.488 562.142 743.133 562.093C745.226 562.025 746.579 564.264 747.192 566.259C748.209 569.658 748.474 573.237 747.97 576.748C747.466 580.26 746.204 583.619 744.272 586.594C751.31 584.55 759.039 581.387 761.736 574.572C762.943 571.526 762.943 568.138 763.546 564.906C764.15 561.674 765.639 558.277 768.628 556.904C770.574 556.028 772.765 556.135 774.78 555.512C779.443 554.062 782.1 548.883 782.217 544.006C782.334 539.129 780.465 534.447 778.713 529.901C768.978 504.592 778.128 524.868 772.794 494.409C771.704 488.189 773.407 484.471 774.799 478.318C776.191 472.166 775.889 465.041 771.616 460.388C767.343 455.734 760.704 454.868 755.398 451.714C750.697 448.911 746.559 444.189 741.089 444.277C737.078 444.335 737.088 444.988 733.389 446.545C726.993 449.232 719.819 448.424 713.316 450.643C707.475 452.649 700.058 459.21 701.829 466.219C704.214 475.651 710.756 468.711 715.857 469.772C718.621 470.356 719.536 473.295 721.152 475.194C723.605 477.997 724.696 478.338 728.239 479.448Z" fill="#4A4347"/>
<path d="M666.814 594.508C666.814 594.508 664.049 594.216 660.331 593.642C650.596 592.162 634.135 588.775 643.5 583.907C652.095 579.41 663.942 583.226 670.873 586.283C672.845 587.153 674.768 588.128 676.636 589.203L666.814 594.508Z" fill="#FFC0C6"/>
<path opacity="0.1" d="M718.621 535.118C718.621 535.118 714.182 557.507 711.963 562.443C709.744 567.378 706.122 580.383 706.122 580.383C706.122 580.383 700.875 585.134 696.543 589.748L698.49 582.934L698.568 578.875C698.568 577.044 698.656 574.698 698.705 572.06C698.88 561.158 699.065 544.989 698.705 537.678C699.084 536.968 699.328 536.53 699.328 536.53L702.783 531.049C702.783 531.049 708.42 516.019 711.661 511.746C714.903 507.472 718.621 535.118 718.621 535.118Z" fill="black"/>
<path opacity="0.1" d="M669.53 591.539C669.53 591.539 669.033 593.486 668.196 596.114C667.135 595.686 666.249 595.345 665.597 595.141C662.677 594.167 666.113 592.921 665.256 590.361C664.526 588.161 663.173 588.852 661.616 588.239C662.635 586.853 663.737 585.53 664.916 584.277L669.53 591.539Z" fill="black"/>
<path d="M702.219 531.021L698.763 536.501C698.763 536.501 694.071 545.194 693.341 547.891C692.611 550.587 691.15 560.905 688.23 563.3C685.31 565.695 679.342 573.375 680.199 574.913C681.056 576.451 672.168 578.33 672.168 578.33C672.168 578.33 666.191 580.725 666.532 582.603C666.873 584.482 661.577 586.02 663.456 587.383C665.334 588.746 667.048 587.383 667.904 589.943C668.761 592.503 665.334 593.71 668.245 594.733C671.156 595.755 680.715 599.756 680.715 599.756C680.715 599.756 688.396 601.05 690.615 596.436C692.834 591.822 705.48 580.384 705.48 580.384C705.48 580.384 709.062 567.398 711.32 562.443C713.579 557.489 717.988 535.119 717.988 535.119C717.988 535.119 714.396 507.444 711.174 511.756C707.952 516.069 702.219 531.021 702.219 531.021Z" fill="#F15317"/>
<path opacity="0.1" d="M692.484 575.088C692.484 575.088 675.575 577.308 684.628 581.065C693.681 584.823 696.757 581.065 696.757 581.065L692.484 575.088Z" fill="black"/>
<path opacity="0.1" d="M671.477 585.164C671.477 585.164 681.387 583.119 683.947 585.164C686.507 587.208 671.477 585.164 671.477 585.164Z" fill="black"/>
<path opacity="0.1" d="M670.455 590.293C670.455 590.293 671.136 588.58 674.553 590.293C677.97 592.007 670.455 590.293 670.455 590.293Z" fill="black"/>
<path opacity="0.1" d="M782.246 606.609C782.246 606.609 783.278 622.184 787.474 622.69C791.669 623.196 782.246 606.609 782.246 606.609Z" fill="black"/>
<path opacity="0.1" d="M791.221 571.35C791.221 571.35 791.932 576.11 787.473 576.967C783.015 577.823 791.221 571.35 791.221 571.35Z" fill="black"/>
<path opacity="0.1" d="M740.65 617.677C740.65 617.677 740.426 665.736 750.219 671.654L740.65 617.677Z" fill="black"/>
<path opacity="0.1" d="M753.626 619.73C753.626 619.73 753.451 667.779 763.186 673.708L753.626 619.73Z" fill="black"/>
<path opacity="0.1" d="M701.586 723.782C703.804 723.575 706.036 723.575 708.254 723.782C711.963 724.083 701.586 723.782 701.586 723.782Z" fill="black"/>
<path opacity="0.1" d="M701.586 727.14C703.804 726.934 706.036 726.934 708.254 727.14C711.963 727.481 701.586 727.14 701.586 727.14Z" fill="black"/>
<path opacity="0.1" d="M752.254 719.839C754.472 719.633 756.704 719.633 758.922 719.839C762.631 720.19 752.254 719.839 752.254 719.839Z" fill="black"/>
<path opacity="0.1" d="M753.393 722.525C755.611 722.319 757.843 722.319 760.061 722.525C763.76 722.866 753.393 722.525 753.393 722.525Z" fill="black"/>
<g opacity="0.1">
<path opacity="0.1" d="M719.556 563.3C733.184 549.448 736.971 526.962 728.755 509.381C728.008 508.01 727.445 506.547 727.08 505.03C726.467 501.603 728.249 498.216 730.273 495.383C732.298 492.55 734.683 489.825 735.559 486.457C736.435 483.088 735.16 478.805 731.831 477.773C728.288 476.664 727.188 476.323 724.773 473.481C723.157 471.592 722.242 468.613 719.478 468.068C714.377 467.007 707.796 473.909 705.45 464.505C704.107 459.229 708.03 454.187 712.557 451.179C706.901 453.525 700.359 459.755 702.034 466.345C704.419 475.778 710.96 468.847 716.061 469.908C718.826 470.482 719.741 473.432 721.357 475.32C723.781 478.163 724.871 478.504 728.414 479.613C731.743 480.645 733.028 484.928 732.142 488.296C731.257 491.664 728.872 494.39 726.857 497.223C724.842 500.056 723.05 503.443 723.664 506.879C724.03 508.393 724.593 509.853 725.338 511.221C733.554 528.801 729.719 551.288 716.139 565.14C723.498 567.778 732.522 570.114 738.528 565.442C732.834 567.447 725.63 565.471 719.556 563.3Z" fill="black"/>
<path opacity="0.1" d="M772.249 555.23C771.525 555.559 770.866 556.014 770.302 556.573C771.84 556.194 773.465 556.145 774.974 555.668C776.144 555.306 777.225 554.702 778.148 553.896C776.211 554.441 774.088 554.383 772.249 555.23Z" fill="black"/>
<path opacity="0.1" d="M755.291 582.244C752.893 583.315 750.421 584.21 747.893 584.921C749.825 581.945 751.087 578.586 751.591 575.074C752.095 571.563 751.83 567.984 750.813 564.585C750.2 562.639 748.866 560.351 746.754 560.409C745.485 560.605 744.333 561.264 743.522 562.259C745.469 562.327 746.802 564.488 747.416 566.425C748.433 569.824 748.698 573.403 748.194 576.914C747.689 580.426 746.428 583.785 744.495 586.76C748.284 585.757 751.916 584.237 755.291 582.244Z" fill="black"/>
</g>
<path d="M419.94 382.415H413.285L409.612 372.891H392.849L389.397 382.415H383.017L380.863 379.517L396.08 340.977H406.381L422.012 379.517L419.94 382.415ZM406.905 364.83L401.134 350.253L395.472 364.83H406.905Z" fill="#1EAA1E"/>
<path fill-rule="evenodd" clip-rule="evenodd" d="M401.437 329.382C417.51 329.382 430.517 342.413 430.517 358.452C430.517 365.547 427.976 372.063 423.723 377.115L419.995 367.839C421.431 365.023 422.232 361.848 422.232 358.452C422.232 346.968 412.925 337.637 401.409 337.637C389.921 337.637 380.587 346.94 380.587 358.452C380.587 361.683 381.332 364.747 382.63 367.452L378.93 376.922C374.787 371.897 372.302 365.465 372.302 358.425C372.357 342.385 385.364 329.382 401.437 329.382Z" fill="#FF6300"/>
<path d="M347.337 421.949H342.173L341.427 415.019H337.423L336.539 421.949H332.01L335.876 394.121H343.443L347.337 421.949ZM339.549 397.958L337.92 411.375H341.013L339.549 397.958ZM349.518 411.624H354.545V417.835C354.545 418.305 354.655 418.636 354.904 418.746C355.152 418.884 355.566 418.94 356.174 418.94C356.782 418.94 357.196 418.884 357.417 418.746C357.638 418.608 357.748 418.305 357.748 417.835V414.523C357.748 413.722 357.582 413.059 357.223 412.507C356.975 412.121 356.643 411.679 356.174 411.182C356.036 411.016 354.959 409.94 352.998 408.007C351.617 406.627 350.678 405.55 350.181 404.75C349.739 404.06 349.518 403.01 349.518 401.63V398.124C349.518 396.357 350.126 395.198 351.314 394.59C352.225 394.121 353.827 393.9 356.146 393.9C359.902 393.9 362.029 394.673 362.526 396.247C362.691 396.771 362.802 397.461 362.802 398.262V403.894H357.748V398.262C357.748 397.793 357.638 397.461 357.417 397.351C357.196 397.213 356.782 397.158 356.174 397.158C355.566 397.158 355.125 397.213 354.904 397.351C354.655 397.489 354.545 397.793 354.545 398.262V401.464C354.545 402.127 354.738 402.707 355.125 403.259C355.29 403.535 355.649 403.921 356.174 404.501C357.223 405.55 358.273 406.627 359.295 407.676C360.703 409.084 361.642 410.188 362.084 410.934C362.581 411.762 362.829 412.839 362.829 414.191V417.973C362.829 419.74 362.222 420.9 361.034 421.507C360.123 421.976 358.521 422.197 356.202 422.197C352.446 422.197 350.319 421.424 349.822 419.851C349.657 419.326 349.546 418.636 349.546 417.835V411.624H349.518ZM370.783 421.949H365.674V394.121H370.783V421.949ZM387.739 421.949H382.575L381.829 415.019H377.825L376.941 421.949H372.412L376.279 394.121H383.845L387.739 421.949ZM379.952 397.958L378.322 411.375H381.415L379.952 397.958Z" fill="#1EAA1E"/>
<path d="M390.004 398.262C390.004 396.468 390.611 395.28 391.799 394.646C392.738 394.149 394.367 393.9 396.687 393.9C400.415 393.9 402.569 394.673 403.122 396.247C403.287 396.744 403.398 397.434 403.398 398.262V417.835C403.398 418.691 403.315 419.354 403.122 419.851C402.569 421.424 400.415 422.197 396.687 422.197C394.367 422.197 392.738 421.949 391.799 421.452C390.584 420.817 390.004 419.63 390.004 417.835V398.262ZM398.289 417.835V398.262C398.289 397.793 398.178 397.461 397.957 397.351C397.736 397.213 397.322 397.158 396.715 397.158C396.107 397.158 395.665 397.213 395.444 397.351C395.196 397.489 395.085 397.793 395.085 398.262V417.835C395.085 418.305 395.196 418.636 395.444 418.746C395.693 418.884 396.107 418.94 396.715 418.94C397.322 418.94 397.736 418.884 397.957 418.746C398.178 418.636 398.289 418.332 398.289 417.835ZM411.324 397.71V408.477H412.87C413.616 408.477 414.058 408.256 414.223 407.814C414.306 407.621 414.361 407.152 414.361 406.379V399.836C414.361 399.063 414.306 398.593 414.223 398.4C414.058 397.931 413.588 397.71 412.87 397.71H411.324ZM411.324 421.949H406.27V394.121H414.389C415.494 394.121 416.377 394.204 417.04 394.342C418.172 394.59 418.918 395.308 419.25 396.523C419.415 397.103 419.526 398.124 419.526 399.56V406.655C419.526 408.532 419.305 409.829 418.835 410.575C418.393 411.32 417.537 411.762 416.295 411.928C415.659 412.01 414.002 412.066 411.351 412.066V421.949H411.324ZM430.13 421.949H425.077V397.71H421.21V394.121H434.024V397.71H430.158V421.949H430.13ZM436.04 398.262C436.04 396.468 436.648 395.28 437.835 394.646C438.774 394.149 440.404 393.9 442.723 393.9C446.452 393.9 448.606 394.673 449.158 396.247C449.324 396.744 449.434 397.434 449.434 398.262V417.835C449.434 418.691 449.351 419.354 449.158 419.851C448.606 421.424 446.452 422.197 442.723 422.197C440.404 422.197 438.774 421.949 437.835 421.452C436.62 420.817 436.04 419.63 436.04 417.835V398.262ZM444.325 417.835V398.262C444.325 397.793 444.215 397.461 443.994 397.351C443.773 397.213 443.359 397.158 442.751 397.158C442.143 397.158 441.702 397.213 441.481 397.351C441.232 397.489 441.122 397.793 441.122 398.262V417.835C441.122 418.305 441.232 418.636 441.481 418.746C441.729 418.884 442.143 418.94 442.751 418.94C443.359 418.94 443.773 418.884 443.994 418.746C444.215 418.636 444.325 418.332 444.325 417.835ZM464.319 394.121H471.803V421.949H467.385V399.642H467.247L464.209 421.949H459.873L456.752 399.642V421.949H452.251V394.121H459.818L462.386 413.915L464.319 394.121Z" fill="#FF6300"/>
<defs>
<linearGradient id="paint0_linear" x1="729.806" y1="847.974" x2="729.806" y2="442.525" gradientUnits="userSpaceOnUse">
<stop stop-color="#808080" stop-opacity="0.25"/>
<stop offset="0.54" stop-color="#808080" stop-opacity="0.12"/>
<stop offset="1" stop-color="#808080" stop-opacity="0.1"/>
</linearGradient>
</defs>
</svg>
