<svg width="854" height="604" viewBox="0 0 854 604" fill="none" xmlns="http://www.w3.org/2000/svg">
<path d="M700.675 114.855C624.376 8.62853 424.679 -19.8705 266.166 26.5383C182.364 51.0733 103.497 120.198 63.4547 215.387C-8.12557 385.546 142.166 439.891 240.441 457.211C287.961 465.587 332.717 479.655 373.616 498.809C447.196 533.27 577.437 563.805 675.648 420.262C746.831 316.222 751.498 185.612 700.675 114.855Z" fill="#F6F6F6"/>
<path opacity="0.9" d="M221.733 170.426C221.52 168.738 221.088 167.084 220.449 165.507C220.368 165.209 220.225 164.931 220.03 164.691C219.836 164.451 219.593 164.254 219.318 164.113C218.95 164.018 218.565 164.013 218.195 164.101L212.432 164.983C211.95 165.005 211.488 165.185 211.117 165.494C210.367 166.284 211.106 167.556 211.083 168.646C211.057 169.871 209.969 170.865 208.789 171.194C207.584 171.438 206.342 171.422 205.144 171.149L197.085 169.896C199.458 169.138 201.571 167.728 203.181 165.826C204.242 164.569 204.806 162.222 203.274 161.627C202.818 161.502 202.343 161.464 201.874 161.514C198.223 161.543 195.349 158.493 191.931 157.208C189.743 156.439 187.369 156.382 185.147 157.045C182.924 157.708 180.969 159.056 179.559 160.898L183.852 161.105C184.256 161.083 184.656 161.19 184.995 161.411C185.936 162.184 184.767 163.669 184.899 164.881C185.071 166.454 187.159 166.79 188.733 166.949C190.307 167.108 192.304 168.388 191.547 169.777C183.636 172.504 175.585 164.448 167.277 165.44C165.174 165.691 163.188 166.517 161.135 167.037C148.594 170.211 135.628 161.741 122.816 163.535C119.968 164.021 117.169 164.759 114.452 165.742C112.708 166.315 110.889 166.934 109.622 168.262C108.355 169.591 107.873 171.863 109.073 173.252C105.765 173.524 102.435 173.208 99.2371 172.316C100.102 172.797 100.821 173.502 101.32 174.357C101.818 175.212 102.077 176.186 102.07 177.175C96.9048 178.018 91.8762 179.552 87.1197 181.736C88.0074 183.213 89.0443 184.595 90.2141 185.86L83.6748 190.064C85.8841 190.621 87.0263 193.635 85.7416 195.517C88.0323 194.497 89.452 191.86 91.9016 191.325C93.5064 190.975 95.1394 191.632 96.6618 192.249C98.1842 192.866 99.8574 193.464 101.433 193.001C103.009 192.538 104.172 190.493 103.17 189.191C109.907 187.224 116.869 186.136 123.883 185.953C124.425 185.885 124.973 185.989 125.452 186.251C126.365 186.885 126.125 188.254 126.076 189.364C126.027 190.475 126.892 191.935 127.884 191.435C126.717 192.447 127.715 194.354 128.835 195.419C129.955 196.484 131.305 197.954 130.619 199.34C130.44 199.701 130.137 199.991 129.965 200.355C129.456 201.432 130.263 202.688 131.215 203.403C132.167 204.119 133.333 204.618 133.994 205.609C134.656 206.599 134.355 208.333 133.173 208.471L129.812 204.202C128.664 205.393 127.877 206.886 127.542 208.506C131.106 211.421 131.642 217.354 128.658 220.861C127.133 222.654 124.965 223.743 123.073 225.14C121.18 226.538 119.429 228.529 119.434 230.882C119.442 234.949 119.11 238.726 120.633 242.496C123.441 249.447 126.683 256.215 130.34 262.759C131.301 264.477 132.542 266.361 134.487 266.656C132.029 260.668 129.815 254.586 127.847 248.411C129.129 248.417 130.61 248.518 131.362 249.557C131.984 250.418 131.85 251.587 132.044 252.631C132.289 253.643 132.699 254.607 133.257 255.486L144.998 276.411C145.972 278.145 147.088 280.007 148.948 280.71C150.137 281.159 151.513 281.074 152.608 281.721C153.466 282.228 154.044 283.127 154.919 283.605C157.392 284.955 160.831 282.366 163.143 283.977C163.804 284.438 164.224 285.17 164.833 285.698C166.968 287.548 170.47 286.31 172.934 287.69C174.522 288.579 175.345 290.358 176.192 291.969C178.314 296.006 181.748 299.961 186.295 300.282C187.724 300.383 189.183 300.112 190.579 300.43C191.975 300.748 193.35 301.967 193.126 303.382C192.741 305.808 193.94 308.465 193.618 310.9C193.032 315.336 186.743 317.285 186.203 321.726C186.085 322.699 186.27 323.702 186.038 324.654C185.755 325.821 184.879 326.771 184.568 327.93C183.978 330.128 185.552 332.315 187.281 333.793C189.009 335.271 191.071 336.546 192.016 338.616C193.015 340.803 192.525 343.354 192.849 345.736C193.559 350.939 198.05 354.795 202.671 357.282C204.08 358.039 205.592 358.773 206.503 360.087C207.693 361.802 207.574 364.064 207.971 366.113C208.944 371.133 213.168 375.269 213.288 380.381C213.373 384.015 211.354 387.311 210.148 390.739C209.018 394.024 208.609 397.514 208.949 400.971C209.289 404.428 210.371 407.771 212.12 410.772C213.022 412.296 214.101 413.733 214.739 415.385C215.878 418.333 215.508 421.685 216.558 424.666C217.946 428.607 221.761 431.862 221.396 436.025C223.127 439.623 226.951 441.39 230.796 442.461L237.688 444.381C239.007 444.748 240.386 445.118 241.73 444.852C243.073 444.586 244.356 443.47 244.321 442.1C240.942 441.338 237.454 440.527 234.668 438.466C231.882 436.406 229.974 432.737 231.031 429.436C231.521 427.906 232.564 426.138 231.572 424.874C231.005 424.15 229.967 423.96 229.327 423.3C228.328 422.269 228.671 420.538 229.389 419.296C230.107 418.053 231.145 416.943 231.434 415.537C231.58 414.75 231.483 413.938 231.154 413.209C230.826 412.479 230.282 411.868 229.597 411.457C230.875 410.974 232.037 410.228 233.008 409.267C233.905 408.242 234.319 406.662 233.613 405.497C235.709 405.763 238.183 405.893 239.558 404.289C240.657 403.009 240.581 401.094 240.147 399.463C239.713 397.833 238.98 396.249 238.957 394.561C243.791 394.791 248.635 394.626 253.442 394.07C252.747 391.728 251.167 389.748 249.038 388.552C251.215 388.183 253.199 385.575 253.887 383.476C254.574 381.377 254.399 379.09 253.974 376.922C253.811 376.364 253.788 375.774 253.909 375.205C254.154 374.424 254.921 373.947 255.631 373.539L266.438 367.329C267.083 367.006 267.668 366.574 268.166 366.053C269.298 364.722 269.131 362.714 268.551 361.065C267.971 359.417 267.043 357.867 266.819 356.134C266.151 350.95 271.697 347.231 273.569 342.352C274.303 340.437 274.453 338.356 274.595 336.31C274.748 334.112 274.759 331.56 273.073 330.144C271.456 328.786 268.93 329.089 267.239 327.827C265.688 326.669 265.153 324.421 263.458 323.486C261.92 322.636 259.991 323.176 258.279 322.777C255.266 322.074 253.37 318.6 250.293 318.278C248.557 318.096 246.592 318.945 245.169 317.934C243.915 317.042 243.864 315.251 243.626 313.73C243.207 311.368 242.076 309.19 240.382 307.49C238.689 305.791 236.516 304.651 234.156 304.225C232.366 303.938 230.417 304.047 228.894 303.063C227.352 302.066 226.645 300.2 225.434 298.82C223.482 296.596 220.407 295.805 217.527 295.128L205.811 292.372C203.731 291.883 201.05 291.624 199.934 293.447C199.604 294.141 199.37 294.876 199.239 295.634C198.821 297.004 197.979 298.206 196.835 299.068C195.691 299.93 194.304 300.406 192.872 300.429C191.89 298.753 190.299 297.522 188.432 296.992C187.244 296.66 185.972 296.623 184.839 296.136C184.222 295.835 183.673 295.411 183.225 294.89C182.778 294.369 182.441 293.762 182.236 293.106C182.031 292.45 181.962 291.76 182.033 291.076C182.104 290.393 182.314 289.732 182.649 289.132C183.325 287.929 183.585 286.537 183.391 285.17C183.197 283.804 182.559 282.54 181.576 281.572C179.583 279.783 176.701 279.35 174.03 279.529C173.33 278.002 174.5 276.279 175.761 275.168C177.021 274.058 178.552 272.967 178.827 271.309C179.259 268.702 175.933 266.722 173.408 267.499C170.884 268.277 169.272 270.73 168.207 273.149C167.596 274.536 167.076 275.998 166.112 277.168C165.148 278.338 163.595 279.176 162.127 278.8C160.048 278.269 159.245 275.797 158.785 273.701C158.167 270.887 157.546 268.035 157.676 265.157C157.805 262.28 158.775 259.325 160.896 257.377C164.352 254.203 169.653 254.514 174.317 255.02C173.215 253.778 173.488 251.685 174.667 250.516C175.289 249.962 176.037 249.569 176.845 249.371C177.654 249.172 178.499 249.173 179.306 249.375C180.712 249.668 181.978 250.425 182.901 251.525C184.226 253.142 184.603 255.325 185.605 257.16C186.607 258.995 188.86 260.56 190.703 259.576C192.296 258.725 192.549 256.516 192.152 254.754C191.756 252.992 190.914 251.279 191.058 249.478C191.332 246.043 194.891 243.975 198.032 242.56C201.173 241.146 204.769 239.243 205.267 235.833C205.284 235.165 205.41 234.505 205.639 233.878C205.988 233.324 206.472 232.868 207.046 232.555C216.212 226.494 225.531 220.359 236.009 217.047C236.554 216.875 236.618 217.066 237.173 216.931C237.951 216.482 237.435 215.238 236.69 214.737C235.945 214.236 234.948 213.852 234.759 212.974C234.62 212.328 235 211.694 235.099 211.041C235.342 209.437 233.423 207.955 231.933 208.597C231.092 207.481 232.757 206.186 234.104 205.815C238.147 204.701 242.298 204.023 246.485 203.791C246.968 203.714 247.463 203.799 247.894 204.031C248.597 204.518 248.507 205.636 248.009 206.332C247.51 207.028 246.735 207.465 246.114 208.053C245.435 208.715 244.951 209.55 244.715 210.468C244.478 211.385 244.498 212.351 244.772 213.258C246.958 214.37 249.335 215.516 251.756 215.124C254.177 214.732 256.326 212.01 255.188 209.837C254.128 207.812 250.945 207.356 250.397 205.137C249.756 202.54 253.432 200.23 252.604 197.686C252.241 196.572 251.131 195.916 250.279 195.112C249.273 194.125 248.589 192.857 248.317 191.475C248.044 190.092 248.195 188.66 248.751 187.365C247.364 187.609 245.938 187.517 244.594 187.096C243.25 186.675 242.026 185.938 241.025 184.946C239.177 183.08 237.703 180.137 235.079 180.22C232.671 180.297 230.596 183.108 228.345 182.25C227.791 182.039 227.207 181.61 226.67 181.861C226.494 181.976 226.346 182.128 226.238 182.308C226.13 182.488 226.064 182.69 226.045 182.899C225.473 185.636 226.457 188.755 224.966 191.12C223.344 193.694 219.59 194.051 217.623 196.372C216.556 197.632 216.142 199.329 215.16 200.658C214.179 201.986 212.096 202.83 210.918 201.673C211.497 200.482 211.655 199.13 211.366 197.838C211.078 196.546 210.36 195.39 209.329 194.559C208.236 193.845 207.057 193.271 205.821 192.851C204.439 192.266 203.125 191.533 201.901 190.666C201.287 190.295 200.789 189.762 200.462 189.125C200.203 188.327 200.237 187.463 200.56 186.689C201.157 184.976 202.211 183.458 203.607 182.3C205.004 181.142 206.69 180.388 208.483 180.119C210.051 179.905 211.877 179.981 212.914 178.785C213.464 178.152 213.752 177.196 214.549 176.939C215.059 176.837 215.588 176.902 216.058 177.125L221.911 179.186C222.565 179.481 223.283 179.6 223.997 179.532C224.35 179.484 224.673 179.304 224.9 179.028C225.126 178.753 225.241 178.401 225.219 178.045C225.032 177.072 223.536 176.606 223.672 175.625C223.749 175.307 223.92 175.02 224.162 174.801C226.275 172.551 228.858 170.797 231.728 169.663C234.597 168.529 237.682 168.044 240.761 168.243C241.5 169.457 240.331 170.895 239.359 171.931C238.387 172.967 237.605 174.819 238.781 175.617C239.263 175.863 239.799 175.984 240.34 175.968C241.781 176.163 243.181 176.588 244.488 177.227C246.511 178.108 248.495 179.071 250.44 180.118C250.268 178.835 250.104 177.483 250.59 176.283C251.076 175.083 252.458 174.142 253.665 174.61C254.828 175.06 255.424 176.601 256.663 176.742C258.316 176.93 258.968 174.487 258.278 172.973C257.587 171.459 256.221 170.191 256.106 168.53C256.029 167.41 256.456 166.021 255.561 165.343C255.243 165.139 254.882 165.012 254.506 164.973L232.176 160.861C230.85 160.617 228.934 160.804 228.875 162.152C228.842 162.904 229.514 163.648 229.216 164.34C228.899 165.078 227.856 165.011 227.096 165.272C225.917 165.677 225.326 167.077 225.439 168.319C225.646 169.553 226.124 170.726 226.838 171.753C225.385 171.145 223.186 171.034 221.733 170.426Z" fill="#6291DE"/>
<path opacity="0.9" d="M203.915 151.462C202.507 150.995 200.99 150.974 199.569 151.399C198.148 151.825 196.892 152.678 195.972 153.842C195.604 154.326 195.296 154.994 195.603 155.518C196.045 156.27 197.169 155.973 197.998 155.704C199.217 155.268 200.543 155.237 201.781 155.614C202.559 155.881 203.256 156.354 204.038 156.611C204.418 156.77 204.835 156.823 205.243 156.763C205.651 156.704 206.036 156.534 206.355 156.272C206.891 155.725 206.925 154.874 206.926 154.107C206.963 153.85 206.943 153.588 206.866 153.341C206.789 153.093 206.658 152.866 206.483 152.675C206.17 152.494 205.818 152.39 205.457 152.372C204.648 152.222 203.916 151.794 203.389 151.163" fill="#6291DE"/>
<path opacity="0.9" d="M211.968 149.218C211.653 149.201 211.338 149.265 211.055 149.405C210.772 149.544 210.53 149.754 210.351 150.014C210.173 150.275 210.064 150.577 210.036 150.891C210.007 151.206 210.061 151.522 210.19 151.81C211.158 152.074 212.169 152.14 213.163 152.004C213.658 151.927 214.12 151.705 214.49 151.366C214.86 151.027 215.121 150.585 215.24 150.098C214.07 150.311 212.863 150.08 211.854 149.451" fill="#6291DE"/>
<path opacity="0.9" d="M238.982 145.472C236.348 146.032 233.79 146.902 231.359 148.063C232.505 148.503 233.479 149.301 234.137 150.337C234.796 151.373 235.105 152.593 235.017 153.818C234.915 154.289 234.926 154.777 235.052 155.241C235.332 155.92 236.143 156.175 236.857 156.349C238.138 156.74 239.476 156.91 240.814 156.855C241.484 156.82 242.134 156.618 242.706 156.269C243.278 155.919 243.754 155.432 244.09 154.852C244.284 154.301 244.512 153.763 244.772 153.241C246.481 150.636 251.56 153.786 253.395 151.268C254.042 150.381 253.983 149.046 254.826 148.343C255.262 148.037 255.767 147.844 256.296 147.782C259.987 147.048 263.716 146.517 267.465 146.19C269.241 146.036 271.557 145.397 271.572 143.613C264.88 142.299 257.943 143.232 251.837 146.27C249.637 147.372 246.727 149.691 244.608 148.23C243.815 147.682 243.854 146.209 242.762 145.593C241.645 144.964 240.167 145.22 238.982 145.472Z" fill="#6291DE"/>
<path opacity="0.9" d="M260.864 149.567L264.005 150.171C263.427 150.145 262.85 150.243 262.313 150.458C261.775 150.673 261.29 151.001 260.889 151.418C260.488 151.836 260.181 152.334 259.988 152.88C259.795 153.426 259.72 154.007 259.77 154.584C262.711 155.567 265.918 154.61 269.016 154.741C272.114 154.872 275.719 157.086 275.19 160.143C275.031 161.068 274.497 161.991 274.774 162.887C274.969 163.515 275.523 163.961 275.835 164.54C276.486 165.745 275.966 167.27 275.143 168.365C274.321 169.461 273.216 170.335 272.494 171.5C270.699 174.396 271.719 178.14 272.788 181.376C273.098 182.598 273.669 183.739 274.462 184.719C276.046 186.404 278.628 186.551 280.94 186.585C282.623 186.609 284.551 186.526 285.615 185.222C287.004 183.519 286.033 180.861 286.947 178.862C287.778 177.047 289.895 176.268 291.813 175.716C295.326 174.704 298.906 173.844 302.228 172.315C306.352 170.417 310.207 167.459 314.74 167.215C316.011 167.147 317.315 167.297 318.54 166.948C319.765 166.6 320.929 165.54 320.836 164.269C320.757 163.183 319.838 162.386 319.121 161.567C318.403 160.749 317.84 159.49 318.499 158.624L330.381 156.403C329.539 154.107 328.883 151.082 330.818 149.588C331.517 149.048 332.452 148.833 333.046 148.181C334.059 147.069 333.55 145.155 332.38 144.21C331.21 143.265 329.629 143.045 328.13 142.921C322.92 142.488 317.68 142.774 312.46 143.06C302.256 143.62 292.052 144.18 281.848 144.739C279.794 144.852 277.422 144.68 275.538 145.381C273.943 145.974 272.809 147.064 270.985 147.447C267.617 148.154 263.911 147.675 260.864 149.567Z" fill="#6291DE"/>
<path opacity="0.9" d="M317.133 174.407C316.813 174.356 316.486 174.431 316.219 174.614C316.043 174.809 315.938 175.058 315.922 175.32C315.719 176.477 315.96 177.667 316.598 178.654C316.923 179.138 317.371 179.526 317.896 179.778C318.421 180.029 319.004 180.136 319.585 180.086C320.999 179.906 322.041 178.699 323.342 178.11C325.346 177.203 333.856 175.789 327.969 172.607C325.94 171.51 324.629 172.478 323.03 173.2C321.211 174.131 319.172 174.549 317.133 174.407Z" fill="#6291DE"/>
<path opacity="0.9" d="M368.698 147.771C368.01 148.052 367.435 148.552 367.062 149.195C366.89 149.521 366.85 149.901 366.951 150.256C367.051 150.611 367.284 150.913 367.601 151.101C367.858 151.194 368.13 151.238 368.403 151.229L371.198 151.312C372.385 151.348 373.868 151.601 374.188 152.745C374.424 153.596 373.894 154.688 374.534 155.295C374.809 155.508 375.139 155.637 375.485 155.666C376.406 155.903 377.367 155.934 378.301 155.757C380.335 155.212 379.266 153.97 379.907 152.864C380.887 151.172 380.717 152.196 382.444 151.227C383.719 150.51 385.367 149.211 384.303 147.386C382.452 144.212 371.429 146.407 368.698 147.771Z" fill="#6291DE"/>
<path opacity="0.9" d="M423.866 146.174L422.243 146.39C418.583 146.879 414.902 147.372 411.377 148.472C412.903 149.075 414.504 149.468 416.136 149.64C417.034 149.684 417.926 149.811 418.801 150.019C420.358 150.483 421.927 151.68 423.431 151.067C424.364 150.687 424.668 149.715 425.441 149.2C425.974 148.844 427.998 148.269 428.224 147.91C430.053 145.009 425.271 145.986 423.866 146.174Z" fill="#6291DE"/>
<path opacity="0.9" d="M430.993 153.555C428.825 154.768 426.813 156.242 425.003 157.943C424.24 158.661 423.461 159.553 423.531 160.597C423.623 161.986 425.101 162.792 426.382 163.334L431.571 165.532C432.2 164.645 431.624 163.419 430.974 162.547C430.323 161.675 429.55 160.666 429.837 159.616C430.165 158.418 431.625 158.01 432.849 157.804C434.844 157.467 440.224 157.494 439.577 154.279C438.816 150.489 432.995 152.435 430.993 153.555Z" fill="#6291DE"/>
<path opacity="0.9" d="M429.95 367.989C429.456 369.42 429.409 371.106 430.263 372.355C431.222 373.756 433.141 374.279 434.801 373.923C436.454 373.483 437.927 372.536 439.014 371.213C440.007 370.106 440.824 368.852 441.437 367.496C442.291 365.382 442.894 363.175 443.233 360.921L444.844 352.458C445.204 350.567 445.19 344.768 441.715 346.658C440.766 347.174 438.569 351.248 437.574 352.404C435.781 354.487 435.544 356.507 434.6 359.03C433.418 362.19 431.042 364.824 429.95 367.989Z" fill="#6291DE"/>
<path d="M613.456 411.294C612.319 410.85 611.215 410.325 610.154 409.722C609.09 412.649 608.524 415.733 608.48 418.848L616.26 414.443C617.43 413.781 618.757 412.86 618.732 411.515C618.742 411.349 618.708 411.183 618.632 411.035C618.556 410.887 618.442 410.762 618.301 410.673C618.129 410.603 617.94 410.581 617.756 410.609C616.602 410.705 615.551 411.273 614.462 411.668C613.374 412.063 612.102 412.271 611.103 411.685" fill="#3F3D56"/>
<path opacity="0.9" d="M654.494 413.91C653.64 414.142 652.806 414.442 651.999 414.805C650.214 415.714 649 417.44 647.393 418.637C645.856 419.783 644.005 420.411 642.188 421.023C641.654 421.496 641.9 422.447 642.48 422.863C643.103 423.218 643.819 423.378 644.534 423.325C646.422 423.366 648.41 423.385 650.063 422.472C650.995 421.868 651.866 421.176 652.666 420.405C654.599 418.792 656.921 417.727 659.218 416.698C660.055 416.382 660.828 415.92 661.502 415.332C662.946 413.909 663.047 411.713 660.965 411.229C659.283 410.838 656.096 413.391 654.494 413.91Z" fill="#6291DE"/>
<path opacity="0.9" d="M672.626 402.059C672.72 401.08 672.59 400.092 672.246 399.171C671.902 398.249 671.353 397.418 670.641 396.739C670.62 398.699 670.56 400.786 669.459 402.406C668.674 403.561 667.443 404.34 666.584 405.44C665.724 406.54 665.342 408.283 666.351 409.248C666.995 409.738 667.781 410.009 668.591 410.019C670.598 410.256 672.922 410.388 674.33 408.937C675.098 408.145 675.472 406.971 676.41 406.389C676.759 406.242 677.07 406.019 677.322 405.736C677.709 405.12 677.094 404.309 676.402 404.087C675.71 403.866 674.947 403.97 674.251 403.759C673.555 403.548 672.917 402.766 673.274 402.132" fill="#6291DE"/>
<path d="M640.4 330.221C639.346 330.477 638.256 330.541 637.18 330.411C635.392 330.082 634.001 328.734 632.558 327.629C629.128 325.016 624.958 323.558 620.648 323.466C616.727 323.392 612.77 324.455 608.919 323.713C609.171 325.113 610.368 326.163 611.646 326.787C612.923 327.411 614.333 327.725 615.617 328.337C617.673 329.326 619.304 331.023 620.21 333.118C620.624 334.083 620.884 335.134 621.51 335.977C622.79 337.701 625.217 338.079 627.358 337.938C630.15 337.754 633.067 336.951 635.664 337.992C637.651 338.788 639.073 340.528 640.732 341.881C642.392 343.234 644.728 344.238 646.634 343.262C644.655 342.621 642.932 341.364 641.718 339.674C640.504 337.985 639.861 335.951 639.884 333.87C641.752 334.042 647.134 333.975 646.844 330.799C646.599 328.107 642.004 329.93 640.4 330.221Z" fill="#3F3D56"/>
<path opacity="0.9" d="M615.955 352.124C616.287 350.303 618.102 348.696 617.536 346.934C617.145 345.715 615.733 345.114 614.454 345.083C613.176 345.053 611.919 345.435 610.641 345.47C609.809 345.426 608.974 345.438 608.144 345.506C605.605 345.923 604.041 348.585 601.649 349.531C600.194 350.107 598.56 349.997 597.048 350.395C593.614 351.298 591.441 354.544 589.041 357.161C585.163 361.372 580.11 364.32 574.538 365.624C572.586 366.076 570.487 366.365 568.935 367.634C566.88 369.314 566.374 372.194 565.917 374.809C564.654 382.032 562.723 389.122 560.15 395.989L568.304 397.03C569.854 397.228 571.46 397.422 572.954 396.963C574.039 396.553 575.067 396.005 576.012 395.333C579.644 393.077 583.708 391.609 587.942 391.024C590.077 390.731 592.315 390.677 594.319 391.471C596.323 392.265 598.042 394.066 598.21 396.216C599.076 395.946 600 395.917 600.881 396.131C601.763 396.346 602.57 396.796 603.216 397.434C604.493 398.735 605.329 400.405 605.606 402.207C605.821 403.323 606.036 404.661 607.071 405.129C607.915 405.511 608.884 405.099 609.808 405.025C612.942 404.775 615.544 408.431 618.625 407.802C621.929 407.126 622.74 402.175 625.964 401.183C627.815 400.614 630.412 401.306 631.299 399.583C632.08 398.065 630.521 396.312 630.682 394.611C630.88 392.517 633.349 391.629 635.252 390.735C641.813 387.655 644.927 378.82 641.748 372.303C639.864 368.442 636.157 365.403 635.472 361.162C634.946 357.898 636.232 354.093 634.152 351.524C633.094 350.218 631.303 349.496 630.674 347.937C630.277 346.956 630.436 345.842 630.223 344.806C630.01 343.769 629.106 342.684 628.083 342.953C625.112 343.733 624.164 352.914 622.574 355.144C620.157 358.535 615.194 356.301 615.955 352.124Z" fill="#6291DE"/>
<path opacity="0.9" d="M561.051 333.69C560.036 333.405 558.928 333.125 557.955 333.532C556.983 333.939 556.415 335.367 557.195 336.076C563.302 335.838 569.446 335.602 575.501 336.432C582.477 337.388 589.382 339.756 596.388 339.059C592.386 337.878 588.317 336.933 584.204 336.23L577.344 334.919C575.504 334.534 573.645 334.246 571.774 334.058C567.861 333.735 564.899 334.769 561.051 333.69Z" fill="#6EA2F5"/>
<path opacity="0.9" d="M567.165 312.41C566.658 312.368 566.031 312.331 565.768 312.767C565.518 313.184 565.805 313.735 565.67 314.202C565.486 314.84 564.65 315.003 563.992 314.916C563.333 314.83 562.622 314.621 562.038 314.939C561.742 315.141 561.52 315.434 561.405 315.773C561.289 316.112 561.287 316.48 561.398 316.821C561.637 317.497 562.022 318.112 562.527 318.622C563.39 319.709 564.373 320.695 565.457 321.562C567.556 323.112 570.399 323.859 571.721 326.109C571.908 326.545 572.194 326.931 572.558 327.235C573.192 327.638 574.02 327.332 574.703 327.019L577.098 325.924C577.53 325.769 577.915 325.507 578.218 325.162C578.765 324.42 578.429 323.363 577.97 322.563C577.511 321.763 576.923 320.935 577.021 320.017C577.197 318.382 579.299 317.756 580.164 316.356C581.035 314.945 580.468 313.128 580.568 311.472C580.686 309.536 581.901 307.018 579.945 305.572C578.283 304.342 576.694 305.478 575.5 306.835C572.983 309.697 571.793 312.797 567.165 312.41Z" fill="#6EA2F5"/>
<path d="M581.704 283.484C582.522 285.05 584.226 285.985 585.118 287.51C586.084 289.164 585.974 291.3 587.023 292.903C588.099 294.547 590.263 295.42 590.867 297.291C591.525 299.332 590.031 301.814 591.222 303.598C591.444 303.89 591.725 304.132 592.045 304.31C592.366 304.487 592.72 304.596 593.085 304.63C593.45 304.663 593.818 304.621 594.165 304.504C594.513 304.388 594.833 304.201 595.104 303.955C595.606 303.408 595.875 302.686 595.853 301.944C595.831 301.201 595.52 300.497 594.987 299.98C594.281 299.337 593.269 299.059 592.68 298.307C592.373 297.873 592.169 297.376 592.082 296.852C591.761 295.34 591.813 293.772 592.232 292.285C592.39 291.907 592.43 291.491 592.347 291.09C592.082 290.319 591.038 290.265 590.306 289.907C588.643 289.095 588.683 286.746 588.974 284.917C588.78 286.135 584.445 284.064 583.991 283.374C583.089 282.004 583.58 279.361 583.402 277.847C581.455 278.786 580.704 281.569 581.704 283.484Z" fill="#3F3D56"/>
<path opacity="0.9" d="M538.032 307.585C537.232 306.689 536.026 305.751 534.954 306.292C534.135 306.704 533.91 307.837 534.231 308.696C534.622 309.53 535.223 310.248 535.976 310.778C538.212 312.622 540.619 314.287 542.569 316.431C546.059 320.268 547.908 325.446 551.703 328.981C552.466 329.801 553.477 330.348 554.58 330.538C555.685 330.641 556.927 329.933 557.054 328.829C557.159 327.92 556.525 327.106 555.906 326.432C554.432 324.828 552.818 323.351 551.426 321.674C550.783 321.03 550.379 320.186 550.281 319.281C550.273 318.379 551.096 317.434 551.97 317.657C550.907 317.386 550.119 315.613 548.558 315.28C547.254 315.002 546.939 315.81 545.387 315.144C542.427 313.874 540.105 309.907 538.032 307.585Z" fill="#6EA2F5"/>
<path d="M607.583 220.328C606.734 220.075 605.9 219.777 605.083 219.434C602.885 218.774 599.977 220.39 600.27 222.667C600.465 224.18 601.872 225.2 602.649 226.512C603.802 228.458 603.494 230.927 602.889 233.106C602.74 233.781 602.457 234.419 602.057 234.982C601.498 235.577 600.829 236.058 600.088 236.399C597.12 238.065 594.502 240.289 592.38 242.951C592.15 243.196 591.989 243.499 591.915 243.828C591.81 244.597 592.582 245.157 593.019 245.798C593.989 247.223 593.288 249.139 593.384 250.86C593.369 251.103 593.417 251.347 593.522 251.566C593.628 251.786 593.788 251.975 593.987 252.116C594.571 252.413 595.264 251.908 595.581 251.334C596.633 249.428 595.841 246.368 597.813 245.449C598.187 245.275 598.639 245.202 598.888 244.874C599.283 244.353 598.902 243.583 599.102 242.961C599.402 242.027 600.679 241.985 601.659 242.027C603.346 242.097 605.033 241.873 606.643 241.363C607.275 241.213 607.849 240.88 608.293 240.407C608.883 239.67 608.831 238.623 608.713 237.687C608.123 233.02 606.645 228.509 604.359 224.397C606.092 224.619 607.978 224.81 609.473 223.907C610.311 223.401 611.315 221.888 610.899 220.858C610.243 219.229 609.056 220.6 607.583 220.328Z" fill="#3F3D56"/>
<path opacity="0.9" d="M385.416 245.998C385.623 247.111 385.827 248.283 385.462 249.354C385.098 250.426 383.951 251.322 382.868 250.993C382.028 250.738 381.542 249.893 380.946 249.248C377.627 245.664 370.14 247.739 368.09 243.305C367.254 241.495 367.822 239.327 367.252 237.417C366.892 236.312 366.175 235.359 365.215 234.707C364.255 234.054 363.105 233.739 361.946 233.811C360.89 233.964 359.861 234.271 358.894 234.723C352.412 237.32 345.608 239.022 338.667 239.784C337.348 239.864 336.044 240.102 334.781 240.491C331.931 241.525 329.984 244.168 328.598 246.866C327.212 249.563 326.189 252.483 324.332 254.88C322.379 257.398 319.643 259.162 317.091 261.069C316.108 261.703 315.289 262.562 314.702 263.574C314.149 264.711 314.18 266.033 314.223 267.296L314.745 282.641C314.812 284.614 314.896 286.659 315.779 288.425C316.882 290.63 319.06 292.075 320.571 294.023C322.113 296.026 322.916 298.499 322.844 301.026C322.812 302.042 322.711 303.243 323.502 303.881C323.983 304.193 324.546 304.355 325.119 304.347L345.866 306.046C349.515 306.344 353.56 306.836 355.942 309.618C357.067 310.93 357.97 312.818 359.693 312.959C360.431 313.02 361.15 312.716 361.889 312.658C363.754 312.51 365.391 313.926 366.425 315.485C367.989 317.862 368.699 320.7 368.439 323.534C368.269 325.313 367.718 327.042 367.599 328.825C367.147 335.609 372.895 341.503 373.006 348.301C373.072 352.3 371.175 356.036 369.325 359.581C372.31 364.106 369.866 370.132 371.054 375.422C372.182 380.44 376.364 384.369 377.407 389.406C377.884 391.712 377.911 394.55 379.944 395.738C380.835 396.173 381.824 396.371 382.815 396.313C388.789 396.384 394.695 395.038 400.049 392.387C402.562 391.139 405.167 389.277 405.606 386.504C405.96 384.269 404.827 381.768 405.98 379.82C407.339 377.525 410.821 377.707 412.821 375.942C416.065 373.08 413.536 367.62 414.85 363.496C416.032 359.79 420.099 357.821 422.115 354.494C422.909 353.063 423.478 351.519 423.804 349.916C424.727 346.084 425.302 342.176 425.522 338.24C425.575 335.848 425.752 333.461 426.05 331.088C428.223 317.576 441.575 308.528 445.91 295.547C446.324 294.307 446.518 292.656 445.416 291.955C444.762 291.643 444.021 291.565 443.317 291.735L433.753 292.941C432.565 293.091 431.306 293.231 430.215 292.738C429.124 292.244 428.342 290.863 428.921 289.815C430.545 286.871 427.204 283.151 425.72 280.134C421.722 272.011 416.961 264.287 411.502 257.065C411.152 256.694 410.934 256.218 410.878 255.711L413.593 255.801C412.677 252.512 411.164 248.912 407.97 247.709C406.17 247.031 404.177 247.266 402.257 247.371C396.756 247.671 390.86 246.84 385.416 245.998Z" fill="#6291DE"/>
<path opacity="0.9" d="M402.261 171.871C403.701 173.4 405.314 175.021 407.396 175.288C411.074 175.759 413.719 171.953 415.403 168.648C415.465 169.49 415.854 170.275 416.486 170.836C417.118 171.397 417.943 171.688 418.787 171.649C419.695 171.496 420.562 171.158 421.332 170.654C428.62 166.669 436.783 164.558 445.088 164.51C445.009 163.88 445.165 163.243 445.526 162.722C445.888 162.201 446.43 161.833 447.048 161.688C448.736 161.353 450.257 162.813 451.072 164.331C451.886 165.848 452.394 167.607 453.688 168.742C454.982 169.878 457.488 169.829 457.999 168.184C458.49 166.605 456.846 165.259 455.48 164.328C454.114 163.397 452.675 161.674 453.594 160.3C460.572 158.755 467.594 157.204 474.734 156.896C475.95 156.939 477.161 156.73 478.292 156.283C479.381 155.748 480.247 154.535 479.954 153.357C478.396 153.724 476.764 153.618 475.266 153.052C473.769 152.487 472.473 151.489 471.545 150.184C481.453 149.366 491.991 148.669 500.771 153.333C501.825 155.596 496.455 157.479 497.891 159.52C498.35 160.171 499.268 160.247 500.064 160.262C506.165 160.375 512.302 160.487 518.335 159.565C520.54 159.228 522.766 158.753 524.98 159.026C528.667 159.481 531.82 161.942 535.447 162.744C536.923 163.071 538.578 163.082 539.823 162.223C541.067 161.364 541.602 159.408 540.582 158.291C543.997 154.942 549.665 155.772 554.171 157.375C558.676 158.979 562.944 161.564 567.712 161.921C571.132 162.178 574.598 161.257 577.977 161.842C580.1 162.21 582.076 163.155 584.152 163.735C588.076 164.834 592.228 164.602 596.303 164.655C606.7 164.795 616.984 166.839 626.645 170.687C627.902 171.096 629.053 171.777 630.018 172.681C630.917 173.644 631.375 175.14 630.771 176.311L620.788 174.852C621.729 176.704 624.162 177.02 626.138 177.659C628.115 178.298 630.163 180.482 628.976 182.186C626.835 181.504 624.894 183.646 623.813 185.617C622.731 187.587 621.413 189.947 619.169 190.067C617.16 190.175 614.73 188.463 613.42 189.991C615.23 192.275 616.779 194.753 618.04 197.381C619.334 200.078 620.255 203.476 618.506 205.903C618.231 206.336 617.814 206.659 617.326 206.818C615.898 207.18 614.97 205.432 613.945 204.372C612.655 203.037 610.703 202.659 608.955 202.033C607.207 201.406 605.366 200.175 605.229 198.322C605.144 197.169 605.752 196.098 606.2 195.033C606.953 193.237 607.282 191.292 607.162 189.349C607.064 187.785 606.626 186.159 605.504 185.066C604.381 183.974 602.444 183.627 601.239 184.628C600.677 185.095 600.226 185.842 599.496 185.869C598.206 185.919 597.215 183.669 596.178 184.437C596.299 185.255 596.13 186.09 595.698 186.796C592.601 189.491 587.844 188.351 583.851 189.303C581.952 189.847 580.134 190.641 578.445 191.665C577.814 191.935 577.276 192.387 576.9 192.962C576.402 193.931 576.952 195.172 577.83 195.817C578.762 196.388 579.809 196.746 580.895 196.863C585.763 197.786 590.701 199.214 594.544 202.342C598.387 205.47 600.907 210.64 599.691 215.445L590.092 206.269C590.457 210.122 590.664 213.986 590.713 217.86C590.775 218.616 590.671 219.377 590.409 220.089C589.724 221.602 587.87 222.11 586.244 222.444C585.792 222.53 585.363 222.711 584.986 222.974C584.609 223.238 584.291 223.578 584.055 223.973C583.818 224.368 583.668 224.809 583.614 225.266C583.56 225.723 583.603 226.186 583.74 226.626C584.318 228.509 585.757 229.977 587.076 231.44C588.394 232.903 589.691 234.565 589.864 236.528C590.037 238.49 588.557 240.701 586.593 240.565C585.104 240.462 583.999 239.128 583.364 237.777C582.729 236.426 582.351 234.92 581.397 233.772C578.509 230.297 572.022 231.786 569.435 228.081C568.775 228.829 568.318 229.734 568.106 230.709C567.894 231.684 567.935 232.697 568.225 233.652C569.428 232.898 571.076 233.599 571.981 234.694C572.885 235.789 573.312 237.194 574.022 238.424C574.98 240.084 576.505 241.556 576.639 243.469C576.604 244.192 576.616 244.916 576.675 245.638C576.913 246.797 577.892 247.629 578.571 248.597C580.15 250.851 580.072 253.947 579.054 256.505C578.036 259.062 576.207 261.199 574.396 263.27C571.232 266.889 568.003 270.486 564.252 273.491C563.182 274.348 562.04 275.191 561.373 276.39C560.707 277.589 560.672 279.271 561.697 280.183C560.964 280.22 559.649 280.581 558.916 280.617C558.659 277.676 558.603 274.72 558.749 271.77C555.856 270.381 552.742 274.102 553.115 277.29C553.488 280.479 555.793 283.038 557.434 285.796C558.634 287.813 559.526 290.166 559.126 292.479C558.725 294.792 556.661 296.926 554.324 296.722C550.606 296.397 549.05 291.057 545.368 290.446C545.044 290.369 544.703 290.403 544.399 290.542C543.853 290.842 543.758 291.574 543.727 292.197C543.577 295.254 543.446 298.434 544.639 301.253C546.385 305.377 550.893 308.841 549.948 313.219C544.852 310.849 542.203 305.132 541 299.641C539.798 294.15 539.597 288.385 537.441 283.194C535.804 285.293 532.363 283.558 530.867 281.355C529.449 279.267 528.576 276.852 527.2 274.736C525.824 272.619 523.716 270.724 521.195 270.608C518.553 270.486 516.261 272.301 514.245 274.015C512.588 275.425 510.886 276.89 509.917 278.839C508.507 281.674 508.876 285.018 508.808 288.184C508.735 291.607 508.01 295.219 505.678 297.725C503.346 300.231 499.041 301.104 496.469 298.846C495.126 297.666 494.476 295.905 493.897 294.214C491.105 286.062 488.78 277.758 486.933 269.341C486.501 271.262 484.815 273.738 483.204 272.607C482.843 272.303 482.55 271.925 482.345 271.499C479.341 266.405 473.777 263.349 468.156 261.517C462.534 259.685 456.62 258.83 451.061 256.817C447.946 255.688 444.97 254.205 442.193 252.397C441.485 253.438 441.072 254.651 440.997 255.907C440.922 257.164 441.188 258.417 441.767 259.535C443 261.719 445.79 262.983 448.179 262.22C449.413 261.825 450.456 260.968 451.681 260.544C452.905 260.121 454.549 260.329 455.085 261.509C455.598 262.64 454.823 264.007 455.207 265.186C455.792 266.983 458.501 267.122 459.449 268.757C460.153 269.974 459.574 271.59 458.567 272.571C457.561 273.553 456.218 274.092 454.99 274.775C451.004 276.993 448.17 280.778 444.686 283.723C441.203 286.668 436.288 288.819 432.137 286.929C433.126 281.916 427.158 278.236 426.059 273.245C425.698 271.602 425.885 269.857 425.369 268.257C424.622 265.939 422.567 264.345 420.881 262.589C418.836 260.436 417.243 257.894 416.196 255.115C415.148 252.335 414.668 249.374 414.783 246.406C414.874 244.344 415.253 242.248 414.783 240.237C414.314 238.227 412.65 236.281 410.589 236.372C405.88 236.58 399.948 236.931 397.478 232.915C396.596 231.481 396.213 229.382 397.487 228.284C398.387 227.51 399.714 227.583 400.895 227.699L411.504 228.743C413.985 228.987 416.667 229.189 418.797 227.891C420.926 226.593 421.849 223.148 419.877 221.621C418.436 220.506 415.855 220.566 415.437 218.792C415.088 217.315 416.722 215.639 415.84 214.404C415.207 213.519 413.784 213.764 412.921 214.428C412.059 215.092 411.433 216.062 410.468 216.565C408.776 217.446 406.753 216.607 404.932 216.037C403.11 215.467 400.669 215.418 399.785 217.111C398.797 219.004 400.661 221.484 399.681 223.381C398.385 225.888 393.995 224.461 392.174 226.618C390.085 229.093 393.596 232.783 392.891 235.945C391.992 236.391 390.992 236.596 389.99 236.539C388.988 236.483 388.017 236.167 387.173 235.624C386.343 235.059 385.682 234.28 385.259 233.369C384.837 232.458 384.669 231.449 384.773 230.45C384.948 229.028 385.689 227.576 385.192 226.232C384.791 225.145 383.7 224.498 382.687 223.938L372.377 218.238C371.42 220.014 372.63 222.217 374.143 223.551C375.657 224.885 377.552 225.89 378.546 227.646C379.175 228.863 379.316 230.274 378.941 231.591C378.565 232.908 377.701 234.032 376.525 234.733C376.377 234.835 376.21 234.904 376.033 234.934C375.857 234.965 375.676 234.957 375.503 234.911C375.338 234.815 375.195 234.686 375.081 234.533C374.967 234.38 374.885 234.205 374.84 234.02C373.021 229.363 370.29 224.771 365.924 222.338C361.557 219.905 355.283 220.405 352.42 224.503C351.74 225.477 351.284 226.586 350.691 227.616C347.544 233.083 340.796 235.673 334.491 235.503C333.875 235.538 333.261 235.393 332.724 235.088C331.705 234.384 331.751 232.89 331.907 231.661L332.569 226.445C332.702 225.398 332.894 224.24 333.723 223.586C334.891 222.665 336.576 223.246 338.063 223.225C339.19 223.172 340.273 222.774 341.166 222.085C342.059 221.395 342.719 220.447 343.055 219.37C343.356 218.282 343.354 217.133 343.05 216.046C342.746 214.959 342.151 213.976 341.33 213.203C340.648 212.562 339.733 211.757 340.093 210.894C340.237 210.655 340.431 210.45 340.662 210.295C340.893 210.139 341.156 210.036 341.431 209.992C344.103 209.216 346.926 209.013 349.553 208.097C352.18 207.181 354.728 205.307 355.35 202.594C355.54 201.763 355.627 200.756 356.374 200.344C356.748 200.185 357.15 200.103 357.557 200.102C358.981 199.899 360.278 199.17 361.192 198.059C362.106 196.947 362.571 195.534 362.496 194.096C363.755 193.216 365.519 193.864 366.737 194.8C367.955 195.736 369.03 196.973 370.512 197.376C373.274 198.128 375.943 195.682 378.806 195.67C380.009 195.666 381.256 196.091 382.388 195.683C383.536 195.269 384.222 194.126 385.103 193.281C385.984 192.436 387.53 191.921 388.343 192.831L387.651 187.697C389.046 188.05 390.5 188.099 391.917 187.843C393.333 187.587 394.678 187.031 395.861 186.212L386.907 183.185C386.595 183.107 386.308 182.953 386.07 182.737C385.419 182.035 386.065 180.943 386.595 180.145C387.861 178.238 388.074 175.097 385.991 174.147C384.57 173.499 382.938 174.277 381.574 175.038L375.038 178.684C374.831 179.927 376.35 180.631 377.291 181.468C377.861 181.975 378.264 182.642 378.448 183.382C378.631 184.122 378.587 184.9 378.321 185.614C378.054 186.328 377.578 186.945 376.955 187.384C376.331 187.823 375.59 188.062 374.828 188.072C375.258 188.631 375.557 189.281 375.703 189.972C375.848 190.663 375.837 191.378 375.669 192.064L371.271 192.38C370.778 192.48 370.265 192.379 369.845 192.102C369.375 191.684 369.439 190.952 369.33 190.332C369.067 188.836 367.603 187.787 366.108 187.519C364.614 187.25 363.086 187.594 361.606 187.935C360.978 188.161 360.288 188.145 359.671 187.89C359.317 187.66 359.048 187.32 358.905 186.923C358.256 185.349 358.863 183.5 359.905 182.154C360.946 180.809 362.373 179.825 363.653 178.705C366.716 176.016 368.967 172.524 370.15 168.622C372.571 167.608 375.077 166.229 377.498 165.214C381.23 163.324 385.415 162.513 389.582 162.872L397.78 163.028C400.207 163.075 402.7 163.134 404.944 164.06C407.189 164.986 409.161 166.988 409.315 169.412C409.362 169.686 409.339 169.968 409.247 170.231C409.155 170.493 408.997 170.728 408.79 170.914C408.473 171.087 408.114 171.168 407.753 171.147C405.49 171.227 404.525 171.791 402.261 171.871Z" fill="#6291DE"/>
<path opacity="0.9" d="M336.92 197.576C337.24 197.273 337.471 196.887 337.586 196.461C337.702 196.035 337.697 195.586 337.574 195.162C336.795 194.861 335.947 194.784 335.126 194.939C334.305 195.094 333.544 195.476 332.928 196.04C332.442 196.532 332.024 197.085 331.683 197.686C330.606 199.445 329.653 201.545 330.278 203.511C330.328 203.725 330.422 203.927 330.552 204.105C330.682 204.283 330.846 204.433 331.034 204.546C331.314 204.659 331.616 204.706 331.917 204.685C333.103 204.683 334.289 204.61 335.467 204.466C336.19 204.377 337.03 204.173 337.31 203.5C337.677 202.615 336.788 201.613 337.047 200.69C337.218 200.278 337.476 199.907 337.805 199.605C337.968 199.453 338.093 199.264 338.17 199.055C338.248 198.846 338.276 198.622 338.251 198.4C338.147 197.967 337.484 197.722 337.246 198.098" fill="#6291DE"/>
<path opacity="0.9" d="M343.074 189.594C342.02 189.352 340.933 189.283 339.857 189.392C339.619 189.385 339.383 189.438 339.171 189.548C338.966 189.699 338.818 189.914 338.749 190.16C338.522 190.89 338.577 191.678 338.905 192.369C339.233 193.059 339.809 193.601 340.518 193.886C340.905 193.975 341.275 194.124 341.616 194.327C342.525 195.033 341.945 196.477 342.118 197.616C342.311 198.896 343.549 199.969 343.322 201.243C343.143 202.247 342.072 203.041 342.244 204.046C342.425 205.098 343.759 205.414 344.823 205.498C345.44 205.606 346.074 205.534 346.65 205.289C347.228 204.894 347.638 204.299 347.803 203.619C348.239 202.322 348.422 200.953 348.342 199.587C348.337 198.966 348.182 198.356 347.888 197.808C347.567 197.375 347.212 196.968 346.826 196.592C344.788 194.22 346.934 190.682 343.074 189.594Z" fill="#6291DE"/>
<path opacity="0.8" d="M611.07 375.394C611.07 375.394 454.977 285.749 387.777 302.734C387.777 302.734 245.36 318.068 228.855 351.803C228.855 351.803 183.583 210.259 167.078 205.541" stroke="#092E69" stroke-width="2" stroke-miterlimit="10"/>
<path opacity="0.8" d="M228.855 351.804C255.028 281.976 490.817 204.599 490.817 204.599C457.335 213.091 387.777 302.736 387.777 302.736C387.777 302.736 240.644 195.634 167.078 205.542C167.078 205.542 491.053 216.158 611.07 375.395" stroke="#092E69" stroke-width="2" stroke-miterlimit="10"/>
<path d="M167.079 212.383C170.856 212.383 173.917 209.32 173.917 205.541C173.917 201.763 170.856 198.7 167.079 198.7C163.303 198.7 160.241 201.763 160.241 205.541C160.241 209.32 163.303 212.383 167.079 212.383Z" fill="#092E69"/>
<path d="M228.855 358.645C232.632 358.645 235.693 355.582 235.693 351.804C235.693 348.026 232.632 344.963 228.855 344.963C225.079 344.963 222.018 348.026 222.018 351.804C222.018 355.582 225.079 358.645 228.855 358.645Z" fill="#092E69"/>
<path d="M490.818 211.439C494.595 211.439 497.656 208.376 497.656 204.598C497.656 200.82 494.595 197.757 490.818 197.757C487.042 197.757 483.98 200.82 483.98 204.598C483.98 208.376 487.042 211.439 490.818 211.439Z" fill="#092E69"/>
<path d="M611.07 382.236C614.847 382.236 617.908 379.173 617.908 375.395C617.908 371.617 614.847 368.554 611.07 368.554C607.294 368.554 604.232 371.617 604.232 375.395C604.232 379.173 607.294 382.236 611.07 382.236Z" fill="#6C63FF"/>
<path d="M387.778 309.577C391.555 309.577 394.616 306.514 394.616 302.735C394.616 298.957 391.555 295.894 387.778 295.894C384.002 295.894 380.94 298.957 380.94 302.735C380.94 306.514 384.002 309.577 387.778 309.577Z" fill="#092E69"/>
<path d="M665.252 598.453C737.827 598.453 796.661 586.297 796.661 571.301C796.661 556.305 737.827 544.148 665.252 544.148C592.676 544.148 533.842 556.305 533.842 571.301C533.842 586.297 592.676 598.453 665.252 598.453Z" fill="#E8EDF7"/>
<path d="M808.839 349.937C807.44 337.633 801.9 325.892 801.9 325.892L802.321 321.743C802.321 321.743 802.412 319.668 802.275 316.557C802.29 314.614 802.545 312.68 803.034 310.8C804.167 307.202 801.615 302.78 801.329 302.372C801.044 301.963 801.472 294.074 798.919 290.203C796.366 286.333 779.364 279.137 779.364 279.137C779.364 279.137 778.45 277.224 777.161 274.988L777.277 274.761C776.222 272.846 774.915 271.082 773.389 269.516C772.346 268.401 771.342 267.766 770.532 268.077C770.202 267.001 769.951 265.902 769.78 264.79C769.949 264.835 770.124 264.881 770.292 264.913C770.994 265.076 771.722 265.094 772.43 264.965C774.011 264.608 775.061 263.189 775.942 261.853C780.336 255.176 784.12 247.85 784.891 239.947C785.098 238.334 785.021 236.697 784.664 235.111C784.299 233.878 783.79 232.692 783.148 231.578C782.012 229.292 780.573 227.171 778.871 225.27C775.845 222.08 771.672 220.129 767.383 218.975C762.55 217.675 757.516 217.299 752.545 217.866C751.249 218.015 749.953 218.229 748.657 218.314C747.013 218.386 745.366 218.358 743.726 218.229L735.244 217.737L735.205 217.607L733.793 217.523C733.235 218.631 733.793 219.947 734.486 220.985C735.179 222.022 735.976 223.105 735.918 224.33C735.86 225.555 734.972 226.54 734.279 227.571C733.585 228.602 733.06 229.951 733.754 230.962C733.851 231.102 733.967 231.228 734.097 231.338C734.829 232.096 736.106 232.181 737.214 232.168H737.408C734.618 235.845 733.109 240.335 733.112 244.952C733.131 248.897 734.235 252.761 736.302 256.121C738.37 259.481 741.321 262.206 744.834 263.999C744.957 264.42 745.08 264.855 745.197 265.296C746.481 269.849 746.942 274.596 746.557 279.312L746.408 279.636L746.318 279.292C746.318 279.292 736.326 286.074 733.358 287.869C730.391 289.665 727.41 295.753 727.268 297.412C727.125 299.072 722.447 324.103 722.447 324.103C721.496 326.624 720.712 329.206 720.101 331.83L714.133 337.075C714.133 337.075 701.822 338.184 698.258 337.354L698.362 338.041C695.219 337.323 692.019 336.889 688.798 336.744C687.039 336.518 685.252 336.757 683.615 337.438L683.491 337.497L683.394 337.542C681.518 337.798 679.686 338.313 677.951 339.072C677.744 339.156 677.556 339.24 677.375 339.325L677.414 338.475L664.091 337.788L657.288 336.407C657.288 336.407 654.877 334.462 653.458 334.748C652.039 335.033 649.065 333.088 649.065 333.088C648.387 332.556 647.652 332.1 646.875 331.727C646.648 330.158 646.506 329.205 646.506 329.205C646.506 329.205 641.212 308.187 637.246 295.83C634.59 287.578 630.767 283.513 628.512 281.743C627.508 279.993 626.847 278.865 626.847 278.865C626.413 277.348 624.028 273.931 623.419 273.847C623.322 273.691 623.251 273.613 623.212 273.613C623.081 273.599 622.95 273.619 622.829 273.672C621.715 268.122 621.067 261.166 622.771 255.104C625.104 253.186 626.984 250.776 628.277 248.046C629.569 245.315 630.243 242.333 630.249 239.312C630.249 239.221 630.249 239.13 630.249 239.04C630.249 238.949 630.249 238.852 630.249 238.761C630.247 233.943 628.542 229.281 625.434 225.6L625.214 225.354C625.273 225.312 625.329 225.267 625.382 225.218C625.869 224.823 626.24 224.303 626.456 223.714C626.671 223.125 626.724 222.489 626.607 221.873C626.315 220.628 625.343 219.649 624.845 218.469C624.545 217.561 624.305 216.634 624.125 215.694C623.743 214.36 623.043 213.139 622.084 212.135L622.181 212.395C619.641 209.536 615.274 208.116 611.341 208.751C608.419 209.218 605.697 210.579 602.762 211.001C600.656 211.299 598.511 211.105 596.393 211.318C594.427 211.521 592.513 212.074 590.742 212.952C590.28 213.149 589.869 213.451 589.544 213.834C589.242 214.347 589.04 214.912 588.948 215.5C588.228 218.126 585.947 219.999 584.295 222.19C582.408 224.694 581.315 227.707 581.159 230.839C581.095 231.635 581.171 232.436 581.386 233.205C581.528 233.665 581.749 234.1 581.852 234.566C582.176 235.993 581.431 237.412 581.068 238.826C580.611 240.629 580.773 242.533 581.528 244.233C584.088 249.963 592.492 251.876 594.241 257.892C595.58 258.508 596.994 258.944 598.447 259.189C598.563 259.785 598.667 260.388 598.751 260.997C598.712 261.014 598.675 261.036 598.641 261.062C596.373 263.273 595.809 267.545 595.809 267.545L595.537 267.766C594.611 268.531 591.442 271.098 588.578 273.075C585.176 275.429 579.507 283.312 575.541 285.665C571.576 288.019 568.31 302.521 569.165 307.792C570.021 313.062 573.558 327.843 572.139 333.237C570.72 338.631 574.265 363.247 574.265 363.247C576.643 363.7 578.97 364.391 581.211 365.308L581.14 366.385L580.926 369.626C580.926 369.626 574.504 392.861 576.96 410.748C579.416 428.634 575.826 430.475 575.826 430.475C575.826 430.475 576.578 438.404 574.692 441.172C572.807 443.94 572.425 450.021 572.425 450.021C572.425 450.021 572.237 463.668 572.612 467.525C572.988 471.383 573.176 478.41 571.854 480.07C570.533 481.73 568.077 492.602 568.265 495.921C568.453 499.24 563.541 506.806 566.185 516.576C568.828 526.345 558.409 526.533 558.409 526.533C558.409 526.533 559.737 541.444 562.569 545.71L562.984 546.319C562.913 546.566 562.841 546.825 562.763 547.104C561.694 550.994 560.23 557.133 561.247 558.618C562.757 560.835 563.515 560.459 563.515 560.459L564.079 570.417C564.079 570.417 575.418 580.005 584.114 579.642C592.809 579.279 591.105 570.417 591.105 570.417L583.699 551.201L583.446 550.553L591.675 534.994C591.675 534.994 593.943 528.174 594.507 525.775C595.071 523.376 598.149 514.877 598.149 514.877C598.149 514.877 605.924 496.439 606.086 494.222C606.248 492.005 606.844 480.031 608.354 477.626C609.864 475.221 614.024 461.418 614.024 461.418L614.127 461.509C614.833 462.203 615.337 463.075 615.586 464.033C615.835 464.991 615.819 465.999 615.54 466.948C614.587 470.449 615.158 477.639 615.158 477.639C615.158 477.639 614.782 483.726 614.024 486.864C613.265 490.002 613.084 515.629 614.406 521.71C615.462 526.579 615.43 535.694 615.378 539.143C614.49 542.806 613.713 547.357 615.158 547.895C617.62 548.822 630.093 548.634 630.093 548.634C630.093 548.634 635.38 546.786 642.566 553.243C649.752 559.7 671.854 551.402 671.854 551.402C671.854 551.402 678.658 549.554 665.238 544.212C655.875 540.485 649.83 538.002 645.877 535.344C645.968 535.169 646.065 534.994 646.149 534.806C646.149 534.806 640.668 529.619 645.203 520.426C649.739 511.234 649.551 503.461 649.551 503.461L650.309 472.478L648.041 431.35L646.285 388.187L646.597 388.083C646.895 396.018 648.443 414.91 656.549 411.247C666.755 406.637 658.059 394.65 658.059 394.65L653.478 385.717L654.845 385.25L649.72 368.68C649.228 365.446 649.162 362.161 649.525 358.91C649.627 357.008 649.588 355.101 649.409 353.205C656.122 352.031 662.549 350.787 663.703 351.072C665.063 351.402 672.677 351.467 675.671 351.48C674.692 352.245 673.908 353.004 673.908 353.004L686.096 361.211C686.096 361.211 690.23 358.949 691.092 356.55C691.94 356.335 692.723 355.917 693.373 355.331C693.502 358.164 694.254 361.231 696.872 361.302C697.526 361.316 698.176 361.187 698.777 360.926L718.708 356.978L716.997 367.668L718.19 369.788C717.587 378.806 716.894 388.381 716.285 396.803L716.006 398.644L716.149 398.676C715.203 411.642 714.444 421.464 714.444 421.464C715.561 419.336 717.293 417.594 719.414 416.466L719.544 435.707C719.544 435.707 720.542 466.132 720.542 470.281C720.542 474.43 720.678 483.694 720.678 483.694C720.678 483.694 722.81 495.033 724.08 498.767C725.35 502.501 726.347 519.512 726.347 519.512C726.347 519.512 729.328 524.212 728.052 525.995C726.775 527.778 733.015 531.661 733.015 531.661C733.015 531.661 729.043 537.055 728.758 540.653C728.725 541.068 729.134 541.509 729.872 541.95C729.639 542.138 729.399 542.326 729.134 542.507C727.294 543.739 724.598 544.595 720.542 544.245C709.481 543.272 701.686 553.509 708.49 555.584C715.293 557.658 735.704 558.073 735.704 558.073C735.704 558.073 741.886 554.216 746.719 555.953C746.648 560.011 746.849 563.733 746.881 564.225L746.823 564.271C743.933 566.864 738.4 571.324 732.996 573.146C725.22 575.772 723.496 586.423 733.559 587.804C743.622 589.185 758.363 586.144 758.363 586.144C758.363 586.144 766.016 580.478 771.828 579.233C777.64 577.989 782.603 575.22 781.612 571.901C780.964 569.781 779.299 564.225 778.171 560.491C778.107 560.266 778.042 560.05 777.977 559.843C778.152 559.454 778.327 559.052 778.489 558.637C778.489 558.637 775.515 543.149 777.925 539.279C780.335 535.409 779.059 496.679 779.059 496.679C779.059 496.679 774.944 486.864 777.076 480.919C779.208 474.974 773.674 466.534 773.674 466.534C773.674 466.534 774.277 449.619 775.897 440.193C775.97 439.791 776.042 439.402 776.111 439.026C778.823 438.221 781.466 437.2 784.016 435.973C784.016 435.973 785.435 414.67 786.284 409.833C786.368 409.38 786.485 408.647 786.627 407.694L787.275 404.278L788.04 400.388L790.632 387.13L795.31 381.075L807.362 368.757C807.362 368.757 810.258 362.248 808.839 349.937ZM622.978 273.873L622.888 273.937C622.874 273.891 622.863 273.843 622.855 273.795C622.893 273.826 622.934 273.852 622.978 273.873ZM742.054 288.971L741.587 289.989L743.292 288.291L740.978 290.884L741.756 289.25L742.054 288.971ZM730.546 312.764C730.099 313.95 729.62 315.234 729.121 316.569L730.034 313.84L730.546 312.764Z" fill="url(#paint0_linear)"/>
<path d="M693.503 351.605C693.503 351.605 691.908 362.231 696.693 362.368C701.479 362.505 704.675 354.172 704.675 354.172L702.722 347.507L693.503 351.605Z" fill="#032967"/>
<path opacity="0.2" d="M693.503 351.605C693.503 351.605 691.908 362.231 696.693 362.368C701.479 362.505 704.675 354.172 704.675 354.172L702.722 347.507L693.503 351.605Z" fill="black"/>
<path d="M586.421 580.722C578.068 581.094 567.174 571.445 567.174 571.445L566.631 561.425C566.631 561.425 565.909 561.797 564.453 559.571C563.476 558.076 564.881 551.881 565.909 547.984C566.407 546.078 566.816 544.72 566.816 544.72L585.144 549.733L586.018 552.103L593.132 571.439C593.132 571.439 594.767 580.35 586.421 580.722Z" fill="#3F3D56"/>
<path d="M672.136 552.381C672.136 552.381 650.584 560.76 643.616 554.242C636.648 547.724 631.456 549.584 631.456 549.584C631.456 549.584 619.296 549.774 616.897 548.837C615.484 548.294 616.249 543.636 617.131 539.928C617.727 537.367 618.375 535.251 618.375 535.251C618.375 535.251 639.558 527.986 642.877 532.453C643.873 533.766 645.065 534.915 646.409 535.86C650.246 538.664 656.242 541.206 665.725 545.116C678.767 550.514 672.136 552.381 672.136 552.381Z" fill="#3F3D56"/>
<path d="M652.765 384.092L658.53 395.779C658.53 395.779 666.824 407.652 657.09 412.213C647.356 416.775 647.54 385.923 647.54 385.923L652.765 384.092Z" fill="#FFD6D6"/>
<path d="M628.114 281.77C628.114 281.77 634.558 284.716 638.424 297.045C642.29 309.375 647.444 330.362 647.444 330.362C647.444 330.362 650.941 354.101 650.384 359.994C650.03 363.239 650.093 366.517 650.572 369.746L655.539 386.311L645.599 389.807L630.322 331.282L628.114 281.77Z" fill="#DCE6F2"/>
<path opacity="0.05" d="M628.114 281.77C628.114 281.77 634.558 284.716 638.424 297.045C642.29 309.375 647.444 330.362 647.444 330.362C647.444 330.362 650.941 354.101 650.384 359.994C650.03 363.239 650.093 366.517 650.572 369.746L655.539 386.311L645.599 389.807L630.322 331.282L628.114 281.77Z" fill="black"/>
<path opacity="0.1" d="M585.512 549.671L586.406 552.014L585.309 554.087C581.042 555.92 570.47 554.455 570.47 554.455C570.47 554.455 568.512 551.995 565.837 547.947C566.346 546.062 566.764 544.72 566.764 544.72L585.512 549.671Z" fill="black"/>
<path opacity="0.1" d="M646.969 536.838C641.649 549.356 623.567 544.71 618.542 543.144C617.714 542.884 617.259 542.711 617.259 542.711C617.259 542.711 617.291 541.691 617.304 540.084C617.894 537.478 618.536 535.325 618.536 535.325C618.536 535.325 639.506 527.933 642.791 532.479C643.778 533.815 644.958 534.984 646.289 535.945C646.489 536.263 646.717 536.562 646.969 536.838Z" fill="black"/>
<path d="M645.957 521.234C641.531 530.445 646.885 535.614 646.885 535.614C641.505 547.789 623.214 543.274 618.132 541.744C617.294 541.497 616.834 541.328 616.834 541.328C616.834 541.328 617.203 528.603 615.912 522.519C614.62 516.435 614.802 490.815 615.542 487.682C616.282 484.549 616.645 478.459 616.645 478.459C616.645 478.459 616.094 471.272 617.015 467.769C617.293 466.823 617.311 465.82 617.069 464.864C616.827 463.908 616.333 463.035 615.639 462.334L615.542 462.237C615.542 462.237 611.485 476.065 610.005 478.452C608.525 480.839 607.98 492.832 607.792 495.044C607.604 497.255 600.042 515.695 600.042 515.695C600.042 515.695 597.095 524.173 596.544 526.566C595.992 528.959 593.772 535.789 593.772 535.789L584.88 552.939C580.635 554.781 570.12 553.308 570.12 553.308C570.12 553.308 568.095 550.714 565.323 546.485C562.552 542.256 561.267 527.318 561.267 527.318C561.267 527.318 571.412 527.13 568.828 517.362C566.245 507.594 571.042 500.031 570.86 496.71C570.678 493.39 573.073 482.519 574.365 480.858C575.656 479.198 575.468 472.193 575.098 468.321C574.728 464.449 574.917 450.808 574.917 450.808C574.917 450.808 575.287 444.724 577.13 441.961C578.973 439.198 578.24 431.266 578.24 431.266C578.24 431.266 581.738 429.423 579.343 411.541C576.948 393.659 583.238 370.432 583.238 370.432L583.452 367.189L583.789 361.935C583.789 361.935 636.552 358.614 640.797 362.668C641.907 363.793 642.818 365.098 643.491 366.528C644.943 369.647 645.969 372.948 646.541 376.341L648.755 432.2L650.968 473.309L650.228 504.28C650.228 504.28 650.39 512.011 645.957 521.234Z" fill="#032967"/>
<path opacity="0.1" d="M630.4 410.957L624.836 530.925L618.157 541.86C617.316 541.613 616.853 541.445 616.853 541.445C616.853 541.445 617.225 528.704 615.927 522.612C614.629 516.521 614.811 490.87 615.555 487.734C616.299 484.597 616.664 478.5 616.664 478.5C616.664 478.5 616.109 471.304 617.036 467.798C617.314 466.85 617.333 465.846 617.09 464.889C616.847 463.932 616.35 463.057 615.653 462.356L615.744 461.707L630.4 410.957Z" fill="black"/>
<path opacity="0.1" d="M570.772 539.979C570.772 539.979 585.158 534.056 587.371 535.945C589.584 537.834 570.408 540.718 570.408 540.718L570.772 539.979Z" fill="black"/>
<path opacity="0.1" d="M641.827 524.713C641.284 524.899 627.498 529.827 628.768 535.069C630.038 540.311 641.827 524.713 641.827 524.713Z" fill="black"/>
<path d="M597.833 252.032C597.833 252.032 602.578 263.458 600.068 269.315C597.558 275.172 627.167 285.2 627.167 285.2C627.167 285.2 618.509 262.903 626.891 250.358C635.273 237.814 597.833 252.032 597.833 252.032Z" fill="#FFD6D6"/>
<path d="M769.773 580.351C764.055 581.599 756.526 587.282 756.526 587.282C756.526 587.282 742.022 590.331 732.117 588.946C722.213 587.561 723.894 576.885 731.561 574.252C736.88 572.431 742.329 567.939 745.175 565.364C746.431 564.213 747.177 563.413 747.177 563.413L774.935 557.867C774.935 557.867 775.386 559.408 776.014 561.534C777.126 565.286 778.768 570.851 779.396 572.971C780.371 576.333 775.491 579.102 769.773 580.351Z" fill="#3F3D56"/>
<path d="M762.381 558.731C762.381 558.731 750.785 559.975 745.955 557.216C741.125 554.456 734.224 558.874 734.224 558.874C734.224 558.874 714.347 558.459 707.724 556.387C701.101 554.314 708.689 544.079 719.456 545.064C723.379 545.42 726.034 544.559 727.827 543.328C729.7 542.043 731.006 540.085 731.472 537.861L754.78 539.241L758.017 547.506L762.381 558.731Z" fill="#3F3D56"/>
<path opacity="0.1" d="M758.381 551.58C758.381 551.58 731.527 547.049 728.1 543.452C729.957 542.138 731.251 540.135 731.713 537.861L754.819 539.272L758.028 547.724L758.381 551.58Z" fill="black"/>
<path d="M718.387 396.179L718.664 436.711C718.664 436.711 719.625 467.151 719.625 471.305C719.625 475.459 719.76 484.721 719.76 484.721C719.76 484.721 721.823 496.066 723.061 499.804C724.299 503.543 725.26 520.573 725.26 520.573C725.26 520.573 728.148 525.279 726.91 527.064C725.672 528.849 731.72 532.736 731.72 532.736C731.72 532.736 727.852 538.136 727.6 541.732C727.349 545.328 758.381 550.436 758.381 550.436L746.292 425.645L736.666 394.381L718.387 396.179Z" fill="#032967"/>
<path opacity="0.1" d="M718.387 396.179L718.664 436.711C718.664 436.711 719.625 467.151 719.625 471.305C719.625 475.459 719.76 484.721 719.76 484.721C719.76 484.721 721.823 496.066 723.061 499.804C724.299 503.543 725.26 520.573 725.26 520.573C725.26 520.573 728.148 525.279 726.91 527.064C725.672 528.849 731.72 532.736 731.72 532.736C731.72 532.736 727.852 538.136 727.6 541.732C727.349 545.328 758.381 550.436 758.381 550.436L746.292 425.645L736.666 394.381L718.387 396.179Z" fill="black"/>
<path opacity="0.1" d="M775.522 561.591C766.573 583.327 745.292 566.552 745.292 566.552C745.292 566.552 745.292 566.133 745.24 565.413C746.474 564.255 747.206 563.45 747.206 563.45L774.462 557.867C774.462 557.867 774.905 559.451 775.522 561.591Z" fill="black"/>
<path d="M776.354 559.77C767.481 582.498 745.453 565.445 745.453 565.445C745.453 565.445 744.757 553.679 746.148 548.282C747.539 542.886 744.621 526.684 744.621 526.684C744.621 526.684 742.957 512.287 741.436 508.969C739.915 505.651 740.051 499.001 740.051 498.449C740.051 497.897 740.604 493.462 739.356 490.416C738.108 487.371 737.406 479.896 737.406 479.896C737.406 479.896 737.406 469.376 736.158 463.149L731.862 441.719L724.101 397.834L726.525 397.419L769.964 389.808C769.964 389.808 778.141 431.368 775.366 435.628C774.768 436.563 774.241 438.609 773.806 441.245C772.22 450.674 771.628 467.604 771.628 467.604C771.628 467.604 777.03 476.046 774.956 482C772.883 487.955 776.906 497.78 776.906 497.78C776.906 497.78 778.154 536.542 775.795 540.418C773.435 544.295 776.354 559.77 776.354 559.77Z" fill="#032967"/>
<path d="M772.093 276.705C772.093 276.705 732.487 304.272 741.411 290.485C746.219 283.062 745.336 273.608 743.452 266.468C742.499 262.837 741.184 259.309 739.526 255.934C739.526 255.934 773.179 241.786 768.718 254.467C767.672 257.421 767.227 260.55 767.409 263.675C767.676 268.372 769.302 272.894 772.093 276.705Z" fill="#D28690"/>
<path d="M701.176 339.933C701.176 339.933 684.901 335.173 682.19 339.842C679.48 344.512 683.005 354.76 687.916 356.409C692.828 358.058 704.103 350.825 704.103 350.825L701.176 339.933Z" fill="#D28690"/>
<path d="M720.517 332.074L713.586 338.383C713.586 338.383 701.526 339.476 698.061 338.653C698.061 338.653 701.253 359.765 696.676 362.37L724.672 356.749L720.517 332.074Z" fill="#032967"/>
<path opacity="0.1" d="M720.517 332.074L713.586 338.383C713.586 338.383 701.526 339.476 698.061 338.653C698.061 338.653 701.253 359.765 696.676 362.37L724.672 356.749L720.517 332.074Z" fill="black"/>
<path opacity="0.1" d="M631.542 240.45C631.542 245.951 629.346 251.226 625.437 255.116C621.527 259.006 616.225 261.191 610.696 261.191C600 256.077 589.85 251.916 589.85 240.45C589.739 237.66 590.196 234.876 591.193 232.265C592.19 229.654 593.706 227.271 595.651 225.258C597.596 223.244 599.93 221.642 602.513 220.548C605.095 219.454 607.873 218.89 610.68 218.89C613.487 218.89 616.265 219.454 618.847 220.548C621.43 221.642 623.764 223.244 625.709 225.258C627.654 227.271 629.171 229.654 630.167 232.265C631.164 234.876 631.621 237.66 631.51 240.45H631.542Z" fill="black"/>
<path d="M631.542 239.741C631.545 244.657 629.837 249.417 626.719 253.18C623.6 256.943 619.272 259.468 614.497 260.311C609.723 261.153 604.808 260.258 600.621 257.783C596.433 255.309 593.241 251.414 591.608 246.785C589.975 242.156 590.006 237.092 591.695 232.484C593.384 227.876 596.622 224.021 600.839 221.599C605.057 219.176 609.982 218.342 614.746 219.244C619.51 220.146 623.807 222.725 626.88 226.526C629.889 230.255 631.536 234.923 631.542 239.741Z" fill="#FFD6D6"/>
<path opacity="0.1" d="M643.54 366.544C641.487 367.823 639.337 368.941 637.112 369.888C637.112 369.888 626.603 368.359 625.085 370.161C623.567 371.963 610.165 372.659 610.165 372.659C610.165 372.659 589.698 371.69 586.656 369.055C585.715 368.291 584.669 367.669 583.549 367.208L583.886 361.939C583.886 361.939 636.619 358.609 640.861 362.674C641.965 363.804 642.871 365.112 643.54 366.544Z" fill="black"/>
<path d="M646.338 362.813C645.924 365.159 637.366 368.749 637.366 368.749C637.366 368.749 626.88 367.232 625.366 369.027C623.851 370.822 610.478 371.516 610.478 371.516C610.478 371.516 590.055 370.544 587.02 367.919C583.984 365.295 577.219 364.031 577.219 364.031C577.219 364.031 573.769 339.447 575.155 334.062C576.54 328.678 573.083 313.891 572.255 308.642C571.426 303.393 574.598 288.892 578.462 286.546C582.327 284.2 587.848 276.321 591.156 273.975C593.946 271.999 597.027 269.439 597.927 268.668L598.192 268.448C598.192 268.448 598.749 264.165 600.956 261.968C603.163 259.771 623.443 275.919 623.443 275.919C623.443 275.919 623.585 277.163 624.964 274.818C625.275 274.293 627.948 278.155 628.414 279.788C628.414 279.788 639.451 299.13 640.143 303.115C640.836 307.1 643.729 320.105 644.28 323.28C644.422 324.096 644.655 326.96 644.927 330.797C644.979 331.548 645.024 332.345 645.082 333.175C645.49 339.538 645.93 347.663 646.196 353.806C646.196 354.506 646.254 355.18 646.273 355.828C646.413 358.154 646.435 360.485 646.338 362.813Z" fill="#DCE6F2"/>
<path opacity="0.1" d="M576.121 313.21C576.121 313.21 583.625 322.357 586.083 322.357C588.542 322.357 576.121 313.21 576.121 313.21Z" fill="black"/>
<path opacity="0.1" d="M592.119 333.217C592.119 333.217 579.767 346.546 581.415 348.996C583.063 351.446 592.119 333.217 592.119 333.217Z" fill="black"/>
<path opacity="0.1" d="M582.978 360.084C582.978 360.084 597.187 344.358 597.833 338.934L582.978 360.084Z" fill="black"/>
<path opacity="0.1" d="M600.689 361.227C600.689 361.227 617.489 352.41 618.9 345.412C620.31 338.414 600.689 361.227 600.689 361.227Z" fill="black"/>
<path opacity="0.1" d="M621.819 277.286L619.544 282.815L623.331 284.612L627.053 295.06C627.053 295.06 637.316 315.67 636.902 326.39C636.489 337.111 638.764 353.224 638.764 353.224L644.683 352.12L641.891 320.589C641.457 315.707 640.239 310.928 638.285 306.436C633.555 295.56 624.753 275.482 624.197 275.482C623.441 275.482 623.971 275.761 623.971 275.761L621.819 277.286Z" fill="black"/>
<path d="M622.389 276.708L620.115 282.243L623.908 284.041L627.623 294.488C627.623 294.488 637.883 315.098 637.469 325.819C637.056 336.539 639.33 352.652 639.33 352.652L645.255 351.549L642.457 320.017C642.027 315.135 640.812 310.355 638.858 305.864C634.129 294.982 625.329 274.91 624.78 274.91C624.018 274.91 624.547 275.189 624.547 275.189L622.389 276.708Z" fill="#104BA9"/>
<path d="M689.833 357.788C686.947 357.566 680.022 354.024 677.272 352.552L676.107 351.897L676.25 341.09C676.93 340.685 677.634 340.324 678.359 340.01C682.035 338.386 689.574 336.18 693.353 343.282C698.452 352.807 693.489 358.037 689.833 357.788Z" fill="#FFD6D6"/>
<path opacity="0.1" d="M626.972 226.547C626.672 226.733 626.343 226.867 625.998 226.942C623.573 227.468 620.814 225.398 618.736 226.728C617.468 227.546 617.173 229.24 617.004 230.732C616.707 233.328 616.411 235.907 616.115 238.468C616.052 239.38 615.859 240.278 615.539 241.136C614.513 243.465 611.696 244.562 609.127 244.523C608.121 244.594 607.127 244.268 606.362 243.615C605.911 243.16 605.669 242.524 605.173 242.109C601.904 239.39 600.911 246.055 601.774 247.95C603.159 251.046 608.081 254.031 606.016 257.964C605.668 258.603 605.142 259.128 604.499 259.476C601.387 258.508 598.545 256.831 596.202 254.578C593.858 252.326 592.078 249.56 591.003 246.503C589.928 243.445 589.588 240.18 590.01 236.969C590.432 233.758 591.605 230.689 593.435 228.008C595.264 225.327 597.7 223.108 600.547 221.529C603.395 219.949 606.574 219.052 609.833 218.91C613.092 218.768 616.339 219.385 619.314 220.711C622.29 222.037 624.912 224.035 626.972 226.547Z" fill="black"/>
<path d="M604.847 242.136C605.332 242.542 605.578 243.175 606.024 243.626C606.782 244.275 607.766 244.6 608.762 244.53C611.305 244.568 614.095 243.484 615.104 241.155C615.426 240.306 615.62 239.415 615.68 238.509L616.56 230.818C616.729 229.334 617.013 227.65 618.275 226.837C620.333 225.546 623.064 227.572 625.465 227.05C626.331 226.83 627.08 226.291 627.561 225.54C628.042 224.79 628.218 223.886 628.054 223.01C627.776 221.778 626.831 220.804 626.346 219.629C626.051 218.727 625.816 217.807 625.64 216.874C624.301 211.867 618.405 209.054 613.279 209.892C610.432 210.363 607.785 211.718 604.931 212.131C602.886 212.428 600.795 212.235 598.731 212.454C596.813 212.651 594.948 213.2 593.23 214.074C592.779 214.273 592.38 214.573 592.065 214.951C591.772 215.462 591.574 216.022 591.482 216.603C590.79 219.184 588.564 221.088 586.952 223.262C585.109 225.764 584.042 228.75 583.885 231.85C583.821 232.642 583.896 233.439 584.105 234.206C584.241 234.657 584.454 235.096 584.558 235.561C584.875 236.974 584.15 238.387 583.794 239.793C583.352 241.588 583.511 243.478 584.247 245.175C586.732 250.872 594.919 252.776 596.621 258.757C598.132 259.48 599.765 259.917 601.436 260.048C603.106 260.08 604.905 259.364 605.681 257.886C607.72 254.015 602.853 251.008 601.481 247.937C600.62 246.046 601.585 239.426 604.847 242.136Z" fill="#353045"/>
<path opacity="0.1" d="M768.828 254.418C767.778 257.345 767.332 260.446 767.515 263.542C766.503 264.381 765.4 261.87 764.232 262.517C761.028 264.324 757.325 268.623 753.36 268.623C749.921 268.625 746.53 267.832 743.466 266.31C742.51 262.712 741.19 259.216 739.526 255.873C739.526 255.873 773.305 241.854 768.828 254.418Z" fill="black"/>
<path d="M774.95 246.043C774.95 250.282 773.676 254.427 771.291 257.952C768.905 261.477 765.514 264.224 761.547 265.847C757.58 267.469 753.214 267.894 749.003 267.067C744.791 266.24 740.923 264.198 737.886 261.2C734.85 258.202 732.782 254.383 731.945 250.224C731.107 246.066 731.537 241.756 733.18 237.839C734.823 233.922 737.606 230.574 741.176 228.219C744.747 225.864 748.944 224.606 753.238 224.606C756.09 224.606 758.914 225.159 761.548 226.236C764.183 227.313 766.576 228.892 768.593 230.883C770.609 232.874 772.208 235.237 773.299 237.838C774.389 240.439 774.951 243.227 774.95 246.043Z" fill="#D28690"/>
<path d="M773.807 281.396C773.807 281.396 769.758 285.832 769.208 286.197C768.659 286.561 756.919 336.28 756.712 336.859C756.505 337.438 742.734 382.33 742.734 382.33L720.672 393.238L722.515 338.329L738.685 293.046C738.685 293.046 744.022 286.945 745.671 284.727C747.32 282.509 767.915 269.194 767.915 269.194L771.433 276.486L773.807 281.396Z" fill="#F0F3F7"/>
<path opacity="0.1" d="M770.951 277.678L745.647 296.062L745.24 285.966C746.892 283.734 767.428 270.338 767.428 270.338L770.951 277.678Z" fill="black"/>
<path d="M771.522 276.534L746.205 294.918L745.812 284.829C747.464 282.59 768.011 269.194 768.011 269.194L771.522 276.534Z" fill="#F0F3F7"/>
<path d="M744.967 280.056L745.812 284.51L740.157 290.294L744.67 280.121C744.67 280.121 734.998 286.905 732.097 288.704C729.195 290.502 726.293 296.592 726.184 298.254C726.074 299.916 721.509 324.963 721.509 324.963C721.509 324.963 718.072 334.234 719.039 336.863C720.007 339.493 713.816 422.392 713.816 422.392C714.644 420.782 715.814 419.375 717.242 418.272C718.671 417.169 720.324 416.397 722.083 416.01L719.878 367.02C719.878 367.02 722.56 334.429 722.695 334.013C722.831 333.598 728.95 314.705 728.95 314.705L744.967 280.056Z" fill="#032967"/>
<path opacity="0.1" d="M746.383 285.199L745.941 294.306C745.941 294.306 739.776 313.788 737.703 316.975C735.631 320.162 729.322 339.162 729.322 339.162L725.768 372.167L719.674 374.945L716.673 369.409L721.662 337.536C721.662 337.536 731.076 310.639 732.467 307.862L739.412 293.213L746.383 285.199Z" fill="black"/>
<path d="M745.812 284.628L745.377 293.736C745.377 293.736 739.215 313.221 737.137 316.409C735.06 319.596 728.769 338.6 728.769 338.6L725.237 371.603L719.147 374.374L716.102 368.831L721.088 336.954C721.088 336.954 730.496 310.046 731.878 307.275L738.871 292.643L745.812 284.628Z" fill="#447BD4"/>
<path d="M674.393 354.003L686.035 362.37C686.035 362.37 694.248 357.59 689.465 354.498C684.682 351.406 680.439 350.938 678.902 350.938C677.365 350.938 674.393 354.003 674.393 354.003Z" fill="#D28690"/>
<path d="M683.255 338.908C682.99 339.076 682.771 339.312 682.62 339.591C682.468 339.871 682.39 340.185 682.392 340.505C682.392 343.083 682.677 349.908 684.794 346.827C687.391 343.056 686.917 339.67 690.884 342.115C693.35 343.682 695.507 345.705 697.247 348.079L696.143 339.981C696.143 339.981 687.988 335.872 683.255 338.908Z" fill="#D28690"/>
<path opacity="0.1" d="M774.947 435.43C774.35 436.361 773.824 438.398 773.389 441.023C749.117 448.271 731.358 432.947 731.358 432.947C729.21 425.697 727.454 418.337 726.099 410.899C725.664 408.352 725.761 403.412 726.164 397.386L769.558 389.808C769.558 389.808 777.719 431.156 774.947 435.43Z" fill="black"/>
<path d="M799.808 311.908C798.706 315.5 799.121 322.806 799.121 322.806L789.166 369.713C789.166 369.713 784.328 405.858 783.498 410.686C782.668 415.514 781.286 436.761 781.286 436.761C753.082 450.559 731.35 431.797 731.35 431.797C729.204 424.538 727.45 417.169 726.096 409.722C724.709 401.529 728.794 368.704 730.727 354.123C731.304 349.806 731.693 347.088 731.693 347.088L738.95 320.185C738.95 320.185 747.868 297.489 751.188 290.868C754.509 284.247 767.842 269.375 767.842 269.375C769.496 268.327 772.142 272.029 774.107 275.401C775.592 277.95 776.701 280.319 776.701 280.319C776.701 280.319 793.291 287.49 795.774 291.321C798.258 295.152 797.85 303.048 798.129 303.462C798.407 303.876 800.917 308.322 799.808 311.908Z" fill="#032967"/>
<path opacity="0.1" d="M760.941 295.31C760.941 295.31 762.187 302.643 758.993 304.856C755.91 306.998 732.955 352.122 731.527 354.938C732.105 350.603 732.495 347.877 732.495 347.877L739.759 320.906C739.759 320.906 748.691 298.146 752.008 291.5C755.326 284.854 768.685 269.947 768.685 269.947C770.341 268.896 772.983 272.608 774.95 275.989C771.983 282.148 765.796 293.791 760.941 295.31Z" fill="black"/>
<path d="M760.383 294.74C760.383 294.74 761.622 302.074 758.435 304.288C755.248 306.501 732.404 351.55 730.956 354.367C731.534 350.038 731.923 347.312 731.923 347.312L739.187 320.332C739.187 320.332 748.113 297.57 751.437 290.93C754.761 284.291 768.108 269.376 768.108 269.376C769.763 268.324 772.412 272.037 774.378 275.418C771.425 281.571 765.232 293.221 760.383 294.74Z" fill="#032967"/>
<path d="M793.233 360.647L785.415 401.196V401.203L784.668 405.083V405.09L782.984 413.816L775.803 412.301L772.456 411.594L726.137 401.812L722.732 401.093L714.959 399.454L716.48 389.386L717.11 385.201L722.719 348.079L793.233 360.647Z" fill="#104BA9"/>
<path d="M749.899 393.81C749.899 393.81 731.521 400.532 735.527 408.516C739.534 416.5 765.237 402.352 765.237 402.352L749.899 393.81Z" fill="#D28690"/>
<path opacity="0.1" d="M763.523 450.401C763.523 450.976 764.19 458.334 766.843 460.924C769.497 463.513 763.523 450.401 763.523 450.401Z" fill="black"/>
<path opacity="0.1" d="M744.669 475.553C744.669 475.553 748.014 484.889 761.272 488.711C774.53 492.534 744.669 475.553 744.669 475.553Z" fill="black"/>
<path opacity="0.1" d="M774.95 246.014C774.951 249.788 773.955 253.495 772.061 256.761C770.168 260.028 767.444 262.739 764.165 264.62C762.929 263.931 761.832 263.018 760.93 261.929C759.992 260.793 759.261 259.244 759.824 257.889C760.277 256.798 761.473 256.108 761.765 254.979C761.902 254.288 761.866 253.574 761.661 252.9C761.422 251.836 761.195 250.771 760.962 249.712C760.762 248.809 760.406 247.744 759.507 247.524C758.607 247.305 757.857 248.054 757.152 248.609C755.424 249.97 752.112 250.893 750.035 249.777C747.958 248.66 748.54 244.924 748.204 242.904C748.2 242.728 748.157 242.556 748.079 242.398C748 242.241 747.888 242.103 747.751 241.994C747.449 241.894 747.126 241.871 746.813 241.929C745.693 241.929 744.794 240.929 744.471 239.857C744.241 238.764 744.116 237.651 744.095 236.534C743.972 235.417 743.565 234.236 742.607 233.662C741.842 233.307 740.994 233.168 740.155 233.262L736.099 233.307C738.79 229.678 742.559 226.987 746.872 225.618C751.184 224.249 755.819 224.27 760.118 225.68C764.417 227.089 768.161 229.815 770.818 233.469C773.475 237.123 774.91 241.52 774.918 246.034L774.95 246.014Z" fill="black"/>
<path d="M757.577 248.83C758.285 248.272 759.064 247.533 759.941 247.747C760.818 247.961 761.194 249.044 761.395 249.939L762.097 253.137C762.304 253.816 762.342 254.535 762.207 255.232C761.876 256.373 760.681 257.061 760.22 258.157C759.655 259.519 760.395 261.076 761.33 262.211C763.036 264.264 765.394 265.672 768.012 266.2C768.695 266.364 769.406 266.379 770.096 266.245C771.641 265.888 772.693 264.468 773.524 263.138C777.816 256.458 781.511 249.135 782.264 241.235C782.471 239.624 782.396 237.989 782.043 236.403C781.691 235.17 781.195 233.984 780.563 232.868C779.458 230.589 778.054 228.466 776.388 226.557C773.434 223.379 769.356 221.427 765.168 220.272C760.457 218.966 755.539 218.581 750.682 219.137C749.383 219.286 748.137 219.5 746.857 219.585C745.251 219.659 743.642 219.633 742.04 219.507L732.482 218.936C731.936 220.045 732.482 221.362 733.131 222.399C733.78 223.437 734.585 224.514 734.534 225.746C734.482 226.979 733.605 227.952 732.93 228.989C732.255 230.027 731.742 231.37 732.417 232.382C733.092 233.393 734.469 233.458 735.663 233.445L740.481 233.393C741.32 233.307 742.167 233.453 742.929 233.815C743.89 234.392 744.299 235.586 744.423 236.701C744.449 237.824 744.575 238.941 744.799 240.042C745.13 241.118 746.026 242.137 747.15 242.124C747.464 242.061 747.79 242.086 748.091 242.195C748.229 242.304 748.341 242.441 748.42 242.598C748.498 242.755 748.541 242.928 748.546 243.103C748.883 245.133 748.26 248.882 750.383 250.011C752.506 251.139 755.844 250.199 757.577 248.83Z" fill="#663D5C"/>
<path opacity="0.1" d="M785.175 290.976C782.777 290.723 780.364 291.288 778.332 292.579C776.3 293.869 774.769 295.809 773.991 298.079C771.382 305.467 767.033 318.797 768.122 324.064C769.654 331.529 771.461 343.977 771.461 343.977C771.461 343.977 779.384 348.517 775.373 353.097C771.363 357.676 770.228 364.163 770.228 364.163C770.228 364.163 765.083 366.375 763.974 371.077C762.866 375.78 755.353 382.273 755.353 382.273L744.098 393.475C744.098 393.475 762.722 412.286 766.478 413.246L778.015 399.832L791.637 381.858L803.454 369.534C803.454 369.534 806.232 363.047 804.843 350.723C803.454 338.399 798.028 326.665 798.028 326.665L798.446 322.513C798.446 322.513 799.724 292.773 785.175 290.976Z" fill="black"/>
<path d="M785.947 290.975C783.573 290.725 781.184 291.291 779.172 292.582C777.161 293.872 775.646 295.81 774.875 298.078C772.29 305.466 767.979 318.796 769.058 324.063C770.57 331.529 772.361 343.976 772.361 343.976C772.361 343.976 780.214 348.517 776.239 353.096C772.264 357.676 771.146 364.162 771.146 364.162C771.146 364.162 766.046 366.374 764.941 371.077C763.836 375.78 756.403 382.273 756.403 382.273L745.24 393.475C745.24 393.475 763.7 412.286 767.423 413.246L778.857 399.832L792.326 381.857L804.038 369.533C804.038 369.533 806.798 363.047 805.415 350.722C804.032 338.398 798.667 326.664 798.667 326.664L799.081 322.512C799.081 322.512 800.367 292.772 785.947 290.975Z" fill="#032967"/>
<path opacity="0.1" d="M774.379 333.217C774.379 333.217 786.29 348.022 791.338 344.748C796.387 341.475 774.379 333.217 774.379 333.217Z" fill="black"/>
<path opacity="0.1" d="M778.95 322.356C780.207 322.772 790.54 337.055 795.843 335.364C801.147 333.673 778.95 322.356 778.95 322.356Z" fill="black"/>
<path opacity="0.1" d="M781.807 346.936C781.807 346.936 782.501 354.76 790.941 353.696C799.38 352.633 781.807 346.936 781.807 346.936Z" fill="black"/>
<path opacity="0.1" d="M744.673 280.627L740.099 290.916L745.812 285.066L744.673 280.627Z" fill="black"/>
<path d="M744.673 280.627L740.099 290.345L745.812 284.819L744.673 280.627Z" fill="#F0F3F7"/>
<path opacity="0.3" d="M726.386 401.813L722.961 401.095L716.673 389.412L717.307 385.235L726.386 401.813Z" fill="black"/>
<path opacity="0.3" d="M785.235 401.241L784.51 405.239V405.246L775.911 412.674L772.665 411.946L785.235 401.241Z" fill="black"/>
<path opacity="0.1" d="M646.397 355.83C644.682 356.115 643.019 356.373 641.499 356.567C633.053 357.672 612.966 347.753 612.966 347.753C612.966 347.753 588.455 327.367 581.393 308.086C574.331 288.805 589.838 285.91 589.838 285.91C595.685 282.602 608.399 291.829 610.199 293.347C611.998 294.866 613.525 298.717 613.382 301.198C613.239 303.679 617.54 306.845 617.54 306.845C617.54 306.845 624.881 319.517 626.68 320.893C628.48 322.269 628.896 323.51 629.448 325.855C630 328.201 634.846 330.126 636.925 329.984C639.004 329.842 641.473 330.676 641.473 331.774C641.473 332.659 643.506 333.099 645.176 333.241C645.67 340.303 646.157 349.556 646.397 355.83Z" fill="black"/>
<path opacity="0.1" d="M645.826 354.298C644.537 354.507 643.3 354.696 642.14 354.852C633.762 355.966 613.841 345.968 613.841 345.968C613.841 345.968 589.526 325.419 582.521 305.983C575.515 286.548 590.899 283.63 590.899 283.63C596.699 280.295 609.305 289.596 611.09 291.126C612.875 292.657 614.389 296.539 614.254 299.04C614.119 301.541 618.372 304.733 618.372 304.733C618.372 304.733 625.654 317.505 627.44 318.892C629.225 320.28 629.637 321.53 630.191 323.894C630.746 326.259 635.547 328.193 637.609 328.056C639.671 327.92 642.12 328.753 642.12 329.861C642.12 330.512 643.268 330.948 644.544 331.163C644.595 331.919 644.64 332.72 644.698 333.554C645.124 339.956 645.562 348.124 645.826 354.298Z" fill="black"/>
<path opacity="0.1" d="M677.822 340.076L677.423 352.652H676.994L676.107 351.996L676.216 341.159C676.733 340.754 677.27 340.392 677.822 340.076Z" fill="black"/>
<path d="M589.828 284.772C589.828 284.772 574.336 287.69 581.391 307.124C588.446 326.559 612.933 347.114 612.933 347.114C612.933 347.114 632.994 357.104 641.438 355.997C649.881 354.89 662.738 351.972 664.4 352.389C666.061 352.806 677.27 352.806 677.27 352.806L677.821 339.78L664.841 339.083L658.202 337.696C658.202 337.696 655.846 335.742 654.463 336.029C653.081 336.315 650.18 334.361 650.18 334.361C650.18 334.361 647.96 332.557 646.286 332.557C644.611 332.557 641.444 332.14 641.444 331.033C641.444 329.926 638.952 329.079 636.901 329.229C634.85 329.379 629.95 327.425 629.379 325.035C628.808 322.645 628.412 321.427 626.614 320.039C624.817 318.652 617.483 305.874 617.483 305.874C617.483 305.874 613.193 302.683 613.329 300.188C613.465 297.694 611.947 293.799 610.149 292.268C608.351 290.738 595.63 281.444 589.828 284.772Z" fill="#DCE6F2"/>
<path opacity="0.1" d="M629.256 329.215C629.256 329.215 623.445 335.002 624.928 336.075L629.256 329.215Z" fill="black"/>
<path opacity="0.1" d="M636.113 333.789C636.113 333.789 628.031 340.182 630.197 340.628C632.363 341.075 636.113 333.789 636.113 333.789Z" fill="black"/>
<path opacity="0.1" d="M622.972 342.935C624.064 343.495 640.264 353.366 646.397 353.222L622.972 342.935Z" fill="black"/>
<path opacity="0.1" d="M623.543 277.249C623.543 277.249 620.686 286.915 619.596 286.915C618.741 286.915 604.393 274.943 598.404 269.91L598.666 269.686C598.666 269.686 599.208 265.343 601.382 263.115C603.557 260.888 623.543 277.249 623.543 277.249Z" fill="black"/>
<path d="M622.972 276.105C622.972 276.105 620.122 285.771 619.031 285.771C618.17 285.771 603.821 273.799 597.833 268.765L598.094 268.542C598.094 268.542 598.643 264.199 600.818 261.971C602.992 259.744 622.972 276.105 622.972 276.105Z" fill="#DCE6F2"/>
<g opacity="0.15">
<path opacity="0.15" d="M584.115 245.228C586.06 249.671 591.416 251.824 594.521 255.366C592.673 251.014 587.273 248.88 584.115 245.228Z" fill="black"/>
<path opacity="0.15" d="M603.935 255.462C603.164 256.948 601.342 257.668 599.682 257.635C598.207 257.529 596.762 257.16 595.416 256.545C595.904 257.266 596.276 258.058 596.518 258.894C598.032 259.621 599.668 260.061 601.342 260.191C603.021 260.23 604.824 259.51 605.595 258.018C606.833 255.65 605.543 253.626 604.033 251.713C604.314 252.301 604.452 252.947 604.435 253.599C604.418 254.251 604.247 254.89 603.935 255.462Z" fill="black"/>
<path opacity="0.15" d="M627.995 222.951C627.716 221.706 626.77 220.726 626.284 219.552C625.986 218.644 625.75 217.716 625.577 216.776C625.209 215.446 624.526 214.225 623.586 213.215C623.717 213.534 623.827 213.861 623.917 214.194C624.099 215.139 624.341 216.07 624.643 216.984C625.13 218.158 626.076 219.137 626.355 220.383C626.519 221.262 626.343 222.172 625.861 222.926C625.379 223.68 624.629 224.223 623.762 224.443C621.363 224.969 618.627 222.893 616.565 224.229C615.301 225.04 615.009 226.733 614.84 228.225C614.551 230.82 614.257 233.399 613.959 235.964C613.9 236.873 613.708 237.77 613.388 238.623C612.37 240.958 609.576 242.055 607.028 242.016C606.032 242.082 605.05 241.756 604.292 241.108C603.923 240.585 603.527 240.083 603.105 239.603C599.863 236.878 598.878 243.54 599.734 245.441C600.162 246.296 600.694 247.095 601.316 247.821C600.603 245.681 601.601 239.518 604.765 242.158C605.187 242.637 605.581 243.14 605.945 243.663C606.706 244.311 607.69 244.637 608.687 244.572C611.235 244.61 614.03 243.514 615.048 241.179C615.368 240.323 615.56 239.425 615.618 238.513C615.912 235.918 616.206 233.341 616.5 230.781C616.669 229.289 616.96 227.596 618.218 226.785C620.286 225.449 623.022 227.524 625.421 226.993C626.282 226.769 627.025 226.229 627.503 225.479C627.981 224.729 628.157 223.826 627.995 222.951Z" fill="black"/>
</g>
<path opacity="0.1" d="M771.5 264.16C770.812 264.289 770.104 264.272 769.423 264.109C766.817 263.58 764.469 262.174 762.77 260.122C761.832 258.98 761.094 257.422 761.664 256.058C762.117 254.961 763.307 254.273 763.605 253.13C763.74 252.433 763.702 251.713 763.495 251.033L762.796 247.833C762.596 246.924 762.246 245.853 761.347 245.638C760.447 245.424 759.696 246.164 758.991 246.723C757.263 248.092 753.943 249.027 751.872 247.898C749.801 246.768 750.377 243.016 750.041 240.983C750.035 240.808 749.992 240.636 749.914 240.479C749.835 240.322 749.724 240.184 749.588 240.075C749.284 239.969 748.959 239.944 748.643 240.003C747.523 240.003 746.63 238.997 746.3 237.919C746.076 236.818 745.953 235.699 745.931 234.576C745.802 233.459 745.401 232.264 744.436 231.687C743.676 231.328 742.833 231.182 741.997 231.265L737.195 231.317C736.011 231.317 734.606 231.239 733.959 230.252C733.312 229.265 733.791 227.863 734.47 226.857C735.15 225.85 736.011 224.85 736.069 223.61C736.127 222.37 735.325 221.299 734.671 220.26C734.296 219.692 734.02 219.065 733.856 218.404L732.477 218.319C731.94 219.423 732.477 220.741 733.124 221.786C733.771 222.831 734.58 223.903 734.522 225.13C734.464 226.357 733.603 227.343 732.924 228.376C732.244 229.408 731.746 230.758 732.419 231.771C733.092 232.784 734.457 232.855 735.655 232.842L740.456 232.784C741.293 232.703 742.137 232.851 742.896 233.212C743.861 233.79 744.268 234.985 744.391 236.101C744.412 237.225 744.537 238.345 744.767 239.445C745.09 240.516 745.99 241.542 747.109 241.522C747.423 241.467 747.746 241.491 748.048 241.594C748.185 241.704 748.296 241.844 748.374 242.002C748.452 242.16 748.496 242.333 748.501 242.509C748.837 244.535 748.216 248.294 750.332 249.423C752.448 250.553 755.749 249.618 757.451 248.248C758.156 247.69 758.939 246.95 759.813 247.158C760.686 247.365 761.062 248.456 761.256 249.352L761.961 252.559C762.166 253.239 762.202 253.959 762.065 254.656C761.741 255.792 760.544 256.487 760.091 257.577C759.528 258.941 760.259 260.505 761.198 261.642C762.908 263.702 765.273 265.109 767.896 265.628C768.577 265.791 769.285 265.808 769.973 265.68C771.085 265.339 772.04 264.612 772.665 263.628C772.312 263.874 771.917 264.054 771.5 264.16Z" fill="black"/>
<path d="M290.35 99.0974C290.35 91.2841 296.151 85.1924 304.039 85.1924C308.504 85.1924 311.634 86.6491 314.347 89.077L310.174 94.2858C308.379 92.6966 306.543 91.7696 304.039 91.7696C300.366 91.7696 297.528 95.0362 297.528 99.1856C297.528 103.512 300.408 106.602 304.414 106.602C306.125 106.602 307.419 106.204 308.462 105.498V102.232H303.454V96.8462H315.14V108.897C312.469 111.237 308.713 113.047 304.122 113.047C296.276 113.002 290.35 107.264 290.35 99.0974Z" fill="#092E69"/>
<path d="M318.918 107.299L328.431 99.4732C330.809 97.5279 331.685 96.2014 331.685 94.5655C331.685 92.8413 330.559 91.7801 328.848 91.7801C327.137 91.7801 325.802 92.8413 323.8 95.3172L319.043 91.0727C321.755 87.2704 324.425 85.1924 329.39 85.1924C334.939 85.1924 338.736 88.7295 338.736 93.9908C338.736 98.3679 336.65 100.667 332.853 103.585L328.514 106.857H338.986V113.047H318.918V107.299Z" fill="#092E69"/>
<path d="M342.805 85.1924H354.785C358.667 85.1924 361.338 86.3012 363.049 88.164C364.552 89.8052 365.303 91.9342 365.303 94.7728C365.303 99.0308 363.216 101.869 360.085 103.333L366.137 113.047H357.999L352.906 104.575H349.818V113.047H342.764V85.1924H342.805ZM354.492 98.5872C356.872 98.5872 358.249 97.301 358.249 95.2164C358.249 93.043 356.788 91.8898 354.451 91.8898H349.859V98.5872H354.492Z" fill="#092E69"/>
<path d="M373.173 106.437C374.107 106.437 374.884 106.745 375.503 107.362C376.122 107.966 376.431 108.744 376.431 109.695C376.431 110.645 376.122 111.429 375.503 112.046C374.884 112.65 374.107 112.952 373.173 112.952C372.228 112.952 371.445 112.644 370.826 112.027C370.219 111.41 369.915 110.633 369.915 109.695C369.915 108.756 370.219 107.979 370.826 107.362C371.445 106.745 372.228 106.437 373.173 106.437Z" fill="#092E69"/>
<path fill-rule="evenodd" clip-rule="evenodd" d="M404.608 101.292H393.157V107.803H406.597V113.041H386.441V85.1805H406.557V90.4556H393.157V96.1658H404.608V101.292ZM422.994 103.912L417.642 113.041H409.806L418.693 98.9979L410.028 85.1805H417.782L422.994 94.1551L428.205 85.1805H435.959L427.294 98.9979L436.181 113.041H428.345L422.994 103.912ZM446.123 113.041H439.408V85.1805H451.076C453.292 85.1805 455.255 85.5602 456.956 86.3309C458.671 87.1019 460.003 88.2081 460.934 89.653C461.865 91.0837 462.327 92.7134 462.327 94.5302C462.327 97.2921 461.307 99.5021 459.261 101.118C457.238 102.714 454.461 103.489 450.977 103.489H446.123V113.041ZM454.432 97.26L454.434 97.2581C455.167 96.6479 455.552 95.7702 455.552 94.5675C455.552 93.3252 455.165 92.3531 454.412 91.6142C453.662 90.8791 452.611 90.4798 451.212 90.4556H446.123V98.2139H451.076C452.605 98.2139 453.704 97.8763 454.432 97.26ZM489.891 91.3257C490.956 93.4098 491.483 95.8095 491.483 98.5147V99.725C491.483 102.441 490.97 104.841 489.932 106.912C488.893 108.986 487.398 110.593 485.451 111.724C483.518 112.853 481.304 113.413 478.821 113.413C476.363 113.413 474.157 112.859 472.212 111.743C470.265 110.626 468.757 109.033 467.691 106.973L467.691 106.972C466.626 104.901 466.092 102.532 466.079 99.8758L466.079 99.8739L466.079 98.5333C466.079 95.8163 466.599 93.4106 467.65 91.3263L467.65 91.3254C468.715 89.2288 470.216 87.6154 472.151 86.497C474.097 85.3681 476.31 84.8081 478.781 84.8081C481.251 84.8081 483.458 85.3679 485.39 86.497C487.339 87.6152 488.84 89.2286 489.891 91.3257ZM474.45 92.2217L474.449 92.2229C473.43 93.5839 472.887 95.6259 472.874 98.4048V99.725C472.874 102.45 473.41 104.51 474.434 105.95C475.444 107.368 476.888 108.082 478.821 108.082C480.716 108.082 482.134 107.396 483.129 106.04C484.138 104.653 484.675 102.596 484.688 99.8178C484.688 99.8173 484.688 99.8168 484.688 99.8163L484.688 98.4961C484.688 95.6924 484.15 93.625 483.131 92.2391C482.122 90.8685 480.69 90.1763 478.781 90.1763C476.885 90.1763 475.458 90.8626 474.45 92.2217ZM513.518 101.502L519.625 112.306V113.041H512.625L507.197 103.117H503.044V113.041H496.328V85.1805H507.46C510.925 85.1805 513.656 85.903 515.601 87.3995C517.561 88.9068 518.531 91.0402 518.531 93.7482C518.531 95.6565 518.086 97.2807 517.173 98.5976C516.34 99.8037 515.114 100.768 513.518 101.502ZM510.762 91.4527L510.759 91.4505C510.089 90.8118 509.015 90.4556 507.46 90.4556H503.044V97.8415H507.48C508.92 97.8415 509.981 97.5015 510.712 96.8726C511.44 96.2349 511.816 95.358 511.816 94.1951C511.816 92.9986 511.454 92.1005 510.762 91.4527ZM545.143 90.4556H536.275V113.041H529.56V90.4556H520.812V85.1805H545.143V90.4556Z" fill="#092E69"/>
<path d="M447.8 50.8642C448.446 51.5602 448.371 52.518 447.531 53.6957C446.698 54.8628 444.127 56.6017 441.973 58.0179C437.667 60.8486 430.986 63.3659 422.951 66.1332C414.915 68.9004 407.059 70.7701 400.858 71.5581C397.755 71.9523 394.265 72.0679 392.195 71.9006C390.105 71.7318 388.516 71.2754 387.87 70.5794C387.224 69.8834 387.36 68.8074 388.343 67.7495C389.612 66.3827 391.54 65.2546 393.694 63.8384C394.414 63.3655 395.199 62.884 396.047 62.3971L396.98 59.9041C386.429 65.0248 380.646 70.1708 383.214 72.9377C386.788 76.7893 405.19 74.5724 424.315 67.986C443.441 61.3996 456.048 53.557 452.473 49.7053C450.27 47.3306 442.43 46.6438 432.259 48.4846L434.81 49.6792C437.912 49.285 441.608 49.3773 443.679 49.5446C445.768 49.7134 447.154 50.1682 447.8 50.8642Z" fill="#092E69"/>
<path d="M441.208 55.0296L430.865 55.0293C430.843 57.4098 430.728 59.3922 430.366 61.7367C434.591 60.1009 436.873 59.1776 441.04 57.0876C441.134 56.3185 441.182 55.8096 441.208 55.0296Z" fill="#092E69"/>
<path d="M417.938 53.2111L429.141 53.2114C429.097 49.1117 428.526 45.0372 427.443 41.0989C424.324 41.8475 421.138 42.2472 417.938 42.2914L417.938 53.2111Z" fill="#104BA9"/>
<path d="M417.939 28.7739L417.939 40.4773C420.955 40.4326 423.959 40.0608 426.902 39.3671C424.866 33.38 421.63 29.3259 417.939 28.7739Z" fill="#447BD4"/>
<path d="M429.141 55.0276L417.938 55.0273L417.945 65.8679C422.123 64.7149 424.328 63.9303 428.424 62.4476C428.863 59.9206 429.114 57.6019 429.141 55.0276Z" fill="#092E69"/>
<path d="M435.671 37.9098C433.598 39.0911 431.401 40.0112 429.124 40.6512C430.24 44.7359 430.826 48.9606 430.865 53.2105L441.208 53.2108C441.02 47.6067 439.073 42.2259 435.671 37.9098Z" fill="#104BA9"/>
<path d="M434.508 36.5309C434.482 36.5038 434.458 36.4746 434.433 36.4466C434.297 36.2986 434.155 36.1559 434.016 36.0118C433.856 35.8456 433.697 35.6776 433.532 35.5162C433.389 35.3761 433.241 35.2436 433.095 35.104C432.927 34.9479 432.76 34.7906 432.588 34.6399C432.439 34.5073 432.286 34.3806 432.135 34.2533C431.962 34.1062 431.785 33.9599 431.607 33.8194C431.451 33.6957 431.293 33.576 431.135 33.4563C430.954 33.3198 430.773 33.1837 430.59 33.0538C430.428 32.9395 430.264 32.8278 430.101 32.7183C429.914 32.592 429.728 32.4683 429.538 32.3486C429.372 32.2435 429.203 32.1398 429.035 32.0392C428.842 31.923 428.649 31.8105 428.454 31.7005C428.281 31.6097 428.109 31.5108 427.936 31.4199C427.738 31.3144 427.538 31.2129 427.333 31.1132C427.16 31.0267 426.985 30.9425 426.807 30.8605C426.603 30.7652 426.396 30.6792 426.19 30.5883C426.012 30.5121 425.836 30.4367 425.656 30.3649C425.447 30.2807 425.235 30.2018 425.022 30.1247C424.843 30.0582 424.663 29.9921 424.481 29.93C424.266 29.8565 424.05 29.7895 423.829 29.7221C423.649 29.6667 423.469 29.6104 423.287 29.5599C423.218 29.5399 423.147 29.5244 423.077 29.5054C425.63 32.1145 427.525 35.3525 428.59 38.9265C430.64 38.3583 432.624 37.5552 434.508 36.5309Z" fill="#447BD4"/>
<path d="M392.944 53.2085L403.287 53.2088C403.326 48.9588 403.912 44.7342 405.029 40.6496C402.752 40.0099 400.555 39.0896 398.482 37.9079C395.08 42.2233 393.132 47.6044 392.944 53.2085Z" fill="#104BA9"/>
<path d="M416.267 55.0227L405.037 55.0225C405.076 59.5537 405.585 64.4772 406.468 68.8592C410.374 67.9576 412.477 67.4361 416.275 66.329L416.267 55.0227Z" fill="#092E69"/>
<path d="M416.215 28.7702C412.524 29.322 409.288 33.376 407.252 39.363C410.195 40.0572 413.199 40.4292 416.214 40.4736L416.215 28.7702Z" fill="#447BD4"/>
<path d="M416.214 42.2917C413.015 42.2473 409.829 41.8474 406.71 41.0987C405.627 45.037 405.055 49.1114 405.011 53.2111L416.214 53.2114L416.214 42.2917Z" fill="#104BA9"/>
<path d="M411.07 29.5057C411 29.5247 410.93 29.5402 410.86 29.5593C410.677 29.6107 410.497 29.6679 410.315 29.7233C410.099 29.7898 409.884 29.8567 409.666 29.9294C409.483 29.9919 409.303 30.0584 409.123 30.1244C408.912 30.2028 408.7 30.2809 408.491 30.3642C408.311 30.4369 408.133 30.5122 407.955 30.5893C407.749 30.6802 407.544 30.7711 407.341 30.8615C407.164 30.9435 406.988 31.0295 406.812 31.1159C406.613 31.2148 406.414 31.3154 406.217 31.42C406.045 31.5126 405.872 31.6075 405.7 31.7041C405.506 31.8131 405.315 31.9248 405.124 32.0392C404.952 32.1407 404.782 32.2448 404.616 32.3512C404.428 32.47 404.243 32.5928 404.058 32.7142C403.892 32.8259 403.728 32.9385 403.565 33.0546C403.383 33.1836 403.203 33.3179 403.025 33.4522C402.864 33.5732 402.705 33.6938 402.547 33.8157C402.371 33.9553 402.203 34.1007 402.025 34.2456C401.871 34.3746 401.717 34.5027 401.567 34.6361C401.394 34.786 401.23 34.9411 401.064 35.0962C400.917 35.2345 400.768 35.3688 400.624 35.512C400.46 35.6729 400.3 35.84 400.14 36.0058C400.001 36.1503 399.86 36.293 399.723 36.4415C399.698 36.469 399.674 36.4991 399.648 36.527C401.529 37.5501 403.512 38.3529 405.559 38.9212C406.624 35.3495 408.518 32.1133 411.07 29.5057Z" fill="#447BD4"/>
<path d="M403.296 55.0227L392.944 55.0225C393.105 60.6474 394.594 66.2229 397.141 70.8465C400.238 70.2854 401.923 69.8791 404.979 69.1532C404.015 64.686 403.332 59.6484 403.296 55.0227Z" fill="#092E69"/>
<defs>
<linearGradient id="paint0_linear" x1="683.835" y1="588.167" x2="683.835" y2="208.589" gradientUnits="userSpaceOnUse">
<stop stop-color="#808080" stop-opacity="0.25"/>
<stop offset="0.54" stop-color="#808080" stop-opacity="0.12"/>
<stop offset="1" stop-color="#808080" stop-opacity="0.1"/>
</linearGradient>
</defs>
</svg>
