<svg width="850" height="601" viewBox="0 0 850 601" fill="none" xmlns="http://www.w3.org/2000/svg">
<path d="M439.353 135.438C458.34 118.516 488.162 115.062 515.279 116.412C600.509 120.631 677.441 161.797 743.985 208.339C768.089 225.213 791.795 243.352 807.438 266.554C839.267 313.789 829.824 379.247 785.558 418.135C770.493 431.393 752.241 441.53 733.5 450.527C700.177 466.521 664.203 479.363 626.39 483.022C599.418 485.625 572.115 483.504 545.3 479.87C470.386 469.697 396.846 447.225 335.237 408.782C308.205 391.909 282.722 370.961 271.58 343.697C260.438 316.434 267.567 281.855 295.171 265.71C306.59 259.033 320.239 256.02 333.604 253.187C353.273 249.017 373.261 244.907 391.013 236.434C409.32 227.671 431.049 210.767 427.434 191.375C423.505 170.584 420.383 152.312 439.353 135.438Z" fill="#EDF6FF"/>
<path d="M424.73 484.176C645.878 484.176 825.155 478.069 825.155 470.536C825.155 463.002 645.878 456.895 424.73 456.895C203.581 456.895 24.3047 463.002 24.3047 470.536C24.3047 478.069 203.581 484.176 424.73 484.176Z" fill="#D7DAE8"/>
<path d="M821.846 258.565H559.42V358.777H821.846V258.565Z" fill="#1C70B5"/>
<path d="M812.057 435.961H193.697V445.55H812.057V435.961Z" fill="#453B34"/>
<path d="M539.233 331.293H298.816V431.302H539.233V331.293Z" fill="#1C70B5"/>
<path d="M365.25 450.277C364.912 457.84 358.498 463.715 350.869 463.377C343.308 463.04 337.434 456.625 337.772 448.994C338.109 441.431 344.523 435.556 352.152 435.893C359.714 436.299 365.587 442.714 365.25 450.277Z" fill="#1F1913"/>
<path d="M395.699 450.277C395.362 457.84 388.948 463.715 381.319 463.377C373.757 463.04 367.883 456.625 368.221 448.994C368.558 441.431 374.972 435.556 382.601 435.893C390.163 436.299 396.037 442.714 395.699 450.277Z" fill="#1F1913"/>
<path d="M334.801 450.277C334.463 457.84 328.049 463.715 320.42 463.377C312.859 463.04 306.985 456.625 307.322 448.994C307.66 441.431 314.074 435.556 321.703 435.893C329.264 436.299 335.138 442.714 334.801 450.277Z" fill="#1F1913"/>
<path d="M426.215 450.277C425.877 457.84 419.463 463.715 411.834 463.377C404.273 463.04 398.399 456.625 398.737 448.994C399.074 441.431 405.488 435.556 413.117 435.893C420.679 436.299 426.552 442.714 426.215 450.277Z" fill="#1F1913"/>
<path d="M513.713 450.277C513.375 457.84 506.961 463.715 499.332 463.377C491.771 463.04 485.897 456.625 486.235 448.994C486.572 441.431 492.986 435.556 500.615 435.893C508.244 436.299 514.05 442.714 513.713 450.277Z" fill="#1F1913"/>
<path d="M544.229 450.277C543.892 457.84 537.478 463.715 529.849 463.377C522.287 463.04 516.414 456.625 516.751 448.994C517.089 441.431 523.503 435.556 531.132 435.893C538.693 436.299 544.567 442.714 544.229 450.277Z" fill="#1F1913"/>
<path d="M547.673 431.369H299.289V447.914H547.673V431.369Z" fill="#1F1913"/>
<path d="M551.588 431.369H294.833V435.961H551.588V431.369Z" fill="#F15317"/>
<path d="M488.868 439.608H426.822V451.695H488.868V439.608Z" fill="#453B34"/>
<path d="M629.635 450.277C629.297 457.84 622.883 463.715 615.254 463.377C607.693 463.04 601.819 456.625 602.156 448.994C602.494 441.431 608.908 435.556 616.537 435.893C624.166 436.299 630.04 442.714 629.635 450.277Z" fill="#1F1913"/>
<path d="M660.15 450.277C659.813 457.84 653.399 463.715 645.77 463.377C638.208 463.04 632.334 456.625 632.672 448.994C633.01 441.431 639.423 435.556 647.053 435.893C654.614 436.299 660.488 442.714 660.15 450.277Z" fill="#1F1913"/>
<path d="M599.186 450.277C598.848 457.84 592.434 463.715 584.805 463.377C577.176 463.04 571.37 456.625 571.707 448.994C572.045 441.431 578.459 435.556 586.088 435.893C593.649 436.299 599.523 442.714 599.186 450.277Z" fill="#1F1913"/>
<path d="M690.599 450.277C690.262 457.84 683.848 463.715 676.219 463.377C668.657 463.04 662.784 456.625 663.121 448.994C663.459 441.431 669.873 435.556 677.502 435.893C685.063 436.299 690.937 442.714 690.599 450.277Z" fill="#1F1913"/>
<path d="M778.165 450.277C777.827 457.84 771.413 463.715 763.784 463.377C756.223 463.04 750.349 456.625 750.687 448.994C751.024 441.431 757.438 435.556 765.067 435.893C772.629 436.299 778.502 442.714 778.165 450.277Z" fill="#1F1913"/>
<path d="M808.614 450.277C808.277 457.84 801.863 463.715 794.234 463.377C786.672 463.04 780.798 456.625 781.136 448.994C781.473 441.431 787.887 435.556 795.516 435.893C803.078 436.299 808.952 442.714 808.614 450.277Z" fill="#1F1913"/>
<path d="M812.057 431.369H563.673V447.914H812.057V431.369Z" fill="#1F1913"/>
<path d="M815.973 431.369H559.218V435.961H815.973V431.369Z" fill="#F15317"/>
<path d="M753.32 439.608H691.274V451.695H753.32V439.608Z" fill="#453B34"/>
<path d="M119.162 450.277C118.824 457.84 112.411 463.715 104.781 463.377C97.2199 463.04 91.3462 456.625 91.6838 448.994C92.0213 441.431 98.4352 435.556 106.064 435.893C113.626 436.299 119.5 442.714 119.162 450.277Z" fill="#1F1913"/>
<path d="M149.61 450.277C149.273 457.84 142.859 463.715 135.23 463.377C127.668 463.04 121.794 456.625 122.132 448.994C122.47 441.431 128.883 435.556 136.512 435.893C144.142 436.299 150.015 442.714 149.61 450.277Z" fill="#1F1913"/>
<path d="M180.127 450.277C179.789 457.84 173.375 463.715 165.746 463.377C158.185 463.04 152.311 456.625 152.649 448.994C152.986 441.431 159.4 435.556 167.029 435.893C174.591 436.299 180.464 442.714 180.127 450.277Z" fill="#1F1913"/>
<path d="M252.299 450.277C251.961 457.84 245.547 463.715 237.918 463.377C230.357 463.04 224.483 456.625 224.82 448.994C225.158 441.431 231.572 435.556 239.201 435.893C246.763 436.299 252.636 442.714 252.299 450.277Z" fill="#1F1913"/>
<path d="M282.748 450.277C282.41 457.84 275.996 463.715 268.367 463.377C260.806 463.04 254.932 456.625 255.27 448.994C255.607 441.431 262.021 435.556 269.65 435.893C277.279 436.299 283.153 442.714 282.748 450.277Z" fill="#1F1913"/>
<path d="M286.259 431.37H37.875V447.914H286.259V431.37Z" fill="#1F1913"/>
<path d="M86.8226 331.293L71.4969 346.014V368.366H47.597L38.8877 391.865V431.369H269.718V331.293H86.8226Z" fill="#F15317"/>
<path d="M172.767 346.014H126.048V368.365H172.767V346.014Z" fill="white"/>
<path d="M118.217 346.014H71.4971V368.365H118.217V346.014Z" fill="white"/>
<path d="M227.319 346.014H180.6V368.365H227.319V346.014Z" fill="white"/>
<path d="M256.08 346.014H235.218V368.365H256.08V346.014Z" fill="white"/>
<path d="M290.174 431.37H33.4189V435.962H290.174V431.37Z" fill="#F15317"/>
<path d="M227.454 439.608H165.409V451.695H227.454V439.608Z" fill="#453B34"/>
<path d="M99.5151 450.48L94.519 456.692H38.8876L33.4189 450.48V440.215H87.9027L99.5151 450.48Z" fill="#453B34"/>
<path d="M663.999 450.412C663.999 457.638 658.125 463.445 650.969 463.445C643.745 463.445 637.938 457.57 637.938 450.412C637.938 443.187 643.812 437.379 650.969 437.379C658.125 437.312 663.999 443.187 663.999 450.412Z" fill="#52494F"/>
<path d="M743.261 450.412C743.261 457.638 737.387 463.445 730.23 463.445C723.006 463.445 717.2 457.57 717.2 450.412C717.2 443.187 723.074 437.379 730.23 437.379C737.387 437.312 743.261 443.187 743.261 450.412Z" fill="#52494F"/>
<path d="M617.279 289.291L607.152 273.624V255.189H617.279V289.291Z" fill="#201913"/>
<path d="M763.92 289.291L774.047 273.624V255.189H763.92V289.291Z" fill="#201913"/>
<path d="M774.047 255.189H607.152L630.715 245.938H746.298L774.047 255.189Z" fill="#F15317"/>
<path d="M693.84 239.86H687.358V245.87H693.84V239.86Z" fill="#F15317"/>
<path d="M720.913 143.835V162.405H660.218V143.835H641.651V443.524H660.218V387.341H720.913V443.524H739.479V143.835H720.913ZM720.913 176.586V226.557H660.218V176.586H720.913ZM660.218 373.16V240.738H720.913V373.16H660.218Z" fill="#F15317"/>
<path d="M665.281 440.756H636.588V451.695H665.281V440.756Z" fill="#F15317"/>
<path d="M744.543 440.756H715.85V451.695H744.543V440.756Z" fill="#F15317"/>
<path d="M816.04 463.445H33.4189V467.767H816.04V463.445Z" fill="#363238"/>
<path d="M338.109 400.666C338.109 396.186 341.434 392.693 345.955 392.693C348.515 392.693 350.309 393.528 351.864 394.921L349.472 397.907C348.443 396.996 347.391 396.465 345.955 396.465C343.85 396.465 342.224 398.338 342.224 400.717C342.224 403.197 343.874 404.969 346.171 404.969C347.152 404.969 347.893 404.741 348.491 404.336V402.463H345.621V399.375H352.318V406.285C350.788 407.627 348.635 408.665 346.003 408.665C341.506 408.639 338.109 405.349 338.109 400.666Z" fill="white"/>
<path d="M354.483 405.369L359.936 400.882C361.299 399.767 361.801 399.006 361.801 398.068C361.801 397.079 361.155 396.471 360.175 396.471C359.194 396.471 358.429 397.079 357.281 398.499L354.555 396.065C356.11 393.885 357.64 392.693 360.486 392.693C363.666 392.693 365.843 394.722 365.843 397.738C365.843 400.248 364.647 401.567 362.471 403.24L359.984 405.116H365.986V408.665H354.483V405.369Z" fill="white"/>
<path d="M368.175 392.693H375.041C377.266 392.693 378.797 393.329 379.778 394.397C380.64 395.338 381.07 396.559 381.07 398.187C381.07 400.628 379.874 402.256 378.08 403.095L381.549 408.665H376.884L373.965 403.807H372.194V408.665H368.151V392.693H368.175ZM374.874 400.374C376.238 400.374 377.027 399.636 377.027 398.441C377.027 397.195 376.19 396.534 374.85 396.534H372.218V400.374H374.874Z" fill="white"/>
<path d="M385.581 404.875C386.117 404.875 386.562 405.052 386.917 405.406C387.271 405.752 387.449 406.198 387.449 406.743C387.449 407.288 387.271 407.738 386.917 408.091C386.562 408.438 386.117 408.611 385.581 408.611C385.039 408.611 384.591 408.434 384.236 408.08C383.888 407.727 383.714 407.281 383.714 406.743C383.714 406.205 383.888 405.759 384.236 405.406C384.591 405.052 385.039 404.875 385.581 404.875Z" fill="white"/>
<path d="M453.584 403.182L453.586 403.183L453.587 403.183C453.948 403.442 454.133 403.81 454.133 404.328C454.133 404.787 453.956 405.13 453.591 405.386C453.212 405.645 452.659 405.791 451.9 405.791C450.865 405.791 450.142 405.583 449.681 405.215C449.233 404.857 448.99 404.311 448.99 403.524V403.24H445.082V403.524C445.082 404.573 445.364 405.506 445.933 406.313L445.934 406.315C446.51 407.12 447.335 407.746 448.394 408.2L448.395 408.2C449.455 408.647 450.624 408.868 451.9 408.868C453.727 408.868 455.215 408.483 456.335 407.683L456.336 407.682C457.47 406.865 458.041 405.73 458.041 404.307C458.041 403.03 457.576 401.952 456.652 401.093C455.739 400.244 454.311 399.554 452.4 399.006C451.383 398.713 450.633 398.404 450.134 398.087C449.668 397.786 449.478 397.447 449.478 397.067C449.478 396.626 449.656 396.279 450.036 396.006L450.037 396.005L450.038 396.004C450.423 395.721 450.988 395.562 451.767 395.562C452.568 395.562 453.148 395.75 453.546 396.087L453.547 396.088L453.548 396.089C453.938 396.414 454.145 396.875 454.145 397.511V397.795H458.041V397.511C458.041 396.532 457.773 395.65 457.237 394.874C456.708 394.098 455.965 393.505 455.021 393.091C454.077 392.67 453.009 392.463 451.822 392.463C450.646 392.463 449.574 392.652 448.612 393.034L448.611 393.034C447.656 393.417 446.903 393.956 446.371 394.662L446.371 394.662C445.845 395.362 445.582 396.163 445.582 397.056C445.582 398.796 446.59 400.152 448.486 401.13L448.487 401.13C449.18 401.487 450.111 401.845 451.272 402.207L451.273 402.208C452.424 402.56 453.182 402.888 453.584 403.182Z" fill="white"/>
<path d="M475.339 408.666H479.235V392.684H475.339V408.666Z" fill="white"/>
<path d="M495.756 403.269L495.779 402.963H491.883L491.862 403.225C491.792 404.119 491.518 404.733 491.081 405.12C490.651 405.5 489.967 405.715 488.973 405.715C487.905 405.715 487.168 405.36 486.7 404.685C486.225 403.987 485.963 402.841 485.963 401.194L485.963 400.032L485.963 400.031C485.978 398.458 486.256 397.355 486.752 396.671C487.243 395.996 487.981 395.645 489.017 395.645C490.003 395.645 490.678 395.864 491.1 396.249L491.101 396.25L491.103 396.251C491.529 396.628 491.806 397.264 491.884 398.221L491.906 398.482H495.81L495.778 398.169C495.594 396.386 494.908 394.976 493.703 393.968C492.501 392.962 490.93 392.473 489.017 392.473C487.627 392.473 486.393 392.787 485.323 393.423C484.259 394.053 483.442 394.961 482.872 396.137C482.303 397.311 482.023 398.66 482.023 400.178V401.12C482.023 403.49 482.627 405.392 483.869 406.792L483.87 406.793C485.123 408.19 486.836 408.878 488.973 408.878C490.914 408.878 492.506 408.388 493.723 407.384C494.951 406.376 495.625 404.996 495.756 403.269Z" fill="white"/>
<path d="M468.092 395.825H473.039V392.684H459.316V395.825H464.196V408.666H468.092V395.825Z" fill="white"/>
<path d="M404.148 408.666V405.546H397.082V392.684H393.187V408.666H404.148Z" fill="white"/>
<path fill-rule="evenodd" clip-rule="evenodd" d="M405.957 405.175L405.957 405.176C406.558 406.358 407.408 407.275 408.507 407.918C409.605 408.56 410.85 408.878 412.234 408.878C413.632 408.878 414.881 408.556 415.972 407.906C417.072 407.256 417.915 406.331 418.5 405.141C419.085 403.952 419.373 402.577 419.373 401.024V400.336C419.373 398.79 419.077 397.415 418.478 396.219C417.885 395.016 417.039 394.087 415.938 393.444C414.847 392.794 413.602 392.473 412.211 392.473C410.82 392.473 409.571 392.794 408.473 393.444C407.38 394.087 406.534 395.016 405.934 396.219L405.934 396.219C405.342 397.415 405.05 398.794 405.05 400.347L405.05 401.109L405.05 401.111C405.058 402.63 405.357 403.987 405.957 405.175ZM409.857 396.799L409.856 396.8C409.3 397.556 408.998 398.7 408.991 400.273V401.024C408.991 402.567 409.288 403.722 409.849 404.524C410.397 405.31 411.179 405.705 412.234 405.705C413.268 405.705 414.036 405.325 414.576 404.574C415.126 403.802 415.425 402.65 415.432 401.077V400.326C415.432 398.738 415.133 397.579 414.577 396.808C414.029 396.05 413.253 395.666 412.211 395.666C411.177 395.666 410.405 396.046 409.857 396.799Z" fill="white"/>
<path d="M435.248 406.621L435.318 406.541V399.999H428.394V402.907H431.422V405.152C430.957 405.537 430.182 405.758 429.033 405.758C427.86 405.758 427.008 405.372 426.429 404.629C425.841 403.874 425.524 402.726 425.524 401.141V400.157C425.531 398.582 425.827 397.446 426.368 396.703C426.899 395.975 427.669 395.603 428.723 395.603C429.569 395.603 430.192 395.798 430.629 396.153L430.629 396.154L430.63 396.154C431.069 396.506 431.374 397.078 431.515 397.917L431.555 398.154H435.354L435.316 397.836C435.11 396.113 434.443 394.772 433.294 393.848C432.147 392.919 430.579 392.473 428.623 392.473C427.205 392.473 425.953 392.782 424.875 393.411C423.803 394.034 422.981 394.939 422.411 396.116L422.41 396.116C421.848 397.285 421.573 398.659 421.573 400.23V401.28L421.573 401.281C421.588 402.813 421.887 404.16 422.48 405.315L422.481 405.316C423.082 406.471 423.934 407.36 425.035 407.973L425.036 407.974L425.037 407.975C426.142 408.58 427.418 408.878 428.856 408.878C430.213 408.878 431.458 408.687 432.586 408.301L432.587 408.301C433.716 407.908 434.609 407.351 435.248 406.621Z" fill="white"/>
<path d="M438.417 408.666H442.312V392.684H438.417V408.666Z" fill="white"/>
<path fill-rule="evenodd" clip-rule="evenodd" d="M505.949 403.191L505.95 403.192L505.951 403.193C506.312 403.451 506.498 403.819 506.498 404.338C506.498 404.797 506.32 405.139 505.955 405.395C505.576 405.654 505.023 405.8 504.264 405.8C503.23 405.8 502.506 405.592 502.046 405.225C501.597 404.866 501.354 404.321 501.354 403.533V403.249H497.447V403.533C497.447 404.582 497.728 405.516 498.297 406.322L498.298 406.324C498.874 407.129 499.699 407.755 500.758 408.209L500.76 408.209C501.819 408.656 502.988 408.878 504.264 408.878C506.091 408.878 507.579 408.492 508.7 407.692L508.701 407.691C509.834 406.874 510.405 405.739 510.405 404.317C510.405 403.039 509.94 401.961 509.016 401.102C508.104 400.253 506.675 399.564 504.764 399.015C503.748 398.722 502.998 398.414 502.498 398.096C502.032 397.795 501.842 397.456 501.842 397.076C501.842 396.635 502.02 396.289 502.4 396.015L502.401 396.014L502.403 396.013C502.787 395.731 503.352 395.571 504.131 395.571C504.932 395.571 505.512 395.759 505.91 396.096L505.911 396.097L505.912 396.098C506.302 396.423 506.509 396.884 506.509 397.521V397.805H510.405V397.521C510.405 396.541 510.138 395.659 509.601 394.883C509.072 394.107 508.329 393.514 507.385 393.1C506.441 392.68 505.373 392.473 504.186 392.473C503.01 392.473 501.938 392.661 500.976 393.043L500.975 393.043C500.02 393.426 499.268 393.966 498.735 394.671L498.735 394.671C498.209 395.371 497.946 396.173 497.946 397.065C497.946 398.806 498.954 400.162 500.851 401.139L500.851 401.14C501.544 401.496 502.475 401.854 503.636 402.217L503.637 402.217C504.788 402.569 505.547 402.897 505.949 403.191Z" fill="white"/>
<path d="M407.802 370.296C407.802 361.212 415.163 353.848 424.244 353.848C433.324 353.848 440.686 361.212 440.686 370.296C440.686 371.401 440.577 372.48 440.369 373.524C435.69 372.786 432.382 369.937 431.312 368.605C432.173 373.155 436.858 376.342 439.093 377.367C438.626 378.347 438.065 379.273 437.422 380.134C430.061 373.524 428.88 367.273 428.7 365.223C426.856 375.43 430.595 382.266 432.695 384.407C431.594 385.069 430.41 385.605 429.161 385.996C422.769 373.837 425.883 363.802 428.239 360.304C419.634 366.699 420.453 380.488 421.939 386.583C421.043 386.458 420.17 386.26 419.327 385.996C418.53 385.746 417.76 385.438 417.022 385.076C416.653 368.739 425.883 358.475 430.544 355.385C416.407 358.951 411.376 372.96 410.628 379.519C408.844 376.889 407.802 373.714 407.802 370.296Z" fill="white"/>
</svg>
