<svg width="1100" height="860" viewBox="0 0 1100 860" fill="none" xmlns="http://www.w3.org/2000/svg">
<g clip-path="url(#clip0)">
<path d="M569.317 381.459C595.362 358.247 636.269 353.511 673.464 355.362C790.374 361.149 895.901 417.616 987.179 481.457C1020.24 504.603 1052.76 529.484 1074.22 561.31C1117.88 626.101 1104.92 715.89 1044.2 769.233C1023.54 787.419 998.503 801.323 972.796 813.664C927.087 835.603 877.741 853.219 825.875 858.237C788.877 861.808 751.426 858.898 714.644 853.913C611.885 839.96 511.011 809.135 426.503 756.404C389.424 733.258 354.468 704.524 339.185 667.127C323.902 629.73 333.68 582.298 371.545 560.153C387.208 550.993 405.93 546.86 424.263 542.975C451.242 537.255 478.659 531.617 503.01 519.995C528.121 507.975 557.927 484.788 552.968 458.187C547.578 429.668 543.297 404.605 569.317 381.459Z" fill="#EDF6FF"/>
<path d="M549.259 859.821C852.606 859.821 1098.52 851.444 1098.52 841.11C1098.52 830.777 852.606 822.399 549.259 822.399C245.912 822.399 0 830.777 0 841.11C0 851.444 245.912 859.821 549.259 859.821Z" fill="#D7DAE8"/>
<path d="M1093.98 550.351H734.012V687.81H1093.98V550.351Z" fill="#1C70B5"/>
<path d="M1080.55 793.684H232.354V806.837H1080.55V793.684Z" fill="#453B34"/>
<path d="M706.323 650.111H376.545V787.293H706.323V650.111Z" fill="#1C70B5"/>
<path d="M467.672 813.321C467.208 823.695 458.411 831.754 447.946 831.291C437.574 830.828 429.517 822.028 429.98 811.561C430.443 801.187 439.241 793.128 449.706 793.591C460.078 794.147 468.135 802.947 467.672 813.321Z" fill="#1F1913"/>
<path d="M509.438 813.321C508.975 823.695 500.177 831.754 489.712 831.291C479.34 830.828 471.283 822.028 471.746 811.561C472.209 801.187 481.007 793.128 491.472 793.591C501.844 794.147 509.901 802.947 509.438 813.321Z" fill="#1F1913"/>
<path d="M425.905 813.321C425.442 823.695 416.644 831.754 406.179 831.291C395.807 830.828 387.75 822.028 388.213 811.561C388.676 801.187 397.474 793.128 407.939 793.591C418.311 794.147 426.368 802.947 425.905 813.321Z" fill="#1F1913"/>
<path d="M551.297 813.321C550.833 823.695 542.036 831.754 531.571 831.291C521.199 830.828 513.142 822.028 513.605 811.561C514.068 801.187 522.866 793.128 533.331 793.591C543.703 794.147 551.76 802.947 551.297 813.321Z" fill="#1F1913"/>
<path d="M671.316 813.321C670.853 823.695 662.056 831.754 651.591 831.291C641.219 830.828 633.162 822.028 633.625 811.561C634.088 801.187 642.886 793.128 653.35 793.591C663.815 794.147 671.779 802.947 671.316 813.321Z" fill="#1F1913"/>
<path d="M713.175 813.321C712.712 823.695 703.915 831.754 693.45 831.291C683.078 830.828 675.021 822.028 675.484 811.561C675.947 801.187 684.745 793.128 695.209 793.591C705.582 794.147 713.638 802.947 713.175 813.321Z" fill="#1F1913"/>
<path d="M717.898 787.385H377.193V810.079H717.898V787.385Z" fill="#1F1913"/>
<path d="M723.27 787.385H371.081V793.684H723.27V787.385Z" fill="#F15317"/>
<path d="M637.237 798.686H552.13V815.266H637.237V798.686Z" fill="#453B34"/>
<path d="M830.325 813.321C829.862 823.695 821.064 831.754 810.599 831.291C800.227 830.828 792.17 822.028 792.633 811.561C793.096 801.187 801.894 793.128 812.359 793.591C822.824 794.147 830.88 802.947 830.325 813.321Z" fill="#1F1913"/>
<path d="M872.184 813.321C871.721 823.695 862.923 831.754 852.458 831.291C842.086 830.828 834.029 822.028 834.492 811.561C834.955 801.187 843.753 793.128 854.218 793.591C864.59 794.147 872.647 802.947 872.184 813.321Z" fill="#1F1913"/>
<path d="M788.559 813.321C788.095 823.695 779.298 831.754 768.833 831.291C758.368 830.828 750.404 822.028 750.867 811.561C751.33 801.187 760.128 793.128 770.592 793.591C780.965 794.147 789.022 802.947 788.559 813.321Z" fill="#1F1913"/>
<path d="M913.95 813.321C913.487 823.695 904.689 831.754 894.224 831.291C883.852 830.828 875.795 822.028 876.258 811.561C876.721 801.187 885.519 793.128 895.984 793.591C906.356 794.147 914.413 802.947 913.95 813.321Z" fill="#1F1913"/>
<path d="M1034.06 813.321C1033.6 823.695 1024.8 831.754 1014.34 831.291C1003.97 830.828 995.908 822.028 996.372 811.561C996.835 801.187 1005.63 793.128 1016.1 793.591C1026.47 794.147 1034.53 802.947 1034.06 813.321Z" fill="#1F1913"/>
<path d="M1075.83 813.321C1075.37 823.695 1066.57 831.754 1056.1 831.291C1045.73 830.828 1037.67 822.028 1038.14 811.561C1038.6 801.187 1047.4 793.128 1057.86 793.591C1068.24 794.147 1076.29 802.947 1075.83 813.321Z" fill="#1F1913"/>
<path d="M1080.55 787.385H739.847V810.079H1080.55V787.385Z" fill="#1F1913"/>
<path d="M1085.92 787.385H733.734V793.684H1085.92V787.385Z" fill="#F15317"/>
<path d="M999.983 798.686H914.876V815.266H999.983V798.686Z" fill="#453B34"/>
<path d="M130.115 813.321C129.652 823.695 120.854 831.754 110.389 831.291C100.017 830.828 91.96 822.028 92.4231 811.561C92.8861 801.187 101.684 793.128 112.149 793.591C122.521 794.147 130.578 802.947 130.115 813.321Z" fill="#1F1913"/>
<path d="M171.881 813.321C171.418 823.695 162.62 831.754 152.155 831.291C141.783 830.828 133.726 822.028 134.189 811.561C134.652 801.187 143.45 793.128 153.915 793.591C164.38 794.147 172.437 802.947 171.881 813.321Z" fill="#1F1913"/>
<path d="M213.74 813.321C213.277 823.695 204.479 831.754 194.014 831.291C183.642 830.828 175.585 822.028 176.048 811.561C176.511 801.187 185.309 793.128 195.774 793.591C206.146 794.147 214.203 802.947 213.74 813.321Z" fill="#1F1913"/>
<path d="M312.738 813.321C312.275 823.695 303.477 831.754 293.012 831.291C282.64 830.828 274.583 822.028 275.046 811.561C275.509 801.187 284.307 793.128 294.772 793.591C305.144 794.147 313.201 802.947 312.738 813.321Z" fill="#1F1913"/>
<path d="M354.504 813.321C354.041 823.695 345.243 831.754 334.778 831.291C324.406 830.828 316.349 822.028 316.812 811.561C317.275 801.187 326.073 793.128 336.538 793.591C347.003 794.147 355.06 802.947 354.504 813.321Z" fill="#1F1913"/>
<path d="M359.32 787.386H18.6143V810.08H359.32V787.386Z" fill="#1F1913"/>
<path d="M85.7552 650.111L64.7332 670.304V700.964H31.9499L20.0034 733.198V787.385H336.631V650.111H85.7552Z" fill="#F15317"/>
<path d="M203.645 670.304H139.561V700.963H203.645V670.304Z" fill="white"/>
<path d="M128.818 670.304H64.7332V700.963H128.818V670.304Z" fill="white"/>
<path d="M278.473 670.304H214.388V700.963H278.473V670.304Z" fill="white"/>
<path d="M317.924 670.304H289.308V700.963H317.924V670.304Z" fill="white"/>
<path d="M364.691 787.386H12.5022V793.684H364.691V787.386Z" fill="#F15317"/>
<path d="M278.658 798.686H193.551V815.266H278.658V798.686Z" fill="#453B34"/>
<path d="M103.166 813.599L96.3126 822.121H20.0035L12.5022 813.599V799.52H87.237L103.166 813.599Z" fill="#453B34"/>
<path d="M877.463 813.506C877.463 823.417 869.406 831.383 859.589 831.383C849.68 831.383 841.716 823.325 841.716 813.506C841.716 803.595 849.773 795.629 859.589 795.629C869.406 795.537 877.463 803.595 877.463 813.506Z" fill="#52494F"/>
<path d="M986.184 813.506C986.184 823.417 978.127 831.383 968.311 831.383C958.402 831.383 950.438 823.325 950.438 813.506C950.438 803.595 958.494 795.629 968.311 795.629C978.127 795.537 986.184 803.595 986.184 813.506Z" fill="#52494F"/>
<path d="M813.378 592.498L799.486 571.009V545.721H813.378V592.498Z" fill="#201913"/>
<path d="M1014.52 592.498L1028.41 571.009V545.721H1014.52V592.498Z" fill="#201913"/>
<path d="M1028.41 545.721H799.486L831.807 533.031H990.352L1028.41 545.721Z" fill="#F15317"/>
<path d="M918.395 524.694H909.505V532.938H918.395V524.694Z" fill="#F15317"/>
<path d="M955.531 392.977V418.45H872.276V392.977H846.809V804.058H872.276V726.992H955.531V804.058H980.998V392.977H955.531ZM955.531 437.901V506.446H872.276V437.901H955.531ZM872.276 707.54V525.898H955.531V707.54H872.276Z" fill="#F15317"/>
<path d="M879.222 800.261H839.863V815.267H879.222V800.261Z" fill="#F15317"/>
<path d="M987.944 800.261H948.585V815.267H987.944V800.261Z" fill="#F15317"/>
<path d="M1086.02 831.383H12.5022V837.311H1086.02V831.383Z" fill="#363238"/>
<path d="M430.443 745.271C430.443 739.126 435.004 734.334 441.205 734.334C444.716 734.334 447.177 735.48 449.31 737.39L446.029 741.487C444.618 740.237 443.174 739.508 441.205 739.508C438.318 739.508 436.087 742.077 436.087 745.341C436.087 748.743 438.351 751.174 441.501 751.174C442.846 751.174 443.863 750.861 444.683 750.305V747.736H440.746V743.501H449.933V752.979C447.833 754.819 444.88 756.243 441.271 756.243C435.102 756.208 430.443 751.694 430.443 745.271Z" fill="white"/>
<path d="M452.903 751.722L460.382 745.567C462.252 744.037 462.941 742.994 462.941 741.707C462.941 740.351 462.055 739.516 460.71 739.516C459.365 739.516 458.316 740.351 456.741 742.298L453.002 738.96C455.134 735.969 457.233 734.335 461.137 734.335C465.5 734.335 468.485 737.117 468.485 741.255C468.485 744.698 466.844 746.506 463.859 748.801L460.448 751.375H468.681V756.243H452.903V751.722Z" fill="white"/>
<path d="M471.684 734.335H481.102C484.154 734.335 486.254 735.207 487.6 736.672C488.781 737.963 489.372 739.638 489.372 741.87C489.372 745.219 487.731 747.452 485.27 748.603L490.028 756.243H483.629L479.626 749.58H477.197V756.243H471.651V734.335H471.684ZM480.873 744.87C482.743 744.87 483.826 743.859 483.826 742.219C483.826 740.51 482.678 739.603 480.84 739.603H477.23V744.87H480.873Z" fill="white"/>
<path d="M495.56 751.044C496.294 751.044 496.905 751.287 497.391 751.772C497.878 752.247 498.121 752.859 498.121 753.607C498.121 754.354 497.878 754.971 497.391 755.456C496.905 755.931 496.294 756.169 495.56 756.169C494.816 756.169 494.201 755.926 493.714 755.441C493.237 754.956 492.998 754.344 492.998 753.607C492.998 752.869 493.237 752.257 493.714 751.772C494.201 751.287 494.816 751.044 495.56 751.044Z" fill="white"/>
<path d="M588.839 748.721L588.84 748.723L588.842 748.724C589.337 749.078 589.592 749.583 589.592 750.294C589.592 750.924 589.348 751.394 588.847 751.745C588.328 752.1 587.569 752.3 586.528 752.3C585.109 752.3 584.117 752.015 583.485 751.511C582.87 751.019 582.536 750.271 582.536 749.191V748.801H577.177V749.191C577.177 750.63 577.563 751.91 578.344 753.017L578.345 753.019C579.134 754.123 580.267 754.981 581.719 755.604L581.721 755.605C583.174 756.218 584.778 756.521 586.528 756.521C589.034 756.521 591.075 755.993 592.612 754.895L592.614 754.894C594.169 753.773 594.951 752.217 594.951 750.265C594.951 748.513 594.314 747.035 593.047 745.856C591.795 744.692 589.835 743.746 587.214 742.993C585.82 742.591 584.791 742.168 584.106 741.733C583.467 741.32 583.206 740.854 583.206 740.333C583.206 739.728 583.45 739.253 583.972 738.878L583.973 738.877L583.975 738.876C584.502 738.488 585.277 738.269 586.346 738.269C587.445 738.269 588.241 738.527 588.786 738.99L588.788 738.991L588.789 738.992C589.324 739.438 589.607 740.07 589.607 740.943V741.333H594.951V740.943C594.951 739.6 594.585 738.39 593.848 737.325C593.123 736.261 592.104 735.448 590.809 734.88C589.514 734.303 588.049 734.019 586.422 734.019C584.808 734.019 583.338 734.278 582.018 734.802L582.017 734.802C580.706 735.326 579.675 736.067 578.944 737.035L578.944 737.035C578.222 737.995 577.862 739.094 577.862 740.319C577.862 742.706 579.245 744.566 581.846 745.907L581.846 745.907C582.798 746.396 584.074 746.888 585.667 747.385L585.669 747.386C587.247 747.868 588.287 748.318 588.839 748.721Z" fill="white"/>
<path d="M618.679 756.244H624.023V734.322H618.679V756.244Z" fill="white"/>
<path d="M646.686 748.841L646.717 748.422H641.372L641.344 748.781C641.247 750.006 640.872 750.849 640.272 751.38C639.683 751.901 638.744 752.197 637.381 752.197C635.916 752.197 634.905 751.709 634.264 750.783C633.611 749.826 633.252 748.254 633.252 745.994L633.252 744.401L633.252 744.4C633.272 742.242 633.654 740.729 634.334 739.791C635.008 738.865 636.02 738.384 637.442 738.384C638.794 738.384 639.72 738.684 640.298 739.211L640.3 739.213L640.303 739.215C640.887 739.732 641.267 740.604 641.374 741.917L641.404 742.275H646.759L646.715 741.845C646.463 739.4 645.522 737.466 643.869 736.083C642.221 734.704 640.065 734.032 637.442 734.032C635.535 734.032 633.842 734.462 632.374 735.335C630.914 736.2 629.794 737.445 629.012 739.058C628.232 740.668 627.847 742.519 627.847 744.6V745.893C627.847 749.144 628.676 751.753 630.38 753.673L630.381 753.675C632.1 755.591 634.45 756.534 637.381 756.534C640.043 756.534 642.228 755.863 643.897 754.485C645.581 753.103 646.506 751.209 646.686 748.841Z" fill="white"/>
<path d="M608.739 738.63H615.524V734.322H596.7V738.63H603.395V756.244H608.739V738.63Z" fill="white"/>
<path d="M521.027 756.244V751.965H511.336V734.322H505.992V756.244H521.027Z" fill="white"/>
<path fill-rule="evenodd" clip-rule="evenodd" d="M523.509 751.456L523.509 751.456C524.333 753.078 525.499 754.336 527.007 755.218C528.513 756.098 530.22 756.534 532.118 756.534C534.036 756.534 535.75 756.093 537.247 755.202C538.755 754.31 539.912 753.041 540.715 751.408C541.516 749.777 541.911 747.892 541.911 745.762V744.818C541.911 742.697 541.506 740.811 540.683 739.171C539.871 737.52 538.71 736.247 537.2 735.364C535.704 734.473 533.996 734.032 532.088 734.032C530.18 734.032 528.467 734.473 526.96 735.364C525.461 736.247 524.3 737.52 523.478 739.17L523.477 739.171C522.665 740.812 522.265 742.702 522.265 744.833L522.265 745.878L522.265 745.88C522.275 747.964 522.686 749.826 523.509 751.456ZM528.858 739.966L528.857 739.967C528.095 741.005 527.68 742.574 527.67 744.732V745.762C527.67 747.878 528.079 749.462 528.847 750.563C529.6 751.64 530.672 752.182 532.118 752.182C533.537 752.182 534.59 751.662 535.331 750.632C536.086 749.573 536.496 747.991 536.506 745.834V744.804C536.506 742.626 536.096 741.037 535.332 739.979C534.581 738.938 533.517 738.413 532.088 738.413C530.669 738.413 529.609 738.934 528.858 739.966Z" fill="white"/>
<path d="M563.687 753.439L563.783 753.329V744.356H554.286V748.345H558.439V751.424C557.801 751.952 556.738 752.255 555.162 752.255C553.553 752.255 552.384 751.726 551.59 750.706C550.783 749.671 550.349 748.096 550.349 745.922V744.572C550.359 742.412 550.764 740.853 551.506 739.835C552.234 738.836 553.291 738.325 554.736 738.325C555.897 738.325 556.752 738.593 557.351 739.08L557.352 739.081L557.353 739.082C557.954 739.565 558.373 740.349 558.566 741.5L558.621 741.825H563.833L563.78 741.389C563.497 739.026 562.582 737.186 561.006 735.919C559.434 734.645 557.282 734.032 554.599 734.032C552.655 734.032 550.937 734.456 549.458 735.319C547.987 736.174 546.86 737.415 546.078 739.029L546.078 739.03C545.307 740.633 544.929 742.518 544.929 744.673V746.113L544.929 746.114C544.949 748.215 545.36 750.063 546.174 751.647L546.175 751.649C546.999 753.233 548.168 754.452 549.678 755.294L549.679 755.295L549.68 755.296C551.197 756.125 552.947 756.534 554.919 756.534C556.781 756.534 558.488 756.272 560.035 755.744L560.037 755.743C561.585 755.204 562.81 754.441 563.687 753.439Z" fill="white"/>
<path d="M568.033 756.244H573.377V734.322H568.033V756.244Z" fill="white"/>
<path fill-rule="evenodd" clip-rule="evenodd" d="M660.666 748.734L660.668 748.735L660.67 748.736C661.165 749.091 661.42 749.595 661.42 750.307C661.42 750.937 661.176 751.406 660.675 751.758C660.155 752.113 659.397 752.313 658.356 752.313C656.937 752.313 655.944 752.028 655.313 751.523C654.697 751.032 654.364 750.284 654.364 749.203V748.814H649.004V749.203C649.004 750.642 649.391 751.923 650.171 753.029L650.173 753.031C650.962 754.136 652.094 754.994 653.546 755.617L653.549 755.618C655.002 756.231 656.606 756.534 658.356 756.534C660.862 756.534 662.903 756.006 664.44 754.908L664.441 754.907C665.996 753.786 666.779 752.229 666.779 750.278C666.779 748.526 666.142 747.047 664.874 745.869C663.622 744.704 661.663 743.758 659.042 743.006C657.647 742.604 656.618 742.181 655.934 741.746C655.294 741.333 655.033 740.867 655.033 740.346C655.033 739.741 655.278 739.266 655.799 738.891L655.801 738.89L655.802 738.889C656.33 738.501 657.104 738.282 658.173 738.282C659.272 738.282 660.068 738.539 660.614 739.003L660.615 739.004L660.617 739.005C661.152 739.451 661.435 740.082 661.435 740.956V741.346H666.779V740.956C666.779 739.613 666.412 738.403 665.676 737.338C664.951 736.274 663.932 735.46 662.636 734.893C661.342 734.316 659.877 734.032 658.249 734.032C656.635 734.032 655.165 734.29 653.845 734.814L653.844 734.815C652.534 735.339 651.502 736.08 650.772 737.047L650.772 737.048C650.05 738.008 649.689 739.107 649.689 740.331C649.689 742.719 651.072 744.579 653.674 745.92L653.674 745.92C654.625 746.409 655.901 746.901 657.494 747.398L657.496 747.398C659.075 747.881 660.115 748.33 660.666 748.734Z" fill="white"/>
<path d="M526.039 703.611C526.039 691.151 536.137 681.05 548.592 681.05C561.048 681.05 571.146 691.151 571.146 703.611C571.146 705.127 570.996 706.608 570.711 708.039C564.294 707.027 559.755 703.119 558.288 701.292C559.469 707.533 565.895 711.905 568.961 713.311C568.32 714.655 567.551 715.925 566.668 717.106C556.572 708.039 554.952 699.465 554.705 696.653C552.176 710.654 557.305 720.03 560.185 722.968C558.675 723.875 557.05 724.611 555.337 725.147C546.569 708.469 550.841 694.704 554.073 689.906C542.269 698.677 543.393 717.592 545.431 725.953C544.202 725.781 543.005 725.509 541.847 725.147C540.756 724.805 539.699 724.382 538.686 723.886C538.18 701.476 550.841 687.397 557.234 683.158C537.843 688.05 530.942 707.266 529.916 716.263C527.469 712.655 526.039 708.3 526.039 703.611Z" fill="white"/>
</g>
<defs>
<clipPath id="clip0">
<rect width="1100" height="860" fill="white"/>
</clipPath>
</defs>
</svg>
