<svg width="853" height="602" viewBox="0 0 853 602" fill="none" xmlns="http://www.w3.org/2000/svg">
<path opacity="0.1" d="M742.904 429.508C742.226 430.002 741.603 430.482 740.939 430.949C738.489 432.679 735.924 434.24 733.262 435.623C719.319 442.962 702.13 446.547 685.389 448.982C647.841 454.447 609.506 455.509 571.335 456.551C468.196 459.378 364.806 462.199 261.917 455.685C221.266 453.115 179.72 448.813 142.883 435.623C137.603 433.738 132.427 431.659 127.355 429.386C117.09 424.78 107.232 419.173 99.0342 412.476C91.3308 406.199 85.0841 398.989 81.3509 390.791C73.5662 373.718 77.6855 354.542 86.5746 337.808C90.2664 331.038 94.4299 324.535 99.0342 318.348C105.898 308.926 113.465 299.774 120.369 290.358C144.936 256.89 160.967 214.547 138.29 180.219C131.772 170.357 122.355 161.699 117.043 151.404C110.268 138.235 110.789 123.611 112.944 109.407C113.224 107.603 113.52 105.817 113.831 104.049C117.51 82.9861 124.435 60.2928 145.783 47.1435C167.959 33.4801 199.45 34.17 226.971 39.0266C269.77 46.6565 309.249 62.5384 349.148 76.8782C389.047 91.218 430.79 104.32 474.639 105.727C513.359 106.971 558.523 97.6574 584.221 73.4488C609.181 49.937 656.099 48.1445 689.915 62.349C713.126 72.096 730.444 89.6555 737.748 109.407C739.227 113.372 740.292 117.479 740.925 121.663C741.511 125.487 741.701 129.36 741.494 133.223C741.393 135.13 741.196 137.017 740.925 138.884C735.275 177.859 694.603 208.601 669.88 243.416C657.8 260.421 649.27 280.848 657.576 299.185C670.246 327.128 714.305 337.064 740.912 357.857C745.919 361.641 750.327 366.156 753.988 371.249C766.895 389.756 762.132 414.749 742.904 429.508Z" fill="#6C63FF"/>
<path opacity="0.1" d="M382.109 563.472C490.616 563.472 578.577 559.553 578.577 554.719C578.577 549.886 490.616 545.967 382.109 545.967C273.603 545.967 185.642 549.886 185.642 554.719C185.642 559.553 273.603 563.472 382.109 563.472Z" fill="#6C63FF"/>
<path d="M498.717 539.324V544.614H342.04V540.318C351.595 536.784 359.885 530.499 365.86 522.259C371.836 514.019 375.228 504.194 375.607 494.028C375.987 483.862 373.336 473.812 367.992 465.151C362.647 456.489 354.849 449.606 345.583 445.372H497.653C488.596 449.512 480.936 456.186 475.602 464.585C470.268 472.985 467.488 482.748 467.601 492.693C467.714 502.638 470.713 512.336 476.236 520.613C481.759 528.89 489.568 535.389 498.717 539.324Z" fill="#C8CAD7"/>
<path opacity="0.1" d="M497.654 445.372C490.665 448.575 484.483 453.298 479.559 459.196C474.635 465.093 471.095 472.016 469.198 479.456H374.047C372.149 472.016 368.608 465.094 363.685 459.197C358.761 453.299 352.579 448.576 345.591 445.372H497.654Z" fill="black"/>
<path d="M162.605 418.424V448.118C162.605 464.514 174.625 477.805 189.456 477.805H650.455C665.286 477.805 677.305 464.514 677.305 448.118V418.424H162.605Z" fill="#C8CAD7"/>
<path opacity="0.1" d="M498.717 539.324V544.614H342.04V540.318C346.335 538.723 350.398 536.562 354.12 533.893H489.11C492.109 536.04 495.33 537.861 498.717 539.324Z" fill="black"/>
<path d="M544.058 535.543H296.701C293.146 535.543 290.265 538.42 290.265 541.969V544.789C290.265 548.338 293.146 551.215 296.701 551.215H544.058C547.612 551.215 550.494 548.338 550.494 544.789V541.969C550.494 538.42 547.612 535.543 544.058 535.543Z" fill="#C8CAD7"/>
<path d="M677.305 93.0529C677.296 85.9501 674.463 79.1412 669.429 74.1225C664.394 69.1038 657.57 66.2858 650.455 66.2876H189.476C182.358 66.2804 175.528 69.0961 170.489 74.1154C165.45 79.1346 162.614 85.9465 162.605 93.0529V424.2H677.305V93.0529Z" fill="#333333"/>
<path d="M663.294 105.012V389.555C663.295 391.288 662.954 393.005 662.29 394.606C661.626 396.208 660.652 397.663 659.425 398.889C658.197 400.114 656.739 401.086 655.135 401.749C653.531 402.412 651.812 402.753 650.076 402.752H189.889C188.153 402.753 186.434 402.412 184.83 401.749C183.226 401.086 181.768 400.114 180.541 398.889C179.313 397.663 178.339 396.208 177.675 394.606C177.011 393.005 176.67 391.288 176.671 389.555V105.012C176.671 101.512 178.064 98.1555 180.543 95.6807C183.021 93.2058 186.384 91.8155 189.889 91.8155H650.042C651.781 91.811 653.503 92.1491 655.111 92.8103C656.718 93.4715 658.18 94.4428 659.411 95.6687C660.642 96.8946 661.618 98.3509 662.285 99.9542C662.951 101.557 663.294 103.276 663.294 105.012Z" fill="white"/>
<path d="M419.962 85.22C423.386 85.22 426.161 82.449 426.161 79.0309C426.161 75.6127 423.386 72.8418 419.962 72.8418C416.538 72.8418 413.763 75.6127 413.763 79.0309C413.763 82.449 416.538 85.22 419.962 85.22Z" fill="white"/>
<path d="M419.963 464.616C428.404 464.616 435.248 457.784 435.248 449.356C435.248 440.928 428.404 434.096 419.963 434.096C411.521 434.096 404.678 440.928 404.678 449.356C404.678 457.784 411.521 464.616 419.963 464.616Z" fill="white"/>
<path d="M291.334 104.843V402.461H191.552C189.619 402.462 187.704 402.128 185.918 401.48C184.132 400.832 182.509 399.881 181.142 398.683C179.775 397.484 178.691 396.061 177.951 394.495C177.212 392.929 176.832 391.25 176.833 389.555V111.292L177.369 109.539L178.802 104.843H291.334Z" fill="#F0F0F0"/>
<path d="M290.996 103.22V130.614H176.671V105.012L177.152 103.22H290.996Z" fill="#4B4BD8"/>
<path d="M663.294 105.012H176.671C176.671 103.279 177.013 101.563 177.677 99.9626C178.342 98.3619 179.315 96.9076 180.543 95.6827C181.77 94.4578 183.228 93.4864 184.831 92.8239C186.435 92.1615 188.154 91.821 189.889 91.8218H650.042C651.78 91.8165 653.503 92.1537 655.11 92.8142C656.718 93.4746 658.179 94.4454 659.41 95.6707C660.641 96.896 661.618 98.3519 662.285 99.9548C662.951 101.558 663.294 103.276 663.294 105.012Z" fill="#C8CAD7"/>
<path d="M189.889 101.717C191.715 101.717 193.196 100.24 193.196 98.4166C193.196 96.5936 191.715 95.1157 189.889 95.1157C188.063 95.1157 186.583 96.5936 186.583 98.4166C186.583 100.24 188.063 101.717 189.889 101.717Z" fill="#EDEDF4"/>
<path d="M199.801 101.717C201.627 101.717 203.108 100.24 203.108 98.4166C203.108 96.5936 201.627 95.1157 199.801 95.1157C197.975 95.1157 196.495 96.5936 196.495 98.4166C196.495 100.24 197.975 101.717 199.801 101.717Z" fill="#EDEDF4"/>
<path d="M209.714 101.717C211.54 101.717 213.02 100.24 213.02 98.4166C213.02 96.5936 211.54 95.1157 209.714 95.1157C207.888 95.1157 206.407 96.5936 206.407 98.4166C206.407 100.24 207.888 101.717 209.714 101.717Z" fill="#EDEDF4"/>
<path d="M262.411 115.28H193.758V121.591H262.411V115.28Z" fill="white"/>
<path opacity="0.5" d="M262.411 146.056H193.758V152.367H262.411V146.056Z" fill="#333333"/>
<path opacity="0.5" d="M262.411 167.816H193.758V174.127H262.411V167.816Z" fill="#333333"/>
<path opacity="0.5" d="M262.411 189.576H193.758V195.887H262.411V189.576Z" fill="#333333"/>
<path opacity="0.5" d="M262.411 211.329H193.758V217.64H262.411V211.329Z" fill="#333333"/>
<path opacity="0.5" d="M262.411 233.089H193.758V239.4H262.411V233.089Z" fill="#333333"/>
<path opacity="0.5" d="M262.411 254.849H193.758V261.16H262.411V254.849Z" fill="#333333"/>
<path opacity="0.5" d="M262.411 276.603H193.758V282.913H262.411V276.603Z" fill="#333333"/>
<g opacity="0.1">
<path opacity="0.1" d="M282.696 287.249C282.699 287.222 282.699 287.194 282.696 287.167C283.012 285.985 283.178 284.766 283.19 283.542C283.088 284.521 282.923 285.493 282.696 286.45C282.635 286.713 282.635 286.986 282.696 287.249Z" fill="black"/>
<path opacity="0.1" d="M273.353 302.211C273.604 302.787 273.738 303.408 273.746 304.037C273.819 303.17 273.684 302.298 273.353 301.494C273.151 301.003 272.793 300.594 272.333 300.328C271.874 300.063 271.339 299.956 270.812 300.026C269.457 300.344 268.854 302.13 267.513 302.556C266.381 302.914 265.142 302.109 264.6 301.054C264.143 299.955 263.952 298.764 264.044 297.577C264.044 296.225 264.044 294.906 264.044 293.573C264.044 292.119 263.997 290.549 263.095 289.406C261.978 287.979 259.356 287.377 257.601 287.418C256.435 287.431 255.317 287.882 254.471 288.683C254.043 289.111 253.524 289.438 252.953 289.641C252.383 289.843 251.774 289.916 251.171 289.853C250.638 289.774 250.138 289.545 249.73 289.193C249.322 288.841 249.023 288.38 248.868 287.864C248.732 287.35 248.773 286.802 248.617 286.288C248.244 285.03 246.903 284.381 246.002 283.427C245.161 282.497 244.681 281.297 244.647 280.045C244.582 280.784 244.669 281.529 244.902 282.233C245.135 282.938 245.509 283.588 246.002 284.144C246.903 285.098 248.244 285.754 248.617 287.012C248.773 287.519 248.732 288.074 248.868 288.588C249.025 289.102 249.325 289.561 249.733 289.913C250.14 290.265 250.639 290.495 251.171 290.577C251.774 290.638 252.383 290.565 252.954 290.361C253.525 290.158 254.043 289.829 254.471 289.4C255.321 288.612 256.434 288.166 257.594 288.148C259.349 288.094 261.971 288.716 263.089 290.137C263.99 291.28 264.03 292.843 264.037 294.304C264.037 295.656 264.037 296.975 264.037 298.308C263.945 299.497 264.135 300.69 264.593 301.791C265.135 302.847 266.375 303.645 267.506 303.286C268.861 302.86 269.437 301.081 270.806 300.756C271.331 300.687 271.865 300.791 272.326 301.054C272.786 301.317 273.147 301.723 273.353 302.211Z" fill="black"/>
<path opacity="0.1" d="M286.517 297.807C286.223 298.628 285.762 299.379 285.162 300.012C283.391 302.123 281.627 304.235 279.87 306.35C277.648 309.022 275.29 312.113 275.46 315.522C275.622 312.397 277.804 309.557 279.87 307.074L285.162 300.729C285.762 300.099 286.223 299.35 286.517 298.531C286.647 297.955 286.693 297.362 286.652 296.772C286.649 297.122 286.603 297.469 286.517 297.807Z" fill="black"/>
<path opacity="0.1" d="M272.71 314.454C272.622 314.175 272.568 313.886 272.547 313.595C272.503 314.126 272.558 314.66 272.71 315.171C273.069 316.334 274.39 317.288 275.501 316.794C275.501 316.557 275.454 316.321 275.447 316.118C274.349 316.557 273.042 315.59 272.71 314.454Z" fill="black"/>
</g>
<path opacity="0.1" d="M695.497 565.501C737.23 565.501 771.061 561.104 771.061 555.68C771.061 550.256 737.23 545.858 695.497 545.858C653.764 545.858 619.933 550.256 619.933 555.68C619.933 561.104 653.764 565.501 695.497 565.501Z" fill="#6C63FF"/>
<path d="M764.711 227.132C750.065 218.713 744.49 216.627 744.49 216.617L744.191 216.406C742.591 215.181 741.321 213.58 740.494 211.744C740.494 211.408 740.494 211.072 740.494 210.783V210.879C740.734 206.42 743.902 202.374 746.916 198.837C749.484 195.819 752.052 192.804 754.62 189.793C755.505 188.878 756.182 187.783 756.604 186.582C756.76 185.954 756.832 185.308 756.815 184.66C756.815 184.391 756.815 184.132 756.815 183.872C756.815 181.623 756.709 179.374 756.632 177.144C756.555 175.174 756.055 172.704 754.081 172.339C753.06 172.127 751.712 172.493 751.192 171.618C751.003 171.261 750.955 170.846 751.057 170.455C751.057 170.455 751.057 170.513 751.057 170.541C751.053 170.506 751.053 170.471 751.057 170.436C751.437 168.919 751.682 167.372 751.789 165.813C751.823 165.022 751.716 164.231 751.471 163.477C750.325 160.219 746.406 158.883 742.939 158.268C739.473 157.653 735.583 157.124 733.406 154.424C732.81 153.523 732.167 152.654 731.48 151.819C730.472 150.932 729.246 150.328 727.927 150.07C723.627 149.006 719.094 149.402 715.043 151.194C713.368 151.944 711.683 152.943 709.843 152.838C708.004 152.732 706.3 151.396 704.412 151.079C701.37 150.56 698.452 152.799 696.95 155.442C696.059 157.011 695.585 158.781 695.573 160.584C695.573 160.68 695.573 160.786 695.573 160.882C695.535 162.821 696.245 164.7 697.556 166.13C698.866 167.495 700.821 168.427 701.408 170.215C701.63 170.945 701.581 171.733 701.774 172.464C701.774 172.56 701.832 172.646 701.861 172.742L701.755 172.867C698.627 176.885 696.932 181.831 696.94 186.919C696.97 191.859 698.572 196.662 701.514 200.635C704.456 204.609 708.587 207.546 713.31 209.024C713.31 209.246 713.31 209.476 713.31 209.717C713.375 211.159 713.125 212.599 712.576 213.935C712.027 215.271 711.193 216.472 710.132 217.453L689.352 225.777C689.352 225.777 676.834 224.297 672.327 242.548C671.605 245.577 671.345 248.697 671.557 251.804C671.721 254.562 671.336 259.406 668.129 265.673C662.997 275.707 664.162 298.725 674.658 301.003C684.566 303.156 688.447 302.262 688.851 302.157V302.56C688.688 306.885 687.118 344.138 681.408 348.694C679.819 349.934 680.118 350.779 681.408 351.346C681.408 351.346 681.408 351.587 681.408 352.019C681.235 354.749 680.349 365.119 676.526 371.03C672.135 377.844 672.636 417.25 672.636 417.25L669.612 440.5C669.612 440.5 671.47 454.859 669.612 457.367C667.946 459.606 665.76 512.737 665.259 524.251H665.067C664.153 524.306 663.266 524.584 662.483 525.059C661.701 525.535 661.048 526.195 660.58 526.981C658.095 530.96 649.525 538.293 649.525 538.293C647.667 540.936 640.772 543.464 637.132 544.656C636.645 544.812 636.174 545.015 635.726 545.261C634.363 546.002 633.268 547.152 632.597 548.548C632.36 548.959 632.209 549.414 632.153 549.884C632.096 550.355 632.136 550.832 632.269 551.287C633.232 553.565 652.558 555.132 657.45 552.883C661.302 551.095 676.555 548.731 682.891 547.808C684.041 547.663 685.109 547.141 685.929 546.323C686.748 545.505 687.272 544.438 687.417 543.291C687.477 542.895 687.457 542.491 687.358 542.103C687.259 541.715 687.082 541.351 686.839 541.032C685.626 539.533 685 535.438 684.72 532.767C685.235 532.556 685.715 532.271 686.146 531.921C685.626 523.637 686.815 515.334 689.641 507.528C694.302 495.225 695.707 472.428 694.542 457.607C694.542 457.607 708.765 396.509 719.964 390.81C720.137 391.021 725.568 397.98 726.261 419.528C726.955 441.413 734.88 455.772 734.88 455.772C734.88 455.772 731.384 492.928 734.88 506.836L730.286 528.74C730.095 528.583 729.912 528.416 729.738 528.24C729.738 528.24 729.872 528.855 730.065 529.826L729.969 530.287L730.161 530.335C730.681 533.074 731.452 537.851 731.124 540.657C730.941 542.262 730.498 544.444 730.161 546.597C729.68 549.971 729.545 553.248 731.326 553.959C734.215 555.132 751.384 556.737 754.302 552.998C754.956 552.232 755.382 551.298 755.532 550.303C755.681 549.307 755.549 548.29 755.149 547.366C754.938 546.85 754.652 546.368 754.302 545.934C754.302 545.934 749.747 538.504 751.038 533.266C751.156 532.756 751.168 532.226 751.074 531.71C750.979 531.195 750.78 530.704 750.489 530.268C751.157 521.976 752.493 513.751 754.485 505.673C757.374 494.706 763.556 470.659 759.03 454.839C758.857 454.224 758.664 453.609 758.452 453.013C755.838 444.38 754.964 435.315 755.881 426.342C754.197 418.684 754.197 410.752 755.881 403.093C758.655 390.339 760.609 377.844 760.609 377.844C760.609 377.844 762.15 360.977 760.802 350.635L760.715 349.972L761.447 349.809C761.447 349.809 757.489 332.259 756.084 321.091C755.756 318.447 755.323 315.112 754.851 311.547C756.142 311.325 757.414 311.004 758.655 310.586C771.25 306.251 775.207 267.037 775.207 267.037V254.601C775.207 254.601 779.406 235.599 764.711 227.132ZM670.893 529.883L670.276 529.556L670.893 529.883Z" fill="url(#paint0_linear)"/>
<path d="M757.352 453.708C762.83 469.387 756.386 494.833 753.487 506.195C751.536 514.412 750.243 522.769 749.623 531.189C742.956 532.309 736.135 532.152 729.527 530.728L734.358 507.33C730.938 493.467 734.358 456.428 734.358 456.428C734.358 456.428 726.629 442.105 725.914 420.292C725.238 398.826 719.924 391.886 719.75 391.665C708.707 397.375 694.814 458.255 694.814 458.255C695.954 473.02 694.582 495.746 689.983 508.022C687.212 515.814 686.045 524.083 686.554 532.333C684.959 533.67 682.737 533.9 680.341 533.516C673.82 532.468 666.004 526.873 666.004 526.873C666.004 526.873 668.516 460.543 670.342 458.024C672.168 455.505 670.342 441.211 670.342 441.211L673.308 418.033C673.308 418.033 672.854 378.725 677.172 371.89C680.921 365.998 681.781 355.654 681.955 352.943C681.955 352.51 681.955 352.27 681.955 352.27L688.563 344.397C688.563 344.397 752.512 339.59 757.304 344.397C758.482 345.57 759.236 348.242 759.642 351.588C760.956 361.893 759.448 378.706 759.448 378.706C759.448 378.706 757.516 391.203 754.792 403.921C753.143 411.56 753.143 419.46 754.792 427.099C753.899 436.049 754.769 445.088 757.352 453.708Z" fill="#333333"/>
<path d="M752.82 552.986C750.003 556.731 733.416 555.147 730.589 553.946C728.861 553.226 728.995 549.971 729.462 546.61C729.759 544.468 730.188 542.288 730.36 540.704C730.818 536.613 729.014 528.326 729.014 528.326C729.014 528.326 732.738 532.301 733.635 528.326C733.843 527.568 734.252 526.881 734.82 526.339C735.387 525.798 736.09 525.422 736.854 525.253C738.788 524.665 740.869 524.794 742.717 525.618C745.648 526.895 750.538 529.622 749.659 533.3C748.418 538.514 752.82 545.909 752.82 545.909C753.161 546.343 753.438 546.825 753.641 547.339C754.037 548.265 754.17 549.283 754.025 550.28C753.88 551.276 753.463 552.213 752.82 552.986Z" fill="#A27772"/>
<path opacity="0.1" d="M752.815 552.966C749.982 556.743 733.297 555.145 730.454 553.934C728.715 553.208 728.85 549.925 729.32 546.535C731.107 547.377 734.123 548.084 739.233 547.61C740.42 547.494 741.614 547.455 742.806 547.494C746.419 547.664 750.038 547.593 753.641 547.28C754.038 548.213 754.17 549.237 754.024 550.241C753.879 551.244 753.46 552.188 752.815 552.966Z" fill="black"/>
<path opacity="0.1" d="M694.692 458.05C695.831 472.856 694.461 495.643 689.866 507.952C687.097 515.766 685.931 524.056 686.439 532.33C684.846 533.669 682.626 533.901 680.232 533.515C681.613 523.876 687.472 482.495 691.237 449.789C695.513 412.534 715.532 386.903 715.532 386.903L719.529 391.289C708.573 397.005 694.692 458.05 694.692 458.05Z" fill="black"/>
<path d="M746.629 219.296L743.824 232.895L730.112 255.681L713.198 248.536C713.198 248.536 690.199 224.734 704.648 221.339C706.38 220.973 708.016 220.254 709.452 219.229C712.285 217.109 713.178 214.041 713.198 211.029C713.083 207.656 712.285 204.339 710.849 201.276L740.437 192.099C739.214 195.939 738.499 199.92 738.312 203.942C738.089 211.902 741.078 215.834 743.533 217.704C744.447 218.434 745.5 218.975 746.629 219.296Z" fill="#FBBEBE"/>
<path opacity="0.1" d="M739.854 192.099C738.649 195.983 737.946 200.01 737.762 204.078C734.81 207.634 730.88 210.215 726.475 211.492C722.07 212.769 717.39 212.683 713.033 211.246C712.921 207.834 712.134 204.479 710.721 201.381L739.854 192.099Z" fill="black"/>
<path d="M743.241 188.378C743.241 192.994 741.89 197.506 739.359 201.343C736.828 205.181 733.23 208.172 729.021 209.938C724.812 211.704 720.18 212.166 715.712 211.266C711.243 210.366 707.139 208.143 703.917 204.879C700.695 201.616 698.501 197.458 697.613 192.931C696.724 188.404 697.18 183.712 698.923 179.448C700.667 175.184 703.619 171.54 707.408 168.975C711.196 166.411 715.65 165.043 720.206 165.043C723.233 165.035 726.232 165.633 729.03 166.803C731.828 167.973 734.371 169.692 736.511 171.86C738.652 174.029 740.348 176.604 741.503 179.439C742.658 182.274 743.249 185.312 743.241 188.378Z" fill="#FBBEBE"/>
<path opacity="0.1" d="M746.629 219.39L743.824 232.954L730.112 255.681L713.198 248.555C713.198 248.555 690.199 224.814 704.648 221.428C706.38 221.063 708.016 220.346 709.452 219.323C706.841 226.392 717.613 241.094 717.613 241.094C718.865 242.911 721.747 241.773 721.747 241.773C728.676 240.74 741.456 221.074 743.533 217.802C744.447 218.53 745.5 219.07 746.629 219.39Z" fill="black"/>
<path opacity="0.1" d="M759.502 351.612C755.469 352.579 733.174 357.506 724.724 356.267C715.42 354.892 697.32 353.983 697.32 353.983C697.32 353.983 685.798 354.602 682.265 353.015C682.265 352.58 682.265 352.338 682.265 352.338L688.832 344.411C688.832 344.411 752.387 339.572 757.15 344.411C758.398 345.553 759.07 348.234 759.502 351.612Z" fill="black"/>
<path d="M717.285 241.758C717.285 241.758 705.297 225.123 709.815 218.64L689.559 226.963C689.559 226.963 677.368 225.479 672.975 243.704C672.271 246.735 672.015 249.854 672.215 252.96C672.379 255.706 672.004 260.541 668.879 266.802C663.88 276.82 665.034 299.822 675.244 302.095C685.454 304.368 689.107 303.232 689.107 303.232C689.107 303.232 687.742 344.901 681.839 349.679C675.936 354.457 696.904 353.32 696.904 353.32C696.904 353.32 715.016 354.283 724.332 355.603C733.648 356.922 759.779 350.787 759.779 350.787C759.779 350.787 755.933 333.256 754.549 322.101C753.164 310.947 750.011 287.194 750.011 287.194L773.19 255.734C773.19 255.734 777.276 236.72 762.961 228.302C748.646 219.883 743.253 217.802 743.253 217.802C743.253 217.802 728.832 241.276 721.371 242.413C721.371 242.432 718.526 243.588 717.285 241.758Z" fill="#4B4BD8"/>
<path opacity="0.1" d="M690.918 248.24C690.918 248.24 690.693 255.738 692.078 258.69C693.463 261.641 698.525 278.002 698.525 278.002H687.007C687.007 278.002 693.229 271.417 692.771 268.235C692.312 265.053 690.918 248.24 690.918 248.24Z" fill="black"/>
<path d="M724.625 305.059C724.625 305.059 699.5 298.936 697.161 293.726C694.822 288.515 688.362 276.828 688.362 276.828L691.01 273.268L703.235 282.863C703.235 282.863 717.8 294.378 724.625 295.568C731.45 296.758 724.625 305.059 724.625 305.059Z" fill="#FBBEBE"/>
<path opacity="0.05" d="M724.625 305.059C724.625 305.059 699.5 298.936 697.161 293.726C694.822 288.515 688.362 276.828 688.362 276.828L691.01 273.268L703.235 282.863C703.235 282.863 717.8 294.378 724.625 295.568C731.45 296.758 724.625 305.059 724.625 305.059Z" fill="black"/>
<path d="M746.629 275.439V288.892H744.402C733.415 288.893 722.61 291.613 713.004 296.797L708.842 299.039L707.718 299.647L700.558 283.971L707.259 278.128H707.601C709.242 278.28 716.325 278.85 719.324 277.871C722.323 276.893 725.723 273.938 734.115 276.028C738.257 277.054 741.784 281.567 745.838 280.161L746.629 275.439Z" fill="#FBBEBE"/>
<path opacity="0.1" d="M768.491 250.846L773.052 255.96V268.341C773.052 268.341 769.195 307.427 756.869 311.743C744.544 316.059 722.584 309.244 722.584 309.244C722.584 309.244 716.904 294.248 719.556 293.334C722.208 292.421 743.03 286.952 743.03 286.952C743.03 286.952 742.731 264.025 747.293 257.21C747.293 257.21 744.332 235.85 754.584 235.398C764.835 234.946 768.491 250.846 768.491 250.846Z" fill="black"/>
<path d="M769.168 250.846L773.73 255.96V268.341C773.73 268.341 769.872 307.427 757.537 311.743C745.203 316.059 723.262 309.244 723.262 309.244C723.262 309.244 717.582 294.248 720.234 293.334C722.886 292.421 743.698 286.952 743.698 286.952C743.698 286.952 743.409 264.025 747.97 257.21C747.97 257.21 745 235.85 755.261 235.398C765.523 234.946 769.168 250.846 769.168 250.846Z" fill="#4B4BD8"/>
<path opacity="0.1" d="M736.882 198.057C737.082 196.564 736.905 195.045 736.367 193.64C736.084 192.946 735.581 192.365 734.935 191.99C734.29 191.615 733.539 191.466 732.8 191.566C730.893 192.018 730.035 194.543 728.147 195.148C726.555 195.656 724.81 194.524 724.047 193.026C723.409 191.464 723.141 189.775 723.265 188.091C723.265 186.171 723.265 184.298 723.265 182.397C723.265 180.333 723.198 178.106 721.93 176.483C720.357 174.467 716.667 173.603 714.206 173.67C712.565 173.687 710.989 174.324 709.792 175.456C709.19 176.065 708.461 176.532 707.658 176.821C706.854 177.11 705.997 177.214 705.148 177.126C704.399 177.011 703.699 176.684 703.127 176.185C702.555 175.685 702.135 175.033 701.915 174.304C701.911 174.278 701.911 174.252 701.915 174.227C703.831 171.676 706.251 169.553 709.022 167.991C711.794 166.43 714.856 165.463 718.017 165.152C721.178 164.841 724.368 165.193 727.387 166.186C730.406 167.179 733.188 168.79 735.558 170.919C737.927 173.048 739.833 175.649 741.155 178.556C742.477 181.464 743.186 184.616 743.238 187.813C743.29 191.011 742.683 194.184 741.456 197.134C740.229 200.083 738.409 202.745 736.109 204.95C736.49 202.668 736.748 200.367 736.882 198.057Z" fill="black"/>
<path d="M705.074 176.333C704.32 176.215 703.614 175.889 703.036 175.389C702.459 174.89 702.034 174.239 701.809 173.509C701.626 172.78 701.674 171.992 701.453 171.272C700.925 169.486 699.024 168.554 697.746 167.2C695.192 164.492 695.355 160.027 697.16 156.761C698.63 154.13 701.463 151.912 704.43 152.421C706.265 152.747 707.849 154.053 709.712 154.169C711.576 154.284 713.141 153.285 714.774 152.536C718.707 150.754 723.13 150.361 727.316 151.422C728.605 151.678 729.799 152.279 730.773 153.16C731.434 153.991 732.05 154.856 732.617 155.753C734.73 158.452 738.524 158.98 741.895 159.594C745.265 160.209 749.088 161.515 750.192 164.79C750.932 166.941 750.192 169.274 749.798 171.512C749.652 171.971 749.682 172.468 749.885 172.904C750.413 173.778 751.729 173.413 752.766 173.615C754.687 174.018 755.167 176.496 755.234 178.417C755.324 180.645 755.385 182.885 755.417 185.139C755.473 185.973 755.408 186.811 755.224 187.626C754.81 188.79 754.156 189.853 753.304 190.747L745.803 199.755C742.48 203.75 738.956 208.398 739.618 213.555C738.043 214.256 736.18 212.902 735.662 211.25C735.143 209.598 735.556 207.831 735.911 206.141C736.515 203.218 736.91 200.256 737.093 197.277C737.295 195.782 737.117 194.259 736.574 192.85C736.288 192.155 735.779 191.574 735.127 191.199C734.476 190.823 733.718 190.675 732.973 190.776C731.052 191.227 730.197 193.753 728.296 194.358C726.692 194.877 724.934 193.734 724.166 192.236C723.527 190.673 723.258 188.984 723.379 187.3V181.605C723.379 179.54 723.311 177.312 722.034 175.689C720.459 173.673 716.733 172.808 714.255 172.876C712.601 172.893 711.014 173.53 709.809 174.662C709.197 175.28 708.453 175.751 707.633 176.04C706.813 176.329 705.938 176.43 705.074 176.333Z" fill="#333333"/>
<path opacity="0.1" d="M710.043 247.564L717.555 277.326C717.555 277.326 723.465 277.296 710.043 247.564Z" fill="black"/>
<path opacity="0.1" d="M734.434 242.829C734.434 242.829 725.721 258.07 729.125 273.819L730.742 273.944C730.742 273.944 727.85 266.65 734.434 242.829Z" fill="black"/>
<path opacity="0.1" d="M740.531 329.488C740.531 329.488 751.896 325.961 752.727 334.144C752.727 334.144 750.578 328.531 740.531 329.488Z" fill="black"/>
<path opacity="0.1" d="M707.521 278.679C707.521 278.679 705.218 294.536 709.365 300.878C702.859 303.129 695.953 304.052 689.07 303.59L687.685 278.679H707.521Z" fill="black"/>
<path opacity="0.1" d="M709.365 299.036L708.171 299.647L700.558 283.88L707.683 278.002H708.046C707.932 278.767 705.948 292.346 709.365 299.036Z" fill="black"/>
<path d="M707.559 278.002C707.559 278.002 705.304 293.859 709.365 300.202C702.993 302.453 696.23 303.376 689.489 302.914L681.587 278.002H707.559Z" fill="#4B4BD8"/>
<path d="M687.654 543.504C687.524 544.618 687.023 545.656 686.229 546.457C685.436 547.257 684.396 547.773 683.273 547.923C677.154 548.867 662.387 551.133 658.664 552.889C653.891 555.126 635.201 553.559 634.294 551.331C634.166 550.883 634.13 550.415 634.185 549.954C634.241 549.492 634.388 549.046 634.618 548.64C635.055 547.752 635.668 546.96 636.42 546.311C637.173 545.662 638.05 545.17 639 544.864C642.532 543.693 649.194 541.229 650.989 538.642C650.989 538.642 659.294 531.448 661.661 527.567C662.106 526.802 662.735 526.157 663.493 525.691C664.251 525.225 665.114 524.952 666.004 524.896C667.98 524.801 670.176 525.793 671.083 530.069C671.083 530.069 681.908 536.178 684.838 530.825C684.838 530.825 685.287 539.048 687.081 541.304C687.319 541.616 687.492 541.97 687.59 542.348C687.688 542.725 687.71 543.118 687.654 543.504Z" fill="#A27772"/>
<path opacity="0.1" d="M687.651 543.378C687.521 544.505 687.019 545.557 686.226 546.366C685.433 547.176 684.392 547.698 683.269 547.85C677.151 548.805 662.385 551.099 658.662 552.876C653.89 555.14 635.2 553.554 634.294 551.299C634.166 550.846 634.13 550.373 634.185 549.905C634.241 549.438 634.388 548.986 634.618 548.576C635.261 547.202 636.32 546.066 637.644 545.328C640.698 547.353 647.475 549.341 662.385 547.009C676.607 544.783 683.642 542.605 687.078 541.124C687.319 541.442 687.494 541.806 687.592 542.193C687.691 542.58 687.71 542.983 687.651 543.378Z" fill="black"/>
<g opacity="0.1">
<path opacity="0.1" d="M749.911 171.926C749.916 171.888 749.916 171.849 749.911 171.811C750.361 170.13 750.597 168.398 750.614 166.658C750.469 168.05 750.234 169.431 749.911 170.792C749.825 171.165 749.825 171.553 749.911 171.926Z" fill="black"/>
<path opacity="0.1" d="M736.632 193.191C736.989 194.011 737.179 194.893 737.191 195.787C737.295 194.555 737.103 193.316 736.632 192.172C736.346 191.475 735.836 190.893 735.183 190.516C734.53 190.138 733.77 189.987 733.021 190.086C731.096 190.538 730.239 193.076 728.332 193.682C726.724 194.191 724.962 193.047 724.191 191.547C723.542 189.985 723.272 188.292 723.402 186.606C723.402 184.683 723.402 182.809 723.402 180.915C723.402 178.848 723.334 176.618 722.054 174.993C720.465 172.965 716.738 172.109 714.244 172.167C712.587 172.185 710.999 172.827 709.795 173.964C709.187 174.573 708.451 175.038 707.639 175.326C706.828 175.614 705.962 175.717 705.106 175.628C704.348 175.516 703.637 175.19 703.057 174.69C702.477 174.189 702.052 173.534 701.832 172.801C701.639 172.071 701.697 171.292 701.476 170.561C700.946 168.773 699.04 167.85 697.759 166.495C696.564 165.172 695.881 163.468 695.833 161.688C695.742 162.739 695.865 163.797 696.196 164.798C696.527 165.8 697.059 166.724 697.759 167.514C699.04 168.869 700.946 169.802 701.476 171.59C701.697 172.311 701.639 173.099 701.832 173.83C702.057 174.56 702.483 175.213 703.062 175.713C703.641 176.213 704.349 176.54 705.106 176.656C705.963 176.744 706.829 176.64 707.641 176.35C708.452 176.061 709.188 175.594 709.795 174.983C711.004 173.863 712.586 173.23 714.235 173.205C716.729 173.128 720.455 174.012 722.044 176.031C723.325 177.656 723.382 179.877 723.392 181.953C723.392 183.876 723.392 185.751 723.392 187.644C723.261 189.334 723.532 191.03 724.182 192.595C724.952 194.095 726.714 195.229 728.322 194.72C730.248 194.114 731.067 191.586 733.012 191.124C733.759 191.025 734.518 191.174 735.172 191.547C735.826 191.921 736.339 192.498 736.632 193.191Z" fill="black"/>
<path opacity="0.1" d="M755.343 186.933C754.925 188.099 754.269 189.167 753.417 190.067C750.9 193.066 748.393 196.069 745.896 199.075C742.738 202.872 739.387 207.265 739.627 212.11C739.859 207.669 742.959 203.631 745.896 200.103L753.417 191.086C754.269 190.189 754.925 189.125 755.343 187.961C755.528 187.142 755.593 186.3 755.535 185.462C755.53 185.958 755.465 186.452 755.343 186.933Z" fill="black"/>
<path opacity="0.1" d="M735.717 210.592C735.593 210.195 735.515 209.786 735.486 209.371C735.423 210.126 735.501 210.885 735.717 211.611C736.228 213.265 738.105 214.62 739.685 213.918C739.685 213.582 739.617 213.245 739.608 212.957C738.048 213.582 736.189 212.207 735.717 210.592Z" fill="black"/>
</g>
<path opacity="0.1" d="M659.906 529.625C659.906 529.625 662.395 532.435 671.424 529.955L659.906 529.625Z" fill="black"/>
<path opacity="0.1" d="M733.078 530.301C733.078 530.301 740.577 538.74 750.016 533.086L733.078 530.301Z" fill="black"/>
<path opacity="0.1" d="M754.759 426.812C754.759 426.812 749.519 430.29 749.346 432.28C749.174 434.269 752.053 430.831 752.053 430.831L754.759 426.812Z" fill="black"/>
<path opacity="0.1" d="M756.792 451.838C754.957 453.408 752.672 454.32 750.284 454.437C746.332 454.616 746.661 459.892 749.247 458.305C751.833 456.718 756.792 451.838 756.792 451.838Z" fill="black"/>
<path opacity="0.1" d="M757.469 455.22C757.469 455.22 755.227 467.417 753.404 465.065L757.469 455.22Z" fill="black"/>
<path fill-rule="evenodd" clip-rule="evenodd" d="M490.623 268.202C490.102 267.859 489.569 267.567 488.996 267.326C487.044 266.476 484.858 266.235 482.737 266.806C481.527 267.136 480.29 267.77 479.041 268.481C468.552 274.509 456.866 292.797 450.737 300.716C450.321 301.262 449.917 301.744 449.553 302.189C449.046 302.798 448.707 303.14 448.174 303.382C447.367 303.737 446.352 303.686 445.714 303.394C444.907 303.039 444.348 302.468 443.918 301.465C442.396 297.81 444.309 288.634 445.675 285.056C448.278 278.215 452.715 271.87 458.506 267.707C460.549 266.235 462.761 265.093 465.117 264.23C466.952 263.608 468.748 263.125 470.66 262.897C472.3 262.694 473.914 262.618 475.566 262.707C479.106 262.897 482.177 263.633 485.444 265.093C485.938 265.321 486.55 265.613 487.031 265.879C487.122 265.93 487.304 266.019 487.409 266.082C487.461 266.12 488.254 266.552 488.944 267.009C489.738 267.529 490.493 268.088 490.636 268.202C490.61 268.164 490.727 268.265 490.623 268.202Z" fill="#4B4BD8"/>
<path fill-rule="evenodd" clip-rule="evenodd" d="M502.751 292.404C500.148 299.219 495.71 305.578 489.919 309.74C487.876 311.212 485.664 312.355 483.309 313.218C481.474 313.84 479.678 314.322 477.765 314.55C476.125 314.753 474.512 314.829 472.859 314.741C469.32 314.55 466.248 313.814 462.982 312.355C462.488 312.126 461.876 311.834 461.394 311.568C461.303 311.517 461.121 311.428 461.017 311.365C460.965 311.327 460.171 310.895 459.468 310.438C458.675 309.918 457.92 309.36 457.777 309.245C457.777 309.233 457.725 309.195 457.803 309.245C458.271 309.563 458.779 309.829 459.286 310.058C461.277 310.971 463.516 311.238 465.689 310.641C466.886 310.311 468.135 309.677 469.385 308.966C479.86 302.951 491.52 284.701 497.662 276.769C498.092 276.21 498.495 275.703 498.873 275.259C499.38 274.649 499.718 274.307 500.252 274.066C501.059 273.71 502.074 273.761 502.725 274.053C503.518 274.408 504.039 274.979 504.455 275.982C505.965 279.662 504.117 288.825 502.751 292.404Z" fill="#4B4BD8"/>
<path fill-rule="evenodd" clip-rule="evenodd" d="M484.716 291.885C480.096 297.825 474.878 303.713 469.959 306.543C468.865 307.178 467.759 307.736 466.705 308.016C464.805 308.536 462.827 308.295 461.071 307.495C457.921 305.401 455.332 302.571 453.549 299.272C455.501 296.746 458.09 293.04 461.044 289.068C462.281 290.616 467.694 296.873 474.188 296.873C478.469 296.873 482.269 294.17 484.716 291.885Z" fill="#333333"/>
<path fill-rule="evenodd" clip-rule="evenodd" d="M494.839 278.215C492.887 280.74 490.31 284.446 487.369 288.405C486.159 286.882 480.72 280.588 474.213 280.588C469.997 280.588 466.236 283.227 463.776 285.499C468.37 279.585 473.575 273.735 478.468 270.917C479.561 270.283 480.668 269.724 481.722 269.445C483.583 268.937 485.495 269.153 487.226 269.902C490.414 271.996 493.043 274.864 494.839 278.215Z" fill="#333333"/>
<path d="M335.894 338.414C335.894 330.298 341.978 323.97 350.25 323.97C354.933 323.97 358.216 325.483 361.061 328.005L356.684 333.416C354.802 331.765 352.876 330.802 350.25 330.802C346.398 330.802 343.422 334.196 343.422 338.506C343.422 342.999 346.442 346.209 350.644 346.209C352.439 346.209 353.795 345.797 354.89 345.063V341.67H349.637V336.076H361.893V348.594C359.092 351.024 355.152 352.904 350.338 352.904C342.109 352.858 335.894 346.897 335.894 338.414Z" fill="#4B4BD8"/>
<path d="M365.854 346.933L375.831 338.804C378.325 336.783 379.244 335.405 379.244 333.706C379.244 331.915 378.063 330.813 376.269 330.813C374.475 330.813 373.074 331.915 370.974 334.487L365.986 330.078C368.83 326.128 371.63 323.97 376.837 323.97C382.657 323.97 386.639 327.644 386.639 333.109C386.639 337.656 384.451 340.044 380.469 343.075L375.919 346.474H386.902V352.903H365.854V346.933Z" fill="#4B4BD8"/>
<path d="M390.907 323.97H403.471C407.542 323.97 410.343 325.122 412.138 327.057C413.714 328.761 414.502 330.973 414.502 333.921C414.502 338.344 412.313 341.293 409.03 342.813L415.377 352.903H406.841L401.501 344.104H398.261V352.903H390.863V323.97H390.907ZM403.164 337.884C405.659 337.884 407.104 336.548 407.104 334.382C407.104 332.125 405.572 330.927 403.12 330.927H398.305V337.884H403.164Z" fill="#4B4BD8"/>
<path d="M422.756 346.038C423.736 346.038 424.55 346.358 425.199 346.999C425.848 347.627 426.173 348.434 426.173 349.422C426.173 350.41 425.848 351.224 425.199 351.865C424.55 352.492 423.736 352.806 422.756 352.806C421.764 352.806 420.943 352.485 420.294 351.845C419.657 351.204 419.339 350.396 419.339 349.422C419.339 348.447 419.657 347.64 420.294 346.999C420.943 346.358 421.764 346.038 422.756 346.038Z" fill="#4B4BD8"/>
<path d="M445.23 324.328L453.028 344.793L460.784 324.328H468.998V352.545H462.723V344.832L463.348 331.518L455.154 352.545H450.86L442.687 331.537L443.312 344.832V352.545H437.058V324.328H445.23Z" fill="#4B4BD8"/>
<path d="M493.297 346.731H482.331L480.246 352.545H473.595L484.895 324.328H490.691L502.054 352.545H495.403L493.297 346.731ZM484.02 342.022H491.609L487.793 331.46L484.02 342.022Z" fill="#4B4BD8"/>
<path d="M517.451 342.216H512.468V352.545H506.213V324.328H517.492C521.078 324.328 523.844 325.071 525.79 326.557C527.736 328.043 528.709 330.142 528.709 332.855C528.709 334.78 528.257 336.389 527.354 337.681C526.464 338.96 525.109 339.98 523.288 340.743L529.856 352.274V352.545H523.142L517.451 342.216ZM512.468 337.506H517.513C519.084 337.506 520.3 337.138 521.162 336.402C522.024 335.652 522.454 334.625 522.454 333.32C522.454 331.99 522.044 330.943 521.224 330.181C520.418 329.419 519.174 329.038 517.492 329.038H512.468V337.506Z" fill="#4B4BD8"/>
<path d="M544.314 341.227L541.062 344.483V352.545H534.807V324.328H541.062V337.119L543.814 333.611L551.549 324.328H559.242L548.463 336.867L559.555 352.545H552.112L544.314 341.227Z" fill="#4B4BD8"/>
<path d="M581.746 340.316H569.737V347.874H583.831V352.545H563.482V324.328H583.789V329.038H569.737V335.762H581.746V340.316Z" fill="#4B4BD8"/>
<path d="M612.339 329.038H603.04V352.545H596.786V329.038H587.612V324.328H612.339V329.038Z" fill="#4B4BD8"/>
<path fill-rule="evenodd" clip-rule="evenodd" d="M445.503 323.97L453.027 343.716L460.511 323.97H469.384V352.903H462.337V344.824L462.853 333.842L455.425 352.903H450.589L443.182 333.866L443.698 344.824V352.903H436.672V323.97H445.503ZM442.687 331.537L450.86 352.545H455.154L463.348 331.518L462.723 344.832V352.545H468.998V324.328H460.784L453.028 344.793L445.23 324.328H437.058V352.545H443.312V344.832L442.687 331.537ZM495.403 352.545L493.297 346.731H482.331L480.246 352.545H473.595L484.895 324.328H490.691L502.054 352.545H495.403ZM482.609 347.09L480.524 352.903H473.04L484.627 323.97H490.959L502.61 352.903H495.126L493.02 347.09H482.609ZM491.609 342.022L487.793 331.46L484.02 342.022H491.609ZM484.554 341.663H491.072L487.795 332.592L484.554 341.663ZM529.856 352.274V352.545H523.142L517.451 342.216H512.468V352.545H506.213V324.328H517.492C521.078 324.328 523.844 325.071 525.79 326.557C527.736 328.043 528.709 330.142 528.709 332.855C528.709 334.78 528.257 336.389 527.354 337.681C526.522 338.877 525.284 339.846 523.638 340.591C523.524 340.642 523.407 340.693 523.288 340.743L529.856 352.274ZM523.819 340.908L530.242 352.184V352.903H522.907L517.215 342.574H512.854V352.903H505.827V323.97H517.492C521.131 323.97 523.996 324.723 526.035 326.28C528.085 327.845 529.095 330.054 529.095 332.855C529.095 334.832 528.631 336.513 527.677 337.876C526.803 339.134 525.509 340.141 523.819 340.908ZM520.952 330.434L520.949 330.432C520.244 329.765 519.119 329.396 517.492 329.396H512.854V337.148H517.513C519.02 337.148 520.131 336.795 520.9 336.139C521.668 335.47 522.069 334.546 522.069 333.32C522.069 332.061 521.683 331.114 520.952 330.434ZM521.162 336.402C520.3 337.138 519.084 337.506 517.513 337.506H512.468V329.038H517.492C519.174 329.038 520.418 329.419 521.224 330.181C522.044 330.943 522.454 331.99 522.454 333.32C522.454 334.625 522.024 335.652 521.162 336.402ZM552.112 352.545L544.314 341.227L541.062 344.483V352.545H534.807V324.328H541.062V337.119L543.814 333.611L551.549 324.328H559.242L548.463 336.867L559.555 352.545H552.112ZM548.94 336.887L560.27 352.903H551.901L544.258 341.81L541.448 344.624V352.903H534.422V323.97H541.448V336.019L543.506 333.396L551.36 323.97H560.044L548.94 336.887ZM582.132 340.675H570.123V347.516H584.217V352.903H563.096V323.97H584.175V329.396H570.123V335.404H582.132V340.675ZM569.737 335.762V329.038H583.789V324.328H563.482V352.545H583.831V347.874H569.737V340.316H581.746V335.762H569.737ZM612.725 329.396H603.426V352.903H596.4V329.396H587.226V323.97H612.725V329.396ZM596.786 329.038V352.545H603.04V329.038H612.339V324.328H587.612V329.038H596.786Z" fill="#4B4BD8"/>
<ellipse cx="473.71" cy="249.706" rx="2.71013" ry="2.70563" fill="#333333"/>
<ellipse cx="360.71" cy="292.706" rx="2.71013" ry="2.70563" fill="#333333"/>
<ellipse cx="576.71" cy="292.706" rx="2.71013" ry="2.70563" fill="#333333"/>
<path d="M517.522 159.375H431.096C428.334 159.375 426.096 161.613 426.096 164.375V223.137C426.096 225.899 428.334 228.137 431.096 228.137H517.522C520.284 228.137 522.522 225.899 522.522 223.137V164.375C522.522 161.613 520.284 159.375 517.522 159.375Z" fill="#4B4BD8"/>
<path d="M398.137 159.375H310.563C307.801 159.375 305.562 161.613 305.562 164.375V223.137C305.562 225.899 307.801 228.137 310.562 228.137H398.137C400.899 228.137 403.137 225.899 403.137 223.137V164.375C403.137 161.613 400.899 159.375 398.137 159.375Z" fill="#4B4BD8"/>
<path d="M637.482 159.375H550.481C547.72 159.375 545.481 161.613 545.481 164.375V223.137C545.481 225.899 547.72 228.137 550.481 228.137H637.482C640.244 228.137 642.482 225.899 642.482 223.137V164.375C642.482 161.613 640.244 159.375 637.482 159.375Z" fill="#4B4BD8"/>
<path fill-rule="evenodd" clip-rule="evenodd" d="M339.773 193.877C339.6 193.843 339.395 193.74 339.223 193.603C337.645 192.061 339.67 190.279 341.97 189.251V186.338C342.519 186.646 342.793 186.681 342.828 186.749L344.612 184.967L344.029 183.459C349.213 181.643 351.306 180.958 355.527 180.238L354.773 179.519L356.041 178.799C358.856 179.758 361.533 179.999 361.053 182.397C361.19 180.786 359.2 180.17 356.111 179.279L355.527 179.656L356.66 180.581C351.614 181.472 348.491 182.465 344.783 183.768L345.298 185.07L343.445 186.92C343.754 186.989 346.981 188.12 350.344 185.721C350.378 185.721 350.414 185.687 350.414 185.653C350.31 185.481 350.104 185.31 349.83 185.07C350.791 185.139 351.443 186.029 351.306 186.92H350.859C350.929 186.647 350.859 186.303 350.722 186.098C348.148 188.017 345.093 188.291 342.519 187.4V189.662C341.283 190.107 339.017 191.478 339.052 192.815C339.12 193.465 339.464 193.705 339.773 193.877Z" fill="white"/>
<path fill-rule="evenodd" clip-rule="evenodd" d="M350.384 193.35C347.57 194.789 344.893 195.92 340.774 196.091C335.42 195.989 334.561 192.391 337.101 188.621C339.504 184.818 343.314 181.425 349.389 179.266C351.14 178.649 353.748 177.929 356.22 177.895C359.823 177.861 363.29 178.992 363.085 182.453C362.948 185.092 359.137 188.826 357.146 191.534C356.288 192.699 356.151 193.453 357.593 193.384C362.913 193.042 367.719 191.191 372.18 189.272C369.16 191.328 353.542 199.14 353.474 193.795C353.507 193.144 353.817 192.424 354.297 191.67C354.813 190.916 355.499 190.094 356.22 189.306C357.283 188.072 359.927 185.16 360.785 183.378C362.295 180.054 358.931 179.882 356.082 178.855L354.813 179.574L355.567 180.293C351.346 181.012 349.252 181.698 344.07 183.515L344.653 185.022L342.868 186.804C342.834 186.735 342.559 186.701 342.01 186.393V189.306C339.71 190.334 337.685 192.116 339.263 193.659C339.436 193.795 339.641 193.898 339.813 193.932C342.661 195.543 350.384 193.35 350.384 193.35ZM327.829 201.3V199.552H330.403V201.3H327.829ZM327.898 208.531V202.259H330.301V208.531H327.898ZM356.283 205.241C356.283 204.659 356.146 204.213 355.838 203.871C355.529 203.528 355.083 203.357 354.568 203.357H354.534C353.985 203.391 353.573 203.528 353.263 203.871C352.955 204.213 352.818 204.693 352.818 205.31C352.818 205.927 352.955 206.407 353.263 206.749C353.573 207.092 353.985 207.229 354.534 207.229C355.083 207.229 355.529 207.058 355.839 206.715C356.146 206.372 356.283 205.858 356.283 205.241ZM354.534 202.225C354.861 202.155 355.194 202.121 355.529 202.122C356.524 202.122 357.313 202.397 357.897 202.979C358.446 203.562 358.755 204.35 358.755 205.344C358.755 206.406 358.481 207.228 357.897 207.81C357.348 208.393 356.558 208.701 355.563 208.701C355.219 208.701 354.876 208.633 354.534 208.565L354.018 208.359C353.572 208.119 353.16 207.81 352.817 207.365V208.051C352.817 208.223 352.783 208.393 352.748 208.53H350.345C350.38 208.29 350.38 208.051 350.414 207.81C350.414 207.571 350.449 207.331 350.449 207.126V199.552H352.817V203.15C353.195 202.808 353.606 202.533 354.053 202.363C354.225 202.295 354.361 202.259 354.534 202.225ZM381.855 203.013C383.125 203.013 384.155 204.076 384.155 205.344C384.155 206.612 383.126 207.64 381.855 207.64C380.585 207.64 379.522 206.612 379.522 205.344C379.522 204.076 380.585 203.013 381.855 203.013ZM381.855 208.702C383.709 208.702 385.219 207.194 385.219 205.344C385.219 203.459 383.708 201.952 381.855 201.952C380.001 201.952 378.457 203.459 378.457 205.344C378.457 207.194 380.001 208.702 381.855 208.702ZM369.498 207.572H370.563V208.531H369.498V207.572ZM377.599 207.742C377.256 208.017 376.57 208.702 375.231 208.702C373.515 208.702 371.868 207.365 371.868 205.344C371.868 203.323 373.515 201.952 375.231 201.952C376.501 201.952 377.256 202.636 377.599 202.911C377.394 203.22 377.222 203.768 377.153 204.007C376.501 203.15 375.712 203.014 375.231 203.014C373.962 203.014 372.931 204.077 372.931 205.344C372.931 206.578 373.961 207.64 375.231 207.64C375.952 207.64 376.639 207.331 377.153 206.647C377.29 207.194 377.496 207.537 377.599 207.742ZM386.729 208.531V202.259H387.69V203.15C387.897 202.843 388.171 202.602 388.48 202.397C388.83 202.218 389.219 202.124 389.613 202.123C390.059 202.123 390.436 202.225 390.746 202.397C391.054 202.602 391.26 202.877 391.397 203.219C391.878 202.5 392.53 202.122 393.32 202.122C393.937 202.122 394.418 202.295 394.761 202.636C395.104 202.979 395.276 203.527 395.276 204.247V208.531H394.212V204.59C394.212 204.144 394.178 203.87 394.109 203.665C394.033 203.48 393.901 203.324 393.731 203.219C393.532 203.106 393.308 203.047 393.079 203.048C392.633 203.048 392.29 203.184 391.98 203.493C391.707 203.767 391.535 204.247 391.535 204.899V208.531H390.47V204.453C390.47 203.974 390.402 203.631 390.23 203.39C390.058 203.15 389.749 203.048 389.371 203.048C389.063 203.048 388.788 203.116 388.549 203.287C388.274 203.424 388.102 203.664 387.999 203.973C387.862 204.281 387.827 204.726 387.827 205.274V208.53L386.729 208.531ZM394.864 200.889V199.689H394.418V199.552H395.517V199.689H395.07V200.889H394.864ZM395.688 200.889V199.552H395.963L396.271 200.512C396.306 200.581 396.306 200.649 396.341 200.684C396.341 200.65 396.375 200.581 396.409 200.478L396.719 199.553H396.958V200.889H396.786V199.759L396.409 200.889H396.236L395.86 199.759V200.889L395.688 200.889ZM365.002 207.606C364.761 207.983 364.384 208.223 363.869 208.428C363.766 208.462 363.63 208.497 363.526 208.531C363.054 208.646 362.57 208.704 362.084 208.702C361.295 208.702 360.677 208.531 360.231 208.188C359.819 207.88 359.578 207.4 359.578 206.783C359.578 206.406 359.681 206.063 359.853 205.755C360.025 205.481 360.265 205.24 360.574 205.036C360.814 204.864 361.192 204.761 361.638 204.693C362.05 204.624 362.668 204.59 363.526 204.59H364.967V204.418C364.967 204.076 364.864 203.801 364.659 203.631C364.453 203.459 364.178 203.357 363.8 203.357C363.698 203.357 363.594 203.391 363.526 203.391C363.217 203.391 362.977 203.459 362.805 203.563C362.599 203.665 362.462 203.871 362.428 204.145H359.99C360.059 203.459 360.437 202.945 361.054 202.602C361.604 202.295 362.428 202.157 363.526 202.123H363.835C365.002 202.123 365.895 202.329 366.443 202.706C366.992 203.082 367.267 203.699 367.267 204.522V207.708C367.267 207.88 367.301 208.051 367.301 208.188C367.335 208.29 367.37 208.428 367.404 208.531H365.173C365.104 208.428 365.07 208.29 365.036 208.154C365.036 208.051 365.002 207.88 365.002 207.742V207.606ZM363.526 207.331C363.938 207.297 364.281 207.16 364.522 206.955C364.796 206.715 364.967 206.337 364.967 205.892V205.755H364.761C364.281 205.755 363.869 205.755 363.526 205.789C363.149 205.823 362.874 205.858 362.668 205.961C362.291 206.063 362.084 206.303 362.084 206.646C362.084 206.851 362.187 207.022 362.394 207.16C362.599 207.263 362.909 207.331 363.286 207.331L363.526 207.331ZM346.536 207.606C346.261 207.983 345.884 208.223 345.369 208.428C345.266 208.462 345.163 208.497 345.026 208.531C344.614 208.633 344.133 208.702 343.584 208.702C342.795 208.702 342.177 208.531 341.765 208.188C341.319 207.88 341.113 207.4 341.113 206.783C341.113 206.406 341.182 206.063 341.354 205.755C341.525 205.481 341.765 205.24 342.074 205.036C342.349 204.864 342.692 204.761 343.138 204.693C343.55 204.624 344.168 204.59 345.026 204.59H346.468V204.418C346.468 204.076 346.365 203.801 346.159 203.631C345.953 203.459 345.678 203.357 345.301 203.357C345.198 203.357 345.129 203.391 345.026 203.391C344.717 203.391 344.477 203.459 344.305 203.563C344.1 203.665 343.997 203.871 343.928 204.145H341.491C341.594 203.459 341.938 202.945 342.555 202.602C343.138 202.295 343.962 202.157 345.026 202.123H345.336C346.503 202.123 347.395 202.329 347.944 202.706C348.493 203.082 348.802 203.699 348.802 204.522V208.188C348.836 208.29 348.871 208.428 348.905 208.531H346.674C346.604 208.418 346.568 208.287 346.57 208.154C346.537 208.051 346.537 207.88 346.537 207.742L346.536 207.606ZM345.025 207.331C345.472 207.297 345.78 207.16 346.021 206.955C346.33 206.715 346.467 206.337 346.467 205.892V205.755H346.261C345.78 205.755 345.369 205.755 345.025 205.789C344.682 205.823 344.407 205.858 344.202 205.961C343.79 206.063 343.618 206.303 343.618 206.646C343.618 206.851 343.721 207.022 343.892 207.16C344.099 207.263 344.407 207.331 344.819 207.331L345.025 207.331ZM337.783 205.241C337.783 204.659 337.646 204.213 337.337 203.871C337.028 203.528 336.616 203.357 336.067 203.357C335.484 203.391 335.072 203.528 334.763 203.871C334.454 204.213 334.316 204.693 334.316 205.31C334.316 205.927 334.454 206.407 334.763 206.749C335.072 207.092 335.518 207.229 336.033 207.229H336.067C336.616 207.229 337.028 207.058 337.336 206.715C337.646 206.372 337.783 205.858 337.783 205.241ZM336.067 202.225C336.383 202.155 336.705 202.121 337.028 202.122C338.024 202.122 338.813 202.397 339.397 202.979C339.98 203.562 340.255 204.35 340.255 205.344C340.255 206.406 339.98 207.228 339.432 207.81C338.848 208.393 338.093 208.701 337.097 208.701C336.719 208.701 336.377 208.633 336.068 208.565C335.892 208.508 335.72 208.44 335.553 208.359C335.072 208.119 334.661 207.81 334.351 207.365V207.571C334.351 207.742 334.351 207.88 334.317 208.051C334.317 208.223 334.283 208.393 334.283 208.53H331.846C331.88 208.29 331.914 208.051 331.914 207.81C331.949 207.571 331.949 207.331 331.949 207.126V199.552H334.352V203.15C334.693 202.807 335.102 202.539 335.553 202.363C335.724 202.295 335.895 202.259 336.067 202.225ZM319.111 199.552L323.504 208.531H320.621L319.832 206.715H314.924L314.066 208.531H311.354L316.056 199.552H319.111ZM319.008 204.967L317.463 201.506L317.36 201.677L315.747 204.968L319.008 204.967ZM323.916 208.531V199.552H326.319V208.531H323.916Z" fill="white"/>
<line x1="345.681" y1="233.359" x2="345.681" y2="291.53" stroke="#333333" stroke-width="3"/>
<line y1="-1.5" x2="58.1708" y2="-1.5" transform="matrix(6.46232e-08 1 1 -2.95666e-08 593.509 233.359)" stroke="#333333" stroke-width="3"/>
<line x1="473.732" y1="233.359" x2="473.732" y2="250.269" stroke="#333333" stroke-width="3"/>
<line x1="360.441" y1="293.03" x2="344.181" y2="293.03" stroke="#333333" stroke-width="3"/>
<line y1="-1.5" x2="16.9379" y2="-1.5" transform="matrix(1 0 0 -1 576.571 291.53)" stroke="#333333" stroke-width="3"/>
<path d="M447.503 205.317H442.517V186.848L440.041 187.637L438.356 183.69L447.503 180.806V205.317Z" fill="white"/>
<path d="M456.856 189.972C459.916 184.411 465.177 185.029 465.177 185.029L466.381 180.6C455.171 180.6 450.495 187.981 450.495 194.435C450.495 203.498 454.38 205.695 459.882 205.695C472.364 205.66 472.364 185.303 456.856 189.972ZM459.813 201.301C457.441 201.301 455.962 199.79 455.962 197.456C455.962 195.327 457.681 193.611 459.813 193.611C462.255 193.611 463.664 195.327 463.664 197.456C463.664 199.55 461.945 201.301 459.813 201.301Z" fill="white"/>
<path d="M485.775 192.238C489.729 190.899 490.795 180.909 480.41 180.909C470.026 180.909 471.092 190.899 475.046 192.238C468.341 196.357 470.026 205.661 480.41 205.661C490.795 205.661 492.514 196.357 485.775 192.238ZM480.41 185.097C485.878 185.097 483.402 189.835 480.41 190.247C477.419 189.835 474.943 185.097 480.41 185.097ZM480.41 201.198C473.808 201.198 476.8 194.95 480.41 194.744C484.021 194.984 487.012 201.198 480.41 201.198Z" fill="white"/>
<path d="M506.819 192.238C510.773 190.899 511.839 180.909 501.454 180.909C491.07 180.909 492.136 190.899 496.09 192.238C489.385 196.357 491.07 205.661 501.454 205.661C511.839 205.661 513.524 196.357 506.819 192.238ZM501.42 185.097C506.887 185.097 504.412 189.835 501.42 190.247C498.428 189.835 495.953 185.097 501.42 185.097ZM501.42 201.198C494.818 201.198 497.81 194.95 501.42 194.744C505.065 194.984 508.022 201.198 501.42 201.198Z" fill="white"/>
<path fill-rule="evenodd" clip-rule="evenodd" d="M603.687 203.147C599.133 206.508 592.509 208.299 586.796 208.299C578.792 208.299 571.616 205.351 566.151 200.446C565.737 200.061 566.096 199.537 566.621 199.84C572.499 203.257 579.758 205.296 587.265 205.296C592.316 205.296 597.891 204.249 603.024 202.072C603.797 201.769 604.432 202.596 603.687 203.147Z" fill="white"/>
<path fill-rule="evenodd" clip-rule="evenodd" d="M605.591 200.97C605.011 200.226 601.727 200.612 600.264 200.805C599.823 200.86 599.74 200.474 600.154 200.198C602.776 198.352 607.054 198.903 607.551 199.51C608.047 200.116 607.413 204.414 604.956 206.453C604.57 206.756 604.211 206.591 604.377 206.178C604.929 204.8 606.171 201.741 605.591 200.97Z" fill="white"/>
<path fill-rule="evenodd" clip-rule="evenodd" d="M600.347 187.248V185.457C600.347 185.182 600.54 185.016 600.789 185.016H608.793C609.041 185.016 609.262 185.209 609.262 185.457V186.973C609.262 187.221 609.041 187.551 608.655 188.102L604.515 193.999C606.06 193.971 607.689 194.192 609.069 194.963C609.372 195.129 609.455 195.404 609.483 195.652V197.554C609.483 197.829 609.207 198.132 608.903 197.967C606.447 196.672 603.162 196.534 600.458 197.994C600.182 198.132 599.878 197.857 599.878 197.581V195.762C599.878 195.487 599.878 194.991 600.182 194.55L604.984 187.689H600.816C600.568 187.689 600.347 187.496 600.347 187.248ZM571.174 198.353H568.746C568.525 198.325 568.332 198.16 568.304 197.939V185.485C568.304 185.237 568.525 185.044 568.773 185.044H571.036C571.285 185.044 571.45 185.237 571.478 185.457V187.083H571.533C572.113 185.512 573.244 184.768 574.735 184.768C576.253 184.768 577.219 185.512 577.881 187.083C578.461 185.512 579.813 184.768 581.248 184.768C582.269 184.768 583.373 185.182 584.063 186.146C584.836 187.193 584.671 188.709 584.671 190.059V197.939C584.671 198.187 584.45 198.38 584.201 198.38H581.8C581.552 198.353 581.359 198.16 581.359 197.939V191.326C581.359 190.803 581.414 189.48 581.303 188.984C581.11 188.158 580.586 187.91 579.868 187.91C579.289 187.91 578.654 188.295 578.405 188.929C578.157 189.563 578.185 190.61 578.185 191.326V197.939C578.185 198.187 577.964 198.38 577.715 198.38H575.287C575.038 198.353 574.845 198.16 574.845 197.939V191.326C574.845 189.949 575.066 187.882 573.355 187.882C571.616 187.882 571.671 189.866 571.671 191.326V197.939C571.644 198.16 571.45 198.353 571.174 198.353ZM616.162 184.768C619.777 184.768 621.737 187.854 621.737 191.795C621.737 195.597 619.584 198.628 616.162 198.628C612.629 198.628 610.697 195.542 610.697 191.684C610.669 187.799 612.629 184.768 616.162 184.768ZM616.162 187.331C614.368 187.331 614.257 189.783 614.257 191.299C614.257 192.814 614.23 196.066 616.134 196.066C618.011 196.066 618.121 193.448 618.121 191.85C618.121 190.803 618.066 189.535 617.762 188.543C617.486 187.662 616.934 187.331 616.162 187.331ZM626.401 198.353H623.972C623.724 198.325 623.531 198.132 623.531 197.912V185.43C623.558 185.209 623.752 185.016 624 185.016H626.263C626.484 185.016 626.65 185.182 626.705 185.375V187.276H626.76C627.45 185.567 628.388 184.768 630.072 184.768C631.148 184.768 632.225 185.154 632.915 186.229C633.549 187.221 633.549 188.902 633.549 190.114V197.967C633.522 198.187 633.329 198.353 633.08 198.353H630.651C630.431 198.325 630.237 198.16 630.21 197.967V191.189C630.21 189.811 630.375 187.827 628.692 187.827C628.112 187.827 627.56 188.213 627.284 188.819C626.953 189.59 626.898 190.334 626.898 191.189V197.912C626.87 198.16 626.65 198.353 626.401 198.353ZM593.972 192.401C593.972 193.338 593.999 194.137 593.53 194.991C593.144 195.68 592.536 196.093 591.846 196.093C590.908 196.093 590.356 195.377 590.356 194.33C590.356 192.263 592.205 191.877 593.972 191.877V192.401ZM596.428 198.325C596.262 198.463 596.042 198.49 595.848 198.38C595.048 197.719 594.882 197.388 594.441 196.754C593.116 198.105 592.15 198.518 590.439 198.518C588.397 198.518 586.796 197.25 586.796 194.743C586.796 192.759 587.872 191.436 589.39 190.775C590.715 190.197 592.564 190.086 593.972 189.921V189.618C593.972 189.039 594.027 188.35 593.668 187.854C593.364 187.414 592.812 187.221 592.316 187.221C591.377 187.221 590.549 187.689 590.356 188.681C590.301 188.902 590.163 189.122 589.942 189.122L587.596 188.874C587.403 188.819 587.182 188.681 587.237 188.378C587.789 185.512 590.356 184.658 592.674 184.658C593.861 184.658 595.407 184.961 596.345 185.871C597.532 186.973 597.422 188.461 597.422 190.059V193.834C597.422 194.963 597.891 195.459 598.332 196.093C598.498 196.314 598.526 196.589 598.332 196.727C597.808 197.14 596.925 197.912 596.428 198.325ZM562.094 192.401C562.094 193.338 562.122 194.137 561.653 194.991C561.266 195.68 560.659 196.093 559.969 196.093C559.031 196.093 558.479 195.377 558.479 194.33C558.479 192.263 560.328 191.877 562.094 191.877V192.401ZM564.523 198.325C564.357 198.463 564.136 198.49 563.943 198.38C563.143 197.719 562.977 197.388 562.536 196.754C561.211 198.105 560.245 198.518 558.534 198.518C556.491 198.518 554.891 197.25 554.891 194.743C554.891 192.759 555.967 191.436 557.485 190.775C558.81 190.197 560.659 190.086 562.067 189.921V189.618C562.067 189.039 562.122 188.35 561.763 187.854C561.459 187.414 560.907 187.221 560.411 187.221C559.472 187.221 558.644 187.689 558.451 188.681C558.396 188.902 558.258 189.122 558.037 189.122L555.691 188.874C555.498 188.819 555.277 188.681 555.332 188.378C555.884 185.512 558.451 184.658 560.769 184.658C561.956 184.658 563.502 184.961 564.44 185.871C565.627 186.973 565.516 188.461 565.516 190.059V193.834C565.516 194.963 565.986 195.459 566.427 196.093C566.593 196.314 566.62 196.589 566.427 196.727C565.903 197.14 565.02 197.912 564.523 198.325Z" fill="white"/>
<defs>
<linearGradient id="paint0_linear" x1="703.931" y1="555.353" x2="703.931" y2="149.455" gradientUnits="userSpaceOnUse">
<stop stop-color="#808080" stop-opacity="0.25"/>
<stop offset="0.54" stop-color="#808080" stop-opacity="0.12"/>
<stop offset="1" stop-color="#808080" stop-opacity="0.1"/>
</linearGradient>
</defs>
</svg>
