<svg width="873" height="530" viewBox="0 0 873 530" fill="none" xmlns="http://www.w3.org/2000/svg">
<g clip-path="url(#clip0)">
<path d="M789.06 364.677C785.394 396.087 777.779 421.306 767.325 441.418C753.415 468.216 729.622 479.013 708.367 490.311C702.226 493.57 695.84 496.347 689.269 498.618C650.592 512.045 607.304 508.483 573.301 501.394C549.452 496.417 525.243 493.356 500.906 492.238C493.965 491.925 487.017 491.77 480.062 491.772C469.337 491.786 220.076 528.799 173.06 433.587C161.452 410.1 161.869 354.404 159.011 319.432C150.922 220.561 314.1 185.532 371.444 143.088C479.921 62.7983 557.673 29.9185 664.551 112.323C735.742 167.213 802.399 250.285 789.06 364.677Z" fill="#EDF6FF"/>
<path opacity="0.1" d="M436.288 529.56C677.048 529.56 872.222 516.02 872.222 499.317C872.222 482.615 677.048 469.075 436.288 469.075C195.529 469.075 0.354492 482.615 0.354492 499.317C0.354492 516.02 195.529 529.56 436.288 529.56Z" fill="#536DFE"/>
<path d="M798.028 55.3257H823.502V494.788H798.028V55.3257Z" fill="#004290"/>
<path d="M823.502 80.8708V55.3235H190.118V55.3319C190.118 69.4366 201.526 80.8708 215.598 80.8708H823.502Z" fill="#004290"/>
<path d="M79.8157 432.105H726.316V494.412H79.8157V432.105Z" fill="#3591ED"/>
<path d="M33.5219 414.532H745.471V432.106H33.5219V414.532Z" fill="#3591ED"/>
<path d="M14.2134 415.087H764.382C771.292 415.087 776.894 408.137 776.894 399.562V399.553C776.894 390.978 771.292 384.027 764.382 384.027H14.2134C7.30334 384.027 1.70215 390.978 1.70215 399.553V399.562C1.70215 408.137 7.30334 415.087 14.2134 415.087Z" fill="#3B6075"/>
<path d="M14.2091 417.199H764.385C772.22 417.199 778.594 409.284 778.594 399.558C778.594 389.83 772.22 381.917 764.385 381.917H14.2091C6.37421 381.917 0.000488281 389.83 0.000488281 399.558C0.000488281 409.286 6.37421 417.199 14.2091 417.199ZM764.385 386.142C770.343 386.142 775.192 392.162 775.192 399.558C775.192 406.957 770.343 412.975 764.385 412.975H14.2091C8.25116 412.975 3.4021 406.954 3.4021 399.558C3.4021 392.159 8.25116 386.142 14.2091 386.142H764.385Z" fill="#FCFCFC"/>
<path d="M384.509 410.565C378.447 410.565 373.534 405.637 373.534 399.559C373.534 393.481 378.447 388.553 384.509 388.553C390.57 388.553 395.483 393.481 395.483 399.559C395.483 405.637 390.57 410.565 384.509 410.565Z" fill="#BDE7FF"/>
<path d="M22.1492 410.565C16.088 410.565 11.1744 405.637 11.1744 399.559C11.1744 393.481 16.088 388.553 22.1492 388.553C28.2104 388.553 33.124 393.481 33.124 399.559C33.124 405.637 28.2104 410.565 22.1492 410.565Z" fill="#BDE7FF"/>
<path d="M754.85 410.565C748.789 410.565 743.875 405.637 743.875 399.559C743.875 393.481 748.789 388.553 754.85 388.553C760.912 388.553 765.825 393.481 765.825 399.559C765.825 405.637 760.912 410.565 754.85 410.565Z" fill="#BDE7FF"/>
<path d="M79.8157 432.105L546.446 493.632L726.316 494.412V432.105H79.8157Z" fill="#004290"/>
<path d="M488.468 296.308H573.396V381.477H488.468V296.308Z" fill="#C29472"/>
<path d="M521.99 296.308H541.734V306.208H521.99V296.308Z" fill="#FFE0C9"/>
<path d="M355.974 296.554H440.903V381.723H355.974V296.554Z" fill="#C29472"/>
<path d="M387.637 296.554H407.381V306.454H387.637V296.554Z" fill="#FFE0C9"/>
<path d="M221.886 296.308H306.814V381.477H221.886V296.308Z" fill="#C29472"/>
<path d="M255.145 296.308H274.889V306.208H255.145V296.308Z" fill="#FFE0C9"/>
<path d="M452.373 48.0596H487.871V101.094H452.373V48.0596Z" fill="#CCE6F4"/>
<path d="M389.017 187.737V239.058H381.648V187.737H389.017Z" fill="#385369"/>
<path d="M414.617 187.74V239.06H407.249V187.74H414.617Z" fill="#385369"/>
<path d="M462.192 83.9896L484.137 111.972L416.147 165.539L394.202 137.557L462.192 83.9896Z" fill="#CCE6F4"/>
<path d="M470.122 123.072C458.018 123.072 448.206 113.233 448.206 101.095C448.206 88.9571 458.018 79.1174 470.122 79.1174C482.226 79.1174 492.038 88.9571 492.038 101.095C492.038 113.233 482.226 123.072 470.122 123.072Z" fill="#385369"/>
<path d="M470.122 117.01C461.357 117.01 454.252 109.885 454.252 101.095C454.252 92.3055 461.357 85.1802 470.122 85.1802C478.887 85.1802 485.992 92.3055 485.992 101.095C485.992 109.885 478.887 117.01 470.122 117.01Z" fill="#ABC6DB"/>
<path d="M429.551 55.3264H510.69V54.049C510.69 44.5209 502.985 36.8003 493.479 36.8003H446.76C437.254 36.8003 429.548 44.5237 429.548 54.049V55.3264H429.551Z" fill="#004290"/>
<path d="M380.883 154.385H416.382V207.42H380.883V154.385Z" fill="#CCE6F4"/>
<path d="M373.045 196.9H424.22V211.665H373.045V196.9Z" fill="#CCE6F4"/>
<path d="M373.045 219.39H424.22V234.155H373.045V219.39Z" fill="#CCE6F4"/>
<path d="M399.226 176.837C387.122 176.837 377.31 166.997 377.31 154.859C377.31 142.721 387.122 132.882 399.226 132.882C411.33 132.882 421.142 142.721 421.142 154.859C421.142 166.997 411.33 176.837 399.226 176.837Z" fill="#385369"/>
<path d="M399.227 170.774C390.462 170.774 383.357 163.649 383.357 154.859C383.357 146.07 390.462 138.944 399.227 138.944C407.991 138.944 415.097 146.07 415.097 154.859C415.097 163.649 407.991 170.774 399.227 170.774Z" fill="#ABC6DB"/>
<path d="M378.501 241.723L356.341 255.616L347.965 272.916L352.585 299.89L356.341 301.506L359.646 274.551L368.629 260.111L381.928 253.845V241.723H378.501Z" fill="#CCE6F4"/>
<path d="M419.148 241.723L441.306 255.616L449.684 272.916L445.064 299.89L441.306 301.506L438 274.551L429.02 260.111L415.718 253.845V241.723H419.148Z" fill="#CCE6F4"/>
<path d="M377.303 237.493H420.645V249.486H377.303V237.493Z" fill="#CCE6F4"/>
<path d="M374.107 245.809C374.107 248.632 376.389 250.919 379.202 250.919C382.015 250.919 384.297 248.632 384.297 245.809C384.297 242.987 382.015 240.7 379.202 240.7C376.389 240.7 374.107 242.987 374.107 245.809Z" fill="#ABC6DB"/>
<path d="M375.6 245.809C375.6 247.805 377.212 249.421 379.204 249.421C381.193 249.421 382.808 247.802 382.808 245.809C382.808 243.813 381.196 242.197 379.204 242.197C377.212 242.194 375.6 243.813 375.6 245.809Z" fill="#385369"/>
<path d="M412.373 245.809C412.373 248.632 414.654 250.919 417.468 250.919C420.281 250.919 422.562 248.632 422.562 245.809C422.562 242.987 420.281 240.7 417.468 240.7C414.654 240.7 412.373 242.987 412.373 245.809Z" fill="#ABC6DB"/>
<path d="M413.864 245.809C413.864 247.805 415.476 249.421 417.468 249.421C419.457 249.421 421.072 247.802 421.072 245.809C421.072 243.813 419.46 242.197 417.468 242.197C415.479 242.194 413.864 243.813 413.864 245.809Z" fill="#385369"/>
<path d="M509.506 55.3257H648.906V112.72H509.506V55.3257Z" fill="#3591ED"/>
<path d="M509.506 130.671H648.906V144.869H509.506V130.671Z" fill="#3591ED"/>
<path d="M632.41 61.7944L716.775 12.9473L721.726 21.537L637.36 70.3842L632.41 61.7944Z" fill="#3591ED"/>
<path d="M763.411 92.836L714.703 8.23486L723.273 3.27823L771.981 87.8794L763.411 92.836Z" fill="#3591ED"/>
<path d="M653.922 131.13L620.902 73.7795L624.357 71.7811L657.377 129.132L653.922 131.13Z" fill="#4689B0"/>
<path d="M654.624 55.3257H707.385V163.578H654.624V55.3257Z" fill="#004290"/>
<path d="M532.181 46.0635H634.387V98.0098H532.181V46.0635Z" fill="#2E89E3"/>
<path d="M668.169 100.02H693.388C695.428 100.02 697.079 98.3645 697.079 96.3202V94.7919C697.079 92.7503 695.428 91.0923 693.388 91.0923H668.169C666.129 91.0923 664.478 92.7475 664.478 94.7919V96.3202C664.478 98.3645 666.129 100.02 668.169 100.02Z" fill="#1A5E8F"/>
<path d="M668.169 114.835H693.388C695.428 114.835 697.079 113.18 697.079 111.136V109.607C697.079 107.566 695.428 105.908 693.388 105.908H668.169C666.129 105.908 664.478 107.563 664.478 109.607V111.136C664.478 113.18 666.129 114.835 668.169 114.835Z" fill="#1A5E8F"/>
<path d="M668.169 129.654H693.388C695.428 129.654 697.079 127.998 697.079 125.954V124.426C697.079 122.381 695.428 120.726 693.388 120.726H668.169C666.129 120.726 664.478 122.381 664.478 124.426V125.954C664.478 127.995 666.129 129.654 668.169 129.654Z" fill="#1A5E8F"/>
<path d="M668.169 144.469H693.388C695.428 144.469 697.079 142.813 697.079 140.769V139.241C697.079 137.196 695.428 135.541 693.388 135.541H668.169C666.129 135.541 664.478 137.196 664.478 139.241V140.769C664.478 142.813 666.129 144.469 668.169 144.469Z" fill="#1A5E8F"/>
<path d="M723.864 36.8002C714.006 36.8002 706.014 28.786 706.014 18.9001C706.014 9.01414 714.006 1 723.864 1C733.723 1 741.715 9.01414 741.715 18.9001C741.715 28.786 733.723 36.8002 723.864 36.8002Z" fill="#4689B0"/>
<path d="M723.864 29.9793C717.763 29.9793 712.816 25.019 712.816 18.9003C712.816 12.7815 717.763 7.82129 723.864 7.82129C729.966 7.82129 734.912 12.7815 734.912 18.9003C734.912 25.019 729.966 29.9793 723.864 29.9793Z" fill="#385369"/>
<path d="M648.301 135.652L615.281 78.3008L618.736 76.3023L651.756 133.653L648.301 135.652Z" fill="#4689B0"/>
<path d="M609.555 64.1082C609.519 43.6448 626.032 27.0266 646.437 26.9903C666.842 26.954 683.414 43.5133 683.45 63.9767C683.486 84.44 666.974 101.058 646.568 101.095C626.163 101.131 609.592 84.5715 609.555 64.1082Z" fill="#385369"/>
<path d="M620.446 64.0413C620.446 78.4702 632.11 90.1696 646.5 90.1696C660.891 90.1696 672.555 78.4702 672.555 64.0413C672.555 49.6124 660.891 37.9131 646.5 37.9131C632.113 37.9159 620.446 49.6124 620.446 64.0413Z" fill="#509BC7"/>
<path d="M761.133 116.657H810.834C817.83 116.657 823.502 110.972 823.502 103.959V87.1502C823.502 80.1374 817.83 74.4526 810.834 74.4526H761.133C754.136 74.4526 748.465 80.1374 748.465 87.1502V103.959C748.465 110.972 754.136 116.657 761.133 116.657Z" fill="#3591ED"/>
<path d="M765.221 141.124C779.924 141.124 791.05 137.205 798.351 129.442C809.373 117.717 807.556 101.658 807.472 100.981L805.623 101.207C805.64 101.365 807.407 117.099 796.981 128.173C789.16 136.483 776.581 140.148 759.606 139.071C739.198 137.777 723.136 131.17 708.966 125.339C686.979 116.293 669.607 109.145 648.313 126.893L649.503 128.331C669.936 111.305 686.844 118.261 708.26 127.07C722.562 132.955 738.773 139.624 759.487 140.938C761.454 141.062 763.364 141.124 765.221 141.124Z" fill="#385369"/>
<path d="M727.798 152.885C791.222 152.885 798.883 98.6721 798.953 98.125L797.105 97.8882C797.037 98.4183 789.551 151.016 727.798 151.016C692.333 151.016 681.389 143.794 672.595 137.991C665.834 133.53 660.495 130.008 646.577 131.954L646.836 133.804C660.056 131.954 664.889 135.141 671.571 139.551C680.098 145.182 691.776 152.885 727.798 152.885Z" fill="#385369"/>
<path d="M766.312 92.5283H817.451V107.513H766.312V92.5283Z" fill="#44A1FE"/>
<path d="M547.253 72.0366H570.035V137.772H547.253V72.0366Z" fill="#2E89E3"/>
<path d="M575.821 72.0366H598.604V137.772H575.821V72.0366Z" fill="#2E89E3"/>
<path d="M553.844 85.1796H589.681C594.609 85.1796 598.602 81.1755 598.602 76.238V72.9868C598.602 68.0465 594.607 64.0452 589.681 64.0452H553.844C548.916 64.0452 544.923 68.0493 544.923 72.9868V76.238C544.923 81.1783 548.918 85.1796 553.844 85.1796Z" fill="#AEE2FE"/>
<path d="M637.609 127.615C637.609 133.872 642.667 138.945 648.907 138.945C655.147 138.945 660.205 133.872 660.205 127.615C660.205 121.358 655.147 116.285 648.907 116.285C642.667 116.282 637.609 121.355 637.609 127.615Z" fill="#385369"/>
<path d="M641.658 127.616C641.658 131.631 644.902 134.885 648.905 134.885C652.909 134.885 656.152 131.631 656.152 127.616C656.152 123.6 652.909 120.346 648.905 120.346C644.902 120.346 641.658 123.6 641.658 127.616Z" fill="#509BC7"/>
<path d="M622.556 296.554H707.485V381.723H622.556V296.554Z" fill="#C29472"/>
<path d="M655.815 296.554H675.559V306.454H655.815V296.554Z" fill="#FFE0C9"/>
<path d="M740.763 247.981C740.42 251.102 738.086 253.619 737.22 256.625C735.921 261.163 738.161 266.037 741.248 269.59C743.735 272.413 746.747 274.705 750.109 276.332C753.471 277.959 757.115 278.89 760.832 279.069C761.924 279.165 763.023 279.043 764.069 278.709C765.001 278.322 765.84 277.736 766.53 276.99C768.845 274.613 770.092 271.324 770.586 268.005C771.08 264.687 770.892 261.311 770.699 257.964C770.699 257.272 770.575 256.585 770.332 255.938C770.017 255.323 769.583 254.779 769.057 254.339C767.388 252.774 765.549 251.409 763.575 250.272C762.728 249.791 761.82 249.311 761.279 248.481C760.908 247.819 760.666 247.09 760.568 246.334L759.961 243.184C759.854 242.276 759.55 241.403 759.072 240.629C758.004 239.16 755.957 238.958 754.164 238.886L747.577 238.622C745.53 238.54 742.838 237.94 740.838 238.353C738.956 238.733 739.591 240.49 739.93 242.084C740.42 244.012 740.7 245.99 740.763 247.981Z" fill="#FFC0C6"/>
<path opacity="0.1" d="M740.763 247.981C740.42 251.102 738.086 253.619 737.22 256.625C735.921 261.163 738.161 266.037 741.248 269.59C743.735 272.413 746.747 274.705 750.109 276.332C753.471 277.959 757.115 278.89 760.832 279.069C761.924 279.165 763.023 279.043 764.069 278.709C765.001 278.322 765.84 277.736 766.53 276.99C768.845 274.613 770.092 271.324 770.586 268.005C771.08 264.687 770.892 261.311 770.699 257.964C770.699 257.272 770.575 256.585 770.332 255.938C770.017 255.323 769.583 254.779 769.057 254.339C767.388 252.774 765.549 251.409 763.575 250.272C762.728 249.791 761.82 249.311 761.279 248.481C760.908 247.819 760.666 247.09 760.568 246.334L759.961 243.184C759.854 242.276 759.55 241.403 759.072 240.629C758.004 239.16 755.957 238.958 754.164 238.886L747.577 238.622C745.53 238.54 742.838 237.94 740.838 238.353C738.956 238.733 739.591 240.49 739.93 242.084C740.42 244.012 740.7 245.99 740.763 247.981Z" fill="black"/>
<path d="M782.428 388.048L779.605 418.863C778.869 426.945 778.118 435.06 776.674 443.038C776.199 445.788 775.59 448.523 774.897 451.234C772.968 458.763 770.169 466.121 769.266 473.839C769.238 474.061 769.214 474.312 769.19 474.516C769.005 476.219 768.843 477.941 768.24 479.531C767.765 480.71 767.095 481.784 766.606 482.948C765.655 485.276 765.503 487.85 765.384 490.372C761.959 488.447 758.209 487.164 754.318 486.587C752.418 486.308 750.351 486.114 749.092 484.694C747.666 483.151 747.833 480.79 748.07 478.718C748.818 472.282 749.562 465.85 750.303 459.421C750.55 456.654 751.027 453.913 751.729 451.225C751.985 450.33 752.294 449.45 752.608 448.57C753.04 447.359 753.477 446.147 753.805 444.903C754.26 442.903 754.574 440.875 754.746 438.832C755.511 432.358 756.433 425.899 757.24 419.431L757.283 419.09C758.495 409.285 759.417 399.433 759.151 389.558C759.113 388.095 759.051 386.633 758.956 385.166C758.823 383.042 758.628 381.915 760.381 380.586C762.334 379.119 764.905 378.092 767.138 377.131C768.34 376.611 781.577 371.926 781.867 372.958C782.482 375.149 782.801 377.412 782.817 379.687C782.844 382.479 782.714 385.27 782.428 388.048Z" fill="#043671"/>
<path d="M729.208 373.874C729.404 380.221 730.417 386.515 731.43 392.785L733.519 405.709C734.661 412.793 735.856 420.016 739.201 426.358C741.705 431.106 745.309 435.156 748.573 439.411C756.592 449.874 762.618 461.73 770.221 472.5C772.434 475.63 775.593 479.019 779.364 478.364C781.839 477.938 783.636 475.87 785.576 474.281C787.87 472.404 790.632 471.031 792.439 468.676C794.245 466.321 794.599 462.415 792.152 460.74C791.316 460.17 790.298 459.955 789.352 459.591C785.562 458.155 783.106 454.44 781.548 450.688C779.99 446.935 779.039 442.91 776.96 439.42C772.439 431.843 763.191 427.842 759.301 419.92C757.122 415.488 756.912 410.347 756.749 405.431L756.324 392.838C756.276 391.459 756.243 390.028 756.802 388.769C758.288 385.419 762.78 385.103 766.422 384.677C770.552 384.194 774.553 382.93 778.212 380.953C780.31 379.818 782.355 378.373 783.469 376.267C784.491 374.352 784.63 372.098 784.749 369.925L786.011 347.098C786.121 345.135 786.217 343.101 785.533 341.263C783.798 336.639 777.968 335.127 773.041 335.347C763.875 335.758 755.416 339.707 746.757 342.378C744.611 343.039 742.455 343.632 740.243 344.077C738.331 344.465 735.942 344.307 734.107 344.929C730.819 346.04 730.9 353.248 730.436 356.235C729.48 362.064 729.069 367.969 729.208 373.874Z" fill="#043671"/>
<path d="M777.822 478.52C778.623 479.327 778.884 480.508 779.093 481.622C780.253 487.806 780.856 494.081 780.896 500.371C780.844 500.958 780.961 501.548 781.233 502.071C781.46 502.381 781.766 502.626 782.12 502.779C784.44 503.879 787.129 502.345 789.065 500.659C792.647 497.538 795.678 493.346 795.882 488.61C795.934 487.392 795.797 486.159 796.01 484.955C796.323 483.17 797.372 481.617 798.292 480.059C799.867 477.403 801.14 474.581 802.087 471.645C802.438 470.54 802.676 469.152 801.803 468.382C801.497 468.141 801.148 467.96 800.773 467.849L790.289 463.977C789.378 463.642 787.12 469.416 786.764 470.049C785.886 471.593 785.014 472.467 783.253 472.825C781.493 473.184 779.321 472.665 777.641 473.557C774.795 475.063 776.213 476.91 777.822 478.52Z" fill="#385369"/>
<path d="M761.818 482.797C761.633 482.412 761.375 482.07 761.059 481.793C760.598 481.486 760.072 481.3 759.527 481.251C757.629 480.912 755.379 480.69 754.064 482.165C752.835 483.546 753.047 485.794 752.021 487.35C751.696 487.821 751.253 488.245 750.973 488.763C750.625 489.557 750.469 490.428 750.521 491.299C750.467 493.698 750.413 496.106 750.575 498.5C750.706 500.508 751.027 502.615 752.234 504.189C754.168 506.715 757.656 507.078 760.747 507.238L763.255 507.375C763.945 507.459 764.644 507.392 765.307 507.177C765.718 506.98 766.087 506.699 766.391 506.35C766.695 506.001 766.929 505.591 767.079 505.146C768.385 501.762 766.319 498.119 765.045 494.725C763.576 490.818 763.838 486.487 761.818 482.797Z" fill="#385369"/>
<path d="M739.145 230.942C739.111 230.588 739.162 230.231 739.294 229.901C739.682 229.206 740.7 229.415 741.467 229.59C744.552 230.378 747.805 229.663 750.985 229.848C754.166 230.032 757.745 231.642 758.383 234.802C760.691 233.147 762.679 231.077 764.251 228.695C765.133 227.359 765.901 225.827 765.781 224.223C765.608 221.909 763.694 220.178 761.943 218.71L756.666 214.334C755.97 213.688 755.168 213.171 754.296 212.808C753.077 212.385 751.743 212.589 750.458 212.589C746.62 212.589 742.503 210.814 739.083 212.589C737.643 213.333 736.574 214.611 735.537 215.856L730.821 221.515C730.464 221.876 730.204 222.322 730.063 222.813C729.929 223.503 730.279 224.184 730.404 224.879C730.625 226.143 730.087 227.495 730.5 228.71C731.186 230.723 733.604 231.01 735.082 232.167C735.629 232.594 736.492 234.058 737.149 234.038C738.306 234.014 739.112 231.875 739.145 230.942Z" fill="#3F3D56"/>
<path d="M747.913 247.58C756.377 247.58 763.238 240.906 763.238 232.672C763.238 224.438 756.377 217.764 747.913 217.764C739.448 217.764 732.587 224.438 732.587 232.672C732.587 240.906 739.448 247.58 747.913 247.58Z" fill="#FFC0C6"/>
<path d="M751.558 264.606C751.052 263.15 750.097 261.892 748.833 261.016C747.569 260.14 746.061 259.69 744.526 259.73C744.085 259.815 743.63 259.756 743.224 259.563C742.995 259.387 742.811 259.158 742.688 258.896C741.781 257.251 741.05 255.514 740.508 253.715C740.271 252.918 739.943 251.978 739.141 251.773C738.495 251.606 737.835 252.026 737.403 252.536C737.019 253.084 736.604 253.608 736.158 254.106C734.259 255.795 730.935 254.254 728.945 255.804C728.617 256.057 728.347 256.381 727.995 256.615C727.654 256.824 727.284 256.985 726.898 257.092C723.036 258.355 719.25 259.841 715.559 261.543C716.888 269.577 718.246 277.764 721.361 285.278C722.843 288.856 724.519 292.362 725.707 296.05C728.337 304.222 728.451 312.967 728.484 321.559C728.484 327.437 728.484 333.438 726.585 339.001C726.158 340.261 725.635 341.51 725.517 342.818C725.398 344.125 725.787 345.604 726.856 346.386C727.474 346.796 728.184 347.047 728.921 347.116C732.203 347.593 735.508 346.725 738.737 345.971C747.394 343.958 756.226 342.803 765.035 341.677L779.803 339.769C780.863 339.695 781.9 339.425 782.862 338.972C785.564 337.489 785.82 333.405 784.139 330.81C783.336 329.565 782.202 328.544 781.522 327.227C780.843 325.91 780.791 324.059 781.955 323.148C784.329 321.287 783.617 317.838 783.731 314.823C784.047 306.388 784.004 297.96 783.602 289.538C783.482 287.792 783.453 286.04 783.517 284.29C783.683 281.323 784.414 278.417 785.146 275.531L789.633 257.784C788.46 255.923 786.214 254.74 784.092 254.206C781.969 253.672 779.751 253.514 777.657 252.861C773.383 251.525 769.546 248.138 765.068 248.452C764.729 248.459 764.395 248.54 764.09 248.691C763.083 249.268 763.24 250.728 763.178 251.892C763.036 254.473 761.146 256.625 759.066 258.137C756.986 259.649 754.602 260.747 752.689 262.469C752.356 262.721 752.083 263.042 751.888 263.412C751.692 263.781 751.58 264.189 751.558 264.606Z" fill="#04499A"/>
<path d="M692.113 281.578C691.108 282.259 690.041 282.833 688.927 283.29C687.868 283.727 686.737 284.074 685.87 284.837C685.441 285.225 685.081 285.689 684.807 286.207C684.294 287.157 684.035 288.232 684.056 289.321C684.077 290.411 684.378 291.474 684.928 292.401C685.478 293.328 686.256 294.084 687.181 294.59C688.106 295.096 689.144 295.334 690.187 295.279C691.578 295.204 692.892 294.616 694.168 294.039L704.862 289.184C706.671 288.366 708.625 287.412 709.482 285.555C709.58 285.381 709.617 285.177 709.588 284.977C709.505 284.758 709.347 284.579 709.145 284.475C706.735 282.84 704.627 280.765 702.922 278.35C702.484 277.728 701.96 276.262 701.324 275.885C699.062 274.575 693.927 280.353 692.113 281.578Z" fill="#FFC0C6"/>
<path d="M804.999 277.396L808.818 281.855C809.639 282.808 810.46 283.76 811.206 284.789C813.043 287.372 814.515 290.205 815.581 293.206C816.411 295.43 817.101 297.802 816.812 300.165C816.618 301.376 816.298 302.563 815.856 303.704C815.156 305.898 814.288 308.032 813.258 310.087C812.399 311.646 811.428 313.137 810.353 314.55C807.394 318.554 804.157 322.334 800.666 325.863C799.36 327.182 798.8 329.321 798.245 331.102C797.196 334.394 794.701 336.961 792.29 339.39C791.514 340.228 790.656 340.981 789.729 341.639C788.341 342.553 786.717 343.024 785.065 342.991C784.345 342.996 783.631 342.845 782.971 342.548C781.32 341.748 780.481 339.8 780.308 337.942C780.156 336.254 780.432 334.555 781.111 333.008C783.303 328.049 788.932 325.901 792.91 322.281C795.242 320.161 797.028 317.494 798.791 314.86C799.985 313.213 800.983 311.427 801.762 309.539C802.648 307.114 802.303 304.247 803.082 301.789C803.408 300.746 804.015 299.808 804.346 298.774C804.677 297.74 804.789 296.516 804.168 295.625C803.704 295.056 803.11 294.611 802.438 294.33C799.896 293.015 797.051 291.319 796.566 288.447C796.372 286.857 796.779 285.25 797.704 283.955C798.625 282.677 799.701 281.525 800.908 280.526C802.014 279.507 803.884 278.378 804.999 277.396Z" fill="#FFC0C6"/>
<path d="M688.509 288.157C687.854 286.766 687.03 285.346 685.702 284.655C685.055 284.362 684.358 284.212 683.654 284.212C682.95 284.212 682.253 284.362 681.606 284.655C680.319 285.238 679.112 286.001 678.02 286.923L674.808 289.406C674.079 289.906 673.435 290.53 672.901 291.25C672.391 292.124 672.054 293.097 671.909 294.11C671.454 296.43 671.085 298.818 671.404 301.168C671.914 304.98 674.098 308.278 676.5 311.175C678.002 312.977 679.859 314.797 682.143 314.878C683.131 314.912 684.227 314.502 684.637 313.563C684.78 313.19 684.855 312.792 684.86 312.391C685.105 308.159 683.658 304.027 681.975 300.171C681.52 299.123 681.028 298.036 681.065 296.888C681.051 296.693 681.099 296.499 681.201 296.335C681.346 296.177 681.539 296.077 681.747 296.054C684.054 295.577 688.032 297.455 689.647 294.772C690.694 292.999 689.256 289.735 688.509 288.157Z" fill="#FFC0C6"/>
<path d="M738.92 225.83C738.891 225.476 738.942 225.12 739.07 224.79C739.449 224.09 740.442 224.304 741.192 224.479C744.203 225.266 747.379 224.552 750.485 224.736C753.59 224.921 757.08 226.53 757.707 229.69C759.958 228.033 761.899 225.964 763.436 223.584C764.298 222.242 765.047 220.711 764.93 219.107C764.761 216.792 762.888 215.062 761.183 213.598L756.03 209.223C755.353 208.577 754.572 208.06 753.721 207.696C752.527 207.273 751.229 207.478 749.974 207.478C746.227 207.478 742.208 205.703 738.868 207.478C737.463 208.221 736.419 209.5 735.407 210.745L730.798 216.404C730.452 216.765 730.199 217.212 730.063 217.702C729.932 218.392 730.273 219.073 730.395 219.768C730.611 221.032 730.086 222.383 730.489 223.594C731.159 225.611 733.519 225.898 734.962 227.055C735.496 227.483 736.339 228.946 736.981 228.927C738.091 228.903 738.878 226.764 738.92 225.83Z" fill="#3F3D56"/>
<path d="M707.439 267.731C706.832 268.111 706.299 268.589 705.862 269.144C705.312 269.949 705.198 270.984 704.724 271.813C703.711 273.626 701.336 274.274 699.859 275.761C699.62 275.964 699.453 276.234 699.381 276.534C699.372 276.939 699.513 277.333 699.778 277.647L706.918 288.452C709.308 288.654 711.573 287.218 713.953 287.412C714.837 287.481 715.75 287.775 716.601 287.522C717.209 287.261 717.779 286.926 718.297 286.524C719.731 285.658 721.604 285.557 722.794 284.421C723.984 283.284 724.085 281.614 724.07 280.063C724.092 278.717 723.949 277.374 723.645 276.06C722.594 271.919 719.301 268.725 717.236 265.053C716.228 263.263 715.683 262.219 713.556 263.447C711.43 264.676 709.451 266.314 707.439 267.731Z" fill="#04499A"/>
<path d="M793.459 261.593C794.81 262.464 796.029 263.523 797.077 264.737C798.17 266.137 798.79 267.857 799.844 269.29C800.898 270.723 802.25 271.755 803.405 273.036C805.161 274.975 806.349 277.336 807.514 279.681C804.663 283.364 801.557 286.844 798.218 290.097C797.845 290.532 797.354 290.85 796.803 291.014C796.43 291.054 796.052 291.001 795.704 290.86C795.357 290.719 795.05 290.495 794.811 290.207C794.291 289.672 793.926 289.003 793.43 288.444C792.263 287.248 790.706 286.502 789.037 286.337C787.382 286.177 785.716 286.153 784.057 286.265C783.693 286.308 783.324 286.247 782.994 286.088C782.748 285.921 782.549 285.694 782.417 285.429C780.492 282.142 781.093 278.014 781.781 274.259L783.355 265.659C783.584 264.017 784.026 262.411 784.668 260.881C785.265 259.615 786.593 257.465 788.238 257.848C789.884 258.23 792.068 260.6 793.459 261.593Z" fill="#04499A"/>
<path d="M600.603 195.233C600.321 194.385 599.972 193.557 599.56 192.759L600.675 190.305C600.995 189.814 600.925 189.17 600.506 188.758L595.457 183.792C595.039 183.38 594.384 183.311 593.885 183.626L591.359 184.709C590.548 184.304 589.707 183.961 588.844 183.683L587.875 181.177C587.75 180.607 587.237 180.201 586.644 180.201H579.505C578.912 180.201 578.4 180.607 578.274 181.177L577.249 183.707C582.465 185.536 593.885 189.477 593.153 200.94C593.153 206.011 589.264 210.205 584.266 210.787C597.756 209.737 600.27 200.062 600.603 195.233Z" fill="#004290"/>
<path d="M572.752 185.73C573.563 185.324 574.405 184.981 575.269 184.704L575.352 184.733C580.609 186.574 591.915 190.535 591.186 201.94C591.186 196.471 586.661 192.023 581.099 192.023C568.473 192.023 564.136 202.423 563.546 207.624L560.993 206.663C560.413 206.539 560 206.035 560 205.452V198.427C560 197.844 560.413 197.34 560.993 197.216L563.541 196.268C563.823 195.419 564.173 194.591 564.585 193.793L563.484 191.302C563.164 190.812 563.234 190.168 563.653 189.756L568.706 184.788C569.125 184.376 569.78 184.307 570.279 184.622L572.752 185.73Z" fill="#F15317"/>
<path d="M565.899 212.262C565.487 211.465 565.137 210.637 564.855 209.788C565.445 204.589 569.485 194.19 582.122 194.19C576.555 194.19 572.327 198.638 572.327 204.105C571.972 215.058 582.492 220.482 587.937 221.669L587.233 223.869C587.107 224.438 586.593 224.845 585.999 224.845H578.848C578.254 224.845 577.741 224.438 577.615 223.869L576.638 221.36C575.774 221.083 574.931 220.739 574.119 220.334L571.594 221.42C571.095 221.735 570.439 221.666 570.019 221.254L564.962 216.287C564.543 215.875 564.472 215.231 564.793 214.74L565.899 212.262Z" fill="#004290"/>
<path d="M602 197.546L604.194 198.396C604.773 198.52 605.186 199.024 605.186 199.606V206.624C605.186 207.206 604.773 207.71 604.194 207.834L601.645 208.789C601.363 209.637 601.014 210.464 600.602 211.261L601.705 213.741C602.025 214.231 601.955 214.875 601.536 215.286L596.487 220.249C596.069 220.661 595.414 220.73 594.915 220.415L592.404 219.326C591.594 219.731 590.752 220.074 589.889 220.351C584.453 219.165 573.62 214.055 573.975 203.112C573.975 208.574 578.484 212.901 584.042 212.901C598.607 211.928 600.986 203.112 602 197.546Z" fill="#004290"/>
<path d="M471.303 243.751C471.303 237.67 475.872 232.929 482.084 232.929C485.601 232.929 488.066 234.062 490.203 235.952L486.916 240.006C485.503 238.769 484.056 238.048 482.084 238.048C479.192 238.048 476.956 240.59 476.956 243.82C476.956 247.187 479.224 249.592 482.38 249.592C483.728 249.592 484.747 249.282 485.568 248.733V246.19H481.624V241.999H490.828V251.378C488.724 253.199 485.766 254.608 482.15 254.608C475.97 254.573 471.303 250.107 471.303 243.751Z" fill="#F15317"/>
<path d="M493.803 250.134L501.295 244.044C503.168 242.529 503.858 241.497 503.858 240.224C503.858 238.882 502.971 238.056 501.623 238.056C500.276 238.056 499.225 238.882 497.647 240.809L493.901 237.505C496.037 234.546 498.14 232.929 502.051 232.929C506.421 232.929 509.411 235.682 509.411 239.777C509.411 243.183 507.768 244.973 504.778 247.244L501.361 249.79H509.609V254.608H493.803V250.134Z" fill="#F15317"/>
<path d="M512.617 232.929H522.052C525.109 232.929 527.213 233.792 528.561 235.242C529.744 236.519 530.336 238.176 530.336 240.385C530.336 243.699 528.692 245.909 526.226 247.048L530.993 254.608H524.583L520.572 248.014H518.14V254.608H512.584V232.929H512.617ZM521.821 243.354C523.695 243.354 524.78 242.353 524.78 240.73C524.78 239.039 523.63 238.141 521.789 238.141H518.173V243.354H521.821Z" fill="#F15317"/>
<path d="M536.534 249.463C537.27 249.463 537.882 249.703 538.369 250.183C538.856 250.654 539.1 251.259 539.1 251.999C539.1 252.739 538.856 253.349 538.369 253.829C537.882 254.299 537.27 254.534 536.534 254.534C535.789 254.534 535.173 254.294 534.685 253.814C534.207 253.334 533.968 252.729 533.968 251.999C533.968 251.269 534.207 250.664 534.685 250.183C535.173 249.703 535.789 249.463 536.534 249.463Z" fill="#F15317"/>
<path fill-rule="evenodd" clip-rule="evenodd" d="M553.608 232.924L559.244 247.689L564.851 232.924H571.506V254.608H566.213V248.541L566.597 240.377L561.041 254.608H557.418L551.878 240.395L552.262 248.541V254.608H546.984V232.924H553.608ZM581.408 250.26L579.846 254.608H574.219L582.92 232.924H587.663L596.412 254.608H590.785L589.207 250.26H581.408ZM616.921 246.995L616.897 247.31C616.714 249.652 615.775 251.516 614.07 252.876C612.38 254.233 610.163 254.898 607.449 254.898C604.465 254.898 602.084 253.965 600.342 252.078L600.341 252.077C598.612 250.183 597.765 247.603 597.765 244.375V243.085C597.765 241.019 598.158 239.186 598.952 237.594C599.746 236 600.884 234.772 602.363 233.921C603.852 233.06 605.571 232.634 607.511 232.634C610.185 232.634 612.372 233.3 614.041 234.657C615.714 236.018 616.671 237.924 616.927 240.345L616.962 240.667H611.675L611.653 240.399C611.541 239.077 611.147 238.178 610.519 237.639L610.518 237.638L610.516 237.636C609.895 237.086 608.913 236.783 607.511 236.783C606.023 236.783 604.949 237.276 604.234 238.23C603.519 239.19 603.126 240.724 603.105 242.884V244.476C603.105 246.737 603.474 248.329 604.161 249.308C604.842 250.265 605.917 250.763 607.449 250.763C608.862 250.763 609.856 250.465 610.488 249.922C611.129 249.37 611.521 248.501 611.621 247.264L611.643 246.995H616.921ZM639.477 254.608H634.199V245.565H625.653V254.608H620.375V232.924H625.653V241.474H634.199V232.924H639.477V254.608ZM649.559 254.608H644.282V232.924H649.559V254.608ZM673.403 254.608H668.261L659.595 241.419V254.608H654.318V232.924H659.46L668.142 246.141V232.924H673.403V254.608ZM692.171 245.464H683.174V250.531H693.733V254.608H677.896V232.924H693.702V237.03H683.174V241.474H692.171V245.464ZM582.883 246.155H587.73L585.293 239.421L582.883 246.155Z" fill="#004290"/>
</g>
<defs>
<clipPath id="clip0">
<rect x="873" width="530" height="873" transform="rotate(90 873 0)" fill="white"/>
</clipPath>
</defs>
</svg>
