<svg width="854" height="604" viewBox="0 0 854 604" fill="none" xmlns="http://www.w3.org/2000/svg">
<path d="M826.081 371.419C826.094 384.74 824.484 398.013 821.285 410.944C820.209 415.297 818.958 419.563 817.534 423.744C815.789 428.897 813.769 433.954 811.483 438.891C810.33 441.384 809.112 443.832 807.827 446.234C807.848 459.894 805.037 473.41 799.572 485.928C789.689 508.385 772.074 526.544 749.933 537.099C736.071 543.714 720.922 547.19 705.564 547.279H178.811C155.373 547.331 132.339 541.173 112.051 529.43C109.053 527.693 106.132 525.842 103.287 523.879C97.1114 519.61 91.309 514.824 85.9428 509.573C78.678 502.463 72.2779 494.52 66.8754 485.908C54.1826 465.744 47.4587 442.395 47.4823 418.565C34.6282 396 27.1328 368.97 27.1328 339.923C27.1328 303.276 39.044 269.846 58.6135 244.539C62.6933 239.252 67.1623 234.277 71.9831 229.656C76.7397 225.083 81.8522 220.896 87.2723 217.135C91.6072 214.12 96.1395 211.399 100.839 208.991C102.799 207.987 104.766 207.05 106.767 206.175C108.524 205.394 110.301 204.668 112.099 203.983C114.256 203.159 116.44 202.406 118.651 201.723C120.863 201.039 123.044 200.438 125.197 199.917C128.362 199.144 131.582 198.515 134.856 198.031C137.569 197.63 140.283 197.352 142.996 197.135C145.153 196.981 147.328 196.891 149.521 196.864H150.708C153.123 196.864 155.524 196.959 157.905 197.121C158.156 196.619 158.428 196.11 158.679 195.608C159.628 193.803 160.612 191.998 161.602 190.226V190.179C161.772 189.873 161.941 189.568 162.118 189.269C162.918 187.824 163.752 186.392 164.607 184.974C165.001 184.295 165.387 183.657 165.787 183.012C165.876 182.856 165.964 182.707 166.066 182.551C166.473 181.872 166.886 181.193 167.307 180.515C169.401 177.171 171.578 173.88 173.839 170.64C174.036 170.362 174.219 170.091 174.416 169.819C174.768 169.317 175.094 168.822 175.487 168.326C176.423 167.016 177.387 165.7 178.357 164.404C179.035 163.487 179.713 162.571 180.446 161.689C182.209 159.409 184.021 157.142 185.872 154.902C187.724 152.663 189.678 150.41 191.652 148.204C191.923 147.899 192.194 147.6 192.479 147.295L195.376 144.139C195.518 143.99 195.64 143.854 195.776 143.718C196.122 143.345 196.454 142.972 196.827 142.605C198.38 140.963 199.975 139.341 201.575 137.739C209.752 129.611 218.463 122.038 227.65 115.072C228.009 114.787 228.376 114.516 228.735 114.244C230.458 112.941 232.208 111.659 233.958 110.397C243.586 103.49 253.648 97.2107 264.082 91.5979C264.801 91.1907 265.534 90.8038 266.273 90.417C275.63 85.4678 285.252 81.0363 295.095 77.1426C300.458 75.0207 305.916 73.039 311.469 71.1976C315.146 69.9964 318.836 68.8495 322.573 67.8043C328.353 66.1439 334.204 64.6463 340.128 63.3117C357.581 59.3937 375.336 56.9734 393.2 56.0772C398.626 55.7922 404.114 55.6497 409.662 55.6497C436.436 55.6142 463.104 58.9894 489.025 65.6937C489.293 66.0989 489.66 66.4293 490.091 66.6537C490.521 66.8781 491.002 66.9891 491.488 66.9764H493.767C494.757 67.2411 495.741 67.5193 496.731 67.8043C502.262 69.4014 507.713 71.141 513.085 73.0232L514.442 73.5118C527.701 78.229 540.603 83.8992 553.045 90.4781C564.259 96.3968 575.058 103.072 585.367 110.458C586.954 111.598 588.519 112.749 590.061 113.912C591.933 112.704 593.837 111.552 595.772 110.458C603.247 106.201 611.185 102.817 619.432 100.373C636.673 95.2681 654.916 94.5543 672.503 98.2962C695.057 103.081 715.474 114.957 731.964 131.849C738.682 138.738 744.665 146.307 749.818 154.434C750.191 155.018 750.564 155.608 750.923 156.206C755.343 163.423 759.142 171.004 762.278 178.866C762.394 179.151 762.509 179.429 762.611 179.714C765.506 187.071 767.842 194.637 769.597 202.347C769.679 202.734 769.774 203.127 769.855 203.521C771.497 210.982 772.612 218.55 773.192 226.168C773.192 226.439 773.192 226.717 773.247 226.996C773.532 230.936 773.676 234.92 773.681 238.947C773.681 242.544 773.559 246.113 773.335 249.649C773.335 250.036 773.281 250.443 773.247 250.837C773.186 251.868 773.097 252.873 773.009 253.911C778.19 258.089 783.038 262.664 787.512 267.593C789.488 269.751 791.401 271.993 793.25 274.318C798.885 281.381 803.837 288.964 808.038 296.965C819.487 318.668 826.081 344.144 826.081 371.419Z" fill="#E7F3F6"/>
<path d="M749.431 504.998C749.431 520.423 733.45 534.858 705.564 547.291H178.811C154.439 547.291 131.614 538.469 112.051 523.084C107.133 517.247 104.542 511.201 104.542 504.991C104.542 488.595 122.612 473.291 153.856 460.356L154.737 460.003C163.555 456.386 173.411 452.972 184.183 449.762C184.454 449.681 184.733 449.606 185.004 449.511C193.551 447 202.642 444.62 212.279 442.372C212.584 442.304 212.883 442.229 213.188 442.175C216.905 441.293 220.697 440.472 224.57 439.65L226.062 439.338C254.246 433.488 286.283 428.846 321.027 425.697H321.067C325.933 425.245 330.851 424.84 335.821 424.482C341.349 424.041 346.945 423.668 352.602 423.322C356.923 423.044 361.298 422.806 365.687 422.589C365.703 422.582 365.72 422.579 365.738 422.579C365.755 422.579 365.773 422.582 365.789 422.589C385.589 421.591 406.047 421.069 426.966 421.069C478.694 421.069 527.587 424.245 570.911 429.891C570.952 429.884 570.993 429.884 571.033 429.891C577.695 430.76 584.234 431.676 590.61 432.653C592.434 432.938 594.252 433.223 596.036 433.515C603.231 434.678 610.24 435.906 617.064 437.2C697.309 452.463 749.431 477.159 749.431 504.998Z" fill="#CDE6EC"/>
<path d="M618.299 220.739C618.299 220.739 611.122 217.827 588.29 228.299C565.458 238.77 562.609 237.447 556.701 235.873C550.792 234.298 547.496 233.891 541.16 225.143C541.16 225.143 536.69 200.908 532.342 197.149C527.994 193.389 509.639 199.293 509.639 199.293C509.639 199.293 487.601 204.349 483.402 174.862C483.402 174.862 486.38 152.656 482.323 145.843C482.323 145.843 490.517 149.372 504.029 143.671C517.541 137.97 528.361 149.813 528.361 149.813C528.361 149.813 531.752 158.635 531.413 163.902C531.074 169.168 533.217 171.143 539.661 168.598C539.661 168.598 542.829 164.092 538.345 156.64C533.862 149.188 530.66 143.644 531.908 137.862C533.156 132.08 536.758 124.051 548.323 120.04C559.889 116.029 575.592 115.29 583.128 112.12C590.664 108.951 592.523 106.929 592.523 106.929C592.523 106.929 587.883 111.577 598.81 131.292C609.738 151.007 602.772 159.558 602.772 159.558C602.772 159.558 596.959 173.423 571.291 172.296C571.291 172.296 546.56 173.199 560.045 183.691C560.045 183.691 568.68 181.933 581.588 177.827C594.496 173.722 603.816 190.668 606.13 202.456C608.443 214.244 618.299 220.739 618.299 220.739Z" fill="#05A32F"/>
<path d="M585.054 121.859L585.19 121.818C586.18 125.578 575.131 140.698 565.682 152.717L565.573 152.629C578.895 135.703 585.821 124.77 585.054 121.859Z" fill="#444053"/>
<path d="M565.763 152.398L565.824 152.548C558.274 162.144 548.785 173.586 541.188 182.089C540.462 182.897 539.743 183.745 539.051 184.614L538.834 184.438C539.512 183.569 540.252 182.714 540.977 181.906C548.568 173.437 558.207 162.001 565.763 152.398Z" fill="#444053"/>
<path d="M539.017 184.221L539.166 184.479C525.342 201.75 524.426 228.591 524.392 228.801L521.476 225.408C521.51 225.191 525.098 201.615 539.017 184.221Z" fill="#444053"/>
<path d="M602.297 211.372C602.297 211.372 586.018 202.889 573.293 205.943C560.567 208.997 531.949 195.152 531.949 195.152C531.949 195.152 519.807 190.219 517.365 184.593C517.365 184.593 509.029 175.77 508.547 171.216C508.066 166.663 499.96 155.187 494.669 154.746" stroke="#444053" stroke-miterlimit="10"/>
<path d="M599.903 219.537C599.903 219.537 591.695 213.999 592.652 207.552" stroke="#444053" stroke-miterlimit="10"/>
<path d="M587.314 226.683C587.314 226.683 575.572 222.421 574.426 205.699" stroke="#444053" stroke-miterlimit="10"/>
<path d="M568.382 231.014C568.382 231.014 557.162 221.703 560.886 205.429" stroke="#444053" stroke-miterlimit="10"/>
<path d="M545.597 226.466C545.597 226.466 538.135 210.789 544.776 200.589" stroke="#444053" stroke-miterlimit="10"/>
<path d="M602.453 201.037C602.453 201.037 593.968 203.752 595.786 208.204" stroke="#444053" stroke-miterlimit="10"/>
<path d="M592.21 185.652C592.21 185.652 580.849 189.256 580.584 205.333" stroke="#444053" stroke-miterlimit="10"/>
<path d="M576.366 181.906C576.366 181.906 566.021 194.678 566.781 206.283" stroke="#444053" stroke-miterlimit="10"/>
<path d="M558.255 186.914C558.255 186.914 547.985 196.741 549.294 202.204" stroke="#444053" stroke-miterlimit="10"/>
<path d="M552.061 183.447C552.061 183.447 542.429 185.171 541.079 182.008" stroke="#444053" stroke-miterlimit="10"/>
<path d="M539.546 171.814C539.546 171.814 544.409 178.261 545.651 176.816" stroke="#444053" stroke-miterlimit="10"/>
<path d="M587.788 167.736C587.788 167.736 563.504 169.501 558.01 162.171" stroke="#444053" stroke-miterlimit="10"/>
<path d="M534.466 139.321C534.466 139.321 545.855 163.786 554.137 166.901" stroke="#444053" stroke-miterlimit="10"/>
<path d="M546.391 127.667C546.391 127.667 553.384 150.172 562.053 157.196" stroke="#444053" stroke-miterlimit="10"/>
<path d="M598.004 149.161C598.004 149.161 579.54 157.088 568.456 149.066" stroke="#444053" stroke-width="0.75" stroke-miterlimit="10"/>
<path d="M562.833 122.871C562.833 122.871 567.052 139.409 572.736 143.407" stroke="#444053" stroke-width="0.75" stroke-miterlimit="10"/>
<path d="M595.215 130.627C595.215 130.627 584.837 134.563 580.971 131.55" stroke="#444053" stroke-width="0.75" stroke-miterlimit="10"/>
<path d="M530.653 177.217C530.653 177.217 530.653 191.638 526.732 192.663" stroke="#444053" stroke-miterlimit="10"/>
<path d="M498.576 195.899C498.576 195.899 514.177 197.257 521.347 189.188" stroke="#444053" stroke-miterlimit="10"/>
<path d="M526.638 160.183C526.638 160.183 522.866 174.808 512.461 178.751" stroke="#444053" stroke-miterlimit="10"/>
<path d="M489.229 180.495C489.229 180.495 500.258 184.329 509.748 174.563" stroke="#444053" stroke-miterlimit="10"/>
<path d="M514.367 147.607C514.367 147.607 513.329 160.026 506.58 165.842" stroke="#444053" stroke-miterlimit="10"/>
<path d="M489.649 161.567C489.649 161.567 498.8 161.628 500.943 158.642" stroke="#444053" stroke-miterlimit="10"/>
<path d="M555.833 208.727H295.224V340.344H555.833V208.727Z" fill="#33323D"/>
<path d="M637.841 380.33H214.043V466.967H637.841V380.33Z" fill="#33323D"/>
<path d="M315.207 401.986H532.519L575.816 547.767H269.414L315.207 401.986Z" fill="white"/>
<path d="M201.969 328.678V373.666V383.14V466.96H283.15V386.995H568.734V466.96H649.915V383.14V373.666V328.678H201.969Z" fill="#504F60"/>
<path opacity="0.1" d="M649.915 328.678H201.969V373.659H649.915V328.678Z" fill="#33323D"/>
<path opacity="0.8" d="M625.774 357.84C629.453 357.84 632.436 354.856 632.436 351.176C632.436 347.495 629.453 344.511 625.774 344.511C622.096 344.511 619.113 347.495 619.113 351.176C619.113 354.856 622.096 357.84 625.774 357.84Z" fill="#8CCF4D"/>
<path opacity="0.8" d="M595.799 357.84C599.478 357.84 602.46 354.856 602.46 351.176C602.46 347.495 599.478 344.511 595.799 344.511C592.12 344.511 589.138 347.495 589.138 351.176C589.138 354.856 592.12 357.84 595.799 357.84Z" fill="#FA5959"/>
<path d="M546.262 177.067H304.802V320.344H546.262V177.067Z" fill="white"/>
<path d="M363.291 282.15V290.915H358.165V266.073H367.904C369.765 266.073 371.41 266.422 372.84 267.094C374.27 267.767 375.349 268.734 376.131 269.998C376.887 271.262 377.291 272.687 377.291 274.3C377.291 276.746 376.455 278.655 374.782 280.053C373.11 281.451 370.79 282.15 367.85 282.15H363.291ZM363.291 278.01H367.877C369.225 278.01 370.277 277.687 370.979 277.042C371.68 276.397 372.058 275.483 372.058 274.3C372.058 273.09 371.707 272.095 370.979 271.342C370.25 270.59 369.279 270.213 368.011 270.186H363.291V278.01Z" fill="black"/>
<path d="M390.861 277.069C390.186 276.988 389.593 276.934 389.08 276.934C387.219 276.934 385.978 277.553 385.411 278.816V290.888H380.475V272.417H385.142L385.276 274.622C386.275 272.928 387.65 272.068 389.404 272.068C389.943 272.068 390.456 272.149 390.942 272.283L390.861 277.069Z" fill="black"/>
<path d="M393.207 267.659C393.207 266.906 393.45 266.314 393.962 265.83C394.448 265.346 395.123 265.104 395.986 265.104C396.822 265.104 397.497 265.346 398.009 265.83C398.522 266.314 398.765 266.906 398.765 267.659C398.765 268.411 398.522 269.03 398.009 269.514C397.497 269.998 396.822 270.24 395.986 270.24C395.15 270.24 394.475 269.998 393.962 269.514C393.45 269.03 393.207 268.411 393.207 267.659ZM398.468 290.915H393.504V272.444H398.468V290.915Z" fill="black"/>
<path d="M407.101 272.445L407.262 274.569C408.584 272.929 410.365 272.095 412.577 272.095C414.546 272.095 416.003 272.66 416.974 273.816C417.945 274.972 418.431 276.693 418.458 278.978V290.915H413.521V279.112C413.521 278.064 413.305 277.311 412.847 276.827C412.388 276.343 411.633 276.128 410.581 276.128C409.178 276.128 408.153 276.72 407.451 277.902V290.915H402.515V272.445H407.101Z" fill="black"/>
<path d="M428.116 267.9V272.444H431.272V276.074H428.116V285.295C428.116 285.967 428.251 286.478 428.52 286.774C428.79 287.07 429.276 287.231 430.031 287.231C430.571 287.231 431.056 287.204 431.488 287.124V290.861C430.517 291.156 429.519 291.318 428.493 291.318C425.013 291.318 423.26 289.57 423.179 286.075V276.127H420.481V272.498H423.179V267.954H428.116V267.9Z" fill="black"/>
<path d="M453.229 266.073V282.446C453.229 285.162 452.366 287.312 450.666 288.899C448.967 290.485 446.62 291.265 443.68 291.265C440.766 291.265 438.446 290.485 436.747 288.952C435.047 287.42 434.157 285.296 434.13 282.634V266.073H439.255V282.473C439.255 284.113 439.633 285.296 440.415 286.022C441.198 286.748 442.277 287.151 443.653 287.151C446.539 287.151 447.996 285.645 448.05 282.607V266.073H453.229Z" fill="black"/>
<path d="M467.527 277.069C466.852 276.988 466.259 276.934 465.746 276.934C463.885 276.934 462.644 277.553 462.077 278.816V290.888H457.141V272.417H461.808L461.942 274.622C462.941 272.928 464.316 272.068 466.07 272.068C466.609 272.068 467.122 272.149 467.607 272.283L467.527 277.069Z" fill="black"/>
<path d="M480.126 290.915C479.91 290.458 479.721 289.92 479.64 289.248C478.453 290.593 476.888 291.238 474.973 291.238C473.166 291.238 471.655 290.727 470.468 289.678C469.281 288.63 468.688 287.312 468.688 285.726C468.688 283.764 469.416 282.258 470.873 281.209C472.329 280.161 474.433 279.623 477.185 279.623H479.451V278.575C479.451 277.714 479.235 277.042 478.804 276.531C478.372 276.021 477.671 275.752 476.726 275.752C475.89 275.752 475.243 275.94 474.757 276.343C474.272 276.746 474.056 277.284 474.056 277.983H469.119C469.119 276.908 469.443 275.913 470.117 275.026C470.792 274.112 471.709 273.413 472.923 272.875C474.137 272.364 475.486 272.095 476.996 272.095C479.289 272.095 481.097 272.66 482.446 273.816C483.794 274.972 484.469 276.558 484.469 278.628V286.64C484.469 288.388 484.739 289.705 485.197 290.619V290.915H480.126ZM476.025 287.474C476.753 287.474 477.428 287.312 478.048 286.99C478.669 286.667 479.127 286.237 479.424 285.672V282.5H477.563C475.081 282.5 473.759 283.36 473.597 285.054L473.57 285.35C473.57 285.968 473.786 286.479 474.218 286.855C474.676 287.286 475.27 287.474 476.025 287.474Z" fill="black"/>
<path d="M493.425 290.915H488.461V264.701H493.425V290.915Z" fill="black"/>
<path d="M424.961 252.116V259.133C411.134 259.133 399.912 247.906 399.912 234.072H406.901C406.901 244.022 415.017 252.116 424.961 252.116Z" fill="#FFB518"/>
<path d="M450.009 234.072C450.009 247.906 438.787 259.134 424.96 259.134V252.117C434.905 252.117 443.021 244.022 443.021 234.047H450.009V234.072Z" fill="#A40550"/>
<path d="M450.009 234.072H443.021C443.021 224.123 434.93 216.003 424.96 216.003V209.011C438.787 209.011 450.009 220.239 450.009 234.072Z" fill="#0784A2"/>
<path d="M424.962 209.011V216.003C415.018 216.003 406.902 224.098 406.902 234.072H399.913C399.913 220.239 411.135 209.011 424.962 209.011Z" fill="#02090A"/>
<path d="M424.961 248.833C433.11 248.833 439.715 242.224 439.715 234.072C439.715 225.92 433.11 219.311 424.961 219.311C416.813 219.311 410.207 225.92 410.207 234.072C410.207 242.224 416.813 248.833 424.961 248.833Z" fill="#05A32F"/>
<path d="M582.993 386.187C583.501 391.732 579.316 397.114 580.537 402.543C580.795 403.703 581.297 404.803 581.48 405.936C581.982 409.16 580.062 412.214 578.224 414.915L562.467 438.111C561.835 439.129 561.078 440.063 560.215 440.893C557.196 443.608 552.679 443.296 548.724 444.097C545.944 444.661 543.318 445.818 541.025 447.49C540.925 447.569 540.859 447.683 540.841 447.809C540.822 447.935 540.851 448.064 540.924 448.169C541.575 449.063 542.441 449.781 543.441 450.255C544.441 450.729 545.544 450.945 546.649 450.883C547.062 451.426 546.649 452.241 546.079 452.621C545.231 453.204 544.044 453.36 543.901 454.799C543.842 455.299 543.941 455.805 544.186 456.245C544.824 457.216 545.814 457.902 546.947 458.158C552.374 459.828 558.295 456.896 562.379 452.906C566.462 448.915 569.392 443.88 573.401 439.814C575.619 437.568 578.149 435.641 580.429 433.462C584.987 429.119 588.568 423.832 591.96 418.532C593.08 416.995 593.925 415.275 594.456 413.449C594.877 411.644 594.687 409.737 595.175 407.945C595.813 405.604 597.529 403.737 598.953 401.769C601.755 397.915 603.62 393.205 603.247 388.454C602.874 383.704 599.944 379.028 595.467 377.412C594.079 376.859 592.55 376.767 591.105 377.148C589.267 377.711 587.917 379.231 586.662 380.684L583.671 384.138C582.925 384.903 582.334 385.803 581.928 386.791C581.735 387.289 581.691 387.833 581.8 388.356C581.91 388.878 582.168 389.358 582.545 389.737" fill="#FBBEBE"/>
<path opacity="0.05" d="M582.993 386.187C583.501 391.732 579.316 397.114 580.537 402.543C580.795 403.703 581.297 404.803 581.48 405.936C581.982 409.16 580.062 412.214 578.224 414.915L562.467 438.111C561.835 439.129 561.078 440.063 560.215 440.893C557.196 443.608 552.679 443.296 548.724 444.097C545.944 444.661 543.318 445.818 541.025 447.49C540.925 447.569 540.859 447.683 540.841 447.809C540.822 447.935 540.851 448.064 540.924 448.169C541.575 449.063 542.441 449.781 543.441 450.255C544.441 450.729 545.544 450.945 546.649 450.883C547.062 451.426 546.649 452.241 546.079 452.621C545.231 453.204 544.044 453.36 543.901 454.799C543.842 455.299 543.941 455.805 544.186 456.245C544.824 457.216 545.814 457.902 546.947 458.158C552.374 459.828 558.295 456.896 562.379 452.906C566.462 448.915 569.392 443.88 573.401 439.814C575.619 437.568 578.149 435.641 580.429 433.462C584.987 429.119 588.568 423.832 591.96 418.532C593.08 416.995 593.925 415.275 594.456 413.449C594.877 411.644 594.687 409.737 595.175 407.945C595.813 405.604 597.529 403.737 598.953 401.769C601.755 397.915 603.62 393.205 603.247 388.454C602.874 383.704 599.944 379.028 595.467 377.412C594.079 376.859 592.55 376.767 591.105 377.148C589.267 377.711 587.917 379.231 586.662 380.684L583.671 384.138C582.925 384.903 582.334 385.803 581.928 386.791C581.735 387.289 581.691 387.833 581.8 388.356C581.91 388.878 582.168 389.358 582.545 389.737" fill="black"/>
<path d="M594.924 528.901C591.478 530.998 587.191 531.134 583.189 530.638C582.511 530.564 581.785 530.516 581.372 531.012C580.775 531.738 581.48 532.796 582.206 533.38C584.57 535.151 587.345 536.293 590.271 536.699C592.882 537.063 595.517 537.238 598.153 537.221C605.343 537.343 612.574 537.466 619.696 536.427C620.108 536.396 620.508 536.278 620.87 536.081C621.33 535.76 621.648 535.274 621.758 534.724C622.254 532.878 621.311 530.883 619.893 529.6C618.475 528.317 616.651 527.598 614.867 526.885L608.613 524.449C607.141 523.872 604.787 522.359 603.186 522.474C600.263 522.712 597.407 527.449 594.924 528.901Z" fill="#3F3D56"/>
<path opacity="0.05" d="M594.924 528.901C591.478 530.998 587.191 531.134 583.189 530.638C582.511 530.564 581.785 530.516 581.372 531.012C580.775 531.738 581.48 532.796 582.206 533.38C584.57 535.151 587.345 536.293 590.271 536.699C592.882 537.063 595.517 537.238 598.153 537.221C605.343 537.343 612.574 537.466 619.696 536.427C620.108 536.396 620.508 536.278 620.87 536.081C621.33 535.76 621.648 535.274 621.758 534.724C622.254 532.878 621.311 530.883 619.893 529.6C618.475 528.317 616.651 527.598 614.867 526.885L608.613 524.449C607.141 523.872 604.787 522.359 603.186 522.474C600.263 522.712 597.407 527.449 594.924 528.901Z" fill="black"/>
<path d="M599.286 445.799C596.688 449.267 593.988 453.264 594.633 457.56C594.979 459.874 596.274 461.917 597.224 464.055C598.413 466.996 599.292 470.053 599.849 473.176C600.826 477.716 601.802 482.27 602.399 486.878C603.078 492.083 599.89 507.143 599.591 512.389C599.516 513.651 599.374 515.022 598.492 515.931C598.146 516.291 597.685 516.61 597.536 517.051C597.441 517.5 597.513 517.968 597.739 518.367C599.211 521.686 602.216 524.15 605.553 525.561C608.891 526.973 617.01 529.396 620.632 529.525C621.113 529.583 621.601 529.517 622.05 529.334C622.539 529.042 622.924 528.603 623.149 528.079C625.767 523.077 623.251 505.269 623.291 499.616C623.291 494.866 624.438 490.224 624.234 485.514C624.065 481.734 623.054 478.049 622.688 474.275C622.084 468.093 623.217 461.89 624.356 455.782C625.225 451.106 626.093 446.424 627.205 441.795C627.884 438.979 628.67 436.128 630.224 433.651C631.452 431.704 633.12 430.082 634.524 428.222C638.416 423.118 640.144 416.687 639.334 410.319C639.252 409.695 630.298 412.593 629.518 412.932C626.305 414.299 623.348 416.204 620.775 418.565C618.74 420.533 617.078 423.173 615.26 425.385C612.696 428.507 610.166 431.654 607.67 434.825C604.834 438.467 602.04 442.125 599.286 445.799Z" fill="#464353"/>
<path opacity="0.05" d="M599.286 445.575C596.688 449.043 593.988 453.041 594.633 457.343C594.979 459.651 596.274 461.693 597.224 463.831C598.412 466.773 599.291 469.829 599.849 472.952C600.826 477.492 601.802 482.046 602.399 486.654C603.078 491.86 599.89 506.926 599.591 512.172C599.516 513.427 599.374 514.805 598.492 515.707C598.146 516.067 597.685 516.386 597.536 516.827C597.433 517.289 597.505 517.773 597.739 518.184C599.211 521.496 602.216 523.967 605.553 525.371C608.891 526.776 617.01 528.086 620.632 528.201C621.114 528.259 621.601 528.194 622.05 528.011C622.539 527.719 622.924 527.279 623.149 526.756C625.767 521.754 623.251 505.08 623.291 499.433C623.291 494.683 624.438 490.034 624.234 485.324C624.065 481.544 623.054 477.859 622.688 474.086C622.084 467.903 623.217 461.7 624.356 455.599C625.225 450.916 626.093 446.234 627.205 441.605C627.884 438.789 628.671 435.939 630.224 433.462C631.452 431.521 633.12 429.892 634.524 428.073C638.411 422.967 640.138 416.538 639.334 410.17C639.252 409.539 630.298 412.437 629.518 412.783C626.303 414.151 623.345 416.061 620.775 418.429C618.74 420.404 617.078 423.037 615.26 425.216C612.696 428.338 610.166 431.487 607.67 434.663C604.834 438.282 602.04 441.92 599.286 445.575Z" fill="black"/>
<path d="M570.329 369.444C578.394 369.444 584.933 362.903 584.933 354.833C584.933 346.763 578.394 340.222 570.329 340.222C562.263 340.222 555.725 346.763 555.725 354.833C555.725 362.903 562.263 369.444 570.329 369.444Z" fill="#FBBEBE"/>
<path d="M583.474 354.222C584.823 356.377 586.591 358.238 588.673 359.696C590.756 361.153 593.11 362.176 595.595 362.705L594.496 366.689C592.597 373.563 590.427 380.832 585.156 385.596C585.733 383.268 584.986 380.764 583.67 378.762C582.263 376.814 580.595 375.07 578.712 373.577L570.308 366.261C570.057 366.076 569.843 365.846 569.677 365.582C569.474 365.068 569.474 364.495 569.677 363.981C570.749 360.649 573.808 358.552 576.284 356.312C577.529 355.145 578.643 353.846 579.607 352.437C581.33 350.041 582.368 352.437 583.474 354.222Z" fill="#FBBEBE"/>
<path d="M551.085 340.148L550.759 337.433C553.065 338.03 555.249 336.076 556.721 334.04C558.193 332.004 559.564 329.615 561.809 328.773C564.522 327.742 567.425 329.391 570.03 330.748C572.95 332.374 576.156 333.423 579.472 333.836C580.001 333.854 580.526 333.941 581.032 334.094C582.728 334.698 583.535 336.809 583.779 338.756C584.024 340.704 583.956 342.74 584.797 344.464C585.428 345.767 586.52 346.737 587.185 348.02C588.969 351.481 587.246 356.205 589.131 359.598L584.451 355.302C584.017 354.908 583.413 354.501 582.945 354.834C582.477 355.166 582.545 355.668 582.389 356.123C581.934 357.48 580.273 357.86 579.058 357.338C577.844 356.815 576.969 355.662 576.081 354.623C574.012 352.18 571.549 350.036 568.619 348.99C567.351 348.504 565.994 348.294 564.638 348.375C563.282 348.456 561.959 348.825 560.757 349.459C558.573 350.694 556.972 353.571 554.3 353.673C550.63 353.809 549.104 346.975 547.401 344.274C548.021 343.804 548.457 343.133 548.633 342.375C548.809 341.617 548.714 340.822 548.365 340.127C548.663 340.012 551.037 339.707 551.085 340.148Z" fill="#464353"/>
<path d="M611.957 528.786C609.07 531.361 605.323 532.758 601.456 532.702C600.473 532.702 599.109 532.892 599.103 533.876C599.12 534.168 599.219 534.45 599.387 534.69C600.612 536.726 602.544 538.239 604.814 538.938C606.917 539.576 609.169 539.468 611.367 539.359L617.777 539.027C618.984 538.959 620.198 538.898 621.406 538.748C622.613 538.599 623.915 538.348 625.177 538.165C628.267 537.723 631.393 537.575 634.511 537.724C635.338 537.758 636.295 537.724 636.81 537.099C637.326 536.475 637.048 535.348 636.858 534.446C636.478 532.586 636.858 530.639 636.505 528.772C635.888 525.494 633.073 522.99 629.966 521.803C627.083 520.703 621.969 519.448 619.235 521.273C616.305 523.241 614.541 526.444 611.957 528.786Z" fill="#3F3D56"/>
<path d="M618.306 419.109C618.876 421.824 621.474 423.86 621.555 426.574C621.616 428.773 620.042 430.646 618.916 432.512C617.841 434.468 616.933 436.511 616.203 438.62C614.062 444.095 611.41 449.355 608.28 454.331C606.775 456.713 605.092 459.306 605.438 462.108C605.675 463.416 606.134 464.674 606.795 465.827L611.306 474.792C612.297 476.583 613.071 478.485 613.612 480.459C613.999 482.163 614.039 483.927 614.29 485.664C615.003 491.162 617.58 496.699 616.061 502.027C615.925 502.488 615.45 503.045 615.091 502.705C616.576 505.488 617.804 508.298 617.662 511.453C617.601 513.109 617.092 514.847 617.709 516.38C618.058 516.977 618.289 517.636 618.387 518.321C618.387 518.769 618.177 519.197 618.13 519.679C618.008 520.948 619.167 522.006 620.382 522.393C621.596 522.78 622.905 522.766 624.126 523.133C626.48 523.812 628.148 525.847 630.163 527.259C632.203 528.675 634.613 529.46 637.095 529.519C637.447 529.556 637.802 529.485 638.113 529.315C638.291 529.161 638.433 528.97 638.532 528.756C638.63 528.542 638.681 528.309 638.683 528.073C638.791 526.95 638.621 525.816 638.188 524.774C637.755 523.731 637.072 522.811 636.2 522.095C635.821 521.853 635.506 521.522 635.284 521.131C635.17 520.783 635.139 520.413 635.196 520.052C635.562 515.118 635.474 510.161 634.931 505.244C634.687 503.686 634.607 502.108 634.694 500.534C634.83 499.224 635.223 497.921 635.074 496.611C634.925 495.301 634.267 494.12 633.873 492.858C633.195 490.619 633.371 488.216 633.297 485.868C633.175 481.796 632.245 477.806 631.316 473.842C630.957 472.288 630.55 470.653 629.444 469.499C628.508 468.522 626.995 467.578 627.348 466.275C627.54 465.793 627.832 465.356 628.203 464.993C628.64 464.446 628.961 463.815 629.147 463.139C629.332 462.464 629.378 461.757 629.281 461.063C629.678 461.169 630.099 461.132 630.471 460.958C630.843 460.784 631.142 460.485 631.316 460.113C638.649 456.659 644.577 449.737 647.189 442.054C647.335 441.488 647.564 440.946 647.867 440.446C648.545 439.496 649.726 439.089 650.77 438.559C654.053 436.91 656.326 433.809 658.408 430.775C659.622 429.011 660.83 427.192 661.352 425.122C661.637 423.784 661.774 422.418 661.759 421.05L661.942 413.978C661.979 413.522 661.933 413.062 661.806 412.621C661.634 412.199 661.375 411.818 661.047 411.501C659.058 409.382 656.443 407.955 653.585 407.429C651.659 407.083 649.692 407.151 647.745 406.988C643.967 406.676 640.236 405.509 636.458 405.78C630.516 406.215 625.232 410.334 622.43 415.594C621.447 417.474 620.415 419.109 618.306 419.109Z" fill="#464353"/>
<path d="M585.339 373.123C585.425 374.213 585.279 375.31 584.912 376.34C584.45 377.331 583.284 378.098 582.273 377.697C582.578 377.019 581.764 376.211 581.011 376.299C580.639 376.382 580.292 376.555 580.001 376.802C579.711 377.049 579.485 377.363 579.343 377.718C578.837 378.726 578.668 379.87 578.861 380.982C579.098 382.339 579.899 383.696 579.688 385.054C579.519 386.207 578.671 387.361 579.126 388.447C579.418 388.935 579.784 389.374 580.211 389.75C580.807 390.481 581.099 391.414 581.027 392.355C580.955 393.296 580.525 394.174 579.824 394.806L591.206 395.03C590.793 396.937 591.64 398.885 592.617 400.575C595.351 405.219 599.121 409.168 603.634 412.111C608.147 415.055 613.28 416.913 618.631 417.541C618.342 417.711 618.094 417.944 617.906 418.222C617.718 418.499 617.593 418.815 617.541 419.147C617.489 419.478 617.512 419.817 617.606 420.139C617.701 420.461 617.865 420.758 618.088 421.009C619.01 421.925 620.577 421.81 621.737 421.212C622.897 420.615 623.813 419.631 624.871 418.871C626.738 417.54 629.019 416.924 631.302 417.134C632.726 417.269 634.11 417.731 635.541 417.812C639.76 418.036 643.382 415.003 647.418 413.74C650.376 412.831 653.72 412.831 656.236 410.985C657.308 410.191 658.183 408.888 657.871 407.592C657.606 406.848 657.188 406.168 656.643 405.597C655.212 403.751 654.371 401.525 653.354 399.428C651.324 395.271 648.533 391.533 645.126 388.406C642.559 386.155 639.839 384.085 636.986 382.21C636.291 381.692 635.551 381.238 634.775 380.853C633.738 380.515 632.727 380.105 631.749 379.625C630.393 378.783 629.64 377.297 628.615 376.096C626.357 373.462 622.89 372.248 620.109 370.178C618.244 368.82 616.602 366.961 614.371 366.289C613.292 365.963 612.139 365.936 611.054 365.61C608.598 364.864 606.808 362.679 604.393 361.796C602.48 361.118 600.377 361.281 598.356 361.029C596.132 360.754 594.008 359.946 592.163 358.675C591.55 358.181 590.863 357.787 590.128 357.507C587.082 356.578 586.831 362.258 586.546 364.233C586.092 367.253 585.339 370.157 585.339 373.123Z" fill="#A40550"/>
<path d="M588.31 392.193C588.819 397.737 584.634 403.112 585.855 408.548C586.112 409.709 586.614 410.808 586.798 411.942C587.306 415.165 585.38 418.219 583.542 420.913L567.784 444.055C567.152 445.073 566.396 446.008 565.532 446.838C562.514 449.553 557.996 449.24 554.042 450.041C551.262 450.607 548.636 451.764 546.343 453.434C546.243 453.514 546.177 453.628 546.158 453.754C546.139 453.88 546.169 454.008 546.241 454.113C546.891 455.009 547.757 455.727 548.757 456.202C549.757 456.676 550.861 456.891 551.966 456.828C552.38 457.377 551.966 458.185 551.396 458.565C550.548 459.155 549.361 459.312 549.219 460.75C549.159 461.25 549.259 461.756 549.504 462.196C550.143 463.165 551.132 463.851 552.264 464.11C557.691 465.779 563.613 462.847 567.696 458.857C571.78 454.866 574.71 449.831 578.726 445.766C580.944 443.519 583.474 441.592 585.746 439.413C590.311 435.07 593.852 429.783 597.277 424.483C598.396 422.945 599.241 421.226 599.774 419.4C600.194 417.595 600.004 415.688 600.493 413.896C601.13 411.555 602.846 409.682 604.271 407.72C607.072 403.866 608.938 399.156 608.565 394.405C608.192 389.655 605.261 384.979 600.784 383.364C599.397 382.807 597.867 382.714 596.423 383.099C594.591 383.662 593.235 385.182 591.98 386.635L588.988 390.089C588.243 390.852 587.653 391.753 587.252 392.743C587.058 393.239 587.012 393.781 587.121 394.303C587.229 394.824 587.487 395.303 587.862 395.681" fill="#FBBEBE"/>
<path d="M596.287 369.41C594.211 369.533 591.932 369.736 590.467 371.216C589.857 371.895 589.362 372.67 589.002 373.509C587.584 376.407 586.201 379.434 586.099 382.658C586.011 385.237 586.777 387.754 587.15 390.306C587.476 392.424 586.648 394.582 586.472 396.726C589.043 395.939 592.434 394.867 594.768 393.537C596.296 392.536 597.921 391.69 599.618 391.012C602.093 390.191 606.252 391.602 608.585 392.763C608.714 391.107 607.479 388.236 607.608 386.58C607.629 385.887 607.752 385.201 607.974 384.544C608.326 383.849 608.741 383.188 609.216 382.569C610.115 381.113 610.53 379.408 610.4 377.701C610.269 375.993 609.601 374.371 608.49 373.068C606.408 370.72 603.138 369.838 600.025 369.478C598.062 369.249 596.084 369.179 594.11 369.268" fill="#A40550"/>
<path d="M288.976 321.932L275.6 302.522C275.6 302.522 275.349 297.718 274.474 296.598C273.599 295.478 274.284 292.981 274.284 292.981C274.284 292.981 275.227 291.623 274.413 291.481C273.599 291.338 274.284 288.298 274.284 288.298L274.223 283.432C274.223 283.432 274.976 278.749 274.352 277.629C274.167 277.326 274.075 276.975 274.086 276.619C274.097 276.264 274.21 275.92 274.413 275.627C274.413 275.627 275.159 272.947 274.413 272.234C273.667 271.522 273.85 267.368 274.033 264.056C274.216 260.745 272.724 258.878 272.724 258.383C272.724 257.887 267.786 253.015 267.786 252.574C267.786 252.132 264.658 250.327 262.78 249.859C260.901 249.391 259.971 248.984 260.032 248.732C260.093 248.481 257.095 247.491 257.095 247.491C257.095 247.491 254.47 247.3 253.466 245.991C252.462 244.681 249.396 244.301 249.322 244.287L249.261 244.029C249.261 243.934 249.227 243.839 249.206 243.744C249.454 243.35 249.68 242.942 249.885 242.523L250.061 242.143C251.16 242.15 252.233 241.815 253.134 241.186C253.577 240.818 253.94 240.362 254.198 239.847C254.456 239.332 254.604 238.769 254.633 238.193C254.686 237.039 254.434 235.892 253.9 234.868C253.351 233.748 252.544 232.581 252.829 231.359C252.951 230.836 253.263 230.375 253.426 229.859C253.669 228.852 253.508 227.79 252.978 226.9C252.503 225.998 251.845 225.197 251.316 224.321C250.645 223.201 250.196 221.961 249.993 220.67C249.956 219.984 249.792 219.31 249.512 218.682C249.228 218.239 248.853 217.862 248.413 217.576C246.455 216.179 244.094 215.463 241.691 215.54C239.988 215.594 238.299 216.055 236.603 215.845C235.593 215.671 234.599 215.412 233.632 215.071C231.536 214.447 229.115 214.196 227.29 215.397C225.465 216.598 224.74 218.96 223.498 220.826C222.406 222.455 220.785 223.826 219.971 225.577C219.971 225.577 219.971 225.509 219.971 225.482C219.766 225.88 219.609 226.302 219.503 226.737C219.27 228.12 219.365 229.538 219.781 230.877C219.873 231.598 220.234 232.258 220.792 232.723C221.409 233.123 222.257 233.028 222.976 233.157L222.895 233.51C222.163 237.018 222.775 240.674 224.611 243.751C226.446 246.828 229.371 249.103 232.805 250.124C232.805 250.253 232.805 250.375 232.805 250.504C232.803 250.862 232.781 251.22 232.737 251.576C232.737 251.576 226.449 250.28 224.76 251.155C223.071 252.031 219.761 252.716 219.259 253.191C218.757 253.666 217.509 253.32 216.383 256.252C215.257 259.184 215.135 262.177 213.669 263.554C212.204 264.932 211.485 265.862 211.417 266.859C211.35 267.857 211.607 268.108 211.044 268.42C210.481 268.732 209.688 270.042 209.918 270.544C210.005 270.888 209.986 271.249 209.865 271.581C209.744 271.914 209.527 272.203 209.24 272.411C208.943 272.619 208.706 272.902 208.553 273.23C208.399 273.559 208.335 273.922 208.365 274.284C208.365 274.284 207.985 275.641 207.11 275.974C206.235 276.306 205.672 278.342 205.672 278.342L202.837 281.6L197.22 275.383C196.798 274.918 196.21 274.64 195.583 274.608C194.957 274.576 194.343 274.794 193.876 275.213L191.115 277.697C190.052 277.956 189.09 278.528 188.355 279.34C187.756 279.961 187.272 280.682 186.923 281.471L185.418 282.828C184.942 283.418 184.651 284.135 184.581 284.889C184.511 285.644 184.665 286.402 185.024 287.069L188.626 291.053V291.087C187.35 291.199 186.137 291.694 185.146 292.505C179.774 297.256 179.72 301.62 180.52 303.615C181.321 305.61 188.144 313.286 188.144 313.286C188.144 313.286 192.106 318.437 197.824 321.172L197.783 321.219C197.666 321.342 197.555 321.471 197.451 321.606L197.356 321.728L197.268 321.85L197.166 322C197.139 322.039 197.114 322.08 197.091 322.122L196.983 322.298C196.958 322.338 196.935 322.378 196.915 322.42C196.868 322.502 196.827 322.583 196.786 322.665C196.771 322.691 196.758 322.718 196.745 322.746C196.691 322.855 196.637 322.963 196.589 323.086L196.535 323.208C196.501 323.289 196.474 323.371 196.44 323.459C196.419 323.512 196.401 323.566 196.386 323.622L196.305 323.866C196.282 323.923 196.264 323.982 196.25 324.042C196.25 324.131 196.196 324.219 196.176 324.314C196.155 324.409 196.142 324.422 196.128 324.484C196.115 324.545 196.06 324.775 196.033 324.931C196.033 324.986 196.033 325.047 195.999 325.108C195.965 325.169 195.965 325.318 195.945 325.427C195.925 325.535 195.945 325.576 195.945 325.658L195.904 325.963V326.207C195.904 326.323 195.904 326.438 195.87 326.56C195.836 326.682 195.87 326.703 195.87 326.777C195.87 326.974 195.87 327.171 195.87 327.381C195.748 334.684 196.176 335.742 196.176 335.742C196.455 336.417 196.91 337.004 197.493 337.442C198.077 337.88 198.767 338.153 199.493 338.233C199.848 338.261 200.206 338.243 200.558 338.179C203.813 337.615 211.411 336.306 214.124 336.821C215.745 337.12 218.736 336.672 220.866 336.272L221.429 336.163L221.816 337.405L223.051 337.066L224.102 337.67L224.78 338.057C226.015 342.237 231.021 340.812 231.021 340.812L232.208 341.491L244.275 341.803C245.63 342.619 247.061 343.301 248.548 343.839C248.745 343.903 248.947 343.948 249.152 343.974C250.28 344.066 251.413 344.087 252.544 344.035C253.466 344.035 254.178 343.974 254.178 343.974C254.178 343.974 254.056 340.697 253.88 337.025C257.621 336.932 261.353 336.627 265.059 336.109C271.503 334.982 274.189 329.119 275.179 325.983C275.476 327.264 275.686 328.563 275.81 329.872C276.073 331.023 276.409 332.156 276.814 333.265C277.159 334.152 277.615 334.991 278.171 335.763C282.919 334.141 280.043 331.691 279.046 330.646C278.048 329.601 279.724 328.712 279.724 328.712C279.724 328.712 281.04 327.836 280.911 327.028C280.782 326.221 280.721 325.345 284.981 325.406C289.241 325.468 288.976 321.932 288.976 321.932ZM222.962 282.088C223.017 282.441 223.641 286.289 224.143 287.3C224.292 287.968 224.34 288.654 224.285 289.336C221.769 289.133 219.143 289.024 219.143 289.024C219.217 289.116 219.264 289.226 219.279 289.343L218.879 289.255L218.309 289.119L222.949 282.054L222.962 282.088ZM213.764 296.72L218.126 297.399L218.492 297.453C218.369 298.125 218.294 298.806 218.268 299.489C218.268 299.557 218.363 299.631 218.506 299.72C218.445 300.062 218.418 300.41 218.424 300.758C218.492 301.097 220.527 301.844 222.867 302.461C222.833 302.59 222.806 302.712 222.772 302.821C220.704 301.735 217.454 301.226 217.081 300.419C216.708 299.611 205.638 295.743 205.638 295.743L204.539 295.193L207.449 295.743L208.25 295.661C210.063 296.133 211.905 296.487 213.764 296.72Z" fill="url(#paint0_linear)"/>
<path d="M274.745 324.647C274.745 324.647 273.015 335.125 264.218 336.673C255.42 338.22 226.049 337.915 226.049 337.915C226.049 337.915 209.254 335.492 203.183 321.301C197.112 307.111 193.205 301.457 198.434 301.213C203.664 300.969 231.713 310.714 233.32 310.823C234.928 310.931 276.298 289.248 274.745 324.647Z" fill="#65617D"/>
<path opacity="0.05" d="M274.745 324.647C274.745 324.647 273.015 335.125 264.218 336.673C255.42 338.22 226.049 337.915 226.049 337.915C226.049 337.915 209.254 335.492 203.183 321.301C197.112 307.111 193.205 301.457 198.434 301.213C203.664 300.969 231.713 310.714 233.32 310.823C234.928 310.931 276.298 289.248 274.745 324.647Z" fill="black"/>
<path d="M195.986 336.313C196.259 336.984 196.708 337.569 197.286 338.005C197.864 338.441 198.549 338.712 199.269 338.79C199.625 338.812 199.983 338.792 200.334 338.729C203.556 338.173 211.112 336.87 213.778 337.372C215.379 337.664 218.343 337.222 220.453 336.829C221.857 336.564 222.888 336.313 222.888 336.313C222.888 336.313 220.405 328.067 220.1 327.823C219.795 327.579 208.942 321.037 208.942 321.037L200.354 320.419C199.198 320.592 198.153 321.205 197.437 322.129C196.535 323.229 195.755 325.027 195.701 327.979C195.558 335.248 195.986 336.313 195.986 336.313Z" fill="#3F3D56"/>
<path opacity="0.05" d="M195.986 336.313C196.258 336.984 196.708 337.569 197.286 338.005C197.864 338.441 198.549 338.713 199.269 338.79C198.428 337.704 197.649 336.571 196.935 335.397L196.983 329.384C196.812 327.735 197.03 326.069 197.619 324.519C198.208 322.969 199.152 321.579 200.375 320.46C200.375 320.46 195.85 320.765 195.721 328.02C195.592 335.275 195.986 336.313 195.986 336.313Z" fill="black"/>
<path opacity="0.1" d="M233.233 323.161L241.23 316.897L253.806 304.498L250.414 304.342C249.906 304.668 248.481 305.7 248.427 306.935C248.366 308.448 245.035 307.043 243.292 307.905C241.549 308.767 233.07 319.646 231.584 319.571C230.099 319.497 228.919 318.818 228.295 319.877L228.254 319.944L233.233 323.161Z" fill="black"/>
<path opacity="0.1" d="M197.417 322.143C197.702 322.279 197.994 322.415 198.285 322.537C204.356 325.143 211.852 330.599 212.415 331.59C212.754 332.194 217.102 334.834 220.453 336.816C221.857 336.551 222.888 336.3 222.888 336.3C222.888 336.3 220.405 328.054 220.1 327.81C219.795 327.566 208.942 321.023 208.942 321.023L200.354 320.406C199.186 320.581 198.133 321.204 197.417 322.143Z" fill="black"/>
<path d="M180.568 304.376C181.368 306.357 188.124 313.985 188.124 313.985C188.124 313.985 192.397 319.564 198.475 322.129C204.553 324.694 212.041 330.192 212.598 331.182C212.957 331.82 217.8 334.739 221.206 336.741L221.972 337.188L223.661 338.173L224.556 338.681C224.556 338.681 226.632 337.019 228.701 335.343C230.77 333.666 232.771 332.024 232.771 331.949C232.771 331.875 233.639 329.655 233.449 329.533C233.259 329.411 232.927 328.61 232.14 327.613C231.31 326.507 230.229 325.613 228.986 325.007C227.188 324.082 225.754 322.578 224.916 320.738C224.916 320.738 224.645 320.541 224.238 320.276C223.394 319.696 222.451 319.275 221.457 319.035C220.1 318.865 217.549 316.076 217.549 316.076C216.558 315.43 215.731 314.56 215.135 313.537C214.456 312.18 204.872 305.57 203.983 304.959L227.276 319.93L232.852 323.514L240.85 317.256L253.426 304.857L249.274 304.667C243.169 304.403 232.316 303.989 230.96 304.301C229.848 304.557 228.703 304.633 227.568 304.525C227.568 304.525 224.475 304.661 222.427 303.582C220.378 302.503 217.156 301.994 216.783 301.193C216.41 300.392 205.448 296.551 205.448 296.551C205.448 296.551 190.525 288.617 185.187 293.327C179.849 298.037 179.76 302.38 180.568 304.376Z" fill="#65617D"/>
<path d="M228.708 258.871L230.628 265.258L233.11 279.638L242.22 280.256L244.825 275.912L247.457 271.542C247.457 271.542 249.098 265.733 250.278 260.113C251.316 255.139 252.001 250.307 250.869 249.784C249.858 249.323 249.2 247.647 248.766 245.841C248.712 245.624 248.664 245.393 248.623 245.163C248.32 243.637 248.116 242.093 248.013 240.541C248.013 240.541 228.932 239.55 231.598 247.423C232.073 248.767 232.316 250.183 232.317 251.61C232.317 251.976 232.317 252.336 232.249 252.675C232.117 253.896 231.734 255.077 231.124 256.143C230.515 257.209 229.693 258.138 228.708 258.871Z" fill="#FBBEBE"/>
<path d="M224.747 257.82L225.425 268.678L226.972 277.915L228.708 282.197L230.262 305.597C230.262 305.597 245.185 307.328 248.834 305.563C249.103 305.46 249.338 305.284 249.512 305.054C253.901 298.424 252.463 279.218 252.463 279.218L254.132 266.819L253.019 260.385L250.306 260.1L248.23 259.876C248.23 259.876 247.762 260.453 247.084 261.349C245.246 263.772 241.868 268.549 242.098 270.538C242.404 273.252 241.725 276.055 240.667 276.49C239.609 276.924 238.748 277.67 238.564 276.924C238.301 276.298 238.234 275.607 238.374 274.942C238.564 273.884 237.567 270.66 237.567 270.66C237.567 270.66 235.899 266.88 236.021 265.272C236.143 263.663 235.838 261.797 235.342 261.362C234.847 260.928 234.162 260.494 234.718 258.512C235.275 256.53 232.276 252.669 232.276 252.669L224.747 257.82Z" fill="#E3E8F4"/>
<path opacity="0.1" d="M244.478 284.912L245.102 303.446L248.677 305.435C248.946 305.327 249.18 305.149 249.356 304.919C253.744 298.288 252.306 279.083 252.306 279.083L253.982 266.684L252.862 260.25L250.149 259.965C251.194 254.99 251.872 250.165 250.739 249.636C249.729 249.174 249.071 247.498 248.643 245.7L246.71 258.811C246.71 258.811 246.873 259.992 246.927 261.214C247.007 261.986 246.955 262.767 246.771 263.521C246.521 264.536 246.479 265.591 246.649 266.623C245.53 268.591 244.974 272.242 244.702 275.764C244.336 280.447 244.478 284.912 244.478 284.912Z" fill="black"/>
<path d="M248.698 245.374C248.698 245.374 251.825 245.76 252.816 247.063C253.806 248.366 256.411 248.556 256.411 248.556C256.411 248.556 259.382 249.547 259.321 249.792C259.26 250.036 260.189 250.416 262.034 250.911C263.879 251.407 266.992 253.205 266.992 253.626C266.992 254.047 271.883 258.892 271.883 259.388C271.883 259.883 273.369 261.743 273.185 265.027C273.002 268.312 272.812 272.492 273.558 273.171C274.305 273.85 273.558 276.517 273.558 276.517C273.358 276.807 273.246 277.149 273.235 277.502C273.224 277.855 273.315 278.203 273.497 278.505C274.115 279.618 273.369 284.267 273.369 284.267L273.436 289.106C273.436 289.106 272.758 292.139 273.558 292.268C274.359 292.397 273.436 293.755 273.436 293.755C273.436 293.755 272.758 296.232 273.62 297.351C274.481 298.471 274.732 303.235 274.732 303.235L287.993 322.516C287.993 322.516 288.183 326.052 283.971 325.991C279.758 325.929 279.813 326.798 279.941 327.599C280.07 328.4 278.761 329.275 278.761 329.275C278.761 329.275 277.092 330.144 278.083 331.196C279.073 332.248 281.922 334.671 277.215 336.279C276.66 335.514 276.204 334.681 275.858 333.802C275.459 332.708 275.128 331.591 274.868 330.456C274.868 330.456 274.433 325.739 273.565 325.122C272.697 324.504 272.819 321.525 272.819 321.525C272.819 321.525 274.06 319.109 272.324 318.132C270.587 317.155 245.435 303.201 245.435 303.201L244.825 284.661C244.825 284.661 244.391 270.959 246.996 266.371C246.826 265.34 246.867 264.284 247.118 263.27C247.552 262.157 247.057 258.56 247.057 258.56L248.698 245.374Z" fill="#3F3D56"/>
<path opacity="0.1" d="M232.459 252.839C232.459 252.839 226.232 251.556 224.557 252.425C222.881 253.294 219.605 253.972 219.13 254.461C218.655 254.949 217.401 254.59 216.281 257.501C215.162 260.413 215.047 263.392 213.616 264.756C212.184 266.12 211.452 267.05 211.391 268.041C211.33 269.031 211.574 269.283 211.018 269.588C210.461 269.893 209.661 271.203 209.898 271.699C210.136 272.194 222.786 283.107 222.786 283.107C222.786 283.107 223.41 287.26 223.967 288.312C224.523 289.364 223.349 303.873 222.108 304.864C220.867 305.855 230.445 305.774 230.445 305.774C230.445 305.774 230.879 296.273 231.252 295.757C231.625 295.241 231.001 285.095 231.001 285.095C231.001 285.095 230.94 276.415 231.747 274.121C232.554 271.827 232.425 264.199 232.425 264.199C232.425 264.199 233.137 259.625 234.006 258.56C234.874 257.494 232.459 252.839 232.459 252.839Z" fill="black"/>
<path d="M232.276 252.656C232.276 252.656 226.049 251.373 224.374 252.235C222.698 253.097 219.415 253.789 218.947 254.271C218.479 254.753 217.211 254.393 216.098 257.312C214.986 260.23 214.857 263.196 213.433 264.56C212.008 265.924 211.262 266.854 211.201 267.844C211.14 268.835 211.391 269.086 210.828 269.398C210.265 269.711 209.471 271.007 209.715 271.502C209.96 271.998 222.603 282.91 222.603 282.91C222.603 282.91 223.221 287.064 223.784 288.116C224.347 289.168 223.16 303.677 221.918 304.668C220.677 305.659 230.289 305.571 230.289 305.571C230.289 305.571 230.723 296.069 231.089 295.56C231.455 295.051 230.845 284.892 230.845 284.892C230.845 284.892 230.784 276.219 231.591 273.925C232.398 271.631 232.303 264.003 232.303 264.003C232.303 264.003 233.015 259.429 233.884 258.364C234.752 257.298 232.276 252.656 232.276 252.656Z" fill="#3F3D56"/>
<path opacity="0.1" d="M231.625 247.41C232.1 248.755 232.344 250.171 232.344 251.597C235.388 252.489 238.642 252.339 241.591 251.172C244.539 250.004 247.015 247.885 248.623 245.15C248.32 243.625 248.116 242.081 248.013 240.529C248.013 240.529 228.959 239.531 231.625 247.41Z" fill="black"/>
<path d="M222.203 237.61C222.201 241.249 223.594 244.75 226.096 247.39C228.597 250.031 232.016 251.611 235.648 251.804C239.28 251.997 242.847 250.788 245.614 248.427C248.381 246.065 250.136 242.732 250.519 239.113C250.901 235.495 249.881 231.868 247.669 228.98C245.457 226.092 242.221 224.163 238.63 223.592C235.038 223.02 231.364 223.85 228.366 225.909C225.368 227.968 223.273 231.1 222.515 234.658C222.307 235.628 222.203 236.618 222.203 237.61Z" fill="#FBBEBE"/>
<path d="M213.093 270.484L209.701 271.536C209.788 271.878 209.769 272.238 209.648 272.57C209.527 272.902 209.309 273.189 209.023 273.395C208.728 273.601 208.492 273.882 208.341 274.209C208.19 274.535 208.128 274.896 208.161 275.255C208.161 275.255 207.788 276.612 206.92 276.931C206.052 277.25 205.496 279.286 205.496 279.286L202.647 282.571C202.647 282.571 201.588 283.439 201.778 283.874C201.968 284.308 200.659 284.43 200.659 284.43L201.337 295.465L207.225 296.585L210.881 296.212L213.852 295.099L216.457 293.544L217.631 290.511L222.84 282.571L213.093 270.484Z" fill="#3F3D56"/>
<path d="M201.508 285.278C201.508 285.278 193.951 274.372 188.308 280.256C182.664 286.14 190.6 295.695 192.459 295.383C194.318 295.071 203.183 294.575 203.183 294.575L201.508 285.278Z" fill="#EE8E9E"/>
<path d="M219.31 280.562L185.929 263.516C185.416 263.254 184.786 263.458 184.524 263.972L171.508 289.486C171.246 290.001 171.449 290.63 171.963 290.892L205.344 307.938C205.858 308.201 206.487 307.997 206.749 307.483L219.765 281.968C220.028 281.454 219.824 280.824 219.31 280.562Z" fill="#3F3D56"/>
<path d="M216.204 282.078L186.582 266.951L175.188 289.286L204.81 304.413L216.204 282.078Z" fill="#0784A2"/>
<path d="M179.747 278.071C180.046 278.071 180.289 277.828 180.289 277.528C180.289 277.228 180.046 276.985 179.747 276.985C179.447 276.985 179.204 277.228 179.204 277.528C179.204 277.828 179.447 278.071 179.747 278.071Z" fill="#E6E8EC"/>
<path d="M211.811 294.867C212.31 294.867 212.714 294.463 212.714 293.965C212.714 293.466 212.31 293.062 211.811 293.062C211.313 293.062 210.909 293.466 210.909 293.965C210.909 294.463 211.313 294.867 211.811 294.867Z" fill="#E6E8EC"/>
<path d="M196.617 287.572C196.55 295.757 213.467 297.494 213.467 297.494L217.788 298.173L219.728 298.478L220.535 290.483C220.535 290.483 219.646 290.348 218.541 290.09C216.899 289.71 214.776 289.051 214.335 288.122C213.623 286.581 196.665 279.387 196.617 287.572Z" fill="#FBBEBE"/>
<path opacity="0.1" d="M222.515 234.657C222.904 234.686 223.27 234.849 223.552 235.119C224.027 235.628 224.054 236.53 224.678 236.842C224.912 236.941 225.169 236.969 225.418 236.924C227.066 236.693 228.016 234.834 229.603 234.318C230.526 234.081 231.502 234.164 232.371 234.555C232.724 234.67 233.041 234.873 233.293 235.146C233.822 235.825 233.449 236.842 233.693 237.67C234.032 238.824 235.409 239.279 236.597 239.428C237.784 239.577 239.127 239.666 239.92 240.562C240.183 240.897 240.371 241.285 240.473 241.699C240.575 242.113 240.588 242.545 240.51 242.964C240.439 243.256 240.439 243.561 240.51 243.853C240.836 244.783 242.444 244.64 242.864 243.907C243.176 243.371 243.081 242.93 243.807 242.781C244.325 242.739 244.846 242.83 245.32 243.045C246.582 243.479 247.912 243.683 249.247 243.649C250.096 241.838 250.553 239.867 250.587 237.867C250.622 235.866 250.233 233.881 249.447 232.042C248.661 230.202 247.495 228.549 246.026 227.192C244.557 225.834 242.818 224.803 240.922 224.165C239.027 223.528 237.018 223.298 235.028 223.491C233.037 223.685 231.11 224.297 229.373 225.287C227.635 226.278 226.127 227.625 224.946 229.24C223.765 230.854 222.939 232.701 222.521 234.657H222.515Z" fill="black"/>
<path d="M240.504 243.481C240.433 243.189 240.433 242.884 240.504 242.592C240.582 242.173 240.569 241.743 240.468 241.33C240.366 240.917 240.177 240.531 239.914 240.196C239.121 239.294 237.784 239.212 236.59 239.056C235.397 238.9 234.026 238.452 233.687 237.298C233.443 236.47 233.816 235.459 233.287 234.781C233.039 234.503 232.72 234.299 232.365 234.19C231.496 233.797 230.521 233.711 229.597 233.946C228.01 234.462 227.06 236.321 225.412 236.552C225.163 236.6 224.905 236.572 224.672 236.47C224.048 236.158 223.994 235.256 223.546 234.747C222.794 233.953 221.362 234.468 220.447 233.878C219.891 233.414 219.532 232.757 219.443 232.039C219.032 230.708 218.94 229.299 219.171 227.926C219.707 225.626 221.769 224.044 223.078 222.069C224.306 220.237 224.998 217.916 226.836 216.701C228.675 215.486 231.042 215.758 233.124 216.375C234.082 216.717 235.067 216.976 236.068 217.149C237.744 217.353 239.426 216.898 241.108 216.844C243.492 216.767 245.835 217.483 247.769 218.88C248.205 219.164 248.575 219.539 248.854 219.979C249.134 220.603 249.3 221.272 249.343 221.954C249.541 223.235 249.986 224.466 250.652 225.578C251.168 226.453 251.825 227.241 252.294 228.143C252.817 229.028 252.977 230.081 252.741 231.082C252.578 231.591 252.266 232.052 252.144 232.575C251.873 233.783 252.667 234.943 253.209 236.056C253.737 237.075 253.988 238.215 253.935 239.361C253.906 239.933 253.759 240.492 253.504 241.003C253.248 241.515 252.889 241.968 252.45 242.334C251.528 242.973 250.43 243.308 249.309 243.291C247.949 243.332 246.594 243.128 245.307 242.687C244.832 242.475 244.313 242.384 243.794 242.422C243.068 242.571 243.163 243.013 242.851 243.549C242.438 244.268 240.837 244.411 240.504 243.481Z" fill="#3F3D56"/>
<path opacity="0.1" d="M232.859 323.528L240.856 317.271L253.432 304.872L249.281 304.682C248.794 305.123 248.483 305.725 248.406 306.378C248.345 307.892 245.014 306.48 243.271 307.349C241.528 308.217 233.049 319.089 231.563 319.015C230.078 318.94 228.898 318.261 228.274 319.313L228.233 319.381C227.985 319.667 227.652 319.864 227.283 319.945L232.859 323.528Z" fill="black"/>
<path d="M216.749 323.093L220.765 335.927L221.395 337.963L223.308 337.44L227.527 336.28L246.303 331.122C248.668 331.019 250.983 330.403 253.086 329.317C256.636 327.327 260.698 326.441 264.753 326.772C267.236 327.002 269.997 325.93 272.29 321.695C272.29 321.695 277.492 306.324 264.36 301.919C251.228 297.515 250.597 304.261 250.597 304.261L250.414 304.369C249.905 304.695 248.481 305.727 248.426 306.962C248.365 308.475 245.035 307.07 243.292 307.932C241.548 308.794 233.069 319.673 231.584 319.598C230.098 319.524 228.918 318.845 228.294 319.904L228.253 319.972C227.792 320.603 226.415 320.752 225.499 320.772C225.215 320.787 224.929 320.787 224.645 320.772L224.523 320.806L223.573 321.091L216.749 323.093Z" fill="#65617D"/>
<path opacity="0.1" d="M217.787 298.18L219.727 298.485L220.534 290.491C220.534 290.491 219.646 290.355 218.54 290.097C218.832 291.217 218.167 295.526 217.787 298.18Z" fill="black"/>
<path opacity="0.1" d="M268.458 260.813C268.458 260.813 274.217 259.137 272.792 275.506C271.803 285.497 267.558 294.885 260.711 302.225C260.711 302.225 248.441 307.613 242.926 306.745C237.411 305.876 233.389 305.693 233.389 305.693C231.651 304.815 229.75 304.309 227.806 304.207C224.713 304.084 218.208 302.171 218.079 301.539C217.95 300.908 219.694 291.808 218.947 291.129C218.947 291.129 227.623 291.482 228.491 292.106C229.36 292.73 230.601 292.289 231.53 292.106C232.459 291.923 235.308 289.453 240.945 291.624C240.945 291.624 242.865 291.808 243.611 291.312C244.219 291.029 244.912 290.985 245.551 291.19C246.033 291.03 246.49 290.801 246.908 290.511C247.091 290.267 248.583 290.511 248.583 290.511C248.672 290.551 248.768 290.571 248.865 290.57C248.963 290.57 249.059 290.548 249.147 290.507C249.235 290.465 249.313 290.406 249.376 290.332C249.439 290.257 249.486 290.171 249.512 290.077C249.708 289.571 250.004 289.11 250.381 288.72C250.381 288.72 252.049 279.3 255.21 275.764C255.463 275.544 255.656 275.264 255.775 274.95C255.893 274.636 255.932 274.298 255.888 273.966C255.631 272.961 261.023 258.825 268.458 260.813Z" fill="black"/>
<path d="M268.302 259.551C268.302 259.551 274.067 257.881 272.643 274.244C271.657 284.235 267.411 293.624 260.562 300.962C260.562 300.962 248.291 306.358 242.777 305.489C237.262 304.62 233.233 304.417 233.233 304.417C231.498 303.538 229.599 303.032 227.657 302.93C224.557 302.801 218.052 300.894 217.93 300.263C217.808 299.632 219.538 290.531 218.798 289.846C218.798 289.846 227.474 290.206 228.342 290.83C229.21 291.454 230.445 291.006 231.374 290.83C232.304 290.654 235.152 288.177 240.796 290.341C240.796 290.341 242.716 290.531 243.455 290.036C244.064 289.755 244.755 289.709 245.395 289.907C245.876 289.743 246.332 289.515 246.752 289.228C246.935 288.977 248.42 289.228 248.42 289.228C248.509 289.268 248.605 289.288 248.703 289.287C248.8 289.287 248.896 289.265 248.984 289.224C249.072 289.182 249.151 289.123 249.214 289.049C249.277 288.975 249.323 288.888 249.35 288.794C249.546 288.288 249.841 287.827 250.218 287.437C250.218 287.437 251.893 278.017 255.054 274.481C255.307 274.261 255.501 273.981 255.619 273.667C255.737 273.353 255.776 273.015 255.733 272.683C255.482 271.706 260.867 257.59 268.302 259.551Z" fill="#3F3D56"/>
<path opacity="0.1" d="M223.553 321.057L231.733 330.965L231.787 330.911C231.849 330.721 232.656 328.617 232.466 328.488C232.276 328.359 230.858 325.264 228.009 323.961C226.56 323.254 225.343 322.148 224.502 320.771L223.553 321.057Z" fill="black"/>
<path opacity="0.1" d="M223.661 338.207L224.556 338.716C224.556 338.716 226.632 337.053 228.701 335.377C230.77 333.7 232.771 332.058 232.771 331.983C232.771 331.909 233.639 329.689 233.449 329.567C233.259 329.445 232.927 328.644 232.14 327.647C226.591 326.093 230.105 329.947 230.593 330.124C230.593 330.124 223.844 328.57 223.471 335.933C223.439 336.696 223.503 337.46 223.661 338.207Z" fill="black"/>
<path d="M230.506 341.322L231.686 342.001L243.645 342.306C244.985 343.122 246.403 343.804 247.877 344.342C248.073 344.4 248.272 344.444 248.474 344.471C249.584 344.562 250.699 344.582 251.811 344.532C252.727 344.532 253.433 344.471 253.433 344.471C253.433 344.471 252.87 329.385 252.442 327.797C252.239 327.037 251.235 327.199 250.245 327.579C249.502 327.883 248.785 328.247 248.101 328.665C248.101 328.665 243.027 329.161 242.22 329.595C241.413 330.029 239.12 329.344 237.696 329.595C236.271 329.846 233.728 327.919 233.728 327.919C226.788 325.625 230.696 329.9 231.191 330.09C231.191 330.09 224.408 328.536 224.062 335.9C223.716 343.263 230.506 341.322 230.506 341.322Z" fill="#3F3D56"/>
<path d="M247.796 335.498C247.925 338.62 250.36 342.495 251.812 344.545C252.728 344.545 253.433 344.484 253.433 344.484C253.433 344.484 252.87 329.397 252.443 327.809C252.239 327.049 251.235 327.212 250.245 327.592C249.044 329.845 247.688 332.974 247.796 335.498Z" fill="#565387"/>
<path opacity="0.1" d="M247.796 335.498C247.925 338.62 250.36 342.495 251.812 344.545C252.728 344.545 253.433 344.484 253.433 344.484C253.433 344.484 252.87 329.397 252.443 327.809C252.239 327.049 251.235 327.212 250.245 327.592C249.044 329.845 247.688 332.974 247.796 335.498Z" fill="black"/>
<path opacity="0.05" d="M245.747 335.912C246.575 338.926 246.561 342.305 247.877 344.355C248.073 344.413 248.272 344.456 248.474 344.484C249.584 344.574 250.699 344.595 251.812 344.545C252.727 344.545 253.433 344.484 253.433 344.484C253.433 344.484 252.87 329.397 252.442 327.809C252.239 327.049 251.235 327.212 250.245 327.592C249.502 327.896 248.785 328.259 248.101 328.678C248.101 328.678 244.696 332.051 245.747 335.912Z" fill="black"/>
<path opacity="0.1" d="M204.492 305.326C204.492 305.326 210.434 307.253 215.467 314.107L204.492 305.326Z" fill="black"/>
<g opacity="0.1">
<path opacity="0.1" d="M252.761 230.932C252.761 230.979 252.761 231.02 252.727 231.067C252.67 231.244 252.599 231.417 252.517 231.583C252.582 231.36 252.664 231.143 252.761 230.932Z" fill="black"/>
<path opacity="0.1" d="M219.157 227.925C219.258 227.491 219.413 227.071 219.618 226.676C219.618 226.778 219.551 226.887 219.523 226.995C219.297 228.369 219.393 229.777 219.802 231.108C219.891 231.824 220.247 232.481 220.799 232.947C221.721 233.537 223.152 233.022 223.905 233.816C224.38 234.325 224.407 235.227 225.031 235.539C225.264 235.641 225.522 235.67 225.771 235.621C227.419 235.39 228.369 233.531 229.956 233.015C230.879 232.777 231.856 232.863 232.723 233.259C233.079 233.368 233.398 233.572 233.646 233.85C234.175 234.528 233.802 235.539 234.046 236.367C234.385 237.521 235.762 237.976 236.949 238.125C238.136 238.274 239.479 238.363 240.273 239.265C240.536 239.6 240.725 239.986 240.826 240.399C240.928 240.812 240.941 241.242 240.863 241.661C240.792 241.953 240.792 242.258 240.863 242.55C241.189 243.48 242.796 243.337 243.217 242.604C243.529 242.068 243.434 241.627 244.16 241.478C244.678 241.44 245.198 241.531 245.673 241.742C246.959 242.183 248.315 242.388 249.675 242.346C250.796 242.363 251.894 242.029 252.815 241.389C253.218 241.073 253.547 240.672 253.778 240.215C253.569 241.046 253.092 241.786 252.422 242.319C251.501 242.959 250.402 243.293 249.281 243.276C247.922 243.317 246.566 243.113 245.279 242.672C244.804 242.46 244.285 242.37 243.766 242.407C243.041 242.557 243.136 242.998 242.83 243.534C242.403 244.267 240.795 244.409 240.47 243.48C240.402 243.187 240.402 242.883 240.47 242.591C240.547 242.172 240.535 241.742 240.433 241.329C240.331 240.916 240.143 240.529 239.88 240.195C239.086 239.292 237.75 239.211 236.556 239.055C235.362 238.899 233.992 238.451 233.653 237.297C233.409 236.469 233.782 235.458 233.253 234.779C233.007 234.503 232.69 234.299 232.337 234.189C231.466 233.796 230.488 233.71 229.563 233.945C227.982 234.46 227.026 236.32 225.377 236.551C225.128 236.599 224.87 236.571 224.638 236.469C224.014 236.157 223.96 235.254 223.512 234.745C222.759 233.951 221.335 234.467 220.412 233.877C219.857 233.413 219.498 232.756 219.408 232.038C219.005 230.705 218.919 229.297 219.157 227.925Z" fill="black"/>
</g>
<path opacity="0.1" d="M253.724 277.548C252.584 279.082 251.289 280.5 250.285 282.115C249.194 283.708 248.665 285.618 248.779 287.544C249.817 286.479 250.298 284.999 250.95 283.663C252.062 281.396 253.717 279.475 255.121 277.399C255.386 276.998 257.095 274.684 256.234 274.589C255.515 274.487 254.111 277.025 253.724 277.548Z" fill="black"/>
<path d="M259.829 422.759C260.65 425.393 261.477 428.032 262.501 430.591C264.347 435.039 266.669 439.274 269.427 443.221C271.205 445.819 273.116 448.325 275.152 450.727C277.702 453.733 280.578 456.76 281.447 460.601C281.969 462.82 281.793 465.134 282.01 467.387C282.227 469.641 282.966 472.057 284.804 473.414C286.114 474.384 287.789 474.676 289.397 474.927C290.55 475.111 291.988 475.172 292.585 474.174C292.793 473.766 292.903 473.315 292.903 472.857L293.182 469.539C293.236 468.819 293.494 467.903 294.213 467.869C294.932 467.835 295.291 468.792 295.902 469.227C296.716 469.797 297.937 469.227 298.384 468.365C298.756 467.432 298.78 466.396 298.452 465.447C297.958 463.558 297.07 461.795 295.846 460.274C294.622 458.753 293.09 457.509 291.35 456.624C290.142 456.137 288.984 455.534 287.891 454.826C286.781 453.86 285.86 452.695 285.177 451.392C278.883 441.022 272.554 430.598 268.111 419.312C267.236 417.295 266.644 415.166 266.354 412.987C266.137 410.768 266.483 408.535 266.626 406.309C266.888 402.31 266.518 398.295 265.527 394.412C265.31 393.393 264.927 392.416 264.394 391.521C262.562 388.745 258.289 388.331 255.576 390.245C254.577 391.014 253.748 391.983 253.144 393.089C252.539 394.195 252.17 395.416 252.062 396.672C251.865 398.925 253.161 401.26 253.819 403.357C255.813 409.831 257.816 416.299 259.829 422.759Z" fill="#F4B4B4"/>
<path opacity="0.05" d="M259.829 422.759C260.65 425.393 261.477 428.032 262.501 430.591C264.347 435.039 266.669 439.274 269.427 443.221C271.205 445.819 273.116 448.325 275.152 450.727C277.702 453.733 280.578 456.76 281.447 460.601C281.969 462.82 281.793 465.134 282.01 467.387C282.227 469.641 282.966 472.057 284.804 473.414C286.114 474.384 287.789 474.676 289.397 474.927C290.55 475.111 291.988 475.172 292.585 474.174C292.793 473.766 292.903 473.315 292.903 472.857L293.182 469.539C293.236 468.819 293.494 467.903 294.213 467.869C294.932 467.835 295.291 468.792 295.902 469.227C296.716 469.797 297.937 469.227 298.384 468.365C298.756 467.432 298.78 466.396 298.452 465.447C297.958 463.558 297.07 461.795 295.846 460.274C294.622 458.753 293.09 457.509 291.35 456.624C290.142 456.137 288.984 455.534 287.891 454.826C286.781 453.86 285.86 452.695 285.177 451.392C278.883 441.022 272.554 430.598 268.111 419.312C267.236 417.295 266.644 415.166 266.354 412.987C266.137 410.768 266.483 408.535 266.626 406.309C266.888 402.31 266.518 398.295 265.527 394.412C265.31 393.393 264.927 392.416 264.394 391.521C262.562 388.745 258.289 388.331 255.576 390.245C254.577 391.014 253.748 391.983 253.144 393.089C252.539 394.195 252.17 395.416 252.062 396.672C251.865 398.925 253.161 401.26 253.819 403.357C255.813 409.831 257.816 416.299 259.829 422.759Z" fill="black"/>
<path d="M220.283 533.638C221.511 534.065 222.815 534.222 224.109 534.099C224.204 533.04 225.628 532.803 226.687 532.857C227.198 532.84 227.706 532.957 228.159 533.196C228.423 533.366 228.627 533.61 228.884 533.787C229.344 534.039 229.859 534.172 230.383 534.174L235.891 534.635C238.347 534.845 240.904 535.036 243.204 534.16C243.662 534.015 244.069 533.742 244.377 533.373C245.001 532.477 244.377 531.194 243.516 530.543C242.654 529.891 241.542 529.6 240.673 528.934C238.761 527.475 238.496 524.747 237.485 522.562C236.767 521.184 235.881 519.901 234.847 518.741C234.098 517.745 233.225 516.849 232.249 516.074C230.037 514.479 227.501 514.513 224.903 514.282C223.071 514.12 221.348 514.011 220.032 515.64C218.404 517.676 219.056 521.748 219.157 524.123C219.284 527.319 219.661 530.5 220.283 533.638Z" fill="#514E7F"/>
<path opacity="0.05" d="M220.283 533.638C221.511 534.065 222.815 534.222 224.109 534.099C224.204 533.04 225.628 532.803 226.687 532.857C227.198 532.84 227.706 532.957 228.159 533.196C228.423 533.366 228.627 533.61 228.884 533.787C229.344 534.039 229.859 534.172 230.383 534.174L235.891 534.635C238.347 534.845 240.904 535.036 243.204 534.16C243.662 534.015 244.069 533.742 244.377 533.373C245.001 532.477 244.377 531.194 243.516 530.543C242.654 529.891 241.542 529.6 240.673 528.934C238.761 527.475 238.496 524.747 237.485 522.562C236.767 521.184 235.881 519.901 234.847 518.741C234.098 517.745 233.225 516.849 232.249 516.074C230.037 514.479 227.501 514.513 224.903 514.282C223.071 514.12 221.348 514.011 220.032 515.64C218.404 517.676 219.056 521.748 219.157 524.123C219.284 527.319 219.661 530.5 220.283 533.638Z" fill="black"/>
<path d="M222.508 426.445C220.826 426.988 220.093 429.085 220.405 430.829C220.717 432.573 221.762 434.08 222.623 435.627C225.079 440.018 226.137 445.04 228.199 449.621C229.739 453.014 231.821 456.204 233.341 459.638C234.86 463.071 235.803 466.947 234.88 470.591C234.433 472.362 233.564 473.984 232.988 475.728C232.417 477.619 232.044 479.563 231.875 481.531C231.128 488.214 230.994 494.952 231.475 501.66C231.479 502.477 231.65 503.286 231.977 504.035C232.323 504.714 232.92 505.392 232.655 506.071C232.54 506.349 232.289 506.553 232.167 506.824C231.814 507.584 232.52 508.392 233.164 508.935C233.049 509.139 232.894 509.318 232.709 509.461C232.524 509.604 232.312 509.709 232.086 509.77C232.548 510.064 232.903 510.499 233.099 511.012C233.294 511.524 233.319 512.085 233.171 512.613C232.601 512.701 232.567 513.577 232.927 514.038C233.286 514.5 233.856 514.785 234.114 515.307C234.266 515.733 234.249 516.201 234.067 516.614C233.886 517.028 233.553 517.357 233.137 517.533C232.29 517.86 231.365 517.93 230.478 517.737C228.974 517.527 227.488 517.201 226.035 516.76C225.275 516.61 224.595 516.192 224.119 515.581C223.643 514.97 223.403 514.208 223.444 513.434C223.108 510.672 223.006 507.886 223.139 505.107C223.376 491.643 223.139 478.165 222.555 464.707C222.318 459.278 220.69 454.018 218.594 449.023C217.435 446.471 216.147 443.979 214.734 441.558C211.709 436.02 209.037 429.885 209.728 423.608C209.803 422.929 210.047 422.122 210.719 422.013C210.981 421.985 211.246 422.029 211.485 422.142C212.879 422.793 214.227 423.537 215.521 424.368C217.648 425.616 220.045 426.328 222.508 426.445Z" fill="#464353"/>
<path opacity="0.05" d="M222.508 426.445C220.826 426.988 220.093 429.085 220.405 430.829C220.717 432.573 221.762 434.08 222.623 435.627C225.079 440.018 226.137 445.04 228.199 449.621C229.739 453.014 231.821 456.204 233.341 459.638C234.86 463.071 235.803 466.947 234.88 470.591C234.433 472.362 233.564 473.984 232.988 475.728C232.417 477.619 232.044 479.563 231.875 481.531C231.128 488.214 230.994 494.952 231.475 501.66C231.479 502.477 231.65 503.286 231.977 504.035C232.323 504.714 232.92 505.392 232.655 506.071C232.54 506.349 232.289 506.553 232.167 506.824C231.814 507.584 232.52 508.392 233.164 508.935C233.049 509.139 232.894 509.318 232.709 509.461C232.524 509.604 232.312 509.709 232.086 509.77C232.548 510.064 232.903 510.499 233.099 511.012C233.294 511.524 233.319 512.085 233.171 512.613C232.601 512.701 232.567 513.577 232.927 514.038C233.286 514.5 233.856 514.785 234.114 515.307C234.266 515.733 234.249 516.201 234.067 516.614C233.886 517.028 233.553 517.357 233.137 517.533C232.29 517.86 231.365 517.93 230.478 517.737C228.974 517.527 227.488 517.201 226.035 516.76C225.275 516.61 224.595 516.192 224.119 515.581C223.643 514.97 223.403 514.208 223.444 513.434C223.108 510.672 223.006 507.886 223.139 505.107C223.376 491.643 223.139 478.165 222.555 464.707C222.318 459.278 220.69 454.018 218.594 449.023C217.435 446.471 216.147 443.979 214.734 441.558C211.709 436.02 209.037 429.885 209.728 423.608C209.803 422.929 210.047 422.122 210.719 422.013C210.981 421.985 211.246 422.029 211.485 422.142C212.879 422.793 214.227 423.537 215.521 424.368C217.648 425.616 220.045 426.328 222.508 426.445Z" fill="black"/>
<path d="M199.764 410.076C198.887 409.512 197.875 409.194 196.834 409.153C195.626 409.214 194.595 410.008 193.653 410.768C192.535 411.626 191.475 412.555 190.478 413.55C188.414 415.752 186.975 418.466 186.312 421.411C185.649 424.356 185.785 427.425 186.707 430.3C187.704 433.292 189.528 435.932 191.333 438.518L194.996 443.784C200.585 451.813 206.174 459.841 212.028 467.68C212.029 467.873 212.092 468.06 212.206 468.215C212.321 468.37 212.482 468.484 212.666 468.542C212.876 468.596 213.141 468.589 213.269 468.766C213.329 468.876 213.355 469.001 213.344 469.125C213.331 469.705 213.221 470.279 213.018 470.822C212.923 471.001 212.899 471.209 212.951 471.406C213.141 471.847 213.941 471.596 214.199 472.01C214.368 472.281 214.158 472.634 213.934 472.865C213.71 473.095 213.432 473.353 213.473 473.672C213.514 473.991 214.07 474.351 214.049 474.745C214.049 474.975 213.846 475.152 213.704 475.335C213.504 475.627 213.413 475.98 213.447 476.332C213.48 476.684 213.636 477.013 213.887 477.262C214.273 481.09 212.191 484.728 211.777 488.542C211.099 494.568 213.846 500.452 214.178 506.499C214.158 507.179 214.288 507.856 214.558 508.48C215.121 509.525 216.593 510.157 216.519 511.344C216.412 511.832 216.274 512.313 216.105 512.783C215.989 513.462 216.315 514.14 216.329 514.819C216.342 515.498 215.738 516.332 215.101 516.061C215.58 517.662 216.008 519.278 216.383 520.906L229.203 521.965C229.341 520.812 229.302 519.645 229.088 518.504C228.823 517.262 228.267 516.108 227.975 514.88C227.786 514.275 227.732 513.636 227.819 513.008C227.906 512.381 228.131 511.78 228.477 511.249C228.143 511.253 227.818 511.139 227.56 510.927C227.302 510.714 227.127 510.418 227.066 510.089C226.959 509.427 226.971 508.751 227.1 508.093C227.439 504.748 226.035 501.45 226.076 498.09C226.117 495.443 227.046 492.898 227.514 490.299C228.518 484.734 227.473 478.701 229.949 473.618C231.448 470.557 233.524 467.164 231.842 464.198C231.014 462.732 229.549 461.728 228.593 460.344C227.813 459.035 227.228 457.62 226.856 456.143C224.882 450.035 221.687 444.361 218.886 438.552C218.108 437.096 217.531 435.541 217.17 433.93C216.972 432.517 216.899 431.088 216.953 429.662C216.953 427.101 216.796 424.542 216.485 422C216.421 420.886 216.103 419.802 215.555 418.83C215.002 418.096 214.311 417.476 213.52 417.005C209.315 414.121 204.309 412.471 199.764 410.076Z" fill="#464353"/>
<path d="M215.128 538.34C216.359 538.762 217.665 538.917 218.961 538.795C219.056 537.736 220.473 537.499 221.531 537.553C222.043 537.536 222.551 537.653 223.003 537.893C223.268 538.062 223.471 538.313 223.736 538.483C224.194 538.738 224.711 538.871 225.235 538.87L230.736 539.331C233.198 539.542 235.749 539.739 238.055 538.856C238.513 538.713 238.918 538.44 239.222 538.069C239.846 537.173 239.222 535.897 238.36 535.246C237.499 534.594 236.387 534.296 235.525 533.631C233.605 532.172 233.348 529.45 232.33 527.265C231.618 525.883 230.734 524.597 229.698 523.437C228.947 522.443 228.071 521.549 227.094 520.777C224.889 519.175 222.345 519.209 219.754 518.979C217.916 518.816 216.193 518.714 214.884 520.336C213.256 522.372 213.907 526.444 214.002 528.826C214.13 532.022 214.506 535.203 215.128 538.34Z" fill="#514E7F"/>
<path d="M271.951 387.863C278.964 387.863 284.649 382.175 284.649 375.158C284.649 368.142 278.964 362.454 271.951 362.454C264.938 362.454 259.253 368.142 259.253 375.158C259.253 382.175 264.938 387.863 271.951 387.863Z" fill="#F4B4B4"/>
<path d="M259.972 378.932C258.154 380.499 255.542 380.615 253.155 380.859C248.049 381.384 243.079 382.823 238.483 385.107C237.846 385.382 237.27 385.778 236.787 386.275C236.374 386.813 236.081 387.433 235.925 388.094C235.489 389.523 235.325 391.022 235.444 392.512C235.61 393.957 236.025 395.362 236.671 396.665C238.434 400.315 241.153 403.418 244.54 405.643C245.137 406.088 245.814 406.413 246.534 406.6C248.203 406.947 249.817 405.983 251.466 405.549C252.965 405.157 254.545 405.207 256.017 405.691C257.374 406.152 258.859 406.994 260.202 406.431C261.062 405.95 261.73 405.188 262.095 404.273C263.392 401.82 264.549 399.296 265.561 396.712C265.924 395.704 266.343 394.716 266.816 393.754C268.288 390.951 270.831 388.786 272.1 385.874C272.229 385.652 272.306 385.404 272.328 385.148C272.349 384.892 272.313 384.635 272.222 384.395C271.987 384.07 271.661 383.822 271.286 383.682C269.41 382.608 267.701 381.266 266.212 379.699C265.378 378.898 263.845 376.733 262.644 376.543C261.294 376.312 260.887 378.144 259.972 378.932Z" fill="#F4B4B4"/>
<path d="M260.27 404.748C258.798 405.427 257.061 405.135 255.467 404.802C251.356 403.94 247.198 403.072 243.393 401.294C242.204 400.838 241.174 400.046 240.429 399.013C239.966 398.13 239.685 397.163 239.601 396.17L238.923 391.419C238.679 389.77 239.099 388.243 239.14 386.574C239.166 386.389 239.155 386.2 239.107 386.02C239.059 385.839 238.976 385.67 238.862 385.522C238.63 385.327 238.33 385.231 238.028 385.257C236.122 385.291 234.968 387.293 233.632 388.65C232.86 389.434 231.937 390.052 230.919 390.469C229.698 390.971 228.206 391.324 227.697 392.546C227.493 393.055 227.52 393.632 227.303 394.141C226.449 396.177 222.806 395.498 221.877 397.534C221.612 398.104 221.633 398.817 221.199 399.264C220.764 399.712 219.95 399.706 219.279 399.814C216.627 400.248 215.345 403.309 213.079 404.755C211.173 405.976 208.718 405.949 206.662 406.899C205.523 407.429 204.512 408.257 203.305 408.603C202.097 408.949 200.734 408.766 199.438 408.799C199.3 408.786 199.161 408.802 199.029 408.845C198.897 408.888 198.775 408.958 198.672 409.051C198.591 409.173 198.538 409.312 198.516 409.457C198.493 409.603 198.503 409.751 198.543 409.892C199.171 413.905 200.833 417.685 203.365 420.86C205.898 424.035 209.213 426.495 212.984 427.998C213.422 428.138 213.838 428.339 214.219 428.596C215.372 429.458 215.575 431.31 216.884 431.921C217.357 432.087 217.866 432.12 218.356 432.014C218.846 431.909 219.296 431.67 219.659 431.324C220.381 430.628 221.061 429.889 221.694 429.111C222.889 427.862 224.458 427.036 226.164 426.757C227.738 426.505 229.494 426.689 230.77 425.718C231.291 425.239 231.776 424.722 232.221 424.171C233.166 423.289 234.287 422.618 235.511 422.203C238.854 420.881 242.388 420.104 245.977 419.902C249.322 419.719 252.761 420.024 255.922 418.939C256.742 418.684 257.499 418.256 258.14 417.683C258.819 416.948 259.325 416.068 259.618 415.111C260.759 411.777 260.984 408.198 260.27 404.748Z" fill="#FFB518"/>
<path d="M243.902 386.024C244.838 385.936 245.781 386.024 246.724 386.024C247.829 386.024 248.922 385.753 250.027 385.746C251.778 385.775 253.474 386.362 254.868 387.423C256.261 388.484 257.279 389.963 257.774 391.644C257.867 391.912 257.883 392.201 257.821 392.478C257.785 392.615 257.7 392.734 257.583 392.814C257.466 392.894 257.324 392.929 257.183 392.913C256.816 391.909 256.336 390.95 255.752 390.056C254.701 388.62 253.202 387.574 251.492 387.083C249.787 386.6 247.991 386.535 246.256 386.893C245.53 387.029 244.824 387.219 244.119 387.416L240.727 388.352C240.103 388.522 239.473 388.691 238.869 388.915C238.401 389.092 237.6 389.737 237.139 389.764C236.515 389.764 237.017 389.221 237.295 388.854C237.849 388.099 238.624 387.534 239.513 387.239C240.923 386.662 242.396 386.254 243.902 386.024Z" fill="#FFB518"/>
<path d="M252.462 424.185C253.283 426.818 254.104 429.458 255.135 432.017C256.978 436.466 259.3 440.701 262.061 444.646C263.839 447.245 265.75 449.75 267.786 452.152C270.329 455.159 273.171 458.186 274.08 462.02C274.603 464.246 274.426 466.56 274.643 468.806C274.86 471.053 275.6 473.476 277.431 474.833C278.747 475.797 280.423 476.088 282.03 476.346C283.177 476.53 284.615 476.591 285.218 475.593C285.423 475.184 285.532 474.734 285.537 474.276L285.808 470.958C285.869 470.238 286.127 469.322 286.839 469.288C287.552 469.254 287.925 470.211 288.535 470.646C289.349 471.216 290.57 470.646 291.018 469.784C291.387 468.85 291.411 467.815 291.086 466.866C290.589 464.978 289.7 463.216 288.476 461.696C287.253 460.175 285.722 458.931 283.984 458.043C282.774 457.554 281.614 456.952 280.518 456.245C279.405 455.278 278.485 454.111 277.804 452.804C271.503 442.441 265.174 432.017 260.738 420.724C259.863 418.709 259.269 416.583 258.974 414.406C258.764 412.187 259.103 409.954 259.252 407.728C259.515 403.729 259.144 399.714 258.153 395.831C257.937 394.811 257.552 393.833 257.014 392.94C255.189 390.158 250.909 389.75 248.196 391.664C247.196 392.433 246.366 393.401 245.76 394.507C245.154 395.614 244.785 396.834 244.675 398.091C244.479 400.344 245.781 402.679 246.432 404.776C248.435 411.255 250.446 417.724 252.462 424.185Z" fill="#F4B4B4"/>
<path d="M290.421 366.174C290.523 365.115 289.573 364.138 288.494 363.459C287.358 362.877 286.268 362.21 285.232 361.464C284.268 360.629 283.739 359.543 282.776 358.709C281.681 357.875 280.438 357.255 279.113 356.883C276.295 355.894 273.336 355.365 270.349 355.315C267.331 355.315 264.245 355.994 261.972 357.535C261.412 357.887 260.927 358.349 260.548 358.892C260.189 359.543 259.959 360.258 259.869 360.996C259.328 363.273 258.595 365.5 257.678 367.653C256.736 370.049 255.732 372.533 253.514 374.386C251.139 376.36 247.511 377.501 245.944 379.889C245.77 380.102 245.649 380.351 245.589 380.619C245.529 380.886 245.532 381.164 245.598 381.43C245.822 382.034 246.541 382.448 247.205 382.828C251.058 385.04 254.382 387.911 256.091 391.338C257.801 394.765 257.753 398.803 255.318 401.959C254.423 403.126 253.188 404.511 254.063 405.685C255.42 407.47 259.958 406.445 261.016 408.332C261.348 408.936 261.151 409.621 261.151 410.279C261.151 412.261 263.058 414.019 265.371 414.935C267.684 415.851 270.363 416.068 272.968 416.184C273.659 414.629 273.727 412.867 273.158 411.263C272.984 410.917 272.916 410.528 272.961 410.144C273.155 409.717 273.457 409.347 273.836 409.071C276.617 406.438 276.027 402.57 274.358 399.441C272.69 396.313 270.085 393.456 269.115 390.164C268.633 388.529 268.633 386.689 269.929 385.332C270.673 384.679 271.474 384.096 272.323 383.588C273.841 382.558 275.009 381.09 275.674 379.38C276.454 377.216 276.353 374.63 278.618 373.171C280.795 371.813 283.855 372.207 286.263 371.277C288.115 370.544 290.272 367.728 290.421 366.174Z" fill="#464353"/>
<defs>
<linearGradient id="paint0_linear" x1="234.582" y1="344.103" x2="234.582" y2="214.549" gradientUnits="userSpaceOnUse">
<stop stop-color="#808080" stop-opacity="0.25"/>
<stop offset="0.54" stop-color="#808080" stop-opacity="0.12"/>
<stop offset="1" stop-color="#808080" stop-opacity="0.1"/>
</linearGradient>
</defs>
</svg>
