<svg width="120" height="120" viewBox="0 0 120 120" fill="none" xmlns="http://www.w3.org/2000/svg">
<path d="M56.0763 56.5625C54.8257 56.5625 53.8107 57.5775 53.8107 58.8281C53.8107 60.0788 54.8257 61.0938 56.0763 61.0938C57.327 61.0938 58.3419 60.0788 58.3419 58.8281C58.3419 57.5775 57.327 56.5625 56.0763 56.5625Z" fill="#004290"/>
<path d="M47.0138 42.9688C45.7632 42.9688 44.7482 43.9837 44.7482 45.2344C44.7482 46.485 45.7632 47.5 47.0138 47.5C48.2645 47.5 49.2794 46.485 49.2794 45.2344C49.2794 43.9837 48.2645 42.9688 47.0138 42.9688Z" fill="#004290"/>
<path d="M19.8263 101.875C18.5757 101.875 17.5607 102.89 17.5607 104.141C17.5607 105.391 18.5757 106.406 19.8263 106.406C21.077 106.406 22.0919 105.391 22.0919 104.141C22.0919 102.89 21.077 101.875 19.8263 101.875Z" fill="#004290"/>
<path d="M91.9675 96.3645L62.8732 44.641V17.2054C65.5106 16.2704 67.4045 13.7508 67.4045 10.7969C67.4045 7.04908 64.3554 4 60.6076 4H33.4201C29.6723 4 26.6232 7.04908 26.6232 10.7969C26.6232 13.7508 28.517 16.2704 31.1545 17.2054V44.641L2.0602 96.3645C-0.732864 101.33 -0.683247 107.23 2.19251 112.148C5.06804 117.064 10.1856 120 15.8819 120H78.1458C83.842 120 88.9594 117.064 91.8352 112.148C94.7109 107.23 94.7605 101.33 91.9675 96.3645ZM35.3948 46.345C35.5856 46.006 35.6857 45.6234 35.6857 45.2344V17.5938H37.9513C39.2024 17.5938 40.217 16.5792 40.217 15.3281C40.217 14.077 39.2024 13.0625 37.9513 13.0625H33.4201C32.1708 13.0625 31.1545 12.0461 31.1545 10.7969C31.1545 9.54761 32.1708 8.53125 33.4201 8.53125H60.6076C61.8568 8.53125 62.8732 9.54761 62.8732 10.7969C62.8732 12.0461 61.8568 13.0625 60.6076 13.0625H56.0763C54.8253 13.0625 53.8107 14.077 53.8107 15.3281C53.8107 16.5792 54.8253 17.5938 56.0763 17.5938H58.342V45.2344C58.342 45.6236 58.4421 46.0058 58.6329 46.345L71.9867 70.0858C63.8316 69.4254 55.7048 71.0747 48.2382 74.941C38.6396 79.9082 27.9543 80.7827 17.8788 77.4846L35.3948 46.345ZM87.9235 109.86C85.8698 113.372 82.2144 115.469 78.1458 115.469H15.8819C11.8133 115.469 8.1579 113.372 6.10411 109.86C4.04987 106.348 4.0143 102.133 6.00964 98.5858L15.6177 81.5048C20.2795 83.1326 25.0971 83.9544 29.9901 83.9544C30.7145 83.9544 31.4406 83.9365 32.1681 83.9004C38.4903 83.5873 44.5978 81.9269 50.3212 78.965C57.9772 75.0011 66.3978 73.6326 74.7408 74.9818L88.0182 98.5858C90.0134 102.133 89.978 106.348 87.9235 109.86Z" fill="#004290"/>
<path d="M37.9513 56.5625C34.2035 56.5625 31.1544 59.6116 31.1544 63.3594C31.1544 67.1072 34.2035 70.1562 37.9513 70.1562C41.6991 70.1562 44.7482 67.1072 44.7482 63.3594C44.7482 59.6116 41.6991 56.5625 37.9513 56.5625ZM37.9513 65.625C36.7021 65.625 35.6857 64.6086 35.6857 63.3594C35.6857 62.1101 36.7021 61.0938 37.9513 61.0938C39.2006 61.0938 40.2169 62.1101 40.2169 63.3594C40.2169 64.6086 39.2006 65.625 37.9513 65.625Z" fill="#004290"/>
<path d="M74.2013 101.875H28.8888C27.6377 101.875 26.6232 102.89 26.6232 104.141C26.6232 105.392 27.6377 106.406 28.8888 106.406H74.2013C75.4524 106.406 76.4669 105.392 76.4669 104.141C76.4669 102.89 75.4524 101.875 74.2013 101.875Z" fill="#004290"/>
</svg>
