<svg width="120" height="120" viewBox="0 0 120 120" fill="none" xmlns="http://www.w3.org/2000/svg">
<g clip-path="url(#clip0)">
<path d="M108.011 80.5453L96.4712 60.4689L98.0312 59.5682C98.6715 59.1987 99.0179 58.4731 98.9031 57.743C98.7882 57.0129 98.2356 56.4287 97.5132 56.2735L93.573 55.4269L76.9104 26.438C72.0014 17.8978 64.3798 13 55.9998 13C47.62 13 39.9982 17.8978 35.0894 26.4377L29.8576 35.5397C29.3657 36.3954 29.6607 37.4879 30.5164 37.9797C31.3716 38.4713 32.4643 38.1768 32.9564 37.3209L38.1883 28.2189C42.4422 20.8184 48.9344 16.5742 55.9998 16.5742C63.0653 16.5742 69.5576 20.8186 73.8114 28.2189L88.8694 54.4159L78.0227 52.0851C77.1265 51.8923 76.2282 52.4103 75.9464 53.2839L72.5318 63.873L57.5489 37.8072C57.23 37.2525 56.6391 36.9108 55.9996 36.9108C55.36 36.9108 54.7689 37.2527 54.4503 37.8072L42.1766 59.1603C41.8346 59.7553 41.873 60.4646 42.2159 61.0072L28.5451 63.9449L24.2459 50.612C24.4136 50.6161 24.5821 50.5954 24.747 50.551C25.2052 50.4279 25.5957 50.1274 25.8321 49.7159L29.3943 43.5183C29.8861 42.6626 29.5912 41.5701 28.7355 41.0783C27.8803 40.5865 26.7876 40.8812 26.2955 41.7371L23.6251 46.3826L22.1154 45.511C21.4751 45.1414 20.6738 45.2038 20.0989 45.6687C19.5239 46.1331 19.2944 46.9037 19.521 47.6071L20.7432 51.3969L3.9886 80.5456C-0.912317 89.0716 -1.31548 98.1229 2.88251 105.378C7.08074 112.633 15.1288 116.794 24.9628 116.794H47.859L47.9855 118.686C48.0334 119.402 48.5048 120.019 49.1824 120.255C49.3742 120.321 49.5722 120.354 49.7681 120.354C50.2644 120.354 50.7489 120.147 51.0939 119.765L53.781 116.794H72.7398C73.7268 116.794 74.5269 115.994 74.5269 115.007C74.5269 114.02 73.7268 113.22 72.7398 113.22H57.0137L64.4663 104.98C65.0818 104.3 65.0818 103.263 64.4663 102.583L57.0139 94.3428H86.9574C87.5953 94.3428 88.1848 94.0028 88.5043 93.4507C88.8239 92.8986 88.8248 92.2181 88.507 91.6651L76.1391 70.1483C75.9025 69.7368 75.5122 69.4363 75.054 69.3131C74.8893 69.2688 74.7228 69.249 74.5529 69.2521L78.8521 55.9192L92.5232 58.8567C92.1803 59.3993 92.1419 60.1086 92.4838 60.7036L104.913 82.3264C109.161 89.7169 109.566 97.4664 106.024 103.588C102.482 109.709 95.5612 113.22 87.037 113.22H79.8887C78.9017 113.22 78.1016 114.02 78.1016 115.007C78.1016 115.994 78.9017 116.794 79.8887 116.794H87.037C96.871 116.794 104.919 112.633 109.117 105.378C113.315 98.1224 112.912 89.0714 108.011 80.5453ZM51.1866 114.334C50.9197 113.677 50.2756 113.22 49.5303 113.22H24.9628C16.4387 113.22 9.51833 109.709 5.97608 103.588C2.43407 97.4662 2.8389 89.7169 7.08717 82.3262L22.2245 55.9912L25.6391 66.58C25.9209 67.4536 26.8178 67.9718 27.7154 67.7788L38.5621 65.448L23.4929 91.6648C23.175 92.2179 23.176 92.8984 23.4955 93.4505C23.815 94.0026 24.4045 94.3426 25.0424 94.3426H49.5305C50.2759 94.3426 50.92 93.8849 51.1868 93.2279L60.7315 103.781L51.1866 114.334ZM83.8689 90.7684H53.7814L51.0944 87.7973C50.613 87.2653 49.8601 87.0723 49.1829 87.3079C48.5052 87.5433 48.0339 88.1609 47.986 88.8767L47.8595 90.7684H28.1312L43.2662 64.4374L47.2061 63.5908C47.9288 63.4355 48.4814 62.8515 48.596 62.1214C48.7106 61.3913 48.3642 60.6657 47.7242 60.2962L46.1644 59.3955L55.9998 42.2842L71.0504 68.4679L69.8285 72.2573C69.6017 72.9607 69.8314 73.7313 70.4064 74.1957C70.9813 74.6603 71.7829 74.7227 72.4229 74.3532L73.9324 73.4815L83.8689 90.7684Z" fill="#004290"/>
</g>
<defs>
<clipPath id="clip0">
<rect width="120" height="120" fill="white"/>
</clipPath>
</defs>
</svg>
