<svg width="120" height="120" viewBox="0 0 120 120" fill="none" xmlns="http://www.w3.org/2000/svg">
<g clip-path="url(#clip0)">
<path d="M1.62083 120.328H10.6339C11.0539 120.328 11.4567 120.162 11.754 119.865C12.0513 119.568 12.2189 119.166 12.2199 118.746L12.2652 99.9375H24.2769C24.4833 99.9369 24.6876 99.8951 24.8778 99.8148C25.0679 99.7344 25.2402 99.617 25.3846 99.4694C25.529 99.3218 25.6425 99.147 25.7187 98.955C25.7948 98.7631 25.832 98.558 25.8281 98.3516V93.8203C25.832 93.6139 25.7948 93.4088 25.7187 93.2169C25.6426 93.025 25.529 92.8502 25.3847 92.7026C25.2403 92.555 25.0681 92.4376 24.8779 92.3572C24.6878 92.2768 24.4835 92.2351 24.2771 92.2344H8.83594V23.5859C8.82803 23.1618 8.65363 22.7577 8.35038 22.461C8.04714 22.1643 7.63937 21.9987 7.21511 22H1.62083C1.19657 21.9987 0.788801 22.1643 0.485555 22.461C0.18231 22.7577 0.00790864 23.1618 0 23.5859V118.742C0.00790864 119.166 0.18231 119.57 0.485555 119.867C0.788801 120.164 1.19657 120.329 1.62083 120.328ZM3.17188 25.1719H5.66406V92.2344H3.17188V25.1719ZM3.17188 95.4063H22.6563V96.7656H10.6833C10.2634 96.7656 9.86057 96.9322 9.56326 97.2288C9.26595 97.5254 9.09841 97.9278 9.09739 98.3477L9.05163 117.156H3.17188V95.4063Z" fill="#004290"/>
<path d="M80.6563 93.8203V98.3516C80.6524 98.558 80.6896 98.7631 80.7657 98.955C80.8418 99.1469 80.9553 99.3217 81.0997 99.4693C81.244 99.6169 81.4163 99.7343 81.6065 99.8147C81.7966 99.8951 82.0009 99.9368 82.2073 99.9375H94.219L94.2643 118.746C94.2653 119.166 94.4328 119.568 94.7302 119.865C95.0275 120.162 95.4303 120.328 95.8502 120.328H104.863C105.288 120.33 105.695 120.164 105.999 119.867C106.302 119.571 106.476 119.166 106.484 118.742V23.5859C106.476 23.1618 106.302 22.7577 105.999 22.461C105.696 22.1643 105.288 21.9987 104.864 22H99.2693C98.845 21.9987 98.4372 22.1643 98.134 22.461C97.8307 22.7577 97.6564 23.1618 97.6484 23.5859V92.2344H82.2073C82.0009 92.2351 81.7966 92.2768 81.6065 92.3572C81.4163 92.4376 81.244 92.555 81.0997 92.7026C80.9553 92.8502 80.8418 93.025 80.7657 93.2169C80.6896 93.4088 80.6524 93.6139 80.6563 93.8203ZM100.82 25.1719H103.313V92.2344H100.82V25.1719ZM83.8281 95.4063H103.313V117.156H97.4328L97.3874 98.3477C97.3864 97.9278 97.2189 97.5254 96.9216 97.2288C96.6243 96.9322 96.2215 96.7656 95.8015 96.7656H83.8281V95.4063Z" fill="#004290"/>
<path d="M33.5813 65.0485C34.4101 67.5855 37.1499 69.5782 39.8183 69.5782H66.5718C69.2323 69.5782 71.9866 67.5996 72.8446 65.0804L74.0392 61.5651C74.1204 61.3193 74.1435 61.058 74.1067 60.8018C74.0699 60.5456 73.9743 60.3014 73.8272 60.0884C73.6826 59.8779 73.4906 59.7044 73.2666 59.5818C73.0427 59.4593 72.793 59.3911 72.5378 59.3828H33.9465C33.6931 59.3923 33.4452 59.4602 33.2223 59.5813C32.9994 59.7024 32.8076 59.8733 32.6616 60.0807C32.5157 60.2882 32.4197 60.5266 32.381 60.7772C32.3424 61.0279 32.3622 61.2841 32.439 61.5259L33.5813 65.0485ZM70.3234 62.5547L69.8417 64.0176C69.4248 65.2431 67.8661 66.4063 66.5718 66.4063H39.8183C38.5088 66.4063 37.0031 65.2671 36.5964 64.0224L36.1326 62.5547H70.3234Z" fill="#004290"/>
<path d="M17.4453 80.8111V86.622C17.4461 87.0646 17.5346 87.5027 17.7056 87.911C17.8765 88.3193 18.1267 88.6897 18.4415 89.0008C18.7563 89.312 19.1297 89.5577 19.54 89.7238C19.9502 89.89 20.3893 89.9732 20.832 89.9688H26.3993C26.8363 89.971 27.2694 89.8855 27.6727 89.7172C28.0761 89.549 28.4416 89.3015 28.7475 88.9894C29.0534 88.6772 29.2936 88.3069 29.4537 87.9002C29.6138 87.4936 29.6907 87.0589 29.6797 86.622V81.3594H76.3516V86.622C76.3469 87.062 76.43 87.4985 76.596 87.906C76.762 88.3136 77.0075 88.684 77.3182 88.9955C77.6289 89.3071 77.9986 89.5536 78.4057 89.7208C78.8128 89.8879 79.249 89.9722 79.689 89.9688H85.6529C86.0954 89.9731 86.5345 89.8899 86.9447 89.7237C87.355 89.5575 87.7282 89.3118 88.043 89.0007C88.3578 88.6896 88.6079 88.3192 88.7789 87.9109C88.9498 87.5027 89.0382 87.0646 89.0391 86.622V80.8111C90.6428 80.1551 92.0158 79.0376 92.9838 77.6004C93.9518 76.1632 94.4713 74.471 94.4766 72.7383V61.757C94.4766 59.5292 93.2658 56.9539 91.2367 54.8659C90.1232 53.7204 87.0754 51.4328 85.7766 50.4728C85.405 48.158 84.0855 40.2154 83.0071 37.3213C81.2605 32.629 77.5977 29.7032 73.4477 29.7032H33.1234C28.8917 29.7032 25.0062 32.7806 23.4549 37.3451C22.477 40.2238 21.1254 48.0126 20.7237 50.3951C19.5064 51.3159 16.2806 53.7852 15.2409 54.8421C13.6844 56.4251 12.0078 59.2664 12.0078 61.757V72.7383C12.013 74.471 12.5325 76.1633 13.5005 77.6005C14.4686 79.0377 15.8415 80.1551 17.4453 80.8111ZM26.5078 86.622C26.5078 86.7425 26.5198 86.7969 26.3993 86.7969H20.832C20.7114 86.7969 20.6172 86.7425 20.6172 86.622V81.4525C20.6172 81.4525 20.6874 81.3594 20.7248 81.3594H26.5078V86.622ZM85.8672 86.622C85.8672 86.7425 85.7734 86.7969 85.6529 86.7969H79.689C79.5685 86.7969 79.5234 86.7425 79.5234 86.622V81.3594H85.7596C85.7972 81.3594 85.8672 81.453 85.8672 81.4525V86.622ZM91.3047 62.639V66.4063H78.7336C78.8271 65.9719 78.9958 65.5573 79.2321 65.181C80.3649 63.5428 82.2191 62.7131 84.8979 62.6463C85.9046 62.6207 89.3146 62.6302 91.3047 62.639ZM26.4584 38.3656C27.5727 35.0881 30.2509 32.875 33.1234 32.875H73.4477C76.2797 32.875 78.7431 34.9578 80.0357 38.4288C80.8846 40.7068 81.9773 46.9332 82.4749 49.9286C77.9926 50.3568 65.1929 51.4692 52.9103 51.4692C40.7004 51.4692 28.3973 50.3684 24.0206 49.9359C24.5401 46.9323 25.6677 40.693 26.4584 38.3656ZM15.1797 62.6392C17.1367 62.6306 20.5692 62.62 21.5876 62.6458C24.266 62.7138 26.1188 63.5428 27.253 65.181C27.4912 65.5563 27.66 65.9713 27.7514 66.4063H15.1797V62.6392ZM15.1797 69.5782H29.5469C29.9675 69.5782 30.3709 69.4111 30.6684 69.1137C30.9658 68.8162 31.1329 68.4128 31.1329 67.9922C31.1329 67.7079 31.0973 65.1625 29.8612 63.3765C28.1343 60.8811 25.3773 59.5689 21.6671 59.476C20.7101 59.4517 17.8393 59.4576 15.8326 59.4655C16.2646 58.5869 16.8276 57.779 17.5024 57.0696C18.2938 56.2653 21.085 54.1073 22.5679 52.9834C25.4987 53.2892 39.256 54.6438 52.9103 54.6438C66.5004 54.6438 80.7095 53.3019 83.8431 52.9883C85.3139 54.0758 88.0891 56.1781 88.9634 57.0773C89.655 57.781 90.2349 58.5863 90.683 59.4653C88.6544 59.4576 85.7707 59.4517 84.8177 59.4757C81.1073 59.5684 78.3503 60.8804 76.6234 63.3758C75.3873 65.162 75.3517 67.7079 75.3517 67.9922C75.3517 68.4128 75.5188 68.8162 75.8162 69.1137C76.1137 69.4111 76.5171 69.5782 76.9377 69.5782H91.3047V72.7383C91.302 73.4612 91.156 74.1764 90.8752 74.8426C90.5944 75.5088 90.1843 76.1127 89.6687 76.6195C89.1531 77.1262 88.5421 77.5257 87.8711 77.7948C87.2001 78.064 86.4825 78.1974 85.7596 78.1875H20.7248C20.0019 78.1974 19.2842 78.064 18.6133 77.7948C17.9423 77.5257 17.3313 77.1262 16.8157 76.6195C16.3 76.1127 15.89 75.5088 15.6091 74.8426C15.3283 74.1764 15.1824 73.4612 15.1797 72.7383V69.5782Z" fill="#004290"/>
<path d="M64.9369 70.9375H41.5475C41.1269 70.9375 40.7235 71.1046 40.4261 71.402C40.1286 71.6995 39.9615 72.1029 39.9615 72.5235C39.9615 72.9441 40.1286 73.3475 40.4261 73.6449C40.7235 73.9423 41.1269 74.1094 41.5475 74.1094H64.9369C65.3575 74.1094 65.7609 73.9423 66.0583 73.6449C66.3557 73.3475 66.5228 72.9441 66.5228 72.5235C66.5228 72.1029 66.3557 71.6995 66.0583 71.402C65.7609 71.1046 65.3575 70.9375 64.9369 70.9375Z" fill="#004290"/>
</g>
<defs>
<clipPath id="clip0">
<rect width="120" height="120" fill="white"/>
</clipPath>
</defs>
</svg>
