<svg width="120" height="120" viewBox="0 0 120 120" fill="none" xmlns="http://www.w3.org/2000/svg">
<g clip-path="url(#clip0)">
<path d="M81.2464 40.5912C82.2603 40.5912 83.0822 39.7693 83.0822 38.7554C83.0822 37.7415 82.2603 36.9196 81.2464 36.9196C80.2325 36.9196 79.4106 37.7415 79.4106 38.7554C79.4106 39.7693 80.2325 40.5912 81.2464 40.5912Z" fill="#004290"/>
<path d="M70.7067 54.4079C70.6892 54.4247 70.7232 54.3904 70.7067 54.4079V54.4079Z" fill="#004290"/>
<path d="M65.592 49.2954C65.6056 49.2821 65.5788 49.309 65.592 49.2954V49.2954Z" fill="#004290"/>
<path d="M108.722 34.683H106.479C105.76 31.7606 104.609 28.9825 103.048 26.4039L104.635 24.8161C106.425 23.0262 106.425 20.114 104.635 18.3245L100.988 14.6774C99.1984 12.8877 96.2863 12.8877 94.4968 14.6774L92.909 16.2652C90.3295 14.7037 87.5512 13.5525 84.6297 12.8338V10.5901C84.6297 8.05914 82.5704 6 80.0392 6H74.8811C72.3502 6 70.291 8.05914 70.291 10.5901V12.8334C67.3689 13.5523 64.5912 14.7032 62.0117 16.2647L60.424 14.677C58.6342 12.8877 55.7223 12.8877 53.9326 14.677L50.2855 18.3241C48.4958 20.1138 48.4958 23.026 50.2855 24.8159L51.8732 26.4034C50.3122 28.9825 49.1606 31.7608 48.4419 34.6825H46.1986C43.6676 34.6825 41.6085 36.7417 41.6085 39.2728V44.4307C41.6085 46.9616 43.6676 49.0208 46.1986 49.0208H48.4419C49.1562 51.9233 50.3006 54.6916 51.8499 57.2616L52.2451 57.9413L21.9026 88.2838C16.0049 86.1607 9.25592 87.626 4.78451 92.097C0.224703 96.6568 -1.22725 103.496 1.08527 109.522C1.287 110.047 1.74078 110.435 2.29119 110.552C2.84182 110.669 3.41405 110.499 3.81216 110.102L12.333 101.581L16.5431 103.312L18.4085 107.679L9.89917 116.188C9.50106 116.586 9.33162 117.158 9.44874 117.709C9.56586 118.259 9.95328 118.713 10.4788 118.915C12.3818 119.645 14.3664 120 16.3344 120C20.5974 120 24.7841 118.335 27.9037 115.216C32.3751 110.744 33.84 103.995 31.7169 98.0976L37.3455 92.4691C37.9946 91.8198 37.9946 90.7675 37.3455 90.1185C36.6965 89.4696 35.644 89.4696 34.9951 90.1185L28.5917 96.5219C28.1057 97.0079 27.969 97.7429 28.2477 98.3713C30.4166 103.261 29.3338 109.085 25.5533 112.865C22.5657 115.853 18.3501 117.165 14.2757 116.513L21.554 109.234C22.0342 108.754 22.1738 108.03 21.9071 107.406L19.333 101.38C19.162 100.98 18.84 100.662 18.4368 100.496L12.5735 98.0847C11.9536 97.83 11.2402 97.972 10.7662 98.4465L3.48797 105.725C2.83514 101.651 4.14793 97.4345 7.1351 94.4472C10.9154 90.6664 16.7399 89.5841 21.629 91.753C22.2573 92.0313 22.9923 91.8953 23.4784 91.409L65.592 49.2954C66.078 48.8094 66.2146 48.0745 65.9359 47.4461C63.7669 42.557 64.8497 36.7325 68.6302 32.9522C71.6176 29.9646 75.8336 28.6516 79.9078 29.3051C79.9025 29.3102 79.9078 29.3051 79.9025 29.3102L72.6078 36.6049C72.5946 36.6181 72.5822 36.6312 72.5695 36.6446C72.5677 36.6466 72.5659 36.6484 72.5641 36.6504C72.5619 36.6528 72.5597 36.6553 72.5572 36.6579C72.5452 36.6711 72.5334 36.6842 72.5221 36.6976C72.5194 36.7007 72.5167 36.7038 72.5143 36.7069C72.51 36.7118 72.506 36.7167 72.5018 36.7216C72.4978 36.7265 72.4938 36.7316 72.4898 36.7365C72.4873 36.7397 72.4849 36.7426 72.4824 36.7457C72.4786 36.7503 72.4749 36.7552 72.4711 36.7599C72.4684 36.7635 72.4655 36.767 72.4628 36.7706C72.459 36.7757 72.4553 36.7806 72.4515 36.7857C72.4492 36.7889 72.4468 36.792 72.4444 36.7951C72.4408 36.7998 72.4375 36.8047 72.4341 36.8093C72.4314 36.8131 72.4285 36.8169 72.4259 36.8207C72.4225 36.8254 72.4194 36.8301 72.4163 36.8345C72.4136 36.8383 72.411 36.8421 72.4085 36.8459C72.4054 36.8505 72.4023 36.8552 72.3991 36.8599C72.3965 36.8639 72.3938 36.8681 72.3911 36.8721C72.388 36.877 72.3849 36.8819 72.3818 36.8868C72.3796 36.8904 72.3771 36.894 72.3749 36.8975C72.3715 36.9031 72.368 36.9087 72.3646 36.9142C72.3626 36.9176 72.3606 36.9207 72.3586 36.924C72.3555 36.9291 72.3524 36.9347 72.3493 36.94C72.3473 36.9436 72.345 36.9472 72.343 36.9507C72.3401 36.9556 72.3375 36.9605 72.3346 36.9654C72.3324 36.9694 72.3299 36.9737 72.3277 36.9777C72.325 36.9826 72.3223 36.9875 72.3197 36.9924C72.3174 36.9966 72.3152 37.0006 72.3132 37.0046C72.3101 37.0104 72.3072 37.0162 72.3043 37.022C72.3027 37.0253 72.301 37.0284 72.2994 37.0316C72.2967 37.0371 72.2938 37.0427 72.2912 37.048C72.2894 37.0518 72.2874 37.0556 72.2856 37.0596C72.2831 37.0647 72.2807 37.0699 72.2782 37.075C72.2762 37.0792 72.2745 37.0832 72.2725 37.0872C72.2698 37.0928 72.2673 37.0984 72.2649 37.1039C72.2633 37.1077 72.2615 37.1113 72.26 37.1148C72.2578 37.1197 72.2558 37.1246 72.2535 37.1298C72.2515 37.1344 72.2495 37.1391 72.2475 37.144C72.2455 37.1487 72.2437 37.1534 72.2417 37.158C72.24 37.1627 72.2382 37.1672 72.2364 37.1716C72.2342 37.1774 72.2319 37.1832 72.2297 37.189C72.2284 37.1928 72.2268 37.1963 72.2255 37.2001C72.2233 37.2059 72.2213 37.2117 72.2192 37.2175C72.2179 37.2213 72.2166 37.225 72.2152 37.2288C72.213 37.2348 72.211 37.2411 72.209 37.2473C72.2079 37.2509 72.2068 37.2542 72.2054 37.2576C72.2034 37.2633 72.2017 37.2691 72.1999 37.2747C72.1985 37.2792 72.1972 37.2832 72.1959 37.2874C72.1943 37.2923 72.1927 37.2974 72.1914 37.3023C72.1899 37.3072 72.1885 37.3119 72.1872 37.3168C72.1858 37.3217 72.1843 37.3266 72.183 37.3315C72.1816 37.3362 72.1803 37.3411 72.1789 37.3457C72.1774 37.3511 72.176 37.3564 72.1747 37.362C72.1736 37.3664 72.1725 37.3707 72.1714 37.3751C72.1698 37.3811 72.1685 37.3869 72.1669 37.3929C72.166 37.3967 72.1651 37.4003 72.1642 37.4041C72.1627 37.4103 72.1614 37.4168 72.16 37.423C72.1591 37.4268 72.1582 37.4306 72.1576 37.4343C72.1565 37.4399 72.1551 37.4457 72.154 37.4515C72.1531 37.4557 72.1522 37.46 72.1516 37.4642C72.1504 37.4702 72.1493 37.476 72.1482 37.482C72.1475 37.486 72.1467 37.49 72.146 37.494C72.1449 37.4998 72.144 37.5056 72.1431 37.5114C72.1424 37.5158 72.1415 37.5201 72.1409 37.5245C72.14 37.5301 72.1391 37.5357 72.1384 37.541C72.1377 37.5455 72.1371 37.5499 72.1364 37.5544C72.1355 37.5608 72.1346 37.5673 72.134 37.5735C72.1335 37.5768 72.1331 37.5802 72.1326 37.5835C72.1317 37.5902 72.1311 37.5971 72.1304 37.604C72.13 37.6074 72.1297 37.6107 72.1293 37.614C72.1286 37.6205 72.128 37.6272 72.1275 37.6339C72.1271 37.6376 72.1268 37.6412 72.1264 37.645C72.126 37.651 72.1255 37.6572 72.1251 37.6632C72.1248 37.6675 72.1244 37.6715 72.1242 37.6755C72.1237 37.6817 72.1235 37.688 72.1231 37.6942C72.1228 37.6982 72.1226 37.702 72.1224 37.706C72.1222 37.7124 72.1219 37.7189 72.1217 37.7251C72.1215 37.7287 72.1215 37.7323 72.1213 37.7358C72.1211 37.7427 72.1208 37.7499 72.1208 37.7568C72.1208 37.7599 72.1206 37.763 72.1206 37.7661C72.1206 37.773 72.1206 37.7799 72.1206 37.7868C72.1206 37.7902 72.1206 37.7935 72.1206 37.7968C72.1206 37.8042 72.1208 37.8113 72.1208 37.8187C72.1208 37.8213 72.1208 37.824 72.1211 37.8267C72.1213 37.834 72.1215 37.8411 72.1217 37.8485C72.1219 37.8516 72.1219 37.8547 72.1222 37.8578C72.1224 37.8647 72.1228 37.8719 72.1233 37.8788C72.1235 37.8819 72.1237 37.885 72.1237 37.8881C72.1242 37.8955 72.1246 37.903 72.1253 37.9104C72.1255 37.9128 72.1257 37.9155 72.126 37.918C72.1266 37.9253 72.1273 37.9329 72.128 37.9402C72.1282 37.9431 72.1286 37.946 72.1288 37.9491C72.1295 37.9565 72.1304 37.9638 72.1313 37.9712C72.1315 37.9738 72.132 37.9767 72.1322 37.9794C72.1331 37.9868 72.134 37.9939 72.1349 38.0012C72.1353 38.0043 72.1357 38.0072 72.136 38.0104C72.1371 38.0177 72.138 38.0251 72.1391 38.0324C72.1395 38.0351 72.14 38.0378 72.1402 38.0404C72.1413 38.048 72.1426 38.0553 72.1438 38.0629C72.1442 38.0658 72.1447 38.0687 72.1453 38.0716C72.1467 38.0787 72.148 38.0858 72.1493 38.093C72.1498 38.0959 72.1504 38.0985 72.1509 38.1014C72.1524 38.1088 72.1538 38.1163 72.1553 38.1239C72.1558 38.1266 72.1565 38.1293 72.1571 38.1319C72.1587 38.1395 72.1605 38.1473 72.1622 38.1546C72.1627 38.1571 72.1634 38.1593 72.1638 38.1618C72.1656 38.1689 72.1671 38.1762 72.1689 38.1834C72.1698 38.1867 72.1707 38.19 72.1714 38.1934C72.1732 38.2001 72.1749 38.207 72.1767 38.2134L72.1792 38.2228C72.1812 38.2299 72.1832 38.237 72.1852 38.2442C72.1861 38.247 72.1867 38.2497 72.1876 38.2526C72.1896 38.2595 72.1916 38.2664 72.1939 38.2733C72.195 38.2769 72.1961 38.2802 72.197 38.2836C72.199 38.29 72.201 38.2963 72.203 38.3027C72.2043 38.3065 72.2054 38.3103 72.2068 38.3138C72.2088 38.3199 72.211 38.3261 72.213 38.3323C72.2143 38.3361 72.2157 38.3401 72.217 38.3439C72.219 38.3497 72.221 38.3553 72.2233 38.361C72.225 38.3657 72.2266 38.3702 72.2284 38.3749C72.2304 38.3802 72.2324 38.3853 72.2344 38.3907C72.2362 38.3951 72.2379 38.3996 72.2397 38.404C72.242 38.4094 72.244 38.4147 72.2462 38.4201C72.2471 38.4223 72.248 38.4245 72.2489 38.4265L74.6827 44.2675C74.8484 44.6652 75.1619 44.9829 75.5571 45.1537L81.5606 47.7501C82.1865 48.0206 82.9137 47.8817 83.3955 47.3998L90.6956 40.0996C91.3484 44.1735 90.0356 48.39 87.0485 51.3772C83.2682 55.1577 77.4435 56.24 72.5546 54.0715C71.926 53.793 71.1912 53.9293 70.7052 54.4155L39.6972 85.4168C39.0482 86.0661 39.0482 87.1184 39.6972 87.7674C40.3463 88.4163 41.3988 88.4163 42.0476 87.7674L62.2408 67.5742C64.7567 69.0657 67.4604 70.1724 70.2924 70.8695V73.113C70.2924 75.6439 72.3515 77.7031 74.8825 77.7031H80.0405C82.5715 77.7031 84.6306 75.6439 84.6306 73.113V70.8695C87.5535 70.1505 90.3313 68.9992 92.9099 67.4381L94.4977 69.0259C95.3645 69.8927 96.5174 70.3701 97.7434 70.3701C98.9693 70.3701 100.122 69.8927 100.989 69.0259L104.636 65.3788C105.503 64.512 105.981 63.359 105.981 62.1331C105.981 60.9069 105.503 59.7544 104.636 58.8872L103.048 57.2996C104.609 54.7206 105.761 51.9423 106.48 49.0203H108.723C111.254 49.0203 113.313 46.9612 113.313 44.4302V39.2724C113.312 36.7421 111.253 34.683 108.722 34.683ZM81.8628 44.225L77.492 42.2168L75.7535 38.1607L79.935 33.9789L84.617 35.3839L86.0218 40.0659L81.8628 44.225ZM109.988 44.4311C109.988 45.1292 109.42 45.6972 108.722 45.6972H105.635C104.577 45.6972 103.646 46.4504 103.422 47.4882C102.75 50.6012 101.532 53.5401 99.8016 56.2238C99.2267 57.1157 99.3527 58.3067 100.101 59.0551L102.285 61.2389C102.524 61.478 102.656 61.796 102.656 62.134C102.656 62.4722 102.524 62.7901 102.285 63.0293L98.6376 66.6764C98.1439 67.1703 97.3406 67.1703 96.847 66.6764L94.6631 64.4926C93.915 63.7444 92.724 63.6184 91.8314 64.1933C89.1486 65.9232 86.2095 67.1411 83.0965 67.8137C82.0585 68.0375 81.3052 68.9684 81.3052 70.0272V73.1143C81.3052 73.8124 80.7372 74.3804 80.0392 74.3804H74.8816C74.1835 74.3804 73.6155 73.8124 73.6155 73.1143V70.0274C73.6155 68.9687 72.8621 68.0375 71.8247 67.8137C69.3189 67.2727 66.9191 66.3743 64.6761 65.1396L67.8313 61.9846C70.8219 63.4147 74.1256 64.1659 77.4608 64.1659C88.1134 64.1659 97.3232 56.5876 99.3601 46.1463C99.5358 45.2454 98.9479 44.3726 98.0471 44.1969C97.146 44.0208 96.2732 44.6088 96.0977 45.5101C94.365 54.3939 86.527 60.8423 77.4613 60.8423C75.0201 60.8423 72.5998 60.3699 70.3523 59.4641L72.2816 57.5348C78.18 59.6576 84.9285 58.1929 89.3997 53.7215C93.9595 49.1617 95.4115 42.3221 93.099 36.2963C92.8972 35.7709 92.4435 35.3832 91.8931 35.2663C91.3431 35.1497 90.7702 35.3187 90.3721 35.7165L88.6923 37.3963L87.5448 33.5715C87.3842 33.0362 86.9654 32.6176 86.4306 32.4573L82.6058 31.3097L84.2853 29.6302C84.6832 29.2323 84.8528 28.6599 84.7357 28.1092C84.6186 27.5588 84.231 27.1048 83.7055 26.9033C77.6799 24.591 70.8405 26.043 66.2807 30.6023C61.8096 35.074 60.3445 41.8227 62.4675 47.7205L60.2674 49.9205C59.088 47.4092 58.4717 44.6571 58.4717 41.8525C58.4717 31.3814 66.9904 22.8627 77.4615 22.8627C86.9799 22.8627 95.0755 29.9691 96.2932 39.3933C96.4108 40.3037 97.2439 40.9463 98.1544 40.8288C99.0648 40.711 99.7074 39.8778 99.5896 38.9676C98.1586 27.8915 88.6456 19.5389 77.4613 19.5389C65.1577 19.5389 55.1474 29.5489 55.1474 41.8528C55.1474 45.5473 56.0585 49.1655 57.7924 52.3958L54.6765 55.5115C53.1805 53.0213 52.1117 50.3224 51.4998 47.4887C51.2756 46.4509 50.3447 45.6976 49.286 45.6976H46.1993C45.5012 45.6976 44.9332 45.1296 44.9332 44.4316V39.2737C44.9332 38.5757 45.5012 38.0075 46.1993 38.0075H49.2862C50.3447 38.0075 51.2756 37.2544 51.4996 36.2166C52.1721 33.1037 53.39 30.1648 55.12 27.4811C55.6954 26.5885 55.5689 25.3975 54.8206 24.6498L52.6367 22.4662C52.1431 21.9723 52.1431 21.169 52.6367 20.6754L56.2839 17.0282C56.7775 16.5344 57.5808 16.5344 58.0745 17.0282L60.2581 19.2118C61.0064 19.9606 62.1974 20.0867 63.0901 19.5115C65.7738 17.7815 68.7126 16.5635 71.8263 15.8911C72.8634 15.6665 73.6162 14.7357 73.6162 13.6779V10.5901C73.6162 9.89205 74.1842 9.32405 74.8822 9.32405H80.0403C80.7383 9.32405 81.3063 9.89205 81.3063 10.5901V13.6772C81.3063 14.7349 82.0591 15.666 83.0972 15.8907C86.2099 16.5629 89.1488 17.7808 91.832 19.5106C92.7242 20.086 93.9152 19.9597 94.6642 19.2116L96.8481 17.0278C97.3417 16.5339 98.1451 16.5339 98.6387 17.0278L102.286 20.6749C102.779 21.1685 102.779 21.9719 102.286 22.4655L100.102 24.6489C99.3534 25.3973 99.2272 26.5883 99.8025 27.4813C101.532 30.1646 102.75 33.1034 103.423 36.2162C103.647 37.2542 104.577 38.0072 105.636 38.0072H108.723C109.421 38.0072 109.989 38.5752 109.989 39.2735L109.988 44.4311Z" fill="#004290"/>
<path d="M33.8121 38.9199H32.881C32.704 38.4083 32.4971 37.9084 32.2613 37.4219L32.9195 36.7639C33.8912 35.7918 33.8912 34.2103 32.9193 33.2379L30.0205 30.3394C29.5496 29.8685 28.9235 29.6093 28.2575 29.6093C27.5915 29.6093 26.9654 29.8687 26.4947 30.3394L25.8368 30.9973C25.3505 30.7618 24.8504 30.5547 24.3387 30.3777V29.4465C24.3387 28.0716 23.2203 26.9532 21.8454 26.9532H17.7458C16.3709 26.9532 15.2525 28.0716 15.2525 29.4465V30.3777C14.7409 30.5547 14.241 30.7615 13.7545 30.9973L13.0968 30.3396C12.6258 29.8687 11.9997 29.6093 11.3338 29.6093C10.6678 29.6093 10.0417 29.8685 9.57075 30.3394L6.67175 33.2382C5.70008 34.2103 5.70008 35.7918 6.67198 36.7642L7.32993 37.4219C7.09436 37.9082 6.88729 38.4083 6.71027 38.9199H5.77912C4.40421 38.9199 3.2858 40.0383 3.2858 41.4133V45.5126C3.28602 46.8875 4.40443 48.0059 5.77934 48.0059H6.7105C6.88751 48.5176 7.09436 49.0175 7.33015 49.504L6.67198 50.1619C5.7003 51.134 5.7003 52.7156 6.6722 53.6879L9.57098 56.5865C10.0419 57.0574 10.668 57.3166 11.334 57.3166C12.0002 57.3166 12.6261 57.0572 13.0968 56.5865L13.7547 55.9285C14.241 56.1641 14.7411 56.3712 15.2528 56.5482V57.4793C15.2528 58.8542 16.3712 59.9727 17.7461 59.9727H21.8454C23.2203 59.9727 24.3387 58.8542 24.3387 57.4793V56.5482C24.8504 56.3712 25.3503 56.1643 25.8368 55.9285L26.4945 56.5863C26.9654 57.0572 27.5915 57.3166 28.2575 57.3166C28.9235 57.3166 29.5496 57.0574 30.0205 56.5865L32.9195 53.6877C33.8912 52.7156 33.8912 51.134 32.9193 50.1617L32.2613 49.504C32.4969 49.0177 32.704 48.5176 32.881 48.0059H33.8121C35.1871 48.0059 36.3055 46.8875 36.3055 45.5126V41.4133C36.3055 40.0386 35.1871 38.9199 33.8121 38.9199ZM32.9805 44.6816H31.6377C30.8706 44.6816 30.2031 45.2067 30.0223 45.9521C29.766 47.0093 29.3508 48.0131 28.7881 48.9351C28.3887 49.5901 28.4891 50.4336 29.0319 50.976L29.9804 51.9243L28.2568 53.6478L27.3083 52.6993C26.7657 52.1574 25.9229 52.0565 25.2679 52.4555C24.3454 53.0184 23.3417 53.4334 22.2847 53.6897C21.5393 53.8703 21.0142 54.5378 21.0142 55.3051V56.6479H18.5764V55.3051C18.5764 54.5378 18.0513 53.8705 17.3059 53.6897C16.2489 53.4334 15.2452 53.0184 14.3227 52.4555C13.6679 52.0561 12.8244 52.1563 12.2823 52.6993L11.3338 53.6478L9.61016 51.9243L10.5587 50.976C11.1011 50.4336 11.2017 49.5901 10.8025 48.9351C10.2398 48.0131 9.82458 47.0093 9.56831 45.9521C9.38773 45.2067 8.71998 44.6816 7.95292 44.6816H6.61008V42.244H7.95292C8.71998 42.244 9.38751 41.719 9.56831 40.9735C9.82458 39.9163 10.2398 38.9126 10.8025 37.9906C11.2019 37.3355 11.1015 36.4921 10.5587 35.9497L9.61016 35.0014L11.3338 33.2778L12.2823 34.2263C12.8249 34.7685 13.6679 34.8694 14.3227 34.4701C15.2452 33.9072 16.2489 33.4922 17.3059 33.2359C18.0513 33.0554 18.5764 32.3878 18.5764 31.6206V30.2777H21.014V31.6206C21.014 32.3878 21.539 33.0551 22.2845 33.2359C23.3415 33.4922 24.3452 33.9072 25.2677 34.4701C25.9221 34.8691 26.7657 34.7689 27.3081 34.2263L28.2566 33.2778L29.9802 35.0014L29.0317 35.9497C28.4893 36.4921 28.3887 37.3355 28.7879 37.9906C29.3505 38.9126 29.7658 39.9163 30.0221 40.9735C30.2026 41.719 30.8704 42.244 31.6375 42.244H32.9803L32.9805 44.6816Z" fill="#004290"/>
<path d="M19.7954 35.3743C15.3354 35.3743 11.7069 39.0029 11.7069 43.4628C11.7069 47.9226 15.3356 51.5513 19.7954 51.5513C24.2552 51.5513 27.8839 47.9226 27.8839 43.4628C27.8839 39.0029 24.2555 35.3743 19.7954 35.3743ZM19.7954 48.2274C17.1683 48.2274 15.031 46.0901 15.031 43.463C15.031 40.8359 17.1683 38.6986 19.7954 38.6986C22.4225 38.6986 24.5598 40.8359 24.5598 43.463C24.5601 46.0899 22.4225 48.2274 19.7954 48.2274Z" fill="#004290"/>
<path d="M91.8721 93.8781H90.9409C90.7639 93.3664 90.5571 92.8665 90.3213 92.38L90.9795 91.7221C91.9511 90.7499 91.9511 89.1684 90.9792 88.1961L88.0805 85.2975C87.6095 84.8266 86.9834 84.5674 86.3175 84.5674C85.6515 84.5674 85.0254 84.8268 84.5547 85.2975L83.8967 85.9555C83.4104 85.7199 82.9104 85.5128 82.3987 85.3358V84.4046C82.3987 83.0297 81.2803 81.9113 79.9054 81.9113H75.8063C74.4313 81.9113 73.3129 83.0297 73.3129 84.4046V85.3358C72.8013 85.5128 72.3014 85.7197 71.8149 85.9555L71.1572 85.2977C70.6862 84.8268 70.0601 84.5674 69.3942 84.5674C68.7282 84.5674 68.1021 84.8266 67.6312 85.2975L64.7322 88.1963C63.7605 89.1684 63.7605 90.7499 64.7324 91.7223L65.3903 92.38C65.1548 92.8663 64.9477 93.3664 64.7707 93.8781H63.8395C62.4646 93.8781 61.3462 94.9965 61.3462 96.3714V100.471C61.3462 101.846 62.4646 102.964 63.8395 102.964H64.7707C64.9477 103.476 65.1545 103.976 65.3903 104.462L64.7322 105.12C63.7605 106.092 63.7605 107.674 64.7324 108.646L67.6312 111.545C68.1021 112.016 68.7282 112.275 69.3942 112.275C70.0601 112.275 70.6862 112.015 71.1569 111.545L71.8149 110.887C72.3012 111.122 72.8013 111.329 73.3129 111.506V112.437C73.3129 113.812 74.4313 114.931 75.8063 114.931H79.9054C81.2803 114.931 82.3987 113.812 82.3987 112.437V111.506C82.9104 111.329 83.4102 111.122 83.8967 110.887L84.5545 111.544C85.0254 112.015 85.6515 112.275 86.3175 112.275C86.9834 112.275 87.6095 112.016 88.0805 111.545L90.9795 108.646C91.9511 107.674 91.9511 106.092 90.9792 105.12L90.3213 104.462C90.5569 103.976 90.7639 103.476 90.9409 102.964H91.8721C93.247 102.964 94.3654 101.846 94.3654 100.471V96.3714C94.3654 94.9965 93.2468 93.8781 91.8721 93.8781ZM91.0414 99.6398H89.6985C88.9315 99.6398 88.2639 100.165 88.0831 100.91C87.8269 101.967 87.4116 102.971 86.8489 103.893C86.4495 104.548 86.5499 105.392 87.0928 105.934L88.0413 106.882L86.3177 108.606L85.3692 107.657C84.8268 107.115 83.9836 107.015 83.3287 107.414C82.4063 107.977 81.4025 108.392 80.3456 108.648C79.6001 108.828 79.0751 109.496 79.0751 110.263V111.606H76.6374V110.263C76.6374 109.496 76.1124 108.829 75.3669 108.648C74.31 108.392 73.3063 107.977 72.3838 107.414C71.7289 107.014 70.8855 107.115 70.3433 107.657L69.3948 108.606L67.6712 106.882L68.6198 105.934C69.1621 105.392 69.2628 104.548 68.8636 103.893C68.3009 102.971 67.8857 101.967 67.6294 100.91C67.4488 100.165 66.781 99.6398 66.014 99.6398H64.6712V97.2021H66.014C66.781 97.2021 67.4486 96.6771 67.6294 95.9316C67.8857 94.8745 68.3009 93.8707 68.8636 92.9487C69.263 92.2936 69.1626 91.4502 68.6198 90.9078L67.6712 89.9595L69.3948 88.2359L70.3433 89.1844C70.886 89.7266 71.7289 89.8275 72.3838 89.4282C73.3063 88.8654 74.31 88.4503 75.3669 88.1941C76.1124 88.0135 76.6374 87.346 76.6374 86.5787V85.2358H79.0751V86.5787C79.0751 87.346 79.6001 88.0133 80.3456 88.1941C81.4025 88.4503 82.4063 88.8654 83.3287 89.4282C83.9831 89.8272 84.8265 89.7271 85.3692 89.1844L86.3177 88.2359L88.0413 89.9595L87.0928 90.9078C86.5504 91.4502 86.4497 92.2936 86.8489 92.9487C87.4116 93.8707 87.8269 94.8745 88.0831 95.9316C88.2637 96.6771 88.9315 97.2021 89.6985 97.2021H91.0414V99.6398Z" fill="#004290"/>
<path d="M77.8558 90.3323C73.3958 90.3323 69.7674 93.9609 69.7674 98.4207C69.7674 102.881 73.396 106.509 77.8558 106.509C82.3157 106.509 85.9443 102.881 85.9443 98.4207C85.9443 93.9609 82.3159 90.3323 77.8558 90.3323ZM77.8558 103.185C75.2287 103.185 73.0914 101.048 73.0914 98.421C73.0914 95.7938 75.2287 93.6565 77.8558 93.6565C80.483 93.6565 82.6203 95.7938 82.6203 98.421C82.6203 101.048 80.483 103.185 77.8558 103.185Z" fill="#004290"/>
</g>
<defs>
<clipPath id="clip0">
<rect width="120" height="120" fill="white"/>
</clipPath>
</defs>
</svg>
