<svg width="120" height="120" viewBox="0 0 120 120" fill="none" xmlns="http://www.w3.org/2000/svg">
<path d="M102.426 17.5736C91.094 6.24102 76.0266 0 60 0C43.9734 0 28.906 6.24102 17.5736 17.5736C6.24102 28.9062 0 43.9734 0 60C0 76.0266 6.24102 91.0938 17.5736 102.426C28.906 113.759 43.9734 120 60 120C76.0266 120 91.094 113.759 102.426 102.426C113.759 91.0938 120 76.0266 120 60C120 43.9734 113.759 28.9062 102.426 17.5736ZM60 116.17C29.0275 116.17 3.82979 90.9725 3.82979 60C3.82979 29.0275 29.0275 3.82979 60 3.82979C90.9725 3.82979 116.17 29.0275 116.17 60C116.17 90.9725 90.9725 116.17 60 116.17Z" fill="#004290"/>
<path d="M60 7.65957C31.1392 7.65957 7.65957 31.1395 7.65957 60C7.65957 88.8605 31.1392 112.34 60 112.34C88.8608 112.34 112.34 88.8605 112.34 60C112.34 31.1395 88.8608 7.65957 60 7.65957ZM60 108.511C33.2512 108.511 11.4894 86.749 11.4894 60C11.4894 33.251 33.2512 11.4894 60 11.4894C86.7488 11.4894 108.511 33.251 108.511 60C108.511 86.749 86.7488 108.511 60 108.511Z" fill="#004290"/>
<path d="M94.4599 40.2991C94.4364 40.2485 94.4114 40.1982 94.3831 40.1489C94.3483 40.0889 94.3108 40.032 94.271 39.9771C90.8219 34.0963 85.9037 29.1781 80.0229 25.729C79.9683 25.6892 79.9111 25.6514 79.8511 25.6169C79.8018 25.5886 79.7517 25.5638 79.7012 25.5401C73.8919 22.2061 67.1648 20.2979 60 20.2979C52.835 20.2979 46.1076 22.2061 40.2983 25.5406C40.248 25.5641 40.198 25.5889 40.1489 25.6169C40.0889 25.6517 40.032 25.6892 39.9771 25.729C34.0963 29.1781 29.1781 34.0963 25.729 39.9771C25.6892 40.0317 25.6514 40.0889 25.6169 40.1489C25.5886 40.1982 25.5636 40.2485 25.5401 40.2991C22.2061 46.1081 20.2979 52.8352 20.2979 60C20.2979 66.9733 22.14 73.837 25.6271 79.8541C25.7254 80.0226 26.64 81.4708 28.4763 80.4115L33.7606 77.3607C34.6764 76.8319 34.9902 75.6608 34.4614 74.7449C33.9327 73.8288 32.7615 73.5156 31.8457 74.0441C31.8457 74.0441 29.6466 75.3138 28.0246 76.2503C25.7589 71.8044 24.4491 66.913 24.1815 61.9152H28.5957C29.6533 61.9152 30.5106 61.058 30.5106 60.0003C30.5106 58.9425 29.6533 58.0854 28.5957 58.0854H24.179C24.4504 52.9486 25.8077 48.0952 28.0246 43.7502L31.8457 45.9564C32.1472 46.1306 32.4766 46.2133 32.8014 46.2133C33.4631 46.2133 34.1068 45.8699 34.4614 45.2556C34.9902 44.3397 34.6764 43.1686 33.7606 42.6398L29.9461 40.4377C32.677 36.2563 36.2558 32.6775 40.4372 29.9466L42.6393 33.7608C42.994 34.3751 43.6376 34.7186 44.2994 34.7186C44.6242 34.7186 44.9535 34.6358 45.2551 34.4617C46.1709 33.9329 46.4847 32.7618 45.9559 31.846L43.7497 28.0249C48.0945 25.8079 52.9481 24.4506 58.0846 24.1792V28.5957C58.0846 29.6535 58.942 30.5106 59.9995 30.5106C61.057 30.5106 61.9144 29.6535 61.9144 28.5957V24.179C67.0511 24.4504 71.9045 25.8077 76.2493 28.0246L74.0431 31.8457C73.5143 32.7615 73.8281 33.9327 74.7439 34.4614C75.0454 34.6356 75.3748 34.7183 75.6996 34.7183C76.3614 34.7183 77.005 34.3749 77.3597 33.7606L79.5618 29.9464C83.7431 32.6775 87.322 36.2561 90.0528 40.4374L86.2384 42.6396C85.3225 43.1683 85.0088 44.3395 85.5375 45.2553C85.8922 45.8696 86.5358 46.213 87.1976 46.213C87.5224 46.213 87.8517 46.1303 88.1533 45.9562L91.9744 43.75C94.1913 48.0947 95.5483 52.9483 95.82 58.0851H91.4043C90.3467 58.0851 89.4894 58.9422 89.4894 60C89.4894 61.0578 90.3467 61.9149 91.4043 61.9149H95.8187C95.5511 66.9092 94.2429 71.8016 91.9803 76.2526L88.1545 74.0438C87.2385 73.5151 86.0676 73.8286 85.5388 74.7447C85.01 75.6605 85.3238 76.8317 86.2397 77.3604L91.7676 80.5519C92.0691 80.726 92.3982 80.8088 92.7232 80.8088C93.3845 80.8088 94.0279 80.4656 94.3828 79.8518C97.8628 73.8314 99.7024 66.9666 99.7024 60C99.7021 52.8352 97.7939 46.1081 94.4599 40.2991Z" fill="#004290"/>
<path d="M66.5244 48.2936C65.6007 47.7804 64.4362 48.1123 63.9222 49.035L60.9651 54.3378C60.6511 54.2844 60.3291 54.255 60 54.255C56.8323 54.255 54.2553 56.8322 54.2553 59.9997C54.2553 60.3582 54.29 60.7085 54.3531 61.0488L38.4791 70.2138C37.5633 70.7425 37.2495 71.9137 37.7783 72.8295C38.1329 73.4438 38.7766 73.7872 39.4384 73.7872C39.7631 73.7872 40.0925 73.7045 40.394 73.5304L56.2708 64.3639C57.2752 65.2236 58.5776 65.7444 60.0003 65.7444C62.4666 65.7444 64.5743 64.1819 65.387 61.995L71.4572 62.0854C71.4669 62.0857 71.4766 62.0857 71.4863 62.0857C72.5293 62.0857 73.3831 61.249 73.4004 60.2024C73.4405 57.7846 72.8209 55.3971 71.6086 53.2973C70.3964 51.1984 68.6382 49.4681 66.5244 48.2936ZM60 61.9149C58.944 61.9149 58.0851 61.056 58.0851 60C58.0851 58.944 58.944 58.0851 60 58.0851C60.3324 58.0851 60.6454 58.1706 60.9181 58.3202C60.923 58.3231 60.9271 58.3261 60.9319 58.3289C61.5184 58.6583 61.9149 59.2833 61.9149 60C61.9149 60.0082 61.9139 60.0163 61.9136 60.0245C61.8975 61.0716 61.046 61.9149 60 61.9149ZM65.4426 58.166C65.196 57.4363 64.8072 56.7717 64.3083 56.2059L66.2413 52.7397C67.0552 53.4385 67.7497 54.2739 68.2918 55.2127C68.8338 56.1518 69.2099 57.1708 69.4083 58.2253L65.4426 58.166Z" fill="#004290"/>
<path d="M66.6758 95.8723H53.3242C52.2666 95.8723 51.4093 96.7294 51.4093 97.7872C51.4093 98.845 52.2666 99.7021 53.3242 99.7021H66.6758C67.7334 99.7021 68.5907 98.845 68.5907 97.7872C68.5907 96.7294 67.7334 95.8723 66.6758 95.8723Z" fill="#004290"/>
<path d="M64.1226 92.0425C65.1802 92.0425 66.0375 91.1854 66.0375 90.1277C66.0375 89.0699 65.1802 88.2128 64.1226 88.2128H55.8774C54.8198 88.2128 53.9625 89.0699 53.9625 90.1277C53.9625 91.1854 54.8198 92.0425 55.8774 92.0425H64.1226Z" fill="#004290"/>
</svg>
