<svg width="120" height="120" viewBox="0 0 120 120" fill="none" xmlns="http://www.w3.org/2000/svg">
<path d="M24.5175 39.4954C23.5497 39.4954 22.7675 40.2776 22.7675 41.2454V46.4971C21.8032 46.4989 21.021 47.2811 21.021 48.2454C21.021 49.2114 21.8015 49.9954 22.7675 49.9971V55.2454C21.8032 55.2489 21.021 56.0294 21.021 56.9936C21.021 57.9596 21.8015 58.7419 22.7675 58.7454V63.9936C21.8032 63.9954 21.021 64.7776 21.021 65.7419C21.021 66.7079 21.8015 67.4919 22.7675 67.4936V72.7419C21.8032 72.7454 21.021 73.5259 21.021 74.4901C21.021 75.4561 21.8015 76.2384 22.7675 76.2419V81.5129C21.8032 81.5164 21.021 82.2969 21.021 83.2611C21.021 84.2271 21.8015 85.0094 22.7675 85.0129V118.224C22.7675 119.192 23.5497 119.974 24.5175 119.974C25.4852 119.974 26.2675 119.192 26.2675 118.224V85.0129C27.2335 85.0129 28.0175 84.2306 28.0175 83.2646C28.0175 82.2969 27.2352 81.5129 26.2675 81.5129V76.2419C27.2335 76.2419 28.0175 75.4596 28.0175 74.4936C28.0175 73.5259 27.2352 72.7419 26.2675 72.7419V67.4936C27.2335 67.4936 28.0175 66.7114 28.0175 65.7454C28.0175 64.7776 27.2352 63.9936 26.2675 63.9936V58.7454C27.2335 58.7454 28.0175 57.9631 28.0175 56.9971C28.0175 56.0294 27.2352 55.2454 26.2675 55.2454V49.9971C27.2335 49.9971 28.0175 49.2149 28.0175 48.2489C28.0175 47.2811 27.2352 46.4971 26.2675 46.4971V41.2436C26.2675 40.2776 25.4852 39.4954 24.5175 39.4954Z" fill="#004290"/>
<path d="M32.9367 72.7873C31.9899 72.9763 31.3739 73.8986 31.5647 74.8471C31.7309 75.6801 32.4624 76.2541 33.2779 76.2541H33.2797V118.223C33.2797 119.19 34.0619 119.973 35.0297 119.973H40.2797C41.2474 119.973 42.0297 119.19 42.0297 118.223V74.5373L42.3727 74.4691C43.3194 74.2801 43.9354 73.3578 43.7447 72.4093C43.5802 71.5781 42.8487 71.0321 42.0297 71.0356V65.7663L42.3727 65.6981C43.3194 65.5091 43.9354 64.5868 43.7447 63.6383C43.5802 62.8071 42.8487 62.2628 42.0297 62.2663V57.0181L42.3727 56.9498C43.3194 56.7608 43.9354 55.8386 43.7447 54.8901C43.5802 54.0588 42.8487 53.5163 42.0297 53.5181V48.2698L42.3727 48.2016C43.3194 48.0126 43.9354 47.0903 43.7447 46.1418C43.5802 45.3088 42.8487 44.7681 42.0297 44.7698V39.5216L42.3727 39.4533C43.3194 39.2643 43.9354 38.3421 43.7447 37.3936C43.5802 36.5623 42.8487 36.0163 42.0297 36.0198V32.4848C42.0297 32.4148 41.9964 32.3553 41.9912 32.2888C41.9772 32.1698 41.9579 32.0543 41.9212 31.9406C41.8827 31.8233 41.8267 31.7183 41.7654 31.6133C41.7304 31.5556 41.7217 31.4908 41.6797 31.4348L39.0547 27.9348C38.3949 27.0528 36.9144 27.0528 36.2547 27.9348L33.6297 31.4348C33.5894 31.4891 33.5789 31.5538 33.5439 31.6133C33.4827 31.7183 33.4284 31.8216 33.3882 31.9406C33.3514 32.0543 33.3322 32.1698 33.3182 32.2888C33.3112 32.3553 33.2797 32.4148 33.2797 32.4848V37.7016L32.9367 37.7698C31.9899 37.9588 31.3739 38.8811 31.5647 39.8296C31.7309 40.6626 32.4624 41.2366 33.2779 41.2366H33.2797V46.4498L32.9367 46.5181C31.9899 46.7071 31.3739 47.6293 31.5647 48.5778C31.7309 49.4108 32.4624 49.9848 33.2779 49.9848H33.2797V55.1981L32.9367 55.2663C31.9899 55.4553 31.3739 56.3776 31.5647 57.3261C31.7309 58.1591 32.4624 58.7331 33.2779 58.7331H33.2797V63.9463L32.9367 64.0146C31.9899 64.2036 31.3739 65.1258 31.5647 66.0743C31.7309 66.9073 32.4624 67.4813 33.2779 67.4813H33.2797V72.7173L32.9367 72.7873ZM38.5314 116.473H36.7814V75.5891L38.5314 75.2391V116.473ZM36.7814 33.0693L37.6564 31.9038L38.5314 33.0693V36.6533L36.7814 37.0033V33.0693ZM36.7814 40.5733L38.5314 40.2233V45.4016L36.7814 45.7516V40.5733ZM36.7814 49.3216L38.5314 48.9716V54.1498L36.7814 54.4998V49.3216ZM36.7814 58.0698L38.5314 57.7198V62.8981L36.7814 63.2481V58.0698ZM36.7814 66.8181L38.5314 66.4681V71.6691L36.7814 72.0191V66.8181Z" fill="#004290"/>
<path d="M60.102 20.1281C61.0173 19.8218 61.5143 18.8331 61.208 17.9143C60.9595 17.1723 60.2665 16.7313 59.521 16.7436V14.9761C59.521 14.9218 59.4948 14.8728 59.4895 14.8203C59.479 14.7031 59.4545 14.5928 59.4195 14.4773C59.3845 14.3618 59.3425 14.2551 59.2865 14.1501C59.2603 14.1028 59.2568 14.0486 59.227 14.0048L55.7323 8.76183L55.727 8.75483C55.643 8.62883 55.5258 8.54308 55.4173 8.44683C55.3543 8.39083 55.3123 8.31733 55.2405 8.26833C55.2405 8.26833 55.2388 8.26833 55.2388 8.26658C55.0463 8.13883 54.8293 8.05133 54.6053 8.00933C54.4933 7.98833 54.383 8.00933 54.271 8.00933C54.159 8.00933 54.047 7.98833 53.9368 8.01108C53.711 8.05483 53.4958 8.14058 53.3033 8.27008H53.3015C53.2368 8.31208 53.2018 8.37858 53.144 8.42758C53.0285 8.52908 52.9043 8.62008 52.815 8.75658L52.8098 8.76183L49.315 14.0066C49.2835 14.0521 49.28 14.1046 49.2555 14.1518C49.1995 14.2568 49.1558 14.3618 49.1225 14.4791C49.0875 14.5928 49.063 14.7048 49.0525 14.8221C49.0473 14.8746 49.021 14.9236 49.021 14.9778V20.1351L48.4943 20.3118C47.579 20.6181 47.082 21.6068 47.3883 22.5256C47.6298 23.2501 48.2983 23.7068 49.021 23.7191V28.8956L48.4943 29.0723C47.579 29.3786 47.082 30.3673 47.3883 31.2861C47.6298 32.0088 48.2983 32.4673 49.021 32.4778V37.6561L48.4943 37.8328C47.579 38.1391 47.082 39.1278 47.3883 40.0466C47.6298 40.7711 48.2983 41.2278 49.021 41.2401V46.4061L48.4943 46.5828C47.579 46.8891 47.082 47.8778 47.3883 48.7966C47.6298 49.5193 48.2983 49.9778 49.021 49.9883V55.1561L48.4943 55.3328C47.579 55.6391 47.082 56.6278 47.3883 57.5466C47.6298 58.2711 48.2983 58.7278 49.021 58.7401V63.9061L48.4943 64.0828C47.579 64.3891 47.082 65.3778 47.3883 66.2966C47.6298 67.0193 48.2983 67.4778 49.021 67.4883V72.6788L48.4943 72.8556C47.579 73.1618 47.082 74.1506 47.3883 75.0693C47.6298 75.7921 48.2983 76.2506 49.021 76.2611V118.235C49.021 119.203 49.8033 119.985 50.771 119.985H57.771C58.7388 119.985 59.521 119.203 59.521 118.235V72.8538L60.102 72.6613C61.0173 72.3551 61.5143 71.3663 61.208 70.4476C60.9595 69.7056 60.2665 69.2628 59.521 69.2768V64.0828L60.102 63.8903C61.0173 63.5841 61.5143 62.5953 61.208 61.6766C60.9595 60.9346 60.2665 60.4918 59.521 60.5058V55.3346L60.102 55.1421C61.0173 54.8358 61.5143 53.8471 61.208 52.9283C60.9595 52.1863 60.2665 51.7436 59.521 51.7576V46.5863L60.102 46.3938C61.0173 46.0876 61.5143 45.0988 61.208 44.1801C60.9595 43.4381 60.2665 42.9971 59.521 43.0093V37.8381L60.102 37.6456C61.0173 37.3393 61.5143 36.3506 61.208 35.4318C60.9595 34.6898 60.2665 34.2471 59.521 34.2611V29.0793L60.102 28.8868C61.0173 28.5806 61.5143 27.5918 61.208 26.6731C60.9595 25.9311 60.2665 25.4883 59.521 25.5023V20.3223L60.102 20.1281ZM52.521 15.5081L54.271 12.8813L56.021 15.5081V17.8023L52.521 18.9696V15.5081ZM56.021 116.473H52.521V75.1883L56.021 74.0211V116.473ZM56.021 70.3338L52.521 71.5011V66.4191L56.021 65.2518V70.3338ZM56.021 61.5628L52.521 62.7301V57.6691L56.021 56.5018V61.5628ZM56.021 52.8146L52.521 53.9818V48.9208L56.021 47.7536V52.8146ZM56.021 44.0663L52.521 45.2336V40.1726L56.021 39.0053V44.0663ZM56.021 35.3181L52.521 36.4853V31.4156L56.021 30.2483V35.3181ZM56.021 26.5593L52.521 27.7266V22.6568L56.021 21.4896V26.5593Z" fill="#004290"/>
<path d="M78.7711 9.79955H75.2676V9.7803C75.2676 8.81255 74.4853 8.0303 73.5176 8.0303C72.5498 8.0303 71.7676 8.81255 71.7676 9.7803V9.79955H68.2676C67.2998 9.79955 66.5176 10.5818 66.5176 11.5496V16.8013C66.5176 17.7691 67.2998 18.5513 68.2676 18.5513H71.7676V20.2891H68.2676C67.2998 20.2891 66.5176 21.0713 66.5176 22.0391V27.2908C66.5176 28.2586 67.2998 29.0408 68.2676 29.0408H71.7676V30.7786H68.2676C67.2998 30.7786 66.5176 31.5608 66.5176 32.5286V37.7803C66.5176 38.7481 67.2998 39.5303 68.2676 39.5303H71.7676V41.2681H68.2676C67.2998 41.2681 66.5176 42.0503 66.5176 43.0181V48.2698C66.5176 49.2376 67.2998 50.0198 68.2676 50.0198H71.7676V51.7576H68.2676C67.2998 51.7576 66.5176 52.5398 66.5176 53.5076V58.7593C66.5176 59.7271 67.2998 60.5093 68.2676 60.5093H71.7676V62.2471H68.2676C67.2998 62.2471 66.5176 63.0293 66.5176 63.9971V69.2488C66.5176 70.2166 67.2998 70.9988 68.2676 70.9988H71.7676V72.7716H70.0211C69.7726 72.7716 69.5398 72.8258 69.3246 72.9185C68.6893 73.181 68.2413 73.8041 68.2413 74.5356V118.223C68.2413 119.19 69.0236 119.973 69.9913 119.973H76.9913C77.9591 119.973 78.7413 119.19 78.7413 118.223V74.6581C78.7448 74.6125 78.7693 74.5705 78.7693 74.5233C78.7693 73.5573 77.9871 72.7733 77.0193 72.7733H75.2693V70.9988H78.7728C79.7406 70.9988 80.5228 70.2166 80.5228 69.2488V63.9971C80.5228 63.0293 79.7406 62.2471 78.7728 62.2471H75.2693V60.5093H78.7728C79.7406 60.5093 80.5228 59.7271 80.5228 58.7593V53.5093C80.5228 52.5416 79.7406 51.7593 78.7728 51.7593H75.2693V50.0216H78.7728C79.7406 50.0216 80.5228 49.2393 80.5228 48.2716V43.0198C80.5228 42.0521 79.7406 41.2698 78.7728 41.2698H75.2693V39.5321H78.7728C79.7406 39.5321 80.5228 38.7498 80.5228 37.7821V32.5303C80.5228 31.5626 79.7406 30.7803 78.7728 30.7803H75.2693V29.0426H78.7728C79.7406 29.0426 80.5228 28.2603 80.5228 27.2926V22.0391C80.5228 21.0713 79.7406 20.2891 78.7728 20.2891H75.2693V18.5513H78.7728C79.7406 18.5513 80.5228 17.7691 80.5228 16.8013V11.5496C80.5211 10.5818 79.7388 9.79955 78.7711 9.79955ZM71.7396 76.2716L75.2396 76.2733V116.473H71.7396V76.2716ZM77.0211 67.5005H70.0176V65.7488H73.4826C73.4948 65.7488 73.5053 65.7558 73.5176 65.7558C73.5298 65.7558 73.5403 65.7488 73.5526 65.7488H77.0211V67.5005ZM77.0211 57.0111H70.0176V55.2593H77.0211V57.0111ZM77.0211 46.5198H73.5526C73.5403 46.5198 73.5298 46.5128 73.5176 46.5128C73.5053 46.5128 73.4948 46.5198 73.4826 46.5198H70.0176V44.7681H77.0211V46.5198ZM77.0211 36.0303H73.5858C73.5613 36.0286 73.5421 36.0163 73.5176 36.0163C73.4931 36.0163 73.4738 36.0286 73.4493 36.0303H70.0176V34.2786H77.0211V36.0303ZM77.0211 25.5408H73.6208C73.5841 25.5391 73.5543 25.5198 73.5176 25.5198C73.4808 25.5198 73.4511 25.5391 73.4143 25.5408H70.0176V23.7891H77.0211V25.5408ZM77.0211 15.0513H73.6523C73.6068 15.0478 73.5648 15.0233 73.5176 15.0233C73.4703 15.0233 73.4283 15.0478 73.3828 15.0513H70.0176V13.2996H77.0211V15.0513Z" fill="#004290"/>
<path d="M22.519 29.8808C22.5365 29.8493 22.5347 29.8161 22.5505 29.7846C22.603 29.6796 22.631 29.5676 22.6607 29.4538C22.6922 29.3384 22.7237 29.2281 22.729 29.1126C22.7325 29.0776 22.75 29.0496 22.75 29.0128V15.0076C22.75 14.0398 21.9677 13.2576 21 13.2576H16.5707L12.7207 8.6271C12.684 8.5851 12.635 8.56585 12.5965 8.5256C12.558 8.48885 12.5387 8.43635 12.495 8.40135C12.446 8.3611 12.383 8.3471 12.3287 8.3121C12.2272 8.2456 12.1292 8.18785 12.0172 8.1441C11.9122 8.1021 11.8125 8.07235 11.704 8.05135C11.5937 8.03035 11.4852 8.0181 11.3715 8.0181C11.2612 8.0181 11.1562 8.03035 11.046 8.05135C10.9357 8.07235 10.8325 8.1021 10.7257 8.14585C10.6155 8.18785 10.5192 8.2456 10.4195 8.3121C10.367 8.3471 10.304 8.3576 10.2532 8.40135C10.2112 8.4381 10.192 8.4871 10.1517 8.5256C10.1115 8.5641 10.0625 8.58335 10.0275 8.6271L6.1775 13.2576H1.75C0.78225 13.2576 0 14.0398 0 15.0076V29.0128C0 29.0478 0.0174985 29.0758 0.0209985 29.1126C0.0262485 29.2299 0.0577484 29.3419 0.0909984 29.4591C0.120748 29.5711 0.146999 29.6813 0.199499 29.7846C0.215249 29.8179 0.213499 29.8528 0.232749 29.8843L7.00525 41.7144V118.226C7.00525 119.194 7.7875 119.976 8.75525 119.976H14.0052C14.973 119.976 15.7552 119.194 15.7552 118.226V41.7091L22.519 29.8808ZM7 16.7576C7.25375 16.7576 7.49 16.6998 7.707 16.6036C7.75775 16.5791 7.798 16.5353 7.847 16.5073C8.0115 16.4128 8.162 16.3096 8.288 16.1713C8.3055 16.1521 8.32825 16.1451 8.344 16.1276L11.3732 12.4841L14.4025 16.1276C14.4182 16.1468 14.4427 16.1538 14.4585 16.1713C14.5845 16.3096 14.735 16.4146 14.8977 16.5073C14.9485 16.5353 14.9887 16.5791 15.0412 16.6036C15.2582 16.6998 15.4945 16.7576 15.7465 16.7576H19.2465V28.5473L12.985 39.4953H9.765L3.4965 28.5456V16.7576H7ZM10.5035 42.9953H12.2535V116.473H10.5035V42.9953Z" fill="#004290"/>
</svg>
