<svg width="250" height="250" viewBox="0 0 250 250" fill="none" xmlns="http://www.w3.org/2000/svg">
<path d="M125 56.25C123.274 56.25 121.875 54.8508 121.875 53.125V28.125C121.875 26.3992 123.274 25 125 25C126.726 25 128.125 26.3992 128.125 28.125V53.125C128.125 54.8508 126.726 56.25 125 56.25Z" fill="#696578"/>
<path d="M151.657 219.225L128.125 204.518V175C128.125 173.274 126.726 171.875 125 171.875C123.274 171.875 121.875 173.274 121.875 175V204.532L98.7158 219.237C97.2588 220.162 96.8275 222.093 97.7525 223.55C98.6775 225.007 100.609 225.438 102.066 224.513L121.875 211.936V221.875C121.875 223.601 123.274 225 125 225C126.726 225 128.125 223.601 128.125 221.875V211.888L148.344 224.525C149.897 225.496 152.006 224.888 152.809 223.246C153.503 221.827 152.995 220.061 151.657 219.225Z" fill="#696578"/>
<path d="M162.498 59.3759C162.028 59.3759 161.551 59.2696 161.103 59.045L125 40.9938L88.8978 59.045C87.354 59.8177 85.4771 59.1907 84.7052 57.6478C83.9333 56.104 84.5587 54.2267 86.1028 53.4552L123.603 34.7052C124.483 34.2649 125.518 34.2649 126.398 34.7052L163.898 53.4552C165.442 54.2271 166.067 56.104 165.295 57.6478C164.748 58.7427 163.644 59.3759 162.498 59.3759Z" fill="#447BD4"/>
<path d="M212.5 65.625H37.5C35.7742 65.625 34.375 67.0242 34.375 68.75V175C34.375 176.726 35.7742 178.125 37.5 178.125H212.5C214.226 178.125 215.625 176.726 215.625 175V68.75C215.625 67.0242 214.226 65.625 212.5 65.625Z" fill="#F0F0F1"/>
<path d="M69.1536 98.0094L66.3008 100.863L84.9957 119.553L87.8485 116.699L69.1536 98.0094Z" fill="#447BD4"/>
<path d="M85.0154 98.1035L66.3284 116.801L69.1824 119.653L87.8694 100.956L85.0154 98.1035Z" fill="#447BD4"/>
<path d="M120.508 131.452L117.655 134.305L136.344 153L139.198 150.147L120.508 131.452Z" fill="#447BD4"/>
<path d="M136.341 131.443L117.654 150.141L120.508 152.993L139.195 134.295L136.341 131.443Z" fill="#447BD4"/>
<path d="M180.771 107.914C174.058 107.914 168.628 102.446 168.628 95.7712C168.628 89.0587 174.058 83.6284 180.771 83.6284C187.483 83.6284 192.914 89.0587 192.914 95.7712C192.914 102.446 187.446 107.914 180.771 107.914ZM180.771 87.6257C176.283 87.6257 172.625 91.2836 172.625 95.7335C172.625 100.221 176.283 103.879 180.771 103.879C185.258 103.879 188.916 100.221 188.916 95.7335C188.879 91.2836 185.258 87.6257 180.771 87.6257Z" fill="#092E69"/>
<path d="M60.8512 166.818L57.3064 164.933C79.5179 123.074 106.933 103.917 155.09 96.6011L155.693 100.561C108.97 107.688 82.3839 126.279 60.8512 166.818Z" fill="#696578"/>
<path d="M147.283 113.571L144.681 111.648L154.222 98.9393L140.872 90.379L142.607 87.6638L158.86 98.1097L147.283 113.571Z" fill="#696578"/>
<path d="M215.625 68.75C215.625 67.0242 214.226 65.625 212.5 65.625H37.5C35.7742 65.625 34.375 67.0242 34.375 68.75V78.125H215.625V68.75Z" fill="#E1E0E4"/>
<path d="M221.875 53.125H28.125C26.3992 53.125 25 54.5242 25 56.25V68.75C25 70.4758 26.3992 71.875 28.125 71.875H221.875C223.601 71.875 225 70.4758 225 68.75V56.25C225 54.5242 223.601 53.125 221.875 53.125Z" fill="#104BA9"/>
<path d="M221.875 65.625H28.125C26.3992 65.625 25 64.2258 25 62.5V68.75C25 70.4758 26.3992 71.875 28.125 71.875H221.875C223.601 71.875 225 70.4758 225 68.75V62.5C225 64.2258 223.601 65.625 221.875 65.625Z" fill="#092E69"/>
</svg>
