<svg width="250" height="250" viewBox="0 0 250 250" fill="none" xmlns="http://www.w3.org/2000/svg">
<path d="M115.454 134.385H115.429V174.17H124.845V143.776L115.454 134.385Z" fill="#104BA9"/>
<path d="M124.845 118.556L115.454 109.166H115.429V134.385H124.845V118.556Z" fill="#104BA9"/>
<path d="M124.845 92.6559L115.429 83.2397V109.166H124.845V92.6559Z" fill="#104BA9"/>
<path d="M124.845 75.1613L115.429 74.9341V83.2395L124.845 92.6557V109.166H115.454L124.845 118.556V134.385H115.454L124.845 143.776V174.17H134.261V75.3885L124.845 75.1613Z" fill="#092E69"/>
<path d="M113.106 71.501H64.8643V83.2649H76.6282H113.106C119.594 83.2649 124.845 78.0141 124.845 71.5262H113.106V71.501Z" fill="#DEDEE0"/>
<path d="M136.609 71.501H184.851V83.2649H136.609C130.121 83.2649 124.87 78.0141 124.87 71.5262H136.609V71.501Z" fill="#DEDEE0"/>
<path d="M134.261 67.9665C134.261 73.1668 130.045 77.3826 124.845 77.3826C119.644 77.3826 115.429 73.1668 115.429 67.9665C115.429 62.7661 119.644 58.5503 124.845 58.5503C130.045 58.5503 134.261 62.7661 134.261 67.9665Z" fill="#787485"/>
<path d="M128.657 67.9672C128.657 70.0625 126.966 71.7791 124.845 71.7791C122.725 71.7791 121.033 70.0877 121.033 67.9672C121.033 65.8719 122.75 64.1553 124.845 64.1553C126.94 64.1553 128.657 65.8719 128.657 67.9672Z" fill="#DEDEE0"/>
<path d="M116.035 58.5505L125.022 43L134.009 58.5505H116.035Z" fill="#A7A7A8"/>
<path d="M115.883 134.359C112.702 134.359 110.128 131.759 110.153 128.578V127.543C110.153 124.363 112.753 121.788 115.934 121.788L133.832 121.838C137.013 121.838 139.588 124.438 139.563 127.594V128.629C139.563 131.81 136.962 134.385 133.782 134.359H115.883Z" fill="#787485"/>
<path d="M116.034 109.216C112.854 109.216 110.279 106.641 110.279 103.461V102.426C110.279 99.2448 112.879 96.6699 116.06 96.6699L133.958 96.6952C137.139 96.6952 139.714 99.2953 139.688 102.476V103.511C139.688 106.692 137.088 109.267 133.907 109.242L116.034 109.216Z" fill="#787485"/>
<path d="M76.098 190.377C71.7307 194.846 69.0295 200.98 69.0295 207.72H124.845V190.377H76.098Z" fill="#104BA9"/>
<path d="M180.686 207.72C180.686 194.012 169.578 182.905 155.87 182.905H124.845H94.0469H93.8701C86.9027 182.905 80.6168 185.783 76.1233 190.377H101.368H124.87V207.72H180.686Z" fill="#092E69"/>
<path d="M147.237 174.17H124.845H115.454L124.189 182.904H124.87H155.896H155.997C155.971 178.083 152.059 174.17 147.237 174.17Z" fill="#A7A7A8"/>
<path d="M115.429 174.17H102.731C97.9094 174.17 93.9965 178.083 93.9965 182.904H124.138L115.429 174.17Z" fill="#DEDEE0"/>
<path d="M66.0506 83.5931V83.2649H65.9496L65.7224 82.5581L63.2484 83.2649H60.926V83.9213L60.7744 83.9718L60.926 84.4262V149.683H63.5009V178.159C79.2281 178.159 91.9766 165.41 91.9766 149.683L66.0506 83.5931ZM66.0506 149.658V99.4971L86.5995 149.658H66.0506Z" fill="#104BA9"/>
<path d="M66.2021 83.9465L61.2542 82.5581L35 149.658C35 165.385 47.7484 178.134 63.4757 178.134V149.658H40.3518L66.2021 83.9465Z" fill="#104BA9"/>
<path d="M51.4595 77.2566C51.4595 83.7444 56.7355 89.0205 63.2233 89.0205V65.4927C56.7355 65.4927 51.4595 70.7688 51.4595 77.2566Z" fill="#A7A7A8"/>
<path d="M63.2235 65.4927V89.0205C69.7113 89.0205 74.9874 83.7444 74.9874 77.2566C74.9874 70.7688 69.7113 65.4927 63.2235 65.4927Z" fill="#787485"/>
<path d="M189.051 83.5931V83.2649H188.925L188.698 82.5581L186.224 83.2649H183.901V83.9213L183.75 83.9718L183.901 84.4262V149.683H186.476V178.159C202.203 178.159 214.952 165.41 214.952 149.683L189.051 83.5931ZM189.051 149.658V99.4971L209.6 149.658H189.051Z" fill="#092E69"/>
<path d="M189.202 83.9465L184.254 82.5581L158 149.658C158 165.385 170.748 178.134 186.476 178.134V149.658H163.352L189.202 83.9465Z" fill="#092E69"/>
<path d="M174.198 77.2566C174.198 83.7444 179.449 89.0205 185.962 89.0205V65.4927C179.474 65.4927 174.198 70.7688 174.198 77.2566Z" fill="#A7A7A8"/>
<path d="M185.962 65.4927V89.0205C192.45 89.0205 197.726 83.7444 197.726 77.2566C197.726 70.7688 192.45 65.4927 185.962 65.4927Z" fill="#787485"/>
</svg>
