<svg width="250" height="250" viewBox="0 0 250 250" fill="none" xmlns="http://www.w3.org/2000/svg">
<path d="M145.552 162.423C145.005 161.539 144.039 161 143 161H107C105.96 161 104.994 161.539 104.447 162.423C103.901 163.307 103.851 164.412 104.316 165.342L113 182.708V218C113 219.657 114.343 221 116 221H134C135.656 221 137 219.657 137 218V182.708L145.683 165.342C146.148 164.412 146.098 163.307 145.552 162.423Z" fill="#A40550"/>
<path opacity="0.5" d="M119 218V182.708L110.317 165.342C109.852 164.412 109.902 163.307 110.448 162.423C110.995 161.539 111.96 161 113 161H107C105.961 161 104.995 161.539 104.448 162.423C103.902 163.307 103.852 164.412 104.317 165.342L113 182.708V218C113 219.657 114.343 221 116 221H122C120.343 221 119 219.657 119 218Z" fill="#840440"/>
<path d="M140 221H110C108.343 221 107 219.657 107 218C107 216.343 108.343 215 110 215H140C141.657 215 143 216.343 143 218C143 219.657 141.657 221 140 221Z" fill="#940548"/>
<path d="M125 62C123.343 62 122 60.6567 122 59V44C122 42.3432 123.343 41 125 41C126.657 41 128 42.3432 128 44V59C128 60.6567 126.657 62 125 62Z" fill="#787485"/>
<path d="M139.684 42.6583L133.684 30.6582C133.175 29.642 132.137 29 131 29H119C117.864 29 116.825 29.642 116.317 30.6582L110.317 42.6583C109.336 44.6203 110.813 47 113 47H137C139.188 47 140.665 44.6206 139.684 42.6583Z" fill="#A40550"/>
<path opacity="0.5" d="M116.31 42.6583L122.31 30.6582C122.818 29.642 123.857 29 124.993 29H119C117.864 29 116.825 29.642 116.317 30.6582L110.317 42.6583C109.336 44.6203 110.813 47 113 47H118.993C116.805 47 115.328 44.6203 116.31 42.6583Z" fill="#840440"/>
<path d="M170 62C168.343 62 167 60.6567 167 59V32C167 30.3432 168.343 29 170 29H188C189.657 29 191 30.3432 191 32C191 33.6568 189.657 35 188 35H173V59C173 60.6567 171.657 62 170 62Z" fill="#787485"/>
<path d="M205.684 42.6583L199.684 30.6582C199.175 29.642 198.137 29 197 29H185C183.864 29 182.825 29.642 182.317 30.6582L176.317 42.6583C175.336 44.6203 176.813 47 179 47H203C205.188 47 206.665 44.6206 205.684 42.6583Z" fill="#A40550"/>
<path opacity="0.5" d="M182.31 42.6583L188.31 30.6582C188.818 29.642 189.857 29 190.993 29H185C183.864 29 182.825 29.642 182.317 30.6582L176.317 42.6583C175.336 44.6203 176.813 47 179 47H184.993C182.806 47 181.328 44.6203 182.31 42.6583Z" fill="#840440"/>
<path d="M80 62C78.3433 62 77 60.6567 77 59V35H62C60.3432 35 59 33.6568 59 32C59 30.3432 60.3432 29 62 29H80C81.6567 29 83 30.3432 83 32V59C83 60.6567 81.6567 62 80 62Z" fill="#787485"/>
<path d="M73.6835 42.6583L67.6835 30.6582C67.1754 29.642 66.1366 29 65.0004 29H53.0004C51.8641 29 50.8254 29.642 50.3173 30.6582L44.3173 42.6583C43.3359 44.6203 44.813 47 47.0004 47H71.0004C73.1878 47 74.6649 44.6206 73.6835 42.6583Z" fill="#A40550"/>
<path opacity="0.5" d="M50.3097 42.6583L56.3097 30.6582C56.8179 29.642 57.8566 29 58.9929 29H53.0004C51.8641 29 50.8254 29.642 50.3172 30.6582L44.3173 42.6583C43.3359 44.6203 44.813 47 47.0004 47H52.9929C50.8055 47 49.3284 44.6203 50.3097 42.6583Z" fill="#840440"/>
<path d="M218 56H32C30.3432 56 29 57.3432 29 59V164C29 165.657 30.3432 167 32 167H218C219.657 167 221 165.657 221 164V59C221 57.3432 219.657 56 218 56Z" fill="#F0F0F1"/>
<path d="M36.5 161C35.6716 161 35 160.328 35 159.5V56H32C30.3432 56 29 57.3432 29 59V164C29 165.657 30.3432 167 32 167H218C219.657 167 221 165.657 221 164V161H36.5Z" fill="#D2D1D6"/>
<path d="M182 77H68C66.3432 77 65 78.3432 65 80V116C65 117.657 66.3432 119 68 119H182C183.657 119 185 117.657 185 116V80C185 78.3432 183.657 77 182 77Z" fill="#F59F3F"/>
<path d="M179 83H71V113H179V83Z" fill="#FFB518"/>
<path d="M125 131H68C66.3432 131 65 129.657 65 128C65 126.343 66.3432 125 68 125H125C126.657 125 128 126.343 128 128C128 129.657 126.657 131 125 131Z" fill="#787485"/>
<path d="M182 131H140C138.343 131 137 129.657 137 128C137 126.343 138.343 125 140 125H182C183.657 125 185 126.343 185 128C185 129.657 183.657 131 182 131Z" fill="#787485"/>
<path d="M92 143H68C66.3432 143 65 141.657 65 140C65 138.343 66.3432 137 68 137H92C93.6567 137 95 138.343 95 140C95 141.657 93.6567 143 92 143Z" fill="#787485"/>
<path d="M134 143H107C105.343 143 104 141.657 104 140C104 138.343 105.343 137 107 137H134C135.657 137 137 138.343 137 140C137 141.657 135.657 143 134 143Z" fill="#787485"/>
<path d="M182 143H149C147.343 143 146 141.657 146 140C146 138.343 147.343 137 149 137H182C183.657 137 185 138.343 185 140C185 141.657 183.657 143 182 143Z" fill="#787485"/>
</svg>
