<svg width="250" height="250" viewBox="0 0 250 250" fill="none" xmlns="http://www.w3.org/2000/svg">
<path d="M199.75 100H49.75C48.0242 100 46.625 101.399 46.625 103.125V221.875C46.625 223.601 48.0242 225 49.75 225H199.75C201.476 225 202.875 223.601 202.875 221.875V103.125C202.875 101.399 201.476 100 199.75 100Z" fill="#F0F0F1"/>
<path d="M143.5 71.875C141.774 71.875 140.375 70.4758 140.375 68.75V53.125C140.375 51.3992 141.774 50 143.5 50C145.226 50 146.625 51.3992 146.625 53.125V68.75C146.625 70.4758 145.226 71.875 143.5 71.875Z" fill="#AF908B"/>
<path d="M106 71.875C104.274 71.875 102.875 70.4758 102.875 68.75V53.125C102.875 51.3992 104.274 50 106 50C107.726 50 109.125 51.3992 109.125 53.125V68.75C109.125 70.4758 107.726 71.875 106 71.875Z" fill="#AF908B"/>
<path d="M156 28.125H93.5V53.125H156V28.125Z" fill="#0784A2"/>
<path d="M156 56.25H93.5C91.7742 56.25 90.375 54.8508 90.375 53.125V28.125C90.375 26.3992 91.7742 25 93.5 25H156C157.726 25 159.125 26.3992 159.125 28.125V53.125C159.125 54.8508 157.726 56.25 156 56.25ZM96.625 50H152.875V31.25H96.625V50Z" fill="#0D7088"/>
<path d="M218.5 103.125H31V70.3785C31.5477 69.3746 32.6 68.75 33.7434 68.75H215.375C216.519 68.75 217.571 69.3746 218.118 70.3785L218.5 103.125Z" fill="#F0F0F1"/>
<path d="M49.75 103.125H31V70.3785C31.5477 69.3746 32.6 68.75 33.7434 68.75H49.75V103.125Z" fill="#A40550"/>
<path d="M87.25 68.75H68.5V103.125H87.25V68.75Z" fill="#A40550"/>
<path d="M124.75 68.75H106V103.125H124.75V68.75Z" fill="#A40550"/>
<path d="M162.25 68.75H143.5V103.125H162.25V68.75Z" fill="#A40550"/>
<path d="M199.75 68.75H181V103.125H199.75V68.75Z" fill="#A40550"/>
<path d="M40.375 115.625C35.1973 115.625 31 111.428 31 106.25V103.125H49.75V106.25C49.75 111.428 45.5527 115.625 40.375 115.625Z" fill="#840440"/>
<path d="M77.875 115.625C72.6973 115.625 68.5 111.428 68.5 106.25V103.125H87.25V106.25C87.25 111.428 83.0527 115.625 77.875 115.625Z" fill="#840440"/>
<path d="M115.375 115.625C110.197 115.625 106 111.428 106 106.25V103.125H124.75V106.25C124.75 111.428 120.553 115.625 115.375 115.625Z" fill="#840440"/>
<path d="M152.875 115.625C147.697 115.625 143.5 111.428 143.5 106.25V103.125H162.25V106.25C162.25 111.428 158.053 115.625 152.875 115.625Z" fill="#840440"/>
<path d="M190.375 115.625C185.197 115.625 181 111.428 181 106.25V103.125H199.75V106.25C199.75 111.428 195.553 115.625 190.375 115.625Z" fill="#840440"/>
<path d="M171.625 115.625C166.447 115.625 162.25 111.428 162.25 106.25V103.125H181V106.25C181 111.428 176.803 115.625 171.625 115.625Z" fill="#D2D1D6"/>
<path d="M209.125 115.625C203.947 115.625 199.75 111.428 199.75 106.25V103.125H218.5V106.25C218.5 111.428 214.303 115.625 209.125 115.625Z" fill="#D2D1D6"/>
<path d="M134.125 115.625C128.947 115.625 124.75 111.428 124.75 106.25V103.125H143.5V106.25C143.5 111.428 139.303 115.625 134.125 115.625Z" fill="#D2D1D6"/>
<path d="M96.625 115.625C91.4473 115.625 87.25 111.428 87.25 106.25V103.125H106V106.25C106 111.428 101.803 115.625 96.625 115.625Z" fill="#D2D1D6"/>
<path d="M59.125 115.625C53.9473 115.625 49.75 111.428 49.75 106.25V103.125H68.5V106.25C68.5 111.428 64.3027 115.625 59.125 115.625Z" fill="#D2D1D6"/>
<path d="M106 131.25H62.25C60.5242 131.25 59.125 132.649 59.125 134.375V225H109.125V134.375C109.125 132.649 107.726 131.25 106 131.25Z" fill="#787485"/>
<path d="M102.875 137.5H65.375V225H102.875V137.5Z" fill="#D2D1D6"/>
<path d="M96.625 181.25C94.8992 181.25 93.5 179.851 93.5 178.125V171.875C93.5 170.149 94.8992 168.75 96.625 168.75C98.3508 168.75 99.75 170.149 99.75 171.875V178.125C99.75 179.851 98.3508 181.25 96.625 181.25Z" fill="#787485"/>
<path d="M187.25 134.375H118.5V187.5H187.25V134.375Z" fill="#D2D1D6"/>
<path d="M187.25 190.625H118.5C116.774 190.625 115.375 189.226 115.375 187.5V134.375C115.375 132.649 116.774 131.25 118.5 131.25H187.25C188.976 131.25 190.375 132.649 190.375 134.375V187.5C190.375 189.226 188.976 190.625 187.25 190.625ZM121.625 184.375H184.125V137.5H121.625V184.375Z" fill="#787485"/>
<path d="M165.375 151.562H158.714L161.725 147.046C162.682 145.61 162.295 143.669 160.858 142.712C159.422 141.755 157.482 142.143 156.525 143.579L152.875 149.054L149.225 143.579C148.268 142.143 146.327 141.755 144.891 142.712C143.455 143.669 143.067 145.61 144.025 147.046L147.036 151.562H140.375C138.649 151.562 137.25 152.962 137.25 154.687V176.562C137.25 178.288 138.649 179.687 140.375 179.687H165.375C167.101 179.687 168.5 178.288 168.5 176.562V154.687C168.5 152.962 167.101 151.562 165.375 151.562ZM162.25 162.5H156V157.812H162.25V162.5ZM149.75 157.812V162.5H143.5V157.812H149.75ZM143.5 168.75H149.75V173.437H143.5V168.75ZM156 173.437V168.75H162.25V173.437H156Z" fill="#A40550"/>
</svg>
