<svg width="120" height="120" viewBox="0 0 120 120" fill="none" xmlns="http://www.w3.org/2000/svg">
<path d="M116.066 38.6146C107.201 15.3537 84.8873 -0.0125931 59.9936 9.91074e-05C54.4569 -0.0100077 48.9461 0.752936 43.6203 2.2666L43.5402 2.29058C28.7591 6.46961 16.1593 16.1883 8.36476 29.4235C8.22678 29.6564 8.13746 29.9152 8.10197 30.1836C7.14413 31.462 6.34918 32.8546 5.73522 34.3293L5.58479 34.6541C-3.04517 53.2417 -1.60124 74.9463 9.41521 92.2268C20.4317 109.507 39.4996 119.978 59.9936 120C73.7708 120.012 87.1283 115.26 97.8025 106.55C98.6673 106.624 99.4799 106.128 99.8082 105.324C99.871 105.139 99.9067 104.946 99.9145 104.751C118.503 88.1942 124.931 61.8754 116.066 38.6146ZM43.3296 6.54083C45.9814 9.7931 49.8889 11.7672 54.0806 11.9722C55.2267 12.0018 56.3733 11.9517 57.5126 11.8217C59.3552 11.4041 61.2852 11.6337 62.9783 12.4716C63.926 12.9784 64.4493 14.0295 64.2822 15.0912C63.8468 15.8908 63.2498 16.5907 62.5291 17.1471C60.7366 18.3629 59.6565 20.3824 59.6408 22.5483C59.7764 23.8967 60.4983 25.1171 61.6145 25.8857C63.2648 26.988 65.2985 27.3563 67.2306 26.9025C68.3011 26.6221 69.3438 26.2448 70.3456 25.7752C71.2564 25.3272 72.2201 24.9965 73.2139 24.7904C75.7532 24.4333 78.3606 26.112 81.0224 28.0215C82.3563 28.9863 84.5284 30.8093 84.0792 32.1932C83.7342 33.2542 82.4386 34.0205 81.0705 34.8346C80.517 35.1616 79.9754 35.4824 79.3495 35.9177C77.1339 37.5952 74.7058 38.9716 72.1287 40.0114C71.1546 40.3355 70.1629 40.6035 69.1581 40.8136C67.0656 41.1796 65.055 41.9136 63.219 42.9819C59.5343 45.3607 59.9837 49.1675 60.2665 51.4558C60.2002 51.4337 60.1281 51.4076 60.0498 51.3736C59.7068 51.2332 59.3698 51.0727 59.0348 50.9162C56.9607 49.5172 54.2741 49.4095 52.0947 50.6386C49.9153 51.8674 48.6171 54.222 48.7412 56.7207C48.7412 61.4803 52.2754 64.2562 55.1156 66.4844L56.1023 67.2666C56.7292 67.8424 57.2933 68.4831 57.7851 69.1779C53.7534 68.163 49.7192 67.1648 45.6822 66.1835C42.2885 65.3632 38.8626 64.3523 37.4584 61.8411C36.9218 60.7033 36.56 59.4909 36.3854 58.245C36.1311 56.2681 35.436 54.3736 34.3515 52.7013C32.2929 50.4038 29.5188 48.8687 26.4789 48.345L26.1117 48.2407C23.103 47.3461 21.4544 46.2692 20.9168 44.8591C20.5816 43.0291 20.8801 41.1396 21.7632 39.5019C22.8971 37.1432 23.2753 34.4919 22.8464 31.9103C22.3962 29.9305 21.0729 28.2612 19.2479 27.3714C18.1636 26.8665 16.9799 26.6122 15.784 26.6272C15.5292 26.6272 15.2704 26.6392 15.0097 26.6594C22.0552 17.0975 31.9807 10.046 43.3296 6.54083ZM51.5653 115.337L51.5834 115.355C50.7965 114.919 50.033 114.441 49.2968 113.923C47.6754 112.913 46.5669 111.255 46.2541 109.37C46.366 108.16 46.7573 106.993 47.3974 105.96C47.8456 105.006 48.177 104 48.3841 102.966C48.5115 102.027 48.8547 101.131 49.3871 100.347C49.9801 99.8059 50.6674 99.3791 51.4149 99.0869C52.2519 98.7163 53.0478 98.2591 53.7896 97.723C55.3901 96.4484 56.7174 94.8644 57.6929 93.0659C58.1642 92.2395 58.5715 91.339 58.9646 90.4586C59.4981 89.0624 60.2421 87.7563 61.171 86.5856C63.1767 84.4735 67.1282 86.0419 68.7289 86.8081C71.7831 88.1798 74.5911 90.0437 77.0408 92.3257L77.2714 92.5624C79.8668 95.3056 82.6287 97.8866 85.5413 100.29C87.9508 102.152 90.5909 103.694 93.396 104.877C81.4109 113.815 66.3464 117.581 51.5653 115.337ZM96.9401 102.023C93.7592 100.846 90.7676 99.2106 88.0605 97.1676C85.2763 94.8635 82.6353 92.392 80.1517 89.7666L79.9211 89.532C77.1557 86.9118 73.9687 84.776 70.4939 83.2141C65.4193 80.7793 60.9705 81.0078 58.2808 83.8438C57.0268 85.3286 56.0283 87.0117 55.3262 88.8239C54.9672 89.6141 54.6182 90.3944 54.2311 91.0763C53.5177 92.4097 52.546 93.5879 51.3728 94.5422C50.8456 94.9093 50.2833 95.2231 49.6941 95.4788C48.472 95.9804 47.3626 96.7208 46.4306 97.657C45.4147 98.9255 44.7462 100.436 44.4909 102.041C44.3513 102.759 44.1327 103.458 43.8391 104.127C42.8834 105.723 42.3365 107.529 42.2467 109.386C42.276 110.843 42.702 112.265 43.4781 113.498C28.0288 108.709 15.4006 97.4811 8.83698 82.6992C2.27337 67.9172 2.41322 51.0205 9.22106 36.3492L9.3736 36.0183C9.91799 34.5806 10.7308 33.2596 11.7686 32.1253C12.1374 31.7575 12.5722 31.462 13.0503 31.255C13.9153 30.8678 14.8506 30.6631 15.7983 30.6532C16.3841 30.6396 16.9658 30.756 17.5013 30.9943C18.2586 31.3762 18.7962 32.0872 18.9574 32.9198C19.1332 34.7143 18.799 36.5218 17.9928 38.1346C16.7124 40.6585 16.4172 43.5683 17.1644 46.2978C18.5103 49.8138 22.2611 51.2901 24.987 52.1003L25.3882 52.2126C27.5556 52.56 29.5635 53.5663 31.1388 55.0947C31.8505 56.3031 32.3023 57.6468 32.4647 59.0399C32.7113 60.6986 33.219 62.3077 33.969 63.8075C36.1593 67.7327 40.6864 69.1105 44.7542 70.0932C49.1189 71.1535 53.4874 72.2354 57.86 73.3384C58.7391 73.6252 59.6883 73.6132 60.5599 73.3043C61.5765 72.9094 62.3044 72.0015 62.4694 70.9236C62.9268 67.885 58.7286 64.2305 58.6585 64.1784L57.6034 63.34C55.1142 61.3865 52.7634 59.5412 52.7634 56.7212C52.7397 55.5366 53.4222 54.4512 54.5004 53.9595C55.2486 53.6485 55.8743 53.8753 57.3326 54.5612C57.7338 54.7497 58.1348 54.9382 58.502 55.0867C60.0604 55.9225 61.9772 55.6812 63.2796 54.485C64.127 53.5392 64.4845 52.2524 64.2464 51.0052C63.9176 48.3316 64.0459 47.2265 65.3937 46.354C66.8492 45.5542 68.4292 45.0056 70.0673 44.7313C71.2211 44.4843 72.3597 44.1702 73.4772 43.7906C76.4362 42.61 79.2235 41.0383 81.7651 39.1173C82.1664 38.8346 82.6297 38.5657 83.0951 38.2909C85.2418 37.3287 86.9502 35.5969 87.8828 33.4371C88.8275 30.5369 87.3051 27.6205 83.3539 24.7704C80.8165 22.9512 76.9694 20.2014 72.6249 20.8252C71.2768 21.0727 69.9685 21.5019 68.7357 22.1008C67.9501 22.4712 67.134 22.7733 66.2965 23.0034C65.4924 23.189 64.6479 23.056 63.9397 22.6322C63.6449 22.4195 63.6287 22.2531 63.6228 22.1911C63.5786 21.6695 64.2246 21.0257 65.2275 20.1011C66.4632 19.1303 67.4361 17.8658 68.0578 16.4227C68.8828 13.586 67.665 10.5525 65.1072 9.07387C62.6781 7.7379 59.857 7.29719 57.1363 7.82839C56.1818 7.94074 55.2209 7.98633 54.26 7.96471C51.8622 7.83473 49.574 6.9183 47.7492 5.3574C72.7156 -0.266203 98.3159 11.7623 109.922 34.5697C121.528 57.3774 116.183 85.152 96.9401 102.023Z" fill="#447BD4"/>
</svg>
