<svg width="120" height="120" viewBox="0 0 120 120" fill="none" xmlns="http://www.w3.org/2000/svg">
<path d="M48.6061 65.6362C48.6061 64.6655 47.8191 63.8784 46.8483 63.8784H7.39406C5.25539 63.8784 3.51562 62.1387 3.51562 60V7.39406C3.51562 5.25539 5.25539 3.51562 7.39406 3.51562H60C62.1387 3.51562 63.8784 5.25539 63.8784 7.39406V46.8483C63.8784 47.8191 64.6655 48.6061 65.6362 48.6061C66.607 48.6061 67.3941 47.8191 67.3941 46.8483V7.39406C67.3941 3.31687 64.0772 0 60 0H7.39406C3.31687 0 0 3.31687 0 7.39406V60C0 64.0772 3.31687 67.3941 7.39406 67.3941H46.8483C47.8191 67.3941 48.6061 66.607 48.6061 65.6362Z" fill="#447BD4"/>
<path d="M112.606 52.6059H97.5757C96.6049 52.6059 95.8179 53.393 95.8179 54.3637C95.8179 55.3345 96.6049 56.1216 97.5757 56.1216H112.606C114.745 56.1216 116.484 57.8613 116.484 60V112.606C116.484 114.745 114.745 116.484 112.606 116.484H60C57.8613 116.484 56.1216 114.745 56.1216 112.606V60C56.1216 57.8613 57.8613 56.1216 60 56.1216H90.0607C91.0315 56.1216 91.8185 55.3345 91.8185 54.3637C91.8185 53.393 91.0315 52.6059 90.0607 52.6059H60C55.9228 52.6059 52.6059 55.9228 52.6059 60V112.606C52.6059 116.683 55.9228 120 60 120H112.606C116.683 120 120 116.683 120 112.606V60C120 55.9228 116.683 52.6059 112.606 52.6059Z" fill="#447BD4"/>
<path d="M50.6061 18.7877H35.4549V16.788C35.4549 15.8173 34.6679 15.0302 33.6971 15.0302C32.7263 15.0302 31.9393 15.8173 31.9393 16.788V18.7877H16.7881C15.8173 18.7877 15.0303 19.5748 15.0303 20.5455C15.0303 21.5163 15.8173 22.3034 16.7881 22.3034H42.6739C41.6616 25.5551 39.1252 32.1127 33.6887 38.6578C30.3685 34.6645 28.1195 30.6502 26.6298 27.3321C26.232 26.4466 25.1923 26.0508 24.3062 26.4483C23.4205 26.846 23.0248 27.8862 23.4223 28.7719C25.0679 32.4373 27.5773 36.8955 31.3198 41.306C28.652 44.0737 25.4213 46.7573 21.5197 49.0985C20.6872 49.598 20.4172 50.6777 20.9169 51.5102C21.2464 52.0596 21.8286 52.3638 22.4258 52.3638C22.7335 52.3638 23.0455 52.283 23.3286 52.113C27.4648 49.6312 30.8813 46.792 33.688 43.9083C36.5262 46.8225 39.946 49.6416 44.0652 52.113C44.3483 52.283 44.6602 52.3638 44.968 52.3638C45.5652 52.3638 46.1473 52.0596 46.4769 51.5102C46.9763 50.6777 46.7063 49.598 45.8741 49.0985C41.9656 46.7536 38.732 44.0719 36.0584 41.302C38.8215 38.0494 40.8481 34.8595 42.2902 32.1816C44.6237 27.848 45.8159 24.2051 46.343 22.3031H50.6061C51.5769 22.3031 52.3639 21.5161 52.3639 20.5453C52.3639 19.5745 51.5771 18.7877 50.6061 18.7877Z" fill="#447BD4"/>
<path d="M88.6954 69.2001C88.3045 68.2498 87.3883 67.6359 86.3608 67.6359C86.3601 67.6359 86.3592 67.6359 86.3582 67.6359C85.3298 67.6369 84.4136 68.2526 84.0243 69.2046C84.0189 69.2177 84.0138 69.2311 84.0086 69.2442L71.3099 102.586C70.9645 103.493 71.4196 104.509 72.3269 104.854C72.5329 104.933 72.7443 104.97 72.9522 104.97C73.6605 104.97 74.3282 104.539 74.5952 103.837L77.3266 96.6654H95.3034L98.0081 103.832C98.351 104.74 99.3646 105.199 100.273 104.856C101.182 104.513 101.64 103.499 101.297 102.591L88.7142 69.2477C88.7083 69.232 88.702 69.2161 88.6954 69.2001ZM78.6658 93.1502L86.3564 72.9574L93.9768 93.1502H78.6658Z" fill="#447BD4"/>
<path d="M47.9032 96.1694L40.3882 90.5332C39.6117 89.9508 38.5097 90.1083 37.9272 90.8848C37.3448 91.6612 37.5023 92.7633 38.2788 93.3457L41.5751 95.8179H35.5758C29.2931 95.8179 24.1821 90.7066 24.1821 84.4242V73.1524C24.1821 72.1816 23.3951 71.3946 22.4243 71.3946C21.4535 71.3946 20.6665 72.1816 20.6665 73.1524V84.4242C20.6665 92.6454 27.3548 99.3335 35.5758 99.3335H41.5751L38.2788 101.806C37.5023 102.388 37.3448 103.49 37.9272 104.267C38.2727 104.727 38.8005 104.97 39.3349 104.97C39.7019 104.97 40.072 104.855 40.3882 104.618L47.9032 98.9819C48.3459 98.6498 48.6063 98.1291 48.6063 97.5757C48.6063 97.0223 48.3459 96.5013 47.9032 96.1694Z" fill="#447BD4"/>
<path d="M72.0968 23.8305L79.6118 29.4668C79.928 29.704 80.2981 29.8184 80.6651 29.8184C81.1995 29.8184 81.7275 29.5755 82.0727 29.1152C82.6552 28.3388 82.4977 27.2367 81.7212 26.6543L78.4249 24.1821H84.4242C90.7069 24.1821 95.8179 29.2934 95.8179 35.5758V46.8476C95.8179 47.8184 96.6049 48.6054 97.5757 48.6054C98.5465 48.6054 99.3335 47.8184 99.3335 46.8476V35.5758C99.3335 27.3546 92.6452 20.6665 84.4242 20.6665H78.4249L81.7212 18.1943C82.4977 17.6119 82.6552 16.5098 82.0727 15.7334C81.4901 14.9566 80.3885 14.7994 79.6118 15.3818L72.0968 21.018C71.6541 21.3502 71.3937 21.8709 71.3937 22.4243C71.3937 22.9777 71.6541 23.4987 72.0968 23.8305Z" fill="#447BD4"/>
</svg>
