<svg width="120" height="120" viewBox="0 0 120 120" fill="none" xmlns="http://www.w3.org/2000/svg">
<g clip-path="url(#clip0)">
<path d="M108.226 91.2582H92.2581V67.4024C92.2581 66.4231 91.465 65.6282 90.4839 65.6282H74.5161V41.7742C74.5161 40.7948 73.7231 40 72.7419 40H37.2581C36.2769 40 35.4839 40.7948 35.4839 41.7742V65.6265H19.5161C18.535 65.6265 17.7419 66.4213 17.7419 67.4006V91.2547H1.77419C0.793065 91.2547 0 92.0495 0 93.0289V118.655C0 119.635 0.793065 120.43 1.77419 120.43H108.226C109.207 120.43 110 119.635 110 118.655V93.0324C110 92.0495 109.207 91.2582 108.226 91.2582ZM88.7097 91.2582H56.7742V69.1766H88.7097V91.2582ZM39.0323 43.5484H70.9677V65.6265H39.0323V43.5484ZM21.2903 69.1766H53.2258V91.2582H21.2903V69.1766ZM3.54839 94.8066H35.4839V116.883H3.54839V94.8066ZM39.0323 94.8066H70.9677V116.883H39.0323V94.8066ZM106.452 116.883H74.5161V94.8066H106.452V116.883Z" fill="#004290"/>
<path d="M66.0887 61.2898C67.0698 61.2898 67.8629 60.495 67.8629 59.5156V46.6527C67.8629 45.6734 67.0698 44.8786 66.0887 44.8786C65.1076 44.8786 64.3145 45.6734 64.3145 46.6527V59.5156C64.3145 60.4986 65.1076 61.2898 66.0887 61.2898Z" fill="#004290"/>
<path d="M83.8306 86.5728C84.8118 86.5728 85.6048 85.7798 85.6048 84.7986V71.9357C85.6048 70.9564 84.8118 70.1615 83.8306 70.1615C82.8495 70.1615 82.0565 70.9564 82.0565 71.9357V84.7986C82.0565 85.7798 82.8495 86.5728 83.8306 86.5728Z" fill="#004290"/>
<path d="M102.016 110.524C102.997 110.524 103.79 109.731 103.79 108.75V96.9445C103.79 95.9651 102.997 95.1703 102.016 95.1703C101.035 95.1703 100.242 95.9651 100.242 96.9445V108.75C100.242 109.731 101.035 110.524 102.016 110.524Z" fill="#004290"/>
</g>
<defs>
<clipPath id="clip0">
<rect width="120" height="120" fill="white"/>
</clipPath>
</defs>
</svg>
