<svg width="39" height="39" viewBox="0 0 39 39" fill="none" xmlns="http://www.w3.org/2000/svg">
<path d="M1.82228 36.4703C0.65071 35.2987 0.65071 33.3992 1.82228 32.2276L32.2279 1.82204C33.3994 0.650466 35.2989 0.650467 36.4705 1.82204C37.6421 2.99361 37.6421 4.89311 36.4705 6.06468L6.06492 36.4703C4.89335 37.6418 2.99386 37.6418 1.82228 36.4703Z" fill="#AA155B"/>
<path d="M2.52959 1.82232C3.70117 0.650749 5.60066 0.650749 6.77223 1.82232L37.1778 32.2279C38.3494 33.3995 38.3494 35.299 37.1778 36.4706C36.0063 37.6421 34.1068 37.6421 32.9352 36.4706L2.52959 6.06496C1.35802 4.89339 1.35802 2.99389 2.52959 1.82232Z" fill="#AA155B"/>
</svg>
