<svg width="140" height="140" viewBox="0 0 140 140" fill="none" xmlns="http://www.w3.org/2000/svg">
<path d="M107.563 103.291H107.498C105.799 103.291 104.411 101.903 104.411 100.205V90.5702C104.411 88.8719 105.799 87.4839 107.498 87.4839H107.563C109.261 87.4839 110.649 88.8719 110.649 90.5702V100.205C110.649 101.903 109.261 103.291 107.563 103.291Z" fill="#FAC48E"/>
<path d="M100.933 103.291H100.868C98.9407 103.291 97.3894 101.739 97.3894 99.8125V88.9533C97.3894 87.0264 98.9407 85.4751 100.868 85.4751H100.933C102.86 85.4751 104.411 87.0264 104.411 88.9533V99.8125C104.411 101.723 102.86 103.291 100.933 103.291Z" fill="#FAC48E"/>
<path d="M93.9114 103.291H93.8461C91.9192 103.291 90.3679 101.739 90.3679 99.8123V86.863C90.3679 84.9361 91.9192 83.3848 93.8461 83.3848H93.9114C95.8383 83.3848 97.3896 84.9361 97.3896 86.863V99.8123C97.3896 101.723 95.8383 103.291 93.9114 103.291Z" fill="#FAC48E"/>
<path d="M88.9307 120.013C88.9143 120.013 88.8817 120.029 88.8654 120.045C86.8568 120.715 84.8156 119.457 84.2278 117.318C81.8763 109.153 78.741 101.544 74.9689 94.5711C74.0054 92.7422 74.6423 90.4887 76.4222 89.411C76.4386 89.3947 76.4712 89.3784 76.4875 89.3784C78.2675 88.3169 80.5699 88.9211 81.5987 90.848C85.5994 98.1637 88.947 106.133 91.4618 114.657C92.0986 116.877 90.9229 119.327 88.9307 120.013Z" fill="#FAC48E"/>
<path d="M10.0752 97.2978C14.828 97.2978 18.6809 93.4449 18.6809 88.6921C18.6809 83.9393 14.828 80.0864 10.0752 80.0864C5.32238 80.0864 1.46948 83.9393 1.46948 88.6921C1.46948 93.4449 5.32238 97.2978 10.0752 97.2978Z" fill="#447BD4"/>
<path d="M10.0754 98.7674C4.5233 98.7674 0 94.2441 0 88.692C0 83.14 4.5233 78.6167 10.0754 78.6167C15.6274 78.6167 20.1507 83.14 20.1507 88.692C20.1507 94.2441 15.6274 98.7674 10.0754 98.7674ZM10.0754 81.556C6.13993 81.556 2.93932 84.7566 2.93932 88.692C2.93932 92.6275 6.13993 95.8281 10.0754 95.8281C14.0108 95.8281 17.2114 92.6275 17.2114 88.692C17.2114 84.7566 14.0108 81.556 10.0754 81.556Z" fill="#092E69"/>
<path d="M44.5301 89.1417C44.5301 90.2463 43.6347 91.1417 42.5301 91.1417H20.3538C19.2492 91.1417 18.3538 90.2463 18.3538 89.1417V88.2428C18.3538 87.1383 19.2492 86.2428 20.3538 86.2428H37.6312C38.7358 86.2428 39.6312 85.3474 39.6312 84.2428V72.4521C39.6312 71.3476 40.5266 70.4521 41.6312 70.4521H42.5301C43.6347 70.4521 44.5301 71.3476 44.5301 72.4521V89.1417Z" fill="#092E69"/>
<path d="M95.7727 69.6521C95.7727 64.9002 91.9189 61.0464 87.167 61.0464C82.4151 61.0464 78.5613 64.9002 78.5613 69.6521C78.5613 74.404 82.4151 78.2578 87.167 78.2578C91.9189 78.2578 95.7727 74.404 95.7727 69.6521Z" fill="#447BD4"/>
<path d="M97.2425 69.6525C97.2425 75.2046 92.7192 79.7279 87.1672 79.7279C81.6151 79.7279 77.0918 75.2046 77.0918 69.6525C77.0918 64.1004 81.6151 59.5771 87.1672 59.5771C92.7192 59.5771 97.2425 64.1004 97.2425 69.6525ZM94.3032 69.6525C94.3032 65.7171 91.1026 62.5165 87.1672 62.5165C83.2317 62.5165 80.0311 65.7171 80.0311 69.6525C80.0311 73.5879 83.2317 76.7885 87.1672 76.7885C91.1026 76.7885 94.3032 73.5879 94.3032 69.6525Z" fill="#092E69"/>
<path d="M89.6166 60.5165C89.6166 61.6211 88.7212 62.5165 87.6166 62.5165H86.7177C85.6131 62.5165 84.7177 61.6211 84.7177 60.5165V48.8564C84.7177 47.7518 83.8223 46.8564 82.7177 46.8564H58.1736C57.069 46.8564 56.1736 45.961 56.1736 44.8564V43.9575C56.1736 42.853 57.069 41.9575 58.1736 41.9575H87.6166C88.7212 41.9575 89.6166 42.853 89.6166 43.9575V60.5165Z" fill="#092E69"/>
<path d="M86.9063 103.29H86.841C84.9141 103.29 83.3628 101.739 83.3628 99.8119V71.7087C83.3628 69.7818 84.9141 68.2305 86.841 68.2305H86.9063C88.8332 68.2305 90.3845 69.7818 90.3845 71.7087V99.8119C90.3682 101.722 88.8169 103.29 86.9063 103.29Z" fill="#FAC48E"/>
<path d="M63.9795 19.1449C63.9795 23.4559 60.485 26.9505 56.1739 26.9505C51.8629 26.9505 48.3684 23.4559 48.3684 19.1449C48.3684 14.8339 51.8629 11.3394 56.1739 11.3394C60.485 11.3394 63.9795 14.8339 63.9795 19.1449Z" fill="#447BD4"/>
<path d="M56.1739 28.2891C51.128 28.2891 47.0293 24.1904 47.0293 19.1446C47.0293 14.0987 51.128 10 56.1739 10C61.2197 10 65.3184 14.0987 65.3184 19.1446C65.3021 24.1904 61.2034 28.2891 56.1739 28.2891ZM56.1739 12.6781C52.5977 12.6781 49.691 15.5847 49.691 19.1609C49.691 22.7371 52.5977 25.6274 56.1739 25.6274C59.75 25.6274 62.6567 22.7207 62.6567 19.1609C62.6404 15.5847 59.7337 12.6781 56.1739 12.6781Z" fill="#092E69"/>
<path d="M56.6232 26.2803H55.7244C54.6198 26.2803 53.7244 27.1757 53.7244 28.2803V108.378C53.7244 109.482 54.6198 110.378 55.7244 110.378H56.6232C57.7278 110.378 58.6232 109.482 58.6232 108.378V28.2803C58.6232 27.1757 57.7278 26.2803 56.6232 26.2803Z" fill="#092E69"/>
<path d="M27.7437 54.1387C33.1999 54.1387 37.6231 49.7155 37.6231 44.2593C37.6231 38.803 33.1999 34.3799 27.7437 34.3799C22.2874 34.3799 17.8643 38.803 17.8643 44.2593C17.8643 49.7155 22.2874 54.1387 27.7437 54.1387Z" fill="#447BD4"/>
<path d="M27.7437 55.8205C21.3752 55.8205 16.1824 50.6276 16.1824 44.2591C16.1824 37.8906 21.3752 32.6978 27.7437 32.6978C34.1123 32.6978 39.3051 37.8906 39.3051 44.2591C39.3051 50.644 34.1286 55.8205 27.7437 55.8205ZM27.7437 36.078C23.2204 36.078 19.5626 39.7522 19.5626 44.2755C19.5626 48.7987 23.2368 52.4566 27.7437 52.4566C32.267 52.4566 35.9248 48.7824 35.9248 44.2755C35.9412 39.7522 32.267 36.078 27.7437 36.078Z" fill="#092E69"/>
<path d="M56.1734 70.7547C56.1734 71.8592 55.278 72.7547 54.1734 72.7547H27.2942C26.1896 72.7547 25.2942 71.8592 25.2942 70.7547V56.1553C25.2942 55.0507 26.1896 54.1553 27.2942 54.1553H28.1931C29.2976 54.1553 30.1931 55.0507 30.1931 56.1553V65.8558C30.1931 66.9604 31.0885 67.8558 32.1931 67.8558H54.1734C55.278 67.8558 56.1734 68.7512 56.1734 69.8558V70.7547Z" fill="#092E69"/>
<path d="M64.7795 111.864C64.7795 116.615 60.9257 120.469 56.1738 120.469C51.4219 120.469 47.5681 116.615 47.5681 111.864C47.5681 107.112 51.4219 103.258 56.1738 103.258C60.9257 103.242 64.7795 107.095 64.7795 111.864Z" fill="#447BD4"/>
<path d="M56.1737 121.939C50.6217 121.939 46.0984 117.416 46.0984 111.864C46.0984 106.312 50.6217 101.789 56.1737 101.789C61.7258 101.789 66.2491 106.312 66.2491 111.864C66.2491 117.416 61.7258 121.939 56.1737 121.939ZM56.1737 104.712C52.2383 104.712 49.0377 107.912 49.0377 111.848C49.0377 115.783 52.2383 118.984 56.1737 118.984C60.1092 118.984 63.3098 115.783 63.3098 111.848C63.3098 107.912 60.1092 104.712 56.1737 104.712Z" fill="#092E69"/>
<path d="M100.427 123.572H93.5851C87.9351 123.572 83.3628 119 83.3628 113.35V104.989H110.666V113.35C110.65 119 106.077 123.572 100.427 123.572Z" fill="#FFCF9F"/>
<path d="M110.65 106.263V100.041C110.65 98.3429 109.261 96.9548 107.563 96.9548H107.498C105.8 96.9548 104.412 98.3429 104.412 100.041V98.9144C104.412 96.9875 102.86 95.4362 100.933 95.4362H100.868C98.9412 95.4362 97.3899 96.9875 97.3899 98.9144V97.8693C97.3899 95.9424 95.8386 94.3911 93.9117 94.3911H93.8464C91.9195 94.3911 90.3682 95.9424 90.3682 97.8693C90.3682 95.9424 88.8168 94.3911 86.89 94.3911H86.8246C84.8977 94.3911 83.3464 95.9424 83.3464 97.8693V106.263H110.65Z" fill="#FFCF9F"/>
<path d="M107.09 121.237H87.1514V140H107.09V121.237Z" fill="#104BA9"/>
</svg>
