<svg width="140" height="140" viewBox="0 0 140 140" fill="none" xmlns="http://www.w3.org/2000/svg">
<g clip-path="url(#clip0)">
<path d="M127.304 84.0763C131.127 49.4098 106.123 18.2083 71.456 14.3859C36.7894 10.5635 5.58794 35.5677 1.76555 70.2342C-2.05684 104.901 22.9473 136.102 57.6139 139.925C92.2804 143.747 123.482 118.743 127.304 84.0763Z" fill="#447BD4"/>
<path opacity="0.3" d="M64.533 140.309C52.7418 128.518 45.0579 97.4002 44.697 77.1609C44.3521 57.7442 52.7418 25.7986 64.533 14.0127C29.6529 14.0127 1.38477 42.2861 1.38477 77.1609C1.38477 112.036 29.6529 140.309 64.533 140.309Z" fill="#F0F0F1"/>
<path d="M87.3564 45.0138C87.6908 45.0881 88.0091 45.3959 88.1312 45.7143C88.2479 46.0115 88.301 46.7438 88.7998 46.696C89.824 46.5952 90.7208 46.0858 90.8959 45.0934C89.9726 43.7084 88.768 43.1937 87.5209 42.1695C86.9107 41.6654 86.3906 41.071 85.7963 40.551C85.6424 40.4183 83.3659 39.0386 83.4614 39.8134C83.6631 41.4584 85.6796 42.6736 85.2869 44.4726C85.2497 44.6424 85.0534 44.7485 84.8889 44.7007C83.4985 44.446 83.3606 44.9289 84.4697 46.1388C84.7456 46.0327 85.0003 45.8947 85.2444 45.7249C85.5097 45.5498 85.7698 45.3375 86.0563 45.1889C86.5286 44.9502 86.8364 44.9024 87.3564 45.0138Z" fill="#092E69"/>
<path d="M127.209 71.2389C126.609 71.2919 125.877 71.7165 125.373 71.9659C124.582 72.3533 123.691 72.2418 123.181 71.4724C122.741 70.8144 122.534 70.0927 122.253 69.3604C121.802 68.1876 121.011 67.1157 120.183 66.187C119.297 65.1894 118.252 64.2873 117.53 63.157C117.02 62.3557 116.49 61.3633 117.084 60.4665C117.461 59.8987 118.469 59.6493 119.048 60.0261C121.069 61.3368 121.786 64.3509 122.783 66.4046C123.208 67.2802 123.988 68.835 125.235 68.4211C126.058 68.1505 126.418 67.3704 126.583 66.5638C126.004 63.1729 125.161 59.8775 124.068 56.6936C124.02 56.6882 123.977 56.6723 123.93 56.667C123.372 56.6352 122.752 56.7148 122.205 56.6087C121.351 56.4335 120.114 55.8551 119.721 55.0167C119.408 54.3534 119.477 53.3027 120.342 53.032C121.361 52.7136 122.221 53.9713 122.614 52.8569C114.441 33.3605 96.7387 18.8417 75.3267 15.1431C75.5973 16.7669 79.0731 17.4037 80.2777 17.8494C82.3367 18.6136 84.6026 19.8871 86.3431 21.2138C87.8555 22.3706 89.336 23.6336 90.6043 25.0611C91.5011 26.0693 92.6208 27.2845 92.6579 28.712C92.6632 28.9349 92.451 29.0622 92.2493 29.0251C91.7187 28.9189 91.3631 28.7279 90.9757 28.3352C90.1691 27.518 89.2405 26.8812 88.1261 26.5522C87.2558 26.2922 86.3537 26.0958 85.4463 26.0215C84.5442 25.8358 84.2046 26.4991 84.4274 28.0115C84.6079 28.2132 84.783 28.4148 84.9634 28.6165C85.6745 29.4867 85.8071 30.3517 85.9027 31.4555C86.0141 32.7768 86.4811 33.5781 87.3779 34.5068C87.6644 34.8039 88.02 35.0905 88.2004 35.4779C88.678 36.4861 88.9115 37.5793 89.3254 38.614C89.9091 40.0787 90.4822 38.7467 91.448 38.8953C92.1803 39.0067 94.9769 40.6305 94.1703 38.561C93.7882 37.574 93.0984 36.7143 92.382 35.9501C91.3525 34.8464 90.0577 33.6259 89.4846 32.2037C89.1025 31.2591 89.4422 29.6406 90.8643 30.0068C91.846 30.2615 92.2599 31.0097 92.8914 31.7314C93.7299 32.6813 94.8336 33.334 95.6455 34.3051C96.7971 35.6795 98.4315 38.1312 97.4126 40.0097C96.6219 41.469 95.1308 41.8033 93.8095 42.6311C92.2918 43.581 92.9074 44.8599 92.0477 46.1547C91.2517 47.354 88.8637 48.2349 88.6462 49.6783C88.4764 50.7873 89.9516 50.729 90.6149 50.989C91.1827 51.2119 91.5436 51.4772 91.9681 51.9229C92.5571 52.5438 92.6792 53.6104 91.8248 54.0668C90.7847 54.6187 87.5795 54.3374 87.5795 55.8657C87.5795 57.4099 87.9457 60.3498 89.7499 60.7053C90.668 60.8857 92.2865 61.1245 92.971 60.2702C93.6131 59.4636 93.5972 58.5084 93.8307 57.5638C93.9952 56.8899 94.2287 56.0886 94.7859 55.6216C95.6402 54.9105 96.0382 54.3162 96.537 53.3026C96.9934 52.3793 98.2192 51.387 99.3336 51.7744C100.687 52.2413 101.759 53.4565 102.841 54.348C103.144 54.5921 103.648 54.8946 103.696 55.3351C103.738 55.5367 103.738 55.7384 103.696 55.9453C104.014 55.9931 104.338 56.0408 104.656 56.0886C104.768 55.4465 104.762 54.815 104.348 54.2791C103.818 53.5839 102.12 52.2891 102.173 51.2862C102.21 50.5326 102.969 50.2832 103.632 50.4318C104.762 50.6865 105.999 51.2119 106.306 52.4324C106.471 53.0851 106.869 53.759 107.511 54.0456C108.424 54.4595 108.71 53.8015 108.201 53.0904C107.819 52.5491 107.463 52.0556 107.278 51.4188C107.219 51.2119 107.384 51.0102 107.591 51.0102C108.307 50.9943 108.97 51.1694 109.49 51.6895C110.127 52.3262 111.284 54.1782 112.138 52.6287C112.956 51.1482 114.505 51.8327 115.19 53.0957C115.742 54.1146 116.569 55.871 115.434 56.8262C114.192 57.8716 112.26 57.8079 111.13 58.9966C110.382 59.782 110.753 60.8486 109.979 61.6181C109.639 61.9577 109.076 62.2867 108.588 62.3504C106.779 62.5839 105.447 61.0609 103.775 60.6151C102.894 60.3816 102.258 59.9093 101.435 59.5538C100.002 58.9329 99.2434 59.851 98.198 60.5992C96.5052 61.8091 94.892 61.7719 92.971 62.3344C90.0683 63.1835 90.5618 65.72 89.8614 68.0284C89.3838 69.5938 88.418 70.5543 87.2187 71.6103C86.099 72.5974 85.2022 73.6905 85.3296 75.2931C85.4092 76.2748 85.5684 77.2565 85.6957 78.2329C85.8018 79.0714 86.0459 80.1115 85.839 80.9552C85.5577 82.0908 85.0271 82.9611 85.4251 84.1922C86.099 86.2671 87.5318 87.4982 89.1821 88.8036C89.8402 89.329 90.5141 89.8543 91.0819 90.4752C91.6072 91.0536 92.26 93.0383 93.4592 92.2688C94.0907 91.8655 94.632 91.2712 95.4014 91.1226C96.2346 90.9634 97.0677 90.9581 97.9114 90.8785C99.514 90.7352 100.055 89.9127 100.91 88.7134C101.17 88.3526 101.658 88.0077 102.072 87.8485C103 87.4982 104.63 87.2223 105.245 88.273C105.585 88.8514 105.293 89.7854 106.285 89.0955C106.699 88.8089 107.076 88.5436 107.585 88.464C109.644 88.1297 109.321 91.5471 108.944 93.1391C109.273 95.3997 111.311 96.9545 111.093 99.3956C111.019 100.234 110.599 101.057 110.244 101.805C109.533 103.301 109.183 104.67 109.161 106.337C109.145 107.642 109.268 109.101 108.891 110.37C108.599 111.357 108.153 112.275 107.771 113.225C107.352 114.275 106.694 115.713 107.129 116.854C107.331 117.38 110.18 116.01 110.43 115.862C114.357 113.538 116.612 109.367 118.469 105.355C119.499 103.126 121.059 101.311 122.428 99.3C123.967 97.0501 124.402 94.7841 124.466 92.1627C124.184 90.8254 123.951 89.4776 123.898 88.1191C123.808 85.8744 124.137 83.773 125.007 81.6928C125.792 79.809 126.8 78.0048 127.485 76.0785C127.485 76.0785 127.485 76.0732 127.49 76.0679C127.437 74.4387 127.358 72.8255 127.209 71.2389ZM112.144 46.9029C111.847 47.1682 111.284 47.2744 111.098 47.6352C110.748 48.2985 110.557 49.4554 109.692 49.6676C107.973 50.0975 106.227 48.8239 107.5 47.1523C108.397 45.969 107.511 44.9342 107.278 43.6818C107.171 43.114 107.463 42.5038 108.074 42.3976C110.053 42.0527 111.326 43.9737 112.091 45.6028C112.271 45.571 112.473 45.6665 112.451 45.9053C112.425 46.2237 112.414 46.6641 112.144 46.9029ZM114.611 45.5975C113.603 44.5468 112.627 43.4112 111.847 42.1801C111.284 41.2939 110.525 40.1052 110.976 39.0333C111.035 38.8953 111.215 38.8635 111.342 38.8847C112.526 39.0863 113.55 40.4714 114.245 41.3363C114.914 42.1695 115.625 43.061 116.118 44.0321C116.909 44.4778 117.567 45.3269 117.153 46.2555C116.66 47.3911 115.03 46.0326 114.611 45.5975Z" fill="#092E69"/>
<path d="M30.587 26.2761C29.0587 27.5656 27.817 28.9453 26.8671 30.723C25.9066 32.522 24.9939 34.1086 23.455 35.4883C21.6614 37.0909 20.1649 38.8686 18.5889 40.6782C17.6231 41.7925 16.4556 42.9122 15.8666 44.2813C15.3943 45.3798 15.1131 46.526 14.9061 47.7041C14.524 49.8904 14.1154 51.9546 13.1125 53.9499C12.3643 55.4464 11.563 56.9057 10.9103 58.4499C10.698 58.9487 10.4645 59.474 10.3425 60.01C10.1992 60.6309 10.9739 60.7529 11.2658 60.27C11.5523 59.7924 11.7965 59.283 12.1095 58.8266C12.2475 58.625 12.5341 58.6091 12.672 58.8266C13.8713 60.7635 13.277 62.8437 12.9745 64.9504C12.7357 66.6114 12.8259 67.9434 13.6325 69.4451C14.2216 70.5489 14.6885 71.7216 15.3359 72.7882C16.7687 75.155 19.629 76.3065 21.3589 78.5087C21.8843 79.1774 22.3141 79.9256 22.6006 80.7269C23.0411 81.9792 23.2321 83.5553 24.2457 84.5105C25.2327 85.4444 26.2303 85.3542 27.4455 85.6302C27.9284 85.7416 28.4909 85.9273 28.751 86.3943C29.5894 87.9067 29.0641 89.5995 28.0611 90.8784C25.9226 93.6059 24.909 96.7209 27.2492 99.7563C28.0293 100.765 28.7881 101.624 29.1649 102.871C29.5363 104.092 29.7804 105.318 30.4225 106.416C30.534 106.347 30.6772 106.342 30.794 106.469C32.7097 108.544 35.3258 109.722 35.5434 112.858C35.6707 114.694 35.3311 116.552 35.5381 118.382C35.745 120.181 35.8512 121.996 36.0528 123.795C36.2385 125.472 36.4986 127.09 37.0398 128.693C37.4909 130.03 38.0481 132.158 39.2315 133.076C40.2715 133.888 41.959 134.562 43.2857 134.583C45.1111 134.61 44.1666 133.182 43.7208 132.524C43.3494 131.983 42.9408 131.415 42.7444 130.779C42.0864 128.619 43.4024 127.128 45.2385 126.13C46.6023 125.387 47.9555 124.734 49.2768 123.917C50.492 123.164 52.9755 123.259 53.2939 121.603C53.4743 120.669 53.4372 119.412 54.1535 118.68C55.0079 117.804 56.0055 117.73 57.1836 117.746C58.1282 117.761 59.4707 117.836 60.1977 117.072C60.548 116.705 60.8186 116.292 61.2272 115.994C61.9436 115.469 62.7502 115.034 62.9412 114.073C63.0951 113.33 63.0792 112.625 63.1376 111.876C63.2543 110.38 63.7319 109.085 65.0426 108.252C66.5073 107.318 68.598 106.527 68.4017 104.405C68.1205 101.354 63.6682 101.078 61.397 100.414C59.3593 99.82 57.433 98.8011 55.459 98.0369C54.4136 97.6336 53.4053 97.1667 52.8163 96.1584C51.7019 94.248 50.6883 92.1413 48.5445 91.1596C47.1382 90.5175 45.7479 89.9073 44.5752 88.8672C43.6731 88.0659 42.8665 87.0152 41.8104 86.4102C40.9667 85.9326 40.0699 85.6408 39.1731 85.3012C37.666 84.7334 36.5516 83.8365 35.2091 82.9822C34.1212 82.287 32.9113 81.6874 31.9084 82.892C31.4892 83.4014 31.1071 83.9321 30.603 84.3672C30.0617 84.8342 29.3082 84.9191 28.7669 84.4521C27.9709 83.7675 27.3606 83.5341 26.3471 83.3271C25.9013 83.2369 25.4078 82.7222 25.2274 82.3295C24.9408 81.698 24.7763 81.093 24.8506 80.3873C24.9461 79.4639 25.4025 78.2593 25.0576 77.3625C24.5588 76.0571 23.0729 76.004 22.3565 74.9586C21.8471 74.2263 22.1337 73.494 22.5582 72.8095C22.5635 72.767 22.5794 72.7246 22.606 72.6768C22.9615 72.1037 23.4444 71.5677 23.715 70.9469C24.2457 69.7423 22.6272 69.5194 21.9904 69.9917C21.7091 70.204 21.4969 70.4481 21.2475 70.6922C20.6956 71.244 19.9367 71.6898 19.1514 71.2812C16.8271 70.066 18.4456 66.3726 18.695 64.441C18.8224 63.4487 18.9073 62.0637 19.8041 61.4163C20.6637 60.7901 22.0488 60.6256 23.0411 60.9811C23.4232 61.1191 23.524 61.4746 23.7362 61.7771C24.3306 62.6208 25.445 62.0902 26.2144 61.9204C27.0369 61.74 27.8807 62.3449 28.2575 63.0454C28.7828 64.0324 28.9049 65.0353 29.1277 66.1179C29.2392 66.6592 29.3453 67.349 29.6531 67.816C30.534 68.145 31.001 67.9805 31.0434 67.3225L31.1177 66.4575C31.0063 65.0566 30.3323 63.6928 31.3777 62.4404C32.4284 61.1828 33.9939 60.6893 35.4691 60.1002C37.1247 59.4369 36.8753 58.1103 37.6819 56.8101C38.2763 55.8603 39.5021 55.7913 40.3777 55.2076C41.5876 54.401 42.7073 53.3874 44.0127 52.7347C44.7078 52.3898 45.6683 51.9228 46.268 52.6498C46.7456 53.2282 47.0852 53.7695 48.0404 53.5042C48.9584 53.2494 49.8764 52.8621 50.6512 52.3049C51.2827 51.8485 51.2562 52.0395 50.5981 51.7901C50.354 51.6999 50.1099 51.6097 49.8658 51.5248C49.4201 51.3656 48.9584 51.217 48.5392 50.9994C48.0191 50.7341 47.2285 50.2459 47.3028 49.5401C47.5256 47.4759 50.699 46.3562 52.3865 47.3591C52.9277 47.6828 53.1453 48.1021 53.278 48.7123C53.5539 49.9647 54.1482 50.8562 55.459 51.0737C56.6954 50.6811 56.9979 50.23 56.3558 49.7153C56.2284 49.6144 56.1011 49.5136 55.9737 49.4181C55.7243 49.2536 55.4696 49.0997 55.2149 48.9458C54.8275 48.707 54.4507 48.4735 54.1376 48.1339C52.9702 46.8603 55.4165 45.4382 54.5568 44.2813C53.8564 43.3314 52.8057 43.1139 52.7526 41.7978C52.7473 41.6227 52.8587 41.5272 52.9861 41.4954C53.0763 40.2483 53.4796 38.6139 53.0232 37.4995C52.7102 36.7407 51.4578 38.4335 50.7945 38.0461C50.3806 37.802 50.2161 37.2183 50.0622 36.7991C49.9507 36.5125 50.0197 36.157 50.0834 35.8704C50.3647 34.6817 48.518 34.3793 47.8599 34.6446C45.87 35.4512 46.1141 37.94 44.936 39.4258C44.3205 40.1953 43.482 40.6888 42.8346 41.4211C42.2827 42.0473 41.9272 42.822 41.37 43.4323C40.8659 43.9842 40.0062 44.2442 39.8523 43.2253C39.7409 42.5195 39.725 41.9411 40.0115 41.2725C40.314 40.5561 41.0251 39.9087 40.9136 39.0597C40.7067 37.4677 39.5923 36.0243 40.2132 34.4058C40.7438 33.0314 42.3836 32.3097 43.7208 32.0974C46.0504 31.7313 48.4914 30.8132 50.2904 29.2319C51.2031 28.4306 52.1477 27.4542 53.4531 27.6717C54.2172 27.7991 54.9973 29.0408 54.8222 29.7838C54.5462 30.9671 53.2673 31.1369 52.5457 31.9595C51.0174 33.7053 53.9413 34.5597 55.0981 33.3551C55.8251 32.5962 56.2125 31.6198 56.4088 30.5957C56.897 28.0432 55.1565 23.92 58.6801 23.0285C61.795 22.2378 62.6281 26.1169 61.7791 28.2714C61.0415 30.1499 60.0279 31.7578 59.9908 33.8327C59.9696 35.101 59.9961 36.2153 60.8717 37.2395C61.5615 38.0461 63.3392 39.9777 64.4165 38.6457C65.1488 37.7383 65.0639 36.5072 65.7325 35.5945C66.1411 35.0373 66.6187 34.5703 67.1918 34.1829C68.7307 33.1428 71.1081 32.1929 70.9064 29.9801C70.5509 26.0267 70.4819 21.9141 67.3351 19.091C67.2343 19.0008 67.2183 18.8894 67.2502 18.7938C66.1199 17.6742 64.634 18.831 63.249 19.1971C61.9914 19.5315 60.6647 19.7809 59.3593 19.6641C57.7302 19.5208 55.7667 18.8522 54.3127 19.9241C53.4531 20.5556 54.594 21.3357 54.6842 22.0149C54.854 23.2567 53.8352 24.3074 52.9436 25.0344C52.3281 25.5385 50.9961 26.69 50.0834 26.3133C49.0858 25.8993 49.3776 24.5303 49.7491 23.7502C49.9507 23.331 50.1789 22.933 50.3753 22.5138C50.5345 22.206 50.6671 21.8823 50.7626 21.548C50.4283 20.2638 49.8871 19.9082 49.1282 20.4813C48.3694 20.9908 47.5946 21.67 46.9472 22.3227C46.0929 23.1824 45.2013 22.275 45.0952 21.2083C44.9838 20.1152 45.6524 19.3298 45.9761 18.3162C46.1353 17.8121 46.0026 17.4141 45.7532 17.0586C41.2426 18.4648 36.9496 20.3646 32.9379 22.6995C32.9432 22.7154 32.9485 22.7313 32.9485 22.7525C32.9909 24.2543 31.6377 25.3899 30.587 26.2761Z" fill="#092E69"/>
<path d="M30.3266 72.1305C29.8862 71.6529 29.4563 71.1806 28.8885 70.841C27.8856 70.236 27.6893 70.772 28.1828 71.69C28.8885 73.0008 30.0295 74.0302 31.2712 74.8262C31.4622 74.9483 31.4994 75.272 31.2712 75.3887C30.8679 75.5904 30.4221 75.861 30.2152 76.2961C30.4964 77.1983 31.0165 77.4211 31.7806 76.9648C32.0831 76.7844 32.3962 76.4819 32.7358 76.3811C33.4204 76.1794 34.0518 76.4819 34.5772 76.9382C34.9009 77.2142 35.2671 77.9412 35.6226 78.1057C36.3071 78.4241 37.4481 78.631 38.2016 78.3869C39.2523 78.042 38.6686 77.0974 37.9681 76.2855C37.931 76.2802 37.8991 76.2802 37.862 76.259C36.2753 75.5373 34.7523 74.6883 33.1816 73.94C32.1309 73.4306 31.1279 73.0008 30.3266 72.1305Z" fill="#092E69"/>
<path d="M49.2395 133.135C49.1387 133.05 49.0379 132.959 48.9317 132.875C48.4329 132.901 47.69 133.023 47.7484 133.495C47.828 134.095 49.1864 133.973 49.542 133.909C49.6322 133.893 49.7861 133.877 49.8763 133.814C49.8604 133.808 49.8551 133.761 49.8073 133.697C49.6481 133.485 49.4358 133.31 49.2395 133.135Z" fill="#092E69"/>
<path opacity="0.5" d="M31.8819 47.0728H26.7505V52.2042H31.8819V47.0728Z" fill="#E1E0E4"/>
<path d="M29.3135 53.0851C31.2185 53.0851 32.7628 51.5408 32.7628 49.6358C32.7628 47.7308 31.2185 46.1865 29.3135 46.1865C27.4086 46.1865 25.8643 47.7308 25.8643 49.6358C25.8643 51.5408 27.4086 53.0851 29.3135 53.0851Z" stroke="#E1E0E4" stroke-width="0.7464" stroke-miterlimit="10"/>
<path opacity="0.5" d="M102.374 79.416H97.2429V84.5475H102.374V79.416Z" fill="#E1E0E4"/>
<path d="M99.806 85.4342C101.711 85.4342 103.255 83.8899 103.255 81.9849C103.255 80.0799 101.711 78.5356 99.806 78.5356C97.901 78.5356 96.3567 80.0799 96.3567 81.9849C96.3567 83.8899 97.901 85.4342 99.806 85.4342Z" stroke="#E1E0E4" stroke-width="0.7464" stroke-miterlimit="10"/>
<path opacity="0.5" d="M44.7926 104.32H39.6611V109.451H44.7926V104.32Z" fill="#E1E0E4"/>
<path d="M42.2242 110.333C44.1292 110.333 45.6735 108.788 45.6735 106.883C45.6735 104.978 44.1292 103.434 42.2242 103.434C40.3192 103.434 38.7749 104.978 38.7749 106.883C38.7749 108.788 40.3192 110.333 42.2242 110.333Z" stroke="#E1E0E4" stroke-width="0.7464" stroke-miterlimit="10"/>
<path opacity="0.5" d="M103.961 41.2412H98.8296V46.3727H103.961V41.2412Z" fill="#E1E0E4"/>
<path d="M101.398 47.253C103.303 47.253 104.848 45.7087 104.848 43.8038C104.848 41.8988 103.303 40.3545 101.398 40.3545C99.4933 40.3545 97.949 41.8988 97.949 43.8038C97.949 45.7087 99.4933 47.253 101.398 47.253Z" stroke="#E1E0E4" stroke-width="0.7464" stroke-miterlimit="10"/>
<path opacity="0.5" d="M116.516 104.32H111.385V109.451H116.516V104.32Z" fill="#E1E0E4"/>
<path d="M113.953 110.333C115.858 110.333 117.403 108.788 117.403 106.883C117.403 104.978 115.858 103.434 113.953 103.434C112.048 103.434 110.504 104.978 110.504 106.883C110.504 108.788 112.048 110.333 113.953 110.333Z" stroke="#E1E0E4" stroke-width="0.7464" stroke-miterlimit="10"/>
<path opacity="0.5" d="M42.2245 71.9717H37.093V77.1031H42.2245V71.9717Z" fill="#E1E0E4"/>
<path d="M39.6612 77.984C41.5662 77.984 43.1105 76.4397 43.1105 74.5347C43.1105 72.6297 41.5662 71.0854 39.6612 71.0854C37.7562 71.0854 36.2119 72.6297 36.2119 74.5347C36.2119 76.4397 37.7562 77.984 39.6612 77.984Z" stroke="#E1E0E4" stroke-width="0.7464" stroke-miterlimit="10"/>
<path opacity="0.5" d="M124.922 64.9614H119.79V70.0929H124.922V64.9614Z" fill="#E1E0E4"/>
<path d="M122.353 70.9733C124.258 70.9733 125.803 69.429 125.803 67.524C125.803 65.619 124.258 64.0747 122.353 64.0747C120.448 64.0747 118.904 65.619 118.904 67.524C118.904 69.429 120.448 70.9733 122.353 70.9733Z" stroke="#E1E0E4" stroke-width="0.7464" stroke-miterlimit="10"/>
<path opacity="0.5" d="M12.8946 88.5654H7.76318V93.6969H12.8946V88.5654Z" fill="#E1E0E4"/>
<path d="M29.9302 50.6669C29.9302 50.5056 29.8732 50.3698 29.7593 50.2593C29.6471 50.1489 29.4569 50.049 29.1887 49.9596C28.8153 49.8456 28.5427 49.6975 28.3709 49.5152C28.2008 49.3311 28.1158 49.098 28.1158 48.8157C28.1158 48.5282 28.1991 48.2925 28.3656 48.1084C28.5339 47.9243 28.7644 47.8148 29.0572 47.7797V47.2038H29.449V47.7823C29.7435 47.8227 29.9722 47.9462 30.1353 48.1531C30.3001 48.3599 30.3824 48.6431 30.3824 49.0024H29.8986C29.8986 48.7552 29.8399 48.5589 29.7224 48.4134C29.605 48.2679 29.4463 48.1952 29.2465 48.1952C29.0379 48.1952 28.8784 48.2495 28.7679 48.3582C28.6575 48.4651 28.6023 48.615 28.6023 48.8078C28.6023 48.9866 28.6601 49.1295 28.7758 49.2364C28.8933 49.3416 29.0852 49.438 29.3517 49.5257C29.6199 49.6116 29.8285 49.7071 29.9775 49.8123C30.1283 49.9157 30.2387 50.0367 30.3088 50.1752C30.3807 50.3137 30.4166 50.4758 30.4166 50.6616C30.4166 50.9579 30.3272 51.1963 30.1484 51.3768C29.9714 51.5574 29.7224 51.6643 29.4016 51.6976V52.1999H29.0125V51.6976C28.6864 51.6678 28.4305 51.5521 28.2447 51.3506C28.0606 51.1472 27.9686 50.872 27.9686 50.5249H28.455C28.455 50.7686 28.519 50.9561 28.647 51.0876C28.775 51.2191 28.9564 51.2848 29.1913 51.2848C29.4209 51.2848 29.6015 51.2296 29.733 51.1192C29.8644 51.0087 29.9302 50.858 29.9302 50.6669Z" fill="#E1E0E4"/>
<path d="M100.425 82.9779C100.425 82.8166 100.368 82.6807 100.254 82.5703C100.142 82.4599 99.9518 82.3599 99.6836 82.2705C99.3102 82.1566 99.0376 82.0085 98.8658 81.8262C98.6958 81.6421 98.6108 81.4089 98.6108 81.1267C98.6108 80.8392 98.694 80.6034 98.8606 80.4194C99.0289 80.2353 99.2594 80.1258 99.5521 80.0907V79.5148H99.9439V80.0933C100.238 80.1336 100.467 80.2572 100.63 80.4641C100.795 80.6709 100.877 80.954 100.877 81.3134H100.394C100.394 81.0662 100.335 80.8699 100.217 80.7244C100.1 80.5789 99.9413 80.5062 99.7414 80.5062C99.5328 80.5062 99.3733 80.5605 99.2629 80.6692C99.1524 80.7761 99.0972 80.926 99.0972 81.1188C99.0972 81.2976 99.1551 81.4405 99.2708 81.5474C99.3882 81.6526 99.5802 81.749 99.8466 81.8367C100.115 81.9226 100.323 82.0181 100.472 82.1233C100.623 82.2267 100.734 82.3477 100.804 82.4862C100.876 82.6246 100.912 82.7868 100.912 82.9726C100.912 83.2689 100.822 83.5073 100.643 83.6878C100.466 83.8684 100.217 83.9753 99.8966 84.0086V84.5109H99.5074V84.0086C99.1814 83.9788 98.9254 83.8631 98.7396 83.6615C98.5555 83.4582 98.4635 83.183 98.4635 82.8359H98.95C98.95 83.0795 99.014 83.2671 99.1419 83.3986C99.2699 83.5301 99.4513 83.5958 99.6862 83.5958C99.9159 83.5958 100.096 83.5406 100.228 83.4301C100.359 83.3197 100.425 83.1689 100.425 82.9779Z" fill="#E1E0E4"/>
<path d="M42.841 107.884C42.841 107.723 42.784 107.587 42.67 107.477C42.5578 107.366 42.3677 107.266 42.0994 107.177C41.7261 107.063 41.4535 106.915 41.2817 106.733C41.1116 106.549 41.0266 106.315 41.0266 106.033C41.0266 105.746 41.1099 105.51 41.2764 105.326C41.4447 105.142 41.6752 105.032 41.968 104.997V104.421H42.3598V105C42.6543 105.04 42.883 105.164 43.0461 105.371C43.2108 105.577 43.2932 105.861 43.2932 106.22H42.8094C42.8094 105.973 42.7507 105.776 42.6332 105.631C42.5158 105.485 42.3571 105.413 42.1573 105.413C41.9487 105.413 41.7892 105.467 41.6787 105.576C41.5683 105.683 41.5131 105.833 41.5131 106.025C41.5131 106.204 41.5709 106.347 41.6866 106.454C41.8041 106.559 41.996 106.656 42.2625 106.743C42.5307 106.829 42.7393 106.925 42.8883 107.03C43.039 107.133 43.1495 107.254 43.2196 107.393C43.2915 107.531 43.3274 107.693 43.3274 107.879C43.3274 108.175 43.238 108.414 43.0592 108.594C42.8822 108.775 42.6332 108.882 42.3124 108.915V109.417H41.9233V108.915C41.5972 108.885 41.3413 108.77 41.1555 108.568C40.9714 108.365 40.8794 108.089 40.8794 107.742H41.3658C41.3658 107.986 41.4298 108.174 41.5578 108.305C41.6857 108.437 41.8672 108.502 42.1021 108.502C42.3317 108.502 42.5123 108.447 42.6437 108.337C42.7752 108.226 42.841 108.075 42.841 107.884Z" fill="#E1E0E4"/>
<path d="M102.013 44.6085C102.013 44.4473 101.957 44.3114 101.843 44.201C101.73 44.0905 101.54 43.9906 101.272 43.9012C100.899 43.7873 100.626 43.6391 100.454 43.4568C100.284 43.2728 100.199 43.0396 100.199 42.7574C100.199 42.4699 100.282 42.2341 100.449 42.0501C100.617 41.866 100.848 41.7564 101.141 41.7214V41.1455H101.532V41.724C101.827 41.7643 102.056 41.8879 102.219 42.0948C102.383 42.3016 102.466 42.5847 102.466 42.9441H101.982C101.982 42.6969 101.923 42.5006 101.806 42.3551C101.688 42.2096 101.53 42.1368 101.33 42.1368C101.121 42.1368 100.962 42.1912 100.851 42.2999C100.741 42.4068 100.686 42.5567 100.686 42.7495C100.686 42.9283 100.743 43.0712 100.859 43.1781C100.977 43.2833 101.169 43.3797 101.435 43.4673C101.703 43.5532 101.912 43.6488 102.061 43.754C102.212 43.8574 102.322 43.9783 102.392 44.1168C102.464 44.2553 102.5 44.4175 102.5 44.6033C102.5 44.8995 102.411 45.1379 102.232 45.3185C102.055 45.4991 101.806 45.606 101.485 45.6393V46.1415H101.096V45.6393C100.77 45.6095 100.514 45.4938 100.328 45.2922C100.144 45.0889 100.052 44.8136 100.052 44.4666H100.538C100.538 44.7102 100.602 44.8978 100.73 45.0293C100.858 45.1607 101.04 45.2265 101.275 45.2265C101.504 45.2265 101.685 45.1713 101.816 45.0608C101.948 44.9504 102.013 44.7996 102.013 44.6085Z" fill="#E1E0E4"/>
<path d="M114.568 107.884C114.568 107.723 114.511 107.587 114.397 107.477C114.285 107.366 114.095 107.266 113.826 107.177C113.453 107.063 113.18 106.915 113.009 106.733C112.839 106.549 112.754 106.315 112.754 106.033C112.754 105.746 112.837 105.51 113.003 105.326C113.172 105.142 113.402 105.032 113.695 104.997V104.421H114.087V105C114.381 105.04 114.61 105.164 114.773 105.371C114.938 105.577 115.02 105.861 115.02 106.22H114.536C114.536 105.973 114.478 105.776 114.36 105.631C114.243 105.485 114.084 105.413 113.884 105.413C113.676 105.413 113.516 105.467 113.406 105.576C113.295 105.683 113.24 105.833 113.24 106.025C113.24 106.204 113.298 106.347 113.414 106.454C113.531 106.559 113.723 106.656 113.989 106.743C114.258 106.829 114.466 106.925 114.615 107.03C114.766 107.133 114.877 107.254 114.947 107.393C115.019 107.531 115.054 107.693 115.054 107.879C115.054 108.175 114.965 108.414 114.786 108.594C114.609 108.775 114.36 108.882 114.039 108.915V109.417H113.65V108.915C113.324 108.885 113.068 108.77 112.882 108.568C112.698 108.365 112.606 108.089 112.606 107.742H113.093C113.093 107.986 113.157 108.174 113.285 108.305C113.413 108.437 113.594 108.502 113.829 108.502C114.059 108.502 114.239 108.447 114.371 108.337C114.502 108.226 114.568 108.075 114.568 107.884Z" fill="#E1E0E4"/>
<path d="M40.2761 75.5734C40.2761 75.4121 40.2191 75.2763 40.1051 75.1658C39.993 75.0554 39.8027 74.9555 39.5345 74.8661C39.1612 74.7521 38.8886 74.604 38.7168 74.4217C38.5467 74.2376 38.4617 74.0045 38.4617 73.7222C38.4617 73.4347 38.545 73.199 38.7115 73.0149C38.8798 72.8308 39.1103 72.7213 39.4031 72.6862V72.1104H39.7949V72.6888C40.0894 72.7292 40.3181 72.8528 40.4812 73.0596C40.6459 73.2665 40.7283 73.5496 40.7283 73.9089H40.2445C40.2445 73.6618 40.1858 73.4654 40.0683 73.3199C39.9509 73.1744 39.7922 73.1017 39.5924 73.1017C39.3838 73.1017 39.2243 73.156 39.1138 73.2647C39.0034 73.3716 38.9482 73.5215 38.9482 73.7143C38.9482 73.8932 39.006 74.036 39.1217 74.143C39.2392 74.2481 39.4311 74.3446 39.6976 74.4322C39.9658 74.5181 40.1744 74.6136 40.3234 74.7188C40.4741 74.8222 40.5846 74.9432 40.6547 75.0817C40.7266 75.2202 40.7625 75.3823 40.7625 75.5681C40.7625 75.8644 40.6731 76.1028 40.4943 76.2834C40.3173 76.4639 40.0683 76.5709 39.7475 76.6042V77.1064H39.3584V76.6042C39.0323 76.5744 38.7764 76.4587 38.5906 76.2571C38.4065 76.0537 38.3145 75.7785 38.3145 75.4314H38.8009C38.8009 75.6751 38.8649 75.8626 38.9929 75.9941C39.1208 76.1256 39.3023 76.1913 39.5372 76.1913C39.7668 76.1913 39.9474 76.1361 40.0788 76.0257C40.2103 75.9152 40.2761 75.7645 40.2761 75.5734Z" fill="#E1E0E4"/>
<path d="M122.97 68.5053C122.97 68.3441 122.913 68.2082 122.799 68.0978C122.687 67.9873 122.497 67.8874 122.229 67.798C121.855 67.6841 121.583 67.5359 121.411 67.3536C121.241 67.1696 121.156 66.9364 121.156 66.6542C121.156 66.3667 121.239 66.1309 121.406 65.9468C121.574 65.7628 121.804 65.6532 122.097 65.6182V65.0423H122.489V65.6208C122.783 65.6611 123.012 65.7847 123.175 65.9915C123.34 66.1984 123.422 66.4815 123.422 66.8409H122.939C122.939 66.5937 122.88 66.3974 122.762 66.2519C122.645 66.1064 122.486 66.0336 122.287 66.0336C122.078 66.0336 121.918 66.088 121.808 66.1966C121.698 66.3036 121.642 66.4535 121.642 66.6463C121.642 66.8251 121.7 66.968 121.816 67.0749C121.933 67.1801 122.125 67.2765 122.392 67.3641C122.66 67.45 122.869 67.5456 123.018 67.6507C123.168 67.7542 123.279 67.8751 123.349 68.0136C123.421 68.1521 123.457 68.3143 123.457 68.5001C123.457 68.7963 123.367 69.0347 123.188 69.2153C123.011 69.3959 122.762 69.5028 122.442 69.5361V70.0383H122.052V69.5361C121.726 69.5063 121.47 69.3906 121.285 69.189C121.101 68.9857 121.009 68.7104 121.009 68.3633H121.495C121.495 68.607 121.559 68.7946 121.687 68.9261C121.815 69.0575 121.996 69.1233 122.231 69.1233C122.461 69.1233 122.641 69.068 122.773 68.9576C122.904 68.8472 122.97 68.6964 122.97 68.5053Z" fill="#E1E0E4"/>
<path d="M10.9428 92.0655C10.9428 91.9043 10.8858 91.7684 10.7719 91.658C10.6597 91.5475 10.4695 91.4476 10.2013 91.3582C9.8279 91.2443 9.55531 91.0961 9.38351 90.9138C9.21347 90.7298 9.12845 90.4966 9.12845 90.2144C9.12845 89.9269 9.21172 89.6911 9.37825 89.5071C9.54654 89.323 9.77706 89.2134 10.0698 89.1784V88.6025H10.4616V89.181C10.7561 89.2213 10.9849 89.3449 11.1479 89.5518C11.3127 89.7586 11.3951 90.0417 11.3951 90.4011H10.9112C10.9112 90.1539 10.8525 89.9576 10.7351 89.8121C10.6176 89.6666 10.459 89.5938 10.2591 89.5938C10.0505 89.5938 9.891 89.6482 9.78057 89.7569C9.67013 89.8638 9.61491 90.0137 9.61491 90.2065C9.61491 90.3853 9.67276 90.5282 9.78845 90.6351C9.9059 90.7403 10.0979 90.8367 10.3643 90.9244C10.6325 91.0102 10.8411 91.1058 10.9901 91.211C11.1409 91.3144 11.2513 91.4353 11.3214 91.5738C11.3933 91.7123 11.4293 91.8745 11.4293 92.0603C11.4293 92.3565 11.3399 92.595 11.161 92.7755C10.984 92.9561 10.7351 93.063 10.4143 93.0963V93.5985H10.0251V93.0963C9.69905 93.0665 9.44311 92.9508 9.2573 92.7492C9.07323 92.5459 8.9812 92.2706 8.9812 91.9236H9.46766C9.46766 92.1672 9.53164 92.3548 9.65961 92.4863C9.78758 92.6177 9.96901 92.6835 10.2039 92.6835C10.4336 92.6835 10.6141 92.6283 10.7456 92.5178C10.8771 92.4074 10.9428 92.2566 10.9428 92.0655Z" fill="#E1E0E4"/>
<path d="M10.3262 94.5777C12.2312 94.5777 13.7755 93.0335 13.7755 91.1285C13.7755 89.2235 12.2312 87.6792 10.3262 87.6792C8.42125 87.6792 6.87695 89.2235 6.87695 91.1285C6.87695 93.0335 8.42125 94.5777 10.3262 94.5777Z" stroke="#E1E0E4" stroke-width="0.7464" stroke-miterlimit="10"/>
<path d="M33.9302 49.3914C56.897 43.9893 80.9571 64.4302 96.1922 78.4025" stroke="#E1E0E4" stroke-width="1.6" stroke-miterlimit="10" stroke-dasharray="3 3"/>
<path d="M43.6624 76.9858C54.7955 86.2617 81.684 84.7069 94.7806 82.9982" stroke="#E1E0E4" stroke-width="1.6" stroke-miterlimit="10" stroke-dasharray="3 3"/>
<path d="M103.271 85.1211C107.872 89.3664 111.406 96.44 112.117 102.808" stroke="#E1E0E4" stroke-width="1.6" stroke-miterlimit="10" stroke-dasharray="3 3"/>
<path d="M115.652 102.808C117.928 92.7466 119.058 81.9371 121.181 72.3853" stroke="#E1E0E4" stroke-width="1.6" stroke-miterlimit="10" stroke-dasharray="3 3"/>
<path d="M101.149 47.9751C101.807 56.4656 100.793 69.3765 100.793 77.867" stroke="#E1E0E4" stroke-width="1.6" stroke-miterlimit="10" stroke-dasharray="3 3"/>
<path d="M41.0091 101.746C40.9985 101.486 40.9879 101.221 40.9773 100.95" stroke="#E1E0E4" stroke-width="1.6" stroke-miterlimit="10"/>
<path d="M40.8923 99.3317C40.5686 93.521 39.8946 86.6384 39.7832 80.7109" stroke="#E1E0E4" stroke-width="1.6" stroke-miterlimit="10" stroke-dasharray="3.06 3.06"/>
<path d="M39.7724 79.8995C39.7724 79.6342 39.7671 79.3688 39.7671 79.1035" stroke="#E1E0E4" stroke-width="1.6" stroke-miterlimit="10"/>
<path d="M13.7651 86.8877C16.2433 76.2746 19.3158 62.1697 26.745 53.6792" stroke="#E1E0E4" stroke-width="1.6" stroke-miterlimit="10" stroke-dasharray="3 3"/>
<path d="M13.7759 94.5776C18.0211 99.1784 31.3672 105.005 37.7351 106.417" stroke="#E1E0E4" stroke-width="1.6" stroke-miterlimit="10" stroke-dasharray="3 3"/>
<path d="M47.0215 106.878C65.7696 105.461 83.9712 98.8968 97.7683 86.5112" stroke="#E1E0E4" stroke-width="1.6" stroke-miterlimit="10" stroke-dasharray="3 3"/>
<path d="M15.5801 89.4352C20.8867 85.1899 30.3058 80.1699 35.8777 76.6357" stroke="#E1E0E4" stroke-width="1.6" stroke-miterlimit="10" stroke-dasharray="3 3"/>
<path d="M96.728 42.3129C76.4728 40.6413 55.4375 34.7881 33.9353 45.1413" stroke="#E1E0E4" stroke-width="1.6" stroke-miterlimit="10" stroke-dasharray="3 3"/>
<path d="M6.87717 87.6787C-3.72006 79.2784 -5.04671 50.6919 24.6701 50.6919" stroke="#E1E0E4" stroke-width="1.6" stroke-miterlimit="10" stroke-dasharray="3 3"/>
<path d="M126.291 64.9608C137.61 50.458 120.783 38.7516 105.855 42.8006" stroke="#E1E0E4" stroke-width="1.6" stroke-miterlimit="10" stroke-dasharray="3 3"/>
<path d="M42.7761 111.653C46.6658 122.972 64.0024 125.095 73.5543 125.095C86.6456 125.095 102.385 120.675 111.586 110.412" stroke="#E1E0E4" stroke-width="1.6" stroke-miterlimit="10" stroke-dasharray="3 3"/>
<path d="M38.775 110.131C30.6401 114.021 20.8441 118.027 11.998 116.61" stroke="#E1E0E4" stroke-width="1.6" stroke-miterlimit="10" stroke-dasharray="3 3"/>
<path d="M27.5889 44.6584C26.326 39.5057 23.0783 31.8536 19.7617 28.208" stroke="#E1E0E4" stroke-width="1.6" stroke-miterlimit="10" stroke-dasharray="3 3"/>
<path d="M102.74 38.8211C104.401 34.8412 105.728 30.8613 106.72 26.8813" stroke="#E1E0E4" stroke-width="1.6" stroke-miterlimit="10" stroke-dasharray="3 3"/>
</g>
<defs>
<clipPath id="clip0">
<rect width="140" height="140" fill="white"/>
</clipPath>
</defs>
</svg>
