<svg width="140" height="140" viewBox="0 0 140 140" fill="none" xmlns="http://www.w3.org/2000/svg">
<g clip-path="url(#clip0)">
<path d="M116.078 119.144H16.8667V133.711H116.078V119.144Z" fill="#092E69"/>
<path d="M119.408 129.102H13.5361C10.1735 129.102 7.45557 126.373 7.45557 123.022V56.0605C7.45557 52.698 10.1843 49.98 13.5361 49.98H119.408C122.771 49.98 125.489 52.7087 125.489 56.0605V123.022C125.5 126.384 122.771 129.102 119.408 129.102Z" fill="#104BA9"/>
<path d="M120.064 55.2227H12.8916V123.043H120.064V55.2227Z" fill="white"/>
<path d="M109.772 123.043C111.201 118.617 111.985 113.89 111.985 108.991C111.985 83.7666 91.5302 63.312 66.3056 63.312C41.0811 63.312 20.6265 83.7666 20.6265 108.991C20.6265 113.901 21.4107 118.617 22.8395 123.043H109.772Z" fill="#09C9CE"/>
<path d="M109.772 123.043C111.201 118.617 111.985 113.89 111.985 108.991C111.985 83.7666 91.5302 63.312 66.3056 63.312C41.0811 63.312 20.6265 83.7666 20.6265 108.991C20.6265 113.901 21.4107 118.617 22.8395 123.043H109.772Z" fill="#447BD4"/>
<path d="M26.6962 94.1014C29.5968 94.1874 27.9531 95.5732 28.0606 97.8722C28.211 100.816 30.5852 100.322 32.1751 102.245C32.6801 102.857 32.7015 103.62 33.1528 104.275C33.8188 105.22 34.8394 105.575 35.8063 106.155C37.4177 107.122 38.6854 109.163 40.3828 109.786C44.7229 111.376 40.1572 104.554 40.3828 103.168C40.5439 102.223 41.253 102.212 40.8662 101.299C40.5117 100.461 39.6737 100.268 38.9647 100.311C38.4598 100.343 37.8367 101.428 37.2136 100.955C36.3756 100.332 37.74 99.5481 37.8689 99.1076C38.3631 97.421 35.903 96.2393 35.0113 97.6574C34.6138 98.2804 35.2691 99.9671 34.0981 99.5911C33.3246 99.344 32.723 96.6905 32.7982 95.9815C33.1205 92.9734 35.3228 92.4148 37.9871 92.3933C39.8456 92.3825 40.791 92.6941 41.1885 94.703C41.5645 96.626 40.7158 97.2598 42.4025 98.3341C44.2825 99.5373 45.5609 98.6887 44.6263 96.4219C44.1536 95.2831 42.7248 93.7684 43.2726 92.3933C43.4768 91.8776 44.2932 91.5016 44.6263 91.0719C45.2601 90.2662 44.6477 90.3628 45.6146 89.7397C46.5385 89.1381 47.4624 89.31 47.8384 87.8597C48.1607 86.6135 47.688 86.5598 48.6227 85.636C50.5027 83.7559 51.9315 86.0979 53.6611 85.1633C53.2959 84.5616 52.9413 83.8956 52.748 83.1973C53.1669 82.6816 57.4319 83.0147 54.9503 80.9735C56.4865 80.0603 56.1965 82.6601 57.4641 82.3915C59.183 82.037 56.2824 80.4793 56.218 80.2C55.9709 78.9968 57.8724 78.986 58.5599 79.448C59.559 80.114 59.1615 82.0693 60.7515 81.7899C60.9341 83.1973 62.6852 82.7031 62.6852 81.6073C62.6852 80.5867 61.4605 80.8123 61.4498 79.5769C61.4283 78.2555 62.4811 78.32 61.7184 77.106C61.2134 76.3003 60.0747 76.7837 60.2788 75.3764C59.6557 75.3334 59.0971 76.4185 58.8822 75.8276C58.3343 74.2806 57.6575 71.0685 55.5626 73.346C54.7032 72.6584 54.3487 71.4337 53.1884 71.4552C51.6629 71.4767 51.8456 73.2493 50.9754 74.2806C50.5779 74.7426 49.9011 75.0219 49.5036 75.516C49.0739 76.0639 49.6325 76.7515 48.6012 76.9341C46.8823 77.2457 47.398 74.9574 47.6236 74.1409C45.056 73.8616 45.9477 71.6593 47.9673 71.6056C48.7193 71.5841 49.8259 72.1642 50.6638 71.5734C51.4158 71.0362 51.158 69.9082 52.2216 69.9082C52.4686 72.6691 54.4346 70.2627 55.7023 70.0586C55.5949 70.3702 55.7023 70.9503 55.5949 71.2618C59.6879 71.8957 55.6378 66.2449 58.4203 65.2243C60.2251 64.5582 60.5581 66.1697 60.4829 67.577C60.4077 69.1884 60.4829 69.876 61.4605 70.9825C62.4918 72.1535 63.4802 73.4212 64.4686 71.2941C64.6512 70.8966 64.5438 69.7148 64.7694 69.4463C65.1669 68.9951 66.3916 69.0917 66.9609 68.6728C68.9162 67.2332 67.7344 64.7731 66.0048 63.3013C60.4614 63.3335 55.1651 64.3541 50.2556 66.2019C49.987 66.5242 49.7722 66.8465 49.697 67.201C49.1705 67.2977 48.6119 67.2869 48.1822 67.0398C39.1796 70.9395 31.681 77.6432 26.7822 86.0657C26.7822 86.3235 26.8036 86.5706 26.8251 86.7854C26.8359 86.8929 26.9111 87.0433 26.954 87.14C27.1582 87.6879 27.6201 89.0522 27.5771 90.0191C27.5342 91.4694 26.4491 92.7263 26.6962 94.1014Z" fill="#092E69"/>
<path d="M109.836 122.828C111.222 118.456 111.985 113.815 111.985 108.991C111.985 97.8614 107.999 87.6663 101.381 79.738C100.221 79.6842 99.2972 80.2536 98.7386 81.575C98.3733 82.4452 98.4808 85.2491 97.2776 85.4855C95.9884 85.7433 94.9356 78.5992 92.368 82.5527C92.0242 83.0791 92.2176 83.7773 91.9383 84.2715C91.5515 84.9698 91.2507 84.9591 90.7351 85.2276C91.5301 83.6699 89.3492 80.071 91.5945 80.1784C92.1102 79.0719 91.3045 77.9117 91.6267 76.7622C92.2498 74.5276 92.7225 76.5258 93.2167 77.5357C93.5068 78.1265 94.6992 80.3611 95.752 79.5876C96.5148 79.0182 95.5694 76.6118 95.6016 75.849C96.5363 76.0101 96.7941 77.3101 97.7825 77.5464C98.513 77.7183 99.0716 77.7398 99.5336 77.6538C93.2812 71.0147 85.0628 66.2555 75.8131 64.3003C75.8883 64.6011 75.9098 64.9664 75.8238 65.5143C75.6627 66.4704 75.1792 66.2985 75.8238 67.2331C76.3395 67.9851 77.7253 68.1355 78.3592 68.7909C78.7674 69.2098 78.8748 69.7148 79.2938 70.1552C79.8309 70.7139 80.6474 70.875 81.0771 71.5948C81.2598 71.9171 81.5283 72.1857 81.6572 72.508C80.6904 72.7013 79.2078 71.1865 78.6492 72.0567C78.0476 73.0129 79.702 74.0335 79.9276 74.721C80.2069 75.559 79.3905 76.9663 80.873 77.0737C82.2481 77.1704 81.7647 75.5912 81.6895 74.7425C83.2472 74.5491 83.4298 75.849 84.0744 76.7085C84.9446 77.8472 86.1586 77.5786 87.0395 78.4595C88.855 80.2644 86.7387 79.7917 85.9437 79.8346C85.1917 79.8776 84.8372 79.6413 84.2356 80.3503C83.4621 81.2635 83.9348 80.7586 84.3215 81.6287C84.6545 82.37 85.4495 84.7227 85.933 85.1632C86.2875 85.4855 89.0054 85.9152 89.8541 85.8507C89.1129 86.5168 88.7476 87.2581 87.9849 88.1712C86.4916 89.9545 87.2543 89.4389 87.5229 91.4478C87.7485 93.1882 86.3519 93.7361 85.89 95.1971C85.3636 96.8838 86.6635 98.8712 86.8783 100.397C87.0717 101.826 87.7807 102.03 88.3609 103.136C88.8121 103.996 88.7584 104.887 89.3922 105.843C90.2946 107.219 92.5721 109.668 94.4844 109.432C95.8165 109.27 95.2794 108.121 96.0958 107.541C96.9553 106.928 98.2229 107.906 98.1477 106.166C98.6527 106.187 99.9311 107.111 100.339 106.939C101.102 106.638 100.791 105.253 100.833 104.597C102.842 104.253 102.488 107.004 102.037 108.014C101.811 108.508 101.156 109.227 101.124 109.743C101.07 110.678 101.671 110.42 102.08 111.301C102.542 112.278 101.961 113.944 101.908 115.05C101.876 115.802 101.682 115.996 101.79 116.769C101.886 117.478 102.413 118.08 102.348 118.799C102.198 120.475 100.329 120.798 99.8559 122.087C99.7377 122.398 99.684 122.71 99.6518 123.021H109.729C109.761 122.968 109.793 122.903 109.836 122.828Z" fill="#092E69"/>
<path d="M75.7807 122.581C76.5327 121.324 76.1567 119.304 74.7064 118.703C73.9544 118.391 72.9123 118.982 72.1818 118.563C71.043 117.919 71.6661 117.392 70.291 117.113C69.4316 116.941 68.6258 117.36 67.7879 117.231C66.907 117.102 66.0046 115.942 64.9088 116.017C63.2114 114.642 63.1684 112.934 62.0189 111.172C60.7835 109.26 60.0207 109.883 58.2696 109.926C56.54 109.969 55.3797 108.282 53.6716 107.885C53.027 107.734 52.5006 107.809 51.899 107.842C51.0933 107.885 50.8999 107.971 49.8793 107.766C49.3529 107.659 48.5042 107.756 48.0208 107.605C47.9671 107.595 47.4729 107.659 47.301 107.616C47.0002 107.541 47.2043 106.81 46.7209 106.778C46.1086 106.724 42.9501 108.379 42.7138 108.83C42.1551 109.894 43.2509 110.334 43.3691 111.172C43.498 112.15 43.1113 112.257 42.6063 112.934C41.6717 114.191 40.9304 115.33 40.8552 116.995C40.8015 118.187 41.3494 118.574 41.7791 119.605C42.2088 120.647 41.994 121.55 42.1336 122.624C42.1551 122.764 42.1981 122.903 42.2303 123.054H75.4369C75.5551 122.893 75.684 122.742 75.7807 122.581Z" fill="#092E69"/>
<path d="M84.5262 60.9597C84.5262 62.1629 83.5486 63.1405 82.3454 63.1405C81.1422 63.1405 80.1646 62.1629 80.1646 60.9597C80.1646 59.7565 81.1422 58.7789 82.3454 58.7789C83.5486 58.7682 84.5262 59.7458 84.5262 60.9597Z" fill="#787485"/>
<path d="M79.7026 63.1406V69.4897C79.7026 70.4029 80.8736 71.1441 82.3239 71.1441H82.3776C83.8279 71.1441 84.9989 70.4029 84.9989 69.4897V63.1406H79.7026Z" fill="#787485"/>
<path d="M79.6701 63.1406C78.4454 63.1406 77.4463 64.2686 77.4463 65.6545V68.8022C77.4463 69.436 77.9405 69.9517 78.5636 69.9517H78.5851C79.1974 69.9517 79.7023 69.436 79.7023 68.8022V63.1406H79.6701Z" fill="#787485"/>
<path d="M84.9985 63.1406V68.8022C84.9985 69.436 85.4927 69.9517 86.1158 69.9517H86.1373C86.7496 69.9517 87.2546 69.436 87.2546 68.8022V65.6545C87.2546 64.2686 86.2555 63.1406 85.0308 63.1406H84.9985Z" fill="#787485"/>
<path d="M79.7026 74.9902C79.7026 75.6132 80.2505 76.1074 80.9273 76.1074H80.9488C81.6256 76.1074 82.1735 75.6025 82.1735 74.9902V69.4575H79.6919V74.9902H79.7026Z" fill="#787485"/>
<path d="M82.5171 69.4575V74.9902C82.5171 75.6132 83.065 76.1074 83.7418 76.1074H83.7633C84.4401 76.1074 84.988 75.6025 84.988 74.9902V69.4575H82.5171Z" fill="#787485"/>
<path d="M95.4735 60.9597C95.4735 62.1629 94.4959 63.1405 93.2926 63.1405C92.0894 63.1405 91.1118 62.1629 91.1118 60.9597C91.1118 59.7565 92.0894 58.7789 93.2926 58.7789C94.4959 58.7682 95.4735 59.7458 95.4735 60.9597Z" fill="#787485"/>
<path d="M90.6392 63.1406V69.4897C90.6392 70.4029 91.8101 71.1441 93.2604 71.1441H93.3142C94.7645 71.1441 95.9355 70.4029 95.9355 69.4897V63.1406H90.6392Z" fill="#787485"/>
<path d="M90.6174 63.1406C89.3927 63.1406 88.3936 64.2686 88.3936 65.6545V68.8022C88.3936 69.436 88.8877 69.9517 89.5108 69.9517H89.5323C90.1447 69.9517 90.6496 69.436 90.6496 68.8022V63.1406H90.6174Z" fill="#787485"/>
<path d="M95.9458 63.1406V68.8022C95.9458 69.436 96.44 69.9517 97.0631 69.9517H97.0846C97.6969 69.9517 98.2018 69.436 98.2018 68.8022V65.6545C98.2018 64.2686 97.2027 63.1406 95.978 63.1406H95.9458Z" fill="#787485"/>
<path d="M90.6387 74.9902C90.6387 75.6132 91.1866 76.1074 91.8634 76.1074H91.8849C92.5617 76.1074 93.1096 75.6025 93.1096 74.9902V69.4575H90.6279V74.9902H90.6387Z" fill="#787485"/>
<path d="M93.4531 69.4575V74.9902C93.4531 75.6132 94.001 76.1074 94.6778 76.1074H94.6993C95.3761 76.1074 95.924 75.6025 95.924 74.9902V69.4575H93.4531Z" fill="#787485"/>
<path d="M106.421 60.9597C106.421 62.1629 105.443 63.1405 104.24 63.1405C103.037 63.1405 102.059 62.1629 102.059 60.9597C102.059 59.7565 103.037 58.7789 104.24 58.7789C105.443 58.7682 106.421 59.7458 106.421 60.9597Z" fill="#787485"/>
<path d="M101.586 63.1406V69.4897C101.586 70.4029 102.757 71.1441 104.208 71.1441H104.261C105.712 71.1441 106.883 70.4029 106.883 69.4897V63.1406H101.586Z" fill="#787485"/>
<path d="M101.565 63.1406C100.34 63.1406 99.3408 64.2686 99.3408 65.6545V68.8022C99.3408 69.436 99.835 69.9517 100.458 69.9517H100.48C101.092 69.9517 101.597 69.436 101.597 68.8022V63.1406H101.565Z" fill="#787485"/>
<path d="M106.893 63.1406V68.8022C106.893 69.436 107.387 69.9517 108.01 69.9517H108.032C108.644 69.9517 109.149 69.436 109.149 68.8022V65.6545C109.149 64.2686 108.15 63.1406 106.925 63.1406H106.893Z" fill="#787485"/>
<path d="M101.586 74.9902C101.586 75.6132 102.134 76.1074 102.811 76.1074H102.832C103.509 76.1074 104.057 75.6025 104.057 74.9902V69.4575H101.575V74.9902H101.586Z" fill="#787485"/>
<path d="M104.401 69.4575V74.9902C104.401 75.6132 104.949 76.1074 105.626 76.1074H105.647C106.324 76.1074 106.872 75.6025 106.872 74.9902V69.4575H104.401Z" fill="#787485"/>
<path d="M117.368 60.9597C117.368 62.1629 116.39 63.1405 115.187 63.1405C113.983 63.1405 113.006 62.1629 113.006 60.9597C113.006 59.7565 113.983 58.7789 115.187 58.7789C116.39 58.7682 117.368 59.7458 117.368 60.9597Z" fill="#787485"/>
<path d="M112.533 63.1406V69.4897C112.533 70.4029 113.704 71.1441 115.154 71.1441H115.208C116.659 71.1441 117.829 70.4029 117.829 69.4897V63.1406H112.533Z" fill="#787485"/>
<path d="M112.511 63.1406C111.287 63.1406 110.288 64.2686 110.288 65.6545V68.8022C110.288 69.436 110.782 69.9517 111.405 69.9517H111.426C112.039 69.9517 112.544 69.436 112.544 68.8022V63.1406H112.511Z" fill="#787485"/>
<path d="M117.84 63.1406V68.8022C117.84 69.436 118.334 69.9517 118.957 69.9517H118.979C119.591 69.9517 120.096 69.436 120.096 68.8022V65.6545C120.096 64.2686 119.097 63.1406 117.872 63.1406H117.84Z" fill="#787485"/>
<path d="M112.533 74.9902C112.533 75.6132 113.081 76.1074 113.757 76.1074H113.779C114.456 76.1074 115.004 75.6025 115.004 74.9902V69.4575H112.522V74.9902H112.533Z" fill="#787485"/>
<path d="M115.347 69.4575V74.9902C115.347 75.6132 115.895 76.1074 116.572 76.1074H116.593C117.27 76.1074 117.818 75.6025 117.818 74.9902V69.4575H115.347Z" fill="#787485"/>
<path d="M87.9857 77.9123C87.9857 79.1155 87.0081 80.0931 85.8049 80.0931C84.6016 80.0931 83.624 79.1155 83.624 77.9123C83.624 76.7091 84.6016 75.7314 85.8049 75.7314C87.0081 75.7314 87.9857 76.6983 87.9857 77.9123Z" fill="#787485"/>
<path d="M83.1514 80.0933V86.4424C83.1514 87.3555 84.3223 88.0968 85.7727 88.0968H85.8264C87.2767 88.0968 88.4477 87.3555 88.4477 86.4424V80.0933H83.1514Z" fill="#787485"/>
<path d="M83.1296 80.0933C81.9049 80.0933 80.9058 81.2213 80.9058 82.6071V85.7548C80.9058 86.3886 81.3999 86.9043 82.023 86.9043H82.0445C82.6569 86.9043 83.1618 86.3886 83.1618 85.7548V80.0933H83.1296Z" fill="#787485"/>
<path d="M88.458 80.0933V85.7548C88.458 86.3886 88.9522 86.9043 89.5753 86.9043H89.5968C90.2091 86.9043 90.714 86.3886 90.714 85.7548V82.6071C90.714 81.2213 89.7149 80.0933 88.4902 80.0933H88.458Z" fill="#787485"/>
<path d="M83.1514 91.9423C83.1514 92.5654 83.6993 93.0596 84.3761 93.0596H84.3975C85.0744 93.0596 85.6222 92.5547 85.6222 91.9423V86.4097H83.1514V91.9423Z" fill="#787485"/>
<path d="M85.9658 86.4097V91.9423C85.9658 92.5654 86.5137 93.0596 87.1905 93.0596H87.212C87.8888 93.0596 88.4367 92.5547 88.4367 91.9423V86.4097H85.9658Z" fill="#787485"/>
<path d="M96.7516 80.0931C97.9561 80.0931 98.9325 79.1167 98.9325 77.9123C98.9325 76.7078 97.9561 75.7314 96.7516 75.7314C95.5472 75.7314 94.5708 76.7078 94.5708 77.9123C94.5708 79.1167 95.5472 80.0931 96.7516 80.0931Z" fill="#787485"/>
<path d="M94.0981 80.0933V86.4424C94.0981 87.3555 95.2691 88.0968 96.7194 88.0968H96.7732C98.2235 88.0968 99.3944 87.3555 99.3944 86.4424V80.0933H94.0981Z" fill="#787485"/>
<path d="M94.0763 80.0933C92.8516 80.0933 91.8525 81.2213 91.8525 82.6071V85.7548C91.8525 86.3886 92.3467 86.9043 92.9698 86.9043H92.9913C93.6036 86.9043 94.1086 86.3886 94.1086 85.7548V80.0933H94.0763Z" fill="#787485"/>
<path d="M99.4048 80.0933V85.7548C99.4048 86.3886 99.899 86.9043 100.522 86.9043H100.544C101.156 86.9043 101.661 86.3886 101.661 85.7548V82.6071C101.661 81.2213 100.662 80.0933 99.437 80.0933H99.4048Z" fill="#787485"/>
<path d="M94.0977 91.9423C94.0977 92.5654 94.6456 93.0596 95.3224 93.0596H95.3438C96.0206 93.0596 96.5685 92.5547 96.5685 91.9423V86.4097H94.0869V91.9423H94.0977Z" fill="#787485"/>
<path d="M96.9121 86.4097V91.9423C96.9121 92.5654 97.46 93.0596 98.1368 93.0596H98.1583C98.8351 93.0596 99.383 92.5547 99.383 91.9423V86.4097H96.9121Z" fill="#787485"/>
<path d="M107.699 80.0931C108.903 80.0931 109.88 79.1167 109.88 77.9123C109.88 76.7078 108.903 75.7314 107.699 75.7314C106.494 75.7314 105.518 76.7078 105.518 77.9123C105.518 79.1167 106.494 80.0931 107.699 80.0931Z" fill="#787485"/>
<path d="M105.045 80.0933V86.4424C105.045 87.3555 106.216 88.0968 107.667 88.0968H107.72C109.171 88.0968 110.342 87.3555 110.342 86.4424V80.0933H105.045Z" fill="#787485"/>
<path d="M105.024 80.0933C103.799 80.0933 102.8 81.2213 102.8 82.6071V85.7548C102.8 86.3886 103.294 86.9043 103.917 86.9043H103.939C104.551 86.9043 105.056 86.3886 105.056 85.7548V80.0933H105.024Z" fill="#787485"/>
<path d="M110.353 80.0933V85.7548C110.353 86.3886 110.847 86.9043 111.47 86.9043H111.491C112.104 86.9043 112.609 86.3886 112.609 85.7548V82.6071C112.609 81.2213 111.609 80.0933 110.385 80.0933H110.353Z" fill="#787485"/>
<path d="M105.045 91.9423C105.045 92.5654 105.593 93.0596 106.27 93.0596H106.292C106.968 93.0596 107.516 92.5547 107.516 91.9423V86.4097H105.035V91.9423H105.045Z" fill="#787485"/>
<path d="M107.86 86.4097V91.9423C107.86 92.5654 108.408 93.0596 109.085 93.0596H109.106C109.783 93.0596 110.331 92.5547 110.331 91.9423V86.4097H107.86Z" fill="#787485"/>
<path d="M116.798 54.6212C105.303 43.1263 86.6641 43.1263 75.1691 54.6212C63.6741 66.1162 63.6741 84.7553 75.1691 96.2503C85.665 106.746 102.102 107.627 113.64 98.9575L132.934 118.306C134.535 119.906 137.145 119.906 138.746 118.306L138.8 118.252C140.401 116.651 140.401 114.041 138.8 112.44L119.505 93.0919C128.175 81.5647 127.294 65.1279 116.798 54.6212ZM112.018 91.4804C103.165 100.333 88.802 100.333 79.939 91.4804C71.0868 82.6175 71.0868 68.2648 79.939 59.4019C88.7912 50.5389 103.155 50.5389 112.018 59.4019C120.881 68.2648 120.881 82.6175 112.018 91.4804Z" fill="#F0F0F1"/>
<path d="M66.4776 131.176H0C0.032229 131.315 -0.161145 135.935 3.30884 138.653C4.60874 139.673 6.45654 140.178 8.33656 140.178H66.4669H124.597C126.488 140.178 128.325 139.673 129.625 138.653C133.106 135.946 132.901 131.315 132.934 131.176H66.4776Z" fill="#104BA9"/>
<path d="M66.4774 131.176H54.6602C54.6709 131.208 54.6279 132.218 55.251 132.809C55.4874 133.034 55.8097 133.142 56.1427 133.142H66.4774H76.8122C77.1452 133.142 77.4783 133.034 77.7039 132.809C78.327 132.218 78.284 131.197 78.2947 131.176H66.4774Z" fill="#104BA9"/>
</g>
<defs>
<clipPath id="clip0">
<rect width="140" height="140" fill="white"/>
</clipPath>
</defs>
</svg>
