<svg width="140" height="140" viewBox="0 0 140 140" fill="none" xmlns="http://www.w3.org/2000/svg">
<g clip-path="url(#clip0)">
<path d="M114.367 96.2753L110.81 67.3859L104.146 68.2062L104.149 68.2016L91.2291 60.9306C89.851 60.1551 88.2694 59.8177 86.6947 59.9632L66.2947 61.8499C63.787 62.0818 61.5462 63.5127 60.281 65.6903L45.9026 90.4385C44.8409 92.2659 45.6743 94.6095 47.6515 95.3563L48.2397 95.5783C49.3712 96.0057 50.5341 96.2531 51.6965 96.3499L49.8746 97.9367L46.2297 101.112L35.8629 109.955C34.0175 111.563 33.8258 114.36 35.4333 116.206L36.485 117.41C38.5494 119.777 42.1426 120.023 44.5144 117.958L48.4765 122.503C49.7647 123.982 51.6519 124.636 53.4651 124.413C54.5547 124.279 55.6178 123.828 56.5057 123.051L60.4634 127.596C61.7562 129.079 63.6432 129.729 65.4564 129.506C66.546 129.371 67.6094 128.924 68.4975 128.148L70.6484 130.007C72.7134 132.378 76.3107 132.623 78.6825 130.558L81.6063 128.008L106.187 108.864L106.214 108.839L115.912 108.83L114.367 96.2753Z" fill="#E59F6A"/>
<path d="M103.832 101.397L103.806 101.421L79.2249 120.565L76.301 123.116C73.9295 125.181 70.3319 124.936 68.2669 122.564L66.1161 120.705C65.228 121.482 64.1643 121.929 63.0749 122.063C61.2618 122.286 59.3751 121.636 58.082 120.153L54.1243 115.609C53.2361 116.385 52.173 116.837 51.0836 116.971C49.2705 117.194 47.3832 116.54 46.0951 115.06L42.133 110.516C40.1024 112.284 37.1789 112.353 35.0835 110.851C34.0089 112.472 34.0948 114.668 35.4343 116.206L36.486 117.41C38.5504 119.778 42.1436 120.023 44.5154 117.958L48.4775 122.503C49.7657 123.982 51.6529 124.637 53.4661 124.413C54.5557 124.279 55.6186 123.828 56.5067 123.051L60.4644 127.596C61.7572 129.079 63.6442 129.729 65.4574 129.506C66.547 129.372 67.6104 128.925 68.4985 128.148L70.6494 130.007C72.7144 132.379 76.3117 132.624 78.6835 130.559L81.6073 128.008L106.188 108.864L106.215 108.84L115.913 108.83L114.84 100.114L103.832 101.397Z" fill="#D69463"/>
<path d="M108.308 113.893L95.1384 102.537L91.476 99.3816L88.8554 97.1246L77.5879 87.4121L78.8892 76.3352C79.3294 72.5889 76.971 69.0815 73.3354 68.0755L48.774 61.2793C46.1752 60.5601 43.4286 61.766 42.1992 64.1659L39.1105 70.1952L25.8521 69.2953L22.456 98.2041L20.98 110.767L33.8856 111.625L33.9124 111.65L60.8738 134.89L63.8119 137.425C66.1949 139.477 69.7908 139.211 71.8427 136.828L75.7747 132.266C76.6669 133.037 77.7331 133.479 78.8235 133.607C80.6378 133.82 82.5212 133.16 83.8058 131.669L87.7384 127.103C88.6306 127.874 89.6962 128.32 90.7867 128.448C92.6009 128.661 94.4846 127.997 95.7646 126.51L99.7012 121.944C102.084 123.995 105.676 123.73 107.727 121.351L108.772 120.14C110.37 118.286 110.163 115.49 108.308 113.893Z" fill="#FFCF9F"/>
<path d="M108.309 113.893L104.297 110.434C105.601 112.163 105.574 114.622 104.103 116.33L102.993 117.615C100.816 120.14 97.0028 120.422 94.4729 118.244L90.2937 123.092C88.935 124.67 86.9354 125.375 85.0093 125.149C83.8518 125.013 82.7206 124.54 81.7734 123.721L77.5986 128.569C76.235 130.151 74.2359 130.852 72.3098 130.626C71.1523 130.49 70.0206 130.021 69.0734 129.202L64.8991 134.045C64.1127 134.959 63.1111 135.574 62.0352 135.892L63.8122 137.425C66.1952 139.477 69.7912 139.211 71.843 136.828L75.7751 132.266C76.6673 133.037 77.7334 133.479 78.8239 133.607C80.6381 133.82 82.5216 133.16 83.8062 131.669L87.7387 127.103C88.6309 127.874 89.6965 128.32 90.787 128.448C92.6012 128.661 94.4849 127.997 95.7649 126.51L99.7016 121.944C102.085 123.996 105.676 123.73 107.728 121.351L108.773 120.14C110.37 118.286 110.163 115.49 108.309 113.893Z" fill="#FAC48E"/>
<path d="M101.035 120.423L93.8183 114.201C92.961 113.461 91.6658 113.557 90.9258 114.415C90.1862 115.272 90.2822 116.567 91.1399 117.307L98.3436 123.519L99.7015 121.944C100.243 122.41 100.85 122.751 101.484 122.98C101.953 122.146 101.787 121.071 101.035 120.423Z" fill="#FAC48E"/>
<path d="M89.4965 128.137C89.9906 127.299 89.8323 126.203 89.0694 125.545L82.5868 119.956C81.729 119.216 80.4343 119.312 79.6944 120.17C78.9547 121.027 79.0507 122.322 79.9085 123.062L86.3911 128.651C86.3939 128.654 86.3966 128.655 86.3993 128.658L87.7386 127.102C88.2726 127.564 88.8698 127.907 89.4965 128.137Z" fill="#FAC48E"/>
<path d="M34.558 111.596L32.9959 113.659C31.2948 115.905 31.7367 119.105 33.983 120.807C36.2293 122.508 39.4293 122.066 41.1306 119.82L42.6928 117.757C44.3938 115.511 43.9519 112.31 41.7057 110.609C39.4594 108.908 36.2591 109.35 34.558 111.596Z" fill="#E59F6A"/>
<path d="M44.0725 115.935L41.1306 119.82C39.4296 122.066 39.8715 125.266 42.1178 126.967C44.364 128.669 47.5641 128.227 49.2654 125.98L52.2073 122.096C53.9083 119.849 53.4665 116.649 51.2202 114.948C48.9736 113.247 45.7736 113.689 44.0725 115.935Z" fill="#E59F6A"/>
<path d="M53.2743 120.686L49.2649 125.981C47.5639 128.227 48.0058 131.427 50.252 133.128C52.4983 134.829 55.6983 134.387 57.3997 132.141L61.4091 126.847C63.1101 124.6 62.6682 121.4 60.4219 119.699C58.1757 117.998 54.9756 118.44 53.2743 120.686Z" fill="#E59F6A"/>
<path d="M61.6418 126.539L57.3997 132.14C55.6986 134.387 56.1405 137.587 58.3868 139.288C60.6331 140.989 63.8331 140.547 65.5344 138.301L69.7765 132.7C71.4776 130.453 71.0357 127.253 68.7894 125.552C66.5429 123.851 63.3428 124.293 61.6418 126.539Z" fill="#E59F6A"/>
<path d="M104.149 68.2016L91.2291 60.9306C89.851 60.1551 88.2695 59.8177 86.6947 59.9632L66.2947 61.8499C63.7871 62.0818 61.5462 63.5127 60.281 65.6903L45.9027 90.4385C44.8409 92.2662 45.6744 94.6095 47.6516 95.3563L48.2397 95.5783C53.5102 97.5689 59.4624 95.875 62.8948 91.4078L68.4038 84.2383C68.4038 84.2383 81.646 99.5707 96.2256 81.6653" fill="#E59F6A"/>
<path d="M139.984 112.693L133.227 57.8005C133.161 57.2607 132.882 56.7694 132.454 56.4347C132.025 56.1 131.481 55.9496 130.941 56.0158L115.14 57.961C111.036 58.4663 108.108 62.2162 108.613 66.3199L114.039 110.398C114.506 114.192 117.747 116.981 121.477 116.981C121.781 116.981 122.089 116.963 122.398 116.925L138.2 114.979C139.324 114.841 140.123 113.817 139.984 112.693Z" fill="#0A3C8C"/>
<path d="M139.985 112.693L139.243 106.668C138.906 107.161 138.369 107.514 137.73 107.593L121.166 109.632C120.842 109.672 120.519 109.691 120.2 109.691C117.411 109.691 114.884 108.203 113.486 105.907L114.039 110.398C114.506 114.192 117.747 116.981 121.477 116.981C121.781 116.981 122.089 116.962 122.398 116.924L138.2 114.979C139.324 114.841 140.123 113.817 139.985 112.693Z" fill="#092E69"/>
<path d="M24.8603 57.9606L9.05893 56.0154C8.51835 55.9489 7.97503 56.0996 7.54628 56.4343C7.11753 56.769 6.83945 57.2603 6.773 57.8001L0.0155683 112.693C-0.122791 113.817 0.676464 114.841 1.80029 114.979L17.6016 116.924C17.9112 116.962 18.2188 116.981 18.5231 116.981C22.2528 116.981 25.4936 114.192 25.9606 110.398L31.3867 66.3196C31.892 62.2158 28.9643 58.4659 24.8603 57.9606Z" fill="#789EDD"/>
<path d="M0.0155725 112.693L0.757406 106.668C1.09373 107.161 1.63076 107.514 2.27006 107.593L18.834 109.632C19.1583 109.672 19.4812 109.691 19.8001 109.691C22.5891 109.691 25.1159 108.203 26.5138 105.907L25.9609 110.398C25.4938 114.192 22.2533 116.981 18.5234 116.981C18.2193 116.981 17.9112 116.962 17.6019 116.924L1.80057 114.979C0.676195 114.841 -0.122786 113.817 0.0155725 112.693Z" fill="#447BD4"/>
<path d="M126.874 107.868C129.064 107.868 130.839 106.093 130.839 103.904C130.839 101.714 129.064 99.9395 126.874 99.9395C124.685 99.9395 122.91 101.714 122.91 103.904C122.91 106.093 124.685 107.868 126.874 107.868Z" fill="#EBEEF2"/>
<path d="M12.9032 107.868C15.0927 107.868 16.8675 106.093 16.8675 103.904C16.8675 101.714 15.0927 99.9395 12.9032 99.9395C10.7138 99.9395 8.93896 101.714 8.93896 103.904C8.93896 106.093 10.7138 107.868 12.9032 107.868Z" fill="#EBEEF2"/>
</g>
<defs>
<clipPath id="clip0">
<rect width="140" height="140" fill="white"/>
</clipPath>
</defs>
</svg>
