<svg width="1505" height="2034" viewBox="0 0 1505 2034" fill="none" xmlns="http://www.w3.org/2000/svg">
<path fill-rule="evenodd" clip-rule="evenodd" d="M1235.71 167.619C1073.25 71.054 737.117 -18.1353 526.685 3.18417C211.036 35.7904 -163.785 455.892 76.4211 646.53C191.806 738.104 448.137 710.638 448.137 710.638C676.341 666.111 681.552 650.635 889.117 779.613C961.84 826.014 1054.68 842.317 1144.42 831.03C1331.64 810.965 1477.09 669.253 1501.85 520.017C1526.6 363.256 1378.06 251.642 1235.71 167.619Z" fill="#0755A3"/>
<path d="M295.846 1798.52C231.977 1836.81 126.522 1961 126.522 1961C106.189 1985.33 93.5225 2034 205.522 2034C345.522 2034 585.522 1997.5 705.022 2000C824.522 2002.5 1038.52 2034 1084.02 2034C1129.52 2034 1271.47 2024 1287.98 1961C1287.98 1961 1373.38 1720.89 1211.73 1751.81C1050.08 1782.74 970.647 1621.43 838.963 1632.55C702.985 1644.03 743.512 1760.06 583.732 1813.66C509.989 1838.39 359.715 1760.22 295.846 1798.52Z" fill="#E34F1B"/>
</svg>
