<svg width="250" height="250" viewBox="0 0 250 250" fill="none" xmlns="http://www.w3.org/2000/svg">
<path d="M182.213 66.0974C165.387 49.2722 142.981 39.9707 119.17 39.9707C95.358 39.9707 72.9933 49.2308 56.1267 66.0974C39.3015 82.9226 30 105.329 30 129.14C30 152.952 39.2601 175.358 56.1267 192.183C72.9519 209.009 95.358 218.31 119.17 218.31C142.981 218.31 165.346 209.05 182.213 192.183C199.038 175.358 208.339 152.952 208.339 129.14C208.339 105.329 199.079 82.964 182.213 66.0974Z" fill="#004290"/>
<path d="M209.042 121.079C206.686 106.486 203.833 96.2751 194.863 80.8555C191.555 75.1506 187.421 69.8178 179.815 69.3217L162.204 68.1642C157.037 67.8335 152.076 69.5284 148.231 72.9182C144.345 76.3081 142.072 81.0622 141.741 86.1883L140.708 103.344C140.418 108.181 141.948 112.894 145.007 116.656C148.066 120.418 152.365 122.857 157.161 123.559L162.121 124.262C166.834 124.924 170.803 127.9 172.746 132.241L181.551 159.566C181.592 159.649 181.634 159.732 181.675 159.856C182.75 162.253 185.024 163.783 187.669 163.824C187.711 163.824 187.752 163.824 187.835 163.824C190.398 163.824 192.672 162.419 193.829 160.104C195.111 157.541 197.054 155.06 199.12 152.373C204.619 145.221 211.522 136.375 209.042 121.079Z" fill="#0050AF"/>
<path d="M131.117 41.3347C130.786 40.3012 129.877 39.5571 128.802 39.4331C128.306 39.3918 116.979 38.317 109.413 39.4331C108.504 39.5571 107.76 40.1359 107.388 40.9627C106.189 43.6911 103.585 50.3881 105.817 53.8606C106.685 55.1835 108.091 55.9276 109.827 55.9276C115.366 55.9276 126.859 46.8742 130.249 44.1045C131.075 43.4844 131.406 42.3682 131.117 41.3347Z" fill="#0050AF"/>
<path d="M110.282 153.159C112.1 149.521 111.894 145.346 109.785 141.873C107.677 138.442 103.957 136.375 99.9466 136.375H90.6452C89.9838 136.375 89.3637 136.292 88.7436 136.086L66.9163 129.058C63.5264 127.983 59.8885 128.479 56.912 130.463C53.9356 132.448 52.0753 135.59 51.7859 139.145L50.5044 154.895C50.1737 158.946 52.034 162.956 55.3825 165.313L65.4694 172.423C66.5855 173.209 67.4537 174.366 67.8258 175.689L71.3396 187.181C72.2078 189.951 74.0266 192.308 76.5484 193.796L94.8205 204.544C95.9367 205.206 97.1356 205.495 98.3344 205.495C99.988 205.495 101.6 204.875 102.882 203.717C105.156 201.692 105.817 198.55 104.535 195.78L98.3344 182.138C97.549 180.402 97.5903 178.459 98.4171 176.764L110.282 153.159Z" fill="#0050AF"/>
<path d="M95.9366 65.1052C91.6786 61.2606 87.0899 64.0718 83.4107 66.3454C80.9303 67.8337 78.4086 69.4046 75.9282 69.4459C75.7628 69.4459 75.5975 69.4459 75.4322 69.4459C76.1349 68.1644 77.7886 66.1801 78.7394 64.9812C79.1941 64.4025 79.6488 63.8651 80.0622 63.3277C82.7493 59.8965 85.147 53.4474 82.584 50.3056C82.0879 49.6855 80.1863 47.8253 76.7964 49.5202C72.4144 51.7112 47.9827 67.7096 37.3997 91.1492C32.8524 101.195 34.9192 112.026 43.3525 122.443C49.4708 130.009 56.788 134.68 57.1187 134.887C57.5734 135.176 58.0695 135.3 58.5242 135.3C59.227 135.3 59.9298 135.011 60.4258 134.473C61.294 133.564 61.418 132.158 60.7152 131.125C58.6069 127.983 59.1444 126.536 60.0952 123.932C60.7566 122.154 61.5833 119.922 61.3353 117.069C61.17 115.085 60.5913 113.473 59.8471 112.15C63.0303 114.175 65.8413 115.664 68.1563 114.961C71.2981 114.01 72.8278 109.669 74.9361 103.592C76.1763 100.037 77.5818 96.0273 79.1527 93.671C80.889 91.0666 82.6252 90.9012 85.7257 90.6532C87.7927 90.4878 90.1491 90.2811 92.7535 89.2063C96.1433 87.8007 98.6651 83.9561 99.5332 78.954C100.443 73.3732 99.0371 67.9163 95.9366 65.1052Z" fill="#0050AF"/>
<path d="M183.494 102.642C182.006 102.642 180.807 101.443 180.807 99.9547V33.7286C180.807 32.2403 182.006 31.0415 183.494 31.0415C184.982 31.0415 186.181 32.2403 186.181 33.7286V99.9547C186.14 101.443 184.941 102.642 183.494 102.642Z" fill="white"/>
<path d="M210.613 45.7996L220.121 35.5061C220.824 34.7206 221.031 33.6044 220.617 32.6122C220.204 31.6614 219.212 31 218.178 31H183.535C182.047 31 180.848 32.1989 180.848 33.6871V57.8708C180.848 59.359 182.047 60.5579 183.535 60.5579H218.178C219.253 60.5579 220.204 59.9378 220.617 58.9457C221.031 57.9948 220.865 56.8373 220.121 56.0518L210.613 45.7996Z" fill="#F15317"/>
<path d="M97.094 165.147C96.1432 165.147 95.2751 164.651 94.779 163.783L50.7937 85.7752C50.339 84.9897 50.3389 84.0802 50.7523 83.2535L54.5556 75.647C55.093 74.5308 56.3745 73.9521 57.5733 74.2414L174.069 102.228C174.771 102.394 175.391 102.848 175.763 103.469L184.073 117.648C184.445 118.268 184.527 119.054 184.321 119.715C184.114 120.418 183.618 120.997 182.998 121.327L110.075 159.236C110.033 159.236 110.033 159.277 109.992 159.277L98.2515 164.858C97.8795 165.065 97.5074 165.147 97.094 165.147ZM56.1678 84.3696L98.2103 158.988L107.636 154.482L177.996 117.896L171.712 107.106L58.4002 79.9049L56.1678 84.3696Z" fill="white"/>
<path d="M47.4453 63.7412C40.2522 63.7412 34.382 69.6115 34.382 76.8046C34.382 83.9977 40.2522 89.8679 47.4453 89.8679C54.6384 89.8679 60.5087 83.9977 60.5087 76.8046C60.5087 69.6115 54.6384 63.7412 47.4453 63.7412Z" fill="#013177"/>
<path d="M181.758 96.3994C174.565 96.3994 168.694 102.27 168.694 109.463C168.694 116.656 174.565 122.526 181.758 122.526C188.951 122.526 194.821 116.656 194.821 109.463C194.821 102.27 188.951 96.3994 181.758 96.3994Z" fill="#013177"/>
<path d="M101.146 149.397C93.9524 149.397 88.0822 155.267 88.0822 162.46C88.0822 169.653 93.9524 175.524 101.146 175.524C108.339 175.524 114.209 169.653 114.209 162.46C114.209 155.267 108.339 149.397 101.146 149.397Z" fill="#013177"/>
</svg>
