<svg width="250" height="250" viewBox="0 0 250 250" fill="none" xmlns="http://www.w3.org/2000/svg">
<path d="M220.925 128.41L194.171 126.249V77.3897H180.018C166.4 53.2776 140.545 37 110.877 37C67.0469 37 31.5232 72.5328 31.5232 116.363C31.5232 119.577 31.7229 122.763 32.1042 125.886L22 140.021H227.28C227.271 140.021 230.448 136.236 220.925 128.41Z" fill="#F15317"/>
<path d="M220.925 128.41L194.171 126.249V116.427C193.409 117.643 192.537 118.769 191.502 119.776C185.429 125.65 176.704 126.649 168.706 127.529C160.908 128.392 151.748 130.607 144.331 127.003C128.035 119.086 146.746 93.8305 127.999 88.5196C124.304 87.4756 115.217 87.2396 102.988 87.9205C96.4244 88.2837 88.9802 89.3822 84.8041 95.0834C80.4465 101.03 80.4556 109.128 80.5464 116.163C80.5918 119.54 81.5541 128.592 76.6154 129.3C70.4512 130.18 58.7311 126.367 56.4342 120.875C53.4293 113.694 54.437 105.224 56.1982 97.8613C57.9957 90.3807 60.7283 82.8456 64.7591 76.2638C70.0336 67.6121 77.033 59.9864 84.9948 53.7405C94.2456 46.4778 104.931 40.6676 116.261 37.1997C114.481 37.0817 112.684 37.0181 110.877 37.0181C67.0469 37.0181 31.5232 72.5508 31.5232 116.381C31.5232 119.595 31.7229 122.781 32.1042 125.904L22 140.039H227.28C227.271 140.021 230.448 136.236 220.925 128.41Z" fill="#D94912"/>
<path d="M180.018 77.3896V94.7928" stroke="#D94912" stroke-width="4.198" stroke-miterlimit="10"/>
<path d="M124.885 106.159H87.6455V140.022H124.885V106.159Z" fill="#B63504"/>
<path d="M180.808 140.021H36.6525V149.871H180.808V140.021Z" fill="#F18427"/>
<path d="M138.512 149.872L117.296 166.331H108.735H100.165L78.9576 149.872H62.0264L99.2568 179.494V212.54H118.203V179.494L155.434 149.872H138.512Z" fill="#002A68"/>
<path d="M116.279 197.723H101.2V212.539H116.279V197.723Z" fill="white" stroke="#B2B2B2" stroke-width="4.377" stroke-miterlimit="10"/>
<path d="M108.735 197.723V205.131" stroke="#B2B2B2" stroke-width="4.377" stroke-miterlimit="10"/>
</svg>
