<svg width="250" height="250" viewBox="0 0 250 250" fill="none" xmlns="http://www.w3.org/2000/svg">
<path d="M207 88.6959V234.926H43V43.3765H207V88.6959Z" fill="#023B7E"/>
<path d="M198.036 48.1484H51.9537V227.055H198.036V48.1484Z" fill="white"/>
<path d="M64.6266 167.104H185.373" stroke="#415473" stroke-width="1.9622" stroke-miterlimit="10"/>
<path d="M64.6266 201.384H162.97" stroke="#415473" stroke-width="1.9622" stroke-miterlimit="10"/>
<path d="M64.6266 191.063H85.0528" stroke="#415473" stroke-width="1.9622" stroke-miterlimit="10"/>
<path d="M140.566 191.063H185.373" stroke="#415473" stroke-width="1.9622" stroke-miterlimit="10"/>
<path d="M64.6266 179.079H114.256" stroke="#415473" stroke-width="1.9622" stroke-miterlimit="10"/>
<path d="M120.376 179.079H149.5" stroke="#415473" stroke-width="1.9622" stroke-miterlimit="10"/>
<path d="M156.259 179.079H185.373" stroke="#415473" stroke-width="1.9622" stroke-miterlimit="10"/>
<path d="M88.1915 191.063H134.928" stroke="#415473" stroke-width="1.9622" stroke-miterlimit="10"/>
<path d="M167.112 201.384H185.373" stroke="#415473" stroke-width="1.9622" stroke-miterlimit="10"/>
<path d="M171.579 66.0361H78.4212V159.204H171.579V66.0361Z" stroke="#415473" stroke-width="0.2453" stroke-miterlimit="10"/>
<path d="M78.4212 150.732H171.579" stroke="#415473" stroke-width="0.2453" stroke-miterlimit="10"/>
<path d="M78.4212 142.25H171.579" stroke="#415473" stroke-width="0.2453" stroke-miterlimit="10"/>
<path d="M78.4212 133.789H171.579" stroke="#415473" stroke-width="0.2453" stroke-miterlimit="10"/>
<path d="M78.4212 125.327H171.579" stroke="#415473" stroke-width="0.2453" stroke-miterlimit="10"/>
<path d="M78.4212 116.846H171.579" stroke="#415473" stroke-width="0.2453" stroke-miterlimit="10"/>
<path d="M78.4212 108.384H171.579" stroke="#415473" stroke-width="0.2453" stroke-miterlimit="10"/>
<path d="M78.4212 99.9028H171.579" stroke="#415473" stroke-width="0.2453" stroke-miterlimit="10"/>
<path d="M78.4212 91.4409H171.579" stroke="#415473" stroke-width="0.2453" stroke-miterlimit="10"/>
<path d="M78.4212 82.979H171.579" stroke="#415473" stroke-width="0.2453" stroke-miterlimit="10"/>
<path d="M78.4212 74.498H171.579" stroke="#415473" stroke-width="0.2453" stroke-miterlimit="10"/>
<path d="M163.117 66.0361V159.194" stroke="#415473" stroke-width="0.2453" stroke-miterlimit="10"/>
<path d="M154.636 66.0361V159.194" stroke="#415473" stroke-width="0.2453" stroke-miterlimit="10"/>
<path d="M146.174 66.0361V159.194" stroke="#415473" stroke-width="0.2453" stroke-miterlimit="10"/>
<path d="M137.712 66.0361V159.194" stroke="#415473" stroke-width="0.2453" stroke-miterlimit="10"/>
<path d="M129.231 66.0361V159.194" stroke="#415473" stroke-width="0.2453" stroke-miterlimit="10"/>
<path d="M120.769 66.0361V159.194" stroke="#415473" stroke-width="0.2453" stroke-miterlimit="10"/>
<path d="M112.288 66.0361V159.194" stroke="#415473" stroke-width="0.2453" stroke-miterlimit="10"/>
<path d="M103.826 66.0361V159.194" stroke="#415473" stroke-width="0.2453" stroke-miterlimit="10"/>
<path d="M95.3643 66.0361V159.194" stroke="#415473" stroke-width="0.2453" stroke-miterlimit="10"/>
<path d="M86.8829 66.0361V159.194" stroke="#415473" stroke-width="0.2453" stroke-miterlimit="10"/>
<path d="M155.295 112.999C155.295 112.074 155.246 111.169 155.167 110.273L161.238 108.679L158.522 98.289L152.333 99.9026C151.025 97.187 149.323 94.6977 147.306 92.5035L151.281 87.3675L142.779 80.7949L138.765 86.0096C136.158 84.6814 133.353 83.7171 130.382 83.1858V76.564H119.648V83.1858C116.824 83.6876 114.147 84.5731 111.648 85.803L107.703 80.5292L99.1032 86.964L103 92.1788C101.514 93.7432 100.195 95.4651 99.0737 97.3247L93.0423 95.1011L89.323 105.186L95.2462 107.361C94.9019 109.181 94.7149 111.06 94.7149 112.979C94.7149 113.638 94.7445 114.297 94.7838 114.957L88.7721 116.531L91.4974 126.931L97.3715 125.386C98.6408 128.22 100.343 130.827 102.39 133.12L98.7293 137.852L107.23 144.415L110.832 139.751C113.547 141.198 116.509 142.231 119.638 142.792V148.646H130.372V142.792C133.353 142.26 136.168 141.296 138.775 139.958L142.307 144.671L150.907 138.236L147.325 133.454C148.84 131.801 150.169 129.971 151.3 128.013L156.977 130.109L160.687 120.024L154.901 117.889C155.147 116.305 155.295 114.661 155.295 112.999ZM125 127.58C116.735 127.58 110.044 120.88 110.044 112.615C110.044 104.35 116.735 97.6495 125 97.6495C133.265 97.6495 139.965 104.35 139.965 112.615C139.956 120.88 133.265 127.58 125 127.58Z" stroke="#415473" stroke-width="0.9811" stroke-miterlimit="10"/>
<path d="M125 133.779C113.311 133.779 103.836 124.304 103.836 112.605C103.836 100.916 113.311 91.4409 125 91.4409" stroke="#415473" stroke-width="0.9811" stroke-miterlimit="10"/>
<path d="M163.727 31.8939H137.506C137.88 30.6936 138.076 29.4046 138.076 28.0763C138.076 20.8642 132.222 15 125 15C117.788 15 111.924 20.8543 111.924 28.0763C111.924 29.4046 112.121 30.6936 112.494 31.8939H86.2729C82.534 31.8939 79.5035 34.9244 79.5035 38.6633V54.7406H170.497V38.6633C170.497 34.9343 167.466 31.8939 163.727 31.8939ZM117.158 28.0763C117.158 23.7471 120.671 20.2246 125 20.2246C129.329 20.2246 132.852 23.7372 132.852 28.0763C132.852 29.4637 132.488 30.7624 131.858 31.8939H118.142C117.512 30.7723 117.158 29.4637 117.158 28.0763Z" fill="#004290"/>
<path d="M165.252 49.8506C153.229 50.9132 145.151 50.7263 126.2 50.7263C119.067 50.7263 109.247 51.0018 104.328 48.6699C100.609 46.9185 100.225 42.0383 101.189 31.894H86.2729C82.534 31.894 79.5035 34.9245 79.5035 38.6634V54.7407H170.497V43.8487C169.237 47.0169 168.086 49.6046 165.252 49.8506Z" fill="#023B7E"/>
</svg>
