<svg width="120" height="120" viewBox="0 0 120 120" fill="none" xmlns="http://www.w3.org/2000/svg">
<path d="M103.017 37.897C103.017 31.632 100.577 25.7419 96.1474 21.3122L81.7048 6.8693C77.2749 2.43961 71.385 0 65.1197 0H31.6463C26.5132 0 22.3369 4.17609 22.3369 9.30938V11.168H20.4771C15.3441 11.168 11.1677 15.3452 11.1677 20.4797V22.3359H9.31148C4.17703 22.3359 0 26.5132 0 31.6477V82.4206L0.195938 110.984C0.214922 113.756 1.41984 116.3 3.50133 117.964C5.14289 119.277 7.20656 120 9.31172 120H71.3674C76.5019 120 80.6789 115.823 80.6789 110.688V108.832H82.5375C87.6708 108.832 91.8471 104.656 91.8471 99.5227V97.6641H93.7066C98.8397 97.6641 103.016 93.4868 103.016 88.3523L103.017 37.897ZM79.2185 9.35531L93.6612 23.7982C95.5929 25.7299 97.0795 27.9884 98.0693 30.4486C95.6402 28.3929 92.5001 27.1519 89.0761 27.1519H81.6609C78.4648 27.1519 75.8648 24.5517 75.8648 21.3558V13.9406C75.8648 10.5166 74.6236 7.37648 72.5681 4.94719C75.0288 5.93695 77.2868 7.42336 79.2185 9.35531ZM93.7064 94.1484H80.1056C79.1346 94.1484 78.3478 94.9355 78.3478 95.9063C78.3478 96.877 79.1346 97.6641 80.1056 97.6641H88.3315V99.5227C88.3315 102.717 85.7323 105.316 82.5375 105.316H20.4773C19.1482 105.316 17.8988 104.879 16.8638 104.051C15.6148 103.051 14.8915 101.5 14.8798 99.7929L14.6836 71.2406V41.5289C14.6836 40.5581 13.8968 39.7711 12.9258 39.7711C11.9548 39.7711 11.168 40.5581 11.168 41.5289V71.2528L11.3641 99.8173C11.3831 102.588 12.5873 105.132 14.6677 106.796C16.3088 108.109 18.3722 108.832 20.4773 108.832H77.1633V110.689C77.1633 113.884 74.5631 116.485 71.3674 116.485H9.31172C7.98234 116.485 6.73242 116.047 5.69672 115.219C4.4468 114.22 3.72328 112.668 3.71156 110.96L3.51563 82.4088V31.6477C3.51563 28.4517 6.11578 25.8516 9.31148 25.8516H11.1677V33.6633C11.1677 34.6341 11.9545 35.4211 12.9255 35.4211C13.8966 35.4211 14.6834 34.6341 14.6834 33.6633V20.4797C14.6834 17.2838 17.2823 14.6836 20.4771 14.6836H22.3369V60.0846L22.533 88.6491C22.552 91.4201 23.7563 93.964 25.8366 95.628C27.4779 96.941 29.5411 97.6641 31.6463 97.6641H72.2423C73.2134 97.6641 74.0002 96.877 74.0002 95.9063C74.0002 94.9355 73.2134 94.1484 72.2423 94.1484H31.6463C30.3171 94.1484 29.0677 93.7109 28.0327 92.883C26.7837 91.8837 26.0604 90.3316 26.0487 88.6252L25.8525 60.0727V9.30938C25.8525 6.11461 28.4515 3.51563 31.6463 3.51563H61.9245C67.6727 3.51563 72.3492 8.19234 72.3492 13.9406V21.3555C72.3492 26.49 76.5265 30.6673 81.6609 30.6673H89.0761C94.8124 30.6673 99.4805 35.3245 99.5002 41.0562V88.3523C99.5002 91.5483 96.9012 94.1484 93.7064 94.1484Z" fill="#FF6300"/>
<path d="M91.2536 49.2359H34.1005C33.1295 49.2359 32.3427 50.0229 32.3427 50.9937C32.3427 51.9645 33.1295 52.7515 34.1005 52.7515H91.2536C92.2246 52.7515 93.0114 51.9645 93.0114 50.9937C93.0114 50.0229 92.2246 49.2359 91.2536 49.2359Z" fill="#FF6300"/>
<path d="M91.2536 57.5974H34.1005C33.1295 57.5974 32.3427 58.3844 32.3427 59.3552C32.3427 60.326 33.1295 61.113 34.1005 61.113H91.2536C92.2246 61.113 93.0114 60.326 93.0114 59.3552C93.0114 58.3844 92.2246 57.5974 91.2536 57.5974Z" fill="#FF6300"/>
<path d="M91.2536 65.959H34.1005C33.1295 65.959 32.3427 66.746 32.3427 67.7168C32.3427 68.6876 33.1295 69.4746 34.1005 69.4746H91.2536C92.2246 69.4746 93.0114 68.6876 93.0114 67.7168C93.0114 66.746 92.2246 65.959 91.2536 65.959Z" fill="#FF6300"/>
<path d="M55.0956 74.3208H34.1005C33.1295 74.3208 32.3427 75.1078 32.3427 76.0786C32.3427 77.0494 33.1295 77.8364 34.1005 77.8364H55.0956C56.0667 77.8364 56.8534 77.0494 56.8534 76.0786C56.8534 75.1078 56.0664 74.3208 55.0956 74.3208Z" fill="#FF6300"/>
<path d="M34.1005 29.5594H55.0956C56.0667 29.5594 56.8534 28.7723 56.8534 27.8016C56.8534 26.8308 56.0667 26.0438 55.0956 26.0438H34.1005C33.1295 26.0438 32.3427 26.8308 32.3427 27.8016C32.3427 28.7723 33.1295 29.5594 34.1005 29.5594Z" fill="#FF6300"/>
</svg>
