<svg width="120" height="120" viewBox="0 0 120 120" fill="none" xmlns="http://www.w3.org/2000/svg">
<path d="M50.75 12H61.25C62.2165 12 63 11.1046 63 10C63 8.89546 62.2165 8.00003 61.25 8.00003H50.75C49.7835 8.00003 49 8.89546 49 10C49 11.1046 49.7835 12 50.75 12Z" fill="#FF6300"/>
<path d="M68.2501 12H71.7501C72.7166 12 73.5001 11.1046 73.5001 10C73.5001 8.89546 72.7166 8.00003 71.7501 8.00003H68.2501C67.2836 8.00003 66.5001 8.89546 66.5001 10C66.5001 11.1046 67.2836 12 68.2501 12Z" fill="#FF6300"/>
<path d="M14 40H17.5C18.4665 40 19.25 39.1046 19.25 38C19.25 36.8955 18.4665 36 17.5 36H14C13.0335 36 12.25 36.8955 12.25 38C12.25 39.1046 13.0335 40 14 40Z" fill="#FF6300"/>
<path d="M24.5 40H57.75C58.7165 40 59.5 39.1046 59.5 38C59.5 36.8955 58.7165 36 57.75 36H24.5C23.5335 36 22.75 36.8955 22.75 38C22.75 39.1046 23.5335 40 24.5 40Z" fill="#FF6300"/>
<path d="M14 56H21C21.9664 56 22.75 55.1046 22.75 54C22.75 52.8954 21.9664 52 21 52H14C13.0335 52 12.25 52.8954 12.25 54C12.25 55.1046 13.0335 56 14 56Z" fill="#FF6300"/>
<path d="M57.75 52H28C27.0335 52 26.25 52.8954 26.25 54C26.25 55.1046 27.0335 56 28 56H57.75C58.7165 56 59.5 55.1046 59.5 54C59.5 52.8954 58.7165 52 57.75 52Z" fill="#FF6300"/>
<path d="M14 48H27.9999C28.9664 48 29.7499 47.1045 29.7499 46C29.7499 44.8954 28.9664 44 27.9999 44H14C13.0335 44 12.25 44.8954 12.25 46C12.25 47.1045 13.0335 48 14 48Z" fill="#FF6300"/>
<path d="M43.75 48C44.7165 48 45.5 47.1045 45.5 46C45.5 44.8954 44.7165 44 43.75 44H35C34.0335 44 33.25 44.8954 33.25 46C33.25 47.1045 34.0335 48 35 48H43.75Z" fill="#FF6300"/>
<path d="M57.75 44H50.75C49.7835 44 49 44.8954 49 46C49 47.1045 49.7835 48 50.75 48H57.75C58.7165 48 59.5 47.1045 59.5 46C59.5 44.8954 58.7165 44 57.75 44Z" fill="#FF6300"/>
<path d="M16.2191 98C17.1856 99.913 19.3261 100.568 21.0001 99.464L48.2808 81.464C49.9548 80.3594 50.5283 77.9131 49.5618 76L44.3118 65.6C43.848 64.681 43.0836 64.0102 42.187 63.7352C41.2904 63.4603 40.3349 63.6037 39.5308 64.134L12.2501 82.142C10.5792 83.2503 10.0066 85.6936 10.9691 87.608L16.2191 98ZM41.2808 67.6L46.5308 78L19.2501 96L14.0001 85.6L41.2808 67.6Z" fill="#FF6300"/>
<path d="M21.1749 89.8C21.4819 89.8006 21.7837 89.7088 22.0499 89.534L23.5637 88.534C24.4011 87.9817 24.6883 86.7581 24.205 85.801C23.7218 84.8439 22.6511 84.5157 21.8137 85.068L20.2999 86.068C19.614 86.5206 19.2796 87.4433 19.4846 88.3176C19.6896 89.1919 20.3829 89.7999 21.1749 89.8Z" fill="#FF6300"/>
<path d="M28.7525 84.8C29.0595 84.8006 29.3613 84.7089 29.6275 84.534L40.2342 77.534C40.776 77.1768 41.1098 76.5163 41.11 75.8015C41.1101 75.0867 40.7766 74.4261 40.235 74.0685C39.6934 73.711 39.026 73.7108 38.4842 74.068L27.8775 81.068C27.1916 81.5207 26.8572 82.4433 27.0622 83.3177C27.2672 84.192 27.9605 84.8 28.7525 84.8Z" fill="#FF6300"/>
<path d="M92.75 78H84V74C85.933 74 87.5 72.2091 87.5 70V64.756C87.5302 63.6168 88.003 62.5523 88.7898 61.852C92.3236 58.5128 94.4073 53.5781 94.4957 48.3387C94.5842 43.0993 92.6686 38.0765 89.25 34.584C88.6991 34.0292 88.1143 33.5199 87.5 33.06V18C87.4925 13.1842 84.4827 9.05854 80.339 8.184C79.5738 3.44829 75.9638 0.00853728 71.75 0H24.5C24.0359 0.00011328 23.5909 0.210901 23.2628 0.586L0.51275 26.586C0.184539 26.961 9.912e-05 27.4696 0 28V102C0.00747012 106.816 3.01726 110.941 7.161 111.816C7.92622 116.552 11.5362 119.991 15.75 120H78.75C83.5801 119.993 87.4942 115.52 87.5 110V104H89.25C91.183 104 92.75 102.209 92.75 100V94C95.6495 94 98 91.3137 98 88V84C98 80.6863 95.6495 78 92.75 78ZM80.5 78H77V74H80.5V78ZM91 48C91.0024 52.1682 89.3731 56.1191 86.5585 58.77C84.9655 60.2278 84.0269 62.4239 84 64.756V70H73.5V64.756C73.4731 62.4186 72.5326 60.2175 70.9363 58.756C67.1594 55.1807 65.615 49.3737 67.012 44.0011C68.409 38.6285 72.4776 34.7279 77.35 34.09C77.8201 34.0306 78.2928 34.0005 78.7658 34C80.9802 33.9928 83.1539 34.6805 85.05 35.988L85.0763 36.004C85.7302 36.4589 86.3464 36.9811 86.9173 37.564C89.5124 40.2229 90.9966 44.0168 91 48ZM84 18V31.056C82.8678 30.5959 81.6937 30.2839 80.5 30.126V12.368C82.5901 13.2125 83.9908 15.4664 84 18ZM22.75 6.828V20C22.75 23.3137 20.3995 26 17.5 26H5.9745L22.75 6.828ZM3.5 102V30H17.5C22.3301 29.9934 26.2442 25.5201 26.25 20V4H71.75C74.6495 4 77 6.68629 77 10V30.11H76.9598C69.9666 31.0746 64.3638 37.1856 63.1943 45.124C62.3003 51.419 64.3977 57.7831 68.7033 61.84C69.4929 62.5438 69.968 63.6122 70 64.756V70C70 72.2091 71.567 74 73.5 74V78H64.75C61.8505 78 59.5 80.6863 59.5 84V88C59.5 91.3137 61.8505 94 64.75 94V100C64.75 102.209 66.317 104 68.25 104H76.678C75.9391 106.389 73.9669 107.99 71.75 108H8.75C5.85051 108 3.5 105.314 3.5 102ZM84 110C84 113.314 81.6495 116 78.75 116H15.75C13.5331 115.99 11.5609 114.389 10.822 112H71.75C75.9064 111.994 79.4877 108.653 80.325 104H84V110ZM89.25 100H68.25V94H89.25V100ZM94.5 88C94.5 89.1046 93.7165 90 92.75 90H64.75C63.7835 90 63 89.1046 63 88V84C63 82.8954 63.7835 82 64.75 82H92.75C93.7165 82 94.5 82.8954 94.5 84V88Z" fill="#FF6300"/>
</svg>
