<svg width="120" height="120" viewBox="0 0 120 120" fill="none" xmlns="http://www.w3.org/2000/svg">
<g clip-path="url(#clip0)">
<path d="M113.926 49.2125C112.421 48.7277 110.839 49.5553 110.354 51.0615C109.869 52.5674 110.648 54.1815 112.154 54.6663C113.43 55.0772 114.272 56.2941 114.272 57.6262V70.69C114.272 72.4031 113.008 73.837 111.295 73.837H107.413C107.927 70.9723 108.188 68.0703 108.188 65.1171C108.188 38.5908 86.6687 17 60.1423 17C33.6159 17 12.0965 38.5707 12.0965 65.0971V73.837H8.86665C7.15355 73.837 5.73042 72.4031 5.73042 70.69V57.6262C5.73042 56.2941 6.63599 55.0772 7.91143 54.6663C9.41732 54.1812 10.2522 52.5674 9.76745 51.0612C9.28236 49.5553 7.65774 48.7281 6.15153 49.2125C2.47928 50.3953 0.000976562 53.7763 0.000976562 57.6262V70.69C0.000976562 75.5622 3.99408 79.5665 8.86665 79.5665H14.8383C16.4206 79.5665 17.8259 78.2436 17.8259 76.6613V65.0968C17.8259 41.7296 36.7748 22.7193 60.142 22.7193C83.5092 22.7193 102.489 41.7299 102.489 65.0968C102.489 83.8021 90.3441 100.167 72.6866 105.631C71.0664 102.949 68.1072 101.211 64.7516 101.211H55.4098C50.3115 101.211 46.1637 105.343 46.1637 110.442C46.1637 115.54 50.3115 119.673 55.4098 119.673H64.7516C69.5707 119.673 73.5406 115.923 73.9604 111.21C83.2975 108.392 91.6937 102.698 97.7952 95.0038C101.509 90.3213 104.266 84.9776 106.004 79.5665H111.294C116.167 79.5665 120.001 75.5622 120.001 70.69V57.6262C120.001 53.7763 117.598 50.3953 113.926 49.2125ZM64.7516 113.943H55.4098C53.4707 113.943 51.8932 112.381 51.8932 110.441C51.8932 108.502 53.4707 106.94 55.4098 106.94H64.7516C66.4246 106.94 67.8284 108.056 68.182 109.624C68.1874 109.651 68.1931 109.649 68.1992 109.676C68.2441 109.9 68.2676 110.161 68.2676 110.398C68.2679 112.337 66.6904 113.943 64.7516 113.943Z" fill="#FF6300"/>
</g>
<defs>
<clipPath id="clip0">
<rect width="120" height="120" fill="white"/>
</clipPath>
</defs>
</svg>
