<svg width="120" height="120" viewBox="0 0 120 120" fill="none" xmlns="http://www.w3.org/2000/svg">
<g clip-path="url(#clip0)">
<path d="M36.0191 114.334C36.0191 117.463 30.946 120 24.6881 120C18.4301 120 13.357 117.463 13.357 114.334C13.357 111.205 18.4301 108.669 24.6881 108.669C30.946 108.669 36.0191 111.205 36.0191 114.334Z" fill="#FF6300"/>
<path fill-rule="evenodd" clip-rule="evenodd" d="M23.8826 55.7729C17.3427 55.7729 12.041 61.0745 12.041 67.6144C12.041 74.1543 17.3427 79.4559 23.8826 79.4559C30.4224 79.4559 35.7241 74.1543 35.7241 67.6144C35.7241 61.0745 30.4224 55.7729 23.8826 55.7729ZM14.475 67.6144C14.475 62.4187 18.6869 58.2068 23.8826 58.2068C29.0782 58.2068 33.2901 62.4187 33.2901 67.6144C33.2901 72.81 29.0782 77.0219 23.8826 77.0219C18.6869 77.0219 14.475 72.81 14.475 67.6144Z" fill="#FF6300"/>
<path fill-rule="evenodd" clip-rule="evenodd" d="M24.9989 103.913C35.0489 94.3936 41.4031 86.0355 44.9289 78.8207C48.4572 71.6009 49.1831 65.4582 47.8501 60.4504C46.5142 55.4313 43.1576 51.7318 38.8818 49.3248C34.6196 46.9254 29.419 45.7903 24.2582 45.8597C19.0968 45.9291 13.8966 47.2041 9.633 49.7132C5.35809 52.2289 1.99638 56.0073 0.643335 61.0509C-0.708169 66.0888 -0.0094223 72.2155 3.49471 79.3504C6.99514 86.4777 13.3208 94.6707 23.3362 103.923L24.1724 104.696L24.9989 103.913ZM5.67938 78.2774C8.90895 84.8532 14.7594 92.5526 24.1518 101.358C33.5908 92.2913 39.4811 84.425 42.7421 77.7521C46.0949 70.8915 46.6384 65.3606 45.4981 61.0764C44.3608 56.8034 41.5016 53.5926 37.6879 51.4457C33.8605 49.2912 29.0979 48.2288 24.2909 48.2934C19.4845 48.358 14.7121 49.5483 10.8674 51.8108C7.03408 54.0667 4.15181 57.3662 2.99414 61.6816C1.83493 66.0027 2.35873 71.5161 5.67938 78.2774Z" fill="#FF6300"/>
<path d="M100.211 81.5925C100.211 84.0786 95.8444 86.0941 90.4578 86.0941C85.0711 86.0941 80.7044 84.0786 80.7044 81.5925C80.7044 79.1063 85.0711 77.0909 90.4578 77.0909C95.8444 77.0909 100.211 79.1063 100.211 81.5925Z" fill="#FF6300"/>
<path fill-rule="evenodd" clip-rule="evenodd" d="M90.4497 36.8219C85.2784 36.8219 81.0862 41.0141 81.0862 46.1855C81.0862 51.3568 85.2784 55.549 90.4497 55.549C95.6211 55.549 99.8133 51.3568 99.8133 46.1855C99.8133 41.0141 95.6211 36.8219 90.4497 36.8219ZM83.5201 46.1855C83.5201 42.3584 86.6226 39.2559 90.4497 39.2559C94.2768 39.2559 97.3793 42.3584 97.3793 46.1855C97.3793 50.0126 94.2768 53.1151 90.4497 53.1151C86.6226 53.1151 83.5201 50.0126 83.5201 46.1855Z" fill="#FF6300"/>
<path fill-rule="evenodd" clip-rule="evenodd" d="M91.5005 74.2242C99.2213 66.911 104.119 60.4755 106.842 54.9027C109.568 49.3249 110.146 44.5435 109.101 40.6193C108.054 36.6838 105.422 33.7901 102.09 31.9142C98.7707 30.0459 94.7319 29.1671 90.7335 29.2208C86.7345 29.2745 82.6973 30.2621 79.3792 32.2147C76.0499 34.174 73.4163 37.127 72.3561 41.0792C71.2973 45.0257 71.8535 49.7949 74.5618 55.3093C77.2663 60.8161 82.1428 67.1255 89.8378 74.2346L90.674 75.0071L91.5005 74.2242ZM76.7464 54.2364C79.1804 59.1922 83.5822 65.0073 90.6534 71.667C97.7625 64.8084 102.196 58.8654 104.655 53.834C107.206 48.6155 107.601 44.4459 106.749 41.2453C105.9 38.0559 103.766 35.6509 100.896 34.0351C98.0116 32.4116 94.4109 31.6055 90.7662 31.6545C87.1222 31.7035 83.5128 32.6063 80.6137 34.3124C77.7259 36.0118 75.5717 38.4859 74.7069 41.7099C73.8404 44.9395 74.2217 49.0956 76.7464 54.2364Z" fill="#FF6300"/>
<path fill-rule="evenodd" clip-rule="evenodd" d="M14.3905 6.39886C16.096 6.11369 18.5824 5.99079 22.0071 6.05208L22.0187 6.05228L44.159 6.66022C46.1714 5.01119 49.6222 3.15314 53.5015 1.82587C57.6394 0.410102 62.4569 -0.468586 66.7395 0.264304C66.7796 0.271173 66.8194 0.28005 66.8586 0.290905C68.2304 0.670332 69.7604 1.35467 70.8116 2.52026C71.9342 3.76506 72.4128 5.4584 71.7653 7.50157C71.1503 9.44217 69.5408 11.6466 66.6972 14.1941C63.8335 16.7597 59.6176 19.7616 53.6217 23.2747C38.6985 32.0184 27.1051 37.1021 20.2973 38.7983C18.5925 39.2231 17.1269 39.4514 15.9532 39.4503C14.8581 39.4493 13.6753 39.2505 12.945 38.4337C12.1041 37.4932 12.2907 36.2851 12.7173 35.3245C13.0453 34.5859 13.5964 33.777 14.3362 32.9061C13.6183 32.1767 12.8809 31.365 12.2139 30.5351C11.2955 29.3922 10.4474 28.1375 10.0072 26.9724C9.59122 25.8713 9.36564 24.3018 10.6507 23.2698C11.2152 22.8165 11.9431 22.5972 12.7296 22.5163C13.5243 22.4346 14.4768 22.4838 15.5927 22.655C15.6298 22.6607 15.6666 22.6681 15.703 22.6772L20.2193 23.8049C21.3875 24.0966 22.6567 23.7968 23.6452 23.0125C24.9046 22.0131 26.3303 20.9369 27.5045 20.053C27.5579 20.0128 27.6106 19.9731 27.6627 19.9339C27.9871 19.6897 28.2851 19.4654 28.5505 19.2649C27.7606 18.9028 26.7031 18.4566 25.4768 17.9452C25.2354 17.8446 24.9878 17.7415 24.7352 17.6364C21.9916 16.4944 18.6467 15.1022 15.9856 13.7449C14.5409 13.0081 13.2253 12.2459 12.304 11.5031C11.8482 11.1358 11.4175 10.7172 11.1292 10.2491C10.8353 9.77175 10.6065 9.0929 10.877 8.36018C11.1307 7.67311 11.7114 7.25809 12.2568 7.00008C12.8214 6.73299 13.5417 6.54079 14.3905 6.39886ZM31.8825 19.1091C31.8883 19.5311 31.692 19.8744 31.4458 20.0922C31.1364 20.3661 30.2744 21.0147 29.2584 21.7792C29.1629 21.851 29.0661 21.9239 28.9683 21.9975C27.7919 22.8831 26.3898 23.9417 25.158 24.9191C23.6234 26.1368 21.5864 26.6549 19.6297 26.1663L15.169 25.0525C14.1992 24.9069 13.4862 24.8853 12.9787 24.9375C12.4534 24.9915 12.2404 25.1148 12.1747 25.1675L12.173 25.1689C12.1454 25.1911 12.1244 25.2079 12.1157 25.3071C12.1032 25.4507 12.1327 25.7115 12.2841 26.1122C12.5877 26.9159 13.2446 27.9322 14.1112 29.0104C14.9629 30.0703 15.9565 31.116 16.8571 31.9714C17.3436 32.4334 17.3644 33.2021 16.9035 33.6897C15.8243 34.8315 15.2124 35.7029 14.9418 36.3123C14.8135 36.601 14.7889 36.7577 14.7889 36.8301C14.8772 36.8807 15.1823 37.0156 15.9555 37.0164C16.8469 37.0172 18.0952 36.8386 19.7089 36.4366C26.1749 34.8255 37.5285 29.883 52.3913 21.1747C58.3099 17.7069 62.3752 14.7984 65.0731 12.3813C67.7912 9.94617 69.0238 8.09558 69.4451 6.76625C69.8339 5.53949 69.5431 4.74796 69.0041 4.15029C68.4039 3.48477 67.4043 2.97502 66.2681 2.65308C62.56 2.03472 58.2108 2.78704 54.2894 4.12873C50.3409 5.47967 47.0181 7.36125 45.401 8.799C45.1696 9.00475 44.8685 9.11455 44.559 9.10605L21.9578 8.48551C18.5824 8.4253 16.2745 8.55157 14.7919 8.79946C14.0979 8.91551 13.6406 9.04954 13.3578 9.17292C13.4635 9.28939 13.6167 9.43512 13.8315 9.60825C14.5501 10.1875 15.6817 10.8577 17.0914 11.5767C19.6633 12.8885 22.9204 14.2444 25.683 15.3945C25.9308 15.4977 26.1746 15.5992 26.4136 15.6988C27.8477 16.2968 29.1246 16.8358 30.0081 17.26C30.4379 17.4663 30.8383 17.6752 31.1244 17.8729C31.245 17.9563 31.4713 18.1205 31.6395 18.3638C31.7267 18.4901 31.8776 18.7499 31.8825 19.1091ZM14.7976 36.8815C14.7976 36.8815 14.792 36.8744 14.79 36.8545C14.7982 36.8706 14.7976 36.8815 14.7976 36.8815ZM29.7726 19.8991C29.7726 19.8991 29.768 19.8958 29.7605 19.8894C29.7692 19.8959 29.7726 19.8991 29.7726 19.8991Z" fill="#FF6300"/>
<path fill-rule="evenodd" clip-rule="evenodd" d="M90.8985 87.9669C91.4507 87.9752 91.8917 88.4295 91.8834 88.9817L90.8836 88.9668C91.8835 88.9817 91.8834 88.9828 91.8834 88.9828L91.8834 88.9842L91.8833 88.9882L91.8831 89.0003L91.882 89.0412C91.881 89.0756 91.8793 89.1244 91.8764 89.1864C91.8708 89.3104 91.8606 89.4874 91.8425 89.7083C91.8063 90.1496 91.7383 90.7693 91.6102 91.4941C91.3559 92.9333 90.8564 94.8369 89.8631 96.5847C88.8645 98.3419 87.338 99.9875 85.03 100.789C82.7258 101.588 79.7996 101.492 76.1071 100.08C71.7382 98.4096 68.5248 97.5978 66.1532 97.3471C63.7815 97.0965 62.3283 97.4149 61.4066 97.9179C60.5048 98.41 59.9872 99.1468 59.6214 100.017C59.4353 100.459 59.293 100.925 59.1591 101.409C59.124 101.536 59.0885 101.668 59.0525 101.802C58.9578 102.154 58.8592 102.52 58.7535 102.847C58.0364 105.064 56.9219 106.619 55.4849 107.708C54.0649 108.783 52.3999 109.349 50.6708 109.712C49.3767 109.984 47.9791 110.154 46.5835 110.324C46.1355 110.378 45.6876 110.432 45.2434 110.49C43.3827 110.732 41.5203 111.038 39.7054 111.643C39.1814 111.818 38.6151 111.535 38.4405 111.011C38.2658 110.487 38.549 109.921 39.0729 109.746C41.0753 109.079 43.0921 108.753 44.9855 108.507C45.4722 108.444 45.9468 108.386 46.4105 108.329C47.7824 108.163 49.0576 108.008 50.2596 107.755C51.8483 107.421 53.1895 106.937 54.2774 106.113C55.3482 105.302 56.2433 104.109 56.8506 102.231C56.94 101.955 57.0181 101.665 57.1069 101.335C57.1458 101.19 57.1867 101.038 57.2316 100.876C57.3722 100.368 57.5415 99.803 57.7779 99.241C58.2569 98.1022 59.0277 96.9377 60.4485 96.1623C61.8495 95.3978 63.7532 95.0824 66.3634 95.3582C68.9738 95.6341 72.3674 96.509 76.8214 98.2121C80.222 99.5123 82.6447 99.4996 84.3741 98.8993C86.0997 98.3003 87.2914 97.0622 88.1243 95.5965C88.9626 94.1214 89.408 92.4632 89.6407 91.1461C89.7562 90.4928 89.8172 89.9358 89.8492 89.545C89.8652 89.3499 89.8739 89.1969 89.8785 89.095C89.8809 89.044 89.8822 89.0059 89.8829 88.9816L89.8836 88.9559L89.8837 88.9519M90.8985 87.9669C90.3465 87.9587 89.8923 88.4 89.8837 88.9519L90.8985 87.9669Z" fill="#FF6300"/>
</g>
<defs>
<clipPath id="clip0">
<rect width="120" height="120" fill="white"/>
</clipPath>
</defs>
</svg>
