<svg width="120" height="120" viewBox="0 0 120 120" fill="none" xmlns="http://www.w3.org/2000/svg">
<path d="M93.0859 24.2967L47.5784 0.26442C46.9033 -0.0926809 46.0941 -0.0876693 45.4241 0.27695L1.17577 24.3092C0.450081 24.7039 0 25.4582 0 26.2789V57.6713C0.0265498 83.4765 15.4532 106.822 39.31 117.161L45.4519 119.813C46.0259 120.061 46.6795 120.062 47.2547 119.816L54.1754 116.854C78.4747 106.739 94.2832 83.1683 94.2857 57.0485V26.2789C94.2857 25.4495 93.8242 24.6864 93.0859 24.2967ZM89.7545 57.0485C89.7495 81.3678 75.027 103.311 52.4016 112.722L52.3864 112.73L46.3596 115.309L41.123 113.045C18.9161 103.422 4.55518 81.6923 4.52989 57.6713V27.6084L46.5278 4.79647L89.7545 27.6246V57.0485Z" fill="#FF6300"/>
<path d="M29.7603 56.452C28.9359 55.5148 27.4857 55.404 26.5202 56.2043C25.5547 57.0034 25.4406 58.4124 26.2651 59.3485L38.4024 73.146C39.2127 74.0671 40.6321 74.1928 41.5989 73.4286L69.8663 51.1035C70.8511 50.3268 70.9998 48.9215 70.1984 47.9656C69.3983 47.0109 67.9507 46.8653 66.966 47.6432L40.4398 68.5917L29.7603 56.452Z" fill="#FF6300"/>
</svg>
