<svg width="120" height="120" viewBox="0 0 120 120" fill="none" xmlns="http://www.w3.org/2000/svg">
<g clip-path="url(#clip0)">
<path d="M109.762 37.4406H87.995L82.7404 29.559C80.8372 26.7041 77.653 25 74.2222 25H45.7778C42.347 25 39.1628 26.7044 37.2596 29.559L32.005 37.4406H24.622V35.2376C24.622 31.8791 21.8898 29.1469 18.5313 29.1469H14.3844C11.026 29.1469 8.29374 31.8791 8.29374 35.2376V37.628C3.57538 38.539 0 42.6978 0 47.6782V109.881C0 115.526 4.59266 120.119 10.2376 120.119H109.762C115.407 120.119 120 115.526 120 109.881V47.6782C120 42.0333 115.407 37.4406 109.762 37.4406ZM14.3844 33.0346H18.5313C19.7461 33.0346 20.7343 34.0228 20.7343 35.2376V37.4406H12.1814V35.2376C12.1814 34.0228 13.1697 33.0346 14.3844 33.0346ZM116.112 109.881C116.112 113.383 113.264 116.231 109.762 116.231H10.2376C6.73633 116.231 3.88769 113.383 3.88769 109.881V47.6782C3.88769 44.1767 6.73633 41.3283 10.2376 41.3283H33.0454C33.6954 41.3283 34.3021 41.0035 34.6626 40.4626L40.4944 31.7153C41.6747 29.9446 43.6499 28.8877 45.7778 28.8877H74.2222C76.3501 28.8877 78.3253 29.9449 79.5058 31.7153L85.3374 40.4626C85.6979 41.0035 86.3046 41.3283 86.9547 41.3283H109.762C113.264 41.3283 116.112 44.1767 116.112 47.6782V109.881Z" fill="#FF6300"/>
<path d="M60 43.6609C41.7787 43.6609 26.9547 58.4849 26.9547 76.7063C26.9547 94.9276 41.7787 109.752 60 109.752C78.2214 109.752 93.0454 94.9276 93.0454 76.7063C93.0454 58.4849 78.2214 43.6609 60 43.6609ZM60 105.864C43.9224 105.864 30.8424 92.7837 30.8424 76.7063C30.8424 60.6289 43.9224 47.5486 60 47.5486C76.0777 47.5486 89.1577 60.6289 89.1577 76.7063C89.1577 92.7837 76.0777 105.864 60 105.864Z" fill="#FF6300"/>
<path d="M78.0558 62.6349C77.1567 63.2214 76.9029 64.4258 77.4895 65.3249C79.6971 68.7098 80.864 72.6454 80.864 76.7063C80.864 88.2107 71.5045 97.5702 60 97.5702C48.4956 97.5702 39.1361 88.2107 39.1361 76.7063C39.1361 65.2018 48.4956 55.8423 60 55.8423C64.3268 55.8423 68.4762 57.1543 71.9998 59.6362C72.8774 60.2543 74.0898 60.0441 74.7085 59.1663C75.3266 58.2885 75.1164 57.076 74.2386 56.4576C70.0562 53.5118 65.1326 51.9546 60 51.9546C46.3519 51.9546 35.2484 63.0581 35.2484 76.7063C35.2484 90.3544 46.3519 101.458 60 101.458C73.6482 101.458 84.7517 90.3544 84.7517 76.7063C84.7517 71.8894 83.3663 67.2193 80.7458 63.2015C80.1593 62.3024 78.9551 62.0486 78.0558 62.6349Z" fill="#FF6300"/>
<path d="M68.1642 76.7063C68.1642 72.2046 64.5017 68.5421 60 68.5421C55.4983 68.5421 51.8359 72.2046 51.8359 76.7063C51.8359 81.208 55.4983 84.8704 60 84.8704C64.5017 84.8704 68.1642 81.208 68.1642 76.7063ZM55.7236 76.7063C55.7236 74.3483 57.642 72.4298 60 72.4298C62.358 72.4298 64.2765 74.3483 64.2765 76.7063C64.2765 79.0643 62.358 80.9827 60 80.9827C57.642 80.9827 55.7236 79.0643 55.7236 76.7063Z" fill="#FF6300"/>
<path d="M101.469 47.8078C96.967 47.8078 93.3045 51.4702 93.3045 55.9719C93.3045 60.4736 96.967 64.1361 101.469 64.1361C105.97 64.1361 109.633 60.4736 109.633 55.9719C109.633 51.4702 105.97 47.8078 101.469 47.8078ZM101.469 60.2484C99.1107 60.2484 97.1922 58.3299 97.1922 55.9719C97.1922 53.6139 99.1107 51.6955 101.469 51.6955C103.827 51.6955 105.745 53.6139 105.745 55.9719C105.745 58.3299 103.827 60.2484 101.469 60.2484Z" fill="#FF6300"/>
<path d="M16.4579 58.1749C15.3844 58.1749 14.5141 59.045 14.5141 60.1188V109.881C14.5141 110.955 15.3844 111.825 16.4579 111.825C17.5315 111.825 18.4018 110.955 18.4018 109.881V60.1188C18.4018 59.045 17.5315 58.1749 16.4579 58.1749Z" fill="#FF6300"/>
<path d="M16.4579 45.7343C15.3844 45.7343 14.5141 46.6044 14.5141 47.6782V51.8251C14.5141 52.8988 15.3844 53.7689 16.4579 53.7689C17.5315 53.7689 18.4018 52.8988 18.4018 51.8251V47.6782C18.4018 46.6044 17.5315 45.7343 16.4579 45.7343Z" fill="#FF6300"/>
</g>
<defs>
<clipPath id="clip0">
<rect width="120" height="120" fill="white"/>
</clipPath>
</defs>
</svg>
