<svg width="120" height="120" viewBox="0 0 120 120" fill="none" xmlns="http://www.w3.org/2000/svg">
<g clip-path="url(#clip0)">
<path d="M78.9004 72.9319H56.3762V52.5874C56.3762 51.4974 55.6496 50.7708 54.5596 50.7708C53.4696 50.7708 52.743 51.4974 52.743 52.5874V84.3757L52.3796 84.194L40.5726 62.578C39.1194 59.1268 35.8497 56.9471 32.2168 56.9471H8.05793C6.96794 56.9471 6.24136 57.6737 6.24136 58.7637V75.4753C2.60845 76.2016 0.0655324 79.4713 0.0655324 83.2859C0.0655324 92.3683 0.0655324 99.4524 0.0655324 109.08C0.0655324 110.17 0.792113 110.896 1.8821 110.896H6.42329C6.7867 115.801 10.9645 119.797 16.2323 119.797C21.3183 119.797 25.4963 115.801 26.0412 110.896H32.3988C32.9436 115.983 37.1216 119.797 42.2077 119.797C47.2938 119.797 51.4718 115.801 52.0167 110.896H54.5598C55.6498 110.896 56.3764 109.988 56.3764 109.08C56.3764 90.9152 56.3764 94.9115 56.3764 76.565H78.9006C79.9906 76.565 80.7172 75.8384 80.7172 74.7484C80.7172 73.6584 79.9902 72.9319 78.9004 72.9319ZM9.8745 60.3983H32.217V60.7617C34.3968 60.7617 36.3948 62.0332 37.3031 64.2129C37.3031 64.2129 37.3031 64.3946 37.4848 64.3946L46.5672 81.1062L46.3855 80.9245C45.4772 80.5611 44.3875 80.5611 43.6609 81.1062C42.7526 81.6511 42.3894 82.5594 42.3894 83.4676V87.6454H28.0393V78.7448C28.0393 76.7467 26.4044 75.1118 24.4064 75.1118H9.8745V60.3983ZM16.232 116.164C12.7808 116.164 10.056 113.439 10.056 109.988C10.056 106.537 12.7806 103.812 16.232 103.812C19.6835 103.812 22.4081 106.537 22.4081 109.988C22.4081 113.439 19.5018 116.164 16.232 116.164ZM42.2077 116.164C38.7565 116.164 36.0317 113.439 36.0317 109.988C36.0317 106.537 38.7563 103.812 42.2077 103.812C45.6591 103.812 48.3838 106.537 48.3838 109.988C48.3835 113.439 45.6589 116.164 42.2077 116.164ZM52.7433 107.263H51.4718C50.2003 103.086 46.5674 100.179 42.0262 100.179C37.4851 100.179 33.6704 103.267 32.5807 107.263H25.4963C24.2249 103.086 20.592 100.179 16.0508 100.179C11.5096 100.179 7.69499 103.267 6.60523 107.263H3.69844V97.8176H52.7433V107.263ZM52.9247 94.1847H3.69844V83.4674C3.69844 80.9243 5.69648 78.9262 8.05793 78.9262H24.2244V89.6435C24.2244 90.7335 24.951 91.46 26.041 91.46H44.024C45.114 91.46 45.8406 90.7335 45.8406 89.6435V84.9206L52.925 88.7352L52.9247 94.1847Z" fill="#FF6300"/>
<path d="M119.226 39.8723L61.099 0.273044C60.5541 -0.0903636 59.6458 -0.0903636 59.1009 0.273044L0.792243 39.8723C0.065662 40.2357 -0.116042 41.1438 0.0656621 41.8703C0.247366 42.5969 0.973947 43.1418 1.88223 43.1418H2.97222V53.4957C2.97222 54.5856 3.6988 55.3122 4.78879 55.3122C5.87878 55.3122 6.60536 54.5856 6.60536 53.4957V43.1418H113.414V116.164H56.7395C55.6495 116.164 54.9229 116.891 54.9229 117.981C54.9229 119.071 55.6495 119.797 56.7395 119.797H115.23C116.32 119.797 117.046 119.071 117.046 117.981V43.1418H118.136C118.863 43.1418 119.59 42.5969 119.953 41.8703C120.134 41.1438 119.771 40.2355 119.226 39.8723ZM7.69488 39.5089L60.0092 3.90618L112.324 39.5091L7.69488 39.5089Z" fill="#FF6300"/>
<path d="M80.8985 89.2803H62.0072C60.9172 89.2803 60.1906 90.0069 60.1906 91.0969V109.988C60.1906 111.078 60.9172 111.805 62.0072 111.805H80.8985C81.9883 111.805 82.7151 111.078 82.7151 109.988V91.0969C82.7151 90.0069 81.8068 89.2803 80.8985 89.2803ZM79.082 108.171H63.8235V92.913H79.082V108.171Z" fill="#FF6300"/>
<path d="M107.419 89.2803H88.5278C87.4378 89.2803 86.7112 90.0069 86.7112 91.0969V109.988C86.7112 111.078 87.4378 111.805 88.5278 111.805H107.419C108.509 111.805 109.236 111.078 109.236 109.988V91.0969C109.235 90.0069 108.509 89.2803 107.419 89.2803ZM105.603 108.171H90.3441V92.913H105.603V108.171Z" fill="#FF6300"/>
<path d="M107.419 62.7597H88.5278C87.4378 62.7597 86.7112 63.4863 86.7112 64.5763V83.4677C86.7112 84.3759 87.4378 85.2842 88.5278 85.2842H107.419C108.509 85.2842 109.236 84.5576 109.236 83.4677V64.5763C109.235 63.4863 108.509 62.7597 107.419 62.7597ZM105.603 81.6511H90.3441V66.3926H105.603V81.6511Z" fill="#FF6300"/>
<path d="M80.8985 48.0464H62.0072C60.9172 48.0464 60.1906 48.773 60.1906 49.863V68.7543C60.1906 69.8443 60.9172 70.5709 62.0072 70.5709H80.8985C81.9883 70.5709 82.7151 69.8443 82.7151 68.7543V49.8627C82.7151 48.773 81.9883 48.0464 80.8985 48.0464ZM79.082 66.756H63.8235V51.4976H79.082V66.756Z" fill="#FF6300"/>
<path d="M60.3724 12.9883C54.1963 12.9883 49.1103 18.0744 49.1103 24.2505C49.1103 30.4265 54.1963 35.5126 60.3724 35.5126C66.5484 35.5126 71.6345 30.4265 71.6345 24.2505C71.6345 18.0746 66.5484 12.9883 60.3724 12.9883ZM60.3724 31.8797C56.1946 31.8797 52.7432 28.4285 52.7432 24.2505C52.7432 20.0727 56.1944 16.6212 60.3724 16.6212C64.5504 16.6212 68.0016 20.0724 68.0016 24.2505C68.0016 28.4285 64.5504 31.8797 60.3724 31.8797Z" fill="#FF6300"/>
</g>
<defs>
<clipPath id="clip0">
<rect width="120" height="120" fill="white"/>
</clipPath>
</defs>
</svg>
