<svg width="120" height="120" viewBox="0 0 120 120" fill="none" xmlns="http://www.w3.org/2000/svg">
<path d="M26.4706 66.9162C11.8747 66.9162 0 78.791 0 93.3868C0 107.983 11.8747 119.857 26.4706 119.857C41.0665 119.857 52.9412 107.983 52.9412 93.3868C52.9412 78.791 41.0665 66.9162 26.4706 66.9162ZM26.4706 117.451C13.2014 117.451 2.40642 106.656 2.40642 93.3868C2.40642 80.1179 13.2014 69.3227 26.4706 69.3227C39.7398 69.3227 50.5348 80.1179 50.5348 93.3868C50.5348 106.656 39.7398 117.451 26.4706 117.451Z" fill="#FF6300"/>
<path d="M24.878 99.131H22.4716V101.782H20.366V104.189H26.9836V101.782H24.878V99.131Z" fill="#FF6300"/>
<path d="M29.6139 80.8189H19.9918V83.7066H22.4716V91.8585H19.9918V94.7462H22.4716V95.2805H24.8781V94.7462H29.6139C33.4538 94.7462 36.5776 91.6225 36.5776 87.7825C36.5776 83.9426 33.4538 80.8189 29.6139 80.8189ZM29.6139 91.8588H24.8781V83.7066H29.6139C31.8615 83.7066 33.6899 85.5352 33.6899 87.7825C33.6899 90.0299 31.8612 91.8588 29.6139 91.8588Z" fill="#FF6300"/>
<path d="M32.9838 95.762H19.9918V98.6497H32.9838V95.762Z" fill="#FF6300"/>
<path d="M26.4706 72.7986C15.0909 72.7986 5.88235 82.0071 5.88235 93.3868C5.88235 104.767 15.0909 113.975 26.4706 113.975C37.8503 113.975 47.0588 104.767 47.0588 93.3868C47.0588 82.0071 37.8503 72.7986 26.4706 72.7986ZM26.4706 111.706C16.3456 111.706 8.15175 103.512 8.15175 93.3868C8.15175 83.2618 16.3456 75.068 26.4706 75.068C36.5956 75.068 44.7894 83.2618 44.7894 93.3868C44.7894 103.512 36.5956 111.706 26.4706 111.706Z" fill="#FF6300"/>
<path d="M66.774 27.2364L60.0396 38.2952H59.7975L53.3052 27.2364H48.8656L55.8306 38.8948H51.2641V41.893H57.6411L57.7564 42.1352V43.9456H51.1488V47.0706H57.6411V51.2681H61.9654V46.9438H68.4576V43.9456H61.9654V42.1352L62.0807 41.893H68.4576V38.8948H64.0065L71.0984 27.2364H66.774Z" fill="#FF6300"/>
<path d="M60.0397 11C44.4144 11 31.7874 23.627 31.7874 39.2523C31.7874 54.8775 44.4029 67.5045 60.0397 67.5045C75.6764 67.5045 88.2919 54.889 88.2919 39.2523C88.2919 23.6155 75.6649 11 60.0397 11ZM60.0397 65.0944C45.7406 65.0944 34.1975 53.5514 34.1975 39.2523C34.1975 24.9532 45.7406 13.4101 60.0397 13.4101C74.3388 13.4101 85.8818 24.9532 85.8818 39.2523C85.8818 53.5514 74.3388 65.0944 60.0397 65.0944Z" fill="#FF6300"/>
<path d="M60.0397 17.2783C47.9243 17.2783 38.0657 27.1369 38.0657 39.2523C38.0657 51.3676 47.9243 61.2262 60.0397 61.2262C72.155 61.2262 82.0136 51.3676 82.0136 39.2523C82.0136 27.1369 72.155 17.2783 60.0397 17.2783ZM60.0397 58.8556C49.2236 58.8556 40.4363 50.0683 40.4363 39.2523C40.4363 28.4362 49.2236 19.6489 60.0397 19.6489C70.8557 19.6489 79.643 28.4362 79.643 39.2523C79.643 50.0683 70.8557 58.8556 60.0397 58.8556Z" fill="#FF6300"/>
<path d="M93.5294 66.9162C78.8896 66.9162 67.0588 78.747 67.0588 93.3868C67.0588 108.027 78.8896 119.857 93.5294 119.857C108.169 119.857 120 108.027 120 93.3868C120 78.747 108.169 66.9162 93.5294 66.9162ZM93.5294 117.599C80.1213 117.599 69.3169 106.795 69.3169 93.3868C69.3169 79.9787 80.1213 69.1744 93.5294 69.1744C106.938 69.1744 117.742 79.9787 117.742 93.3868C117.742 106.795 106.938 117.599 93.5294 117.599Z" fill="#FF6300"/>
<path d="M93.5294 72.7986C82.1497 72.7986 72.9412 82.0071 72.9412 93.3868C72.9412 104.767 82.1497 113.975 93.5294 113.975C104.909 113.975 114.118 104.767 114.118 93.3868C114.118 82.0071 104.909 72.7986 93.5294 72.7986ZM93.5294 111.706C83.4044 111.706 75.2106 103.512 75.2106 93.3868C75.2106 83.2618 83.4044 75.068 93.5294 75.068C103.654 75.068 111.848 83.2618 111.848 93.3868C111.848 103.512 103.654 111.706 93.5294 111.706Z" fill="#FF6300"/>
<path d="M100.833 93.6138C99.5906 92.609 97.6783 91.8203 94.9772 91.1396H94.8691V84.7218C96.6735 84.9487 98.2509 85.6294 99.8283 86.753L102.086 83.5982C99.8391 82.0207 97.473 81.232 94.8799 81.0051V79.2008H92.6218V80.8863C90.4826 81.0051 88.5702 81.675 87.2197 82.9175C85.7611 84.1492 85.0804 85.7266 85.0804 87.7578C85.0804 89.789 85.6422 91.2476 86.8847 92.2632C88.1272 93.268 90.0396 94.0567 92.6326 94.7374V101.501C90.6014 101.166 88.5702 100.15 86.6578 98.4649L84.1836 101.501C86.7659 103.64 89.5858 104.883 92.7407 105.218V107.692H94.9772V105.218C97.3433 105.099 99.1368 104.429 100.606 103.186C102.065 101.944 102.745 100.248 102.745 98.2272C102.745 96.2068 102.076 94.6294 100.833 93.6138ZM92.7515 90.4589C91.509 90.0051 90.6122 89.5621 90.1584 89.1084C89.7047 88.6546 89.4778 88.0928 89.4778 87.304C89.4778 86.5153 89.8127 85.9535 90.3745 85.3917C90.9363 84.8299 91.7251 84.603 92.7515 84.4841V90.4589ZM97.581 100.593C97.0192 101.047 96.1224 101.382 94.988 101.49V95.2992C96.3385 95.753 97.2461 96.196 97.8079 96.6498C98.3697 97.0928 98.5966 97.7734 98.5966 98.5621C98.5966 99.3509 98.2617 100.032 97.581 100.593Z" fill="#FF6300"/>
</svg>
