<svg width="60" height="60" viewBox="0 0 60 60" fill="none" xmlns="http://www.w3.org/2000/svg">
<path d="M58.0222 34.4888C58.9492 33.3412 60 32.0405 60 30.423C60 28.8055 58.9492 27.5048 58.0222 26.3573C57.443 25.6403 56.844 24.8987 56.7103 24.3095C56.5663 23.6744 56.7904 22.7166 57.007 21.7904C57.3374 20.3776 57.712 18.7764 57.034 17.367C56.3445 15.934 54.8468 15.2256 53.5255 14.6006C52.6801 14.2006 51.806 13.7873 51.4164 13.298C51.0221 12.8028 50.8121 11.8517 50.6092 10.9317C50.2949 9.50631 49.9384 7.89081 48.7061 6.90409C47.4795 5.92196 45.8331 5.93065 44.3818 5.93911C43.4379 5.94428 42.4628 5.94981 41.8868 5.67108C41.3331 5.40328 40.7406 4.64617 40.1675 3.91421C39.2616 2.75675 38.2348 1.44466 36.6749 1.08908C35.1687 0.745718 33.7045 1.46428 32.4128 2.09824C31.5527 2.52021 30.6633 2.95675 29.9999 2.95675C29.3366 2.95675 28.4471 2.52021 27.587 2.098C26.2952 1.46405 24.8317 0.7456 23.3248 1.08884C21.7649 1.44442 20.738 2.7564 19.8321 3.91409C19.2591 4.64617 18.6667 5.40304 18.113 5.67084C17.537 5.94945 16.5626 5.94475 15.6179 5.93888C14.1666 5.93124 12.5203 5.92172 11.2936 6.90386C10.0614 7.89057 9.70488 9.50608 9.39059 10.9315C9.18762 11.8514 8.97773 12.8025 8.5834 13.2977C8.19375 13.787 7.31965 14.2004 6.47414 14.6004C5.15285 15.2254 3.6552 15.9338 2.96566 17.3668C2.28762 18.7761 2.66227 20.3775 2.99262 21.7903C3.20941 22.7166 3.43348 23.6743 3.28945 24.3094C3.15586 24.8986 2.55691 25.6401 1.97754 26.3571C1.05082 27.5048 0 28.8054 0 30.423C0 32.0406 1.05082 33.3412 1.97789 34.4888C2.55703 35.2058 3.15609 35.9474 3.2898 36.5365C3.43383 37.1716 3.20977 38.1294 2.99309 39.0556C2.66262 40.4684 2.28797 42.0697 2.9659 43.4791C3.65543 44.9121 5.1532 45.6206 6.47449 46.2456C7.31988 46.6455 8.19398 47.059 8.58363 47.5481C8.97785 48.0433 9.18762 48.9944 9.39059 49.9142C9.70488 51.3396 10.0612 52.9552 11.2937 53.9419C12.5202 54.9241 14.166 54.9151 15.6179 54.9069C16.5619 54.9015 17.5371 54.8963 18.113 55.175C18.6667 55.4429 19.2592 56.1999 19.8322 56.9319C20.7381 58.0896 21.765 59.4015 23.3249 59.7572C24.8309 60.1004 26.2951 59.3819 27.5871 58.748C28.4471 58.3259 29.3366 57.8894 29.9999 57.8894C30.6633 57.8894 31.5527 58.3259 32.4129 58.7481C33.4734 59.2686 34.65 59.8461 35.8711 59.8461C36.1372 59.8461 36.4053 59.8188 36.675 59.7573C38.2349 59.4017 39.2618 58.0897 40.1678 56.9321C40.7408 56.2 41.3332 55.4431 41.8868 55.1753C42.4628 54.8967 43.4378 54.902 44.3818 54.9073C45.8326 54.915 47.4796 54.9244 48.7062 53.9423C49.9384 52.9556 50.2949 51.3401 50.6092 49.9147C50.8121 48.9947 51.022 48.0436 51.4164 47.5484C51.8059 47.0592 52.68 46.6457 53.5255 46.2459C54.8469 45.6208 56.3446 44.9123 57.0341 43.4794C57.7121 42.0701 57.3375 40.4688 57.0071 39.056C56.7905 38.1297 56.5664 37.172 56.7104 36.5365C56.844 35.9473 57.443 35.2058 58.0222 34.4888ZM55.9951 32.8422C55.2279 33.7919 54.4346 34.774 54.1665 35.9567C53.8889 37.1809 54.1829 38.4378 54.4673 39.6533C54.7104 40.6923 54.9616 41.7667 54.6845 42.3426C54.3963 42.9415 53.3878 43.4186 52.4125 43.8799C51.2979 44.4072 50.1452 44.9524 49.3778 45.9161C48.6057 46.8857 48.3293 48.1383 48.0622 49.3496C47.8303 50.4011 47.5904 51.4881 47.0784 51.8981C46.5721 52.3034 45.4665 52.2969 44.3962 52.2914C43.1561 52.285 41.8732 52.2774 40.7532 52.8193C39.6546 53.3508 38.8723 54.3504 38.1156 55.3171C37.4462 56.1724 36.7541 57.0566 36.0966 57.2066C35.4887 57.3451 34.5079 56.8641 33.5597 56.3988C32.4327 55.8456 31.2674 55.2735 29.9999 55.2735C28.7323 55.2735 27.5671 55.8455 26.4401 56.3986C25.4919 56.8639 24.5108 57.3457 23.9031 57.2064C23.2457 57.0565 22.5534 56.1723 21.8841 55.3171C21.1274 54.3504 20.345 53.3509 19.2462 52.8192C18.2518 52.3381 17.1294 52.2899 16.022 52.2899C15.8823 52.2899 15.7424 52.2907 15.6033 52.2914C14.5336 52.2969 13.4272 52.3034 12.9211 51.8981C12.4089 51.4881 12.1691 50.401 11.9372 49.3495C11.67 48.1382 11.3938 46.8856 10.6218 45.916C9.85418 44.9523 8.70164 44.4071 7.58707 43.8799C6.61172 43.4185 5.6032 42.9415 5.31504 42.3426C5.03789 41.7666 5.28926 40.6921 5.53219 39.6531C5.81648 38.4378 6.11063 37.1809 5.83313 35.9566C5.565 34.7738 4.77164 33.7917 4.00441 32.842C3.31816 31.9925 2.60848 31.1137 2.60848 30.4228C2.60848 29.7318 3.31816 28.8532 4.00465 28.0035C4.77187 27.0539 5.56512 26.072 5.83336 24.889C6.11098 23.6648 5.81684 22.408 5.53242 21.1925C5.28937 20.1535 5.03813 19.0791 5.31527 18.503C5.60344 17.904 6.61184 17.4271 7.58719 16.9657C8.70188 16.4385 9.85453 15.8932 10.622 14.9294C11.394 13.9599 11.6705 12.7072 11.9375 11.496C12.1695 10.4445 12.4093 9.35743 12.9213 8.94744C13.4277 8.54216 14.5329 8.54827 15.6035 8.55414C16.8441 8.56119 18.1267 8.56813 19.2464 8.02641C20.3452 7.49492 21.1276 6.49528 21.8842 5.52854C22.5536 4.67331 23.2457 3.78906 23.9032 3.63912C24.5109 3.50011 25.492 3.98154 26.4402 4.44699C27.5671 5.0001 28.7324 5.57202 29.9999 5.57202C31.2675 5.57202 32.4328 5.0001 33.5598 4.44676C34.508 3.98143 35.4887 3.49999 36.0967 3.63901C36.7541 3.78895 37.4463 4.6732 38.1156 5.5283C38.8724 6.49516 39.6547 7.4948 40.7536 8.02629C41.8733 8.56801 43.1543 8.56061 44.3965 8.55402C45.4651 8.54827 46.5725 8.54204 47.0787 8.94732C47.5908 9.35731 47.8307 10.4445 48.0626 11.4958C48.3297 12.7072 48.6061 13.9599 49.3781 14.9294C50.1456 15.8932 51.2982 16.4384 52.4128 16.9657C53.3882 17.4271 54.3966 17.904 54.6847 18.503C54.9619 19.079 54.7105 20.1533 54.4676 21.1923C54.1833 22.4075 53.8893 23.6645 54.1668 24.8886C54.4348 26.0715 55.2281 27.0536 55.9953 28.0033C56.6816 28.853 57.3913 29.7316 57.3913 30.4225C57.3913 31.114 56.6816 31.9927 55.9951 32.8422Z" fill="#FF6300"/>
<path d="M30 9.49636C18.4924 9.49636 9.13039 18.8841 9.13039 30.4231C9.13039 41.962 18.4924 51.3498 30 51.3498C41.5075 51.3498 50.8695 41.962 50.8695 30.4231C50.8695 18.8841 41.5075 9.49636 30 9.49636ZM30 48.7339C19.931 48.7339 11.7391 40.5196 11.7391 30.4231C11.7391 20.3265 19.9309 12.1122 30 12.1122C40.0691 12.1122 48.2608 20.3265 48.2608 30.4231C48.2608 40.5196 40.0691 48.7339 30 48.7339Z" fill="#FF6300"/>
<path d="M44.337 31.8566C43.6286 31.7208 42.9459 32.1851 42.8102 32.8945C42.3601 35.2458 41.2662 37.4319 39.6471 39.2161C39.1623 39.7504 39.2012 40.5775 39.7339 41.0637C39.984 41.2918 40.298 41.4042 40.6115 41.4042C40.966 41.4042 41.3192 41.26 41.5765 40.9765C43.5189 38.836 44.8314 36.2118 45.372 33.3876C45.508 32.6782 45.0444 31.9929 44.337 31.8566Z" fill="#FF6300"/>
<path d="M42.968 28.4639C42.9762 28.487 42.9838 28.51 42.991 28.5332C43.163 29.0961 43.6794 29.458 44.2376 29.458C44.3642 29.458 44.493 29.4393 44.6203 29.4003C45.309 29.1885 45.6964 28.457 45.4852 27.7664C45.4656 27.702 45.4444 27.638 45.4213 27.5741C45.1763 26.8949 44.4285 26.5433 43.7509 26.7891C43.0733 27.0349 42.7228 27.7847 42.968 28.4639Z" fill="#FF6300"/>
<path d="M31.3043 29.1689V23.0633H33.9493C34.6695 23.0633 35.2536 22.4778 35.2536 21.7555C35.2536 21.0331 34.6695 20.4476 33.9493 20.4476H31.3043V17.1696C31.3043 16.4473 30.7202 15.8617 30 15.8617C29.2797 15.8617 28.6957 16.4473 28.6957 17.1696V20.5016C25.73 20.866 23.4419 23.0705 23.4419 25.7283V26.4505C23.4419 29.1083 25.73 31.3128 28.6957 31.677V37.7826H26.0506C25.3304 37.7826 24.7463 38.3682 24.7463 39.0905C24.7463 39.8128 25.3304 40.3984 26.0506 40.3984H28.6957V43.6764C28.6957 44.3987 29.2797 44.9843 30 44.9843C30.7202 44.9843 31.3043 44.3987 31.3043 43.6764V40.3443C34.2699 39.9799 36.558 37.7756 36.558 35.1178V34.3955C36.5581 31.7377 34.27 29.5333 31.3043 29.1689ZM28.6957 29.033C27.177 28.7393 26.0506 27.6929 26.0506 26.4505V25.7283C26.0506 24.4858 27.177 23.4393 28.6957 23.1458V29.033ZM33.9494 35.118C33.9494 36.3604 32.823 37.4069 31.3044 37.7005V31.8133C32.823 32.1069 33.9494 33.1533 33.9494 34.3958V35.118Z" fill="#FF6300"/>
</svg>
