<svg width="120" height="120" viewBox="0 0 120 120" fill="none" xmlns="http://www.w3.org/2000/svg">
<path d="M68 106V71.166C67.9893 64.8564 63.7686 59.3291 57.6836 57.6582L46 54.4717V45.6318C48.7529 44.6621 50.4053 41.8486 49.9111 38.9717C49.416 36.0947 46.9189 33.9941 44 34H42.752L53.8281 3.8877L50.0742 2.50586L38.4902 34H36V0H32V34H29.5098L17.9258 2.50586L14.1719 3.8877L25.248 34H24C21.0811 33.9941 18.584 36.0947 18.0889 38.9717C17.5947 41.8486 19.2471 44.6621 22 45.6318V54.4717L10.3164 57.6582C4.23145 59.3291 0.0107422 64.8564 0 71.166V106C0.00878905 113.729 6.27148 119.991 14 120H54C61.7285 119.991 67.9912 113.729 68 106ZM56.6299 61.5176C60.9766 62.7109 63.9922 66.6582 64 71.166V88H49.374L38.3379 58H43.7383L56.6299 61.5176ZM41.2803 38H44C45.1045 38 46 38.8955 46 40C46 41.1045 45.1045 42 44 42H39.8096L41.2803 38ZM42 46V54H36.8662L36.1318 52L38.332 46H42ZM36 38H37.0176L36 40.7676V38ZM36 63.2324L45.1104 88H36V63.2324ZM32 38V40.7676L30.9824 38H32ZM29.6621 46L31.8623 52L31.1279 54H26V46H29.6621ZM32 63.2324V88H22.8896L32 63.2324ZM24 38H26.7197L28.1904 42H24C22.8955 42 22 41.1045 22 40C22 38.8955 22.8955 38 24 38ZM4 71.166C4.00781 66.6582 7.02344 62.7109 11.3701 61.5176L24.2676 58H29.668L18.626 88H4V71.166ZM4 106V92H17.1562L14.1719 100.112L17.9258 101.494L21.418 92H32V104H36V92H46.582L50.0742 101.494L53.8281 100.112L50.8438 92H64V106C64.001 106.672 63.9336 107.342 63.7998 108H4.2002C4.06641 107.342 3.99902 106.672 4 106ZM6.05176 112H61.9482C60.0752 114.509 57.1309 115.991 54 116H14C10.8691 115.991 7.9248 114.509 6.05176 112Z" fill="#FF6300"/>
</svg>
