<svg width="120" height="120" viewBox="0 0 120 120" fill="none" xmlns="http://www.w3.org/2000/svg">
<g clip-path="url(#clip0)">
<path fill-rule="evenodd" clip-rule="evenodd" d="M2.3904 0.926814C2.23268 0.276227 1.57741 -0.123323 0.926817 0.0344042C0.276223 0.192123 -0.12332 0.847397 0.034403 1.49798C1.40971 7.17092 6.04054 17.8519 18.1818 19.3119L18.1818 30.4304L15.6816 30.4304C14.3427 30.4304 13.2574 31.5158 13.2574 32.8546L13.2574 38.3185C13.2574 39.6573 14.3427 40.7427 15.6816 40.7427L18.1818 40.7427L18.1818 120L29.0909 120L29.0909 40.7427L83.6364 40.7427L83.6364 53.7759C84.47 54.197 85.2801 54.6748 86.0606 55.2082L86.0606 41.2121L92.1212 41.2121L92.1212 61.4857C93.1734 63.1359 93.9791 64.8828 94.5454 66.6793L94.5455 40.7427L96.8681 40.7427C98.2069 40.7427 99.2923 39.6573 99.2923 38.3185L99.2923 32.8546C99.2923 31.5158 98.2069 30.4304 96.8681 30.4304L94.5455 30.4304L94.5455 18.9388C96.0878 18.5818 97.7425 17.9667 99.4237 16.9345C102.783 14.8724 106.13 11.2183 108.918 4.91362C109.978 2.51717 108.131 0.000278176 105.641 0.00027953L8.91803 0.000279243C8.24859 0.000277476 7.70591 0.542962 7.70591 1.2124C7.70591 1.88184 8.24859 2.42452 8.91803 2.42452L105.641 2.42452C106.51 2.42452 106.999 3.2578 106.701 3.93314C104.066 9.8919 101.008 13.1172 98.1553 14.8685C95.3487 16.5917 92.6265 16.9583 90.456 16.9697L19.0898 16.9697C8.06436 15.9855 3.72747 6.44204 2.3904 0.926814ZM83.6364 19.3942L29.0909 19.3942L29.0909 30.4304L83.6364 30.4304L83.6364 19.3942ZM86.0606 19.3942L90.3495 19.3942L90.4618 19.3939L92.1212 19.3939L92.1212 30.303L86.0606 30.303L86.0606 19.3942ZM20.6061 30.303L20.6061 19.3942L26.6667 19.3942L26.6667 30.303L20.6061 30.303ZM15.6816 32.8546L96.8681 32.8546L96.8681 38.3185L15.6816 38.3185L15.6816 32.8546ZM20.6061 41.2121L26.6667 41.2121L26.6667 117.576L20.6061 117.576L20.6061 41.2121Z" fill="#FF6300"/>
<path d="M94.5454 79.9605C93.973 81.7863 93.1623 83.5431 92.1212 85.1785L92.1212 117.576L86.0606 117.576L86.0606 91.4394C85.2742 91.9779 84.4644 92.4569 83.6364 92.8773L83.6364 120L94.5454 120L94.5454 79.9605Z" fill="#FF6300"/>
<path d="M59.716 89.703C65.3723 94.7786 73.248 96.4379 80.3644 94.2098L80.3644 94.5294C80.3643 95.1989 79.8217 95.7416 79.1522 95.7416L60.9281 95.7416C60.2586 95.7416 59.716 95.1989 59.716 94.5294L59.716 89.703Z" fill="#FF6300"/>
<path fill-rule="evenodd" clip-rule="evenodd" d="M52.5433 75.5427C52.6095 76.2072 52.706 76.8701 52.833 77.5293L52.833 94.5294C52.833 95.1989 52.2903 95.7416 51.6209 95.7416L33.3967 95.7416C32.7273 95.7416 32.1846 95.1989 32.1846 94.5294L32.1846 76.3291C32.1846 75.6596 32.7273 75.117 33.3967 75.117L51.6209 75.117C51.9902 75.117 52.321 75.2822 52.5433 75.5427ZM43.93 75.117L40.7879 75.117L40.7879 82.4402L43.93 82.4402L43.93 75.117Z" fill="#FF6300"/>
<path fill-rule="evenodd" clip-rule="evenodd" d="M66.5988 52.7979C64.7468 53.4844 62.9575 54.4419 61.2852 55.6789C55.9788 59.604 52.959 65.5239 52.4967 71.6796L47.1625 71.6796C46.4931 71.6796 45.9504 71.1369 45.9504 70.4675L45.9504 52.2671C45.9504 51.5977 46.4931 51.055 47.1626 51.055L65.3867 51.055C66.0561 51.055 66.5988 51.5977 66.5988 52.2671L66.5988 52.7979ZM57.6961 51.055L54.5539 51.055L54.5539 58.3783L57.696 58.3783L57.6961 51.055Z" fill="#FF6300"/>
<path d="M59.716 100.391C59.7159 99.7218 60.2586 99.1791 60.9281 99.1791L68.3196 99.1791L68.3196 106.502L71.4617 106.502L71.4617 99.1791L79.1522 99.1791C79.8217 99.1791 80.3644 99.7218 80.3644 100.391L80.3643 118.592C80.3643 119.261 79.8217 119.804 79.1522 119.804L60.9281 119.804C60.2586 119.804 59.716 119.261 59.716 118.592L59.716 100.391Z" fill="#FF6300"/>
<path d="M33.3967 99.1791C32.7273 99.1791 32.1846 99.7218 32.1846 100.391L32.1846 118.592C32.1846 119.261 32.7273 119.804 33.3967 119.804L51.6208 119.804C52.2903 119.804 52.833 119.261 52.833 118.592L52.833 100.391C52.833 99.7218 52.2903 99.1791 51.6209 99.1791L43.93 99.1791L43.93 106.502L40.7879 106.502L40.7879 99.1791L33.3967 99.1791Z" fill="#FF6300"/>
<path fill-rule="evenodd" clip-rule="evenodd" d="M84.5866 88.0251C92.5797 82.1126 94.3471 70.7355 88.4915 62.6069C82.6358 54.4783 71.4037 52.7169 63.4107 58.6294C55.4176 64.5418 53.6501 75.9189 59.5058 84.0476C65.3614 92.1762 76.5935 93.9376 84.5866 88.0251ZM86.7121 90.9756C96.3308 83.8606 98.4364 70.1913 91.4149 60.4444C84.3935 50.6975 70.904 48.5639 61.2852 55.6789C51.6664 62.7939 49.5609 76.4631 56.5823 86.2101C63.6037 95.957 77.0933 98.0906 86.7121 90.9756Z" fill="#FF6300"/>
<path fill-rule="evenodd" clip-rule="evenodd" d="M85.0064 88.0858C85.9487 87.131 87.4734 87.128 88.4121 88.0791L104.729 104.613C105.667 105.564 105.664 107.109 104.722 108.064C103.78 109.019 102.255 109.022 101.316 108.071L84.9999 91.5368C84.0613 90.5856 84.0642 89.0406 85.0064 88.0858Z" fill="#FF6300"/>
</g>
<defs>
<clipPath id="clip0">
<rect width="120" height="120" fill="white"/>
</clipPath>
</defs>
</svg>
