<svg width="120" height="120" viewBox="0 0 120 120" fill="none" xmlns="http://www.w3.org/2000/svg">
<path d="M112.469 53.6287H99.5662C96.5166 53.6287 94.0349 56.1104 94.0349 59.1599C94.0349 56.1104 91.5532 53.6287 88.5037 53.6287H70.0643C67.0148 53.6287 64.5331 56.1104 64.5331 59.1599C64.5331 56.1104 62.0514 53.6287 59.0018 53.6287H40.5625C37.5129 53.6287 35.0312 56.1104 35.0312 59.1599C35.0312 56.1104 32.5496 53.6287 29.5 53.6287H5.53309C2.48353 53.6287 0.00184375 56.1104 0.00184375 59.1599V62.853C0.00184375 62.8567 0 62.8585 0 62.8622V70.2372C0 71.2568 0.824156 72.0809 1.84375 72.0809H38.7188V77.5938C38.7188 78.6133 39.5429 79.4375 40.5625 79.4375H46.0956V99.7188H23.9688C22.9492 99.7188 22.125 100.543 22.125 101.562V108.938C22.125 109.957 22.9492 110.781 23.9688 110.781H26.4615C26.0596 111.622 25.8143 112.553 25.8143 113.547C25.8143 117.105 28.709 120 32.2675 120C35.8259 120 38.7206 117.105 38.7206 113.547C38.7206 112.553 38.4754 111.622 38.0734 110.781H79.9266C79.5246 111.622 79.2794 112.553 79.2794 113.547C79.2794 117.105 82.1741 120 85.7325 120C89.291 120 92.1857 117.105 92.1857 113.547C92.1857 112.553 91.9404 111.622 91.5385 110.781H94.0312C95.0508 110.781 95.875 109.957 95.875 108.938V101.562C95.875 100.543 95.0508 99.7188 94.0312 99.7188H71.9044V79.4375H77.4375C78.4571 79.4375 79.2812 78.6133 79.2812 77.5938V72.0809H116.156C117.176 72.0809 118 71.2568 118 70.2372V59.1599C118 56.1104 115.518 53.6287 112.469 53.6287ZM99.5662 57.3162H112.469C113.487 57.3162 114.312 58.1422 114.312 59.1747V61.0184H97.7224V59.1599C97.7224 58.1422 98.5484 57.3162 99.5662 57.3162ZM70.0643 57.3162H88.5037C89.5214 57.3162 90.3474 58.1422 90.3474 59.1747V61.0184H68.2206V59.1599C68.2206 58.1422 69.0466 57.3162 70.0643 57.3162ZM40.5625 57.3162H59.0018C60.0196 57.3162 60.8456 58.1422 60.8456 59.1747V61.0184H38.7188V59.1599C38.7188 58.1422 39.5448 57.3162 40.5625 57.3162ZM5.53309 57.3162H29.5C30.5177 57.3162 31.3438 58.1422 31.3438 59.1747V61.0184H3.68934V59.1599C3.68934 58.1422 4.51534 57.3162 5.53309 57.3162ZM35.0331 113.547C35.0331 115.072 33.7922 116.312 32.2675 116.312C30.7427 116.312 29.5018 115.072 29.5018 113.547C29.5018 112.022 30.7427 110.781 32.2675 110.781C33.7922 110.781 35.0331 112.022 35.0331 113.547ZM88.4982 113.547C88.4982 115.072 87.2573 116.312 85.7325 116.312C84.2077 116.312 82.9669 115.072 82.9669 113.547C82.9669 112.022 84.2077 110.781 85.7325 110.781C87.2573 110.781 88.4982 112.022 88.4982 113.547ZM92.1875 107.094H25.8125V103.406H92.1875V107.094ZM68.2169 99.7188H49.7831V79.4375H68.2169V99.7188ZM75.5938 75.75H42.4062V72.0809H75.5938V75.75ZM114.312 68.3934H3.6875V64.7059H114.312V68.3934Z" fill="#004290"/>
<path d="M84.8125 18.6048V14.9136C84.8125 9.83041 80.677 5.69488 75.5938 5.69488H60.8438V3.84375C60.8438 2.82416 60.0196 2 59 2C57.9804 2 57.1562 2.82416 57.1562 3.84375V5.69488H42.4062C37.323 5.69488 33.1875 9.83041 33.1875 14.9136V18.6048C33.1875 19.6244 34.0117 20.4486 35.0312 20.4486H82.9688C83.9883 20.4486 84.8125 19.6244 84.8125 18.6048ZM42.4062 9.38238H75.5938C78.6433 9.38238 81.125 11.8641 81.125 14.9136V16.7611H36.875V14.9136C36.875 11.8641 39.3567 9.38238 42.4062 9.38238Z" fill="#004290"/>
<path d="M38.7077 24.42V31.5073C38.7077 32.5269 39.5318 33.3511 40.5514 33.3511C41.571 33.3511 42.3952 32.5269 42.3952 31.5073V24.42C42.3952 23.4004 41.571 22.5762 40.5514 22.5762C39.5318 22.5762 38.7077 23.4004 38.7077 24.42Z" fill="#004290"/>
<path d="M46.0827 24.42V38.8897C46.0827 39.9093 46.9068 40.7335 47.9264 40.7335C48.946 40.7335 49.7702 39.9093 49.7702 38.8897V24.42C49.7702 23.4004 48.946 22.5762 47.9264 22.5762C46.9068 22.5762 46.0827 23.4004 46.0827 24.42Z" fill="#004290"/>
<path d="M53.4577 28.1112V46.2722C53.4577 47.2917 54.2818 48.1159 55.3014 48.1159C56.321 48.1159 57.1452 47.2917 57.1452 46.2722V28.1112C57.1452 27.0916 56.321 26.2675 55.3014 26.2675C54.2818 26.2675 53.4577 27.0916 53.4577 28.1112Z" fill="#004290"/>
<path d="M60.8327 28.1112V46.2722C60.8327 47.2917 61.6568 48.1159 62.6764 48.1159C63.696 48.1159 64.5202 47.2917 64.5202 46.2722V28.1112C64.5202 27.0916 63.696 26.2675 62.6764 26.2675C61.6568 26.2675 60.8327 27.0916 60.8327 28.1112Z" fill="#004290"/>
<path d="M68.2077 24.42V38.8897C68.2077 39.9093 69.0318 40.7335 70.0514 40.7335C71.071 40.7335 71.8952 39.9093 71.8952 38.8897V24.42C71.8952 23.4004 71.071 22.5762 70.0514 22.5762C69.0318 22.5762 68.2077 23.4004 68.2077 24.42Z" fill="#004290"/>
<path d="M75.5827 24.42V31.5073C75.5827 32.5269 76.4068 33.3511 77.4264 33.3511C78.446 33.3511 79.2702 32.5269 79.2702 31.5073V24.42C79.2702 23.4004 78.446 22.5762 77.4264 22.5762C76.4068 22.5762 75.5827 23.4004 75.5827 24.42Z" fill="#004290"/>
</svg>
