<svg width="120" height="120" viewBox="0 0 120 120" fill="none" xmlns="http://www.w3.org/2000/svg">
<path d="M55.1898 105.337V68.3894C55.1898 68.3199 55.1847 68.2518 55.1766 68.1844L64.4331 63.0418C65.5685 62.4109 66.274 61.212 66.274 59.9131V53.8272C66.274 52.8104 65.8394 51.8383 65.0817 51.1603C64.3241 50.4823 63.3101 50.1576 62.2994 50.2699L55.1898 51.0598L55.1898 16.6634C55.1898 8.44104 43.0686 2 27.5949 2C12.1212 2 -3.59411e-07 8.44105 0 16.6634L3.87603e-06 105.337C4.23544e-06 113.559 12.1212 120 27.5949 120C43.0686 120 55.1898 113.559 55.1898 105.337ZM10.0815 9.06845C14.7306 6.74402 20.9504 5.4638 27.5949 5.4638C34.2394 5.4638 40.4592 6.74402 45.1083 9.06845C49.3141 11.1714 51.726 13.9397 51.726 16.6634C51.726 19.3871 49.3141 22.1554 45.1083 24.2584C40.4592 26.5828 34.2394 27.863 27.5949 27.863C20.9504 27.863 14.7306 26.5828 10.0815 24.2584C5.87575 22.1554 3.4638 19.3871 3.4638 16.6634C3.4638 13.9397 5.87575 11.1714 10.0815 9.06845ZM3.4638 105.337L3.4638 23.8813C8.13553 28.3588 17.0922 31.3268 27.5949 31.3268C38.0976 31.3268 47.0543 28.3588 51.726 23.8813L51.726 51.4445L47.7246 51.8891C46.7739 51.9948 46.0888 52.8499 46.1946 53.8015C46.3003 54.7522 47.1566 55.4371 48.107 55.3316L62.6818 53.7122C62.6959 53.7106 62.7333 53.7066 62.7716 53.741C62.8099 53.7754 62.8102 53.8131 62.8102 53.8272V59.9131C62.8102 59.9551 62.7873 59.9936 62.7508 60.014L47.0746 68.7229C46.5049 69.0395 46.1835 69.6297 46.1835 70.2384C46.1835 70.5229 46.2537 70.8115 46.4017 71.0778C46.8661 71.914 47.9207 72.2153 48.7569 71.7507L51.726 70.1012V105.337C51.726 108.06 49.3141 110.829 45.1083 112.932C40.4592 115.256 34.2394 116.536 27.5949 116.536C20.9504 116.536 14.7306 115.256 10.0815 112.932C5.87575 110.829 3.4638 108.06 3.4638 105.337Z" fill="#004290"/>
<path d="M22.2558 13.1564C23.9646 12.9553 25.761 12.8532 27.5949 12.8532C37.8466 12.8532 42.4893 15.776 42.4893 16.6634C42.4893 17.6199 43.2647 18.3953 44.2211 18.3953C45.1776 18.3953 45.953 17.6199 45.953 16.6634C45.953 15.0467 44.9028 12.7694 39.899 11.1015C36.5869 9.99744 32.2172 9.38943 27.5949 9.38943C25.6261 9.38943 23.6933 9.49958 21.8508 9.71665C20.9696 9.82033 20.3212 10.5683 20.3212 11.4345C20.3212 11.5019 20.3253 11.5705 20.3334 11.6393C20.4452 12.5891 21.306 13.2684 22.2558 13.1564Z" fill="#004290"/>
<path d="M15.2908 22.2253C18.6031 23.3294 22.9726 23.9374 27.5949 23.9374C30.2849 23.9374 32.8664 23.7358 35.2672 23.3379C36.211 23.1816 36.8488 22.2891 36.6929 21.3462C36.5366 20.4027 35.645 19.7642 34.7012 19.9205C32.4867 20.2877 30.0958 20.4736 27.5949 20.4736C17.3432 20.4736 12.7006 17.5508 12.7006 16.6634C12.7006 16.4934 13.1474 15.6753 15.3333 14.7768C16.2182 14.4131 16.6403 13.401 16.2769 12.5165C15.9134 11.6319 14.9013 11.2093 14.0166 11.573C10.066 13.1966 9.23681 15.2375 9.23681 16.6634C9.23681 18.2801 10.287 20.5574 15.2908 22.2253Z" fill="#004290"/>
<path d="M38.5636 97.9472V92.406C38.5636 91.4495 37.7881 90.6741 36.8317 90.6741C35.8752 90.6741 35.0998 91.4495 35.0998 92.406V97.9472C35.0998 98.9036 35.8752 99.6791 36.8317 99.6791C37.7881 99.6791 38.5636 98.9036 38.5636 97.9472Z" fill="#004290"/>
<path d="M35.0998 51.7634V85.0159C35.0998 85.9724 35.8752 86.7478 36.8317 86.7478C37.7881 86.7478 38.5636 85.9724 38.5636 85.0159V51.7634C38.5636 50.807 37.7881 50.0315 36.8317 50.0315C35.8752 50.0315 35.0998 50.807 35.0998 51.7634Z" fill="#004290"/>
<path d="M35.0998 38.8317V44.3742C35.0998 45.3307 35.8752 46.1061 36.8317 46.1061C37.7881 46.1061 38.5636 45.3307 38.5636 44.3742V38.8317C38.5636 37.8752 37.7881 37.0998 36.8317 37.0998C35.8752 37.0998 35.0998 37.8752 35.0998 38.8317Z" fill="#004290"/>
<path d="M29.3268 107.184V101.642C29.3268 100.686 28.5513 99.9104 27.5949 99.9104C26.6384 99.9104 25.863 100.686 25.863 101.642V107.184C25.863 108.14 26.6384 108.916 27.5949 108.916C28.5513 108.916 29.3268 108.14 29.3268 107.184Z" fill="#004290"/>
<path d="M29.3268 94.2527V90.557C29.3268 89.6006 28.5513 88.8251 27.5949 88.8251C26.6384 88.8251 25.863 89.6006 25.863 90.557V94.2527C25.863 95.2091 26.6384 95.9846 27.5949 95.9846C28.5513 95.9846 29.3268 95.2094 29.3268 94.2527Z" fill="#004290"/>
<path d="M29.3268 40.6791C29.3268 39.7226 28.5513 38.9472 27.5949 38.9472C26.6384 38.9472 25.863 39.7226 25.863 40.6791L25.863 83.169C25.863 84.1255 26.6384 84.9009 27.5949 84.9009C28.5513 84.9009 29.3268 84.1255 29.3268 83.169L29.3268 40.6791Z" fill="#004290"/>
<path d="M20.09 90.5577L20.09 66.5421C20.09 65.5856 19.3146 64.8102 18.3581 64.8102C17.4017 64.8102 16.6262 65.5856 16.6262 66.5421V90.5577C16.6262 91.5142 17.4017 92.2896 18.3581 92.2896C19.3146 92.2896 20.09 91.5142 20.09 90.5577Z" fill="#004290"/>
<path d="M20.09 59.1526V55.4586C20.09 54.5021 19.3146 53.7267 18.3581 53.7267C17.4017 53.7267 16.6262 54.5021 16.6262 55.4586V59.1526C16.6262 60.1091 17.4017 60.8845 18.3581 60.8845C19.3146 60.8845 20.09 60.1093 20.09 59.1526Z" fill="#004290"/>
<path d="M20.09 46.2211V36.9843C20.09 36.0279 19.3146 35.2524 18.3581 35.2524C17.4017 35.2524 16.6262 36.0279 16.6262 36.9843V46.2211C16.6262 47.1776 17.4017 47.953 18.3581 47.953C19.3146 47.953 20.09 47.1776 20.09 46.2211Z" fill="#004290"/>
</svg>
