<svg width="120" height="120" viewBox="0 0 120 120" fill="none" xmlns="http://www.w3.org/2000/svg">
<path d="M97.85 17H87.55C84.7057 17 82.4 19.3057 82.4 22.15V35.8833C82.4017 39.808 79.7366 43.232 75.9316 44.1937C75.2259 44.3737 74.4835 44.0888 74.0793 43.483L72.9927 41.8436C72.042 40.2946 70.3638 39.3408 68.5465 39.3167H58.4868C56.7672 39.3114 55.1602 40.1713 54.2106 41.605L52.954 43.4933C52.5489 44.0999 51.8047 44.3842 51.0983 44.2023C47.2916 43.2385 44.6273 39.8102 44.6333 35.8833V22.15C44.6333 19.3057 42.3276 17 39.4833 17H29.1833C26.3391 17 24.0333 19.3057 24.0333 22.15V27.3H15.45C12.6057 27.3 10.3 29.6057 10.3 32.45V37.6C10.3 39.4962 11.8372 41.0333 13.7333 41.0333V42.75C13.7345 43.2195 13.5493 43.6702 13.2183 44.0032C12.9281 44.2993 12.5309 44.4663 12.1162 44.4667H12.0167C5.38005 44.4667 2.04839e-06 49.8467 2.04839e-06 56.4833V65.0667C-0.0011304 66.3343 0.467329 67.5574 1.31497 68.5C0.467329 69.4426 -0.0011304 70.6657 2.04839e-06 71.9333V78.8C-0.0011304 80.0676 0.467329 81.2908 1.31497 82.2333C0.467329 83.1759 -0.0011304 84.399 2.04839e-06 85.6667V92.5333C-0.0011304 93.801 0.467329 95.0241 1.31497 95.9667C0.467329 96.9092 -0.0011304 98.1324 2.04839e-06 99.4V111.417C0.00567755 116.155 3.84524 119.994 8.58334 120H90.9833C97.6168 119.992 102.992 114.617 103 107.983V22.15C103 19.3057 100.694 17 97.85 17ZM13.7333 32.45C13.7333 31.5019 14.5019 30.7333 15.45 30.7333H29.1833C30.1314 30.7333 30.9 31.5019 30.9 32.45V37.6H13.7333V32.45ZM3.43334 56.4833C3.42626 54.1975 4.33802 52.0047 5.9637 50.3978C7.58774 48.789 9.78394 47.8906 12.0699 47.9C13.4074 47.9423 14.6994 47.4121 15.6217 46.4425C16.6057 45.4651 17.1614 44.137 17.1667 42.75V41.0333H27.4667V42.75C27.4719 44.137 28.0276 45.4651 29.0117 46.4425C29.9399 47.3731 31.1994 47.8972 32.5137 47.9H32.6167C34.8931 47.9 37.0763 48.8043 38.686 50.414C40.2957 52.0237 41.2 54.2069 41.2 56.4833V61.6333H32.6167C29.7724 61.6333 27.4667 63.9391 27.4667 66.7833H5.15C4.20191 66.7833 3.43334 66.0148 3.43334 65.0667V56.4833ZM75.5333 68.5H32.6167C31.6686 68.5 30.9 67.7314 30.9 66.7833C30.9 65.8352 31.6686 65.0667 32.6167 65.0667H77.25C78.1981 65.0667 78.9667 65.8352 78.9667 66.7833C78.9667 67.7314 78.1981 68.5 77.25 68.5H75.5333ZM3.43334 71.9333C3.43334 70.9852 4.20191 70.2167 5.15 70.2167H28.8057C29.7743 71.3045 31.1601 71.9288 32.6167 71.9333H32.845L34.0707 80.5167H5.15C4.20191 80.5167 3.43334 79.7481 3.43334 78.8V71.9333ZM3.43334 85.6667C3.43334 84.7186 4.20191 83.95 5.15 83.95H34.5617L36.0328 94.25H5.15C4.20191 94.25 3.43334 93.4814 3.43334 92.5333V85.6667ZM3.43334 111.417V99.4C3.43334 98.4519 4.20191 97.6833 5.15 97.6833H36.5238L39.0799 115.578C39.1303 115.915 39.2143 116.246 39.3306 116.567H8.58334C5.73907 116.567 3.43334 114.261 3.43334 111.417ZM51.5 116.567H44.1767C43.3228 116.566 42.5993 115.937 42.4789 115.092L36.3127 71.9333H73.6227L69.01 115.032C68.9166 115.908 68.1747 116.572 67.2933 116.567H51.5ZM99.5667 107.983C99.561 112.721 95.7214 116.561 90.9833 116.567H72.1378C72.2769 116.189 72.3714 115.797 72.4193 115.398L77.0783 71.9333H77.25C80.0943 71.9333 82.4 69.6276 82.4 66.7833C82.4 63.9391 80.0943 61.6333 77.25 61.6333H44.6333V56.4833C44.6426 53.2826 43.366 50.2124 41.0901 47.9618C38.7997 45.7296 35.7307 44.4762 32.5326 44.4667C32.1149 44.4686 31.7142 44.3014 31.4219 44.0032C31.0884 43.6713 30.9007 43.2204 30.9 42.75V41.0333C32.7962 41.0333 34.3333 39.4962 34.3333 37.6V32.45C34.3333 29.6057 32.0276 27.3 29.1833 27.3H27.4667V22.15C27.4667 21.2019 28.2352 20.4333 29.1833 20.4333H39.4833C40.4314 20.4333 41.2 21.2019 41.2 22.15V35.8833C41.1967 41.3769 44.925 46.171 50.2503 47.5206C52.3684 48.0622 54.5976 47.2074 55.8106 45.3885L57.0706 43.5002C57.3864 43.0278 57.9186 42.7459 58.4868 42.75H68.5465C69.2159 42.7798 69.82 43.1601 70.1361 43.7508L71.2176 45.3799C72.4285 47.2027 74.6591 48.0612 76.7796 47.5206C82.1063 46.1723 85.8362 41.3779 85.8333 35.8833V22.15C85.8333 21.2019 86.6019 20.4333 87.55 20.4333H97.85C98.7981 20.4333 99.5667 21.2019 99.5667 22.15V107.983Z" fill="#004290"/>
</svg>
