<svg width="120" height="120" viewBox="0 0 120 120" fill="none" xmlns="http://www.w3.org/2000/svg">
<g clip-path="url(#clip0)">
<path d="M16.4327 105.663C19.7627 108.922 21.6551 113.28 21.7615 117.933C21.787 119.049 20.9032 119.974 19.7874 119.999C19.7718 120 19.7559 120 19.7405 120C18.6457 120 17.7462 119.125 17.7209 118.025C17.5525 110.646 11.4068 104.642 4.0216 104.642C3.87534 104.642 3.7301 104.645 3.58536 104.65C2.46661 104.688 1.53731 103.809 1.50245 102.693C1.46759 101.578 2.3436 100.645 3.45906 100.61C3.64573 100.604 3.83316 100.601 4.0216 100.601C8.68959 100.6 13.0974 102.398 16.4327 105.663ZM2.02078 33.9852H52.0347C53.1507 33.9852 54.0555 33.0804 54.0555 31.9644C54.0555 30.8484 53.1507 29.9436 52.0347 29.9436H2.02078C0.904802 29.9436 0 30.8484 0 31.9644C0 33.0804 0.904802 33.9852 2.02078 33.9852ZM48.5858 48.3208C49.7017 48.3208 50.6065 47.416 50.6065 46.3C50.6065 45.184 49.7017 44.2792 48.5858 44.2792H2.02078C0.904802 44.2792 0 45.184 0 46.3C0 47.416 0.904802 48.3208 2.02078 48.3208H48.5858ZM83.4181 36.1764C84.5341 36.1764 85.4389 35.2716 85.4389 34.1557V33.6747C85.4389 32.5587 84.5341 31.6539 83.4181 31.6539C82.3022 31.6539 81.3974 32.5587 81.3974 33.6747V34.1557C81.3974 35.2719 82.3019 36.1764 83.4181 36.1764ZM65.7998 40.9538C64.6838 40.9538 63.779 41.8586 63.779 42.9746V43.4558C63.779 44.5717 64.6838 45.4765 65.7998 45.4765C66.9157 45.4765 67.8205 44.5717 67.8205 43.4558V42.9746C67.8205 41.8586 66.916 40.9538 65.7998 40.9538ZM1.50118 60.6359C1.50118 59.5199 2.40599 58.6151 3.52196 58.6151H70.1914C71.4774 57.3213 73.0935 56.4388 74.8571 56.0553V52.0223C73.5717 51.7334 72.3683 51.1706 71.3225 50.3704C69.7438 51.579 67.8049 52.2459 65.7674 52.2459C60.7193 52.2459 56.6123 48.1389 56.6123 43.0905C56.6123 39.7514 58.3886 36.7642 61.1866 35.1575C61.0855 34.6101 61.0348 34.0523 61.0348 33.4868C61.0348 29.2881 63.8507 25.7356 67.7354 24.6628C67.992 19.8423 71.9947 16 76.8776 16C81.7606 16 85.7633 19.8423 86.0199 24.6626C89.9043 25.7353 92.7205 29.2879 92.7205 33.4865C92.7205 34.0521 92.6698 34.6098 92.5687 35.1572C95.367 36.764 97.1435 39.7514 97.1435 43.0903C97.1435 48.1387 93.0363 52.2456 87.9876 52.2456C85.9504 52.2456 84.0115 51.5788 82.4328 50.3701C81.387 51.1703 80.1839 51.7331 78.8984 52.0221V56.0548C80.6618 56.4382 82.2779 57.3208 83.5641 58.6149H99.3161C100.432 58.6149 101.337 59.5197 101.337 60.6356C101.337 61.7516 100.432 62.6564 99.3161 62.6564H82.6636C82.0511 62.6564 81.4716 62.3786 81.0882 61.9012C80.0566 60.6167 78.5221 59.8801 76.8782 59.8801C75.2337 59.8801 73.6987 60.617 72.6671 61.9012C72.2834 62.3788 71.7039 62.6564 71.0917 62.6564H3.52196C2.40573 62.6567 1.50118 61.7519 1.50118 60.6359ZM74.8569 47.7901V41.7093C74.8569 40.5933 75.7617 39.6885 76.8776 39.6885C77.9936 39.6885 78.8984 40.5933 78.8984 41.7093V47.7901C79.6529 47.4657 80.3271 46.9585 80.8601 46.298C81.2438 45.8226 81.822 45.5463 82.4328 45.5463C83.0438 45.5463 83.622 45.8226 84.0054 46.2982C84.983 47.5097 86.4344 48.2046 87.9876 48.2046C90.8076 48.2046 93.102 45.9105 93.102 43.0908C93.102 40.8452 91.6642 38.8845 89.5242 38.2114C88.9801 38.0403 88.5335 37.6471 88.2948 37.129C88.0561 36.6109 88.0477 36.016 88.2715 35.4911C88.5418 34.8574 88.6787 34.1829 88.6787 33.4868C88.6787 30.7527 86.542 28.5091 83.814 28.379C83.2363 28.3515 82.698 28.0777 82.3355 27.627C81.973 27.1764 81.821 26.5919 81.918 26.0218C81.9665 25.7363 81.9912 25.4449 81.9912 25.1556C81.9912 22.3359 79.6971 20.0418 76.8774 20.0418C74.0576 20.0418 71.7636 22.3359 71.7636 25.1556C71.7636 25.4459 71.7881 25.7374 71.8366 26.0213C71.9338 26.5914 71.782 27.1762 71.4195 27.6268C71.0571 28.0777 70.5188 28.3515 69.9408 28.379C67.213 28.5091 65.0763 30.7527 65.0763 33.4868C65.0763 34.1832 65.2132 34.8574 65.4835 35.4909C65.7073 36.0158 65.699 36.6106 65.4603 37.1287C65.2218 37.6471 64.7752 38.0401 64.2309 38.2114C62.0914 38.8843 60.6538 40.8452 60.6538 43.0908C60.6538 45.9105 62.9479 48.2046 65.7674 48.2046C67.3206 48.2046 68.7723 47.51 69.7496 46.2982C70.1333 45.8229 70.7115 45.5463 71.3223 45.5463C71.9331 45.5463 72.5113 45.8226 72.895 46.298C73.4279 46.9585 74.1021 47.4655 74.8569 47.7901ZM99.3161 87.2864H54.4587C53.3427 87.2864 52.4379 88.1912 52.4379 89.3072C52.4379 90.4231 53.3427 91.3279 54.4587 91.3279H99.3161C100.432 91.3279 101.337 90.4231 101.337 89.3072C101.337 88.1912 100.432 87.2864 99.3161 87.2864ZM99.3161 72.9508H42.3747C41.2587 72.9508 40.3539 73.8556 40.3539 74.9715C40.3539 76.0875 41.2587 76.9923 42.3747 76.9923H99.3161C100.432 76.9923 101.337 76.0875 101.337 74.9715C101.337 73.8556 100.432 72.9508 99.3161 72.9508ZM99.3161 101.622H60.7337C59.6177 101.622 58.7129 102.527 58.7129 103.643C58.7129 104.759 59.6177 105.664 60.7337 105.664H99.3161C100.432 105.664 101.337 104.759 101.337 103.643C101.337 102.527 100.432 101.622 99.3161 101.622ZM99.3161 115.958H63.1235C62.0075 115.958 61.1027 116.863 61.1027 117.979C61.1027 119.095 62.0075 119.999 63.1235 119.999H99.3161C100.432 119.999 101.337 119.095 101.337 117.979C101.337 116.863 100.432 115.958 99.3161 115.958ZM4.47804 86.5617C4.13703 86.5617 3.79805 86.5688 3.45957 86.5794C2.3441 86.614 1.46784 87.5463 1.50245 88.662C1.53705 89.7775 2.47949 90.655 3.58486 90.6192C3.88191 90.6098 4.17897 90.6035 4.47804 90.6035C19.6096 90.6035 32.2011 102.905 32.5469 118.026C32.5721 119.125 33.4716 120 34.5664 120C34.582 120 34.5977 120 34.6134 120C35.7291 119.974 36.6132 119.049 36.5874 117.933C36.3949 109.511 32.9692 101.624 26.9417 95.7249C20.9047 89.8159 12.9267 86.5617 4.47804 86.5617ZM4.92109 72.9321C4.48107 72.9321 4.0024 72.9404 3.45831 72.9576C2.34258 72.9929 1.46708 73.9258 1.50219 75.0413C1.53731 76.1567 2.46762 77.0292 3.58587 76.9974C4.09409 76.9814 4.5182 76.9739 4.92109 76.9739C27.573 76.9739 46.4228 95.3897 46.9406 118.026C46.9659 119.125 47.8654 120 48.9601 120C48.9758 120 48.9914 120 49.0074 120C50.1231 119.974 51.0069 119.049 50.9814 117.933C50.7051 105.853 45.7913 94.539 37.1451 86.0765C28.4846 77.6001 17.0407 72.9321 4.92109 72.9321Z" fill="#004290"/>
</g>
<defs>
<clipPath id="clip0">
<rect width="120" height="120" fill="white"/>
</clipPath>
</defs>
</svg>
