<svg width="120" height="120" viewBox="0 0 120 120" fill="none" xmlns="http://www.w3.org/2000/svg">
<g clip-path="url(#clip0)">
<path d="M108.379 63.3812H56.6185V11.62C56.6185 11.1906 56.4479 10.7787 56.1443 10.4751C55.8406 10.1714 55.4288 10.0008 54.9993 10.0008C44.1215 10.0008 33.4879 13.2265 24.4434 19.2699C15.3988 25.3134 8.34936 33.9031 4.1866 43.953C0.0238299 54.0028 -1.06534 65.0614 1.05682 75.7303C3.17898 86.3992 8.41716 96.1992 16.1089 103.891C23.8007 111.583 33.6007 116.821 44.2695 118.943C54.9383 121.065 65.9968 119.976 76.0466 115.813C86.0964 111.651 94.6862 104.601 100.73 95.5565C106.773 86.5119 109.999 75.8783 109.999 65.0004C109.999 64.571 109.828 64.1591 109.524 63.8555C109.221 63.5518 108.809 63.3812 108.379 63.3812ZM94.7312 66.6196C94.3131 76.5937 90.1634 86.0468 83.1045 93.1058C76.0456 100.165 66.5926 104.314 56.6185 104.732V66.6196H94.7312ZM15.2675 66.6196H53.3801V104.732C43.4061 104.314 33.953 100.165 26.8941 93.1058C19.8352 86.0468 15.6856 76.5937 15.2675 66.6196ZM53.3801 63.3812H15.2675C15.6856 53.4071 19.8352 43.954 26.8941 36.8951C33.953 29.8361 43.4061 25.6865 53.3801 25.2684V63.3812ZM54.9993 116.762C41.4146 116.757 28.3763 111.412 18.6973 101.88C9.01826 92.3475 3.47448 79.3923 3.26198 65.8092C3.04948 52.2261 8.18529 39.1038 17.5614 29.2736C26.9375 19.4433 39.8022 13.693 53.3801 13.2633V22.03C45.0179 22.3441 36.9289 25.0911 30.1046 29.9343C23.2804 34.7775 18.0174 41.5065 14.9608 49.2965C11.9041 57.0865 11.1865 65.599 12.8961 73.7908C14.6056 81.9825 18.6679 89.4976 24.5851 95.4148C30.5023 101.332 38.0173 105.394 46.209 107.104C54.4007 108.813 62.9132 108.096 70.7032 105.039C78.4931 101.982 85.222 96.7195 90.0652 89.8952C94.9084 83.0709 97.6554 74.9819 97.9695 66.6196H106.736C106.3 80.0555 100.66 92.7962 91.0065 102.152C81.3532 111.508 68.4423 116.746 54.9993 116.762Z" fill="#004290"/>
<path d="M65.8552 55.7632H73.5348C73.9374 55.7637 74.3234 55.9238 74.6082 56.2084C74.8929 56.493 75.0533 56.879 75.054 57.2816C75.0552 58.5425 75.5565 59.7515 76.4478 60.6434C77.3392 61.5353 78.5479 62.0372 79.8088 62.0392H80.5888C81.8503 62.038 83.0598 61.5364 83.9519 60.6444C84.844 59.7525 85.3459 58.5431 85.3474 57.2816C85.3481 56.879 85.5084 56.493 85.7932 56.2084C86.078 55.9238 86.464 55.7637 86.8666 55.7632H108.38C108.618 55.7634 108.854 55.7111 109.069 55.6099C109.285 55.5088 109.475 55.3613 109.627 55.178C109.779 54.9947 109.889 54.7802 109.949 54.5496C110.008 54.3191 110.016 54.0782 109.972 53.8443C107.882 42.9991 102.59 33.0288 94.7804 25.2191C86.9705 17.4093 77.0002 12.1182 66.155 10.0282C65.921 9.98394 65.6802 9.99187 65.4497 10.0514C65.2191 10.1109 65.0046 10.2206 64.8213 10.3726C64.638 10.5246 64.4905 10.7152 64.3894 10.9307C64.2882 11.1463 64.2358 11.3815 64.236 11.6196V54.1441C64.2363 54.5734 64.407 54.9851 64.7106 55.2887C65.0142 55.5923 65.4259 55.763 65.8552 55.7632ZM86.8657 52.5249C85.6046 52.5263 84.3955 53.028 83.5038 53.9197C82.6121 54.8114 82.1105 56.0205 82.109 57.2816C82.1085 57.6845 81.9482 58.0708 81.6631 58.3556C81.3781 58.6405 80.9918 58.8006 80.5888 58.8008H79.8088C79.4062 58.8001 79.0203 58.6398 78.7357 58.355C78.4511 58.0702 78.291 57.6842 78.2905 57.2816C78.289 56.0203 77.7873 54.8111 76.8954 53.9194C76.0034 53.0276 74.7942 52.5261 73.5329 52.5249H67.4744V25.9998C73.7443 27.8828 79.4493 31.2916 84.0785 35.9207C88.7076 40.5499 92.1163 46.2549 93.9993 52.5249H86.8657ZM106.388 52.5249H97.3431C95.3746 45.3872 91.5875 38.8825 86.352 33.6468C81.1166 28.4112 74.612 24.6238 67.4744 22.6551V13.6098C76.9481 15.8145 85.6148 20.6285 92.4927 27.5064C99.3706 34.3843 104.184 43.0512 106.388 52.5249Z" fill="#004290"/>
<path d="M71.5871 88.0512C72.847 88.0512 74.0786 87.6776 75.1262 86.9776C76.1738 86.2777 76.9903 85.2828 77.4725 84.1187C77.9546 82.9547 78.0808 81.6738 77.835 80.4381C77.5892 79.2024 76.9825 78.0673 76.0916 77.1764C75.2007 76.2855 74.0656 75.6788 72.8299 75.433C71.5941 75.1871 70.3133 75.3133 69.1493 75.7955C67.9852 76.2776 66.9903 77.0941 66.2903 78.1417C65.5904 79.1893 65.2168 80.421 65.2168 81.6809C65.2187 83.3698 65.8905 84.989 67.0847 86.1832C68.279 87.3775 69.8982 88.0493 71.5871 88.0512ZM71.5871 78.5489C72.2065 78.5489 72.812 78.7326 73.3271 79.0768C73.8421 79.4209 74.2436 79.91 74.4806 80.4823C74.7177 81.0546 74.7797 81.6844 74.6588 82.2919C74.538 82.8995 74.2397 83.4575 73.8017 83.8955C73.3637 84.3335 72.8056 84.6318 72.1981 84.7527C71.5905 84.8735 70.9608 84.8115 70.3885 84.5745C69.8162 84.3374 69.3271 83.936 68.9829 83.4209C68.6388 82.9059 68.4551 82.3003 68.4551 81.6809C68.4561 80.8505 68.7864 80.0545 69.3735 79.4673C69.9607 78.8802 70.7567 78.5499 71.5871 78.5489Z" fill="#004290"/>
<path d="M38.3181 75.3105C37.0582 75.3105 35.8265 75.6842 34.7789 76.3841C33.7314 77.0841 32.9149 78.079 32.4327 79.2431C31.9505 80.4071 31.8244 81.688 32.0702 82.9237C32.316 84.1594 32.9227 85.2945 33.8136 86.1854C34.7045 87.0763 35.8396 87.683 37.0753 87.9288C38.311 88.1746 39.5919 88.0485 40.7559 87.5663C41.9199 87.0842 42.9148 86.2677 43.6148 85.2201C44.3148 84.1725 44.6884 82.9408 44.6884 81.6809C44.6864 79.992 44.0147 78.3728 42.8204 77.1785C41.6262 75.9843 40.007 75.3125 38.3181 75.3105ZM38.3181 84.8129C37.6987 84.8129 37.0931 84.6292 36.5781 84.285C36.063 83.9409 35.6616 83.4517 35.4245 82.8794C35.1875 82.3072 35.1255 81.6774 35.2463 81.0699C35.3672 80.4623 35.6655 79.9043 36.1035 79.4663C36.5415 79.0282 37.0995 78.73 37.7071 78.6091C38.3146 78.4883 38.9444 78.5503 39.5166 78.7873C40.0889 79.0244 40.5781 79.4258 40.9222 79.9409C41.2664 80.4559 41.45 81.0614 41.45 81.6809C41.4491 82.5112 41.1188 83.3073 40.5316 83.8944C39.9445 84.4816 39.1484 84.8119 38.3181 84.8129Z" fill="#004290"/>
<path d="M38.3181 54.6889C39.578 54.6889 40.8097 54.3153 41.8572 53.6153C42.9048 52.9153 43.7213 51.9204 44.2035 50.7564C44.6856 49.5924 44.8118 48.3115 44.566 47.0758C44.3202 45.8401 43.7135 44.705 42.8226 43.8141C41.9317 42.9232 40.7966 42.3164 39.5609 42.0706C38.3252 41.8248 37.0443 41.951 35.8803 42.4332C34.7163 42.9153 33.7214 43.7318 33.0214 44.7794C32.3214 45.827 31.9478 47.0587 31.9478 48.3186C31.9495 50.0076 32.6212 51.6269 33.8155 52.8212C35.0098 54.0155 36.6291 54.6872 38.3181 54.6889ZM38.3181 45.1866C38.9375 45.1866 39.5431 45.3703 40.0581 45.7144C40.5732 46.0586 40.9746 46.5477 41.2116 47.12C41.4487 47.6923 41.5107 48.3221 41.3899 48.9296C41.269 49.5371 40.9707 50.0952 40.5327 50.5332C40.0947 50.9712 39.5366 51.2695 38.9291 51.3904C38.3216 51.5112 37.6918 51.4492 37.1195 51.2121C36.5473 50.9751 36.0581 50.5737 35.714 50.0586C35.3698 49.5436 35.1861 48.938 35.1861 48.3186C35.1871 47.4882 35.5174 46.6922 36.1046 46.105C36.6917 45.5179 37.4877 45.1876 38.3181 45.1866Z" fill="#004290"/>
<path d="M78.2164 37.1982C76.9565 37.1982 75.7248 37.5719 74.6772 38.2719C73.6296 38.9719 72.8131 39.9669 72.3309 41.131C71.8488 42.2951 71.7227 43.576 71.9686 44.8117C72.2145 46.0475 72.8213 47.1825 73.7123 48.0734C74.6033 48.9643 75.7384 49.5709 76.9742 49.8166C78.21 50.0623 79.4909 49.936 80.6549 49.4537C81.8189 48.9714 82.8137 48.1548 83.5136 47.1071C84.2135 46.0594 84.5869 44.8276 84.5867 43.5677C84.5848 41.8788 83.913 40.2597 82.7187 39.0656C81.5244 37.8715 79.9053 37.2 78.2164 37.1982ZM78.2164 46.6996C77.597 46.6996 76.9915 46.5159 76.4764 46.1718C75.9614 45.8276 75.5599 45.3385 75.3229 44.7662C75.0858 44.1939 75.0238 43.5642 75.1447 42.9566C75.2655 42.3491 75.5638 41.791 76.0018 41.353C76.4398 40.915 76.9979 40.6167 77.6054 40.4959C78.213 40.375 78.8427 40.437 79.415 40.6741C79.9873 40.9111 80.4764 41.3126 80.8206 41.8276C81.1647 42.3427 81.3484 42.9482 81.3484 43.5677C81.3474 44.398 81.0171 45.1941 80.43 45.7812C79.8428 46.3684 79.0468 46.6986 78.2164 46.6996Z" fill="#004290"/>
<path d="M50.1547 70.5971C50.0214 70.4314 49.8567 70.2936 49.67 70.1915C49.4834 70.0895 49.2785 70.0252 49.067 70.0025C48.8555 69.9797 48.6416 69.9988 48.4375 70.0588C48.2335 70.1188 48.0432 70.2184 47.8777 70.3519L46.5397 71.4289C46.2053 71.6989 45.9917 72.0906 45.9461 72.518C45.9005 72.9454 46.0265 73.3734 46.2964 73.7078C46.5663 74.0423 46.9581 74.2558 47.3854 74.3015C47.8128 74.3471 48.2408 74.2211 48.5753 73.9512L49.9104 72.8732C50.2445 72.6037 50.4579 72.2126 50.5037 71.7858C50.5495 71.3589 50.424 70.9314 50.1547 70.5971Z" fill="#004290"/>
<path d="M46.3501 59.6585L48.0581 59.8435C48.1152 59.8498 48.1727 59.8529 48.2302 59.8528C48.6458 59.8539 49.0459 59.6952 49.3477 59.4095C49.6496 59.1238 49.83 58.733 49.8516 58.3179C49.8732 57.9029 49.7345 57.4954 49.464 57.1798C49.1935 56.8643 48.812 56.6648 48.3986 56.6227L46.6906 56.4377C46.2635 56.3925 45.8359 56.5189 45.502 56.789C45.168 57.0591 44.9551 57.4507 44.9099 57.8778C44.8648 58.3049 44.9911 58.7325 45.2612 59.0664C45.5313 59.4004 45.923 59.6133 46.3501 59.6585Z" fill="#004290"/>
<path d="M47.4123 38.0855C47.4623 38.0855 47.5132 38.0855 47.5641 38.079C47.7759 38.0595 47.9817 37.9985 48.1699 37.8994C48.3581 37.8003 48.525 37.6651 48.6609 37.5015C48.7968 37.3379 48.8992 37.1491 48.9621 36.9459C49.0251 36.7427 49.0474 36.5292 49.0278 36.3174L48.8686 34.6066C48.8489 34.3949 48.7876 34.1891 48.6884 34.0011C48.5891 33.813 48.4538 33.6463 48.2901 33.5106C48.1264 33.3748 47.9376 33.2727 47.7345 33.2099C47.5313 33.1471 47.3178 33.1249 47.1061 33.1447C46.8943 33.1644 46.6886 33.2257 46.5005 33.325C46.3125 33.4242 46.1458 33.5596 46.0101 33.7232C45.8743 33.8869 45.7721 34.0757 45.7094 34.2789C45.6466 34.482 45.6244 34.6956 45.6442 34.9073L45.8033 36.6181C45.8413 37.0189 46.027 37.3912 46.3245 37.6625C46.6219 37.9337 47.0097 38.0846 47.4123 38.0855Z" fill="#004290"/>
<path d="M62.2541 73.4929L63.9131 73.937C64.3279 74.0482 64.7699 73.99 65.1419 73.7753C65.5138 73.5606 65.7852 73.2069 65.8964 72.792C66.0075 72.3772 65.9493 71.9352 65.7346 71.5633C65.5199 71.1913 65.1662 70.9199 64.7514 70.8088L63.0915 70.3646C62.6767 70.2536 62.2347 70.3119 61.8628 70.5267C61.491 70.7415 61.2197 71.0953 61.1087 71.5101C60.9976 71.9249 61.0559 72.3669 61.2708 72.7387C61.4856 73.1106 61.8393 73.3819 62.2541 73.4929Z" fill="#004290"/>
<path d="M24.3256 71.9682L22.9858 73.0498C22.8203 73.1834 22.6827 73.3484 22.5809 73.5352C22.4791 73.7221 22.415 73.9271 22.3925 74.1387C22.3699 74.3503 22.3893 74.5642 22.4494 74.7683C22.5095 74.9724 22.6093 75.1627 22.7429 75.3282C22.8766 75.4938 23.0415 75.6314 23.2284 75.7332C23.4152 75.835 23.6203 75.899 23.8318 75.9215C24.0434 75.9441 24.2573 75.9248 24.4614 75.8646C24.6655 75.8045 24.8558 75.7048 25.0213 75.5711L26.3583 74.4932C26.5239 74.3595 26.6615 74.1946 26.7633 74.0077C26.8651 73.8209 26.9291 73.6158 26.9516 73.4043C26.9742 73.1927 26.9548 72.9788 26.8947 72.7747C26.8346 72.5706 26.7349 72.3803 26.6012 72.2147C26.4675 72.0492 26.3026 71.9116 26.1158 71.8098C25.9289 71.708 25.7239 71.644 25.5123 71.6214C25.3007 71.5989 25.0868 71.6182 24.8827 71.6783C24.6786 71.7385 24.4883 71.8382 24.3228 71.9719L24.3256 71.9682Z" fill="#004290"/>
<path d="M81.292 72.8919L82.641 73.9541C82.9785 74.2198 83.4077 74.3404 83.8342 74.2896C84.2607 74.2387 84.6496 74.0206 84.9152 73.683C85.1809 73.3455 85.3015 72.9162 85.2507 72.4897C85.1999 72.0632 84.9817 71.6744 84.6441 71.4088L83.2942 70.3466C82.9567 70.0811 82.5275 69.9605 82.1011 70.0114C81.6746 70.0624 81.2859 70.2806 81.0204 70.6181C80.7549 70.9557 80.6343 71.3849 80.6853 71.8113C80.7362 72.2377 80.9544 72.6264 81.292 72.8919Z" fill="#004290"/>
<path d="M24.0693 53.8687C23.8039 54.2061 23.6833 54.6352 23.7342 55.0615C23.785 55.4878 24.0031 55.8765 24.3404 56.142L25.6903 57.2051C26.0279 57.4684 26.4561 57.5872 26.8811 57.5356C27.306 57.484 27.6933 57.2661 27.9581 56.9298C28.2229 56.5934 28.3437 56.1658 28.2942 55.7406C28.2446 55.3154 28.0286 54.9271 27.6935 54.6607L26.3435 53.5976C26.006 53.3321 25.5768 53.2115 25.1503 53.2624C24.7238 53.3132 24.335 53.5313 24.0693 53.8687Z" fill="#004290"/>
<path d="M64.6552 93.2576L63.3164 94.3355C62.9819 94.6054 62.7684 94.9972 62.7227 95.4245C62.6771 95.8519 62.8031 96.2799 63.073 96.6144C63.343 96.9489 63.7347 97.1624 64.1621 97.208C64.5894 97.2537 65.0174 97.1277 65.3519 96.8577L66.6898 95.7798C67.0201 95.5091 67.2301 95.119 67.2741 94.6942C67.3181 94.2694 67.1925 93.8445 66.9247 93.5119C66.6569 93.1793 66.2685 92.9659 65.8441 92.9183C65.4198 92.8707 64.9938 92.9926 64.6589 93.2576H64.6552Z" fill="#004290"/>
<path d="M47.8426 94.0579L46.2096 93.5203C45.8042 93.3951 45.3659 93.4341 44.9889 93.6288C44.612 93.8234 44.3265 94.1582 44.1939 94.5612C44.0612 94.9642 44.0921 95.4032 44.2797 95.7837C44.4674 96.1641 44.7969 96.4558 45.1973 96.5958L46.8285 97.1334C47.0313 97.2031 47.2458 97.2318 47.4598 97.2179C47.6737 97.204 47.8827 97.1478 48.0747 97.0524C48.2667 96.9571 48.4379 96.8246 48.5783 96.6626C48.7187 96.5006 48.8256 96.3123 48.8926 96.1087C48.9597 95.9051 48.9857 95.6902 48.9691 95.4765C48.9524 95.2628 48.8935 95.0545 48.7957 94.8637C48.698 94.6729 48.5633 94.5034 48.3995 94.3651C48.2357 94.2268 48.0471 94.1223 47.8426 94.0579Z" fill="#004290"/>
<path d="M73.2192 35.5773C73.604 35.5771 73.9762 35.4398 74.2691 35.1901C74.5619 34.9403 74.7561 34.5945 74.8171 34.2145C74.878 33.8345 74.8016 33.4452 74.6015 33.1164C74.4014 32.7876 74.0908 32.5409 73.7253 32.4204L72.0941 31.8828C71.8914 31.8131 71.6768 31.7844 71.4629 31.7983C71.249 31.8122 71.0399 31.8685 70.8479 31.9638C70.6559 32.0591 70.4847 32.1916 70.3443 32.3536C70.2039 32.5156 70.0971 32.7039 70.03 32.9075C69.9629 33.1111 69.937 33.326 69.9536 33.5397C69.9702 33.7535 70.0291 33.9618 70.1269 34.1525C70.2246 34.3433 70.3593 34.5128 70.5231 34.6511C70.6869 34.7894 70.8765 34.8939 71.0809 34.9583L72.7131 35.4959C72.8764 35.5499 73.0472 35.5773 73.2192 35.5773Z" fill="#004290"/>
</g>
<defs>
<clipPath id="clip0">
<rect width="120" height="120" fill="white"/>
</clipPath>
</defs>
</svg>
