<svg width="200" height="200" viewBox="0 0 200 200" fill="none" xmlns="http://www.w3.org/2000/svg">
<path d="M194.363 44.4075H45.8269C44.3914 44.4075 43.235 45.5638 43.235 46.9993V178.389C43.235 179.824 44.3914 180.981 45.8269 180.981H194.363C195.798 180.981 196.955 179.824 196.955 178.389V46.9993C196.955 45.5638 195.798 44.4075 194.363 44.4075Z" fill="#FF6300"/>
<path d="M196.237 45.1646L172.232 21.7178C171.753 21.2393 171.115 21 170.438 21H69.8717C69.1938 21 68.5558 21.2792 68.0773 21.7178L44.0723 45.1646C43.3147 45.8823 43.0754 46.9988 43.4742 47.9957C43.8729 48.9527 44.8299 49.5907 45.8667 49.5907H194.443C195.479 49.5907 196.436 48.9527 196.835 47.9957C197.194 46.9988 196.955 45.8823 196.237 45.1646Z" fill="#E44501"/>
<path d="M165.852 144.574C158.435 144.574 152.374 138.553 152.374 131.096V113.711C152.374 112.275 153.53 111.119 154.966 111.119H176.738C178.173 111.119 179.33 112.275 179.33 113.711V131.096C179.33 138.553 173.269 144.574 165.852 144.574ZM157.518 116.303V131.136C157.518 135.722 161.266 139.47 165.852 139.47C170.438 139.47 174.186 135.722 174.186 131.136V116.303H157.518Z" fill="#F7941E"/>
<path d="M176.738 166.505H154.966C153.53 166.505 152.374 165.349 152.374 163.913C152.374 162.478 153.53 161.322 154.966 161.322H176.738C178.173 161.322 179.33 162.478 179.33 163.913C179.33 165.349 178.173 166.505 176.738 166.505Z" fill="#F7941E"/>
<path d="M165.852 166.506C164.416 166.506 163.26 165.35 163.26 163.914V142.023C163.26 140.587 164.416 139.431 165.852 139.431C167.287 139.431 168.444 140.587 168.444 142.023V163.914C168.444 165.35 167.287 166.506 165.852 166.506Z" fill="#F7941E"/>
<path d="M133.194 49.3916H106.717V181.1H133.194V49.3916Z" fill="#FFA700"/>
<path d="M76.0923 142.42L98.9409 165.268L76.0923 142.42Z" fill="#F7941E"/>
<path d="M98.9409 167.82C98.2631 167.82 97.625 167.581 97.1066 167.063L74.258 144.214C73.2612 143.217 73.2612 141.582 74.258 140.585C75.2549 139.588 76.8898 139.588 77.8867 140.585L100.735 163.434C101.732 164.431 101.732 166.066 100.735 167.063C100.257 167.581 99.5789 167.82 98.9409 167.82Z" fill="white"/>
<path d="M129.924 182.295L103.965 156.336C100.017 152.389 93.5976 152.389 89.6499 156.336C87.7359 158.25 86.6991 160.802 86.6991 163.474C86.6991 166.186 87.7359 168.738 89.6499 170.652L115.609 196.61C117.563 198.564 120.194 199.561 122.786 199.561C125.378 199.561 127.97 198.564 129.924 196.61C133.872 192.663 133.872 186.243 129.924 182.295Z" fill="#E44501"/>
<path d="M43.4343 84.9994C44.83 84.9595 45.9066 83.8031 45.9066 82.4473V68.9296C45.9066 68.2517 45.6275 67.5738 45.1091 67.0953C44.5907 66.6168 43.9527 66.3377 43.2349 66.3775C31.8306 66.6966 21.0642 71.3221 13.0094 79.4168C-4.33645 96.7626 -4.33645 124.994 13.0094 142.38C21.1041 150.475 31.8306 155.1 43.2349 155.419C43.2748 155.419 43.2748 155.419 43.3147 155.419C43.9926 155.419 44.6306 155.14 45.1091 154.702C45.6275 154.223 45.9066 153.545 45.9066 152.867V139.35C45.9066 137.954 44.83 136.837 43.4343 136.798C36.9346 136.518 30.8337 133.847 26.2081 129.261C16.1196 119.173 16.1196 102.784 26.2081 92.6954C30.8337 87.9103 36.9346 85.2386 43.4343 84.9994Z" fill="#F7941E"/>
<path d="M75.9728 79.337C67.24 70.6043 55.5964 65.9787 43.2749 66.2977V84.9594C43.3547 84.9594 43.3945 84.9594 43.4344 84.9594C50.6519 84.6803 57.6699 87.4317 62.774 92.4959C72.8625 102.584 72.8625 118.973 62.774 129.062C57.6699 134.166 50.612 136.917 43.4344 136.598C43.3945 136.598 43.3148 136.598 43.2749 136.598V155.26C43.7135 155.26 44.1123 155.26 44.5509 155.26C56.4338 155.26 67.559 150.674 75.9728 142.221C93.3186 124.954 93.3186 96.6828 75.9728 79.337Z" fill="#FFA700"/>
<path d="M127.691 21.0391H112.18L106.717 49.3905H133.154L127.691 21.0391Z" fill="#F7941E"/>
</svg>
