<svg width="200" height="200" viewBox="0 0 200 200" fill="none" xmlns="http://www.w3.org/2000/svg">
<g clip-path="url(#clip0)">
<path d="M191.641 131.51L191.132 130.928C178.957 117.154 161.476 109.268 143.086 109.268C141.814 109.268 140.76 110.285 140.723 111.594L140.142 158.368H13.1202C11.8118 158.368 10.7578 159.422 10.7578 160.73V179.811C10.7578 181.119 11.8118 182.173 13.1202 182.173H197.638C198.946 182.173 200 181.119 200 179.811V153.571C199.964 145.393 197.02 137.579 191.641 131.51Z" fill="#FFA700"/>
<path d="M114.992 65H18.39C8.25003 65 0 73.25 0 83.39V144.811C0 154.951 8.25003 163.201 18.39 163.201H114.992C125.132 163.201 133.382 154.951 133.382 144.811V83.39C133.382 73.25 125.132 65 114.992 65Z" fill="#E44501"/>
<path d="M181.356 182.899C181.356 190.858 174.923 197.291 166.963 197.291C159.004 197.291 152.571 190.858 152.571 182.899C152.571 174.94 159.004 168.507 166.963 168.507C174.923 168.507 181.356 174.94 181.356 182.899Z" fill="#013177"/>
<path d="M166.964 200.417C157.296 200.417 149.446 192.567 149.446 182.9C149.446 173.232 157.296 165.382 166.964 165.382C176.631 165.382 184.481 173.232 184.481 182.9C184.481 192.531 176.631 200.417 166.964 200.417ZM166.964 171.633C160.749 171.633 155.697 176.685 155.697 182.9C155.697 189.114 160.749 194.166 166.964 194.166C173.178 194.166 178.23 189.114 178.23 182.9C178.23 176.685 173.178 171.633 166.964 171.633Z" fill="#013177"/>
<path d="M115.028 65.2537H18.6444C8.50445 65.2537 0.290771 73.322 0.290771 83.2075V117.007H133.382V83.2075C133.382 73.322 125.132 65.2537 115.028 65.2537Z" fill="#FF6300"/>
<path d="M109.831 114.973L79.8111 89.2051C78.9025 88.4056 77.5941 88.2239 76.4674 88.7327C75.3407 89.2415 74.6502 90.3682 74.6502 91.5675V103.67H25.5498C23.8053 103.67 22.4242 105.087 22.4242 106.796V126.348C22.4242 128.093 23.8416 129.474 25.5498 129.474H74.6502V141.577C74.6502 142.776 75.3408 143.866 76.4311 144.411C76.8672 144.629 77.3033 144.702 77.7758 144.702C78.4663 144.702 79.1569 144.484 79.7384 144.012L109.758 119.77C110.485 119.189 110.921 118.317 110.921 117.372C110.958 116.463 110.558 115.554 109.831 114.973Z" fill="#FFA700"/>
<path d="M198.873 145.066C197.565 140.05 195.057 135.362 191.641 131.51L191.132 130.928C182.918 121.624 172.27 114.973 160.349 111.629C159.658 111.448 158.895 111.593 158.314 112.029C157.732 112.465 157.369 113.156 157.369 113.883V145.684C157.369 146.992 158.423 148.046 159.731 148.046H196.62C197.347 148.046 198.037 147.719 198.473 147.137C198.91 146.52 199.055 145.793 198.873 145.066Z" fill="#E44501"/>
<path d="M39.3967 165.382C29.7293 165.382 21.879 173.232 21.879 182.9C21.879 192.567 29.7293 200.417 39.3967 200.417C49.0642 200.417 56.9145 192.567 56.9145 182.9C56.8781 173.232 49.0278 165.382 39.3967 165.382Z" fill="#E44501"/>
<path d="M166.964 165.382C157.296 165.382 149.446 173.232 149.446 182.9C149.446 192.567 157.296 200.417 166.964 200.417C176.631 200.417 184.481 192.567 184.481 182.9C184.481 173.232 176.631 165.382 166.964 165.382Z" fill="#E44501"/>
<path d="M22.4242 116.572V126.348C22.4242 128.093 23.8416 129.474 25.5498 129.474H74.6502V141.576C74.6502 142.776 75.3408 143.866 76.4311 144.411C76.8672 144.629 77.3033 144.702 77.7758 144.702C78.4663 144.702 79.1569 144.484 79.7384 144.011L109.758 119.77C110.485 119.189 110.921 118.316 110.921 117.371C110.921 117.081 110.885 116.826 110.812 116.572H22.4242Z" fill="#F7941E"/>
<path d="M39.3967 170.505C32.564 170.505 27.0398 176.066 27.0398 182.862C27.0398 189.695 32.6004 195.219 39.3967 195.219C46.2293 195.219 51.7536 189.659 51.7536 182.862C51.7536 176.066 46.193 170.505 39.3967 170.505Z" fill="#FF6300"/>
<path d="M166.963 170.505C160.131 170.505 154.606 176.066 154.606 182.862C154.606 189.695 160.167 195.219 166.963 195.219C173.796 195.219 179.357 189.659 179.357 182.862C179.357 176.066 173.796 170.505 166.963 170.505Z" fill="#FF6300"/>
</g>
<defs>
<clipPath id="clip0">
<rect width="200" height="200" fill="white"/>
</clipPath>
</defs>
</svg>
