<svg width="200" height="200" viewBox="0 0 200 200" fill="none" xmlns="http://www.w3.org/2000/svg">
<path d="M126.862 49.5166H2.22623C0.993231 49.5166 0 50.5099 0 51.7086V197.477C0 198.71 0.993231 199.703 2.22623 199.703H126.862C128.095 199.703 129.089 198.71 129.089 197.477V51.7086C129.054 50.5099 128.061 49.5166 126.862 49.5166Z" fill="#FF6300"/>
<path d="M112.991 60.9556H17.7758C16.5428 60.9556 15.5495 61.9488 15.5495 63.1819V179.358C15.5495 180.591 16.5428 181.584 17.7758 181.584H112.991C114.224 181.584 115.217 180.591 115.217 179.358V63.1819C115.217 61.9488 114.224 60.9556 112.991 60.9556Z" fill="white"/>
<path d="M101.688 42.7343H80.3504C79.2544 34.9938 72.6099 29 64.5611 29C56.5123 29 49.8679 34.9938 48.7719 42.7343H27.434C26.201 42.7343 25.2078 43.7275 25.2078 44.9605V68.5246C25.2078 69.7576 26.201 70.7508 27.434 70.7508H101.688C102.921 70.7508 103.914 69.7576 103.914 68.5246V44.9605C103.88 43.7275 102.887 42.7343 101.688 42.7343Z" fill="#E44501"/>
<path d="M39.9695 84.9297C39.9695 88.2177 37.298 90.8892 34.01 90.8892C30.722 90.8892 28.0505 88.2177 28.0505 84.9297C28.0505 81.6417 30.722 78.9702 34.01 78.9702C37.298 78.9702 39.9695 81.6417 39.9695 84.9297Z" fill="#E44501"/>
<path d="M98.3321 87.1219H50.245C49.012 87.1219 48.0188 86.1287 48.0188 84.8957C48.0188 83.6627 49.012 82.6694 50.245 82.6694H98.3321C99.5651 82.6694 100.558 83.6627 100.558 84.8957C100.524 86.1287 99.5308 87.1219 98.3321 87.1219Z" fill="#E44501"/>
<path d="M39.9695 104.179C39.9695 107.467 37.298 110.138 34.01 110.138C30.722 110.138 28.0505 107.467 28.0505 104.179C28.0505 100.891 30.722 98.2192 34.01 98.2192C37.298 98.2535 39.9695 100.891 39.9695 104.179Z" fill="#E44501"/>
<path d="M98.3321 106.405H50.245C49.012 106.405 48.0188 105.411 48.0188 104.178C48.0188 102.945 49.012 101.952 50.245 101.952H98.3321C99.5651 101.952 100.558 102.945 100.558 104.178C100.524 105.411 99.5308 106.405 98.3321 106.405Z" fill="#E44501"/>
<path d="M39.9695 123.461C39.9695 126.749 37.298 129.42 34.01 129.42C30.722 129.42 28.0505 126.749 28.0505 123.461C28.0505 120.173 30.722 117.501 34.01 117.501C37.298 117.501 39.9695 120.173 39.9695 123.461Z" fill="#E44501"/>
<path d="M98.3321 125.653H50.245C49.012 125.653 48.0188 124.66 48.0188 123.427C48.0188 122.194 49.012 121.201 50.245 121.201H98.3321C99.5651 121.201 100.558 122.194 100.558 123.427C100.524 124.66 99.5308 125.653 98.3321 125.653Z" fill="#E44501"/>
<path d="M39.9695 142.71C39.9695 145.998 37.298 148.67 34.01 148.67C30.722 148.67 28.0505 145.998 28.0505 142.71C28.0505 139.422 30.722 136.75 34.01 136.75C37.298 136.785 39.9695 139.422 39.9695 142.71Z" fill="#E44501"/>
<path d="M98.3321 144.936H50.245C49.012 144.936 48.0188 143.943 48.0188 142.71C48.0188 141.477 49.012 140.483 50.245 140.483H98.3321C99.5651 140.483 100.558 141.477 100.558 142.71C100.524 143.943 99.5308 144.936 98.3321 144.936Z" fill="#E44501"/>
<path d="M124.979 120.243C124.876 119.661 124.533 119.147 124.054 118.839L115.32 112.811C114.327 112.126 112.923 112.365 112.238 113.359L87.0639 149.835C86.7214 150.315 86.6186 150.897 86.7214 151.479C86.8241 152.061 87.1666 152.575 87.6461 152.883L96.3799 158.911C96.7567 159.185 97.2019 159.288 97.6471 159.288C98.3664 159.288 99.0514 158.946 99.4624 158.329L124.636 121.818C124.944 121.407 125.081 120.825 124.979 120.243Z" fill="#FFA700"/>
<path d="M154.297 65.648C152.174 64.2095 149.639 63.6614 147.139 64.1067C144.604 64.5519 142.447 65.9904 140.974 68.0797L110.56 112.16C110.217 112.639 110.114 113.221 110.217 113.804C110.32 114.386 110.662 114.9 111.142 115.208L123.267 123.565C123.643 123.839 124.088 123.942 124.534 123.942C125.253 123.942 125.938 123.599 126.349 122.983L156.763 78.9027C159.743 74.6215 158.647 68.662 154.297 65.648Z" fill="#E44501"/>
<path d="M143.507 110.72C143.062 110.72 142.651 110.583 142.24 110.344C141.247 109.659 140.973 108.289 141.692 107.261L155.255 87.6016L151.933 79.9638C151.454 78.8336 151.967 77.5321 153.098 77.0526C154.228 76.5731 155.529 77.0868 156.009 78.2171L159.811 86.9851C160.119 87.6701 160.05 88.4921 159.605 89.1086L145.357 109.761C144.912 110.412 144.227 110.72 143.507 110.72Z" fill="#E44501"/>
<path d="M87.0637 149.904L80.1109 173.228L99.428 158.466L87.0637 149.904Z" fill="#E44501"/>
</svg>
