<svg width="120" height="120" viewBox="0 0 120 120" fill="none" xmlns="http://www.w3.org/2000/svg">
<path d="M55.9385 27.334C55.9805 26.5996 56 25.8604 56 25.0996V12H58C59.1045 12 60 11.1045 60 10V2C60 0.895508 59.1045 0 58 0H2C0.895508 0 0 0.895508 0 2V10C0 11.1045 0.895508 12 2 12H4V25.0996C4 25.8604 4.01953 26.5957 4.06152 27.3379C4.70312 36.0293 8.36035 44.2236 14.4004 50.5059L23.2637 60L14.4004 69.4922C8.3584 75.7754 4.70215 83.9727 4.06152 92.666C4.01953 93.4004 4 94.1396 4 94.9004V108H2C0.895508 108 0 108.896 0 110V118C0 119.104 0.895508 120 2 120H58C59.1045 120 60 119.104 60 118V110C60 108.896 59.1045 108 58 108H56V94.9004C56 94.1396 55.9805 93.4043 55.9385 92.6621C55.2969 83.9707 51.6396 75.7764 45.5996 69.4941L36.7363 60L45.5996 50.5078C51.6416 44.2246 55.2979 36.0273 55.9385 27.334ZM4 4H56V8H4V4ZM56 116H4V112H56V116ZM8 108V94.9004C8 94.2178 8.01758 93.5557 8.05566 92.9004V92.8623C13.9463 90.2217 21.958 88.792 28.582 95.418C32.2217 99.2295 37.2705 101.372 42.54 101.342C45.7832 101.291 48.9893 100.646 52 99.4385V108H8ZM32.5381 58.6338C31.8193 59.4023 31.8193 60.5977 32.5381 61.3662L42.6797 72.2256C48.0801 77.8252 51.3574 85.1348 51.9443 92.8916C51.9824 93.5557 52 94.2178 52 94.8916V95.1064C50.084 95.9824 48.0693 96.624 46 97.0156V96H42V97.3223C37.9873 97.1895 34.1875 95.4893 31.4141 92.5859C23.8379 85.0078 14.8896 86.0742 8.72168 88.29C10.0898 82.2578 13.0605 76.707 17.3223 72.2236L27.4619 61.3662C28.1807 60.5977 28.1807 59.4023 27.4619 58.6338L17.3203 47.7744C11.9199 42.1748 8.64258 34.8652 8.05566 27.1084C8.01758 26.4443 8 25.7822 8 25.1084V12H52V25.0996C52 25.7822 51.9824 26.4443 51.9443 27.0996C51.3574 34.8594 48.0801 42.1709 42.6777 47.7725L32.5381 58.6338Z" fill="#447BD4"/>
<path d="M27.9999 84H31.9999V88H27.9999V84Z" fill="#447BD4"/>
<path d="M27.9999 74H31.9999V78H27.9999V74Z" fill="#447BD4"/>
<path d="M27.9999 66H31.9999V70H27.9999V66Z" fill="#447BD4"/>
<path d="M36.0001 90H40.0001V94H36.0001V90Z" fill="#447BD4"/>
<path d="M17.2617 17.2676C10.2646 24.3145 10.2646 35.6875 17.2617 42.7344C18.9697 44.4463 21.0068 45.794 23.25 46.6963L24.7422 42.9844C22.999 42.2852 21.417 41.2383 20.0918 39.9082C14.6289 34.4395 14.6328 25.5772 20.0996 20.1123C25.5664 14.6475 34.4277 14.6475 39.8945 20.1123C45.3613 25.5772 45.3652 34.4395 39.9024 39.9082C38.5772 41.2393 36.9941 42.2871 35.25 42.9864L36.7422 46.6983C43.4942 43.9512 47.9229 37.4033 47.959 30.1133C47.9942 22.8242 43.6299 16.2324 36.9053 13.4199C30.1807 10.6065 22.4238 12.127 17.2578 17.2696L17.2617 17.2676Z" fill="#447BD4"/>
<path d="M35.6562 27.1719C36.4365 27.9532 36.4365 29.2188 35.6562 30L38.4863 32.8282C40.8281 30.4854 40.8281 26.6866 38.4863 24.3438L39.9004 22.9297L37.0723 20.1016L35.6582 21.5157C33.2822 19.252 29.5478 19.252 27.1719 21.5157C24.8281 23.8594 24.8281 27.6592 27.1719 30.002L24.3437 32.8301C23.5635 32.0489 23.5635 30.7832 24.3437 30.002L21.5137 27.1739C19.1719 29.5166 19.1719 33.3155 21.5137 35.6582L20.0996 37.0723L22.9277 39.9004L24.3418 38.4864C26.6855 40.8291 30.4844 40.8291 32.8281 38.4864C35.1709 36.1426 35.1709 32.3438 32.8281 30L35.6562 27.1719ZM30 27.1719C29.2187 26.3907 29.2187 25.125 30 24.3438C30.79 23.586 32.0381 23.586 32.8281 24.3438L30 27.1719ZM30 32.8282C30.7812 33.6094 30.7812 34.875 30 35.6563C29.2099 36.4141 27.9619 36.4141 27.1719 35.6563L30 32.8282Z" fill="#447BD4"/>
<path d="M26 44H30V48H26V44Z" fill="#447BD4"/>
<path d="M30 48L34 48V52H30L30 48Z" fill="#447BD4"/>
<path d="M26 52L30 52L30 56H26V52Z" fill="#447BD4"/>
</svg>
