<svg width="120" height="120" viewBox="0 0 120 120" fill="none" xmlns="http://www.w3.org/2000/svg">
<path d="M92.9031 26.618L118.521 13.809L92.9031 1V6.06709H56.1289V9.93805H96.774V7.26321L109.866 13.809L96.774 20.3548V17.68H40.6451V21.5509H92.9031V26.618Z" fill="#447BD4"/>
<path d="M48.387 6.06698H52.258V9.93794H48.387V6.06698Z" fill="#447BD4"/>
<path d="M40.6451 6.06698H44.516V9.93794H40.6451V6.06698Z" fill="#447BD4"/>
<path d="M67.742 93.9031L42.124 106.712L67.742 119.521V114.454H104.516V110.583H63.8711V113.258L50.7795 106.712L63.8711 100.166V102.841H120V98.9702H67.742V93.9031Z" fill="#447BD4"/>
<path d="M108.387 110.583H112.258V114.454H108.387V110.583Z" fill="#447BD4"/>
<path d="M116.129 110.583H120V114.454H116.129V110.583Z" fill="#447BD4"/>
<path d="M108.387 75.7443H112.258V79.6152H108.387V75.7443Z" fill="#447BD4"/>
<path d="M100.645 75.7443H104.516V79.6152H100.645V75.7443Z" fill="#447BD4"/>
<path d="M92.9031 75.7443H96.774V79.6152H92.9031V75.7443Z" fill="#447BD4"/>
<path d="M92.9031 68.0024H112.258V71.8733H92.9031V68.0024Z" fill="#447BD4"/>
<path d="M114.193 37.0347H68.0921C60.7121 28.4179 50.067 23.4863 38.7096 23.4863C17.3651 23.4863 0 40.8514 0 62.1959C0 83.5404 17.3651 100.906 38.7096 100.906C50.067 100.906 60.7121 95.9739 68.0921 87.3572H114.193C117.395 87.3572 120 84.752 120 81.5507V42.8411C120 39.6398 117.395 37.0347 114.193 37.0347ZM96.774 40.9056V48.6476H85.1611V40.9056H96.774ZM64.0915 38.3624C63.2786 39.0263 62.6515 39.8972 62.2915 40.9056H51.747C50.4599 35.7708 48.6754 31.3289 46.4167 28.2147C53.1502 29.736 59.2915 33.245 64.0915 38.3624ZM61.9354 79.6152H52.6025C53.5393 74.7281 54.0676 69.4133 54.1722 64.1314H61.9354V79.6152ZM38.7096 97.0346C35.4386 97.0346 31.9528 91.9307 29.6632 83.4862H47.758C45.4664 91.9307 41.9806 97.0346 38.7096 97.0346ZM28.738 79.6152C27.8206 75.1133 27.2438 69.8817 27.1335 64.1314H50.2876C50.1773 69.8817 49.5986 75.1133 48.6831 79.6152H28.738ZM3.96967 64.1314H23.2471C23.3516 69.4133 23.88 74.7281 24.8167 79.6152H8.58579C5.91289 75.0127 4.27935 69.7501 3.96967 64.1314ZM38.7096 27.3573C41.9806 27.3573 45.4664 32.4611 47.756 40.9056H29.6612C31.9528 32.4611 35.4386 27.3573 38.7096 27.3573ZM48.6812 44.7766C49.5986 49.2785 50.1754 54.5101 50.2857 60.2604H27.1335C27.2438 54.5101 27.8225 49.2785 28.738 44.7766H48.6812ZM23.2471 60.2604H3.96967C4.28128 54.6417 5.91289 49.3792 8.58579 44.7766H24.8167C23.88 49.6637 23.3516 54.9785 23.2471 60.2604ZM61.9354 60.2604H54.1722C54.0676 54.9785 53.5393 49.6637 52.6025 44.7766H61.9354V60.2604ZM30.9754 28.2515C28.7303 31.3637 26.9535 35.7902 25.6722 40.9056H11.1948C16.0567 34.6366 22.9896 30.0727 30.9754 28.2515ZM11.1948 83.4862H25.6722C26.9535 88.6017 28.7283 93.0281 30.9754 96.1384C22.9896 94.3191 16.0567 89.7552 11.1948 83.4862ZM46.4167 96.1771C48.6754 93.063 50.4599 88.621 51.747 83.4862H62.2915C62.6515 84.4946 63.2766 85.3656 64.0915 86.0294C59.2915 91.1468 53.1502 94.6559 46.4167 96.1771ZM116.129 81.5507C116.129 82.6191 115.26 83.4862 114.193 83.4862H67.7418C66.6754 83.4862 65.8063 82.6191 65.8063 81.5507V42.8411C65.8063 41.7747 66.6754 40.9056 67.7418 40.9056H81.2902V52.5185H100.645V40.9056H114.193C115.26 40.9056 116.129 41.7747 116.129 42.8411V81.5507Z" fill="#447BD4"/>
<path d="M30.9677 68.0024H34.8386V71.8733H30.9677V68.0024Z" fill="#447BD4"/>
<path d="M38.7096 68.0024H42.5806V71.8733H38.7096V68.0024Z" fill="#447BD4"/>
<path d="M42.5806 52.5185H46.4515V56.3895H42.5806V52.5185Z" fill="#447BD4"/>
<path d="M34.8386 52.5185H38.7096V56.3895H34.8386V52.5185Z" fill="#447BD4"/>
</svg>
