<svg width="120" height="120" viewBox="0 0 120 120" fill="none" xmlns="http://www.w3.org/2000/svg">
<path d="M105 21.7969C106.294 21.7969 107.344 20.7476 107.344 19.4531V7.03125C107.344 3.15422 104.19 0 100.312 0H7.03125C3.15422 0 0 3.15422 0 7.03125V112.969C0 116.846 3.15422 120 7.03125 120H100.312C104.19 120 107.344 116.846 107.344 112.969V106.406C107.344 105.112 106.294 104.062 105 104.062C103.706 104.062 102.656 105.112 102.656 106.406V112.969C102.656 114.261 101.605 115.312 100.312 115.312H7.03125C5.73891 115.312 4.6875 114.261 4.6875 112.969V7.03125C4.6875 5.73891 5.73891 4.6875 7.03125 4.6875H100.312C101.605 4.6875 102.656 5.73891 102.656 7.03125V19.4531C102.656 20.7476 103.706 21.7969 105 21.7969Z" fill="#447BD4"/>
<path d="M93.7504 11.25H13.5913C12.2969 11.25 11.2476 12.2993 11.2476 13.5938V62.5781C11.2476 63.8726 12.2969 64.9219 13.5913 64.9219C14.8858 64.9219 15.9351 63.8726 15.9351 62.5781V15.9375H91.4066V19.6875C91.4066 20.982 92.4562 22.0312 93.7504 22.0312C95.0448 22.0312 96.0941 20.982 96.0941 19.6875V13.5938C96.0941 12.2993 95.0448 11.25 93.7504 11.25Z" fill="#447BD4"/>
<path d="M15.2474 69.593C14.8115 69.157 14.2091 68.9062 13.5904 68.9062C12.974 68.9062 12.3693 69.157 11.9333 69.593C11.4974 70.0289 11.2466 70.6336 11.2466 71.25C11.2466 71.8664 11.4974 72.4711 11.9333 72.907C12.3693 73.343 12.974 73.5938 13.5904 73.5938C14.2091 73.5938 14.8115 73.343 15.2474 72.907C15.6857 72.4711 15.9341 71.8664 15.9341 71.25C15.9341 70.6336 15.6857 70.0289 15.2474 69.593Z" fill="#447BD4"/>
<path d="M93.7504 98.9062C92.4559 98.9062 91.4066 99.9556 91.4066 101.25V104.062H15.9351V80.2734C15.9351 78.979 14.8858 77.9297 13.5913 77.9297C12.2969 77.9297 11.2476 78.979 11.2476 80.2734V106.406C11.2476 107.701 12.2969 108.75 13.5913 108.75H93.7504C95.0448 108.75 96.0941 107.701 96.0941 106.406V101.25C96.0941 99.9556 95.0448 98.9062 93.7504 98.9062Z" fill="#447BD4"/>
<path d="M72.6329 82.8132C71.7177 81.8977 70.2338 81.8977 69.3184 82.813L64.6862 87.4454L61.8069 84.5658C59.9888 82.748 57.0313 82.748 55.2132 84.5658L53.3396 86.4394C52.4244 87.3547 52.4244 88.8387 53.3396 89.7542C54.2548 90.6694 55.7389 90.6694 56.6544 89.7542L58.5102 87.8984L61.3895 90.778C62.2984 91.6869 63.4923 92.1413 64.6862 92.1413C65.8801 92.1413 67.074 91.6869 67.9829 90.778L72.6329 86.128C73.5481 85.2127 73.5481 83.7287 72.6329 82.8132Z" fill="#447BD4"/>
<path d="M118.92 49.1677C119.953 47.5563 120.261 45.5716 119.766 43.7229C119.27 41.8741 118.011 40.3097 116.311 39.4308C115.574 39.0497 115.122 38.2678 115.161 37.4388C115.25 35.5268 114.525 33.6541 113.171 32.3006C111.818 30.9473 109.946 30.221 108.033 30.311C107.2 30.3513 106.422 29.8981 106.041 29.1609C105.162 27.4608 103.598 26.2015 101.749 25.706C99.8996 25.2103 97.9156 25.519 96.3045 26.5519C95.6059 27 94.703 26.9998 94.0046 26.5519C92.3933 25.5188 90.4091 25.2106 88.5601 25.706C86.7113 26.2015 85.1469 27.4608 84.268 29.1609C83.8869 29.8983 83.1029 30.3485 82.276 30.311C80.3633 30.2217 78.4913 30.9473 77.1381 32.3006C75.7845 33.6541 75.0594 35.5268 75.1482 37.4386C75.1869 38.2678 74.7352 39.0497 73.9981 39.4308C72.298 40.3097 71.0387 41.8739 70.5432 43.7229C70.3067 44.6048 70.2554 45.5177 70.3766 46.4063H29.4781C28.1837 46.4063 27.1344 47.4556 27.1344 48.75C27.1344 50.0445 28.1837 51.0938 29.4781 51.0938H71.574C71.5236 51.2224 71.4652 51.3488 71.3888 51.4678C70.3559 53.0791 70.0475 55.0638 70.543 56.9126C70.6109 57.1664 70.6946 57.4144 70.7907 57.6563H29.4774C28.183 57.6563 27.1337 58.7056 27.1337 60C27.1337 61.2945 28.183 62.3438 29.4774 62.3438H75.0083C75.1102 62.6116 75.1613 62.9006 75.1475 63.1966C75.0587 65.1087 75.7838 66.9813 77.1374 68.3349C78.4906 69.6881 80.3626 70.4147 82.2753 70.3245C83.1034 70.2839 83.8862 70.7372 84.2673 71.4745C84.5488 72.0192 84.9015 72.5177 85.3105 72.9614V94.8504C85.3105 95.7973 85.8802 96.6511 86.7545 97.0146C87.6284 97.3781 88.6358 97.1798 89.3073 96.5119L95.1542 90.6954L101.001 96.5119C101.449 96.9577 102.047 97.1942 102.655 97.1942C102.958 97.1942 103.263 97.1353 103.554 97.0144C104.428 96.6509 104.998 95.797 104.998 94.8502V72.9612C105.407 72.5177 105.76 72.019 106.041 71.4743C106.422 70.737 107.205 70.2865 108.033 70.3242C109.947 70.4147 111.818 69.6881 113.171 68.3346C114.525 66.9811 115.25 65.1084 115.161 63.1964C115.122 62.3674 115.574 61.5856 116.311 61.2045C118.011 60.3256 119.27 58.7613 119.766 56.9123C120.261 55.0634 119.953 53.0789 118.92 51.4674C118.472 50.7691 118.472 49.8663 118.92 49.1677ZM100.31 89.213L96.807 85.7278C95.8927 84.8182 94.4155 84.8182 93.5012 85.7278L89.998 89.213V75.1523C91.4002 75.2184 92.8055 74.8519 94.0044 74.0836C94.703 73.6355 95.6059 73.6357 96.3043 74.0836C97.4113 74.7933 98.6942 75.161 99.9887 75.161C100.096 75.161 100.203 75.1556 100.31 75.1505V89.213ZM115.238 55.6995C115.081 56.2856 114.697 56.7621 114.158 57.0408C111.8 58.2602 110.355 60.762 110.478 63.4146C110.507 64.0209 110.286 64.5912 109.857 65.0206C109.427 65.4497 108.857 65.67 108.251 65.6423C105.597 65.5195 103.096 66.9633 101.877 69.3223C101.598 69.8616 101.122 70.245 100.535 70.402C99.9495 70.5588 99.3448 70.4653 98.8341 70.1377C97.7162 69.4209 96.4353 69.0628 95.154 69.0628C93.8731 69.0628 92.5918 69.4212 91.4741 70.1377C90.9631 70.4651 90.3587 70.5588 89.7725 70.402C89.1861 70.245 88.7098 69.8613 88.4309 69.3223C87.2115 66.9635 84.7117 65.5184 82.0571 65.6423C81.4522 65.6702 80.8806 65.4497 80.4514 65.0206C80.022 64.5912 79.8013 64.0209 79.8296 63.4144C79.9166 61.5422 79.2198 59.7473 77.9745 58.4234C77.938 58.3833 77.9007 58.3439 77.8613 58.3064C77.3668 57.8051 76.7937 57.3738 76.1497 57.0408C75.6106 56.7621 75.2272 56.2859 75.0702 55.6995C74.9131 55.1131 75.0069 54.5086 75.3345 53.9979C76.7677 51.7624 76.7677 48.8735 75.3345 46.6381C75.0071 46.1271 74.9131 45.5227 75.0702 44.9363C75.2272 44.3501 75.6109 43.8736 76.1499 43.5949C78.5087 42.3755 79.9531 39.8738 79.8298 37.2211C79.8015 36.6148 80.0225 36.0445 80.4517 35.6152C80.8808 35.1858 81.4522 34.9655 82.0573 34.9934C84.7116 35.1164 87.212 33.6724 88.4312 31.3134C88.7099 30.7741 89.1863 30.3907 89.7727 30.2337C90.3589 30.0769 90.9634 30.1704 91.4741 30.4981C93.7098 31.9315 96.5989 31.9315 98.8339 30.4981C99.3449 30.1706 99.9491 30.0764 100.535 30.2337C101.122 30.3907 101.598 30.7744 101.877 31.3134C103.096 33.6722 105.598 35.1171 108.251 34.9934C108.857 34.9657 109.427 35.1858 109.857 35.6152C110.286 36.0445 110.507 36.6148 110.478 37.2211C110.355 39.8735 111.799 42.3755 114.159 43.5949C114.698 43.8736 115.081 44.3498 115.238 44.9363C115.395 45.5227 115.301 46.1271 114.974 46.6378C113.54 48.8733 113.54 51.7622 114.974 53.9977C115.301 54.5086 115.395 55.1131 115.238 55.6995Z" fill="#447BD4"/>
<path d="M106.3 43.9421C105.385 43.0268 103.901 43.0268 102.986 43.9421L95.2064 51.7215L92.1096 48.6247C91.1944 47.7094 89.7103 47.7094 88.7949 48.6247C87.8796 49.5399 87.8796 51.024 88.7949 51.9394L93.5489 56.6935C94.0067 57.1512 94.6064 57.38 95.2062 57.38C95.806 57.38 96.406 57.1512 96.8635 56.6935L106.3 47.2568C107.215 46.3416 107.215 44.8575 106.3 43.9421Z" fill="#447BD4"/>
<path d="M28.6092 28.343C28.1732 27.907 27.5686 27.6562 26.9521 27.6562C26.3357 27.6562 25.731 27.907 25.2951 28.343C24.8592 28.7789 24.6084 29.3836 24.6084 30C24.6084 30.6164 24.8592 31.2211 25.2951 31.657C25.731 32.093 26.3357 32.3438 26.9521 32.3438C27.5686 32.3438 28.1732 32.093 28.6092 31.657C29.0451 31.2211 29.2959 30.6164 29.2959 30C29.2959 29.3836 29.0451 28.7789 28.6092 28.343Z" fill="#447BD4"/>
<path d="M47.1067 27.6562H35.7004C34.4059 27.6562 33.3566 28.7055 33.3566 30C33.3566 31.2945 34.4059 32.3438 35.7004 32.3438H47.1067C48.4012 32.3438 49.4505 31.2945 49.4505 30C49.4505 28.7055 48.4012 27.6562 47.1067 27.6562Z" fill="#447BD4"/>
<path d="M70.9757 68.9062H44.1814C42.887 68.9062 41.8377 69.9556 41.8377 71.25C41.8377 72.5445 42.887 73.5938 44.1814 73.5938H70.9754C72.2699 73.5938 73.3192 72.5445 73.3192 71.25C73.3192 69.9556 72.2701 68.9062 70.9757 68.9062Z" fill="#447BD4"/>
</svg>
