<svg width="120" height="120" viewBox="0 0 120 120" fill="none" xmlns="http://www.w3.org/2000/svg">
<g clip-path="url(#clip0)">
<path d="M106.001 30V9.99995C106.001 8.89545 105.106 7.99995 104.001 7.99995H96.0015V11.9999H102.001V30H106.001Z" fill="#447BD4"/>
<path d="M14.0057 60V110C14.0057 111.105 14.9012 112 16.0056 112H96.0015C97.1059 112 98.0014 111.105 98.0014 110V96H94.0016V108H18.0055V60H14.0057Z" fill="#447BD4"/>
<path d="M78.8305 0.200195C78.768 0.171875 78.7084 0.15625 78.644 0.133789C78.477 0.0761719 78.3032 0.0419922 78.1264 0.0302734C78.0825 0.0224609 78.0444 0 78.0024 0H16.0056C14.9012 0 14.0057 0.895508 14.0057 2V6H18.0055V4H76.0025V20C76.0025 21.1045 76.898 22 78.0024 22H94.0016V32H98.0014V20C98.0014 19.958 97.9799 19.9199 97.977 19.876C97.9662 19.6992 97.9311 19.5254 97.8735 19.3584C97.851 19.294 97.8354 19.2344 97.8071 19.1719C97.7104 18.9541 97.5746 18.7559 97.4077 18.5859L79.4086 0.585938C79.2397 0.424805 79.0444 0.293946 78.8305 0.200195ZM91.1736 18H80.0023V6.82813L91.1736 18Z" fill="#447BD4"/>
<path d="M46.0038 84.0001V100C46.0038 101.105 46.8993 102 48.0037 102H74.0024V98.0001H50.0036V86.0001H60.0031V82.0001H48.0037C46.8993 82.0001 46.0038 82.8956 46.0038 84.0001Z" fill="#447BD4"/>
<path d="M54.0034 90H66.0028V94H54.0034V90Z" fill="#447BD4"/>
<path d="M106.001 34C98.2736 34.0097 92.0112 40.2724 92.0014 48V48.2002L81.8018 58.9677L75.4164 52.582C74.6351 51.8007 73.3696 51.8007 72.5884 52.582L54.5893 70.582C53.8091 71.3633 53.8091 72.6289 54.5893 73.4101L82.5879 101.41C83.3691 102.19 84.6346 102.19 85.4158 101.41L102.001 84.8281V116H24.0049V120H104.001C105.105 120 106.001 119.104 106.001 118V70H102.001V79.1719L95.0296 72.2002L105.801 62H106.001C113.733 62 120 55.7324 120 48C120 40.2675 113.733 34 106.001 34ZM84.0019 97.1719L58.8313 72L62.003 68.8281L87.1736 94L84.0019 97.1719ZM99.173 82L90.0015 91.1719L64.831 66L74.0024 56.8281L79.05 61.8759L74.5502 66.624C73.7983 67.4121 73.8159 68.6562 74.5883 69.4238L84.5878 79.4238C85.3534 80.1894 86.5896 80.206 87.3757 79.4619L92.1255 74.9619L99.173 82ZM106.001 58H105.001C104.489 58 103.997 58.1963 103.625 58.5478L86.0398 75.2002L78.8019 67.9619L95.4612 50.3759C95.8108 50.0029 96.0032 49.5107 96.0012 49V48C96.0012 42.4775 100.479 38 106.001 38C111.523 38 116 42.4775 116 48C116 53.5224 111.523 58 106.001 58Z" fill="#447BD4"/>
<path d="M38.0043 58H58.0033V62H38.0043V58Z" fill="#447BD4"/>
<path d="M26.005 65.9999H50.0038V70H26.005V65.9999Z" fill="#447BD4"/>
<path d="M44.0042 50.0001H68.003V54.0001H44.0042V50.0001Z" fill="#447BD4"/>
<path d="M26.005 74.0001H38.0044V78.0001H26.005V74.0001Z" fill="#447BD4"/>
<path d="M26.005 82.0001H42.0042V86.0001H26.005V82.0001Z" fill="#447BD4"/>
<path d="M26.005 90H42.0042V94H26.005V90Z" fill="#447BD4"/>
<path d="M26.005 97.9999H42.0042V102H26.005V97.9999Z" fill="#447BD4"/>
<path d="M26.005 58H34.0046V62H26.005V58Z" fill="#447BD4"/>
<path d="M42.004 74.0001H50.0036V78.0001H42.004V74.0001Z" fill="#447BD4"/>
<path d="M50.0036 39.9999H70.0025V43.9999H50.0036V39.9999Z" fill="#447BD4"/>
<path d="M24.0052 55.9999C36.9216 55.9853 47.5099 45.7489 47.962 32.8398C49.042 33.7441 50.4375 34.1806 51.8397 34.0517C52.87 35.286 54.3953 35.9999 56.0036 35.9999C57.6119 35.9999 59.1372 35.286 60.1674 34.0517C61.7689 34.1952 63.3509 33.621 64.4875 32.4843C65.6242 31.3476 66.1984 29.7655 66.0548 28.164C67.2901 27.1337 68.003 25.6083 68.003 23.9999C68.003 22.3915 67.2901 20.8661 66.0548 19.8358C66.1984 18.2343 65.6242 16.6522 64.4875 15.5155C63.3509 14.3788 61.7689 13.8046 60.1674 13.9481C59.1372 12.7138 57.6119 11.9999 56.0036 11.9999C54.3953 11.9999 52.87 12.7138 51.8397 13.9481C50.2383 13.8046 48.6563 14.3788 47.5196 15.5155C46.383 16.6522 45.8088 18.2343 45.9523 19.8358C45.6565 20.08 45.3879 20.3563 45.1526 20.6601C39.604 10.3104 27.383 5.49599 16.2673 9.28017C5.15169 13.0653 -1.59405 24.3368 0.324793 35.9218C2.24364 47.5068 12.2636 56.0019 24.0052 55.9999ZM48.9356 22.6796C49.4688 22.4901 49.8965 22.0839 50.1133 21.5614C50.3291 21.039 50.3144 20.4491 50.0722 19.9384C49.8125 19.4013 49.9209 18.7597 50.3418 18.3378C50.7636 17.9169 51.4052 17.8085 51.9423 18.0683C52.453 18.3105 53.0428 18.3251 53.5652 18.1093C54.0877 17.8925 54.4939 17.4647 54.6833 16.9315C54.8816 16.372 55.4099 15.998 56.0036 15.998C56.5973 15.998 57.1256 16.372 57.3238 16.9315C57.5133 17.4647 57.9195 17.8925 58.4419 18.1093C58.9644 18.3251 59.5542 18.3105 60.0659 18.0683C60.602 17.8085 61.2435 17.9169 61.6654 18.3378C62.0863 18.7597 62.1947 19.4013 61.9349 19.9384C61.6927 20.4491 61.6781 21.039 61.8939 21.5614C62.1107 22.0839 62.5384 22.4901 63.0716 22.6796C63.6311 22.8778 64.0051 23.4062 64.0051 23.9999C64.0051 24.5937 63.6311 25.122 63.0716 25.3202C62.5384 25.5097 62.1107 25.9159 61.8939 26.4384C61.6781 26.9608 61.6927 27.5507 61.9349 28.0624C62.2113 28.5966 62.099 29.2499 61.6595 29.662C61.2455 30.0976 60.5951 30.2089 60.059 29.9384C59.5483 29.6952 58.9585 29.6806 58.4361 29.8974C57.9136 30.1132 57.5074 30.5409 57.318 31.0741C57.1197 31.6337 56.5905 32.0077 55.9977 32.0077C55.404 32.0077 54.8757 31.6337 54.6775 31.0741C54.488 30.54 54.0808 30.1122 53.5574 29.8964C53.3143 29.7968 53.0545 29.745 52.7918 29.7441C52.495 29.745 52.202 29.8134 51.9354 29.9442C51.3993 30.203 50.7578 30.0946 50.3359 29.6737C49.915 29.2519 49.8066 28.6103 50.0664 28.0741C50.3086 27.5634 50.3232 26.9735 50.1074 26.4511C49.8906 25.9276 49.4629 25.5214 48.9297 25.3319C48.3702 25.1347 47.9962 24.6054 47.9962 24.0116C47.9962 23.4189 48.3702 22.8896 48.9297 22.6923L48.9356 22.6796ZM24.0052 11.9999C35.0506 11.9999 44.0042 20.954 44.0042 31.9999C44.0042 43.0458 35.0506 51.9999 24.0052 51.9999C12.9599 51.9999 4.00625 43.0458 4.00625 31.9999C4.01796 20.9589 12.9648 12.0116 24.0052 11.9999Z" fill="#447BD4"/>
<path d="M14.5914 43.4141C15.3726 44.1944 16.6382 44.1944 17.4194 43.4141L37.4184 23.4141L34.5904 20.5859L16.0054 39.1719L11.4197 34.586L8.59174 37.4141L14.5914 43.4141Z" fill="#447BD4"/>
</g>
<defs>
<clipPath id="clip0">
<rect width="120" height="120" fill="white"/>
</clipPath>
</defs>
</svg>
