<svg width="855" height="220" viewBox="0 0 855 220" fill="none" xmlns="http://www.w3.org/2000/svg">
<path d="M196.719 219.199H169.219L154.043 179.832H84.7806L70.4031 219.199H44.1586L35.2583 207.218L98.131 47.9248H140.693L205.277 207.218L196.719 219.199ZM142.861 146.513L119.013 86.2646L95.5066 146.513H142.861Z" fill="#1EAA1E"/>
<path fill-rule="evenodd" clip-rule="evenodd" d="M120.268 0C186.678 0 240.423 53.8583 240.423 120.154C240.423 149.48 229.925 176.409 212.352 197.29L197.062 158.95C202.996 147.312 206.305 134.189 206.305 120.154C206.305 72.6859 167.851 34.1179 120.268 34.1179C72.8 34.1179 34.232 72.5718 34.232 120.154C34.232 133.505 37.3129 146.171 42.6759 157.353L27.3856 196.492C10.2696 175.724 0 149.137 0 120.04C0 53.7442 53.8583 0 120.268 0Z" fill="#FF6300"/>
<path d="M340.722 178.12H319.384L316.303 149.48H299.757L296.106 178.12H277.392L293.367 63.1009H324.633L340.722 178.12ZM308.544 78.9617L301.811 134.418H314.591L308.544 78.9617ZM349.736 135.445H370.503V161.118C370.503 163.058 370.96 164.428 371.987 164.884C373.014 165.455 374.725 165.683 377.236 165.683C379.746 165.683 381.458 165.455 382.371 164.884C383.283 164.313 383.74 163.058 383.74 161.118V147.426C383.74 144.117 383.055 141.378 381.572 139.096C380.545 137.498 379.176 135.673 377.236 133.619C376.665 132.934 372.215 128.484 364.114 120.497C358.408 114.791 354.529 110.341 352.475 107.032C350.649 104.179 349.736 99.8432 349.736 94.1379V79.6463C349.736 72.3435 352.246 67.5511 357.153 65.0407C360.919 63.1009 367.537 62.188 377.122 62.188C392.64 62.188 401.426 65.383 403.48 71.8871C404.165 74.0551 404.621 76.9078 404.621 80.2169V103.495H383.74V80.2169C383.74 78.2771 383.283 76.9078 382.371 76.4514C381.458 75.8808 379.746 75.6526 377.236 75.6526C374.725 75.6526 372.9 75.8808 371.987 76.4514C370.96 77.0219 370.503 78.2771 370.503 80.2169V93.4533C370.503 96.1918 371.302 98.5881 372.9 100.87C373.584 102.011 375.068 103.609 377.236 106.005C381.572 110.341 385.908 114.791 390.13 119.127C395.949 124.947 399.829 129.511 401.655 132.592C403.708 136.015 404.735 140.465 404.735 146.056V161.689C404.735 168.992 402.225 173.784 397.319 176.295C393.553 178.234 386.935 179.147 377.35 179.147C361.831 179.147 353.045 175.952 350.991 169.448C350.307 167.28 349.85 164.428 349.85 161.118V135.445H349.736ZM437.598 178.12H416.488V63.1009H437.598V178.12ZM507.66 178.12H486.322L483.241 149.48H466.695L463.044 178.12H444.33L460.305 63.1009H491.571L507.66 178.12ZM475.482 78.9617L468.749 134.418H481.529L475.482 78.9617Z" fill="#1EAA1E"/>
<path d="M517.016 80.103C517.016 72.686 519.527 67.7794 524.433 65.155C528.313 63.1011 535.045 62.0741 544.63 62.0741C560.034 62.0741 568.935 65.2691 571.217 71.7732C571.902 73.8271 572.358 76.6798 572.358 80.103V161.005C572.358 164.542 572.016 167.28 571.217 169.334C568.935 175.838 560.034 179.033 544.63 179.033C535.045 179.033 528.313 178.006 524.433 175.953C519.413 173.328 517.016 168.421 517.016 161.005V80.103ZM551.248 161.119V80.217C551.248 78.2772 550.792 76.908 549.879 76.4515C548.966 75.881 547.255 75.6528 544.744 75.6528C542.234 75.6528 540.408 75.881 539.495 76.4515C538.468 77.0221 538.012 78.2772 538.012 80.217V161.119C538.012 163.058 538.468 164.428 539.495 164.884C540.522 165.455 542.234 165.683 544.744 165.683C547.255 165.683 548.966 165.455 549.879 164.884C550.792 164.314 551.248 163.058 551.248 161.119ZM605.107 77.9349V122.436H611.497C614.577 122.436 616.403 121.524 617.088 119.698C617.43 118.899 617.658 116.959 617.658 113.764V86.7211C617.658 83.5261 617.43 81.5863 617.088 80.7876C616.403 78.8478 614.463 77.9349 611.497 77.9349H605.107ZM605.107 178.121H584.225V63.101H617.772C622.337 63.101 625.988 63.4434 628.727 64.0139C633.405 65.0409 636.486 68.0076 637.855 73.0283C638.54 75.4246 638.996 79.6465 638.996 85.5801V114.905C638.996 122.665 638.083 128.028 636.144 131.109C634.318 134.189 630.781 136.015 625.646 136.7C623.021 137.042 616.175 137.27 605.221 137.27V178.121H605.107ZM682.813 178.121H661.932V77.9349H645.957V63.101H698.902V77.9349H682.927V178.121H682.813ZM707.232 80.103C707.232 72.686 709.742 67.7794 714.649 65.155C718.529 63.1011 725.261 62.0741 734.846 62.0741C750.25 62.0741 759.15 65.2691 761.433 71.7732C762.117 73.8271 762.574 76.6798 762.574 80.103V161.005C762.574 164.542 762.231 167.28 761.433 169.334C759.15 175.838 750.25 179.033 734.846 179.033C725.261 179.033 718.529 178.006 714.649 175.953C709.628 173.328 707.232 168.421 707.232 161.005V80.103ZM741.464 161.119V80.217C741.464 78.2772 741.008 76.908 740.095 76.4515C739.182 75.881 737.47 75.6528 734.96 75.6528C732.45 75.6528 730.624 75.881 729.711 76.4515C728.684 77.0221 728.228 78.2772 728.228 80.217V161.119C728.228 163.058 728.684 164.428 729.711 164.884C730.738 165.455 732.45 165.683 734.96 165.683C737.47 165.683 739.182 165.455 740.095 164.884C741.008 164.314 741.464 163.058 741.464 161.119ZM824.077 63.101H855V178.121H836.743V85.9224H836.172L823.621 178.121H805.706L792.812 85.9224V178.121H774.213V63.101H805.478L816.09 144.916L824.077 63.101Z" fill="#FF6300"/>
</svg>
