<svg width="1328" height="218" viewBox="0 0 1328 218" fill="none" xmlns="http://www.w3.org/2000/svg">
<g clip-path="url(#clip0)">
<path d="M195.772 73.3611C194.413 69.2191 192.731 65.1791 190.744 61.2873L196.117 49.3099C197.662 46.9162 197.322 43.7734 195.303 41.7626L170.961 17.5254C168.942 15.5146 165.785 15.1764 163.381 16.7146L151.199 22.0028C147.291 20.0245 143.233 18.3489 139.074 16.996L134.403 4.76276C133.797 1.9829 131.325 -6.10352e-05 128.468 -6.10352e-05L94.0442 -6.10352e-05C91.1873 -6.10352e-05 88.7149 1.9829 88.1085 4.76276L83.1674 17.1119C108.318 26.0361 163.381 45.2683 159.853 101.211C159.853 125.957 141.098 146.425 116.999 149.263C182.043 144.14 194.166 96.9251 195.772 73.3611Z" fill="#004290"/>
<path d="M61.4836 26.9835C65.3954 25.0048 69.4562 23.3289 73.6195 21.9758L74.0198 22.1177C99.3693 31.1053 153.88 50.432 150.367 106.09C150.367 79.4051 128.548 57.6936 101.731 57.6936C40.8514 57.6936 19.9418 108.45 17.097 133.828L4.78727 129.142C1.99314 128.537 0 126.076 0 123.231L0 88.9494C0 86.1042 1.99314 83.6436 4.78727 83.0381L17.0743 78.4111C18.4341 74.2684 20.1183 70.2276 22.1068 66.3351L16.8005 54.1796C15.2544 51.7854 15.5943 48.6421 17.6154 46.6309L41.9771 22.3894C43.9982 20.3783 47.1571 20.04 49.5631 21.5784L61.4836 26.9835Z" fill="#F15317"/>
<path d="M28.4431 156.465C26.4528 152.573 24.767 148.533 23.406 144.391C26.2534 119.017 45.7295 68.2697 106.664 68.2697C79.8226 68.2697 59.4362 89.9773 59.4362 116.658C57.7209 170.11 108.446 196.58 134.701 202.37L131.304 213.106C130.696 215.886 128.22 217.869 125.358 217.869H90.8752C88.0133 217.869 85.5367 215.886 84.9292 213.106L80.2228 200.862C76.0558 199.509 71.9913 197.834 68.076 195.855L55.9015 201.154C53.4933 202.693 50.3315 202.354 48.3086 200.344L23.9249 176.106C21.902 174.096 21.5617 170.953 23.1092 168.559L28.4431 156.465Z" fill="#004290"/>
<path d="M202.507 84.6479L213.086 88.7977C215.878 89.4026 217.87 91.8606 217.87 94.7029V128.949C217.87 131.791 215.878 134.249 213.086 134.854L200.795 139.514C199.436 143.653 197.753 147.689 195.766 151.578L201.083 163.683C202.627 166.075 202.288 169.215 200.268 171.224L175.926 195.44C173.906 197.451 170.75 197.787 168.346 196.25L156.239 190.937C152.33 192.914 148.273 194.588 144.113 195.94C117.902 190.154 65.669 165.216 67.3814 111.809C67.3814 138.467 89.1219 159.584 115.918 159.584C186.145 154.833 197.619 111.809 202.507 84.6479Z" fill="#004290"/>
<path d="M255.526 107.507C255.526 77.8307 277.556 54.6929 307.51 54.6929C324.468 54.6929 336.354 60.2258 346.656 69.4474L330.807 89.2319C323.992 83.1956 317.019 79.6747 307.51 79.6747C293.563 79.6747 282.786 92.0819 282.786 107.842C282.786 124.274 293.721 136.011 308.936 136.011C315.434 136.011 320.347 134.501 324.309 131.819V119.412H305.291V98.9566H349.667V144.729C339.524 153.616 325.26 160.49 307.827 160.49C278.031 160.322 255.526 138.525 255.526 107.507Z" fill="#F15317"/>
<path d="M364.013 138.657L400.137 108.933C409.168 101.545 412.495 96.5064 412.495 90.2931C412.495 83.7439 408.217 79.7133 401.721 79.7133C395.225 79.7133 390.155 83.7439 382.55 93.148L364.488 77.0264C374.786 62.5845 384.927 54.6918 403.781 54.6918C424.853 54.6918 439.271 68.1265 439.271 88.1101C439.271 104.735 431.35 113.468 416.931 124.551L400.454 136.978H440.222V160.489H364.013V138.657Z" fill="#F15317"/>
<path d="M454.726 54.6918H500.217C514.958 54.6918 525.101 58.9033 531.6 65.9788C537.307 72.2122 540.16 80.2987 540.16 91.0805C540.16 107.253 532.235 118.035 520.346 123.594L543.329 160.489H512.422L493.084 128.312H481.355V160.489H454.567V54.6918H454.726ZM499.107 105.568C508.142 105.568 513.373 100.683 513.373 92.7652C513.373 84.5102 507.825 80.1301 498.949 80.1301H481.513V105.568H499.107Z" fill="#F15317"/>
<path d="M570.047 135.384C573.594 135.384 576.545 136.556 578.895 138.898C581.245 141.192 582.42 144.145 582.42 147.757C582.42 151.369 581.245 154.346 578.895 156.689C576.545 158.983 573.594 160.13 570.047 160.13C566.456 160.13 563.484 158.958 561.134 156.616C558.827 154.273 557.674 151.32 557.674 147.757C557.674 144.194 558.827 141.241 561.134 138.898C563.484 136.556 566.456 135.384 570.047 135.384Z" fill="#F15317"/>
<path fill-rule="evenodd" clip-rule="evenodd" d="M652.37 54.6682L679.548 126.725L706.581 54.6682H738.668V160.487H713.147V130.882L715 91.0416L688.212 160.487H670.74L644.029 91.1293L645.881 130.882V160.487H620.435V54.6682H652.37ZM786.412 139.271L778.881 160.487H751.75L793.701 54.6682H816.573L858.756 160.487H831.624L824.018 139.271H786.412ZM957.645 123.337L957.527 124.872C956.646 136.301 952.116 145.401 943.896 152.038C935.747 158.659 925.059 161.902 911.971 161.902C897.587 161.902 886.105 157.353 877.704 148.141L877.698 148.135C869.366 138.893 865.281 126.306 865.281 110.548V104.254C865.281 94.1733 867.173 85.229 871.001 77.4577C874.833 69.6786 880.318 63.6875 887.451 59.5309C894.628 55.3316 902.917 53.2538 912.272 53.2538C925.166 53.2538 935.707 56.5007 943.756 63.1259C951.822 69.7656 956.436 79.0672 957.674 90.8808L957.839 92.4549H932.349L932.241 91.1474C931.705 84.696 929.801 80.31 926.776 77.6781L926.768 77.671L926.76 77.6638C923.766 74.9787 919.03 73.502 912.272 73.502C905.096 73.502 899.917 75.9048 896.473 80.5619C893.023 85.2475 891.128 92.7322 891.028 103.272V111.043C891.028 122.075 892.806 129.847 896.118 134.625C899.404 139.293 904.584 141.724 911.971 141.724C918.784 141.724 923.579 140.269 926.625 137.619C929.718 134.926 931.606 130.688 932.09 124.649L932.195 123.337H957.645ZM1066.4 160.487H1040.95V116.358H999.744V160.487H974.298V54.6682H999.744V96.3929H1040.95V54.6682H1066.4V160.487ZM1115.01 160.487H1089.57V54.6682H1115.01V160.487ZM1229.98 160.487H1205.18L1163.4 96.1261V160.487H1137.96V54.6682H1162.75L1204.61 119.169V54.6682H1229.98V160.487ZM1320.47 115.863H1277.09V140.593H1328V160.487H1251.64V54.6682H1327.85V74.7043H1277.09V96.3929H1320.47V115.863ZM793.522 119.235H816.897L805.145 86.373L793.522 119.235Z" fill="#004290"/>
</g>
<defs>
<clipPath id="clip0">
<rect width="1328" height="218" fill="white"/>
</clipPath>
</defs>
</svg>
