<svg width="250" height="250" viewBox="0 0 250 250" fill="none" xmlns="http://www.w3.org/2000/svg">
<path d="M206.849 99.8958C198.193 95.049 192.832 85.9042 192.832 75.985V41.8925C192.832 35.6372 188.628 30.1616 182.584 28.5439L150.661 20L150.396 20.0701C133.947 24.4313 116.642 24.4071 100.206 20L68.2823 28.5439C62.2382 30.1616 58.0349 35.6368 58.0349 41.8925V75.985C58.0349 85.9042 52.6738 95.049 44.0175 99.8958C35.3611 104.743 30 113.887 30 123.807V217.244C30 224.289 35.7122 230 42.7583 230H83.1209C83.1221 230 83.1233 230 83.1246 230H167.742C167.743 230 167.745 230 167.746 230H208.108C215.155 230 220.867 224.289 220.867 217.244V123.807C220.867 113.887 215.506 104.743 206.849 99.8958ZM98.5136 226.475C98.5111 226.476 98.5087 226.478 98.5058 226.479C98.5083 226.478 98.5111 226.476 98.5136 226.475ZM99.4254 226.018C99.4131 226.024 99.4008 226.031 99.3885 226.038C99.4008 226.031 99.4127 226.024 99.4254 226.018Z" fill="#F59F3F"/>
<path d="M113.632 96.3841L108.023 84.9633C102.88 74.4924 100.206 62.9822 100.206 51.317V20L68.2828 28.5439C62.2387 30.1616 58.0354 35.6368 58.0354 41.8925V75.985C58.0354 85.9042 52.6743 95.049 44.018 99.8958C35.3616 104.743 30.0005 113.887 30.0005 123.807V217.245C30.0001 224.289 35.7123 230 42.7584 230H83.1209C93.9142 230 104.117 225.072 110.826 216.62C115.788 210.368 118.488 202.622 118.488 194.641V117.287C118.489 110.04 116.828 102.889 113.632 96.3841Z" fill="#FFB518"/>
<path d="M85.2838 23.9937L70.332 27.9955V141.58H85.2838V23.9937Z" fill="#F2F2F2"/>
<path d="M30 182.565V197.513H118.37C118.447 196.561 118.489 195.603 118.489 194.641V182.565H30Z" fill="#F2F2F2"/>
<path d="M118.487 141.582H30V156.531H118.487V141.582Z" fill="#F2F2F2"/>
<path d="M137.235 96.3841L142.844 84.9633C147.987 74.4924 150.661 62.9822 150.661 51.317V20L182.584 28.5439C188.628 30.1616 192.832 35.6368 192.832 41.8925V75.985C192.832 85.9042 198.193 95.049 206.849 99.8958C215.505 104.743 220.867 113.887 220.867 123.807V217.245C220.867 224.289 215.154 230 208.108 230H167.746C156.952 230 146.75 225.073 140.041 216.62C135.079 210.368 132.378 202.622 132.378 194.641V117.287C132.378 110.04 134.04 102.889 137.235 96.3841Z" fill="#FFB518"/>
<path d="M165.583 100.625V23.9937L180.535 27.9955V141.58H165.583V113.389" fill="#F2F2F2"/>
<path d="M220.867 182.565V197.513H132.497C132.42 196.561 132.378 195.603 132.378 194.641V182.565H220.867Z" fill="#F2F2F2"/>
<path d="M220.864 141.582H132.377V156.531H220.864V141.582Z" fill="#F2F2F2"/>
<path d="M113.632 96.3841L108.023 84.9633C102.88 74.4924 100.206 62.9822 100.206 51.317V20L87.9663 23.2759V51.317C87.9663 62.9822 90.6405 74.4924 95.783 84.9633L101.392 96.3841C104.587 102.889 106.249 110.04 106.249 117.287V194.641C106.249 202.622 103.548 210.368 98.586 216.62C91.8767 225.072 81.6741 230 70.8809 230H83.1207C93.914 230 104.117 225.072 110.825 216.62C115.788 210.368 118.488 202.622 118.488 194.641V117.287C118.488 110.04 116.827 102.889 113.632 96.3841Z" fill="#FFB000"/>
<path d="M106.249 194.641C106.249 195.603 106.207 196.561 106.13 197.514H118.37C118.409 197.038 118.438 196.56 118.458 196.082C118.478 195.603 118.489 195.123 118.489 194.642V182.565H106.249V194.641Z" fill="#CCCCCC"/>
<path d="M118.486 141.583H106.247V156.531H118.486V141.583Z" fill="#CCCCCC"/>
<path d="M206.85 99.8958C198.193 95.049 192.832 85.9042 192.832 75.985V41.8925C192.832 35.6372 188.629 30.162 182.585 28.5439L150.661 20V23.2722L170.358 28.5439C176.402 30.1616 180.605 35.6368 180.605 41.8925V75.985C180.605 85.9042 185.966 95.049 194.623 99.8958C203.279 104.743 208.64 113.887 208.64 123.807V217.245C208.64 224.289 202.928 230 195.882 230H208.109C215.155 230 220.867 224.289 220.867 217.245V123.807C220.867 113.887 215.506 104.743 206.85 99.8958Z" fill="#FFB000"/>
<path d="M180.535 27.9955L165.583 23.9937V27.2659L170.358 28.5439C175.956 30.0422 179.972 34.8513 180.535 40.5233V27.9955Z" fill="#CCCCCC"/>
<path d="M220.868 182.565H208.642V197.513H220.868V182.565Z" fill="#CCCCCC"/>
<path d="M220.868 141.582H208.642V156.531H220.868V141.582Z" fill="#CCCCCC"/>
</svg>
