<svg width="250" height="250" viewBox="0 0 250 250" fill="none" xmlns="http://www.w3.org/2000/svg">
<g clip-path="url(#clip0)">
<path d="M157.875 140.396H137.08V90.9714H157.875C170.098 90.9714 180.005 100.879 180.005 113.101V118.266C180.006 130.488 170.097 140.396 157.875 140.396Z" fill="#FFB518"/>
<path d="M70.5192 157.639V192.846C70.5192 199.8 64.8812 205.438 57.9272 205.438H50.1598C46.3189 205.438 43.2055 202.324 43.2055 198.483V117.924L70.5192 157.639Z" fill="#787485"/>
<path d="M47.4318 77.0975H83.927C90.8863 77.0975 97.7125 75.1919 103.665 71.5872L149.946 43.5625V191.174L103.665 163.149C97.7129 159.545 90.8863 157.639 83.927 157.639H43.1385C29.8624 157.639 19 146.776 19 133.5V101.236V100.973C19 87.7868 29.6889 77.0979 42.8747 77.0979L47.4318 77.0975Z" fill="#A40550"/>
<path opacity="0.1" d="M134.97 52.631V163.176L88.6902 135.152C82.7377 131.547 75.9111 129.641 68.9518 129.641H28.1633C24.9237 129.641 21.8295 128.991 19 127.82V133.5C19 146.777 29.8624 157.639 43.1385 157.639H83.927C90.8863 157.639 97.7125 159.545 103.665 163.149L149.946 191.174V43.5625L134.97 52.631Z" fill="black"/>
<path opacity="0.11" d="M83.9258 77.0984H64.8311V157.782H83.9258V77.0984Z" fill="black"/>
<path d="M226.744 118.939H195.687C193.889 118.939 192.431 117.482 192.431 115.684C192.431 113.885 193.889 112.428 195.687 112.428H226.744C228.543 112.428 230 113.885 230 115.684C230 117.482 228.543 118.939 226.744 118.939Z" fill="#FFB518"/>
<path d="M198.24 99.7656C197.029 99.7656 195.865 99.0864 195.304 97.921C194.524 96.301 195.205 94.355 196.826 93.5753L222.781 81.083C224.401 80.3025 226.346 80.9841 227.127 82.6045C227.907 84.2249 227.226 86.1705 225.605 86.9502L199.65 99.4425C199.195 99.6617 198.714 99.7656 198.24 99.7656Z" fill="#FFB518"/>
<path d="M224.191 150.322C223.717 150.322 223.236 150.218 222.781 149.999L196.826 137.507C195.206 136.727 194.524 134.782 195.304 133.161C196.084 131.54 198.031 130.859 199.65 131.64L225.605 144.132C227.225 144.912 227.907 146.857 227.127 148.478C226.566 149.642 225.402 150.322 224.191 150.322Z" fill="#FFB518"/>
</g>
<defs>
<clipPath id="clip0">
<rect x="19" y="19" width="211" height="211" fill="white"/>
</clipPath>
</defs>
</svg>
