<svg width="250" height="250" viewBox="0 0 250 250" fill="none" xmlns="http://www.w3.org/2000/svg">
<path d="M84.25 137.5C82.5242 137.5 81.125 136.101 81.125 134.375V28.125C81.125 26.3992 82.5242 25 84.25 25C85.9758 25 87.375 26.3992 87.375 28.125V134.375C87.375 136.101 85.9758 137.5 84.25 137.5Z" fill="#787485"/>
<path d="M84.2498 37.5C56.0186 37.5 32.9303 59.5211 31.2256 87.3234C31.1159 89.1148 32.5534 90.625 34.3483 90.625H134.151C135.946 90.625 137.383 89.1152 137.274 87.3234C135.569 59.5211 112.481 37.5 84.2498 37.5Z" fill="#F2EDEC"/>
<path d="M49.875 90.625H71.75C71.75 61.2848 77.3465 37.5 84.25 37.5C65.2652 37.5 49.875 61.2848 49.875 90.625Z" fill="#A40550"/>
<path d="M84.25 37.5C91.1535 37.5 96.75 61.2848 96.75 90.625H118.625C118.625 61.2848 103.235 37.5 84.25 37.5Z" fill="#A40550"/>
<path d="M190.497 153.125C189.931 153.125 189.359 152.972 188.844 152.65C187.38 151.735 186.935 149.807 187.85 148.344L203.475 123.344C204.046 122.43 205.047 121.875 206.125 121.875H218.625C220.351 121.875 221.75 123.274 221.75 125C221.75 126.726 220.351 128.125 218.625 128.125H207.857L193.15 151.656C192.557 152.605 191.539 153.125 190.497 153.125Z" fill="#787485"/>
<path d="M181.125 121.875H118.625C116.899 121.875 115.5 123.274 115.5 125C115.5 126.726 116.899 128.125 118.625 128.125H124.875V134.375C124.875 136.101 126.274 137.5 128 137.5C129.726 137.5 131.125 136.101 131.125 134.375V128.125H146.75V134.375C146.75 136.101 148.149 137.5 149.875 137.5C151.601 137.5 153 136.101 153 134.375V128.125H168.625V134.375C168.625 136.101 170.024 137.5 171.75 137.5C173.476 137.5 174.875 136.101 174.875 134.375V128.125H181.125C182.851 128.125 184.25 126.726 184.25 125C184.25 123.274 182.851 121.875 181.125 121.875Z" fill="#787485"/>
<path d="M149.875 115.625C149.075 115.625 148.275 115.32 147.665 114.71C146.445 113.489 146.445 111.511 147.665 110.29C147.739 110.216 147.798 110.152 147.845 110.098C147.665 109.821 147.358 109.434 147.135 109.152C145.703 107.344 142.348 103.108 147.665 97.7902C148.886 96.5703 150.864 96.5703 152.085 97.7902C153.305 99.0109 153.305 100.989 152.085 102.21C151.16 103.134 151.005 103.65 151.016 103.729C151.06 104.041 151.646 104.782 152.035 105.271C153.181 106.719 156.228 110.566 152.085 114.71C151.474 115.32 150.675 115.625 149.875 115.625Z" fill="#D2D1D6"/>
<path d="M164.359 115.625C162.995 115.625 161.755 114.704 161.365 113.396C161.196 112.831 161.192 112.223 161.35 111.656C161.529 111.014 161.909 110.59 162.329 110.097C162.149 109.821 161.843 109.434 161.62 109.152C160.187 107.343 156.832 103.108 162.149 97.7899C163.37 96.57 165.348 96.57 166.569 97.7899C167.789 99.0106 167.789 100.989 166.569 102.209C165.645 103.133 165.489 103.65 165.501 103.729C165.544 104.041 166.131 104.781 166.519 105.271C167.666 106.719 170.712 110.566 166.569 114.709C165.959 115.32 165.159 115.625 164.359 115.625Z" fill="#D2D1D6"/>
<path d="M133.109 115.625C132.309 115.625 131.51 115.32 130.899 114.71C129.679 113.489 129.679 111.511 130.899 110.29C130.974 110.216 131.033 110.152 131.079 110.098C130.899 109.821 130.593 109.434 130.37 109.152C128.937 107.344 125.582 103.108 130.899 97.7902C132.12 96.5703 134.098 96.5703 135.319 97.7902C136.539 99.0109 136.539 100.989 135.319 102.21C134.395 103.134 134.239 103.65 134.251 103.729C134.294 104.041 134.881 104.782 135.269 105.271C136.416 106.719 139.462 110.566 135.319 114.71C134.709 115.32 133.909 115.625 133.109 115.625Z" fill="#D2D1D6"/>
<path d="M103 121.875H62.375C60.6492 121.875 59.25 123.274 59.25 125V137.5C59.25 139.226 60.6492 140.625 62.375 140.625H103C104.726 140.625 106.125 139.226 106.125 137.5V125C106.125 123.274 104.726 121.875 103 121.875Z" fill="#F0F0F1"/>
<path d="M68.625 137.5V125C68.625 123.274 70.0242 121.875 71.75 121.875H62.375C60.6492 121.875 59.25 123.274 59.25 125V137.5C59.25 139.226 60.6492 140.625 62.375 140.625H71.75C70.0242 140.625 68.625 139.226 68.625 137.5Z" fill="#D2D1D6"/>
<path d="M40.5 137.5C38.7742 137.5 37.375 136.101 37.375 134.375V128.125C37.375 126.399 38.7742 125 40.5 125C42.2258 125 43.625 126.399 43.625 128.125V134.375C43.625 136.101 42.2258 137.5 40.5 137.5Z" fill="#787485"/>
<path d="M49.875 137.5C48.1492 137.5 46.75 136.101 46.75 134.375V128.125C46.75 126.399 48.1492 125 49.875 125C51.6008 125 53 126.399 53 128.125V134.375C53 136.101 51.6008 137.5 49.875 137.5Z" fill="#787485"/>
<path d="M190.5 134.375H31.125C29.3992 134.375 28 135.774 28 137.5V196.875C28 198.601 29.3992 200 31.125 200H190.5C192.226 200 193.625 198.601 193.625 196.875V137.5C193.625 135.774 192.226 134.375 190.5 134.375Z" fill="#FFB518"/>
<path d="M37.375 196.875V137.5C37.375 135.774 38.7742 134.375 40.5 134.375H31.125C29.3992 134.375 28 135.774 28 137.5V196.875C28 198.601 29.3992 200 31.125 200H40.5C38.7742 200 37.375 198.601 37.375 196.875Z" fill="#EAA513"/>
<path d="M190.5 134.375H31.125C29.3992 134.375 28 135.774 28 137.5V146.875H193.625V137.5C193.625 135.774 192.226 134.375 190.5 134.375Z" fill="#FFB518"/>
<path d="M40.5 134.375H31.125C29.3992 134.375 28 135.774 28 137.5V146.875H37.375V137.5C37.375 135.774 38.7742 134.375 40.5 134.375Z" fill="#EAA513"/>
<path d="M149.875 168.75C134.367 168.75 121.75 181.367 121.75 196.875C121.75 212.383 134.367 225 149.875 225C165.383 225 178 212.383 178 196.875C178 181.367 165.383 168.75 149.875 168.75ZM167.388 209.968L157.42 200H171.523C170.991 203.7 169.534 207.105 167.388 209.968ZM153 175.227C156.7 175.759 160.105 177.216 162.968 179.362L153 189.33V175.227ZM146.75 189.33L136.782 179.362C139.645 177.216 143.05 175.759 146.75 175.227V189.33ZM146.75 218.523C143.05 217.991 139.645 216.534 136.782 214.388L146.75 204.42V218.523ZM153 204.42L162.968 214.388C160.105 216.534 156.7 217.991 153 218.523V204.42ZM171.523 193.75H157.42L167.388 183.782C169.534 186.645 170.991 190.05 171.523 193.75ZM132.362 183.782L142.33 193.75H128.227C128.759 190.05 130.216 186.645 132.362 183.782ZM128.227 200H142.33L132.362 209.968C130.216 207.105 128.759 203.7 128.227 200Z" fill="#787485"/>
<path d="M149.875 184.375C142.982 184.375 137.375 189.982 137.375 196.875C137.375 203.768 142.982 209.375 149.875 209.375C156.768 209.375 162.375 203.768 162.375 196.875C162.375 189.982 156.768 184.375 149.875 184.375Z" fill="#A40550"/>
<path d="M149.875 190.625C146.429 190.625 143.625 193.429 143.625 196.875C143.625 200.321 146.429 203.125 149.875 203.125C153.321 203.125 156.125 200.321 156.125 196.875C156.125 193.429 153.321 190.625 149.875 190.625Z" fill="#840440"/>
<path d="M62.375 200C55.4824 200 49.875 205.607 49.875 212.5C49.875 219.393 55.4824 225 62.375 225C69.2676 225 74.875 219.393 74.875 212.5C74.875 205.607 69.2676 200 62.375 200Z" fill="#A40550"/>
<path d="M62.375 206.25C58.9289 206.25 56.125 209.054 56.125 212.5C56.125 215.946 58.9289 218.75 62.375 218.75C65.8211 218.75 68.625 215.946 68.625 212.5C68.625 209.054 65.8211 206.25 62.375 206.25Z" fill="#840440"/>
<path d="M62.375 215.625C60.6492 215.625 59.25 214.226 59.25 212.5V190.625C59.25 188.899 60.6492 187.5 62.375 187.5C64.1008 187.5 65.5 188.899 65.5 190.625V212.5C65.5 214.226 64.1008 215.625 62.375 215.625Z" fill="#787485"/>
<path d="M103 146.875H77.9997C76.8473 146.875 75.7883 147.509 75.2442 148.526C74.7004 149.542 74.7602 150.775 75.3993 151.734L87.8993 170.484C89.1149 172.307 91.884 172.307 93.0997 170.484L105.6 151.734C106.239 150.775 106.298 149.542 105.755 148.526C105.211 147.509 104.152 146.875 103 146.875Z" fill="#A40550"/>
<path d="M143.255 148.526C142.711 147.509 141.652 146.875 140.5 146.875H115.5C114.347 146.875 113.288 147.509 112.744 148.526C112.2 149.542 112.26 150.775 112.899 151.734L125.399 170.484C126.615 172.307 129.384 172.307 130.6 170.484L143.1 151.734C143.739 150.774 143.798 149.541 143.255 148.526Z" fill="#A40550"/>
<path d="M65.4997 146.875H40.4997C39.3473 146.875 38.2883 147.509 37.7442 148.526C37.2004 149.542 37.2602 150.775 37.8993 151.734L50.3993 170.484C51.6149 172.307 54.384 172.307 55.5997 170.484L68.0997 151.734C68.7391 150.775 68.7985 149.542 68.2547 148.526C67.711 147.509 66.652 146.875 65.4997 146.875Z" fill="#A40550"/>
<path d="M193.625 146.875H28V153.125H193.625V146.875Z" fill="#840440"/>
</svg>
