<svg width="250" height="250" viewBox="0 0 250 250" fill="none" xmlns="http://www.w3.org/2000/svg">
<path d="M77.1875 31.5034H26.1875C24.4272 31.5034 23 32.9306 23 34.6909V203.628C23 205.389 24.4272 206.816 26.1875 206.816H77.1875C78.9478 206.816 80.375 205.389 80.375 203.628V34.6909C80.375 32.9306 78.9478 31.5034 77.1875 31.5034Z" fill="#F0F0F1"/>
<path d="M29.375 203.628V34.6909C29.375 32.9306 30.8022 31.5034 32.5625 31.5034H26.1875C24.4272 31.5034 23 32.9306 23 34.6909V203.628C23 205.389 24.4272 206.816 26.1875 206.816H32.5625C30.8022 206.816 29.375 205.389 29.375 203.628Z" fill="#E1E0E4"/>
<path d="M80.375 178.128H23V203.628C23 205.389 24.4272 206.816 26.1875 206.816H77.1875C78.9478 206.816 80.375 205.389 80.375 203.628V178.128Z" fill="#A40550"/>
<path d="M29.375 203.628V178.128H23V203.628C23 205.389 24.4272 206.816 26.1875 206.816H32.5625C30.8022 206.816 29.375 205.389 29.375 203.628Z" fill="#840440"/>
<path d="M77.1875 31.5034H26.1875C24.4272 31.5034 23 32.9306 23 34.6909V50.6284H80.375V34.6909C80.375 32.9306 78.9478 31.5034 77.1875 31.5034Z" fill="#A40550"/>
<path d="M32.5625 31.5034H26.1875C24.4272 31.5034 23 32.9306 23 34.6909V50.6284H29.375V34.6909C29.375 32.9306 30.8022 31.5034 32.5625 31.5034Z" fill="#840440"/>
<path d="M80.375 63.3782H23V165.378H80.375V63.3782Z" fill="#A40550"/>
<path d="M29.375 63.3782H23V165.378H29.375V63.3782Z" fill="#840440"/>
<path d="M51.6877 195.66C50.3693 195.66 49.1525 194.813 48.6979 193.575C48.2448 192.343 48.6102 190.899 49.6171 190.048C50.6582 189.167 52.1874 189.042 53.3524 189.755C54.4772 190.444 55.0725 191.8 54.8119 193.094C54.5147 194.566 53.1946 195.66 51.6877 195.66Z" fill="#840440"/>
<path d="M64.4374 195.66C63.1186 195.66 61.9025 194.814 61.4475 193.575C60.9849 192.317 61.377 190.857 62.4153 190.007C63.4373 189.17 64.9087 189.058 66.0483 189.722C67.1858 190.385 67.8094 191.736 67.5727 193.032C67.2986 194.533 65.969 195.66 64.4374 195.66Z" fill="#840440"/>
<path d="M38.9377 195.659C37.6189 195.659 36.4029 194.813 35.9479 193.574C35.4948 192.342 35.8602 190.898 36.8671 190.047C37.9082 189.167 39.4374 189.041 40.6024 189.755C41.7272 190.443 42.3225 191.799 42.0619 193.093C41.7643 194.567 40.4454 195.659 38.9377 195.659Z" fill="#840440"/>
<path d="M58.0625 79.3162C58.0625 82.8368 55.2085 85.6912 51.6875 85.6912C48.1665 85.6912 45.3125 82.8368 45.3125 79.3162H38.9375C37.1772 79.3162 35.75 80.7434 35.75 82.5037V146.254C35.75 148.014 37.1772 149.441 38.9375 149.441H45.3125C45.3125 145.921 48.1665 143.066 51.6875 143.066C55.2085 143.066 58.0625 145.921 58.0625 149.441H64.4375C66.1978 149.441 67.625 148.014 67.625 146.254V82.5037C67.625 80.7434 66.1978 79.3162 64.4375 79.3162H58.0625Z" fill="#F0F0F1"/>
<path d="M45.3125 133.504C43.5522 133.504 42.125 132.076 42.125 130.316V104.816C42.125 103.056 43.5522 101.629 45.3125 101.629C47.0728 101.629 48.5 103.056 48.5 104.816V130.316C48.5 132.076 47.0728 133.504 45.3125 133.504Z" fill="#D2D1D6"/>
<path d="M58.0625 133.504C56.3022 133.504 54.875 132.076 54.875 130.316V98.4412C54.875 96.6809 56.3022 95.2537 58.0625 95.2537C59.8228 95.2537 61.25 96.6809 61.25 98.4412V130.316C61.25 132.076 59.8228 133.504 58.0625 133.504Z" fill="#D2D1D6"/>
<path d="M134.562 31.5034H83.5625C81.8022 31.5034 80.375 32.9306 80.375 34.6909V203.628C80.375 205.389 81.8022 206.816 83.5625 206.816H134.562C136.323 206.816 137.75 205.389 137.75 203.628V34.6909C137.75 32.9306 136.323 31.5034 134.562 31.5034Z" fill="#F0F0F1"/>
<path d="M86.75 203.628V34.6909C86.75 32.9306 88.1772 31.5034 89.9375 31.5034H83.5625C81.8022 31.5034 80.375 32.9306 80.375 34.6909V203.628C80.375 205.389 81.8022 206.816 83.5625 206.816H89.9375C88.1772 206.816 86.75 205.389 86.75 203.628Z" fill="#E1E0E4"/>
<path d="M137.75 178.128H80.375V203.628C80.375 205.389 81.8022 206.816 83.5625 206.816H134.562C136.323 206.816 137.75 205.389 137.75 203.628V178.128Z" fill="#0784A2"/>
<path d="M86.75 203.628V178.128H80.375V203.628C80.375 205.389 81.8022 206.816 83.5625 206.816H89.9375C88.1772 206.816 86.75 205.389 86.75 203.628Z" fill="#0D7088"/>
<path d="M134.562 31.5034H83.5625C81.8022 31.5034 80.375 32.9306 80.375 34.6909V50.6284H137.75V34.6909C137.75 32.9306 136.323 31.5034 134.562 31.5034Z" fill="#0784A2"/>
<path d="M89.9375 31.5034H83.5625C81.8022 31.5034 80.375 32.9306 80.375 34.6909V50.6284H86.75V34.6909C86.75 32.9306 88.1772 31.5034 89.9375 31.5034Z" fill="#0D7088"/>
<path d="M137.75 63.3782H80.375V165.378H137.75V63.3782Z" fill="#0784A2"/>
<path d="M86.75 63.3782H80.375V165.378H86.75V63.3782Z" fill="#0D7088"/>
<path d="M109.063 195.66C107.744 195.66 106.527 194.813 106.073 193.575C105.62 192.343 105.985 190.899 106.992 190.048C108.033 189.167 109.562 189.042 110.727 189.755C111.852 190.444 112.447 191.8 112.187 193.094C111.89 194.566 110.57 195.66 109.063 195.66Z" fill="#0D7088"/>
<path d="M121.812 195.66C120.494 195.66 119.278 194.814 118.823 193.575C118.36 192.317 118.752 190.857 119.79 190.007C120.812 189.17 122.284 189.058 123.423 189.722C124.561 190.385 125.184 191.736 124.948 193.032C124.674 194.533 123.344 195.66 121.812 195.66Z" fill="#0D7088"/>
<path d="M96.3127 195.659C94.9939 195.659 93.7779 194.813 93.3229 193.574C92.8698 192.342 93.2352 190.898 94.2421 190.047C95.2832 189.167 96.8124 189.041 97.9774 189.755C99.1022 190.443 99.6975 191.799 99.4369 193.093C99.1397 194.565 97.8192 195.659 96.3127 195.659Z" fill="#0D7088"/>
<path d="M115.438 79.3162C115.438 82.8368 112.583 85.6912 109.062 85.6912C105.542 85.6912 102.688 82.8368 102.688 79.3162H96.3125C94.5522 79.3162 93.125 80.7434 93.125 82.5037V146.254C93.125 148.014 94.5522 149.441 96.3125 149.441H102.688C102.688 145.921 105.542 143.066 109.062 143.066C112.583 143.066 115.438 145.921 115.438 149.441H121.812C123.573 149.441 125 148.014 125 146.254V82.5037C125 80.7434 123.573 79.3162 121.812 79.3162H115.438Z" fill="#F0F0F1"/>
<path d="M102.688 133.504C100.927 133.504 99.5 132.076 99.5 130.316V104.816C99.5 103.056 100.927 101.629 102.688 101.629C104.448 101.629 105.875 103.056 105.875 104.816V130.316C105.875 132.076 104.448 133.504 102.688 133.504Z" fill="#D2D1D6"/>
<path d="M115.438 133.504C113.677 133.504 112.25 132.076 112.25 130.316V114.379C112.25 112.618 113.677 111.191 115.438 111.191C117.198 111.191 118.625 112.618 118.625 114.379V130.316C118.625 132.076 117.198 133.504 115.438 133.504Z" fill="#D2D1D6"/>
<path d="M200.722 25.0244L150.108 31.2894C148.361 31.5058 147.12 33.0975 147.336 34.8443L168.089 202.502C168.306 204.25 169.897 205.49 171.644 205.274L222.258 199.009C224.005 198.793 225.246 197.201 225.03 195.454L204.277 27.7963C204.061 26.0496 202.469 24.8085 200.722 25.0244Z" fill="#F0F0F1"/>
<path d="M174.416 201.72L153.663 34.0615C153.447 32.3143 154.688 30.7229 156.435 30.5066L150.108 31.2895C148.361 31.5059 147.12 33.0976 147.336 34.8444L168.089 202.502C168.306 204.25 169.897 205.49 171.644 205.274L177.971 204.491C176.224 204.707 174.633 203.466 174.416 201.72Z" fill="#E1E0E4"/>
<path d="M221.898 170.147L164.957 177.196L168.09 202.503C168.306 204.25 169.897 205.49 171.644 205.274L222.258 199.009C224.005 198.793 225.246 197.202 225.03 195.455L221.898 170.147Z" fill="#FFB518"/>
<path d="M174.416 201.72L171.284 176.413L164.957 177.196L168.09 202.503C168.306 204.25 169.897 205.49 171.644 205.274L177.971 204.492C176.224 204.707 174.633 203.466 174.416 201.72Z" fill="#F59F3F"/>
<path d="M200.722 25.0244L150.108 31.2894C148.361 31.5058 147.12 33.0972 147.336 34.8443L149.294 50.6611L206.235 43.6131L204.277 27.7963C204.061 26.0492 202.469 24.8085 200.722 25.0244Z" fill="#FFB518"/>
<path d="M156.435 30.5066L150.108 31.2895C148.361 31.5059 147.12 33.0972 147.336 34.8444L149.294 50.6611L155.621 49.8782L153.663 34.0615C153.447 32.3143 154.688 30.7229 156.435 30.5066Z" fill="#F59F3F"/>
<path d="M163.386 164.546L220.323 157.501L207.798 56.2791L150.861 63.3245L163.386 164.546Z" fill="#FFB518"/>
<path d="M169.722 163.76L157.196 62.5386L150.87 63.3214L163.395 164.543L169.722 163.76Z" fill="#F59F3F"/>
<path d="M194.994 189.511C193.675 189.511 192.459 188.665 192.004 187.427C191.543 186.172 191.931 184.707 192.972 183.86C193.999 183.024 195.46 182.915 196.606 183.578C197.745 184.237 198.366 185.59 198.13 186.884C197.855 188.385 196.526 189.511 194.994 189.511Z" fill="#F59F3F"/>
<path d="M207.648 187.946C206.328 187.946 205.114 187.101 204.658 185.862C204.206 184.629 204.57 183.185 205.577 182.334C206.619 181.453 208.147 181.328 209.312 182.041C210.438 182.73 211.032 184.086 210.772 185.38C210.475 186.854 209.155 187.946 207.648 187.946Z" fill="#F59F3F"/>
<path d="M182.339 191.078C181.018 191.078 179.811 190.23 179.352 188.994C178.886 187.737 179.282 186.275 180.321 185.429C181.342 184.599 182.814 184.473 183.951 185.141C185.108 185.821 185.729 187.195 185.465 188.513C185.169 189.986 183.843 191.078 182.339 191.078Z" fill="#F59F3F"/>
<path d="M187.616 74.8243C188.048 78.3186 185.566 81.5018 182.072 81.9341C178.578 82.3664 175.395 79.8845 174.962 76.3906L168.636 77.1735C166.889 77.3899 165.648 78.9812 165.864 80.7284L173.695 143.995C173.911 145.743 175.503 146.983 177.25 146.767L183.577 145.984C183.144 142.49 185.626 139.307 189.12 138.874C192.614 138.442 195.798 140.924 196.23 144.418L202.557 143.635C204.304 143.419 205.545 141.827 205.329 140.08L197.497 76.8129C197.281 75.0658 195.69 73.8251 193.942 74.041L187.616 74.8243Z" fill="#F0F0F1"/>
<path d="M181.223 130.193C179.637 130.193 178.263 129.01 178.064 127.396L174.931 102.089C174.715 100.342 175.956 98.7502 177.703 98.5339C179.451 98.3195 181.042 99.5583 181.258 101.306L184.39 126.613C184.606 128.36 183.366 129.951 181.619 130.168C181.486 130.184 181.354 130.193 181.223 130.193Z" fill="#D2D1D6"/>
<path d="M193.876 128.626C192.291 128.626 190.917 127.444 190.717 125.83L188.759 110.013C188.543 108.266 189.784 106.674 191.531 106.458C193.279 106.244 194.87 107.482 195.086 109.23L197.044 125.047C197.26 126.794 196.019 128.385 194.272 128.601C194.139 128.618 194.007 128.626 193.876 128.626Z" fill="#D2D1D6"/>
<path d="M223.812 206.816H26.1875C24.4272 206.816 23 208.243 23 210.003V222.753C23 224.514 24.4272 225.941 26.1875 225.941H223.812C225.573 225.941 227 224.514 227 222.753V210.003C227 208.243 225.573 206.816 223.812 206.816Z" fill="#787485"/>
<path d="M223.812 219.566H26.1875C24.4272 219.566 23 218.139 23 216.378V222.753C23 224.514 24.4272 225.941 26.1875 225.941H223.812C225.573 225.941 227 224.514 227 222.753V216.378C227 218.139 225.573 219.566 223.812 219.566Z" fill="#696578"/>
</svg>
