<svg width="140" height="140" viewBox="0 0 140 140" fill="none" xmlns="http://www.w3.org/2000/svg">
<path d="M100.833 30H9.16675C4.11211 30 0 34.1121 0 39.1667V105.167C0 110.221 4.11211 114.334 9.16675 114.334H100.834C105.888 114.334 110 110.221 110 105.167V39.1667C110 34.1121 105.888 30 100.833 30Z" fill="#F0F0F1"/>
<path d="M69.637 132.338L65.9702 112.171C65.8119 111.3 65.0524 110.666 64.1664 110.666H45.8331C44.9471 110.666 44.1878 111.3 44.0293 112.171L40.3625 132.338C40.2654 132.873 40.4105 133.423 40.7587 133.841C41.107 134.258 41.6226 134.5 42.1662 134.5H67.8329C68.3765 134.5 68.8921 134.258 69.2404 133.841C69.5891 133.424 69.7341 132.873 69.637 132.338Z" fill="#447BD4"/>
<path d="M65.9705 112.172C65.8122 111.3 65.0527 110.667 64.1667 110.667H45.8334C44.9474 110.667 44.1881 111.3 44.0296 112.172L42.97 118H67.0301L65.9705 112.172Z" fill="#092E69"/>
<path d="M71.5 130.833H38.5C35.4675 130.833 33 133.301 33 136.334V138.167C33 139.179 33.8209 140 34.8333 140H75.1666C76.1791 140 76.9998 139.179 76.9998 138.167V136.334C77 133.301 74.5326 130.833 71.5 130.833Z" fill="#104BA9"/>
<path d="M110 39.1668C110 34.1121 105.888 30 100.833 30H9.16675C4.11211 30 0 34.1121 0 39.1668V41H110V39.1668Z" fill="#104BA9"/>
<path d="M9.16675 114.333H100.834C105.888 114.333 110 110.221 110 105.167H0C0 110.221 4.11211 114.333 9.16675 114.333Z" fill="#104BA9"/>
<path d="M82.5001 99.667H27.5C26.4875 99.667 25.6667 98.8461 25.6667 97.8338C25.6667 96.8212 26.4877 96.0005 27.5 96.0005H82.5001C86.5437 96.0005 89.8334 92.7108 89.8334 88.6672C89.8334 84.6236 86.5437 81.3335 82.5001 81.3335H56.8333C50.768 81.3335 45.8333 76.3988 45.8333 70.3335C45.8333 64.2682 50.768 59.3335 56.8333 59.3335H89.8334C90.8459 59.3335 91.6666 60.1544 91.6666 61.1668C91.6666 62.1793 90.8457 63 89.8334 63H56.8333C52.7897 63 49.5 66.2897 49.5 70.3333C49.5 74.3769 52.7897 77.6666 56.8333 77.6666H82.5001C88.5653 77.6666 93.5001 82.6013 93.5001 88.6666C93.5001 94.7318 88.5656 99.667 82.5001 99.667Z" fill="#787485"/>
<path d="M27.5 55.6665C18.4018 55.6665 11 63.0683 11 72.1665C11 80.6855 24.5479 97.158 26.0928 99.0083C26.4411 99.4253 26.9567 99.6668 27.5 99.6668C28.0434 99.6668 28.559 99.4255 28.9073 99.0083C30.452 97.1583 44 80.6857 44 72.1665C44 63.0683 36.5982 55.6665 27.5 55.6665Z" fill="#104BA9"/>
<path d="M27.5 83.1665C33.5752 83.1665 38.5 78.2417 38.5 72.1665C38.5 66.0914 33.5752 61.1665 27.5 61.1665C21.4249 61.1665 16.5 66.0914 16.5 72.1665C16.5 78.2417 21.4249 83.1665 27.5 83.1665Z" fill="#EBEBEC"/>
<path d="M27.5003 79.5C31.5503 79.5 34.8335 76.2168 34.8335 72.1668C34.8335 68.1167 31.5503 64.8335 27.5003 64.8335C23.4502 64.8335 20.167 68.1167 20.167 72.1668C20.167 76.2168 23.4502 79.5 27.5003 79.5Z" fill="#104BA9"/>
<path d="M95.3333 50.1665H84.3333C83.3207 50.1665 82.5 50.9874 82.5 51.9998V61.1665C82.5 62.1791 83.3209 62.9998 84.3333 62.9998H95.3333C96.3458 62.9998 97.1665 62.1789 97.1665 61.1665V51.9998C97.1668 50.9872 96.3458 50.1665 95.3333 50.1665Z" fill="#447BD4"/>
<path d="M91.6667 53.8331V50.9261L94.7964 47.7965C95.5122 47.0804 95.5122 45.9198 94.7964 45.2037C94.0803 44.4881 92.9197 44.4881 92.2036 45.2037L89.8333 47.5743L87.4629 45.2037C86.7468 44.4881 85.5862 44.4881 84.8702 45.2037C84.1543 45.9198 84.1543 47.0804 84.8702 47.7965L88 50.9261V53.8334H82.5V57.4999H88V62.9999H91.6667V57.4999H97.1668V53.8331H91.6667Z" fill="#104BA9"/>
</svg>
