<svg width="140" height="140" viewBox="0 0 140 140" fill="none" xmlns="http://www.w3.org/2000/svg">
<path fill-rule="evenodd" clip-rule="evenodd" d="M96.8849 66.4197C96.4884 68.5578 95.9219 70.6397 95.2044 72.6465C91.8246 71.0898 87.765 72.3277 85.8579 75.5911C83.9698 78.8545 84.9138 82.962 87.9538 85.1001C86.5566 86.7318 85.0271 88.251 83.3844 89.6389C81.2508 86.6193 77.0968 85.6628 73.8114 87.5571C70.5259 89.4326 69.2798 93.4838 70.8469 96.841C68.8266 97.5537 66.7307 98.1164 64.5971 98.5102C64.2761 94.8342 61.1606 91.9458 57.3654 91.9458C53.5701 91.9458 50.4546 94.8342 50.1337 98.5102C47.9811 98.1164 45.8853 97.5537 43.8838 96.841C45.451 93.4838 44.2048 89.4514 40.9194 87.5571C37.6339 85.6815 33.4988 86.6193 31.3463 89.6389C29.7036 88.251 28.1742 86.7318 26.7769 85.1001C29.8169 82.9807 30.7799 78.8545 28.8728 75.5911C26.9846 72.3277 22.9062 71.0898 19.5263 72.6465C18.8277 70.6397 18.2613 68.5578 17.8647 66.4197C21.5656 66.1009 24.4734 63.0062 24.4734 59.2364C24.4734 55.4665 21.5656 52.3719 17.8647 52.053C18.2613 49.9149 18.8088 47.8331 19.5452 45.8262C22.9251 47.3829 26.9846 46.1451 28.8917 42.8816C30.7799 39.6182 29.8358 35.5107 26.7958 33.3914C28.1931 31.7597 29.7225 30.2405 31.3652 28.8526C33.4988 31.8722 37.6528 32.8287 40.9382 30.9344C44.2237 29.0589 45.4699 25.0077 43.9027 21.6505C45.9041 20.9378 47.9811 20.3939 50.1337 20C50.4546 23.6761 53.5701 26.5644 57.3654 26.5644C61.1606 26.5644 64.2761 23.6761 64.5971 20C66.7496 20.3939 68.8455 20.9378 70.8469 21.6692C69.2798 25.0265 70.5259 29.0589 73.8114 30.9532C77.0968 32.8287 81.2319 31.8909 83.3844 28.8713C85.0271 30.2592 86.5566 31.7784 87.9538 33.4101C84.9138 35.5295 83.9509 39.6557 85.8579 42.9004C87.7461 46.1638 91.8246 47.4017 95.2044 45.845C95.9219 47.8518 96.4884 49.9337 96.8849 52.0718C93.1841 52.3906 90.2763 55.4853 90.2763 59.2551C90.2763 63.0062 93.1652 66.1009 96.8849 66.4197ZM28.9861 59.2364C28.9861 74.8221 41.6935 87.4445 57.3843 87.4445C73.0561 87.4445 85.7824 74.8221 85.7824 59.2364C85.7824 43.6694 73.075 31.0282 57.3843 31.0282C41.6935 31.0282 28.9861 43.6694 28.9861 59.2364Z" fill="#092E69"/>
<path fill-rule="evenodd" clip-rule="evenodd" d="M113.746 114.509C113.803 115.84 113.746 117.153 113.595 118.447C111.367 117.978 109.101 119.254 108.422 121.467C107.742 123.661 108.875 126.006 110.989 126.85C110.385 128.013 109.668 129.138 108.875 130.188C107.175 128.669 104.57 128.669 102.87 130.244C101.171 131.82 100.982 134.389 102.379 136.19C101.265 136.884 100.095 137.503 98.8674 138.028C98.1687 135.871 95.9029 134.577 93.656 135.083C91.3902 135.59 89.9363 137.747 90.2384 139.979C88.8978 140.035 87.5761 139.979 86.2732 139.828C86.7453 137.615 85.4613 135.365 83.2333 134.689C81.0241 134.014 78.6639 135.14 77.8142 137.24C76.6435 136.64 75.5106 135.927 74.4533 135.14C75.9827 133.452 75.9827 130.863 74.3966 129.175C72.8106 127.487 70.2237 127.3 68.4111 128.688C67.7125 127.581 67.0894 126.418 66.5607 125.199C68.7321 124.505 70.0349 122.255 69.5251 120.023C69.0153 117.772 66.8439 116.328 64.597 116.628C64.5403 115.296 64.597 113.983 64.748 112.689C66.9761 113.158 69.2419 111.883 69.9216 109.67C70.6014 107.475 69.4685 105.131 67.3537 104.287C67.9579 103.124 68.6754 101.999 69.4685 100.948C71.1678 102.468 73.7735 102.468 75.4729 100.892C77.1722 99.3167 77.361 96.7472 75.9638 94.9467C77.0778 94.2528 78.2485 93.6338 79.4758 93.1087C80.1744 95.2656 82.4402 96.5597 84.6872 96.0533C86.953 95.5469 88.4069 93.39 88.1048 91.1581C89.4454 91.1019 90.7671 91.1581 92.0699 91.3082C91.5979 93.5213 92.8818 95.772 95.1099 96.4472C97.3191 97.1223 99.6793 95.997 100.529 93.8964C101.7 94.4966 102.833 95.2093 103.89 95.997C102.36 97.685 102.36 100.273 103.947 101.961C105.533 103.649 108.119 103.837 109.932 102.449C110.65 103.555 111.254 104.718 111.782 105.937C109.611 106.631 108.308 108.882 108.818 111.114C109.328 113.365 111.499 114.809 113.746 114.509ZM72.2252 119.423C74.3589 128.725 83.6864 134.539 93.0518 132.42C102.417 130.301 108.27 121.036 106.137 111.733C104.003 102.43 94.6756 96.616 85.3103 98.7353C75.9449 100.855 70.0916 110.12 72.2252 119.423Z" fill="#092E69"/>
<path fill-rule="evenodd" clip-rule="evenodd" d="M49.1707 114.509C49.2274 115.84 49.1707 117.153 49.0197 118.447C46.7916 117.978 44.5258 119.254 43.8461 121.467C43.1663 123.661 44.2992 126.006 46.414 126.85C45.8098 128.013 45.0923 129.138 44.2992 130.188C42.5999 128.669 39.9942 128.669 38.2948 130.244C36.5955 131.82 36.4067 134.389 37.8039 136.19C36.6899 136.884 35.5192 137.503 34.2919 138.028C33.5933 135.871 31.3275 134.577 29.0806 135.083C26.8147 135.59 25.3609 137.747 25.663 139.979C24.3224 140.035 23.0006 139.979 21.6978 139.828C22.1698 137.615 20.8859 135.365 18.6578 134.689C16.4487 134.014 14.0884 135.14 13.2388 137.24C12.0681 136.64 10.9352 135.927 9.87782 135.14C11.4072 133.452 11.4072 130.863 9.82117 129.175C8.23511 127.487 5.64831 127.3 3.83566 128.688C3.13704 127.581 2.51394 126.418 1.98525 125.199C4.15665 124.505 5.45949 122.255 4.94968 120.023C4.43988 117.772 2.26847 116.328 0.0215466 116.628C-0.0350986 115.296 0.0215466 113.983 0.172601 112.689C2.40065 113.158 4.66646 111.883 5.3462 109.67C6.02594 107.475 4.89304 105.131 2.77828 104.287C3.3825 103.124 4.1 101.999 4.89304 100.948C6.59239 102.468 9.19808 102.468 10.8974 100.892C12.5968 99.3167 12.7856 96.7472 11.3884 94.9467C12.5024 94.2528 13.673 93.6338 14.9004 93.1087C15.599 95.2656 17.8648 96.5597 20.1117 96.0533C22.3775 95.5469 23.8314 93.39 23.5293 91.1581C24.8699 91.1019 26.1917 91.1581 27.4945 91.3082C27.0224 93.5213 28.3064 95.772 30.5345 96.4472C32.7436 97.1223 35.1038 95.997 35.9535 93.8964C37.1242 94.4966 38.2571 95.2093 39.3145 95.997C37.785 97.685 37.785 100.273 39.3711 101.961C40.9572 103.649 43.544 103.837 45.3566 102.449C46.0552 103.555 46.6783 104.718 47.207 105.937C45.0356 106.631 43.7328 108.882 44.2426 111.114C44.7713 113.365 46.9238 114.809 49.1707 114.509ZM7.64977 119.423C9.78341 128.725 19.111 134.539 28.4763 132.42C37.8417 130.301 43.695 121.036 41.5614 111.733C39.4278 102.43 30.1002 96.616 20.7348 98.7353C11.3695 100.855 5.51614 110.12 7.64977 119.423Z" fill="#092E69"/>
<path fill-rule="evenodd" clip-rule="evenodd" d="M65.8812 51.1906C66.1456 47.8146 67.2974 44.2698 66.4666 41.1189C64.5406 36.6364 55.383 34.517 51.0024 35.3235C48.2646 39.9186 49.3975 45.564 49.8884 50.7967L65.8812 51.1906Z" fill="#787485"/>
<path fill-rule="evenodd" clip-rule="evenodd" d="M57.8376 51.0032V35.7363C61.5951 36.6178 65.3148 38.4371 66.4666 41.1191C67.2974 44.2513 66.1456 47.7961 65.8813 51.1908L57.8376 51.0032Z" fill="#5A5765"/>
<path fill-rule="evenodd" clip-rule="evenodd" d="M57.7056 82.9249C60.1413 82.9624 62.5204 82.8498 64.8806 82.606V61.1311L64.0687 60.7747C62.2938 60.0057 60.1035 59.1242 57.7056 58.7866V82.9249Z" fill="#F0F0F1"/>
<path fill-rule="evenodd" clip-rule="evenodd" d="M57.7056 82.9249C55.2887 82.9624 52.8907 82.8498 50.5305 82.606V61.1311L51.3424 60.7747C53.1173 60.0057 55.3076 59.1242 57.7056 58.7866V82.9249Z" fill="#F0F0F1"/>
<path fill-rule="evenodd" clip-rule="evenodd" d="M52.5884 54.5664H62.8223V60.6994C59.4047 63.4002 56.006 63.494 52.5884 60.6994V54.5664Z" fill="#E0AC7E"/>
<path fill-rule="evenodd" clip-rule="evenodd" d="M53.495 41.9818C52.0411 41.7005 50.6627 43.1634 50.3984 44.6263C50.1529 45.9579 49.983 47.3083 49.9263 48.6775C49.8886 48.6775 50.0963 48.6587 49.813 48.6587C49.5109 48.6587 48.5669 48.865 48.6046 50.1404C48.6424 51.0782 49.4543 53.8165 50.5494 53.3851C52.1166 57.5675 54.2314 59.9307 57.7056 60.7747C57.7623 60.6622 57.8 60.756 57.8378 60.7185V42.4507C56.4405 42.4319 55.0433 42.2819 53.495 41.9818Z" fill="#F2C196"/>
<path fill-rule="evenodd" clip-rule="evenodd" d="M62.0484 41.9818C63.5023 41.7005 64.8806 43.1634 65.145 44.6263C65.3904 45.9579 65.5415 47.3083 65.617 48.6775C65.6548 48.6775 65.4471 48.6587 65.7303 48.6587C66.0324 48.6587 66.9765 48.865 66.9387 50.1404C66.901 51.0782 66.0702 53.8165 64.9939 53.3851C63.4078 57.6238 61.2553 59.9682 57.7056 60.7747V42.4507C59.1028 42.4319 60.5001 42.2819 62.0484 41.9818Z" fill="#EBB688"/>
<path fill-rule="evenodd" clip-rule="evenodd" d="M57.7055 62.7627H59.4426L58.7062 65.5197H57.7055H56.6859L55.9495 62.7627H57.7055Z" fill="#092E69"/>
<path fill-rule="evenodd" clip-rule="evenodd" d="M58.7061 65.4453L59.4236 75.8733L57.7054 79.0055L55.9683 75.8733L56.6858 65.4453H58.7061Z" fill="#092E69"/>
<path fill-rule="evenodd" clip-rule="evenodd" d="M57.7054 62.7624L54.7032 65.6695L51.3423 60.7743L52.5885 60.0991C53.8347 61.4308 55.5718 62.256 57.7054 62.7624Z" fill="#F0FAFC"/>
<path fill-rule="evenodd" clip-rule="evenodd" d="M57.7055 78.7236L50.3416 61.2061C43.6764 64.0569 39.4091 66.27 38.6538 74.6349C41.6749 79.999 48.9066 84.3878 57.7055 84.3878V78.7236Z" fill="#104BA9"/>
<path fill-rule="evenodd" clip-rule="evenodd" d="M44.658 80.7495C44.9223 80.937 45.2244 81.0871 45.5076 81.2559L45.4888 77.7861L44.658 80.7495Z" fill="#092E69"/>
<path fill-rule="evenodd" clip-rule="evenodd" d="M57.7058 78.7235V83.1498L50.7573 70.8087L52.8343 68.333L49.681 67.2827L48.2649 62.1062L51.7014 60.6245L57.7058 78.7235Z" fill="#447BD4"/>
<path fill-rule="evenodd" clip-rule="evenodd" d="M57.7056 62.7624L60.7078 65.6695L64.0687 60.7743L62.8225 60.0991C61.5574 61.4308 59.8392 62.256 57.7056 62.7624Z" fill="#F0FAFC"/>
<path fill-rule="evenodd" clip-rule="evenodd" d="M57.7056 78.7236L65.0695 61.2061C71.7348 64.0569 76.0021 66.27 76.7573 74.6349C73.7363 79.999 66.5045 84.3878 57.6868 84.3878V78.7236H57.7056Z" fill="#104BA9"/>
<path fill-rule="evenodd" clip-rule="evenodd" d="M70.734 80.7495C70.4696 80.937 70.1675 81.0871 69.8843 81.2559L69.9032 77.7861L70.734 80.7495Z" fill="#092E69"/>
<path fill-rule="evenodd" clip-rule="evenodd" d="M57.7056 78.7233V83.1496L64.6352 70.8085L62.5771 68.3328L65.7114 67.2825L67.1464 62.106L63.8232 60.6431L57.7056 78.7233Z" fill="#447BD4"/>
<path fill-rule="evenodd" clip-rule="evenodd" d="M29.9437 110.1C30.1058 108.031 30.8119 105.857 30.3025 103.926C29.1218 101.178 23.5075 99.8782 20.8218 100.373C19.1433 103.19 19.8379 106.651 20.1389 109.859L29.9437 110.1Z" fill="#787485"/>
<path fill-rule="evenodd" clip-rule="evenodd" d="M25.0127 109.985V100.625C27.3163 101.166 29.5968 102.281 30.3029 103.926C30.8122 105.846 30.1061 108.019 29.944 110.1L25.0127 109.985Z" fill="#5A5765"/>
<path fill-rule="evenodd" clip-rule="evenodd" d="M24.9314 129.555C26.4247 129.578 27.8833 129.509 29.3303 129.359V116.194L28.8325 115.975C27.7444 115.504 26.4015 114.963 24.9314 114.756V129.555Z" fill="#F0F0F1"/>
<path fill-rule="evenodd" clip-rule="evenodd" d="M24.9313 129.555C23.4496 129.578 21.9795 129.509 20.5325 129.359V116.194L21.0302 115.975C22.1184 115.504 23.4612 114.963 24.9313 114.756V129.555Z" fill="#F0F0F1"/>
<path fill-rule="evenodd" clip-rule="evenodd" d="M21.7942 112.17H28.0684V115.93C25.9731 117.586 23.8894 117.644 21.7942 115.93V112.17Z" fill="#E0AC7E"/>
<path fill-rule="evenodd" clip-rule="evenodd" d="M22.3499 104.455C21.4586 104.282 20.6135 105.179 20.4515 106.076C20.301 106.892 20.1968 107.72 20.1621 108.56C20.1389 108.56 20.2662 108.548 20.0926 108.548C19.9074 108.548 19.3286 108.675 19.3517 109.456C19.3749 110.031 19.8727 111.71 20.5441 111.446C21.5049 114.01 22.8014 115.459 24.9314 115.976C24.9661 115.907 24.9892 115.965 25.0124 115.942V104.742C24.1558 104.731 23.2992 104.639 22.3499 104.455Z" fill="#F2C196"/>
<path fill-rule="evenodd" clip-rule="evenodd" d="M27.5939 104.455C28.4852 104.282 29.3303 105.179 29.4923 106.076C29.6428 106.892 29.7354 107.72 29.7817 108.56C29.8049 108.56 29.6775 108.548 29.8512 108.548C30.0364 108.548 30.6152 108.675 30.592 109.456C30.5689 110.031 30.0595 111.71 29.3997 111.446C28.4273 114.044 27.1077 115.482 24.9314 115.976V104.742C25.788 104.731 26.6446 104.639 27.5939 104.455Z" fill="#EBB688"/>
<path fill-rule="evenodd" clip-rule="evenodd" d="M24.9313 117.195H25.9963L25.5448 118.886H24.9313H24.3062L23.8547 117.195H24.9313Z" fill="#092E69"/>
<path fill-rule="evenodd" clip-rule="evenodd" d="M25.5447 118.839L25.9846 125.233L24.9312 127.153L23.8662 125.233L24.3061 118.839H25.5447Z" fill="#092E69"/>
<path fill-rule="evenodd" clip-rule="evenodd" d="M24.9314 117.195L23.0908 118.977L21.0303 115.976L21.7943 115.562C22.5583 116.378 23.6233 116.884 24.9314 117.195Z" fill="#F0FAFC"/>
<path fill-rule="evenodd" clip-rule="evenodd" d="M24.9314 126.98L20.4167 116.241C16.3304 117.988 13.7143 119.345 13.2512 124.474C15.1034 127.762 19.537 130.453 24.9314 130.453V126.98Z" fill="#104BA9"/>
<path fill-rule="evenodd" clip-rule="evenodd" d="M16.9326 128.222C17.0947 128.337 17.2799 128.429 17.4535 128.532L17.442 126.405L16.9326 128.222Z" fill="#092E69"/>
<path fill-rule="evenodd" clip-rule="evenodd" d="M24.9313 126.98V129.694L20.6713 122.128L21.9447 120.61L20.0115 119.966L19.1433 116.793L21.2501 115.884L24.9313 126.98Z" fill="#447BD4"/>
<path fill-rule="evenodd" clip-rule="evenodd" d="M24.9314 117.195L26.772 118.977L28.8325 115.976L28.0685 115.562C27.2929 116.378 26.2395 116.884 24.9314 117.195Z" fill="#F0FAFC"/>
<path fill-rule="evenodd" clip-rule="evenodd" d="M24.9313 126.98L29.4459 116.241C33.5322 117.988 36.1484 119.345 36.6114 124.474C34.7592 127.762 30.3256 130.453 24.9197 130.453V126.98H24.9313Z" fill="#104BA9"/>
<path fill-rule="evenodd" clip-rule="evenodd" d="M32.9191 128.222C32.757 128.337 32.5718 128.429 32.3982 128.532L32.4098 126.405L32.9191 128.222Z" fill="#092E69"/>
<path fill-rule="evenodd" clip-rule="evenodd" d="M24.9314 126.98V129.694L29.1798 122.128L27.918 120.61L29.8396 119.966L30.7194 116.792L28.682 115.896L24.9314 126.98Z" fill="#447BD4"/>
<path fill-rule="evenodd" clip-rule="evenodd" d="M93.8482 110.1C94.0103 108.031 94.7164 105.857 94.2071 103.926C93.0263 101.178 87.412 99.8782 84.7264 100.373C83.0479 103.19 83.7424 106.651 84.0434 109.859L93.8482 110.1Z" fill="#787485"/>
<path fill-rule="evenodd" clip-rule="evenodd" d="M88.9172 109.985V100.625C91.2208 101.166 93.5013 102.281 94.2074 103.926C94.7168 105.846 94.0107 108.019 93.8486 110.1L88.9172 109.985Z" fill="#5A5765"/>
<path fill-rule="evenodd" clip-rule="evenodd" d="M88.8359 129.555C90.3292 129.578 91.7878 129.509 93.2348 129.359V116.194L92.737 115.975C91.6489 115.504 90.3061 114.963 88.8359 114.756V129.555Z" fill="#F0F0F1"/>
<path fill-rule="evenodd" clip-rule="evenodd" d="M88.8359 129.555C87.3542 129.578 85.884 129.509 84.437 129.359V116.194L84.9348 115.975C86.0229 115.504 87.3657 114.963 88.8359 114.756V129.555Z" fill="#F0F0F1"/>
<path fill-rule="evenodd" clip-rule="evenodd" d="M85.6987 112.17H91.9729V115.93C89.8776 117.586 87.794 117.644 85.6987 115.93V112.17Z" fill="#E0AC7E"/>
<path fill-rule="evenodd" clip-rule="evenodd" d="M86.2545 104.455C85.3631 104.282 84.5181 105.179 84.356 106.076C84.2055 106.892 84.1013 107.72 84.0666 108.56C84.0435 108.56 84.1708 108.548 83.9972 108.548C83.8119 108.548 83.2331 108.675 83.2563 109.456C83.2794 110.031 83.7772 111.71 84.4486 111.446C85.4094 114.01 86.7059 115.459 88.8359 115.976C88.8706 115.907 88.8938 115.965 88.9169 115.942V104.742C88.0603 104.731 87.2037 104.639 86.2545 104.455Z" fill="#F2C196"/>
<path fill-rule="evenodd" clip-rule="evenodd" d="M91.4984 104.455C92.3898 104.282 93.2348 105.179 93.3969 106.076C93.5473 106.892 93.64 107.72 93.6863 108.56C93.7094 108.56 93.5821 108.548 93.7557 108.548C93.9409 108.548 94.5197 108.675 94.4966 109.456C94.4734 110.031 93.9641 111.71 93.3043 111.446C92.3319 114.044 91.0122 115.482 88.8359 115.976V104.742C89.6926 104.731 90.5492 104.639 91.4984 104.455Z" fill="#EBB688"/>
<path fill-rule="evenodd" clip-rule="evenodd" d="M88.8358 117.195H89.9008L89.4494 118.886H88.8358H88.2107L87.7593 117.195H88.8358Z" fill="#092E69"/>
<path fill-rule="evenodd" clip-rule="evenodd" d="M89.4493 118.839L89.8892 125.233L88.8357 127.153L87.7708 125.233L88.2106 118.839H89.4493Z" fill="#092E69"/>
<path fill-rule="evenodd" clip-rule="evenodd" d="M88.8359 117.195L86.9953 118.977L84.9348 115.976L85.6988 115.562C86.4628 116.378 87.5278 116.884 88.8359 117.195Z" fill="#F0FAFC"/>
<path fill-rule="evenodd" clip-rule="evenodd" d="M88.8359 126.98L84.3213 116.241C80.235 117.988 77.6188 119.345 77.1558 124.474C79.0079 127.762 83.4415 130.453 88.8359 130.453V126.98Z" fill="#104BA9"/>
<path fill-rule="evenodd" clip-rule="evenodd" d="M80.8372 128.222C80.9992 128.337 81.1844 128.429 81.3581 128.532L81.3465 126.405L80.8372 128.222Z" fill="#092E69"/>
<path fill-rule="evenodd" clip-rule="evenodd" d="M88.8358 126.98V129.694L84.5759 122.128L85.8492 120.61L83.916 119.966L83.0479 116.793L85.1547 115.884L88.8358 126.98Z" fill="#447BD4"/>
<path fill-rule="evenodd" clip-rule="evenodd" d="M88.8359 117.195L90.6765 118.977L92.737 115.976L91.973 115.562C91.1974 116.378 90.144 116.884 88.8359 117.195Z" fill="#F0FAFC"/>
<path fill-rule="evenodd" clip-rule="evenodd" d="M88.8358 126.98L93.3504 116.241C97.4367 117.988 100.053 119.345 100.516 124.474C98.6638 127.762 94.2302 130.453 88.8242 130.453V126.98H88.8358Z" fill="#104BA9"/>
<path fill-rule="evenodd" clip-rule="evenodd" d="M96.8237 128.222C96.6616 128.337 96.4764 128.429 96.3027 128.532L96.3143 126.405L96.8237 128.222Z" fill="#092E69"/>
<path fill-rule="evenodd" clip-rule="evenodd" d="M88.8359 126.98V129.694L93.0843 122.128L91.8225 120.61L93.7441 119.966L94.6239 116.792L92.5865 115.896L88.8359 126.98Z" fill="#447BD4"/>
</svg>
