<svg width="120" height="120" viewBox="0 0 120 120" fill="none" xmlns="http://www.w3.org/2000/svg">
<path d="M61.7523 19.5987C61.7523 17.2751 58.2376 17.2714 58.2376 19.5987V21.0699C58.2376 23.3936 61.7523 23.3972 61.7523 21.0699V19.5987Z" fill="#AA155B"/>
<path d="M58.2376 34.3387V35.809C58.2376 38.1326 61.7532 38.1363 61.7532 35.809V34.3387C61.7523 32.0151 58.2376 32.0105 58.2376 34.3387Z" fill="#AA155B"/>
<path d="M68.0997 25.946H66.6293C64.3057 25.946 64.3021 29.4617 66.6293 29.4617H68.0997C70.4233 29.4617 70.427 25.946 68.0997 25.946Z" fill="#AA155B"/>
<path d="M53.361 25.946H51.8907C49.5661 25.946 49.5634 29.4617 51.8907 29.4617H53.361C55.6855 29.4617 55.6883 25.946 53.361 25.946Z" fill="#AA155B"/>
<path d="M63.4434 33.6383L65.5235 35.7184C67.1659 37.3599 69.6543 34.8779 68.0091 33.2318L65.9291 31.1517C64.2857 29.5093 61.7982 31.9922 63.4434 33.6383Z" fill="#AA155B"/>
<path d="M56.5463 21.7703L54.4662 19.6902C52.8238 18.0478 50.3354 20.5297 51.9806 22.1759L54.0607 24.2559C55.6912 25.8856 58.1934 23.4173 56.5463 21.7703Z" fill="#AA155B"/>
<path d="M64.6853 24.7705C65.8672 24.7705 66.2151 23.7955 68.0087 22.1759C68.6953 21.4893 68.6953 20.3769 68.0087 19.6902C67.322 19.0045 66.2097 19.0045 65.523 19.6902L63.4429 21.7703C62.3324 22.8809 63.1335 24.7705 64.6853 24.7705Z" fill="#AA155B"/>
<path d="M53.2238 36.2329C54.4048 36.2329 54.7527 35.2578 56.5462 33.6383C58.1887 31.9958 55.7067 29.5065 54.0606 31.1517L51.9805 33.2318C50.87 34.3423 51.672 36.2329 53.2238 36.2329Z" fill="#AA155B"/>
<path d="M73.5498 58.8455H74.4891C76.7615 58.8455 78.609 56.998 78.609 54.7256V51.9095C78.609 49.6381 76.7615 47.7896 74.4891 47.7896H73.7027V43.9096H76.9336C80.094 43.9096 82.6648 41.3388 82.6648 38.1784V30.5887C82.6648 28.2651 79.1492 28.2605 79.1492 30.5887V38.1784C79.1492 39.3997 78.1558 40.394 76.9336 40.394H43.0563C41.8341 40.394 40.8408 39.3997 40.8408 38.1784V13.7393H79.1492V23.5281C79.1492 25.8517 82.6648 25.8554 82.6648 23.5281V13.7393H92.1396C98.2379 13.7393 103.199 8.77808 103.199 2.67975C103.199 1.20209 101.997 0 100.519 0H19.4705C17.9929 0 16.7908 1.20209 16.7908 2.67975C16.7908 8.77808 21.7529 13.7402 27.8513 13.7402H37.326V38.1784C37.326 41.3388 39.8968 43.9096 43.0563 43.9096H46.2872V47.7905H45.5008C43.2294 47.7905 41.3809 49.6381 41.3809 51.9095V54.7266C41.3809 56.998 43.2294 58.8455 45.5008 58.8455H46.4401C46.6992 60.3195 47.2852 61.7157 48.1714 62.9517L57.2662 75.6418C57.5299 76.0098 57.8613 76.3147 58.2376 76.5463V118.243C58.2376 120.566 61.7532 120.57 61.7532 118.243V76.5454C62.1286 76.3147 62.4609 76.0089 62.7237 75.6418L71.8195 62.9517C72.7057 61.7148 73.2916 60.3195 73.5498 58.8455ZM20.3522 3.51562H99.6377C99.2212 7.28394 96.0168 10.2246 92.1396 10.2246H27.8513C23.9731 10.2246 20.7687 7.28394 20.3522 3.51562ZM49.8029 43.9096H70.1871V47.7896H49.8029V43.9096ZM44.8965 54.7256V51.9095C44.8965 51.5762 45.1675 51.3052 45.5008 51.3052H74.4891C74.8224 51.3052 75.0934 51.5762 75.0934 51.9095V54.7256C75.0934 55.0598 74.8224 55.3299 74.4891 55.3299H45.5008C45.1675 55.3299 44.8965 55.0598 44.8965 54.7256ZM59.9954 73.4152L51.0278 60.9036C50.5756 60.2728 50.2441 59.5789 50.0409 58.8455H69.949C69.7458 59.5779 69.4134 60.2728 68.9621 60.9036L59.9954 73.4152Z" fill="#AA155B"/>
<path d="M50.9354 104.87H20.5774C19.6069 104.87 18.8205 105.656 18.8205 106.627C18.8205 107.598 19.6069 108.385 20.5774 108.385H50.9354C51.0425 108.385 51.1285 108.472 51.1285 108.578V116.292C51.1285 116.398 51.0425 116.484 50.9354 116.484H7.565C5.33203 116.484 3.51562 114.668 3.51562 112.435C3.51562 110.201 5.33203 108.385 7.565 108.385H13.5471C14.5175 108.385 15.3049 107.598 15.3049 106.627C15.3049 105.656 14.5175 104.869 13.5471 104.869H7.565C3.39386 104.869 0 108.263 0 112.435C0 116.606 3.39386 120 7.565 120H50.9354C52.9806 120 54.6442 118.336 54.6442 116.292V108.578C54.6442 106.534 52.9806 104.87 50.9354 104.87Z" fill="#AA155B"/>
<path d="M112.425 104.87H69.0546C67.0093 104.87 65.3458 106.534 65.3458 108.578V116.292C65.3458 118.336 67.0093 120 69.0546 120H112.425C116.597 120 119.991 116.606 119.991 112.435C119.99 108.264 116.597 104.87 112.425 104.87ZM112.425 116.484H69.0546C68.9484 116.484 68.8614 116.398 68.8614 116.292V108.578C68.8614 108.472 68.9484 108.385 69.0546 108.385H112.425C114.659 108.385 116.475 110.202 116.475 112.435C116.475 114.668 114.658 116.484 112.425 116.484Z" fill="#AA155B"/>
</svg>
