<svg width="120" height="120" viewBox="0 0 120 120" fill="none" xmlns="http://www.w3.org/2000/svg">
<path d="M114 0H6C2.68781 0.00351562 0.00351562 2.68781 0 6V114C0.00351562 117.312 2.68781 119.996 6 120H114C117.312 119.996 119.996 117.312 120 114V6C119.996 2.68781 117.312 0.00351562 114 0ZM58.0001 40.0001H62.0002V50.0002C62.0002 51.1048 61.1048 52.0001 60.0002 52.0001C58.8956 52.0001 58.0003 51.1045 58.0003 50.0002L58.0001 40.0001ZM54 36C52.8959 35.9988 52.001 35.104 52.0001 34.0001V32.0002H68.0002V34.0001C67.999 35.1042 67.1044 35.9991 66.0002 36H54ZM71.5312 27.7833C71.5034 27.8639 71.4588 27.938 71.4005 28.0001H48.6047C48.5433 27.9391 48.4948 27.866 48.4688 27.7833L46.9552 24H73.0451L71.5312 27.7833ZM4.00008 19.9999V12H116V19.9999H4.00008ZM114 116H6C4.89586 115.999 4.00102 115.104 4.00008 114V102H24V104.667C23.9995 105.652 24.7165 106.49 25.6894 106.642L59.6895 111.975C59.6993 111.977 59.7094 111.976 59.7192 111.978C59.8118 111.991 59.9053 112 60 112C59.9998 112 60.0002 112 60 112C60.0002 112 60.0016 112 60.0019 112C60.0984 112 60.1929 111.991 60.2859 111.977C60.2939 111.976 60.3023 111.977 60.3103 111.975L94.3104 106.642C95.2833 106.49 96.0002 105.652 95.9998 104.667V102H116V114C115.999 115.104 115.104 115.999 114 116ZM91.9999 78.172L62.6058 107.567L61.9999 107.662V101.828L91.9999 71.8275V78.172ZM91.9999 83.8282V90.172L76.8384 105.334L69.3141 106.515L91.9999 83.8282ZM91.9999 95.8282V102.956L83.5465 104.282L91.9999 95.8282ZM61.9999 96.1718V89.828L84.0337 67.7944L89.5165 68.6545L61.9999 96.1718ZM61.9999 84.172V77.8282L73.6617 66.1673L79.1444 67.0275L61.9999 84.172ZM61.9999 72.1723V64.3378L68.7724 65.4002L61.9999 72.1723ZM58.0001 107.662L28.0001 102.956V69.0436L58.0001 64.338V107.662ZM116 97.9999H96V67.3329C96.0005 66.348 95.2835 65.5097 94.3106 65.3573L60.3105 60.0244C60.2925 60.0216 60.2742 60.0211 60.2562 60.0187C60.2264 60.015 60.1964 60.0122 60.1664 60.0096C60.1127 60.0051 60.0593 60.003 60.0059 60.0028C59.9782 60.0028 59.9508 60.0023 59.9231 60.0033C59.858 60.0059 59.7933 60.012 59.7291 60.0206C59.7159 60.0225 59.7026 60.022 59.6895 60.0241L59.6655 60.0279C59.6651 60.0279 59.6644 60.0281 59.6639 60.0281L25.6896 65.3571C25.6762 65.3592 25.6636 65.3627 25.6505 65.3651C25.6134 65.3716 25.5771 65.3791 25.541 65.3876C25.5134 65.3941 25.4862 65.4012 25.459 65.4087C25.425 65.4183 25.3913 65.4286 25.358 65.4398C25.3289 65.4497 25.3003 65.4602 25.2717 65.4715C25.242 65.4832 25.2127 65.4952 25.1838 65.508C25.1527 65.5219 25.1222 65.5369 25.0922 65.5523C25.0671 65.5652 25.0423 65.5781 25.0179 65.5919C24.9853 65.6102 24.9539 65.6299 24.9225 65.6498C24.9016 65.6632 24.8805 65.6766 24.8602 65.6909C24.8273 65.7136 24.7959 65.7377 24.7648 65.7623C24.747 65.7764 24.7289 65.7902 24.7116 65.8048C24.6802 65.8312 24.6502 65.8591 24.6206 65.8875C24.6049 65.9025 24.5887 65.917 24.5735 65.9327C24.5442 65.9625 24.5168 65.9937 24.4894 66.0253C24.4755 66.0413 24.4612 66.0567 24.4479 66.0731C24.4212 66.1062 24.3963 66.1404 24.3717 66.1751C24.3598 66.1917 24.3473 66.2079 24.3359 66.225C24.311 66.2623 24.2883 66.3012 24.266 66.3401C24.2571 66.3555 24.2473 66.3705 24.2386 66.3865C24.2128 66.4343 24.1898 66.4835 24.1678 66.5332C24.1643 66.5412 24.1601 66.5484 24.1568 66.5564C24.0813 66.7352 24.0316 66.9267 24.011 67.1255C24.0103 67.1316 24.0103 67.1377 24.0098 67.1438C24.0042 67.203 24.0009 67.263 24.0007 67.3235C24.0007 67.3266 24.0002 67.3296 24.0002 67.3327V97.9997H4.00008V24H42.6455L44.7539 29.2695C45.2702 30.7003 46.5239 31.7159 48 31.9486V33.9998C48.0035 37.312 50.6878 39.9963 54 39.9998V49.9999C54.0035 53.3121 56.6878 55.9964 60 55.9999C63.3122 55.9964 65.9965 53.3121 66 49.9999V39.9998C69.3122 39.9963 71.9965 37.312 72 33.9998V31.9486C73.4759 31.7159 74.7295 30.7003 75.2461 29.2695L77.3545 24H116V97.9999ZM4.00008 7.99992V6C4.00125 4.89586 4.89586 4.00102 6 4.00008H114C115.104 4.00125 115.999 4.89586 116 6V7.99992H4.00008Z" fill="#AA155B"/>
</svg>
