<svg width="120" height="120" viewBox="0 0 120 120" fill="none" xmlns="http://www.w3.org/2000/svg">
<path d="M58.0003 24C59.1049 24 60.0002 23.1045 60.0002 22.0001V13.9999C60.0002 12.8953 59.1049 12 58.0003 12C56.8957 12 56.0004 12.8953 56.0004 13.9999V21.9998C56.0002 23.1045 56.8957 24 58.0003 24Z" fill="#AA155B"/>
<path d="M116 108H112V69.9999C114.208 69.9978 115.997 68.2082 116 65.9999V40C115.998 37.7917 114.208 36.0023 112 35.9999H99.9996C97.7914 36.002 96.0019 37.7917 95.9996 40H79.9995V22C79.996 18.6879 77.3117 16.0036 73.9995 16H71.9999V1.99992C71.9999 0.895311 71.1045 0 69.9999 0C68.8953 0 68 0.895311 68 1.99992V3.99984H52V1.99992C52 0.895311 51.1044 0 50.0001 0C48.8955 0 48.0001 0.895311 48.0001 1.99992V16H46.0002C42.688 16.0036 40.0038 18.6879 40.0002 22V40H24C23.9978 37.7917 22.2082 36.0023 19.9999 35.9999H7.99991C5.79163 36.002 4.00218 37.7917 3.99984 40V65.9999C4.00195 68.2082 5.79163 69.9976 7.99991 69.9999V108H4.00007C1.79179 108.002 0.00210937 109.792 0 112V116C0.00210937 118.208 1.79179 119.998 4.00007 120H116C118.208 119.998 119.998 118.208 120 116V112C119.998 109.792 118.208 108.002 116 108ZM108 108H104V69.9999H108V108ZM80.3858 108L78.8457 103.893C77.9612 101.556 75.7264 100.008 73.2275 99.9996H46.7725C44.2736 100.008 42.0386 101.556 41.1534 103.893L39.6135 108H19.9999V69.9999C22.2082 69.9978 23.9976 68.2082 24 65.9999V59.9999H28V61.9998C28.0021 64.2081 29.7918 65.9975 32.0001 65.9999H35.9999V69.9999C35.9999 71.1045 36.8952 71.9999 37.9998 71.9999C39.1045 71.9999 39.9998 71.1045 39.9998 69.9999V65.9999H43.9998C46.2081 65.9978 47.9976 64.2081 47.9999 61.9998V59.9999H95.9998V65.9999C96.0019 68.2082 97.7916 69.9976 99.9999 69.9999V108H80.3858ZM95.9998 55.9998H47.9999V51.9997H95.9998V55.9998ZM44.0017 57.9655C44.0015 57.977 44.0001 57.9882 44.0001 58C44.0001 58.0117 44.0017 58.0232 44.0019 58.0349L44.0031 62H32.0003V52H44.0003L44.0017 57.9655ZM28 55.9998H24V51.9997H28V55.9998ZM99.9999 40H112L112.003 65.9999H99.9999V40ZM67.9998 7.99991V27.9998H51.9997V7.99991H67.9998ZM43.9998 22C44.0012 20.8961 44.8959 20.0015 45.9998 20.0001H47.9997V34C47.9997 35.1046 48.8952 35.9999 49.9996 35.9999C51.1042 35.9999 51.9995 35.1044 51.9995 34V32.0001H67.9996V34C67.9996 35.1046 68.8949 35.9999 69.9995 35.9999C71.1041 35.9999 71.9994 35.1044 71.9994 34V19.9999H73.9993C75.1032 20.0013 75.9978 20.8959 75.9992 21.9998V39.9998H43.9998V22ZM95.9998 43.9998V47.9999H24V43.9998H95.9998ZM7.99991 40H19.9999L20.0001 41.9955C20.0001 41.9969 19.9999 41.9985 19.9999 41.9999V49.9998C19.9999 50.0073 20.0008 50.0146 20.0011 50.0223L20.002 57.9599C20.0018 57.9732 19.9999 57.9864 19.9999 58C19.9999 58.0136 20.0018 58.0267 20.002 58.0403L20.0029 65.9999H8.00014L7.99991 40ZM12 69.9999H16V108H12V69.9999ZM4.00007 112H38.1135L36.6135 116H4.00007V112ZM40.8857 116L44.8984 105.299C45.1937 104.519 45.9391 104.003 46.7725 104H73.2275C74.0605 104.002 74.8056 104.519 75.1006 105.298L79.1143 116H40.8857ZM116 116H83.386L81.8858 112H116V116Z" fill="#AA155B"/>
</svg>
