<svg width="1100" height="860" viewBox="0 0 1100 860" fill="none" xmlns="http://www.w3.org/2000/svg">
<g clip-path="url(#clip0)">
<path d="M943.797 163.99C834.009 11.139 546.661 -29.8688 318.573 36.9097C197.989 72.2136 84.5059 171.679 26.8879 308.647C-76.1104 553.494 140.148 631.691 281.557 656.614C349.935 668.665 414.335 688.909 473.185 716.47C579.06 766.056 766.468 809.994 907.785 603.447C1010.21 453.742 1016.93 265.803 943.797 163.99Z" fill="#F6F6F6"/>
<path opacity="0.9" d="M254.638 243.953C254.331 241.523 253.71 239.144 252.79 236.875C252.673 236.446 252.468 236.046 252.187 235.701C251.907 235.355 251.558 235.072 251.162 234.869C250.633 234.732 250.079 234.725 249.547 234.851L241.254 236.121C240.56 236.152 239.895 236.411 239.362 236.856C238.282 237.993 239.346 239.823 239.312 241.391C239.275 243.154 237.71 244.585 236.012 245.058C234.278 245.409 232.491 245.386 230.767 244.993L219.171 243.19C222.586 242.099 225.626 240.07 227.943 237.333C229.469 235.525 230.281 232.148 228.076 231.291C227.42 231.112 226.737 231.057 226.062 231.13C220.808 231.171 216.673 226.782 211.755 224.933C208.607 223.827 205.19 223.744 201.992 224.698C198.795 225.652 195.981 227.593 193.952 230.243L200.13 230.541C200.711 230.509 201.287 230.663 201.775 230.98C203.129 232.093 201.446 234.231 201.636 235.973C201.884 238.237 204.889 238.72 207.154 238.949C209.419 239.178 212.292 241.019 211.202 243.019C199.819 246.942 188.235 235.351 176.279 236.778C173.254 237.139 170.396 238.328 167.442 239.076C149.396 243.644 130.74 231.456 112.304 234.037C108.206 234.736 104.178 235.799 100.268 237.213C97.7591 238.037 95.142 238.928 93.3189 240.839C91.4958 242.751 90.802 246.02 92.5291 248.019C87.7688 248.411 82.9767 247.955 78.3756 246.673C79.6198 247.365 80.6549 248.379 81.3722 249.609C82.0895 250.84 82.4626 252.24 82.4522 253.664C75.0196 254.877 67.7839 257.084 60.9395 260.227C62.2169 262.353 63.709 264.341 65.3921 266.162L55.9827 272.21C59.1616 273.011 60.8052 277.348 58.9566 280.057C62.2528 278.589 64.2956 274.794 67.8204 274.025C70.1296 273.521 72.4792 274.466 74.6699 275.354C76.8605 276.241 79.2682 277.102 81.536 276.436C83.8037 275.77 85.4764 272.828 84.0354 270.953C93.7284 268.124 103.746 266.558 113.84 266.294C114.618 266.197 115.408 266.347 116.097 266.723C117.411 267.635 117.065 269.605 116.994 271.203C116.923 272.802 118.169 274.903 119.597 274.182C117.917 275.64 119.353 278.383 120.964 279.916C122.576 281.449 124.519 283.563 123.532 285.557C123.274 286.077 122.838 286.494 122.59 287.019C121.859 288.568 123.02 290.375 124.39 291.404C125.759 292.434 127.437 293.153 128.389 294.578C129.34 296.003 128.908 298.498 127.207 298.697L122.371 292.554C120.718 294.268 119.586 296.415 119.104 298.747C124.232 302.942 125.003 311.479 120.71 316.525C118.516 319.104 115.396 320.671 112.673 322.682C109.95 324.694 107.43 327.558 107.437 330.945C107.449 336.795 106.971 342.231 109.162 347.655C113.203 357.657 117.868 367.396 123.131 376.812C124.512 379.285 126.298 381.995 129.098 382.421C125.56 373.804 122.375 365.053 119.543 356.168C121.388 356.175 123.519 356.321 124.6 357.816C125.496 359.054 125.303 360.737 125.581 362.24C125.935 363.695 126.525 365.083 127.328 366.348L144.222 396.456C145.623 398.952 147.229 401.631 149.906 402.642C151.617 403.288 153.597 403.167 155.172 404.097C156.407 404.826 157.238 406.121 158.497 406.808C162.056 408.75 167.005 405.025 170.331 407.344C171.282 408.007 171.887 409.061 172.763 409.82C175.834 412.481 180.873 410.701 184.419 412.686C186.705 413.966 187.889 416.525 189.108 418.844C192.161 424.652 197.102 430.343 203.645 430.806C205.701 430.951 207.8 430.561 209.809 431.018C211.818 431.476 213.796 433.23 213.474 435.266C212.921 438.757 214.645 442.58 214.182 446.083C213.338 452.466 204.29 455.271 203.513 461.661C203.343 463.061 203.609 464.505 203.276 465.875C202.868 467.553 201.608 468.92 201.16 470.589C200.311 473.751 202.576 476.897 205.063 479.025C207.551 481.152 210.518 482.986 211.877 485.964C213.315 489.112 212.609 492.782 213.076 496.21C214.097 503.696 220.559 509.245 227.209 512.823C229.235 513.913 231.411 514.968 232.723 516.859C234.434 519.328 234.264 522.582 234.835 525.531C236.235 532.754 242.313 538.706 242.485 546.061C242.608 551.289 239.703 556.032 237.968 560.965C236.341 565.692 235.753 570.713 236.242 575.688C236.732 580.663 238.288 585.473 240.805 589.791C242.103 591.984 243.655 594.052 244.574 596.429C246.212 600.671 245.681 605.494 247.191 609.783C249.189 615.454 254.677 620.138 254.152 626.128C256.644 631.305 262.146 633.849 267.679 635.39L277.595 638.151C279.494 638.68 281.478 639.213 283.411 638.83C285.344 638.447 287.19 636.841 287.14 634.87C282.277 633.773 277.258 632.606 273.25 629.641C269.241 626.677 266.495 621.397 268.016 616.648C268.721 614.445 270.222 611.902 268.795 610.083C267.979 609.041 266.485 608.768 265.564 607.818C264.127 606.335 264.621 603.844 265.654 602.056C266.687 600.268 268.18 598.67 268.596 596.648C268.807 595.516 268.666 594.347 268.194 593.298C267.721 592.248 266.939 591.368 265.953 590.776C267.791 590.082 269.464 589.008 270.861 587.626C272.151 586.151 272.748 583.877 271.732 582.201C274.747 582.583 278.307 582.771 280.286 580.463C281.867 578.62 281.758 575.866 281.134 573.519C280.509 571.173 279.454 568.894 279.421 566.466C286.376 566.795 293.347 566.559 300.264 565.758C299.264 562.388 296.991 559.54 293.927 557.818C297.06 557.288 299.914 553.535 300.904 550.515C301.893 547.494 301.641 544.204 301.029 541.084C300.794 540.281 300.762 539.432 300.936 538.614C301.288 537.489 302.393 536.802 303.415 536.215L318.965 527.28C319.892 526.815 320.734 526.194 321.451 525.444C323.08 523.529 322.839 520.639 322.005 518.267C321.171 515.895 319.834 513.665 319.513 511.171C318.552 503.713 326.532 498.361 329.225 491.341C330.282 488.585 330.497 485.59 330.702 482.646C330.922 479.484 330.938 475.812 328.511 473.774C326.185 471.821 322.55 472.256 320.116 470.439C317.885 468.774 317.115 465.538 314.677 464.193C312.463 462.971 309.687 463.748 307.224 463.174C302.889 462.162 300.161 457.162 295.733 456.7C293.234 456.438 290.407 457.66 288.359 456.205C286.555 454.922 286.483 452.344 286.139 450.156C285.537 446.756 283.909 443.623 281.472 441.177C279.036 438.732 275.909 437.092 272.513 436.479C269.937 436.066 267.133 436.223 264.942 434.807C262.723 433.372 261.706 430.688 259.963 428.702C257.154 425.501 252.729 424.364 248.585 423.389L231.727 419.424C228.734 418.72 224.877 418.347 223.271 420.969C222.795 421.968 222.459 423.027 222.27 424.117C221.669 426.088 220.458 427.818 218.811 429.058C217.165 430.298 215.169 430.983 213.108 431.016C211.696 428.605 209.407 426.833 206.719 426.07C205.01 425.594 203.18 425.541 201.55 424.839C200.662 424.406 199.872 423.795 199.228 423.046C198.584 422.296 198.099 421.423 197.804 420.479C197.51 419.536 197.41 418.542 197.512 417.559C197.615 416.576 197.916 415.624 198.399 414.761C199.371 413.03 199.746 411.027 199.467 409.061C199.188 407.095 198.27 405.275 196.854 403.883C193.987 401.308 189.84 400.686 185.996 400.944C184.989 398.746 186.673 396.266 188.487 394.669C190.301 393.071 192.504 391.501 192.899 389.116C193.52 385.364 188.735 382.514 185.102 383.633C181.469 384.752 179.15 388.282 177.618 391.762C176.738 393.759 175.99 395.862 174.603 397.546C173.216 399.229 170.982 400.435 168.869 399.895C165.877 399.13 164.722 395.574 164.06 392.556C163.172 388.508 162.278 384.404 162.464 380.263C162.65 376.123 164.046 371.871 167.097 369.068C172.07 364.501 179.699 364.948 186.41 365.677C184.824 363.89 185.216 360.877 186.913 359.195C187.808 358.399 188.884 357.833 190.048 357.547C191.211 357.262 192.427 357.264 193.589 357.554C195.611 357.975 197.433 359.065 198.761 360.648C200.668 362.974 201.211 366.115 202.652 368.756C204.094 371.397 207.335 373.649 209.988 372.232C212.28 371.008 212.644 367.829 212.073 365.294C211.503 362.759 210.292 360.293 210.498 357.703C210.892 352.759 216.014 349.784 220.533 347.748C225.053 345.713 230.228 342.975 230.944 338.068C230.968 337.107 231.149 336.157 231.48 335.255C231.981 334.458 232.678 333.802 233.504 333.351C246.694 324.63 260.103 315.802 275.179 311.037C275.963 310.789 276.055 311.064 276.854 310.87C277.973 310.223 277.232 308.434 276.159 307.713C275.087 306.992 273.653 306.439 273.381 305.175C273.181 304.246 273.728 303.334 273.87 302.395C274.219 300.086 271.459 297.954 269.315 298.877C268.104 297.272 270.5 295.408 272.438 294.874C278.256 293.272 284.228 292.296 290.253 291.963C290.949 291.852 291.661 291.973 292.281 292.308C293.293 293.009 293.163 294.617 292.446 295.619C291.729 296.62 290.613 297.248 289.719 298.095C288.743 299.047 288.047 300.249 287.706 301.569C287.366 302.89 287.394 304.279 287.789 305.584C290.934 307.185 294.354 308.833 297.838 308.269C301.322 307.705 304.414 303.789 302.776 300.661C301.251 297.749 296.671 297.092 295.883 293.9C294.961 290.162 300.249 286.838 299.058 283.178C298.536 281.574 296.939 280.631 295.713 279.473C294.266 278.054 293.281 276.23 292.889 274.24C292.497 272.251 292.715 270.19 293.515 268.327C291.518 268.678 289.467 268.545 287.533 267.94C285.598 267.334 283.837 266.273 282.397 264.846C279.738 262.161 277.617 257.925 273.841 258.046C270.376 258.156 267.391 262.2 264.151 260.966C263.354 260.663 262.513 260.045 261.741 260.407C261.488 260.571 261.275 260.791 261.12 261.05C260.964 261.309 260.869 261.599 260.842 261.9C260.019 265.839 261.435 270.326 259.29 273.729C256.955 277.433 251.554 277.947 248.724 281.286C247.188 283.099 246.592 285.542 245.18 287.453C243.768 289.365 240.77 290.58 239.075 288.914C239.908 287.201 240.136 285.256 239.721 283.396C239.305 281.537 238.272 279.874 236.789 278.678C235.216 277.651 233.52 276.825 231.741 276.221C229.753 275.379 227.862 274.324 226.1 273.076C225.218 272.543 224.501 271.776 224.03 270.859C223.657 269.711 223.707 268.468 224.171 267.354C225.031 264.888 226.547 262.705 228.556 261.039C230.565 259.373 232.991 258.287 235.572 257.9C237.828 257.593 240.455 257.701 241.948 255.981C242.738 255.07 243.153 253.694 244.3 253.325C245.034 253.177 245.795 253.271 246.471 253.592L254.894 256.558C255.834 256.983 256.868 257.154 257.895 257.055C258.404 256.986 258.868 256.728 259.194 256.331C259.52 255.934 259.684 255.429 259.654 254.916C259.385 253.516 257.232 252.845 257.428 251.433C257.538 250.976 257.784 250.562 258.133 250.248C261.173 247.011 264.89 244.486 269.019 242.855C273.148 241.224 277.587 240.526 282.017 240.811C283.08 242.558 281.399 244.627 280 246.118C278.601 247.609 277.476 250.274 279.168 251.422C279.862 251.776 280.633 251.95 281.411 251.927C283.485 252.208 285.5 252.82 287.38 253.739C290.291 255.006 293.145 256.393 295.944 257.898C295.697 256.052 295.461 254.107 296.161 252.381C296.86 250.654 298.848 249.3 300.585 249.972C302.258 250.62 303.116 252.837 304.899 253.04C307.277 253.311 308.216 249.796 307.222 247.617C306.229 245.439 304.262 243.614 304.098 241.225C303.987 239.613 304.6 237.614 303.313 236.638C302.856 236.345 302.336 236.163 301.795 236.106L269.663 230.19C267.755 229.839 264.999 230.108 264.914 232.047C264.867 233.129 265.833 234.2 265.405 235.195C264.948 236.258 263.447 236.161 262.354 236.536C260.658 237.119 259.807 239.134 259.97 240.921C260.268 242.697 260.956 244.384 261.983 245.862C259.893 244.988 256.728 244.827 254.638 243.953Z" fill="#6291DE"/>
<path opacity="0.9" d="M229 216.664C226.974 215.993 224.79 215.962 222.746 216.575C220.701 217.187 218.895 218.414 217.57 220.089C217.041 220.786 216.597 221.747 217.04 222.501C217.675 223.583 219.293 223.156 220.486 222.769C222.239 222.142 224.148 222.097 225.929 222.639C227.049 223.024 228.051 223.704 229.176 224.074C229.724 224.303 230.324 224.379 230.911 224.293C231.498 224.207 232.051 223.963 232.511 223.587C233.283 222.799 233.331 221.574 233.332 220.47C233.386 220.101 233.356 219.725 233.246 219.368C233.136 219.012 232.947 218.685 232.694 218.411C232.244 218.15 231.738 218 231.218 217.974C230.054 217.758 229.002 217.143 228.242 216.234" fill="#6291DE"/>
<path opacity="0.9" d="M240.586 213.436C240.132 213.411 239.68 213.504 239.273 213.704C238.865 213.905 238.516 214.207 238.259 214.582C238.002 214.956 237.846 215.391 237.806 215.843C237.765 216.296 237.841 216.751 238.027 217.166C239.42 217.546 240.875 217.641 242.305 217.445C243.018 217.334 243.683 217.014 244.215 216.526C244.747 216.038 245.123 215.404 245.295 214.702C243.611 215.009 241.874 214.677 240.421 213.771" fill="#6291DE"/>
<path opacity="0.9" d="M279.459 208.046C275.668 208.852 271.987 210.104 268.49 211.774C270.138 212.408 271.54 213.555 272.487 215.046C273.435 216.537 273.879 218.293 273.753 220.056C273.605 220.732 273.623 221.435 273.803 222.103C274.206 223.08 275.373 223.447 276.4 223.698C278.244 224.259 280.169 224.505 282.095 224.425C283.058 224.374 283.993 224.085 284.816 223.581C285.639 223.078 286.324 222.377 286.808 221.543C287.088 220.751 287.415 219.977 287.789 219.225C290.249 215.476 297.557 220.008 300.198 216.386C301.128 215.109 301.043 213.189 302.256 212.177C302.883 211.737 303.61 211.459 304.372 211.369C309.683 210.314 315.048 209.549 320.443 209.079C322.999 208.857 326.331 207.939 326.352 205.372C316.724 203.48 306.741 204.823 297.955 209.194C294.789 210.78 290.603 214.117 287.553 212.014C286.412 211.226 286.468 209.106 284.897 208.221C283.29 207.315 281.164 207.683 279.459 208.046Z" fill="#6291DE"/>
<path opacity="0.9" d="M310.945 213.938L315.464 214.807C314.632 214.77 313.802 214.911 313.029 215.221C312.256 215.53 311.558 216.001 310.981 216.602C310.404 217.203 309.962 217.92 309.684 218.706C309.406 219.491 309.299 220.327 309.37 221.157C313.602 222.572 318.216 221.195 322.675 221.383C327.133 221.571 332.32 224.757 331.559 229.157C331.329 230.487 330.561 231.816 330.96 233.105C331.24 234.009 332.037 234.65 332.487 235.483C333.424 237.217 332.675 239.411 331.492 240.988C330.308 242.564 328.718 243.822 327.68 245.498C325.097 249.665 326.564 255.053 328.103 259.709C328.548 261.468 329.369 263.109 330.511 264.52C332.79 266.945 336.505 267.155 339.832 267.204C342.254 267.239 345.028 267.12 346.559 265.243C348.558 262.792 347.16 258.968 348.477 256.092C349.672 253.48 352.718 252.359 355.477 251.565C360.532 250.109 365.684 248.871 370.464 246.671C376.398 243.94 381.945 239.684 388.467 239.333C390.297 239.234 392.173 239.45 393.935 238.948C395.698 238.447 397.373 236.922 397.239 235.093C397.125 233.531 395.804 232.384 394.771 231.206C393.739 230.028 392.928 228.217 393.877 226.97L410.974 223.775C409.762 220.471 408.818 216.119 411.603 213.968C412.608 213.192 413.953 212.882 414.809 211.943C416.267 210.344 415.534 207.59 413.851 206.23C412.167 204.87 409.892 204.554 407.735 204.375C400.239 203.752 392.699 204.164 385.188 204.576C370.505 205.381 355.822 206.186 341.139 206.991C338.183 207.154 334.77 206.906 332.059 207.915C329.764 208.769 328.132 210.337 325.508 210.888C320.662 211.905 315.33 211.216 310.945 213.938Z" fill="#6291DE"/>
<path opacity="0.9" d="M391.911 249.681C391.45 249.608 390.979 249.715 390.595 249.979C390.341 250.259 390.19 250.617 390.167 250.994C389.875 252.659 390.223 254.372 391.14 255.791C391.607 256.488 392.252 257.046 393.008 257.409C393.764 257.771 394.603 257.925 395.438 257.853C397.473 257.593 398.973 255.856 400.844 255.009C403.727 253.704 415.973 251.669 407.502 247.09C404.583 245.512 402.697 246.905 400.396 247.944C397.778 249.284 394.844 249.885 391.911 249.681Z" fill="#6291DE"/>
<path opacity="0.9" d="M466.107 211.353C465.118 211.758 464.291 212.478 463.754 213.403C463.507 213.872 463.449 214.419 463.594 214.929C463.738 215.44 464.073 215.875 464.529 216.146C464.899 216.28 465.29 216.342 465.683 216.329L469.705 216.449C471.414 216.5 473.548 216.864 474.007 218.512C474.348 219.735 473.585 221.307 474.505 222.181C474.901 222.487 475.376 222.672 475.874 222.715C477.199 223.055 478.582 223.1 479.926 222.846C482.853 222.06 481.315 220.273 482.237 218.682C483.647 216.248 483.403 217.721 485.887 216.326C487.723 215.296 490.094 213.426 488.562 210.8C485.899 206.233 470.038 209.391 466.107 211.353Z" fill="#6291DE"/>
<path opacity="0.9" d="M545.491 209.055L543.156 209.367C537.889 210.07 532.593 210.78 527.521 212.362C529.716 213.231 532.02 213.796 534.368 214.043C535.66 214.107 536.944 214.289 538.203 214.589C540.444 215.256 542.701 216.979 544.866 216.096C546.208 215.549 546.646 214.151 547.757 213.41C548.525 212.898 551.436 212.07 551.762 211.554C554.393 207.379 547.514 208.785 545.491 209.055Z" fill="#6291DE"/>
<path opacity="0.9" d="M555.746 219.676C552.626 221.422 549.732 223.542 547.127 225.991C546.03 227.023 544.909 228.307 545.009 229.81C545.141 231.808 547.268 232.967 549.112 233.748L556.578 236.911C557.483 235.634 556.654 233.87 555.718 232.615C554.782 231.36 553.67 229.908 554.083 228.398C554.555 226.674 556.656 226.087 558.417 225.79C561.287 225.306 569.029 225.345 568.098 220.718C567.002 215.265 558.627 218.065 555.746 219.676Z" fill="#6291DE"/>
<path opacity="0.9" d="M554.244 528.231C553.534 530.289 553.466 532.715 554.696 534.512C556.075 536.529 558.836 537.281 561.225 536.769C563.604 536.136 565.724 534.772 567.287 532.87C568.716 531.276 569.892 529.472 570.774 527.52C572.004 524.479 572.871 521.303 573.358 518.059L575.676 505.882C576.194 503.161 576.174 494.817 571.175 497.536C569.809 498.278 566.647 504.142 565.215 505.804C562.636 508.801 562.295 511.709 560.937 515.339C559.236 519.886 555.817 523.676 554.244 528.231Z" fill="#6291DE"/>
<path d="M818.296 590.542C816.66 589.904 815.072 589.148 813.545 588.28C812.014 592.491 811.2 596.93 811.137 601.411L822.331 595.074C824.015 594.121 825.923 592.796 825.887 590.861C825.902 590.622 825.853 590.383 825.744 590.17C825.635 589.956 825.471 589.776 825.268 589.649C825.02 589.549 824.749 589.517 824.484 589.556C822.824 589.695 821.31 590.512 819.744 591.08C818.179 591.648 816.348 591.949 814.911 591.105" fill="#3F3D56"/>
<path opacity="0.9" d="M877.345 594.306C876.117 594.641 874.917 595.072 873.756 595.595C871.187 596.903 869.439 599.386 867.128 601.109C864.916 602.757 862.253 603.662 859.639 604.542C858.87 605.222 859.223 606.591 860.058 607.189C860.955 607.7 861.984 607.931 863.014 607.854C865.73 607.914 868.591 607.94 870.97 606.627C872.31 605.757 873.565 604.761 874.716 603.653C877.497 601.331 880.837 599.799 884.143 598.319C885.347 597.864 886.459 597.199 887.429 596.353C889.507 594.305 889.653 591.146 886.657 590.449C884.237 589.886 879.65 593.56 877.345 594.306Z" fill="#6291DE"/>
<path opacity="0.9" d="M903.437 577.254C903.571 575.845 903.384 574.424 902.889 573.098C902.394 571.771 901.605 570.575 900.58 569.599C900.549 572.418 900.464 575.422 898.879 577.753C897.75 579.415 895.979 580.537 894.742 582.119C893.505 583.701 892.955 586.209 894.407 587.598C895.334 588.304 896.464 588.693 897.63 588.708C900.518 589.049 903.862 589.238 905.888 587.15C906.994 586.01 907.532 584.322 908.881 583.485C909.383 583.274 909.832 582.952 910.193 582.545C910.75 581.659 909.865 580.492 908.869 580.172C907.873 579.853 906.776 580.003 905.775 579.7C904.774 579.397 903.855 578.271 904.369 577.359" fill="#6291DE"/>
<path d="M857.065 473.884C855.55 474.253 853.98 474.346 852.432 474.158C849.86 473.685 847.858 471.746 845.782 470.155C840.847 466.395 834.847 464.298 828.645 464.165C823.003 464.058 817.308 465.588 811.767 464.52C812.129 466.535 813.852 468.046 815.691 468.944C817.529 469.842 819.558 470.294 821.405 471.174C824.364 472.597 826.71 475.039 828.015 478.053C828.609 479.443 828.984 480.955 829.885 482.168C831.727 484.648 835.219 485.192 838.3 484.989C842.318 484.725 846.514 483.569 850.251 485.066C853.11 486.212 855.157 488.716 857.544 490.663C859.932 492.61 863.294 494.055 866.036 492.65C863.188 491.727 860.71 489.919 858.962 487.488C857.215 485.056 856.29 482.13 856.323 479.136C859.011 479.383 866.756 479.287 866.338 474.717C865.985 470.843 859.374 473.466 857.065 473.884Z" fill="#3F3D56"/>
<path opacity="0.9" d="M821.892 505.401C822.37 502.782 824.981 500.468 824.168 497.933C823.605 496.18 821.573 495.314 819.733 495.271C817.893 495.227 816.085 495.776 814.245 495.827C813.048 495.764 811.847 495.781 810.652 495.879C807 496.479 804.749 500.309 801.307 501.671C799.214 502.499 796.863 502.341 794.686 502.913C789.745 504.213 786.619 508.884 783.165 512.65C777.585 518.708 770.314 522.95 762.296 524.826C759.487 525.477 756.467 525.893 754.234 527.719C751.277 530.136 750.549 534.28 749.891 538.044C748.074 548.437 745.296 558.639 741.594 568.519L753.326 570.018C755.556 570.303 757.868 570.581 760.017 569.92C761.579 569.331 763.058 568.543 764.418 567.575C769.643 564.329 775.491 562.217 781.583 561.376C784.656 560.954 787.877 560.876 790.76 562.019C793.643 563.162 796.116 565.753 796.358 568.846C797.605 568.458 798.934 568.416 800.202 568.724C801.471 569.033 802.632 569.681 803.562 570.599C805.399 572.471 806.602 574.874 807.001 577.468C807.31 579.073 807.619 580.997 809.108 581.671C810.323 582.221 811.717 581.629 813.047 581.522C817.557 581.161 821.3 586.423 825.733 585.517C830.488 584.545 831.656 577.421 836.294 575.994C838.958 575.174 842.695 576.171 843.971 573.692C845.095 571.506 842.852 568.984 843.083 566.537C843.368 563.524 846.921 562.245 849.659 560.96C859.1 556.528 863.581 543.814 859.006 534.438C856.295 528.882 850.961 524.509 849.976 518.406C849.218 513.71 851.068 508.235 848.076 504.539C846.554 502.658 843.977 501.621 843.071 499.377C842.501 497.965 842.73 496.363 842.423 494.871C842.116 493.379 840.815 491.819 839.343 492.205C835.069 493.328 833.705 506.538 831.417 509.747C827.938 514.626 820.797 511.412 821.892 505.401Z" fill="#6291DE"/>
<path opacity="0.9" d="M742.89 478.876C741.43 478.467 739.835 478.063 738.435 478.649C737.036 479.234 736.219 481.29 737.342 482.31C746.129 481.968 754.97 481.627 763.683 482.821C773.721 484.197 783.655 487.604 793.738 486.602C787.978 484.902 782.124 483.543 776.205 482.532L766.335 480.645C763.687 480.09 761.011 479.677 758.32 479.406C752.689 478.941 748.427 480.43 742.89 478.876Z" fill="#6EA2F5"/>
<path opacity="0.9" d="M751.688 448.256C750.958 448.195 750.055 448.143 749.677 448.77C749.317 449.37 749.729 450.162 749.536 450.834C749.271 451.753 748.068 451.988 747.121 451.863C746.174 451.738 745.149 451.438 744.31 451.895C743.885 452.186 743.565 452.607 743.399 453.095C743.232 453.583 743.229 454.112 743.389 454.603C743.732 455.576 744.287 456.461 745.014 457.194C746.255 458.759 747.669 460.178 749.229 461.424C752.249 463.655 756.341 464.73 758.243 467.967C758.511 468.595 758.924 469.15 759.447 469.589C760.36 470.167 761.551 469.727 762.534 469.278L765.98 467.702C766.601 467.478 767.155 467.101 767.592 466.606C768.379 465.537 767.895 464.017 767.234 462.866C766.574 461.714 765.728 460.523 765.869 459.202C766.122 456.849 769.147 455.948 770.391 453.934C771.645 451.904 770.829 449.289 770.973 446.907C771.142 444.121 772.892 440.497 770.077 438.416C767.685 436.647 765.398 438.282 763.681 440.234C760.059 444.353 758.346 448.813 751.688 448.256Z" fill="#6EA2F5"/>
<path d="M772.607 406.634C773.783 408.888 776.236 410.233 777.519 412.428C778.91 414.807 778.752 417.881 780.26 420.187C781.808 422.553 784.923 423.809 785.791 426.5C786.739 429.438 784.589 433.009 786.303 435.577C786.623 435.996 787.026 436.345 787.487 436.6C787.949 436.856 788.458 437.013 788.983 437.061C789.508 437.109 790.038 437.048 790.538 436.881C791.038 436.714 791.498 436.444 791.889 436.09C792.612 435.303 792.998 434.264 792.967 433.196C792.935 432.127 792.488 431.114 791.72 430.37C790.705 429.445 789.248 429.045 788.4 427.963C787.959 427.339 787.665 426.623 787.541 425.869C787.079 423.693 787.153 421.438 787.756 419.298C787.983 418.754 788.04 418.155 787.921 417.579C787.54 416.469 786.038 416.391 784.985 415.876C782.591 414.707 782.649 411.328 783.068 408.696C782.789 410.448 776.551 407.468 775.898 406.476C774.601 404.504 775.307 400.702 775.05 398.523C772.249 399.873 771.168 403.878 772.607 406.634Z" fill="#3F3D56"/>
<path opacity="0.9" d="M709.767 441.313C708.615 440.024 706.881 438.675 705.338 439.453C704.16 440.046 703.836 441.676 704.298 442.912C704.86 444.112 705.726 445.145 706.809 445.907C710.026 448.562 713.49 450.957 716.296 454.042C721.318 459.564 723.978 467.014 729.439 472.1C730.537 473.28 731.991 474.067 733.578 474.341C735.169 474.489 736.956 473.47 737.139 471.882C737.289 470.574 736.378 469.403 735.487 468.433C733.365 466.124 731.043 463.999 729.04 461.587C728.115 460.66 727.533 459.445 727.392 458.143C727.382 456.845 728.566 455.485 729.824 455.807C728.294 455.415 727.159 452.865 724.914 452.386C723.037 451.986 722.583 453.148 720.35 452.19C716.091 450.362 712.749 444.654 709.767 441.313Z" fill="#6EA2F5"/>
<path d="M809.846 315.757C808.624 315.394 807.423 314.964 806.247 314.471C803.085 313.521 798.901 315.847 799.322 319.123C799.602 321.3 801.627 322.768 802.746 324.656C804.404 327.456 803.962 331.008 803.091 334.144C802.877 335.115 802.47 336.033 801.894 336.843C801.089 337.699 800.127 338.392 799.06 338.883C794.79 341.279 791.023 344.48 787.97 348.309C787.638 348.663 787.407 349.099 787.3 349.573C787.149 350.679 788.261 351.485 788.889 352.407C790.285 354.457 789.276 357.215 789.414 359.691C789.393 360.041 789.461 360.391 789.613 360.707C789.765 361.023 789.995 361.295 790.281 361.497C791.122 361.925 792.119 361.199 792.575 360.372C794.089 357.629 792.949 353.227 795.787 351.904C796.324 351.654 796.975 351.549 797.334 351.077C797.902 350.328 797.354 349.219 797.642 348.324C798.074 346.981 799.911 346.921 801.32 346.98C803.749 347.082 806.176 346.758 808.493 346.025C809.402 345.809 810.227 345.33 810.867 344.649C811.716 343.59 811.64 342.083 811.471 340.736C810.622 334.02 808.495 327.529 805.207 321.612C807.7 321.931 810.413 322.207 812.565 320.907C813.77 320.179 815.215 318.002 814.617 316.52C813.672 314.176 811.965 316.149 809.846 315.757Z" fill="#3F3D56"/>
<path opacity="0.9" d="M490.164 352.695C490.462 354.296 490.756 355.983 490.231 357.525C489.706 359.067 488.056 360.355 486.498 359.883C485.289 359.516 484.591 358.299 483.732 357.372C478.957 352.215 468.184 355.201 465.234 348.82C464.03 346.216 464.848 343.096 464.027 340.347C463.509 338.758 462.478 337.386 461.097 336.447C459.715 335.508 458.061 335.055 456.394 335.159C454.873 335.378 453.393 335.82 452.001 336.47C442.674 340.207 432.883 342.658 422.897 343.753C420.999 343.869 419.121 344.211 417.304 344.771C413.204 346.259 410.402 350.062 408.408 353.944C406.414 357.825 404.942 362.027 402.269 365.475C399.459 369.099 395.523 371.637 391.85 374.381C390.435 375.294 389.257 376.529 388.413 377.986C387.617 379.621 387.662 381.523 387.724 383.341L388.474 405.421C388.571 408.261 388.692 411.202 389.962 413.744C391.549 416.917 394.683 418.996 396.857 421.799C399.076 424.681 400.232 428.24 400.129 431.876C400.083 433.338 399.937 435.066 401.075 435.984C401.767 436.433 402.577 436.666 403.402 436.654L433.255 439.098C438.506 439.528 444.326 440.235 447.754 444.238C449.372 446.127 450.672 448.844 453.15 449.047C454.214 449.134 455.248 448.697 456.311 448.613C458.994 448.4 461.351 450.437 462.838 452.681C465.089 456.101 466.111 460.185 465.735 464.263C465.492 466.822 464.698 469.311 464.527 471.876C463.877 481.638 472.148 490.119 472.308 499.901C472.402 505.654 469.672 511.03 467.011 516.132C471.306 522.643 467.789 531.313 469.499 538.925C471.122 546.146 477.14 551.8 478.639 559.048C479.326 562.366 479.366 566.449 482.29 568.158C483.573 568.784 484.996 569.069 486.421 568.986C495.017 569.088 503.516 567.152 511.221 563.337C514.837 561.542 518.584 558.862 519.216 554.872C519.725 551.655 518.095 548.057 519.754 545.255C521.71 541.952 526.72 542.214 529.598 539.674C534.267 535.555 530.626 527.699 532.518 521.765C534.218 516.432 540.071 513.599 542.972 508.812C544.114 506.753 544.933 504.532 545.401 502.224C546.73 496.71 547.558 491.087 547.873 485.423C547.95 481.982 548.204 478.547 548.633 475.132C551.761 455.689 570.973 442.67 577.21 423.992C577.806 422.208 578.086 419.832 576.499 418.823C575.559 418.374 574.492 418.262 573.479 418.507L559.717 420.243C558.008 420.458 556.196 420.66 554.627 419.949C553.057 419.239 551.932 417.252 552.765 415.743C555.102 411.508 550.294 406.155 548.158 401.814C542.406 390.125 535.555 379.011 527.7 368.619C527.197 368.085 526.882 367.401 526.803 366.671L530.709 366.801C529.39 362.068 527.214 356.889 522.618 355.157C520.028 354.181 517.16 354.519 514.397 354.67C506.482 355.103 497.997 353.907 490.164 352.695Z" fill="#6291DE"/>
<path opacity="0.9" d="M514.403 246.032C516.475 248.232 518.795 250.565 521.792 250.949C527.085 251.626 530.89 246.15 533.313 241.394C533.403 242.606 533.962 243.736 534.871 244.543C535.781 245.349 536.969 245.769 538.183 245.713C539.489 245.493 540.736 245.005 541.845 244.28C552.332 238.547 564.078 235.509 576.028 235.44C575.913 234.534 576.138 233.618 576.659 232.868C577.179 232.118 577.959 231.588 578.847 231.379C581.277 230.897 583.466 232.999 584.638 235.182C585.81 237.365 586.541 239.896 588.403 241.53C590.265 243.164 593.87 243.093 594.606 240.727C595.312 238.455 592.946 236.517 590.981 235.178C589.016 233.838 586.944 231.359 588.268 229.383C598.308 227.159 608.412 224.927 618.686 224.485C620.435 224.546 622.178 224.245 623.806 223.602C625.373 222.833 626.619 221.087 626.197 219.392C623.955 219.92 621.607 219.767 619.452 218.954C617.297 218.14 615.433 216.703 614.097 214.826C628.353 213.649 643.517 212.646 656.151 219.357C657.667 222.614 649.94 225.323 652.007 228.26C652.667 229.197 653.988 229.307 655.133 229.328C663.913 229.491 672.743 229.651 681.424 228.325C684.597 227.84 687.801 227.156 690.986 227.549C696.291 228.203 700.828 231.745 706.047 232.899C708.171 233.369 710.553 233.385 712.344 232.149C714.134 230.913 714.904 228.098 713.437 226.491C718.35 221.673 726.506 222.867 732.989 225.174C739.471 227.481 745.613 231.201 752.474 231.715C757.394 232.084 762.383 230.76 767.245 231.601C770.3 232.13 773.143 233.49 776.129 234.326C781.776 235.906 787.751 235.572 793.614 235.648C808.575 235.85 823.372 238.792 837.274 244.328C839.082 244.917 840.739 245.896 842.127 247.197C843.421 248.583 844.08 250.736 843.211 252.421L828.846 250.321C830.2 252.987 833.701 253.441 836.545 254.361C839.388 255.28 842.336 258.422 840.628 260.875C837.547 259.893 834.755 262.975 833.198 265.811C831.642 268.646 829.746 272.042 826.517 272.215C823.626 272.37 820.129 269.907 818.244 272.106C820.848 275.392 823.077 278.958 824.891 282.738C826.753 286.619 828.079 291.509 825.563 295.001C825.167 295.624 824.567 296.09 823.865 296.318C821.809 296.839 820.474 294.323 819 292.799C817.143 290.877 814.334 290.333 811.819 289.432C809.304 288.531 806.654 286.759 806.457 284.093C806.335 282.435 807.21 280.893 807.855 279.36C808.938 276.776 809.412 273.978 809.24 271.181C809.099 268.931 808.468 266.591 806.853 265.019C805.238 263.447 802.45 262.948 800.716 264.388C799.907 265.06 799.259 266.135 798.208 266.175C796.352 266.246 794.927 263.008 793.434 264.113C793.609 265.291 793.365 266.493 792.744 267.509C788.288 271.386 781.441 269.746 775.696 271.116C772.964 271.898 770.349 273.041 767.918 274.514C767.009 274.903 766.236 275.553 765.695 276.381C764.978 277.775 765.769 279.561 767.033 280.488C768.373 281.311 769.88 281.825 771.443 281.994C778.447 283.321 785.554 285.376 791.083 289.877C796.613 294.378 800.239 301.818 798.489 308.732L784.677 295.528C785.202 301.072 785.499 306.632 785.57 312.206C785.66 313.295 785.51 314.39 785.132 315.414C784.148 317.59 781.479 318.323 779.14 318.803C778.49 318.927 777.873 319.187 777.33 319.566C776.787 319.945 776.33 320.435 775.99 321.003C775.65 321.571 775.433 322.205 775.355 322.863C775.277 323.521 775.339 324.187 775.537 324.82C776.368 327.529 778.44 329.642 780.337 331.747C782.234 333.852 784.101 336.244 784.349 339.068C784.597 341.891 782.468 345.074 779.642 344.877C777.5 344.728 775.91 342.81 774.996 340.865C774.083 338.921 773.539 336.755 772.166 335.103C768.01 330.102 758.676 332.245 754.953 326.914C754.004 327.991 753.346 329.292 753.041 330.695C752.736 332.098 752.795 333.556 753.212 334.93C754.944 333.845 757.315 334.853 758.616 336.429C759.917 338.005 760.531 340.026 761.553 341.797C762.932 344.185 765.127 346.303 765.319 349.055C765.268 350.096 765.286 351.139 765.372 352.177C765.713 353.844 767.122 355.042 768.099 356.435C770.371 359.678 770.259 364.133 768.794 367.813C767.329 371.493 764.698 374.567 762.091 377.548C757.539 382.755 752.893 387.931 747.496 392.255C745.956 393.488 744.312 394.702 743.353 396.427C742.393 398.151 742.344 400.573 743.818 401.885C742.764 401.938 740.872 402.457 739.817 402.509C739.447 398.276 739.366 394.023 739.576 389.779C735.414 387.78 730.933 393.134 731.47 397.722C732.007 402.31 735.324 405.992 737.685 409.961C739.412 412.864 740.695 416.249 740.119 419.577C739.542 422.905 736.573 425.976 733.209 425.682C727.859 425.215 725.621 417.531 720.323 416.652C719.856 416.542 719.366 416.59 718.929 416.79C718.142 417.222 718.006 418.275 717.962 419.171C717.745 423.571 717.557 428.146 719.274 432.202C721.785 438.137 728.273 443.121 726.912 449.42C719.581 446.01 715.769 437.784 714.038 429.883C712.307 421.982 712.019 413.687 708.916 406.217C706.561 409.238 701.609 406.74 699.457 403.571C697.416 400.567 696.16 397.091 694.18 394.046C692.2 391.001 689.167 388.274 685.54 388.107C681.737 387.931 678.439 390.542 675.539 393.009C673.154 395.038 670.706 397.146 669.312 399.95C667.283 404.03 667.814 408.841 667.716 413.397C667.61 418.323 666.567 423.52 663.211 427.126C659.856 430.732 653.662 431.988 649.961 428.738C648.028 427.042 647.093 424.507 646.26 422.073C642.243 410.344 638.897 398.395 636.239 386.284C635.618 389.048 633.192 392.611 630.874 390.983C630.354 390.545 629.933 390.002 629.638 389.389C625.315 382.059 617.309 377.662 609.221 375.025C601.132 372.389 592.621 371.159 584.622 368.262C580.14 366.638 575.858 364.504 571.862 361.903C570.843 363.4 570.249 365.145 570.141 366.953C570.033 368.762 570.416 370.565 571.249 372.173C573.023 375.317 577.038 377.135 580.475 376.037C582.252 375.469 583.752 374.235 585.514 373.626C587.276 373.017 589.642 373.316 590.412 375.015C591.15 376.641 590.035 378.608 590.588 380.305C591.431 382.891 595.329 383.09 596.692 385.444C597.706 387.194 596.871 389.519 595.423 390.932C593.975 392.345 592.043 393.119 590.276 394.103C584.54 397.294 580.462 402.741 575.45 406.978C570.437 411.216 563.365 414.31 557.392 411.592C558.816 404.378 550.227 399.082 548.647 391.901C548.127 389.537 548.397 387.027 547.654 384.723C546.579 381.388 543.622 379.095 541.196 376.568C538.253 373.47 535.961 369.813 534.454 365.813C532.947 361.814 532.256 357.553 532.422 353.282C532.553 350.314 533.098 347.298 532.422 344.405C531.746 341.513 529.352 338.713 526.386 338.844C519.611 339.143 511.075 339.647 507.521 333.869C506.252 331.807 505.7 328.786 507.534 327.206C508.828 326.092 510.738 326.197 512.437 326.364L527.703 327.866C531.273 328.218 535.133 328.508 538.197 326.64C541.26 324.773 542.588 319.816 539.751 317.619C537.678 316.013 533.964 316.1 533.362 313.548C532.86 311.422 535.212 309.01 533.941 307.234C533.031 305.96 530.983 306.313 529.742 307.268C528.502 308.223 527.601 309.62 526.213 310.343C523.777 311.611 520.866 310.404 518.246 309.583C515.625 308.763 512.112 308.693 510.841 311.129C509.419 313.852 512.102 317.421 510.691 320.15C508.825 323.758 502.508 321.704 499.889 324.808C496.883 328.369 501.934 333.68 500.921 338.23C499.626 338.871 498.188 339.165 496.746 339.084C495.304 339.003 493.908 338.55 492.693 337.767C491.499 336.954 490.547 335.833 489.939 334.522C489.331 333.211 489.089 331.76 489.24 330.323C489.491 328.276 490.557 326.187 489.843 324.253C489.265 322.689 487.696 321.758 486.237 320.952L471.402 312.75C470.025 315.306 471.766 318.475 473.944 320.395C476.122 322.315 478.849 323.761 480.28 326.288C481.185 328.039 481.388 330.069 480.847 331.964C480.306 333.859 479.063 335.477 477.371 336.486C477.159 336.632 476.917 336.731 476.663 336.775C476.41 336.819 476.149 336.808 475.9 336.742C475.664 336.603 475.457 336.418 475.293 336.197C475.13 335.977 475.012 335.726 474.947 335.459C472.329 328.758 468.399 322.15 462.117 318.65C455.834 315.149 446.806 315.869 442.686 321.766C441.708 323.167 441.051 324.763 440.198 326.244C435.669 334.112 425.96 337.837 416.888 337.594C416.001 337.643 415.118 337.436 414.345 336.996C412.879 335.983 412.945 333.834 413.17 332.065L414.122 324.56C414.313 323.053 414.59 321.387 415.782 320.446C417.463 319.12 419.887 319.957 422.027 319.926C423.649 319.85 425.208 319.278 426.493 318.285C427.778 317.293 428.727 315.93 429.211 314.38C429.643 312.814 429.641 311.161 429.203 309.597C428.765 308.033 427.91 306.618 426.728 305.505C425.747 304.583 424.43 303.425 424.948 302.183C425.155 301.839 425.435 301.545 425.767 301.321C426.1 301.097 426.477 300.948 426.874 300.886C430.718 299.769 434.78 299.476 438.56 298.158C442.34 296.84 446.006 294.144 446.901 290.24C447.176 289.044 447.301 287.595 448.375 287.002C448.914 286.774 449.492 286.656 450.077 286.654C452.127 286.362 453.993 285.313 455.308 283.714C456.623 282.115 457.293 280.081 457.184 278.012C458.996 276.746 461.534 277.678 463.287 279.025C465.039 280.372 466.587 282.151 468.719 282.732C472.693 283.814 476.534 280.294 480.653 280.278C482.385 280.271 484.178 280.883 485.807 280.296C487.459 279.7 488.446 278.055 489.714 276.84C490.982 275.624 493.206 274.883 494.377 276.192L493.38 268.804C495.388 269.312 497.481 269.383 499.518 269.015C501.556 268.646 503.491 267.846 505.194 266.667L492.31 262.312C491.861 262.2 491.447 261.978 491.105 261.667C490.168 260.658 491.099 259.085 491.861 257.938C493.683 255.194 493.989 250.673 490.992 249.307C488.947 248.375 486.599 249.494 484.636 250.589L475.232 255.835C474.933 257.624 477.119 258.637 478.474 259.842C479.293 260.571 479.873 261.53 480.137 262.595C480.402 263.66 480.338 264.78 479.955 265.807C479.571 266.835 478.886 267.723 477.989 268.354C477.092 268.985 476.026 269.33 474.929 269.343C475.548 270.149 475.979 271.083 476.188 272.078C476.397 273.072 476.381 274.101 476.139 275.088L469.811 275.543C469.101 275.686 468.364 275.542 467.759 275.143C467.083 274.541 467.174 273.487 467.018 272.596C466.639 270.443 464.532 268.935 462.382 268.548C460.232 268.161 458.033 268.657 455.904 269.146C455 269.472 454.007 269.449 453.119 269.082C452.61 268.751 452.223 268.262 452.017 267.691C451.084 265.427 451.956 262.765 453.456 260.829C454.955 258.893 457.007 257.477 458.85 255.865C463.257 251.996 466.495 246.971 468.199 241.358C471.682 239.898 475.288 237.914 478.771 236.454C484.141 233.733 490.163 232.566 496.16 233.083L507.956 233.308C511.448 233.375 515.035 233.46 518.264 234.792C521.493 236.125 524.331 239.006 524.554 242.493C524.621 242.888 524.587 243.294 524.455 243.672C524.322 244.05 524.096 244.388 523.798 244.654C523.341 244.903 522.825 245.02 522.306 244.991C519.049 245.105 517.66 245.917 514.403 246.032Z" fill="#6291DE"/>
<path opacity="0.9" d="M420.383 283.02C420.844 282.583 421.176 282.028 421.342 281.415C421.508 280.803 421.502 280.156 421.324 279.546C420.203 279.113 418.983 279.002 417.802 279.225C416.621 279.449 415.525 279.997 414.639 280.809C413.94 281.517 413.338 282.313 412.848 283.178C411.298 285.709 409.927 288.731 410.825 291.559C410.898 291.867 411.032 292.158 411.219 292.414C411.406 292.67 411.643 292.886 411.914 293.049C412.317 293.211 412.751 293.279 413.184 293.248C414.891 293.246 416.597 293.141 418.292 292.933C419.333 292.806 420.542 292.512 420.944 291.543C421.473 290.27 420.193 288.828 420.566 287.501C420.811 286.907 421.183 286.374 421.656 285.939C421.89 285.72 422.071 285.449 422.182 285.148C422.294 284.847 422.334 284.525 422.299 284.206C422.148 283.583 421.195 283.229 420.852 283.77" fill="#6291DE"/>
<path opacity="0.9" d="M429.238 271.534C427.721 271.185 426.157 271.087 424.609 271.243C424.266 271.233 423.927 271.31 423.622 271.467C423.327 271.685 423.113 271.995 423.014 272.348C422.687 273.398 422.768 274.533 423.24 275.527C423.711 276.52 424.54 277.3 425.56 277.709C426.117 277.837 426.649 278.052 427.139 278.344C428.449 279.361 427.614 281.438 427.862 283.077C428.14 284.918 429.921 286.463 429.594 288.296C429.337 289.74 427.796 290.883 428.044 292.329C428.304 293.843 430.224 294.298 431.755 294.419C432.642 294.574 433.555 294.47 434.384 294.117C435.215 293.549 435.806 292.693 436.043 291.714C436.669 289.848 436.933 287.879 436.818 285.914C436.812 285.02 436.587 284.141 436.165 283.353C435.704 282.729 435.193 282.144 434.637 281.603C431.704 278.19 434.792 273.1 429.238 271.534Z" fill="#6291DE"/>
<path opacity="0.8" d="M814.864 538.885C814.864 538.885 590.259 409.894 493.563 434.334C493.563 434.334 288.636 456.398 264.887 504.94C264.887 504.94 199.744 301.269 175.995 294.48" stroke="#092E69" stroke-width="2" stroke-miterlimit="10"/>
<path opacity="0.8" d="M264.887 504.942C302.547 404.464 641.83 293.125 641.83 293.125C593.651 305.345 493.563 434.336 493.563 434.336C493.563 434.336 281.851 280.225 175.995 294.482C175.995 294.482 642.169 309.758 814.864 538.887" stroke="#092E69" stroke-width="2" stroke-miterlimit="10"/>
<path d="M175.995 304.325C181.429 304.325 185.834 299.918 185.834 294.481C185.834 289.044 181.429 284.637 175.995 284.637C170.561 284.637 166.156 289.044 166.156 294.481C166.156 299.918 170.561 304.325 175.995 304.325Z" fill="#092E69"/>
<path d="M264.887 514.785C270.321 514.785 274.726 510.378 274.726 504.941C274.726 499.505 270.321 495.097 264.887 495.097C259.453 495.097 255.048 499.505 255.048 504.941C255.048 510.378 259.453 514.785 264.887 514.785Z" fill="#092E69"/>
<path d="M641.83 302.967C647.264 302.967 651.669 298.56 651.669 293.123C651.669 287.687 647.264 283.279 641.83 283.279C636.396 283.279 631.991 287.687 631.991 293.123C631.991 298.56 636.396 302.967 641.83 302.967Z" fill="#092E69"/>
<path d="M814.864 548.731C820.298 548.731 824.703 544.323 824.703 538.887C824.703 533.45 820.298 529.042 814.864 529.042C809.43 529.042 805.024 533.45 805.024 538.887C805.024 544.323 809.43 548.731 814.864 548.731Z" fill="#6C63FF"/>
<path d="M493.563 444.179C498.997 444.179 503.403 439.772 503.403 434.335C503.403 428.899 498.997 424.491 493.563 424.491C488.129 424.491 483.724 428.899 483.724 434.335C483.724 439.772 488.129 444.179 493.563 444.179Z" fill="#092E69"/>
<path d="M892.825 859.85C997.256 859.85 1081.91 842.357 1081.91 820.78C1081.91 799.202 997.256 781.709 892.825 781.709C788.395 781.709 703.737 799.202 703.737 820.78C703.737 842.357 788.395 859.85 892.825 859.85Z" fill="#E8EDF7"/>
<path d="M1099.44 502.255C1097.42 484.55 1089.45 467.656 1089.45 467.656L1090.06 461.686C1090.06 461.686 1090.19 458.701 1089.99 454.223C1090.01 451.427 1090.38 448.645 1091.08 445.939C1092.71 440.762 1089.04 434.4 1088.63 433.812C1088.22 433.224 1088.84 421.872 1085.16 416.303C1081.49 410.734 1057.02 400.379 1057.02 400.379C1057.02 400.379 1055.71 397.627 1053.85 394.409L1054.02 394.082C1052.5 391.327 1050.62 388.789 1048.43 386.535C1046.93 384.931 1045.48 384.017 1044.32 384.465C1043.84 382.916 1043.48 381.336 1043.23 379.735C1043.48 379.8 1043.73 379.866 1043.97 379.912C1044.98 380.147 1046.03 380.172 1047.05 379.987C1049.32 379.474 1050.83 377.431 1052.1 375.509C1058.42 365.901 1063.87 355.36 1064.98 343.988C1065.27 341.667 1065.16 339.312 1064.65 337.029C1064.13 335.254 1063.39 333.548 1062.47 331.945C1060.83 328.657 1058.76 325.604 1056.31 322.869C1051.96 318.279 1045.96 315.471 1039.78 313.811C1032.83 311.94 1025.59 311.399 1018.43 312.215C1016.57 312.43 1014.7 312.738 1012.84 312.859C1010.47 312.963 1008.1 312.923 1005.74 312.738L993.539 312.029L993.483 311.842L991.451 311.721C990.649 313.316 991.45 315.21 992.448 316.702C993.446 318.195 994.593 319.753 994.509 321.516C994.425 323.279 993.147 324.697 992.15 326.18C991.152 327.663 990.397 329.604 991.395 331.059C991.535 331.26 991.701 331.442 991.889 331.6C992.942 332.691 994.779 332.813 996.373 332.794H996.653C992.638 338.085 990.467 344.547 990.472 351.19C990.499 356.867 992.087 362.427 995.062 367.261C998.036 372.095 1002.28 376.017 1007.34 378.597C1007.52 379.203 1007.69 379.828 1007.86 380.463C1009.71 387.015 1010.37 393.845 1009.82 400.631L1009.6 401.097L1009.47 400.603C1009.47 400.603 995.096 410.36 990.826 412.944C986.556 415.528 982.267 424.288 982.062 426.676C981.857 429.064 975.125 465.081 975.125 465.081C973.757 468.709 972.629 472.424 971.75 476.201L963.163 483.747C963.163 483.747 945.448 485.343 940.32 484.149L940.469 485.137C935.947 484.105 931.341 483.48 926.707 483.272C924.176 482.946 921.605 483.29 919.248 484.27L919.071 484.354L918.931 484.419C916.232 484.788 913.596 485.529 911.099 486.621C910.801 486.742 910.531 486.863 910.27 486.984L910.326 485.762L891.156 484.774L881.366 482.787C881.366 482.787 877.898 479.988 875.856 480.399C873.814 480.809 869.535 478.01 869.535 478.01C868.558 477.245 867.502 476.588 866.383 476.051C866.057 473.794 865.852 472.423 865.852 472.423C865.852 472.423 858.235 442.18 852.528 424.4C848.706 412.525 843.205 406.676 839.96 404.129C838.515 401.61 837.564 399.987 837.564 399.987C836.939 397.804 833.508 392.888 832.632 392.767C832.492 392.543 832.389 392.431 832.333 392.431C832.146 392.411 831.956 392.44 831.783 392.515C830.18 384.53 829.247 374.52 831.699 365.798C835.056 363.038 837.761 359.57 839.622 355.641C841.482 351.713 842.451 347.421 842.459 343.074C842.459 342.943 842.459 342.813 842.459 342.682C842.459 342.552 842.459 342.412 842.459 342.281C842.457 335.349 840.003 328.64 835.531 323.344L835.214 322.99C835.299 322.93 835.38 322.864 835.457 322.794C836.157 322.225 836.691 321.478 837.001 320.63C837.312 319.783 837.387 318.867 837.219 317.98C836.8 316.189 835.401 314.781 834.683 313.083C834.252 311.776 833.906 310.442 833.648 309.09C833.099 307.17 832.091 305.413 830.711 303.969L830.851 304.342C827.196 300.228 820.912 298.185 815.253 299.1C811.048 299.771 807.132 301.73 802.908 302.337C799.878 302.766 796.792 302.486 793.743 302.794C790.914 303.085 788.161 303.881 785.613 305.144C784.947 305.428 784.357 305.862 783.888 306.413C783.454 307.151 783.163 307.965 783.03 308.811C781.995 312.589 778.713 315.285 776.336 318.438C773.62 322.04 772.048 326.375 771.823 330.882C771.73 332.027 771.841 333.18 772.149 334.287C772.355 334.949 772.672 335.574 772.821 336.246C773.287 338.298 772.215 340.341 771.693 342.374C771.035 344.969 771.268 347.709 772.355 350.154C776.037 358.401 788.13 361.153 790.648 369.809C792.574 370.695 794.608 371.323 796.699 371.675C796.866 372.533 797.016 373.401 797.137 374.278C797.08 374.302 797.027 374.333 796.978 374.371C793.715 377.552 792.904 383.7 792.904 383.7L792.512 384.017C791.179 385.118 786.62 388.812 782.499 391.657C777.604 395.043 769.446 406.386 763.74 409.773C758.033 413.159 753.334 434.027 754.565 441.611C755.796 449.195 760.887 470.464 758.845 478.225C756.803 485.986 761.903 521.407 761.903 521.407C765.325 522.059 768.674 523.052 771.898 524.373L771.795 525.922L771.487 530.586C771.487 530.586 762.248 564.019 765.781 589.756C769.315 615.494 764.15 618.143 764.15 618.143C764.15 618.143 765.231 629.552 762.518 633.535C759.805 637.518 759.255 646.268 759.255 646.268C759.255 646.268 758.984 665.905 759.525 671.455C760.066 677.005 760.336 687.118 758.434 689.506C756.532 691.894 752.999 707.538 753.269 712.314C753.54 717.09 746.472 727.976 750.276 742.034C754.08 756.092 739.088 756.363 739.088 756.363C739.088 756.363 740.999 777.818 745.074 783.956L745.67 784.833C745.568 785.188 745.465 785.561 745.353 785.962C743.815 791.559 741.708 800.393 743.172 802.529C745.344 805.72 746.435 805.179 746.435 805.179L747.246 819.507C747.246 819.507 763.562 833.304 776.075 832.782C788.587 832.259 786.135 819.507 786.135 819.507L775.478 791.858L775.114 790.925L786.955 768.536C786.955 768.536 790.219 758.723 791.03 755.271C791.841 751.82 796.27 739.59 796.27 739.59C796.27 739.59 807.458 713.06 807.691 709.87C807.924 706.679 808.782 689.45 810.954 685.989C813.127 682.528 819.113 662.668 819.113 662.668L819.262 662.798C820.277 663.796 821.003 665.052 821.361 666.43C821.719 667.809 821.696 669.258 821.294 670.625C819.924 675.662 820.744 686.007 820.744 686.007C820.744 686.007 820.203 694.767 819.113 699.282C818.022 703.797 817.761 740.672 819.663 749.422C821.182 756.428 821.136 769.544 821.061 774.507C819.784 779.777 818.665 786.326 820.744 787.1C824.287 788.434 842.235 788.164 842.235 788.164C842.235 788.164 849.843 785.505 860.183 794.796C870.523 804.087 902.326 792.147 902.326 792.147C902.326 792.147 912.116 789.488 892.807 781.802C879.334 776.438 870.635 772.865 864.948 769.04C865.078 768.788 865.218 768.536 865.339 768.266C865.339 768.266 857.451 760.803 863.978 747.575C870.504 734.348 870.234 723.163 870.234 723.163L871.325 678.582L868.062 619.402L865.535 557.293L865.982 557.144C866.411 568.562 868.64 595.745 880.304 590.475C894.988 583.842 882.476 566.594 882.476 566.594L875.884 553.739L877.851 553.067L870.476 529.224C869.769 524.57 869.675 519.844 870.197 515.166C870.343 512.429 870.287 509.685 870.029 506.957C879.688 505.268 888.937 503.477 890.597 503.888C892.555 504.363 903.51 504.457 907.818 504.475C906.41 505.576 905.282 506.668 905.282 506.668L922.819 518.477C922.819 518.477 928.768 515.222 930.008 511.77C931.228 511.461 932.355 510.859 933.29 510.016C933.476 514.093 934.558 518.505 938.324 518.608C939.267 518.628 940.202 518.443 941.066 518.067L969.745 512.386L967.284 527.769L968.999 530.819C968.132 543.795 967.135 557.573 966.258 569.691L965.857 572.34L966.062 572.387C964.701 591.044 963.61 605.176 963.61 605.176C965.217 602.114 967.709 599.607 970.761 597.984L970.948 625.671C970.948 625.671 972.384 669.449 972.384 675.42C972.384 681.39 972.579 694.72 972.579 694.72C972.579 694.72 975.647 711.036 977.474 716.409C979.302 721.782 980.738 746.26 980.738 746.26C980.738 746.26 985.027 753.023 983.19 755.589C981.353 758.154 990.332 763.742 990.332 763.742C990.332 763.742 984.616 771.503 984.206 776.68C984.159 777.277 984.747 777.912 985.81 778.546C985.474 778.816 985.129 779.087 984.747 779.348C982.099 781.121 978.22 782.352 972.384 781.848C956.468 780.449 945.252 795.179 955.042 798.164C964.832 801.149 994.201 801.746 994.201 801.746C994.201 801.746 1003.1 796.195 1010.05 798.695C1009.95 804.535 1010.24 809.89 1010.28 810.599L1010.2 810.664C1006.04 814.395 998.08 820.813 990.304 823.435C979.115 827.213 976.635 842.539 991.115 844.526C1005.59 846.513 1026.81 842.138 1026.81 842.138C1026.81 842.138 1037.82 833.985 1046.18 832.194C1054.54 830.403 1061.69 826.42 1060.26 821.643C1059.33 818.593 1056.93 810.599 1055.31 805.225C1055.21 804.902 1055.12 804.591 1055.03 804.293C1055.28 803.733 1055.53 803.154 1055.76 802.557C1055.76 802.557 1051.49 780.272 1054.95 774.703C1058.42 769.134 1056.59 713.405 1056.59 713.405C1056.59 713.405 1050.66 699.282 1053.73 690.728C1056.8 682.173 1048.84 670.028 1048.84 670.028C1048.84 670.028 1049.7 645.69 1052.04 632.126C1052.14 631.548 1052.24 630.988 1052.34 630.447C1056.25 629.288 1060.05 627.819 1063.72 626.053C1063.72 626.053 1065.76 595.4 1066.98 588.441C1067.1 587.788 1067.27 586.734 1067.48 585.363L1068.41 580.446L1069.51 574.849L1073.24 555.773L1079.97 547.06L1097.31 529.336C1097.31 529.336 1101.48 519.97 1099.44 502.255ZM831.998 392.804L831.867 392.897C831.847 392.83 831.832 392.762 831.821 392.692C831.875 392.737 831.934 392.774 831.998 392.804ZM1003.34 414.53L1002.67 415.995L1005.12 413.551L1001.79 417.282L1002.91 414.931L1003.34 414.53ZM986.779 448.766C986.136 450.473 985.446 452.32 984.728 454.242L986.043 450.314L986.779 448.766Z" fill="url(#paint0_linear)"/>
<path d="M933.476 504.655C933.476 504.655 931.181 519.945 938.066 520.142C944.952 520.339 949.552 508.348 949.552 508.348L946.741 498.758L933.476 504.655Z" fill="#032967"/>
<path opacity="0.2" d="M933.476 504.655C933.476 504.655 931.181 519.945 938.066 520.142C944.952 520.339 949.552 508.348 949.552 508.348L946.741 498.758L933.476 504.655Z" fill="black"/>
<path d="M779.394 834.335C767.375 834.871 751.698 820.987 751.698 820.987L750.917 806.569C750.917 806.569 749.879 807.104 747.784 803.901C746.378 801.75 748.4 792.836 749.879 787.228C750.596 784.485 751.184 782.531 751.184 782.531L777.556 789.745L778.815 793.155L789.051 820.978C789.051 820.978 791.404 833.8 779.394 834.335Z" fill="#3F3D56"/>
<path d="M902.731 793.556C902.731 793.556 871.72 805.612 861.693 796.233C851.667 786.854 844.196 789.531 844.196 789.531C844.196 789.531 826.699 789.804 823.248 788.456C821.215 787.674 822.315 780.972 823.584 775.636C824.442 771.951 825.375 768.906 825.375 768.906C825.375 768.906 855.855 758.452 860.63 764.881C862.064 766.77 863.779 768.423 865.713 769.783C871.235 773.817 879.862 777.475 893.507 783.102C912.273 790.869 902.731 793.556 902.731 793.556Z" fill="#3F3D56"/>
<path d="M874.858 551.401L883.152 568.217C883.152 568.217 895.087 585.302 881.081 591.865C867.075 598.429 867.34 554.036 867.34 554.036L874.858 551.401Z" fill="#FFD6D6"/>
<path d="M839.387 404.167C839.387 404.167 848.659 408.407 854.222 426.148C859.784 443.889 867.202 474.088 867.202 474.088C867.202 474.088 872.233 508.247 871.432 516.726C870.922 521.396 871.013 526.112 871.702 530.758L878.849 554.593L864.546 559.625L842.565 475.411L839.387 404.167Z" fill="#DCE6F2"/>
<path opacity="0.05" d="M839.387 404.167C839.387 404.167 848.659 408.407 854.222 426.148C859.784 443.889 867.202 474.088 867.202 474.088C867.202 474.088 872.233 508.247 871.432 516.726C870.922 521.396 871.013 526.112 871.702 530.758L878.849 554.593L864.546 559.625L842.565 475.411L839.387 404.167Z" fill="black"/>
<path opacity="0.1" d="M778.086 789.656L779.372 793.028L777.795 796.009C771.654 798.647 756.443 796.539 756.443 796.539C756.443 796.539 753.626 793 749.776 787.176C750.508 784.463 751.109 782.531 751.109 782.531L778.086 789.656Z" fill="black"/>
<path opacity="0.1" d="M866.517 771.19C858.863 789.203 832.843 782.518 825.614 780.264C824.423 779.89 823.767 779.64 823.767 779.64C823.767 779.64 823.813 778.173 823.832 775.861C824.681 772.111 825.605 769.013 825.605 769.013C825.605 769.013 855.779 758.376 860.507 764.918C861.926 766.84 863.624 768.522 865.539 769.905C865.828 770.363 866.155 770.793 866.517 771.19Z" fill="black"/>
<path d="M865.062 748.738C858.692 761.991 866.397 769.429 866.397 769.429C858.655 786.947 832.336 780.452 825.023 778.249C823.818 777.894 823.155 777.652 823.155 777.652C823.155 777.652 823.687 759.34 821.829 750.586C819.97 741.832 820.232 704.966 821.297 700.458C822.361 695.951 822.884 687.187 822.884 687.187C822.884 687.187 822.09 676.846 823.417 671.806C823.816 670.445 823.843 669.001 823.494 667.626C823.146 666.25 822.436 664.993 821.437 663.985L821.297 663.845C821.297 663.845 815.459 683.743 813.33 687.178C811.2 690.612 810.416 707.869 810.145 711.051C809.874 714.234 798.994 740.768 798.994 740.768C798.994 740.768 794.753 752.966 793.959 756.41C793.166 759.854 789.971 769.681 789.971 769.681L777.176 794.358C771.068 797.008 755.938 794.89 755.938 794.89C755.938 794.89 753.024 791.157 749.036 785.072C745.048 778.986 743.199 757.493 743.199 757.493C743.199 757.493 757.797 757.222 754.079 743.166C750.362 729.111 757.264 718.229 757.003 713.45C756.741 708.672 760.187 693.029 762.046 690.64C763.905 688.251 763.634 678.171 763.101 672.599C762.569 667.028 762.84 647.4 762.84 647.4C762.84 647.4 763.372 638.646 766.025 634.67C768.677 630.694 767.622 619.28 767.622 619.28C767.622 619.28 772.656 616.629 769.21 590.898C765.763 565.167 774.813 531.746 774.813 531.746L775.121 527.079L775.607 519.519C775.607 519.519 851.529 514.741 857.637 520.574C859.234 522.193 860.544 524.071 861.513 526.127C863.603 530.616 865.079 535.366 865.902 540.248L869.087 620.624L872.272 679.777L871.207 724.342C871.207 724.342 871.441 735.467 865.062 748.738Z" fill="#032967"/>
<path opacity="0.1" d="M842.676 590.058L834.67 762.681L825.06 778.417C823.849 778.062 823.183 777.819 823.183 777.819C823.183 777.819 823.718 759.486 821.85 750.721C819.982 741.956 820.245 705.047 821.315 700.533C822.385 696.02 822.91 687.246 822.91 687.246C822.91 687.246 822.113 676.893 823.445 671.847C823.846 670.484 823.873 669.038 823.524 667.661C823.174 666.284 822.46 665.026 821.456 664.016L821.587 663.082L842.676 590.058Z" fill="black"/>
<path opacity="0.1" d="M756.875 775.709C756.875 775.709 777.576 767.187 780.76 769.905C783.944 772.623 756.353 776.773 756.353 776.773L756.875 775.709Z" fill="black"/>
<path opacity="0.1" d="M859.118 753.744C858.337 754.01 838.5 761.102 840.328 768.645C842.155 776.188 859.118 753.744 859.118 753.744Z" fill="black"/>
<path d="M795.815 361.377C795.815 361.377 802.642 377.819 799.031 386.247C795.419 394.674 838.024 409.103 838.024 409.103C838.024 409.103 825.567 377.019 837.627 358.969C849.688 340.918 795.815 361.377 795.815 361.377Z" fill="#FFD6D6"/>
<path d="M1043.22 833.802C1035 835.598 1024.16 843.775 1024.16 843.775C1024.16 843.775 1003.29 848.163 989.039 846.17C974.787 844.177 977.207 828.815 988.239 825.026C995.892 822.406 1003.73 815.942 1007.83 812.237C1009.64 810.581 1010.71 809.43 1010.71 809.43L1050.65 801.45C1050.65 801.45 1051.3 803.667 1052.2 806.726C1053.8 812.125 1056.17 820.133 1057.07 823.183C1058.47 828.02 1051.45 832.005 1043.22 833.802Z" fill="#3F3D56"/>
<path d="M1032.59 802.693C1032.59 802.693 1015.9 804.483 1008.95 800.512C1002 796.542 992.07 802.898 992.07 802.898C992.07 802.898 963.47 802.302 953.939 799.319C944.409 796.337 955.327 781.61 970.82 783.027C976.466 783.539 980.285 782.3 982.866 780.529C985.561 778.68 987.44 775.862 988.111 772.662L1021.65 774.647L1026.31 786.541L1032.59 802.693Z" fill="#3F3D56"/>
<path opacity="0.1" d="M1026.83 792.403C1026.83 792.403 988.19 785.883 983.258 780.707C985.931 778.817 987.793 775.935 988.458 772.662L1021.71 774.692L1026.32 786.855L1026.83 792.403Z" fill="black"/>
<path d="M969.282 568.793L969.681 627.115C969.681 627.115 971.063 670.916 971.063 676.893C971.063 682.87 971.258 696.197 971.258 696.197C971.258 696.197 974.227 712.522 976.008 717.901C977.79 723.281 979.172 747.787 979.172 747.787C979.172 747.787 983.328 754.557 981.547 757.126C979.766 759.694 988.468 765.288 988.468 765.288C988.468 765.288 982.902 773.058 982.54 778.232C982.178 783.406 1026.83 790.756 1026.83 790.756L1009.44 611.192L995.584 566.206L969.282 568.793Z" fill="#032967"/>
<path opacity="0.1" d="M969.282 568.793L969.681 627.115C969.681 627.115 971.063 670.916 971.063 676.893C971.063 682.87 971.258 696.197 971.258 696.197C971.258 696.197 974.227 712.522 976.008 717.901C977.79 723.281 979.172 747.787 979.172 747.787C979.172 747.787 983.328 754.557 981.547 757.126C979.766 759.694 988.468 765.288 988.468 765.288C988.468 765.288 982.902 773.058 982.54 778.232C982.178 783.406 1026.83 790.756 1026.83 790.756L1009.44 611.192L995.584 566.206L969.282 568.793Z" fill="black"/>
<path opacity="0.1" d="M1051.49 806.808C1038.62 838.084 1008 813.947 1008 813.947C1008 813.947 1008 813.344 1007.92 812.308C1009.7 810.641 1010.75 809.483 1010.75 809.483L1049.97 801.45C1049.97 801.45 1050.61 803.729 1051.49 806.808Z" fill="black"/>
<path d="M1052.69 804.187C1039.92 836.891 1008.23 812.354 1008.23 812.354C1008.23 812.354 1007.23 795.423 1009.23 787.658C1011.23 779.893 1007.03 756.58 1007.03 756.58C1007.03 756.58 1004.64 735.864 1002.45 731.089C1000.26 726.314 1000.46 716.746 1000.46 715.952C1000.46 715.157 1001.25 708.775 999.455 704.393C997.659 700.011 996.649 689.256 996.649 689.256C996.649 689.256 996.649 674.118 994.853 665.158L988.671 634.322L977.503 571.175L980.992 570.577L1043.5 559.626C1043.5 559.626 1055.26 619.428 1051.27 625.557C1050.41 626.903 1049.65 629.846 1049.02 633.64C1046.74 647.208 1045.89 671.567 1045.89 671.567C1045.89 671.567 1053.66 683.715 1050.68 692.283C1047.7 700.852 1053.49 714.989 1053.49 714.989C1053.49 714.989 1055.28 770.764 1051.89 776.342C1048.49 781.921 1052.69 804.187 1052.69 804.187Z" fill="#032967"/>
<path d="M1046.56 396.88C1046.56 396.88 989.572 436.546 1002.41 416.708C1009.33 406.026 1008.06 392.423 1005.35 382.15C1003.98 376.925 1002.09 371.848 999.701 366.993C999.701 366.993 1048.12 346.633 1041.7 364.88C1040.2 369.131 1039.56 373.634 1039.82 378.13C1040.21 384.889 1042.55 391.397 1046.56 396.88Z" fill="#D28690"/>
<path d="M944.518 487.859C944.518 487.859 921.099 481.009 917.198 487.729C913.298 494.449 918.37 509.195 925.438 511.568C932.506 513.94 948.729 503.532 948.729 503.532L944.518 487.859Z" fill="#D28690"/>
<path d="M972.347 476.551L962.375 485.629C962.375 485.629 945.021 487.202 940.034 486.017C940.034 486.017 944.628 516.397 938.042 520.145L978.325 512.057L972.347 476.551Z" fill="#032967"/>
<path opacity="0.1" d="M972.347 476.551L962.375 485.629C962.375 485.629 945.021 487.202 940.034 486.017C940.034 486.017 944.628 516.397 938.042 520.145L978.325 512.057L972.347 476.551Z" fill="black"/>
<path opacity="0.1" d="M844.32 344.712C844.32 352.627 841.16 360.218 835.534 365.815C829.909 371.411 822.279 374.556 814.324 374.556C798.932 367.197 784.328 361.21 784.328 344.712C784.169 340.696 784.826 336.69 786.26 332.934C787.694 329.177 789.876 325.748 792.675 322.851C795.474 319.954 798.832 317.649 802.548 316.074C806.264 314.5 810.262 313.688 814.301 313.688C818.339 313.688 822.337 314.5 826.053 316.074C829.769 317.649 833.127 319.954 835.926 322.851C838.725 325.748 840.907 329.177 842.341 332.934C843.775 336.69 844.433 340.696 844.273 344.712H844.32Z" fill="black"/>
<path d="M844.32 343.692C844.324 350.766 841.866 357.614 837.379 363.029C832.892 368.444 826.664 372.077 819.793 373.289C812.923 374.501 805.851 373.213 799.825 369.652C793.8 366.092 789.207 360.487 786.857 353.827C784.507 347.167 784.552 339.879 786.982 333.248C789.412 326.618 794.072 321.071 800.14 317.586C806.209 314.1 813.295 312.9 820.151 314.198C827.006 315.495 833.189 319.206 837.611 324.676C841.941 330.041 844.311 336.758 844.32 343.692Z" fill="#FFD6D6"/>
<path opacity="0.1" d="M861.585 526.152C858.629 527.992 855.537 529.6 852.334 530.963C852.334 530.963 837.213 528.763 835.029 531.356C832.845 533.948 813.56 534.95 813.56 534.95C813.56 534.95 784.111 533.555 779.733 529.764C778.379 528.665 776.873 527.77 775.262 527.106L775.747 519.525C775.747 519.525 851.625 514.732 857.73 520.582C859.319 522.208 860.622 524.09 861.585 526.152Z" fill="black"/>
<path d="M865.61 520.783C865.014 524.158 852.701 529.323 852.701 529.323C852.701 529.323 837.612 527.141 835.432 529.724C833.253 532.307 814.01 533.305 814.01 533.305C814.01 533.305 784.624 531.906 780.256 528.13C775.887 524.354 766.154 522.535 766.154 522.535C766.154 522.535 761.19 487.16 763.183 479.412C765.176 471.664 760.202 450.387 759.01 442.835C757.818 435.282 762.382 414.415 767.942 411.04C773.503 407.665 781.448 396.327 786.207 392.952C790.222 390.108 794.655 386.425 795.95 385.315L796.332 384.998C796.332 384.998 797.133 378.835 800.309 375.674C803.485 372.514 832.666 395.749 832.666 395.749C832.666 395.749 832.871 397.539 834.855 394.164C835.302 393.409 839.149 398.966 839.819 401.315C839.819 401.315 855.7 429.147 856.697 434.881C857.693 440.615 861.857 459.329 862.648 463.897C862.853 465.072 863.188 469.193 863.58 474.713C863.654 475.795 863.719 476.941 863.803 478.135C864.39 487.291 865.023 498.983 865.405 507.822C865.405 508.829 865.489 509.799 865.517 510.731C865.718 514.078 865.749 517.433 865.61 520.783Z" fill="#DCE6F2"/>
<path opacity="0.1" d="M764.574 449.408C764.574 449.408 775.371 462.569 778.908 462.569C782.446 462.569 764.574 449.408 764.574 449.408Z" fill="black"/>
<path opacity="0.1" d="M787.593 478.195C787.593 478.195 769.82 497.375 772.191 500.9C774.562 504.426 787.593 478.195 787.593 478.195Z" fill="black"/>
<path opacity="0.1" d="M774.439 516.855C774.439 516.855 794.885 494.227 795.815 486.421L774.439 516.855Z" fill="black"/>
<path opacity="0.1" d="M799.925 518.499C799.925 518.499 824.099 505.813 826.129 495.743C828.158 485.673 799.925 518.499 799.925 518.499Z" fill="black"/>
<path opacity="0.1" d="M830.328 397.715L827.055 405.671L832.504 408.258L837.861 423.291C837.861 423.291 852.628 452.947 852.032 468.373C851.437 483.798 854.711 506.984 854.711 506.984L863.229 505.396L859.211 460.025C858.586 453 856.834 446.123 854.022 439.66C847.216 424.01 834.55 395.12 833.751 395.12C832.663 395.12 833.425 395.521 833.425 395.521L830.328 397.715Z" fill="black"/>
<path d="M831.15 396.883L827.877 404.848L833.335 407.435L838.68 422.468C838.68 422.468 853.443 452.124 852.848 467.55C852.253 482.976 855.526 506.161 855.526 506.161L864.051 504.573L860.025 459.202C859.407 452.177 857.659 445.299 854.847 438.837C848.042 423.178 835.38 394.297 834.59 394.297C833.493 394.297 834.255 394.698 834.255 394.698L831.15 396.883Z" fill="#104BA9"/>
<path d="M928.195 513.552C924.043 513.232 914.079 508.136 910.122 506.017L908.446 505.075L908.651 489.524C909.629 488.942 910.643 488.423 911.686 487.97C916.975 485.634 927.823 482.46 933.261 492.679C940.598 506.384 933.456 513.91 928.195 513.552Z" fill="#FFD6D6"/>
<path opacity="0.1" d="M837.743 324.705C837.312 324.973 836.838 325.166 836.341 325.275C832.852 326.031 828.883 323.053 825.892 324.967C824.067 326.143 823.644 328.581 823.4 330.729C822.973 334.464 822.547 338.174 822.12 341.86C822.031 343.172 821.752 344.465 821.293 345.698C819.816 349.05 815.762 350.629 812.066 350.573C810.618 350.675 809.188 350.205 808.088 349.265C807.439 348.611 807.091 347.696 806.376 347.099C801.673 343.186 800.243 352.776 801.485 355.503C803.479 359.958 810.561 364.253 807.589 369.912C807.089 370.832 806.331 371.588 805.407 372.088C800.928 370.695 796.839 368.282 793.467 365.041C790.095 361.8 787.534 357.82 785.987 353.421C784.44 349.021 783.95 344.324 784.558 339.703C785.165 335.082 786.853 330.667 789.486 326.809C792.118 322.951 795.623 319.758 799.72 317.485C803.817 315.212 808.393 313.922 813.082 313.717C817.771 313.513 822.443 314.4 826.725 316.308C831.006 318.216 834.78 321.092 837.743 324.705Z" fill="black"/>
<path d="M805.907 347.137C806.606 347.722 806.96 348.632 807.602 349.282C808.692 350.215 810.108 350.682 811.541 350.582C815.201 350.637 819.215 349.078 820.667 345.726C821.131 344.505 821.41 343.222 821.496 341.919L822.763 330.852C823.005 328.716 823.415 326.293 825.23 325.123C828.192 323.266 832.122 326.182 835.576 325.429C836.822 325.114 837.9 324.337 838.592 323.258C839.284 322.178 839.537 320.877 839.301 319.617C838.901 317.844 837.541 316.442 836.843 314.752C836.419 313.454 836.08 312.129 835.828 310.788C833.9 303.583 825.417 299.534 818.041 300.741C813.944 301.419 810.135 303.369 806.028 303.963C803.086 304.39 800.078 304.112 797.107 304.428C794.347 304.711 791.664 305.502 789.192 306.758C788.543 307.044 787.969 307.476 787.516 308.021C787.094 308.756 786.81 309.561 786.678 310.398C785.681 314.111 782.478 316.85 780.159 319.979C777.507 323.579 775.972 327.876 775.745 332.337C775.654 333.477 775.761 334.623 776.061 335.726C776.257 336.376 776.564 337.007 776.713 337.676C777.17 339.709 776.127 341.743 775.614 343.767C774.978 346.35 775.207 349.069 776.266 351.51C779.842 359.708 791.622 362.447 794.071 371.054C796.246 372.094 798.595 372.724 801 372.911C803.402 372.958 805.991 371.927 807.109 369.801C810.042 364.23 803.039 359.903 801.065 355.484C799.826 352.764 801.214 343.237 805.907 347.137Z" fill="#353045"/>
<path opacity="0.1" d="M1041.86 364.811C1040.35 369.023 1039.71 373.484 1039.97 377.939C1038.52 379.147 1036.93 375.533 1035.25 376.464C1030.64 379.064 1025.31 385.25 1019.61 385.25C1014.66 385.253 1009.78 384.113 1005.37 381.922C1003.99 376.745 1002.09 371.714 999.701 366.903C999.701 366.903 1048.31 346.731 1041.86 364.811Z" fill="black"/>
<path d="M1050.67 352.759C1050.67 358.859 1048.84 364.823 1045.41 369.895C1041.97 374.968 1037.1 378.921 1031.39 381.256C1025.68 383.59 1019.4 384.201 1013.34 383.011C1007.28 381.821 1001.71 378.883 997.341 374.569C992.972 370.256 989.997 364.76 988.791 358.776C987.586 352.793 988.204 346.591 990.569 340.955C992.933 335.319 996.938 330.502 1002.08 327.112C1007.21 323.723 1013.25 321.914 1019.43 321.914C1023.53 321.913 1027.6 322.71 1031.39 324.259C1035.18 325.809 1038.62 328.081 1041.52 330.946C1044.43 333.81 1046.73 337.211 1048.3 340.954C1049.87 344.696 1050.67 348.708 1050.67 352.759Z" fill="#D28690"/>
<path d="M1049.03 403.63C1049.03 403.63 1043.2 410.013 1042.41 410.537C1041.62 411.061 1024.73 482.603 1024.43 483.436C1024.13 484.269 1004.32 548.866 1004.32 548.866L972.571 564.561L975.224 485.551L998.491 420.392C998.491 420.392 1006.17 411.613 1008.54 408.422C1010.92 405.231 1040.55 386.072 1040.55 386.072L1045.61 396.564L1049.03 403.63Z" fill="#F0F3F7"/>
<path opacity="0.1" d="M1044.92 398.279L1008.51 424.733L1007.92 410.206C1010.3 406.993 1039.85 387.719 1039.85 387.719L1044.92 398.279Z" fill="black"/>
<path d="M1045.74 396.633L1009.31 423.086L1008.74 408.569C1011.12 405.347 1040.69 386.072 1040.69 386.072L1045.74 396.633Z" fill="#F0F3F7"/>
<path d="M1007.53 401.702L1008.74 408.11L1000.61 416.434L1007.1 401.795C1007.1 401.795 993.185 411.557 989.009 414.145C984.834 416.733 980.659 425.495 980.501 427.887C980.344 430.278 973.775 466.319 973.775 466.319C973.775 466.319 968.829 479.659 970.221 483.442C971.613 487.226 962.706 606.511 962.706 606.511C963.896 604.195 965.579 602.171 967.635 600.584C969.691 598.996 972.069 597.885 974.6 597.328L971.427 526.835C971.427 526.835 975.287 479.939 975.482 479.341C975.677 478.744 984.482 451.559 984.482 451.559L1007.53 401.702Z" fill="#032967"/>
<path opacity="0.1" d="M1009.57 409.102L1008.93 422.206C1008.93 422.206 1000.06 450.238 997.077 454.825C994.095 459.411 985.018 486.751 985.018 486.751L979.904 534.242L971.135 538.239L966.816 530.274L973.996 484.411C973.996 484.411 987.542 445.708 989.542 441.712L999.536 420.633L1009.57 409.102Z" fill="black"/>
<path d="M1008.74 408.281L1008.12 421.386C1008.12 421.386 999.252 449.423 996.263 454.01C993.273 458.597 984.22 485.941 984.22 485.941L979.138 533.43L970.375 537.418L965.994 529.442L973.169 483.573C973.169 483.573 986.705 444.855 988.695 440.867L998.757 419.814L1008.74 408.281Z" fill="#447BD4"/>
<path d="M905.979 508.106L922.732 520.145C922.732 520.145 934.55 513.267 927.668 508.817C920.785 504.368 914.68 503.694 912.468 503.694C910.256 503.694 905.979 508.106 905.979 508.106Z" fill="#D28690"/>
<path d="M918.731 486.384C918.349 486.627 918.034 486.965 917.816 487.368C917.599 487.77 917.486 488.223 917.488 488.682C917.488 492.391 917.899 502.213 920.945 497.779C924.682 492.353 924 487.481 929.708 490.999C933.256 493.254 936.361 496.165 938.864 499.581L937.276 487.929C937.276 487.929 925.541 482.017 918.731 486.384Z" fill="#D28690"/>
<path opacity="0.1" d="M1050.67 625.272C1049.81 626.612 1049.05 629.543 1048.43 633.32C1013.5 643.749 987.948 621.7 987.948 621.7C984.856 611.267 982.33 600.677 980.38 589.974C979.754 586.309 979.894 579.201 980.473 570.53L1042.91 559.626C1042.91 559.626 1054.66 619.123 1050.67 625.272Z" fill="black"/>
<path d="M1086.44 447.533C1084.85 452.702 1085.45 463.215 1085.45 463.215L1071.13 530.711C1071.13 530.711 1064.17 582.721 1062.97 589.668C1061.78 596.615 1059.79 627.187 1059.79 627.187C1019.21 647.041 987.935 620.044 987.935 620.044C984.847 609.599 982.324 598.995 980.376 588.28C978.379 576.491 984.258 529.258 987.039 508.278C987.869 502.066 988.429 498.155 988.429 498.155L998.872 459.444C998.872 459.444 1011.7 426.786 1016.48 417.259C1021.26 407.733 1040.44 386.333 1040.44 386.333C1042.82 384.824 1046.63 390.151 1049.46 395.003C1051.6 398.672 1053.19 402.08 1053.19 402.08C1053.19 402.08 1077.06 412.398 1080.64 417.911C1084.21 423.424 1083.62 434.785 1084.02 435.381C1084.43 435.977 1088.04 442.374 1086.44 447.533Z" fill="#032967"/>
<path opacity="0.1" d="M1030.51 423.65C1030.51 423.65 1032.31 434.203 1027.71 437.387C1023.28 440.469 990.246 505.398 988.191 509.451C989.022 503.213 989.583 499.291 989.583 499.291L1000.04 460.481C1000.04 460.481 1012.89 427.731 1017.66 418.169C1022.43 408.606 1041.66 387.156 1041.66 387.156C1044.04 385.643 1047.84 390.985 1050.67 395.85C1046.4 404.712 1037.5 421.465 1030.51 423.65Z" fill="black"/>
<path d="M1029.71 422.831C1029.71 422.831 1031.5 433.384 1026.91 436.569C1022.32 439.753 989.452 504.576 987.369 508.629C988.2 502.4 988.761 498.478 988.761 498.478L999.213 459.655C999.213 459.655 1012.06 426.903 1016.84 417.349C1021.62 407.795 1040.83 386.334 1040.83 386.334C1043.21 384.821 1047.02 390.163 1049.85 395.028C1045.6 403.882 1036.69 420.645 1029.71 422.831Z" fill="#032967"/>
<path d="M1076.98 517.666L1065.73 576.013V576.022L1064.66 581.606V581.615L1062.23 594.172L1051.9 591.991L1047.08 590.974L980.435 576.898L975.535 575.863L964.35 573.505L966.538 559.018L967.445 552.996L975.516 499.581L1076.98 517.666Z" fill="#104BA9"/>
<path d="M1014.63 565.384C1014.63 565.384 988.181 575.057 993.946 586.545C999.711 598.034 1036.7 577.676 1036.7 577.676L1014.63 565.384Z" fill="#D28690"/>
<path opacity="0.1" d="M1034.23 646.815C1034.23 647.642 1035.19 658.229 1039.01 661.955C1042.83 665.682 1034.23 646.815 1034.23 646.815Z" fill="black"/>
<path opacity="0.1" d="M1007.1 683.006C1007.1 683.006 1011.91 696.44 1030.99 701.94C1050.07 707.44 1007.1 683.006 1007.1 683.006Z" fill="black"/>
<path opacity="0.1" d="M1050.67 352.718C1050.67 358.148 1049.24 363.482 1046.52 368.182C1043.79 372.883 1039.87 376.783 1035.15 379.491C1033.37 378.498 1031.8 377.185 1030.5 375.619C1029.15 373.984 1028.1 371.755 1028.91 369.805C1029.56 368.236 1031.28 367.242 1031.7 365.617C1031.9 364.623 1031.85 363.596 1031.55 362.627C1031.21 361.095 1030.88 359.562 1030.54 358.039C1030.26 356.739 1029.74 355.207 1028.45 354.891C1027.16 354.576 1026.08 355.653 1025.06 356.451C1022.58 358.411 1017.81 359.739 1014.82 358.132C1011.83 356.526 1012.67 351.149 1012.19 348.242C1012.18 347.99 1012.12 347.742 1012.01 347.515C1011.89 347.289 1011.73 347.09 1011.53 346.933C1011.1 346.789 1010.64 346.757 1010.18 346.84C1008.57 346.84 1007.28 345.401 1006.81 343.859C1006.48 342.285 1006.3 340.684 1006.27 339.077C1006.1 337.47 1005.51 335.771 1004.13 334.944C1003.03 334.433 1001.81 334.234 1000.61 334.368L994.768 334.433C998.64 329.211 1004.06 325.34 1010.27 323.369C1016.47 321.399 1023.14 321.43 1029.33 323.458C1035.52 325.486 1040.9 329.408 1044.73 334.666C1048.55 339.924 1050.61 346.251 1050.63 352.746L1050.67 352.718Z" fill="black"/>
<path d="M1025.67 356.77C1026.69 355.967 1027.81 354.903 1029.08 355.211C1030.34 355.519 1030.88 357.078 1031.17 358.366L1032.18 362.967C1032.48 363.944 1032.53 364.979 1032.34 365.981C1031.86 367.624 1030.14 368.613 1029.48 370.19C1028.66 372.15 1029.73 374.39 1031.07 376.023C1033.53 378.978 1036.92 381.003 1040.69 381.763C1041.67 381.999 1042.69 382.022 1043.69 381.829C1045.91 381.315 1047.42 379.271 1048.62 377.358C1054.8 367.745 1060.11 357.208 1061.2 345.841C1061.49 343.522 1061.39 341.17 1060.88 338.888C1060.37 337.114 1059.66 335.407 1058.75 333.801C1057.16 330.522 1055.14 327.468 1052.74 324.721C1048.49 320.147 1042.62 317.338 1036.6 315.677C1029.82 313.798 1022.74 313.244 1015.75 314.044C1013.88 314.258 1012.09 314.566 1010.25 314.688C1007.94 314.795 1005.62 314.758 1003.32 314.576L989.564 313.754C988.779 315.35 989.564 317.245 990.498 318.738C991.432 320.231 992.591 321.781 992.516 323.554C992.441 325.327 991.18 326.727 990.208 328.22C989.237 329.714 988.498 331.646 989.47 333.101C990.442 334.557 992.422 334.651 994.142 334.632L1001.07 334.557C1002.28 334.433 1003.5 334.643 1004.6 335.164C1005.98 335.995 1006.57 337.712 1006.75 339.317C1006.78 340.932 1006.97 342.541 1007.29 344.124C1007.76 345.673 1009.05 347.138 1010.67 347.119C1011.12 347.029 1011.59 347.065 1012.02 347.222C1012.22 347.379 1012.38 347.577 1012.5 347.803C1012.61 348.028 1012.67 348.276 1012.68 348.529C1013.16 351.45 1012.27 356.844 1015.32 358.468C1018.38 360.092 1023.18 358.739 1025.67 356.77Z" fill="#663D5C"/>
<path opacity="0.1" d="M1065.38 417.415C1061.93 417.05 1058.46 417.863 1055.54 419.72C1052.61 421.578 1050.41 424.368 1049.29 427.635C1045.54 438.266 1039.28 457.446 1040.85 465.025C1043.05 475.768 1045.65 493.679 1045.65 493.679C1045.65 493.679 1057.05 500.212 1051.28 506.801C1045.51 513.391 1043.88 522.724 1043.88 522.724C1043.88 522.724 1036.47 525.907 1034.88 532.674C1033.28 539.441 1022.47 548.783 1022.47 548.783L1006.28 564.902C1006.28 564.902 1033.08 591.969 1038.48 593.351L1055.08 574.049L1074.68 548.186L1091.69 530.453C1091.69 530.453 1095.68 521.119 1093.69 503.385C1091.69 485.652 1083.88 468.768 1083.88 468.768L1084.48 462.794C1084.48 462.794 1086.32 420 1065.38 417.415Z" fill="black"/>
<path d="M1066.5 417.413C1063.08 417.053 1059.64 417.868 1056.75 419.725C1053.85 421.582 1051.67 424.37 1050.56 427.633C1046.84 438.264 1040.64 457.445 1042.19 465.023C1044.37 475.766 1046.95 493.678 1046.95 493.678C1046.95 493.678 1058.25 500.211 1052.53 506.801C1046.81 513.39 1045.2 522.724 1045.2 522.724C1045.2 522.724 1037.86 525.906 1036.27 532.673C1034.68 539.44 1023.98 548.783 1023.98 548.783L1007.92 564.902C1007.92 564.902 1034.48 591.969 1039.84 593.351L1056.29 574.049L1075.68 548.186L1092.53 530.452C1092.53 530.452 1096.5 521.118 1094.51 503.384C1092.52 485.651 1084.8 468.766 1084.8 468.766L1085.39 462.793C1085.39 462.793 1087.24 419.998 1066.5 417.413Z" fill="#032967"/>
<path opacity="0.1" d="M1049.85 478.195C1049.85 478.195 1066.99 499.499 1074.25 494.788C1081.52 490.078 1049.85 478.195 1049.85 478.195Z" fill="black"/>
<path opacity="0.1" d="M1056.43 462.568C1058.24 463.167 1073.1 483.719 1080.74 481.286C1088.37 478.853 1056.43 462.568 1056.43 462.568Z" fill="black"/>
<path opacity="0.1" d="M1060.54 497.937C1060.54 497.937 1061.54 509.194 1073.68 507.664C1085.82 506.134 1060.54 497.937 1060.54 497.937Z" fill="black"/>
<path opacity="0.1" d="M1007.11 402.523L1000.52 417.328L1008.74 408.91L1007.11 402.523Z" fill="black"/>
<path d="M1007.11 402.523L1000.52 416.506L1008.74 408.555L1007.11 402.523Z" fill="#F0F3F7"/>
<path opacity="0.3" d="M980.792 576.899L975.864 575.867L966.816 559.056L967.729 553.046L980.792 576.899Z" fill="black"/>
<path opacity="0.3" d="M1065.47 576.077L1064.43 581.83V581.839L1052.06 592.528L1047.38 591.481L1065.47 576.077Z" fill="black"/>
<path opacity="0.1" d="M865.695 510.735C863.227 511.144 860.834 511.516 858.647 511.795C846.494 513.384 817.59 499.113 817.59 499.113C817.59 499.113 782.32 469.779 772.159 442.034C761.998 414.29 784.311 410.125 784.311 410.125C792.725 405.365 811.019 418.642 813.608 420.827C816.197 423.012 818.394 428.553 818.188 432.123C817.983 435.693 824.171 440.249 824.171 440.249C824.171 440.249 834.734 458.482 837.324 460.462C839.913 462.443 840.512 464.228 841.306 467.603C842.101 470.978 849.074 473.749 852.066 473.544C855.057 473.34 858.609 474.539 858.609 476.12C858.609 477.393 861.535 478.026 863.938 478.23C864.648 488.392 865.349 501.707 865.695 510.735Z" fill="black"/>
<path opacity="0.1" d="M864.873 508.53C863.018 508.83 861.238 509.102 859.569 509.327C847.513 510.929 818.85 496.543 818.85 496.543C818.85 496.543 783.862 466.974 773.782 439.008C763.702 411.042 785.837 406.844 785.837 406.844C794.183 402.045 812.321 415.428 814.89 417.631C817.459 419.833 819.638 425.419 819.443 429.018C819.249 432.617 825.369 437.209 825.369 437.209C825.369 437.209 835.848 455.587 838.416 457.584C840.985 459.58 841.579 461.379 842.376 464.781C843.174 468.183 850.082 470.967 853.05 470.77C856.017 470.573 859.541 471.773 859.541 473.366C859.541 474.303 861.192 474.931 863.028 475.241C863.102 476.328 863.167 477.48 863.25 478.68C863.862 487.893 864.493 499.645 864.873 508.53Z" fill="black"/>
<path opacity="0.1" d="M910.912 488.065L910.338 506.161H909.722L908.446 505.217L908.602 489.624C909.347 489.04 910.118 488.52 910.912 488.065Z" fill="black"/>
<path d="M784.297 408.488C784.297 408.488 762.005 412.686 772.156 440.651C782.308 468.615 817.543 498.192 817.543 498.192C817.543 498.192 846.409 512.568 858.559 510.975C870.708 509.382 889.209 505.183 891.599 505.783C893.99 506.383 910.118 506.383 910.118 506.383L910.912 487.64L892.234 486.637L882.681 484.641C882.681 484.641 879.291 481.829 877.302 482.242C875.312 482.654 871.138 479.842 871.138 479.842C871.138 479.842 867.944 477.247 865.535 477.247C863.125 477.247 858.568 476.647 858.568 475.054C858.568 473.46 854.982 472.242 852.031 472.458C849.08 472.673 842.029 469.862 841.207 466.422C840.385 462.983 839.816 461.231 837.229 459.234C834.642 457.238 824.089 438.851 824.089 438.851C824.089 438.851 817.916 434.259 818.112 430.67C818.309 427.081 816.123 421.476 813.536 419.274C810.95 417.072 792.646 403.699 784.297 408.488Z" fill="#DCE6F2"/>
<path opacity="0.1" d="M841.031 472.438C841.031 472.438 832.669 480.765 834.803 482.308L841.031 472.438Z" fill="black"/>
<path opacity="0.1" d="M850.897 479.018C850.897 479.018 839.267 488.218 842.384 488.86C845.501 489.502 850.897 479.018 850.897 479.018Z" fill="black"/>
<path opacity="0.1" d="M831.988 492.179C833.56 492.985 856.871 507.188 865.695 506.982L831.988 492.179Z" fill="black"/>
<path opacity="0.1" d="M832.81 397.663C832.81 397.663 828.699 411.571 827.13 411.571C825.9 411.571 805.253 394.344 796.637 387.101L797.013 386.78C797.013 386.78 797.793 380.53 800.922 377.325C804.051 374.12 832.81 397.663 832.81 397.663Z" fill="black"/>
<path d="M831.988 396.017C831.988 396.017 827.887 409.925 826.317 409.925C825.079 409.925 804.432 392.698 795.815 385.455L796.191 385.134C796.191 385.134 796.98 378.884 800.11 375.679C803.239 372.474 831.988 396.017 831.988 396.017Z" fill="#DCE6F2"/>
<g opacity="0.15">
<path opacity="0.15" d="M776.076 351.585C778.874 357.979 786.58 361.078 791.049 366.174C788.39 359.911 780.619 356.84 776.076 351.585Z" fill="black"/>
<path opacity="0.15" d="M804.595 366.312C803.485 368.45 800.863 369.486 798.475 369.439C796.352 369.287 794.273 368.756 792.336 367.871C793.039 368.907 793.574 370.048 793.922 371.25C796.1 372.297 798.454 372.93 800.863 373.117C803.28 373.173 805.873 372.137 806.983 369.99C808.765 366.583 806.909 363.671 804.735 360.917C805.14 361.764 805.339 362.694 805.314 363.632C805.29 364.57 805.043 365.488 804.595 366.312Z" fill="black"/>
<path opacity="0.15" d="M839.216 319.532C838.814 317.74 837.452 316.331 836.753 314.641C836.324 313.334 835.984 311.999 835.736 310.646C835.206 308.733 834.223 306.976 832.872 305.522C833.059 305.981 833.218 306.452 833.347 306.931C833.609 308.29 833.958 309.631 834.392 310.945C835.092 312.634 836.454 314.044 836.855 315.836C837.092 317.102 836.838 318.41 836.144 319.496C835.451 320.581 834.371 321.362 833.124 321.679C829.672 322.435 825.735 319.448 822.768 321.371C820.949 322.538 820.529 324.974 820.287 327.12C819.87 330.854 819.447 334.566 819.018 338.256C818.934 339.565 818.657 340.854 818.197 342.083C816.732 345.443 812.711 347.02 809.045 346.964C807.612 347.06 806.199 346.591 805.108 345.657C804.578 344.906 804.008 344.183 803.401 343.492C798.736 339.572 797.318 349.158 798.55 351.892C799.166 353.123 799.931 354.273 800.826 355.318C799.8 352.238 801.236 343.371 805.789 347.17C806.396 347.858 806.963 348.581 807.487 349.335C808.583 350.267 809.998 350.736 811.433 350.642C815.1 350.698 819.12 349.12 820.585 345.76C821.046 344.529 821.323 343.236 821.406 341.924C821.829 338.19 822.252 334.482 822.675 330.798C822.917 328.651 823.337 326.215 825.147 325.048C828.123 323.126 832.06 326.112 835.512 325.347C836.75 325.026 837.82 324.248 838.507 323.169C839.194 322.09 839.448 320.79 839.216 319.532Z" fill="black"/>
</g>
<path opacity="0.1" d="M1045.71 378.829C1044.72 379.014 1043.7 378.989 1042.72 378.754C1038.97 377.994 1035.59 375.97 1033.15 373.018C1031.8 371.374 1030.73 369.132 1031.55 367.17C1032.21 365.592 1033.92 364.602 1034.35 362.957C1034.54 361.954 1034.49 360.918 1034.19 359.94L1033.18 355.335C1032.89 354.027 1032.39 352.485 1031.1 352.177C1029.8 351.869 1028.72 352.934 1027.71 353.737C1025.22 355.708 1020.44 357.053 1017.46 355.428C1014.49 353.803 1015.31 348.403 1014.83 345.479C1014.82 345.227 1014.76 344.979 1014.65 344.753C1014.53 344.528 1014.37 344.329 1014.18 344.171C1013.74 344.019 1013.27 343.983 1012.82 344.068C1011.21 344.068 1009.92 342.621 1009.45 341.07C1009.12 339.486 1008.95 337.875 1008.92 336.259C1008.73 334.652 1008.15 332.933 1006.77 332.102C1005.67 331.585 1004.46 331.375 1003.25 331.495L996.345 331.569C994.641 331.569 992.621 331.457 991.689 330.037C990.758 328.617 991.447 326.599 992.425 325.152C993.403 323.704 994.641 322.265 994.725 320.481C994.809 318.696 993.654 317.155 992.714 315.66C992.174 314.843 991.778 313.94 991.54 312.989L989.557 312.867C988.784 314.455 989.557 316.352 990.488 317.856C991.419 319.36 992.583 320.901 992.499 322.667C992.416 324.432 991.177 325.852 990.199 327.337C989.222 328.823 988.505 330.766 989.473 332.223C990.442 333.68 992.406 333.783 994.129 333.765L1001.04 333.68C1002.24 333.564 1003.46 333.777 1004.55 334.297C1005.94 335.128 1006.52 336.847 1006.7 338.454C1006.73 340.071 1006.91 341.682 1007.24 343.265C1007.71 344.806 1009 346.282 1010.61 346.254C1011.06 346.174 1011.53 346.21 1011.96 346.357C1012.16 346.516 1012.32 346.717 1012.43 346.944C1012.54 347.171 1012.61 347.421 1012.61 347.674C1013.1 350.589 1012.2 355.998 1015.25 357.623C1018.29 359.249 1023.04 357.904 1025.49 355.932C1026.51 355.129 1027.63 354.064 1028.89 354.363C1030.15 354.662 1030.69 356.231 1030.97 357.521L1031.98 362.135C1032.28 363.114 1032.33 364.15 1032.13 365.153C1031.67 366.787 1029.94 367.787 1029.29 369.356C1028.48 371.318 1029.53 373.57 1030.88 375.204C1033.35 378.169 1036.75 380.194 1040.52 380.94C1041.5 381.175 1042.52 381.2 1043.51 381.015C1045.11 380.525 1046.48 379.479 1047.38 378.063C1046.88 378.417 1046.31 378.676 1045.71 378.829Z" fill="black"/>
<path d="M353.371 141.317C353.371 130.074 361.718 121.309 373.068 121.309C379.494 121.309 383.998 123.405 387.901 126.898L381.896 134.393C379.314 132.107 376.672 130.773 373.068 130.773C367.784 130.773 363.7 135.473 363.7 141.444C363.7 147.669 367.844 152.115 373.609 152.115C376.071 152.115 377.933 151.543 379.434 150.527V145.827H372.228V138.077H389.043V155.418C385.199 158.784 379.794 161.389 373.189 161.389C361.899 161.325 353.371 153.068 353.371 141.317Z" fill="#092E69"/>
<path d="M394.478 153.118L408.166 141.858C411.588 139.058 412.849 137.15 412.849 134.796C412.849 132.315 411.228 130.788 408.766 130.788C406.305 130.788 404.384 132.315 401.502 135.877L394.658 129.77C398.56 124.299 402.403 121.309 409.547 121.309C417.532 121.309 422.995 126.398 422.995 133.969C422.995 140.267 419.993 143.575 414.53 147.774L408.286 152.482H423.355V161.389H394.478V153.118Z" fill="#092E69"/>
<path d="M428.851 121.309H446.088C451.674 121.309 455.517 122.904 457.979 125.585C460.142 127.946 461.223 131.01 461.223 135.094C461.223 141.221 458.22 145.306 453.715 147.412L462.424 161.389H450.712L443.385 149.199H438.941V161.389H428.791V121.309H428.851ZM445.667 140.583C449.091 140.583 451.073 138.732 451.073 135.732C451.073 132.605 448.971 130.946 445.607 130.946H439.001V140.583H445.667Z" fill="#092E69"/>
<path d="M472.548 151.878C473.892 151.878 475.01 152.322 475.9 153.209C476.791 154.078 477.236 155.197 477.236 156.565C477.236 157.933 476.791 159.061 475.9 159.949C475.01 160.818 473.892 161.253 472.548 161.253C471.187 161.253 470.061 160.809 469.17 159.921C468.296 159.034 467.859 157.915 467.859 156.565C467.859 155.215 468.296 154.097 469.17 153.209C470.061 152.322 471.187 151.878 472.548 151.878Z" fill="#092E69"/>
<path fill-rule="evenodd" clip-rule="evenodd" d="M517.781 144.475H501.303V153.843H520.642V161.38H491.64V121.292H520.585V128.882H501.303V137.099H517.781V144.475ZM544.236 148.244L536.535 161.38H525.26L538.047 141.174L525.58 121.292H536.737L544.236 134.205L551.735 121.292H562.892L550.424 141.174L563.211 161.38H551.937L544.236 148.244ZM577.517 161.38H567.855V121.292H584.644C587.833 121.292 590.658 121.838 593.106 122.947C595.573 124.057 597.489 125.648 598.83 127.727C600.168 129.786 600.833 132.131 600.833 134.745C600.833 138.719 599.366 141.899 596.422 144.224C593.511 146.521 589.515 147.636 584.501 147.636H577.517V161.38ZM589.473 138.673L589.477 138.67C590.531 137.792 591.084 136.529 591.084 134.799C591.084 133.011 590.528 131.613 589.444 130.549C588.366 129.491 586.854 128.917 584.84 128.882H577.517V140.046H584.644C586.844 140.046 588.425 139.56 589.473 138.673ZM640.496 130.134C642.028 133.133 642.786 136.586 642.786 140.479V142.22C642.786 146.129 642.048 149.581 640.555 152.562C639.06 155.546 636.909 157.859 634.107 159.485C631.326 161.11 628.14 161.916 624.566 161.916C621.03 161.916 617.856 161.119 615.057 159.513C612.255 157.906 610.086 155.613 608.552 152.649L608.552 152.648C607.02 149.668 606.251 146.26 606.232 142.437L606.232 142.434L606.232 140.505C606.232 136.596 606.98 133.134 608.493 130.135L608.493 130.134C610.025 127.117 612.185 124.795 614.97 123.186C617.769 121.562 620.954 120.756 624.509 120.756C628.064 120.756 631.239 121.561 634.02 123.186C636.823 124.795 638.983 127.117 640.496 130.134ZM618.277 131.423L618.276 131.425C616.81 133.384 616.028 136.322 616.009 140.32V142.22C616.009 146.142 616.78 149.105 618.255 151.177C619.707 153.217 621.786 154.245 624.566 154.245C627.294 154.245 629.335 153.258 630.766 151.306C632.217 149.31 632.99 146.351 633.009 142.354C633.009 142.353 633.009 142.352 633.009 142.351L633.009 140.452C633.009 136.417 632.236 133.443 630.768 131.448C629.317 129.476 627.256 128.48 624.509 128.48C621.781 128.48 619.728 129.468 618.277 131.423ZM674.493 144.778L683.28 160.323V161.38H673.208L665.398 147.1H659.421V161.38H649.759V121.292H665.776C670.763 121.292 674.692 122.331 677.491 124.485C680.31 126.654 681.707 129.723 681.707 133.62C681.707 136.366 681.067 138.703 679.752 140.598C678.554 142.333 676.789 143.721 674.493 144.778ZM670.527 130.317L670.524 130.314C669.559 129.395 668.014 128.882 665.776 128.882H659.421V139.51H665.804C667.878 139.51 669.403 139.021 670.456 138.116C671.503 137.198 672.044 135.936 672.044 134.263C672.044 132.541 671.523 131.249 670.527 130.317ZM719.998 128.882H707.239V161.38H697.577V128.882H684.989V121.292H719.998V128.882Z" fill="#092E69"/>
<path d="M579.93 71.9133C580.859 72.9148 580.751 74.2931 579.543 75.9876C578.345 77.667 574.645 80.1692 571.545 82.2069C565.349 86.28 555.736 89.9023 544.174 93.8842C532.611 97.866 521.307 100.556 512.383 101.69C507.919 102.257 502.898 102.424 499.918 102.183C496.912 101.94 494.625 101.283 493.695 100.282C492.766 99.2805 492.961 97.7321 494.375 96.2099C496.202 94.2433 498.976 92.62 502.076 90.5822C503.111 89.9017 504.242 89.2088 505.461 88.5082L506.804 84.921C491.622 92.2894 483.301 99.694 486.996 103.675C492.138 109.218 518.617 106.028 546.137 96.5502C573.657 87.073 591.797 75.788 586.655 70.2458C583.484 66.8288 572.202 65.8405 557.567 68.4893L561.237 70.2082C565.702 69.641 571.02 69.7738 574 70.0145C577.006 70.2574 579 70.9118 579.93 71.9133Z" fill="#092E69"/>
<path d="M570.446 77.9066L555.563 77.9063C555.531 81.3316 555.366 84.1842 554.845 87.5577C560.924 85.2039 564.207 83.8753 570.204 80.868C570.339 79.7613 570.408 79.0291 570.446 77.9066Z" fill="#092E69"/>
<path d="M536.962 75.2902L553.082 75.2906C553.019 69.3915 552.197 63.5287 550.639 57.8617C546.15 58.9388 541.566 59.514 536.962 59.5777L536.962 75.2902Z" fill="#104BA9"/>
<path d="M536.964 40.127L536.963 56.9671C541.303 56.9028 545.625 56.3678 549.86 55.3697C546.931 46.7547 542.275 40.9212 536.964 40.127Z" fill="#447BD4"/>
<path d="M553.081 77.9042L536.961 77.9038L536.971 93.5024C542.983 91.8434 546.155 90.7145 552.049 88.581C552.681 84.9448 553.042 81.6084 553.081 77.9042Z" fill="#092E69"/>
<path d="M562.477 53.2727C559.495 54.9724 556.334 56.2964 553.057 57.2173C554.664 63.0948 555.507 69.1738 555.563 75.2892L570.446 75.2896C570.175 67.2257 567.373 59.4832 562.477 53.2727Z" fill="#104BA9"/>
<path d="M560.803 51.2888C560.767 51.2499 560.733 51.2078 560.697 51.1676C560.5 50.9546 560.297 50.7492 560.097 50.5419C559.867 50.3027 559.637 50.061 559.399 49.8288C559.194 49.6273 558.981 49.4366 558.77 49.2356C558.53 49.0111 558.289 48.7847 558.042 48.5678C557.827 48.3771 557.607 48.1947 557.389 48.0116C557.14 47.7999 556.886 47.5894 556.63 47.3872C556.406 47.2092 556.179 47.037 555.95 46.8648C555.691 46.6684 555.43 46.4725 555.166 46.2857C554.934 46.1211 554.698 45.9604 554.462 45.8028C554.194 45.621 553.926 45.4431 553.652 45.2709C553.413 45.1197 553.171 44.9704 552.929 44.8256C552.651 44.6585 552.373 44.4965 552.092 44.3383C551.844 44.2076 551.596 44.0653 551.348 43.9346C551.062 43.7828 550.774 43.6367 550.479 43.4932C550.231 43.3688 549.978 43.2476 549.723 43.1296C549.429 42.9925 549.132 42.8687 548.835 42.738C548.58 42.6283 548.325 42.5198 548.067 42.4165C547.766 42.2953 547.46 42.1818 547.155 42.0708C546.897 41.9751 546.638 41.8801 546.377 41.7908C546.066 41.6849 545.756 41.5886 545.437 41.4916C545.179 41.4119 544.92 41.3309 544.658 41.2581C544.558 41.2294 544.457 41.2071 544.356 41.1797C548.03 44.934 550.756 49.5933 552.289 54.736C555.238 53.9184 558.094 52.7627 560.803 51.2888Z" fill="#447BD4"/>
<path d="M500.996 75.2867L515.879 75.2871C515.935 69.1717 516.779 63.0927 518.385 57.2153C515.109 56.2949 511.947 54.9707 508.965 53.2702C504.069 59.4798 501.267 67.2228 500.996 75.2867Z" fill="#104BA9"/>
<path d="M534.557 77.8969L518.397 77.8965C518.454 84.4165 519.185 91.5011 520.457 97.8064C526.077 96.5091 529.102 95.7587 534.568 94.1658L534.557 77.8969Z" fill="#092E69"/>
<path d="M534.481 40.1219C529.17 40.9158 524.513 46.7492 521.584 55.364C525.819 56.363 530.141 56.8982 534.481 56.9621L534.481 40.1219Z" fill="#447BD4"/>
<path d="M534.481 59.5781C529.878 59.5142 525.294 58.9388 520.805 57.8614C519.246 63.5283 518.424 69.3911 518.361 75.2902L534.481 75.2906L534.481 59.5781Z" fill="#104BA9"/>
<path d="M527.079 41.1801C526.978 41.2075 526.878 41.2298 526.777 41.2573C526.514 41.3312 526.255 41.4135 525.993 41.4932C525.681 41.5889 525.372 41.6852 525.06 41.7898C524.796 41.8797 524.536 41.9754 524.277 42.0704C523.973 42.1833 523.669 42.2956 523.369 42.4155C523.109 42.52 522.853 42.6285 522.596 42.7394C522.301 42.8702 522.005 43.0009 521.714 43.131C521.458 43.249 521.205 43.3728 520.952 43.4971C520.665 43.6393 520.38 43.7841 520.097 43.9346C519.848 44.0679 519.6 44.2044 519.352 44.3435C519.074 44.5004 518.798 44.6611 518.524 44.8256C518.276 44.9717 518.031 45.1216 517.792 45.2746C517.522 45.4456 517.256 45.6222 516.99 45.797C516.751 45.9577 516.514 46.1197 516.28 46.2868C516.018 46.4724 515.76 46.6657 515.503 46.8589C515.272 47.033 515.042 47.2065 514.816 47.3819C514.562 47.5828 514.32 47.792 514.064 48.0006C513.843 48.1862 513.621 48.3705 513.405 48.5624C513.157 48.778 512.921 49.0013 512.681 49.2245C512.469 49.4235 512.255 49.6167 512.048 49.8227C511.812 50.0543 511.583 50.2947 511.352 50.5332C511.152 50.7412 510.949 50.9465 510.752 51.1602C510.716 51.1997 510.682 51.2431 510.644 51.2833C513.351 52.7554 516.203 53.9106 519.149 54.7283C520.682 49.5889 523.407 44.9323 527.079 41.1801Z" fill="#447BD4"/>
<path d="M515.891 77.8969L500.997 77.8965C501.228 85.9903 503.37 94.013 507.035 100.666C511.492 99.8586 513.916 99.2741 518.314 98.2294C516.926 91.8015 515.943 84.5528 515.891 77.8969Z" fill="#092E69"/>
</g>
<defs>
<linearGradient id="paint0_linear" x1="919.565" y1="845.049" x2="919.565" y2="298.866" gradientUnits="userSpaceOnUse">
<stop stop-color="#808080" stop-opacity="0.25"/>
<stop offset="0.54" stop-color="#808080" stop-opacity="0.12"/>
<stop offset="1" stop-color="#808080" stop-opacity="0.1"/>
</linearGradient>
<clipPath id="clip0">
<rect width="1100" height="860" fill="white"/>
</clipPath>
</defs>
</svg>
