<svg width="1100" height="860" viewBox="0 0 1100 860" fill="none" xmlns="http://www.w3.org/2000/svg">
<path d="M995.121 651.65C990.498 691.263 980.894 723.068 967.711 748.432C950.168 782.229 920.161 795.845 893.356 810.094C885.61 814.203 877.558 817.706 869.27 820.569C820.493 837.502 765.9 833.01 723.017 824.07C692.94 817.794 662.41 813.933 631.717 812.524C622.963 812.129 614.201 811.933 605.43 811.936C591.904 811.954 277.549 858.632 218.255 738.556C203.615 708.936 204.142 638.695 200.537 594.589C190.336 469.898 396.126 425.722 468.446 372.194C605.252 270.937 703.309 229.471 838.097 333.395C927.88 402.619 1011.94 507.385 995.121 651.65Z" fill="#EDF6FF"/>
<path opacity="0.1" d="M550.223 859.592C853.857 859.592 1100 842.516 1100 821.451C1100 800.387 853.857 783.311 550.223 783.311C246.59 783.311 0.447021 800.387 0.447021 821.451C0.447021 842.516 246.59 859.592 550.223 859.592Z" fill="#536DFE"/>
<path d="M1006.43 261.513H1038.56V815.74H1006.43V261.513Z" fill="#004290"/>
<path d="M1038.56 293.728V261.51H239.766V261.52C239.766 279.308 254.153 293.728 271.9 293.728H1038.56Z" fill="#004290"/>
<path d="M100.659 736.687H915.991V815.265H100.659V736.687Z" fill="#3591ED"/>
<path d="M42.2764 714.524H940.148V736.688H42.2764V714.524Z" fill="#3591ED"/>
<path d="M17.9252 715.225H963.998C972.713 715.225 979.777 706.459 979.777 695.645V695.634C979.777 684.82 972.713 676.054 963.998 676.054H17.9252C9.21063 676.054 2.14673 684.82 2.14673 695.634V695.645C2.14673 706.459 9.21063 715.225 17.9252 715.225Z" fill="#3B6075"/>
<path d="M17.9191 717.888H964.001C973.882 717.888 981.92 707.906 981.92 695.641C981.92 683.372 973.882 673.393 964.001 673.393H17.9191C8.03821 673.393 6.10352e-05 683.372 6.10352e-05 695.641C6.10352e-05 707.909 8.03821 717.888 17.9191 717.888ZM964.001 678.72C971.515 678.72 977.63 686.313 977.63 695.641C977.63 704.972 971.515 712.561 964.001 712.561H17.9191C10.4053 712.561 4.28998 704.968 4.28998 695.641C4.28998 686.309 10.4053 678.72 17.9191 678.72H964.001Z" fill="#FCFCFC"/>
<path d="M484.922 709.521C477.278 709.521 471.081 703.307 471.081 695.642C471.081 687.976 477.278 681.762 484.922 681.762C492.566 681.762 498.763 687.976 498.763 695.642C498.763 703.307 492.566 709.521 484.922 709.521Z" fill="#BDE7FF"/>
<path d="M27.9333 709.521C20.2893 709.521 14.0925 703.307 14.0925 695.642C14.0925 687.976 20.2893 681.762 27.9333 681.762C35.5774 681.762 41.7742 687.976 41.7742 695.642C41.7742 703.307 35.5774 709.521 27.9333 709.521Z" fill="#BDE7FF"/>
<path d="M951.977 709.521C944.333 709.521 938.136 703.307 938.136 695.642C938.136 687.976 944.333 681.762 951.977 681.762C959.621 681.762 965.818 687.976 965.818 695.642C965.818 703.307 959.621 709.521 951.977 709.521Z" fill="#BDE7FF"/>
<path d="M100.659 736.687L689.148 814.281L915.991 815.265V736.687H100.659Z" fill="#004290"/>
<path d="M616.03 565.426H723.137V672.837H616.03V565.426Z" fill="#C29472"/>
<path d="M658.306 565.426H683.207V577.912H658.306V565.426Z" fill="#FFE0C9"/>
<path d="M448.936 565.737H556.044V673.148H448.936V565.737Z" fill="#C29472"/>
<path d="M488.867 565.737H513.767V578.223H488.867V565.737Z" fill="#FFE0C9"/>
<path d="M279.83 565.426H386.938V672.837H279.83V565.426Z" fill="#C29472"/>
<path d="M321.775 565.426H346.675V577.912H321.775V565.426Z" fill="#FFE0C9"/>
<path d="M570.509 252.349H615.277V319.234H570.509V252.349Z" fill="#CCE6F4"/>
<path d="M490.607 428.503V493.226H481.315V428.503H490.607Z" fill="#385369"/>
<path d="M522.893 428.506V493.229H513.6V428.506H522.893Z" fill="#385369"/>
<path d="M582.891 297.662L610.567 332.952L524.822 400.507L497.146 365.218L582.891 297.662Z" fill="#CCE6F4"/>
<path d="M592.893 346.951C577.628 346.951 565.253 334.542 565.253 319.234C565.253 303.927 577.628 291.517 592.893 291.517C608.158 291.517 620.532 303.927 620.532 319.234C620.532 334.542 608.158 346.951 592.893 346.951Z" fill="#385369"/>
<path d="M592.893 339.306C581.84 339.306 572.879 330.32 572.879 319.235C572.879 308.15 581.84 299.164 592.893 299.164C603.947 299.164 612.908 308.15 612.908 319.235C612.908 330.32 603.947 339.306 592.893 339.306Z" fill="#ABC6DB"/>
<path d="M541.727 261.514H644.056V259.903C644.056 247.886 634.338 238.149 622.349 238.149H563.43C551.442 238.149 541.724 247.89 541.724 259.903V261.514H541.727Z" fill="#004290"/>
<path d="M480.35 386.442H525.119V453.326H480.35V386.442Z" fill="#CCE6F4"/>
<path d="M470.465 440.059H535.003V458.679H470.465V440.059Z" fill="#CCE6F4"/>
<path d="M470.465 468.422H535.003V487.042H470.465V468.422Z" fill="#CCE6F4"/>
<path d="M503.483 414.756C488.218 414.756 475.844 402.347 475.844 387.039C475.844 371.732 488.218 359.322 503.483 359.322C518.747 359.322 531.122 371.732 531.122 387.039C531.122 402.347 518.747 414.756 503.483 414.756Z" fill="#385369"/>
<path d="M503.484 407.11C492.43 407.11 483.469 398.124 483.469 387.039C483.469 375.954 492.43 366.968 503.484 366.968C514.537 366.968 523.498 375.954 523.498 387.039C523.498 398.124 514.537 407.11 503.484 407.11Z" fill="#ABC6DB"/>
<path d="M477.345 496.587L449.397 514.108L438.835 535.926L444.661 569.944L449.397 571.982L453.566 537.988L464.895 519.777L481.667 511.875V496.587H477.345Z" fill="#CCE6F4"/>
<path d="M528.607 496.587L556.551 514.108L567.117 535.926L561.291 569.944L556.551 571.982L552.382 537.988L541.057 519.777L524.282 511.875V496.587H528.607Z" fill="#CCE6F4"/>
<path d="M475.834 491.253H530.494V506.377H475.834V491.253Z" fill="#CCE6F4"/>
<path d="M471.803 501.74C471.803 505.3 474.681 508.184 478.229 508.184C481.777 508.184 484.654 505.3 484.654 501.74C484.654 498.181 481.777 495.297 478.229 495.297C474.681 495.297 471.803 498.181 471.803 501.74Z" fill="#ABC6DB"/>
<path d="M473.687 501.74C473.687 504.258 475.72 506.295 478.231 506.295C480.74 506.295 482.776 504.254 482.776 501.74C482.776 499.222 480.743 497.185 478.231 497.185C475.72 497.181 473.687 499.222 473.687 501.74Z" fill="#385369"/>
<path d="M520.063 501.74C520.063 505.3 522.941 508.184 526.489 508.184C530.037 508.184 532.914 505.3 532.914 501.74C532.914 498.181 530.037 495.297 526.489 495.297C522.941 495.297 520.063 498.181 520.063 501.74Z" fill="#ABC6DB"/>
<path d="M521.943 501.74C521.943 504.258 523.976 506.295 526.488 506.295C528.997 506.295 531.033 504.254 531.033 501.74C531.033 499.222 529 497.185 526.488 497.185C523.979 497.181 521.943 499.222 521.943 501.74Z" fill="#385369"/>
<path d="M642.562 261.513H818.366V333.895H642.562V261.513Z" fill="#3591ED"/>
<path d="M642.562 356.535H818.366V374.44H642.562V356.535Z" fill="#3591ED"/>
<path d="M797.562 269.671L903.959 208.067L910.202 218.9L803.805 280.504L797.562 269.671Z" fill="#3591ED"/>
<path d="M962.773 308.819L901.345 202.124L912.152 195.873L973.58 302.568L962.773 308.819Z" fill="#3591ED"/>
<path d="M824.691 357.113L783.048 284.785L787.406 282.265L829.048 354.593L824.691 357.113Z" fill="#4689B0"/>
<path d="M825.577 261.513H892.116V398.034H825.577V261.513Z" fill="#004290"/>
<path d="M671.159 249.832H800.055V315.343H671.159V249.832Z" fill="#2E89E3"/>
<path d="M842.659 317.878H874.464C877.036 317.878 879.119 315.791 879.119 313.213V311.285C879.119 308.711 877.036 306.62 874.464 306.62H842.659C840.087 306.62 838.004 308.707 838.004 311.285V313.213C838.004 315.791 840.087 317.878 842.659 317.878Z" fill="#1A5E8F"/>
<path d="M842.659 336.563H874.464C877.036 336.563 879.119 334.475 879.119 331.897V329.97C879.119 327.395 877.036 325.304 874.464 325.304H842.659C840.087 325.304 838.004 327.391 838.004 329.97V331.897C838.004 334.475 840.087 336.563 842.659 336.563Z" fill="#1A5E8F"/>
<path d="M842.659 355.251H874.464C877.036 355.251 879.119 353.164 879.119 350.585V348.658C879.119 346.08 877.036 343.992 874.464 343.992H842.659C840.087 343.992 838.004 346.08 838.004 348.658V350.585C838.004 353.16 840.087 355.251 842.659 355.251Z" fill="#1A5E8F"/>
<path d="M842.659 373.935H874.464C877.036 373.935 879.119 371.847 879.119 369.269V367.342C879.119 364.764 877.036 362.676 874.464 362.676H842.659C840.087 362.676 838.004 364.764 838.004 367.342V369.269C838.004 371.847 840.087 373.935 842.659 373.935Z" fill="#1A5E8F"/>
<path d="M912.899 238.149C900.466 238.149 890.387 228.042 890.387 215.575C890.387 203.107 900.466 193 912.899 193C925.332 193 935.411 203.107 935.411 215.575C935.411 228.042 925.332 238.149 912.899 238.149Z" fill="#4689B0"/>
<path d="M912.899 229.547C905.204 229.547 898.966 223.291 898.966 215.575C898.966 207.858 905.204 201.603 912.899 201.603C920.594 201.603 926.833 207.858 926.833 215.575C926.833 223.291 920.594 229.547 912.899 229.547Z" fill="#385369"/>
<path d="M817.602 362.815L775.96 290.488L780.317 287.967L821.96 360.295L817.602 362.815Z" fill="#4689B0"/>
<path d="M768.739 272.589C768.693 246.782 789.518 225.823 815.252 225.778C840.986 225.732 861.885 246.616 861.931 272.423C861.977 298.23 841.152 319.188 815.418 319.234C789.683 319.28 768.785 298.396 768.739 272.589Z" fill="#385369"/>
<path d="M782.475 272.504C782.475 290.701 797.185 305.456 815.333 305.456C833.481 305.456 848.191 290.701 848.191 272.504C848.191 254.307 833.481 239.553 815.333 239.553C797.188 239.556 782.475 254.307 782.475 272.504Z" fill="#509BC7"/>
<path d="M959.9 338.86H1022.58C1031.4 338.86 1038.56 331.691 1038.56 322.846V301.648C1038.56 292.804 1031.4 285.635 1022.58 285.635H959.9C951.076 285.635 943.923 292.804 943.923 301.648V322.846C943.923 331.691 951.076 338.86 959.9 338.86Z" fill="#3591ED"/>
<path d="M965.056 369.717C983.597 369.717 997.63 364.774 1006.84 354.984C1020.74 340.197 1018.45 319.945 1018.34 319.091L1016.01 319.376C1016.03 319.575 1018.26 339.418 1005.11 353.384C995.246 363.864 979.382 368.487 957.974 367.128C932.236 365.496 911.981 357.164 894.109 349.81C866.381 338.401 844.472 329.386 817.617 351.769L819.118 353.583C844.887 332.11 866.211 340.884 893.219 351.993C911.257 359.415 931.701 367.825 957.825 369.482C960.305 369.639 962.714 369.717 965.056 369.717Z" fill="#385369"/>
<path d="M917.86 384.55C997.847 384.55 1007.51 316.179 1007.6 315.489L1005.27 315.19C1005.18 315.859 995.739 382.192 917.86 382.192C873.133 382.192 859.331 373.085 848.24 365.766C839.714 360.14 832.98 355.699 815.428 358.152L815.755 360.485C832.427 358.152 838.522 362.171 846.949 367.733C857.703 374.834 872.431 384.55 917.86 384.55Z" fill="#385369"/>
<path d="M966.432 308.431H1030.93V327.328H966.432V308.431Z" fill="#44A1FE"/>
<path d="M690.166 282.588H718.897V365.489H690.166V282.588Z" fill="#2E89E3"/>
<path d="M726.196 282.588H754.928V365.489H726.196V282.588Z" fill="#2E89E3"/>
<path d="M698.479 299.162H743.673C749.889 299.162 754.924 294.113 754.924 287.886V283.785C754.924 277.555 749.886 272.509 743.673 272.509H698.479C692.262 272.509 687.228 277.559 687.228 283.785V287.886C687.228 294.116 692.266 299.162 698.479 299.162Z" fill="#AEE2FE"/>
<path d="M804.117 352.68C804.117 360.571 810.496 366.969 818.366 366.969C826.235 366.969 832.615 360.571 832.615 352.68C832.615 344.789 826.235 338.392 818.366 338.392C810.496 338.388 804.117 344.786 804.117 352.68Z" fill="#385369"/>
<path d="M809.226 352.681C809.226 357.745 813.317 361.849 818.365 361.849C823.414 361.849 827.505 357.745 827.505 352.681C827.505 347.617 823.414 343.513 818.365 343.513C813.317 343.513 809.226 347.617 809.226 352.681Z" fill="#509BC7"/>
<path d="M785.135 565.737H892.243V673.148H785.135V565.737Z" fill="#C29472"/>
<path d="M827.079 565.737H851.979V578.223H827.079V565.737Z" fill="#FFE0C9"/>
<path d="M934.211 504.479C933.778 508.416 930.835 511.589 929.743 515.38C928.105 521.103 930.93 527.25 934.823 531.731C937.96 535.292 941.758 538.182 945.998 540.234C950.238 542.286 954.834 543.46 959.521 543.686C960.898 543.807 962.285 543.653 963.604 543.232C964.778 542.744 965.837 542.005 966.707 541.064C969.627 538.066 971.2 533.918 971.823 529.733C972.446 525.548 972.208 521.291 971.965 517.07C971.965 516.196 971.808 515.33 971.502 514.514C971.105 513.738 970.558 513.052 969.894 512.498C967.789 510.524 965.47 508.803 962.981 507.368C961.913 506.763 960.767 506.157 960.085 505.109C959.617 504.275 959.312 503.355 959.189 502.402L958.423 498.43C958.288 497.284 957.905 496.184 957.302 495.208C955.955 493.355 953.373 493.1 951.112 493.009L942.804 492.676C940.223 492.573 936.828 491.816 934.306 492.337C931.933 492.816 932.734 495.032 933.161 497.043C933.779 499.474 934.131 501.969 934.211 504.479Z" fill="#FFC0C6"/>
<path opacity="0.1" d="M934.211 504.479C933.778 508.416 930.835 511.589 929.743 515.38C928.105 521.103 930.93 527.25 934.823 531.731C937.96 535.292 941.758 538.182 945.998 540.234C950.238 542.286 954.834 543.46 959.521 543.686C960.898 543.807 962.285 543.653 963.604 543.232C964.778 542.744 965.837 542.005 966.707 541.064C969.627 538.066 971.2 533.918 971.823 529.733C972.446 525.548 972.208 521.291 971.965 517.07C971.965 516.196 971.808 515.33 971.502 514.514C971.105 513.738 970.558 513.052 969.894 512.498C967.789 510.524 965.47 508.803 962.981 507.368C961.913 506.763 960.767 506.157 960.085 505.109C959.617 504.275 959.312 503.355 959.189 502.402L958.423 498.43C958.288 497.284 957.905 496.184 957.302 495.208C955.955 493.355 953.373 493.1 951.112 493.009L942.804 492.676C940.223 492.573 936.828 491.816 934.306 492.337C931.933 492.816 932.734 495.032 933.161 497.043C933.779 499.474 934.131 501.969 934.211 504.479Z" fill="black"/>
<path d="M986.757 681.124L983.198 719.986C982.269 730.179 981.322 740.413 979.5 750.475C978.901 753.942 978.134 757.391 977.259 760.811C974.826 770.306 971.297 779.585 970.158 789.319C970.122 789.599 970.092 789.916 970.062 790.172C969.829 792.32 969.625 794.493 968.864 796.498C968.265 797.984 967.42 799.339 966.803 800.807C965.604 803.743 965.412 806.989 965.263 810.17C960.943 807.742 956.213 806.123 951.307 805.396C948.91 805.044 946.303 804.799 944.715 803.009C942.918 801.063 943.127 798.085 943.427 795.471C944.37 787.355 945.308 779.243 946.243 771.135C946.555 767.646 947.156 764.189 948.041 760.799C948.365 759.671 948.754 758.561 949.149 757.451C949.695 755.923 950.246 754.396 950.66 752.826C951.233 750.304 951.629 747.746 951.846 745.17C952.811 737.006 953.973 728.86 954.992 720.702L955.046 720.272C956.574 707.907 957.736 695.482 957.401 683.028C957.353 681.184 957.275 679.339 957.155 677.489C956.987 674.81 956.742 673.39 958.953 671.713C961.416 669.863 964.657 668.568 967.474 667.356C968.99 666.7 985.684 660.792 986.05 662.093C986.825 664.856 987.228 667.71 987.248 670.579C987.282 674.1 987.118 677.621 986.757 681.124Z" fill="#043671"/>
<path d="M919.638 663.248C919.885 671.253 921.163 679.191 922.44 687.099L925.074 703.397C926.515 712.331 928.021 721.44 932.24 729.439C935.399 735.427 939.943 740.534 944.059 745.9C954.173 759.096 961.773 774.049 971.362 787.631C974.152 791.579 978.136 795.852 982.891 795.025C986.013 794.488 988.279 791.88 990.726 789.876C993.619 787.51 997.103 785.777 999.381 782.808C1001.66 779.838 1002.11 774.912 999.02 772.799C997.965 772.081 996.681 771.809 995.488 771.35C990.708 769.539 987.61 764.855 985.646 760.122C983.681 755.39 982.481 750.313 979.86 745.912C974.158 736.357 962.496 731.31 957.59 721.32C954.842 715.73 954.576 709.246 954.372 703.047L953.835 687.165C953.775 685.426 953.733 683.621 954.438 682.034C956.312 677.808 961.978 677.41 966.57 676.873C971.778 676.264 976.824 674.67 981.439 672.176C984.085 670.746 986.664 668.923 988.068 666.267C989.358 663.852 989.533 661.009 989.684 658.268L991.275 629.48C991.413 627.005 991.534 624.439 990.672 622.121C988.484 616.29 981.131 614.383 974.918 614.66C963.358 615.179 952.69 620.16 941.769 623.528C939.063 624.361 936.345 625.11 933.554 625.671C931.143 626.16 928.13 625.961 925.816 626.745C921.669 628.146 921.771 637.237 921.187 641.004C919.981 648.354 919.462 655.801 919.638 663.248Z" fill="#043671"/>
<path d="M980.948 795.222C981.959 796.24 982.288 797.729 982.551 799.134C984.014 806.933 984.775 814.847 984.825 822.78C984.759 823.52 984.907 824.264 985.25 824.924C985.537 825.315 985.923 825.623 986.369 825.817C989.294 827.205 992.687 825.269 995.128 823.144C999.645 819.208 1003.47 813.92 1003.73 807.947C1003.79 806.411 1003.62 804.857 1003.89 803.338C1004.28 801.088 1005.6 799.128 1006.76 797.163C1008.75 793.814 1010.36 790.255 1011.55 786.552C1011.99 785.159 1012.29 783.408 1011.19 782.438C1010.81 782.133 1010.37 781.904 1009.89 781.765L996.671 776.882C995.522 776.459 992.675 783.742 992.226 784.54C991.119 786.487 990.018 787.588 987.798 788.041C985.579 788.494 982.839 787.838 980.721 788.964C977.131 790.863 978.92 793.192 980.948 795.222Z" fill="#385369"/>
<path d="M960.765 800.616C960.532 800.131 960.206 799.7 959.808 799.35C959.226 798.963 958.563 798.729 957.876 798.666C955.482 798.238 952.644 797.959 950.986 799.82C949.436 801.561 949.703 804.396 948.41 806.358C947.999 806.952 947.441 807.487 947.088 808.141C946.648 809.142 946.453 810.24 946.518 811.339C946.449 814.364 946.381 817.401 946.586 820.421C946.751 822.953 947.156 825.61 948.678 827.595C951.117 830.781 955.516 831.238 959.415 831.44L962.578 831.613C963.447 831.719 964.329 831.634 965.165 831.363C965.683 831.115 966.148 830.76 966.532 830.32C966.916 829.879 967.211 829.363 967.399 828.801C969.046 824.534 966.442 819.939 964.834 815.66C962.982 810.732 963.313 805.27 960.765 800.616Z" fill="#385369"/>
<path d="M932.17 482.99C932.127 482.544 932.192 482.094 932.358 481.678C932.848 480.801 934.13 481.065 935.099 481.286C938.989 482.279 943.091 481.378 947.102 481.611C951.114 481.843 955.627 483.873 956.432 487.858C959.342 485.771 961.85 483.161 963.832 480.157C964.945 478.471 965.913 476.54 965.762 474.517C965.544 471.598 963.13 469.416 960.922 467.564L954.266 462.046C953.389 461.231 952.378 460.579 951.277 460.121C949.74 459.587 948.058 459.845 946.437 459.845C941.597 459.845 936.405 457.607 932.091 459.845C930.276 460.783 928.927 462.395 927.62 463.965L921.673 471.102C921.223 471.557 920.894 472.12 920.717 472.739C920.547 473.609 920.989 474.468 921.146 475.344C921.425 476.939 920.747 478.643 921.267 480.176C922.133 482.714 925.182 483.076 927.045 484.535C927.735 485.075 928.824 486.92 929.653 486.896C931.111 486.865 932.128 484.167 932.17 482.99Z" fill="#3F3D56"/>
<path d="M943.227 503.974C953.902 503.974 962.556 495.556 962.556 485.172C962.556 474.789 953.902 466.371 943.227 466.371C932.553 466.371 923.899 474.789 923.899 485.172C923.899 495.556 932.553 503.974 943.227 503.974Z" fill="#FFC0C6"/>
<path d="M947.825 525.446C947.186 523.609 945.982 522.023 944.388 520.918C942.794 519.813 940.892 519.245 938.955 519.297C938.4 519.403 937.825 519.329 937.314 519.086C937.025 518.864 936.793 518.575 936.638 518.244C935.494 516.17 934.573 513.979 933.889 511.71C933.589 510.705 933.176 509.52 932.164 509.261C931.35 509.051 930.517 509.58 929.972 510.224C929.489 510.915 928.965 511.576 928.403 512.203C926.008 514.333 921.816 512.39 919.306 514.345C918.893 514.664 918.552 515.073 918.108 515.368C917.677 515.632 917.212 515.834 916.725 515.97C911.854 517.562 907.079 519.436 902.424 521.583C904.101 531.715 905.813 542.04 909.742 551.516C911.611 556.028 913.725 560.45 915.222 565.101C918.54 575.408 918.683 586.436 918.725 597.272C918.725 604.684 918.725 612.253 916.33 619.269C915.791 620.857 915.132 622.433 914.982 624.082C914.833 625.73 915.324 627.596 916.671 628.582C917.451 629.099 918.346 629.415 919.276 629.503C923.415 630.105 927.583 629.01 931.655 628.059C942.573 625.52 953.712 624.064 964.821 622.644L983.446 620.237C984.782 620.143 986.09 619.803 987.303 619.233C990.71 617.361 991.034 612.211 988.914 608.938C987.902 607.368 986.47 606.08 985.614 604.42C984.758 602.759 984.692 600.425 986.159 599.275C989.153 596.929 988.255 592.579 988.399 588.777C988.798 578.139 988.744 567.51 988.237 556.889C988.085 554.686 988.049 552.477 988.129 550.27C988.339 546.528 989.261 542.864 990.183 539.224L995.843 516.842C994.364 514.496 991.531 513.003 988.854 512.33C986.177 511.656 983.38 511.457 980.739 510.633C975.349 508.948 970.51 504.676 964.863 505.074C964.435 505.081 964.013 505.184 963.629 505.374C962.36 506.102 962.557 507.943 962.479 509.412C962.3 512.666 959.916 515.38 957.293 517.287C954.67 519.194 951.664 520.578 949.25 522.75C948.831 523.068 948.486 523.474 948.24 523.939C947.994 524.405 947.852 524.919 947.825 525.446Z" fill="#04499A"/>
<path d="M872.856 546.851C871.59 547.71 870.243 548.433 868.838 549.01C867.503 549.561 866.076 549.998 864.984 550.96C864.443 551.45 863.989 552.035 863.642 552.688C862.995 553.886 862.668 555.242 862.695 556.616C862.722 557.99 863.102 559.331 863.795 560.5C864.488 561.669 865.47 562.622 866.636 563.26C867.803 563.899 869.112 564.199 870.428 564.13C872.182 564.035 873.839 563.294 875.448 562.566L888.934 556.443C891.217 555.411 893.681 554.208 894.761 551.865C894.885 551.646 894.932 551.389 894.895 551.137C894.79 550.861 894.591 550.636 894.336 550.504C891.297 548.441 888.639 545.825 886.488 542.78C885.936 541.995 885.274 540.146 884.473 539.671C881.621 538.018 875.144 545.306 872.856 546.851Z" fill="#FFC0C6"/>
<path d="M1015.22 541.577L1020.04 547.199C1021.07 548.401 1022.11 549.602 1023.05 550.9C1025.37 554.157 1027.22 557.73 1028.57 561.514C1029.61 564.32 1030.48 567.311 1030.12 570.291C1029.87 571.818 1029.47 573.315 1028.91 574.754C1028.03 577.522 1026.94 580.213 1025.64 582.804C1024.55 584.77 1023.33 586.651 1021.97 588.433C1018.24 593.482 1014.16 598.25 1009.76 602.7C1008.11 604.364 1007.4 607.061 1006.7 609.307C1005.38 613.458 1002.23 616.696 999.193 619.76C998.215 620.816 997.133 621.766 995.964 622.595C994.213 623.749 992.165 624.343 990.082 624.301C989.173 624.307 988.273 624.116 987.441 623.743C985.359 622.734 984.3 620.277 984.083 617.934C983.89 615.805 984.239 613.662 985.094 611.71C987.859 605.457 994.958 602.748 999.975 598.182C1002.92 595.509 1005.17 592.145 1007.39 588.823C1008.9 586.747 1010.16 584.494 1011.14 582.113C1012.26 579.055 1011.82 575.439 1012.8 572.339C1013.22 571.024 1013.98 569.84 1014.4 568.537C1014.81 567.233 1014.96 565.689 1014.17 564.566C1013.59 563.848 1012.84 563.287 1011.99 562.932C1008.79 561.274 1005.2 559.136 1004.59 555.513C1004.34 553.507 1004.85 551.481 1006.02 549.849C1007.18 548.236 1008.54 546.783 1010.06 545.523C1011.46 544.238 1013.82 542.814 1015.22 541.577Z" fill="#FFC0C6"/>
<path d="M868.311 555.148C867.485 553.393 866.446 551.602 864.77 550.73C863.955 550.362 863.076 550.172 862.188 550.172C861.3 550.172 860.421 550.362 859.605 550.73C857.982 551.466 856.46 552.428 855.083 553.591L851.031 556.723C850.113 557.354 849.301 558.14 848.627 559.048C847.984 560.151 847.559 561.377 847.376 562.655C846.802 565.582 846.337 568.593 846.739 571.556C847.382 576.364 850.136 580.523 853.166 584.177C855.06 586.449 857.402 588.745 860.283 588.847C861.528 588.889 862.911 588.372 863.428 587.188C863.608 586.718 863.703 586.216 863.709 585.71C864.019 580.373 862.194 575.162 860.07 570.3C859.496 568.977 858.877 567.607 858.922 566.159C858.905 565.913 858.965 565.667 859.095 565.461C859.277 565.261 859.521 565.136 859.783 565.107C862.693 564.506 867.709 566.874 869.746 563.49C871.066 561.254 869.252 557.137 868.311 555.148Z" fill="#FFC0C6"/>
<path d="M931.886 476.544C931.849 476.097 931.914 475.648 932.075 475.232C932.554 474.349 933.806 474.619 934.751 474.839C938.55 475.833 942.555 474.931 946.471 475.164C950.387 475.397 954.788 477.427 955.58 481.412C958.418 479.322 960.866 476.712 962.804 473.711C963.891 472.019 964.836 470.088 964.689 468.065C964.476 465.146 962.113 462.963 959.963 461.118L953.465 455.6C952.611 454.785 951.625 454.133 950.553 453.675C949.046 453.141 947.41 453.399 945.827 453.399C941.101 453.399 936.033 451.161 931.821 453.399C930.049 454.337 928.732 455.949 927.456 457.519L921.643 464.656C921.206 465.112 920.887 465.675 920.716 466.293C920.55 467.163 920.982 468.022 921.135 468.898C921.407 470.492 920.745 472.197 921.253 473.724C922.098 476.268 925.075 476.63 926.895 478.089C927.568 478.629 928.631 480.474 929.441 480.45C930.841 480.419 931.833 477.721 931.886 476.544Z" fill="#3F3D56"/>
<path d="M892.184 529.387C891.419 529.866 890.746 530.468 890.195 531.169C889.502 532.184 889.358 533.49 888.761 534.535C887.483 536.821 884.488 537.639 882.625 539.514C882.323 539.77 882.112 540.111 882.022 540.489C882.011 540.999 882.188 541.497 882.523 541.893L891.527 555.519C894.541 555.774 897.398 553.963 900.399 554.207C901.515 554.294 902.666 554.665 903.739 554.346C904.505 554.017 905.225 553.594 905.878 553.087C907.686 551.996 910.049 551.868 911.55 550.435C913.051 549.002 913.177 546.895 913.159 544.939C913.186 543.242 913.006 541.548 912.623 539.891C911.297 534.668 907.144 530.641 904.54 526.01C903.268 523.752 902.581 522.435 899.899 523.984C897.217 525.534 894.722 527.6 892.184 529.387Z" fill="#04499A"/>
<path d="M1000.67 521.646C1002.37 522.745 1003.91 524.08 1005.23 525.611C1006.61 527.376 1007.39 529.546 1008.72 531.353C1010.05 533.161 1011.75 534.462 1013.21 536.077C1015.43 538.523 1016.92 541.5 1018.39 544.458C1014.8 549.103 1010.88 553.492 1006.67 557.593C1006.2 558.142 1005.58 558.544 1004.89 558.75C1004.41 558.801 1003.94 558.734 1003.5 558.556C1003.06 558.378 1002.67 558.095 1002.37 557.732C1001.72 557.057 1001.26 556.214 1000.63 555.509C999.159 554.001 997.196 553.059 995.091 552.852C993.004 552.65 990.903 552.619 988.811 552.761C988.352 552.815 987.886 552.738 987.47 552.538C987.16 552.327 986.909 552.041 986.742 551.707C984.314 547.561 985.073 542.355 985.941 537.62L987.925 526.774C988.214 524.703 988.771 522.678 989.581 520.749C990.334 519.152 992.009 516.441 994.084 516.923C996.159 517.405 998.914 520.393 1000.67 521.646Z" fill="#04499A"/>
<path d="M757.449 437.957C757.093 436.886 756.653 435.842 756.133 434.836L757.539 431.741C757.943 431.123 757.854 430.31 757.326 429.791L750.959 423.527C750.431 423.008 749.605 422.92 748.976 423.318L745.79 424.684C744.768 424.173 743.707 423.74 742.618 423.39L741.397 420.229C741.238 419.511 740.592 418.998 739.844 418.998H730.841C730.093 418.998 729.447 419.511 729.288 420.229L727.996 423.42C734.574 425.727 748.976 430.697 748.053 445.154C748.053 451.549 743.148 456.838 736.845 457.572C753.858 456.248 757.028 444.046 757.449 437.957Z" fill="#004290"/>
<path d="M722.324 425.971C723.348 425.46 724.41 425.027 725.499 424.677L725.603 424.714C732.234 427.036 746.492 432.031 745.573 446.414C745.573 439.518 739.866 433.907 732.852 433.907C716.928 433.907 711.459 447.024 710.715 453.583L707.495 452.372C706.764 452.215 706.243 451.579 706.243 450.844V441.985C706.243 441.249 706.764 440.614 707.495 440.457L710.709 439.261C711.064 438.191 711.505 437.147 712.025 436.141L710.637 432.999C710.233 432.381 710.322 431.568 710.85 431.049L717.222 424.784C717.751 424.264 718.577 424.177 719.206 424.574L722.324 425.971Z" fill="#F15317"/>
<path d="M713.682 459.433C713.161 458.427 712.72 457.383 712.364 456.312C713.109 449.755 718.203 436.641 734.142 436.641C727.121 436.641 721.789 442.251 721.789 449.146C721.34 462.959 734.608 469.799 741.475 471.296L740.586 474.07C740.427 474.789 739.78 475.301 739.031 475.301H730.012C729.263 475.301 728.615 474.789 728.457 474.07L727.226 470.906C726.136 470.556 725.072 470.123 724.048 469.612L720.864 470.982C720.234 471.379 719.407 471.292 718.878 470.772L712.5 464.509C711.971 463.989 711.882 463.177 712.287 462.558L713.682 459.433Z" fill="#004290"/>
<path d="M759.211 440.873L761.978 441.946C762.708 442.102 763.229 442.737 763.229 443.472V452.322C763.229 453.056 762.708 453.692 761.978 453.848L758.763 455.052C758.407 456.122 757.967 457.165 757.448 458.17L758.838 461.298C759.242 461.916 759.153 462.727 758.625 463.247L752.258 469.505C751.73 470.024 750.904 470.111 750.276 469.714L747.109 468.341C746.086 468.852 745.025 469.284 743.937 469.634C737.081 468.139 723.419 461.694 723.867 447.892C723.867 454.781 729.554 460.239 736.562 460.239C754.931 459.011 757.932 447.892 759.211 440.873Z" fill="#004290"/>
<path d="M594.381 499.145C594.381 491.475 600.143 485.496 607.978 485.496C612.414 485.496 615.523 486.926 618.217 489.309L614.072 494.422C612.289 492.862 610.466 491.952 607.978 491.952C604.33 491.952 601.511 495.158 601.511 499.231C601.511 503.478 604.372 506.511 608.351 506.511C610.051 506.511 611.336 506.121 612.372 505.427V502.221H607.398V496.935H619.005V508.764C616.352 511.06 612.621 512.837 608.061 512.837C600.268 512.793 594.381 507.16 594.381 499.145Z" fill="#F15317"/>
<path d="M622.757 507.195L632.206 499.513C634.568 497.604 635.438 496.302 635.438 494.696C635.438 493.004 634.32 491.962 632.62 491.962C630.921 491.962 629.595 493.004 627.606 495.434L622.882 491.268C625.575 487.536 628.228 485.496 633.159 485.496C638.671 485.496 642.442 488.968 642.442 494.132C642.442 498.429 640.37 500.685 636.599 503.55L632.289 506.761H642.691V512.837H622.757V507.195Z" fill="#F15317"/>
<path d="M646.484 485.496H658.383C662.239 485.496 664.892 486.584 666.592 488.413C668.084 490.024 668.83 492.114 668.83 494.9C668.83 499.079 666.758 501.866 663.648 503.302L669.659 512.837H661.575L656.517 504.521H653.449V512.837H646.443V485.496H646.484ZM658.093 498.644C660.456 498.644 661.824 497.381 661.824 495.335C661.824 493.202 660.373 492.07 658.051 492.07H653.491V498.644H658.093Z" fill="#F15317"/>
<path d="M676.648 506.349C677.576 506.349 678.347 506.652 678.962 507.257C679.577 507.85 679.884 508.613 679.884 509.546C679.884 510.48 679.577 511.249 678.962 511.855C678.347 512.447 677.576 512.744 676.648 512.744C675.709 512.744 674.931 512.441 674.316 511.836C673.713 511.23 673.412 510.467 673.412 509.546C673.412 508.626 673.713 507.862 674.316 507.257C674.931 506.652 675.709 506.349 676.648 506.349Z" fill="#F15317"/>
<path fill-rule="evenodd" clip-rule="evenodd" d="M698.18 485.49L705.289 504.111L712.36 485.49H720.752V512.837H714.077V505.186L714.562 494.89L707.555 512.837H702.985L695.998 494.913L696.483 505.186V512.837H689.827V485.49H698.18ZM733.24 507.354L731.27 512.837H724.174L735.147 485.49H741.129L752.163 512.837H745.066L743.076 507.354H733.24ZM778.028 503.236L777.997 503.633C777.767 506.586 776.582 508.938 774.432 510.653C772.3 512.364 769.505 513.202 766.081 513.202C762.319 513.202 759.316 512.026 757.119 509.646L757.117 509.644C754.938 507.256 753.869 504.003 753.869 499.931V498.304C753.869 495.699 754.364 493.388 755.365 491.38C756.368 489.369 757.802 487.821 759.668 486.747C761.545 485.662 763.713 485.125 766.16 485.125C769.533 485.125 772.29 485.964 774.395 487.676C776.505 489.392 777.712 491.796 778.036 494.849L778.079 495.255H771.412L771.383 494.917C771.243 493.25 770.745 492.117 769.954 491.437L769.952 491.435L769.95 491.433C769.167 490.739 767.928 490.357 766.16 490.357C764.283 490.357 762.929 490.978 762.028 492.182C761.125 493.393 760.63 495.327 760.604 498.051V500.059C760.604 502.91 761.069 504.918 761.935 506.153C762.795 507.359 764.149 507.988 766.081 507.988C767.864 507.988 769.118 507.612 769.914 506.927C770.723 506.231 771.217 505.136 771.344 503.575L771.371 503.236H778.028ZM806.473 512.837H799.818V501.432H789.039V512.837H782.384V485.49H789.039V496.273H799.818V485.49H806.473V512.837ZM819.189 512.837H812.534V485.49H819.189V512.837ZM849.26 512.837H842.775L831.846 496.204V512.837H825.19V485.49H831.675L842.624 502.159V485.49H849.26V512.837ZM872.928 501.305H861.582V507.695H874.898V512.837H854.926V485.49H874.859V490.668H861.582V496.273H872.928V501.305ZM735.1 502.176H741.214L738.14 493.684L735.1 502.176Z" fill="#004290"/>
</svg>
