<svg width="1100" height="860" viewBox="0 0 1100 860" fill="none" xmlns="http://www.w3.org/2000/svg">
<g clip-path="url(#clip0)">
<path opacity="0.1" d="M1048.26 645.912C1047.19 646.69 1046.21 647.446 1045.16 648.181C1041.3 650.905 1037.26 653.364 1033.07 655.542C1011.12 667.099 984.048 672.744 957.684 676.579C898.555 685.185 838.189 686.857 778.078 688.498C615.66 692.95 452.847 697.392 290.824 687.134C226.809 683.087 161.385 676.312 103.376 655.542C95.0611 652.573 86.9098 649.3 78.9221 645.721C62.7582 638.467 47.2344 629.637 34.3246 619.092C22.1937 609.207 12.3566 597.852 6.47789 584.942C-5.78108 558.058 0.705816 527.86 14.7039 501.508C20.5176 490.847 27.0739 480.607 34.3246 470.863C45.1326 456.025 57.0501 441.614 67.9221 426.787C106.609 374.082 131.852 307.403 96.1423 253.346C85.8784 237.816 71.0482 224.181 62.6835 207.97C52.0142 187.231 52.8358 164.202 56.2286 141.833C56.6696 138.993 57.1355 136.181 57.6263 133.397C63.4197 100.228 74.3236 64.4918 107.942 43.785C142.863 22.2686 192.454 23.3551 235.792 31.003C303.19 43.018 365.36 68.0281 428.191 90.6096C491.022 113.191 556.755 133.823 625.807 136.039C686.781 137.999 757.903 123.332 798.371 85.2093C837.677 48.1841 911.561 45.3614 964.811 67.7299C1001.36 83.0789 1028.63 110.731 1040.14 141.833C1042.47 148.078 1044.14 154.546 1045.14 161.134C1046.06 167.156 1046.36 173.255 1046.04 179.338C1045.88 182.342 1045.57 185.314 1045.14 188.253C1036.24 249.628 972.195 298.04 933.262 352.864C914.239 379.642 900.807 411.81 913.887 440.687C933.839 484.689 1003.22 500.336 1045.12 533.079C1053 539.039 1059.95 546.148 1065.71 554.17C1086.04 583.313 1078.54 622.671 1048.26 645.912Z" fill="#6C63FF"/>
<path opacity="0.1" d="M480.095 856.872C650.965 856.872 789.482 850.701 789.482 843.089C789.482 835.477 650.965 829.306 480.095 829.306C309.225 829.306 170.708 835.477 170.708 843.089C170.708 850.701 309.225 856.872 480.095 856.872Z" fill="#6C63FF"/>
<path d="M663.724 818.846V827.176H416.997V820.412C432.044 814.846 445.098 804.949 454.508 791.973C463.918 778.996 469.259 763.524 469.857 747.516C470.454 731.507 466.281 715.681 457.864 702.042C449.448 688.402 437.167 677.562 422.577 670.895H662.049C647.785 677.414 635.723 687.925 627.323 701.151C618.923 714.378 614.546 729.753 614.724 745.414C614.901 761.074 619.624 776.347 628.322 789.381C637.019 802.414 649.316 812.65 663.724 818.846Z" fill="#C8CAD7"/>
<path opacity="0.1" d="M662.049 670.895C651.043 675.939 641.307 683.377 633.554 692.664C625.8 701.951 620.226 712.852 617.238 724.568H467.399C464.41 712.853 458.834 701.953 451.081 692.666C443.328 683.379 433.592 675.94 422.588 670.895H662.049Z" fill="black"/>
<path d="M134.433 628.459V675.22C134.433 701.039 153.36 721.97 176.715 721.97H902.672C926.027 721.97 944.954 701.039 944.954 675.22V628.459H134.433Z" fill="#C8CAD7"/>
<path opacity="0.1" d="M663.724 818.846V827.176H416.997V820.412C423.761 817.899 430.159 814.496 436.02 810.293H648.595C653.318 813.674 658.39 816.542 663.724 818.846Z" fill="black"/>
<path d="M735.122 812.892H345.599C340.001 812.892 335.463 817.422 335.463 823.011V827.452C335.463 833.041 340.001 837.572 345.599 837.572H735.122C740.72 837.572 745.258 833.041 745.258 827.452V823.011C745.258 817.422 740.72 812.892 735.122 812.892Z" fill="#C8CAD7"/>
<path d="M944.954 116.081C944.94 104.896 940.479 94.1738 932.551 86.2707C924.622 78.3675 913.876 73.9298 902.672 73.9326H176.747C165.538 73.9213 154.783 78.3553 146.848 86.2594C138.912 94.1635 134.447 104.89 134.433 116.081V637.554H944.954V116.081Z" fill="#333333"/>
<path d="M922.89 134.913V582.997C922.892 585.726 922.354 588.429 921.309 590.951C920.263 593.473 918.73 595.764 916.797 597.694C914.863 599.624 912.568 601.155 910.042 602.199C907.516 603.243 904.809 603.779 902.075 603.778H177.398C174.664 603.779 171.956 603.243 169.43 602.199C166.904 601.155 164.609 599.624 162.676 597.694C160.743 595.764 159.209 593.473 158.164 590.951C157.118 588.429 156.581 585.726 156.582 582.997V134.913C156.582 129.402 158.775 124.116 162.679 120.219C166.583 116.321 171.877 114.132 177.398 114.132H902.021C904.759 114.125 907.472 114.657 910.003 115.698C912.535 116.74 914.836 118.269 916.775 120.2C918.713 122.13 920.251 124.423 921.301 126.948C922.35 129.473 922.89 132.18 922.89 134.913Z" fill="white"/>
<path d="M539.704 103.747C545.095 103.747 549.466 99.3839 549.466 94.0011C549.466 88.6184 545.095 84.2549 539.704 84.2549C534.312 84.2549 529.941 88.6184 529.941 94.0011C529.941 99.3839 534.312 103.747 539.704 103.747Z" fill="white"/>
<path d="M539.704 701.199C552.998 701.199 563.774 690.44 563.774 677.169C563.774 663.897 552.998 653.139 539.704 653.139C526.411 653.139 515.634 663.897 515.634 677.169C515.634 690.44 526.411 701.199 539.704 701.199Z" fill="white"/>
<path d="M337.148 134.646V603.319H180.017C176.972 603.321 173.958 602.796 171.145 601.775C168.332 600.754 165.776 599.257 163.623 597.37C161.471 595.483 159.763 593.242 158.599 590.775C157.435 588.309 156.836 585.666 156.838 582.997V144.803L157.681 142.042L159.939 134.646H337.148Z" fill="#F0F0F0"/>
<path d="M336.615 132.091V175.23H156.582V134.914L157.34 132.091H336.615Z" fill="#4B4BD8"/>
<path d="M922.89 134.913H156.582C156.582 132.185 157.121 129.483 158.167 126.962C159.213 124.442 160.746 122.151 162.679 120.223C164.613 118.294 166.907 116.764 169.433 115.721C171.958 114.677 174.665 114.141 177.398 114.143H902.021C904.759 114.134 907.471 114.665 910.003 115.705C912.534 116.745 914.835 118.274 916.774 120.204C918.713 122.133 920.251 124.426 921.301 126.95C922.35 129.474 922.89 132.18 922.89 134.913Z" fill="#C8CAD7"/>
<path d="M177.398 129.726C180.273 129.726 182.604 127.399 182.604 124.528C182.604 121.657 180.273 119.33 177.398 119.33C174.522 119.33 172.191 121.657 172.191 124.528C172.191 127.399 174.522 129.726 177.398 129.726Z" fill="#EDEDF4"/>
<path d="M193.007 129.726C195.882 129.726 198.214 127.399 198.214 124.528C198.214 121.657 195.882 119.33 193.007 119.33C190.131 119.33 187.8 121.657 187.8 124.528C187.8 127.399 190.131 129.726 193.007 129.726Z" fill="#EDEDF4"/>
<path d="M208.616 129.726C211.491 129.726 213.822 127.399 213.822 124.528C213.822 121.657 211.491 119.33 208.616 119.33C205.74 119.33 203.409 121.657 203.409 124.528C203.409 127.399 205.74 129.726 208.616 129.726Z" fill="#EDEDF4"/>
<path d="M291.601 151.083H183.49V161.021H291.601V151.083Z" fill="white"/>
<path opacity="0.5" d="M291.601 199.548H183.49V209.486H291.601V199.548Z" fill="#333333"/>
<path opacity="0.5" d="M291.601 233.814H183.49V243.752H291.601V233.814Z" fill="#333333"/>
<path opacity="0.5" d="M291.601 268.08H183.49V278.018H291.601V268.08Z" fill="#333333"/>
<path opacity="0.5" d="M291.601 302.337H183.49V312.275H291.601V302.337Z" fill="#333333"/>
<path opacity="0.5" d="M291.601 336.604H183.49V346.542H291.601V336.604Z" fill="#333333"/>
<path opacity="0.5" d="M291.601 370.869H183.49V380.807H291.601V370.869Z" fill="#333333"/>
<path opacity="0.5" d="M291.601 405.125H183.49V415.063H291.601V405.125Z" fill="#333333"/>
<g opacity="0.1">
<path opacity="0.1" d="M323.545 421.892C323.55 421.849 323.55 421.806 323.545 421.764C324.043 419.901 324.304 417.983 324.323 416.055C324.162 417.597 323.902 419.126 323.545 420.635C323.449 421.048 323.449 421.478 323.545 421.892Z" fill="black"/>
<path opacity="0.1" d="M308.832 445.452C309.228 446.361 309.438 447.338 309.451 448.328C309.566 446.963 309.354 445.59 308.832 444.323C308.514 443.551 307.95 442.906 307.226 442.488C306.502 442.07 305.66 441.902 304.831 442.012C302.697 442.513 301.748 445.325 299.635 445.996C297.854 446.56 295.901 445.293 295.048 443.631C294.328 441.9 294.028 440.024 294.173 438.156C294.173 436.026 294.173 433.949 294.173 431.85C294.173 429.56 294.098 427.089 292.679 425.289C290.919 423.041 286.79 422.093 284.026 422.157C282.19 422.178 280.43 422.889 279.097 424.149C278.423 424.823 277.607 425.339 276.708 425.658C275.809 425.976 274.85 426.091 273.901 425.992C273.061 425.868 272.274 425.507 271.631 424.953C270.989 424.398 270.518 423.672 270.274 422.86C270.06 422.051 270.124 421.188 269.879 420.378C269.292 418.397 267.179 417.375 265.76 415.873C264.437 414.408 263.68 412.519 263.627 410.547C263.525 411.711 263.662 412.884 264.029 413.993C264.396 415.103 264.985 416.127 265.76 417.002C267.179 418.504 269.292 419.537 269.879 421.518C270.124 422.317 270.06 423.19 270.274 424C270.522 424.81 270.995 425.533 271.636 426.087C272.278 426.64 273.063 427.003 273.901 427.132C274.851 427.229 275.81 427.113 276.709 426.792C277.608 426.472 278.424 425.954 279.097 425.278C280.436 424.037 282.188 423.335 284.016 423.308C286.779 423.222 290.908 424.202 292.668 426.439C294.087 428.239 294.151 430.7 294.162 433.001C294.162 435.131 294.162 437.208 294.162 439.306C294.017 441.178 294.317 443.058 295.037 444.792C295.89 446.454 297.843 447.711 299.625 447.146C301.759 446.475 302.665 443.674 304.821 443.162C305.648 443.052 306.489 443.217 307.214 443.631C307.939 444.044 308.507 444.684 308.832 445.452Z" fill="black"/>
<path opacity="0.1" d="M329.562 438.518C329.1 439.811 328.373 440.993 327.429 441.991C324.64 445.314 321.863 448.641 319.096 451.971C315.596 456.179 311.884 461.047 312.15 466.415C312.406 461.494 315.842 457.02 319.096 453.111L327.429 443.12C328.373 442.126 329.1 440.947 329.562 439.658C329.768 438.75 329.84 437.817 329.776 436.889C329.77 437.438 329.698 437.986 329.562 438.518Z" fill="black"/>
<path opacity="0.1" d="M307.819 464.733C307.681 464.293 307.595 463.839 307.563 463.38C307.493 464.216 307.579 465.058 307.819 465.862C308.384 467.694 310.465 469.196 312.214 468.418C312.214 468.045 312.14 467.673 312.129 467.353C310.401 468.045 308.341 466.522 307.819 464.733Z" fill="black"/>
</g>
<path opacity="0.1" d="M973.601 860.067C1039.32 860.067 1092.6 853.143 1092.6 844.601C1092.6 836.059 1039.32 829.135 973.601 829.135C907.882 829.135 854.607 836.059 854.607 844.601C854.607 853.143 907.882 860.067 973.601 860.067Z" fill="#6C63FF"/>
<path d="M1082.6 327.221C1059.53 313.963 1050.75 310.678 1050.75 310.663L1050.28 310.33C1047.76 308.402 1045.76 305.879 1044.46 302.99C1044.46 302.46 1044.46 301.93 1044.46 301.476V301.627C1044.84 294.605 1049.83 288.233 1054.57 282.663C1058.62 277.911 1062.66 273.163 1066.71 268.421C1068.1 266.98 1069.17 265.256 1069.83 263.366C1070.08 262.376 1070.19 261.358 1070.16 260.339C1070.16 259.915 1070.16 259.506 1070.16 259.098C1070.16 255.556 1070 252.014 1069.88 248.503C1069.75 245.4 1068.97 241.511 1065.86 240.936C1064.25 240.603 1062.13 241.178 1061.31 239.8C1061.01 239.238 1060.93 238.585 1061.1 237.969C1061.1 237.969 1061.1 238.06 1061.1 238.105C1061.09 238.05 1061.09 237.994 1061.1 237.939C1061.69 235.551 1062.08 233.115 1062.25 230.659C1062.3 229.413 1062.13 228.167 1061.75 226.981C1059.94 221.85 1053.77 219.746 1048.31 218.778C1042.85 217.809 1036.73 216.977 1033.3 212.724C1032.36 211.305 1031.35 209.936 1030.27 208.622C1028.68 207.225 1026.75 206.275 1024.67 205.867C1017.9 204.193 1010.76 204.816 1004.38 207.638C1001.74 208.819 999.09 210.393 996.194 210.226C993.298 210.06 990.614 207.956 987.642 207.457C982.85 206.639 978.255 210.166 975.89 214.328C974.487 216.798 973.741 219.586 973.721 222.425C973.721 222.577 973.721 222.743 973.721 222.895C973.662 225.947 974.78 228.906 976.845 231.158C978.907 233.307 981.986 234.776 982.911 237.591C983.259 238.741 983.184 239.982 983.487 241.132C983.487 241.284 983.578 241.42 983.623 241.571L983.457 241.768C978.531 248.095 975.863 255.883 975.875 263.896C975.922 271.675 978.445 279.239 983.078 285.496C987.711 291.752 994.215 296.378 1001.65 298.706C1001.65 299.054 1001.65 299.418 1001.65 299.796C1001.76 302.068 1001.36 304.335 1000.5 306.439C999.633 308.543 998.32 310.434 996.649 311.98L963.926 325.087C963.926 325.087 944.213 322.756 937.116 351.498C935.978 356.267 935.569 361.181 935.903 366.073C936.161 370.417 935.554 378.045 930.505 387.913C922.422 403.714 924.257 439.963 940.786 443.55C956.389 446.94 962.5 445.532 963.137 445.366V446.001C962.879 452.812 960.408 511.476 951.415 518.65C948.913 520.602 949.383 521.934 951.415 522.827C951.415 522.827 951.415 523.206 951.415 523.887C951.142 528.185 949.747 544.516 943.727 553.824C936.813 564.555 937.601 626.609 937.601 626.609L932.84 663.221C932.84 663.221 935.766 685.833 932.84 689.783C930.216 693.309 926.774 776.977 925.986 795.108H925.683C924.243 795.195 922.846 795.632 921.614 796.381C920.383 797.131 919.353 798.169 918.616 799.407C914.704 805.673 901.208 817.221 901.208 817.221C898.282 821.383 887.424 825.363 881.692 827.24C880.925 827.486 880.184 827.805 879.478 828.194C877.332 829.36 875.608 831.171 874.55 833.37C874.177 834.017 873.94 834.733 873.851 835.474C873.762 836.215 873.825 836.967 874.035 837.683C875.551 841.271 905.985 843.737 913.688 840.196C919.753 837.381 943.773 833.658 953.751 832.205C955.561 831.977 957.244 831.154 958.535 829.866C959.825 828.578 960.65 826.898 960.878 825.091C960.973 824.468 960.942 823.831 960.786 823.22C960.629 822.609 960.351 822.036 959.968 821.534C958.057 819.173 957.072 812.726 956.632 808.518C957.442 808.187 958.198 807.738 958.876 807.186C958.057 794.141 959.931 781.067 964.38 768.773C971.72 749.4 973.934 713.5 972.099 690.161C972.099 690.161 994.496 593.947 1012.13 584.972C1012.4 585.305 1020.96 596.263 1022.05 630.196C1023.14 664.659 1035.62 687.271 1035.62 687.271C1035.62 687.271 1030.12 745.783 1035.62 767.684L1028.39 802.176C1028.09 801.929 1027.8 801.667 1027.52 801.389C1027.52 801.389 1027.73 802.358 1028.04 803.887L1027.89 804.613L1028.19 804.689C1029.01 809.002 1030.22 816.525 1029.71 820.944C1029.42 823.472 1028.72 826.907 1028.19 830.298C1027.43 835.61 1027.22 840.771 1030.02 841.891C1034.57 843.737 1061.61 846.265 1066.21 840.378C1067.24 839.171 1067.91 837.701 1068.14 836.133C1068.38 834.566 1068.17 832.964 1067.54 831.508C1067.21 830.696 1066.76 829.937 1066.21 829.253C1066.21 829.253 1059.03 817.554 1061.06 809.305C1061.25 808.501 1061.27 807.667 1061.12 806.855C1060.97 806.043 1060.66 805.27 1060.2 804.583C1061.25 791.525 1063.36 778.573 1066.49 765.852C1071.04 748.583 1080.78 710.715 1073.65 685.802C1073.38 684.834 1073.07 683.865 1072.74 682.927C1068.62 669.331 1067.25 655.056 1068.69 640.927C1066.04 628.866 1066.04 616.375 1068.69 604.315C1073.06 584.231 1076.14 564.555 1076.14 564.555C1076.14 564.555 1078.56 537.993 1076.44 521.707L1076.3 520.663L1077.46 520.406C1077.46 520.406 1071.22 492.769 1069.01 475.182C1068.5 471.02 1067.81 465.768 1067.07 460.153C1069.1 459.804 1071.11 459.298 1073.06 458.639C1092.89 451.813 1099.13 390.062 1099.13 390.062V370.477C1099.13 370.477 1105.74 340.555 1082.6 327.221ZM934.857 803.978L933.886 803.463L934.857 803.978Z" fill="url(#paint0_linear)"/>
<path d="M1071.01 684.02C1079.63 708.711 1069.49 748.781 1064.92 766.675C1061.85 779.613 1059.81 792.775 1058.84 806.034C1048.34 807.797 1037.6 807.551 1027.19 805.307L1034.8 768.461C1029.41 746.632 1034.8 688.304 1034.8 688.304C1034.8 688.304 1022.63 665.748 1021.5 631.4C1020.44 597.596 1012.07 586.666 1011.79 586.318C994.405 595.31 972.527 691.181 972.527 691.181C974.322 714.433 972.162 750.22 964.92 769.551C960.555 781.822 958.718 794.843 959.519 807.836C957.008 809.94 953.509 810.303 949.736 809.698C939.466 808.048 927.158 799.237 927.158 799.237C927.158 799.237 931.114 694.783 933.989 690.817C936.865 686.851 933.989 664.34 933.989 664.34L938.66 627.842C938.66 627.842 937.945 565.942 944.746 555.179C950.649 545.899 952.003 529.61 952.277 525.341C952.277 524.66 952.277 524.282 952.277 524.282L962.683 511.884C962.683 511.884 1063.39 504.314 1070.93 511.884C1072.79 513.73 1073.97 517.939 1074.61 523.207C1076.68 539.435 1074.31 565.912 1074.31 565.912C1074.31 565.912 1071.27 585.591 1066.98 605.619C1064.38 617.648 1064.38 630.089 1066.98 642.118C1065.57 656.213 1066.94 670.446 1071.01 684.02Z" fill="#333333"/>
<path d="M1063.87 840.359C1059.43 846.256 1033.31 843.761 1028.86 841.871C1026.14 840.737 1026.35 835.61 1027.09 830.318C1027.55 826.946 1028.23 823.513 1028.5 821.018C1029.22 814.576 1026.38 801.525 1026.38 801.525C1026.38 801.525 1032.25 807.786 1033.66 801.525C1033.99 800.331 1034.63 799.25 1035.52 798.397C1036.42 797.544 1037.53 796.953 1038.73 796.686C1041.77 795.76 1045.05 795.964 1047.96 797.261C1052.58 799.272 1060.28 803.567 1058.89 809.359C1056.94 817.57 1063.87 829.214 1063.87 829.214C1064.41 829.898 1064.84 830.657 1065.16 831.467C1065.79 832.924 1066 834.527 1065.77 836.097C1065.54 837.667 1064.88 839.142 1063.87 840.359Z" fill="#A27772"/>
<path opacity="0.1" d="M1063.86 840.328C1059.4 846.276 1033.13 843.759 1028.65 841.853C1025.91 840.709 1026.12 835.538 1026.86 830.2C1029.68 831.527 1034.43 832.641 1042.47 831.893C1044.34 831.71 1046.22 831.649 1048.1 831.71C1053.79 831.979 1059.49 831.867 1065.16 831.375C1065.79 832.843 1066 834.456 1065.77 836.036C1065.54 837.617 1064.88 839.102 1063.86 840.328Z" fill="black"/>
<path opacity="0.1" d="M972.334 690.858C974.128 714.174 971.969 750.057 964.734 769.441C960.373 781.746 958.537 794.802 959.337 807.83C956.829 809.94 953.333 810.304 949.563 809.697C951.737 794.518 960.964 729.353 966.892 677.85C973.626 619.182 1005.15 578.82 1005.15 578.82L1011.45 585.727C994.192 594.728 972.334 690.858 972.334 690.858Z" fill="black"/>
<path d="M1054.12 314.882L1049.71 336.296L1028.11 372.178L1001.48 360.927C1001.48 360.927 965.259 323.444 988.013 318.098C990.741 317.523 993.317 316.391 995.578 314.776C1000.04 311.438 1001.45 306.606 1001.48 301.864C1001.3 296.551 1000.04 291.328 997.778 286.505L1044.37 272.053C1042.44 278.1 1041.32 284.37 1041.03 290.704C1040.67 303.238 1045.38 309.43 1049.25 312.375C1050.69 313.524 1052.34 314.376 1054.12 314.882Z" fill="#FBBEBE"/>
<path opacity="0.1" d="M1043.45 272.053C1041.56 278.169 1040.45 284.51 1040.16 290.917C1035.51 296.517 1029.32 300.582 1022.38 302.593C1015.45 304.604 1008.08 304.468 1001.22 302.204C1001.04 296.831 999.801 291.549 997.575 286.67L1043.45 272.053Z" fill="black"/>
<path d="M1048.79 266.196C1048.79 273.464 1046.66 280.569 1042.67 286.612C1038.69 292.655 1033.02 297.365 1026.39 300.146C1019.77 302.928 1012.47 303.656 1005.44 302.238C998.399 300.82 991.935 297.32 986.862 292.18C981.788 287.041 978.334 280.493 976.934 273.365C975.534 266.236 976.253 258.848 978.998 252.133C981.744 245.418 986.393 239.678 992.359 235.641C998.324 231.603 1005.34 229.447 1012.51 229.447C1017.28 229.435 1022 230.378 1026.41 232.22C1030.81 234.063 1034.82 236.769 1038.19 240.184C1041.56 243.599 1044.23 247.654 1046.05 252.118C1047.87 256.582 1048.8 261.366 1048.79 266.196Z" fill="#FBBEBE"/>
<path opacity="0.1" d="M1054.12 315.031L1049.71 336.39L1028.11 372.18L1001.48 360.958C1001.48 360.958 965.259 323.571 988.013 318.239C990.741 317.665 993.317 316.536 995.578 314.925C991.467 326.057 1008.43 349.209 1008.43 349.209C1010.4 352.071 1014.94 350.278 1014.94 350.278C1025.85 348.651 1045.98 317.682 1049.25 312.53C1050.69 313.676 1052.34 314.527 1054.12 315.031Z" fill="black"/>
<path opacity="0.1" d="M1074.39 523.245C1068.04 524.769 1032.93 532.526 1019.63 530.575C1004.98 528.411 976.473 526.979 976.473 526.979C976.473 526.979 958.329 527.954 952.764 525.455C952.764 524.769 952.764 524.388 952.764 524.388L963.107 511.906C963.107 511.906 1063.19 504.286 1070.69 511.906C1072.65 513.705 1073.71 517.926 1074.39 523.245Z" fill="black"/>
<path d="M1007.91 350.254C1007.91 350.254 989.034 324.058 996.15 313.85L964.251 326.956C964.251 326.956 945.054 324.62 938.136 353.318C937.027 358.093 936.624 363.004 936.94 367.895C937.197 372.218 936.606 379.833 931.686 389.693C923.814 405.468 925.63 441.69 941.708 445.27C957.787 448.85 963.54 447.06 963.54 447.06C963.54 447.06 961.39 512.679 952.094 520.203C942.799 527.726 975.818 525.936 975.818 525.936C975.818 525.936 1004.34 527.453 1019.01 529.531C1033.68 531.609 1074.83 521.947 1074.83 521.947C1074.83 521.947 1068.77 494.34 1066.59 476.775C1064.41 459.21 1059.45 421.804 1059.45 421.804L1095.95 372.264C1095.95 372.264 1102.38 342.321 1079.84 329.064C1057.3 315.807 1048.81 312.53 1048.81 312.53C1048.81 312.53 1026.1 349.496 1014.35 351.286C1014.35 351.316 1009.87 353.136 1007.91 350.254Z" fill="#4B4BD8"/>
<path opacity="0.1" d="M966.391 360.461C966.391 360.461 966.038 372.269 968.219 376.916C970.4 381.563 978.371 407.328 978.371 407.328H960.233C960.233 407.328 970.031 396.959 969.309 391.948C968.588 386.937 966.391 360.461 966.391 360.461Z" fill="black"/>
<path d="M1019.47 449.936C1019.47 449.936 979.906 440.295 976.222 432.09C972.539 423.884 962.367 405.479 962.367 405.479L966.535 399.873L985.788 414.984C985.788 414.984 1008.72 433.117 1019.47 434.991C1030.22 436.865 1019.47 449.936 1019.47 449.936Z" fill="#FBBEBE"/>
<path opacity="0.05" d="M1019.47 449.936C1019.47 449.936 979.906 440.295 976.222 432.09C972.539 423.884 962.367 405.479 962.367 405.479L966.535 399.873L985.788 414.984C985.788 414.984 1008.72 433.117 1019.47 434.991C1030.22 436.865 1019.47 449.936 1019.47 449.936Z" fill="black"/>
<path d="M1054.12 403.293V424.478H1050.61C1033.31 424.478 1016.3 428.762 1001.17 436.926L994.617 440.457L992.848 441.414L981.571 416.728L992.125 407.527H992.663C995.248 407.766 1006.4 408.664 1011.12 407.123C1015.85 405.582 1021.2 400.929 1034.42 404.22C1040.94 405.836 1046.49 412.943 1052.88 410.728L1054.12 403.293Z" fill="#FBBEBE"/>
<path opacity="0.1" d="M1088.55 364.565L1095.73 372.618V392.115C1095.73 392.115 1089.66 453.666 1070.25 460.462C1050.84 467.259 1016.26 456.527 1016.26 456.527C1016.26 456.527 1007.31 432.912 1011.49 431.474C1015.67 430.035 1048.45 421.422 1048.45 421.422C1048.45 421.422 1047.98 385.319 1055.17 374.586C1055.17 374.586 1050.51 340.95 1066.65 340.239C1082.79 339.527 1088.55 364.565 1088.55 364.565Z" fill="black"/>
<path d="M1089.62 364.565L1096.8 372.618V392.115C1096.8 392.115 1090.72 453.666 1071.3 460.462C1051.88 467.259 1017.32 456.527 1017.32 456.527C1017.32 456.527 1008.38 432.912 1012.56 431.474C1016.73 430.035 1049.51 421.422 1049.51 421.422C1049.51 421.422 1049.05 385.319 1056.23 374.586C1056.23 374.586 1051.56 340.95 1067.72 340.239C1083.88 339.527 1089.62 364.565 1089.62 364.565Z" fill="#4B4BD8"/>
<path opacity="0.1" d="M1038.77 281.436C1039.09 279.086 1038.81 276.694 1037.96 274.481C1037.52 273.388 1036.72 272.474 1035.71 271.883C1034.69 271.292 1033.51 271.057 1032.35 271.216C1029.34 271.926 1027.99 275.903 1025.02 276.855C1022.51 277.657 1019.76 275.872 1018.56 273.514C1017.56 271.055 1017.13 268.394 1017.33 265.742C1017.33 262.719 1017.33 259.77 1017.33 256.777C1017.33 253.526 1017.23 250.018 1015.23 247.463C1012.75 244.288 1006.94 242.927 1003.07 243.033C1000.48 243.06 997.999 244.064 996.113 245.845C995.166 246.805 994.018 247.54 992.753 247.995C991.487 248.45 990.137 248.614 988.801 248.476C987.622 248.294 986.519 247.78 985.618 246.993C984.717 246.207 984.056 245.18 983.71 244.031C983.703 243.991 983.703 243.95 983.71 243.91C986.727 239.894 990.538 236.551 994.902 234.091C999.266 231.632 1004.09 230.109 1009.07 229.62C1014.04 229.13 1019.07 229.685 1023.82 231.248C1028.58 232.811 1032.96 235.349 1036.69 238.702C1040.42 242.055 1043.42 246.149 1045.5 250.728C1047.58 255.307 1048.7 260.27 1048.78 265.305C1048.86 270.34 1047.91 275.338 1045.98 279.983C1044.04 284.627 1041.18 288.818 1037.56 292.292C1038.16 288.698 1038.56 285.074 1038.77 281.436Z" fill="black"/>
<path d="M988.684 247.224C987.496 247.04 986.384 246.525 985.475 245.739C984.566 244.953 983.896 243.927 983.542 242.778C983.255 241.629 983.33 240.389 982.982 239.255C982.15 236.442 979.156 234.975 977.145 232.843C973.122 228.578 973.379 221.546 976.222 216.405C978.536 212.261 982.997 208.768 987.671 209.569C990.559 210.083 993.054 212.14 995.988 212.321C998.922 212.503 1001.39 210.93 1003.96 209.751C1010.15 206.945 1017.12 206.326 1023.71 207.996C1025.74 208.399 1027.62 209.345 1029.15 210.734C1030.2 212.041 1031.16 213.404 1032.06 214.817C1035.38 219.066 1041.36 219.898 1046.67 220.866C1051.98 221.834 1057.99 223.89 1059.73 229.047C1060.9 232.434 1059.73 236.109 1059.11 239.633C1058.88 240.355 1058.93 241.138 1059.25 241.826C1060.08 243.202 1062.15 242.627 1063.79 242.945C1066.81 243.58 1067.57 247.481 1067.67 250.506C1067.81 254.014 1067.91 257.543 1067.96 261.092C1068.05 262.405 1067.95 263.724 1067.66 265.009C1067.01 266.841 1065.98 268.515 1064.63 269.923L1052.82 284.108C1047.59 290.399 1042.04 297.719 1043.08 305.84C1040.6 306.944 1037.67 304.811 1036.85 302.21C1036.04 299.609 1036.69 296.827 1037.25 294.165C1038.2 289.562 1038.82 284.898 1039.11 280.207C1039.42 277.851 1039.14 275.453 1038.29 273.235C1037.84 272.14 1037.04 271.226 1036.01 270.635C1034.98 270.043 1033.79 269.809 1032.62 269.969C1029.59 270.68 1028.25 274.657 1025.25 275.61C1022.73 276.426 1019.96 274.627 1018.75 272.267C1017.74 269.806 1017.32 267.146 1017.51 264.494V255.527C1017.51 252.275 1017.4 248.767 1015.39 246.211C1012.91 243.035 1007.04 241.674 1003.14 241.78C1000.54 241.807 998.039 242.811 996.14 244.593C995.176 245.566 994.005 246.308 992.713 246.763C991.422 247.219 990.045 247.377 988.684 247.224Z" fill="#333333"/>
<path opacity="0.1" d="M996.508 359.397L1008.34 406.265C1008.34 406.265 1017.64 406.219 996.508 359.397Z" fill="black"/>
<path opacity="0.1" d="M1034.92 351.94C1034.92 351.94 1021.2 375.941 1026.56 400.742L1029.1 400.938C1029.1 400.938 1024.55 389.452 1034.92 351.94Z" fill="black"/>
<path opacity="0.1" d="M1044.52 488.406C1044.52 488.406 1062.42 482.852 1063.72 495.737C1063.72 495.737 1060.34 486.898 1044.52 488.406Z" fill="black"/>
<path opacity="0.1" d="M992.537 408.395C992.537 408.395 988.911 433.365 995.441 443.353C985.195 446.898 974.32 448.351 963.482 447.623L961.3 408.395H992.537Z" fill="black"/>
<path opacity="0.1" d="M995.441 440.45L993.56 441.413L981.571 416.583L992.792 407.328H993.364C993.184 408.532 990.06 429.916 995.441 440.45Z" fill="black"/>
<path d="M992.597 407.328C992.597 407.328 989.046 432.299 995.441 442.287C985.407 445.831 974.756 447.284 964.142 446.557L951.697 407.328H992.597Z" fill="#4B4BD8"/>
<path d="M961.252 825.427C961.048 827.181 960.258 828.817 959.009 830.077C957.759 831.337 956.121 832.149 954.352 832.385C944.717 833.872 921.462 837.44 915.6 840.206C908.084 843.729 878.651 841.261 877.223 837.752C877.023 837.048 876.965 836.311 877.052 835.584C877.14 834.857 877.372 834.154 877.734 833.515C878.421 832.117 879.387 830.869 880.572 829.847C881.758 828.826 883.139 828.051 884.634 827.568C890.196 825.725 900.688 821.844 903.514 817.771C903.514 817.771 916.592 806.442 920.32 800.331C921.02 799.126 922.011 798.11 923.204 797.376C924.398 796.642 925.757 796.212 927.159 796.124C930.271 795.975 933.728 797.536 935.156 804.271C935.156 804.271 952.203 813.89 956.818 805.46C956.818 805.46 957.524 818.41 960.35 821.963C960.724 822.453 960.996 823.012 961.151 823.606C961.306 824.201 961.34 824.82 961.252 825.427Z" fill="#A27772"/>
<path opacity="0.1" d="M961.246 825.23C961.042 827.004 960.253 828.66 959.003 829.935C957.754 831.21 956.116 832.032 954.347 832.271C944.712 833.776 921.459 837.387 915.597 840.185C908.082 843.751 878.651 841.254 877.223 837.703C877.023 836.989 876.965 836.244 877.052 835.508C877.14 834.772 877.372 834.061 877.734 833.415C878.747 831.251 880.414 829.462 882.499 828.299C887.309 831.489 897.981 834.618 921.459 830.947C943.856 827.441 954.933 824.011 960.345 821.679C960.724 822.18 961 822.753 961.155 823.363C961.31 823.973 961.341 824.607 961.246 825.23Z" fill="black"/>
<g opacity="0.1">
<path opacity="0.1" d="M1059.29 240.285C1059.3 240.225 1059.3 240.164 1059.29 240.104C1060 237.456 1060.37 234.73 1060.4 231.989C1060.17 234.181 1059.8 236.355 1059.29 238.499C1059.15 239.087 1059.15 239.698 1059.29 240.285Z" fill="black"/>
<path opacity="0.1" d="M1038.38 273.773C1038.94 275.064 1039.24 276.453 1039.26 277.86C1039.42 275.92 1039.12 273.969 1038.38 272.168C1037.93 271.071 1037.13 270.153 1036.1 269.559C1035.07 268.965 1033.87 268.727 1032.69 268.883C1029.66 269.595 1028.31 273.591 1025.31 274.545C1022.78 275.347 1020 273.546 1018.79 271.184C1017.77 268.724 1017.34 266.058 1017.54 263.403C1017.54 260.375 1017.54 257.423 1017.54 254.441C1017.54 251.186 1017.44 247.674 1015.42 245.115C1012.92 241.921 1007.05 240.574 1003.12 240.664C1000.51 240.693 998.013 241.704 996.118 243.495C995.16 244.454 994 245.186 992.723 245.639C991.445 246.092 990.082 246.255 988.733 246.114C987.539 245.938 986.42 245.426 985.507 244.638C984.594 243.849 983.925 242.818 983.578 241.664C983.274 240.513 983.365 239.287 983.016 238.136C982.182 235.32 979.18 233.867 977.163 231.732C975.282 229.65 974.207 226.966 974.13 224.163C973.987 225.818 974.181 227.484 974.703 229.061C975.224 230.638 976.061 232.093 977.163 233.337C979.18 235.472 982.182 236.94 983.016 239.756C983.365 240.891 983.274 242.133 983.578 243.283C983.931 244.434 984.602 245.462 985.514 246.249C986.426 247.036 987.542 247.551 988.733 247.734C990.083 247.873 991.447 247.708 992.724 247.252C994.002 246.796 995.162 246.061 996.118 245.1C998.021 243.336 1000.51 242.338 1003.11 242.299C1007.04 242.178 1012.9 243.571 1015.41 246.75C1017.42 249.309 1017.51 252.806 1017.53 256.076C1017.53 259.103 1017.53 262.055 1017.53 265.038C1017.32 267.698 1017.75 270.37 1018.77 272.834C1019.99 275.196 1022.76 276.982 1025.29 276.18C1028.33 275.226 1029.61 271.245 1032.68 270.518C1033.85 270.362 1035.05 270.596 1036.08 271.184C1037.11 271.772 1037.92 272.681 1038.38 273.773Z" fill="black"/>
<path opacity="0.1" d="M1067.84 263.916C1067.19 265.753 1066.15 267.434 1064.81 268.851C1060.85 273.574 1056.9 278.303 1052.97 283.036C1047.99 289.016 1042.72 295.934 1043.1 303.564C1043.46 296.57 1048.34 290.212 1052.97 284.656L1064.81 270.456C1066.15 269.044 1067.19 267.368 1067.84 265.536C1068.13 264.245 1068.24 262.919 1068.15 261.6C1068.14 262.381 1068.04 263.159 1067.84 263.916Z" fill="black"/>
<path opacity="0.1" d="M1036.94 301.175C1036.74 300.55 1036.62 299.905 1036.57 299.252C1036.48 300.44 1036.6 301.636 1036.94 302.779C1037.74 305.383 1040.7 307.518 1043.19 306.413C1043.19 305.883 1043.08 305.353 1043.07 304.899C1040.61 305.883 1037.68 303.718 1036.94 301.175Z" fill="black"/>
</g>
<path opacity="0.1" d="M917.556 803.571C917.556 803.571 921.475 807.996 935.694 804.091L917.556 803.571Z" fill="black"/>
<path opacity="0.1" d="M1032.78 804.636C1032.78 804.636 1044.59 817.924 1059.46 809.021L1032.78 804.636Z" fill="black"/>
<path opacity="0.1" d="M1066.93 641.666C1066.93 641.666 1058.67 647.144 1058.4 650.277C1058.13 653.41 1062.66 647.996 1062.66 647.996L1066.93 641.666Z" fill="black"/>
<path opacity="0.1" d="M1070.13 681.076C1067.24 683.547 1063.64 684.984 1059.88 685.168C1053.65 685.45 1054.17 693.759 1058.24 691.26C1062.32 688.761 1070.13 681.076 1070.13 681.076Z" fill="black"/>
<path opacity="0.1" d="M1071.19 686.401C1071.19 686.401 1067.66 705.609 1064.79 701.905L1071.19 686.401Z" fill="black"/>
<path fill-rule="evenodd" clip-rule="evenodd" d="M650.977 391.896C650.158 391.356 649.317 390.897 648.416 390.517C645.342 389.178 641.899 388.798 638.559 389.698C636.653 390.217 634.706 391.216 632.739 392.336C616.222 401.829 597.82 430.627 588.168 443.098C587.512 443.957 586.877 444.717 586.303 445.416C585.504 446.376 584.971 446.915 584.131 447.295C582.86 447.855 581.262 447.775 580.258 447.315C578.987 446.755 578.106 445.856 577.43 444.277C575.032 438.522 578.044 424.072 580.196 418.436C584.295 407.664 591.283 397.672 600.402 391.116C603.619 388.798 607.103 387 610.812 385.641C613.701 384.661 616.529 383.902 619.542 383.542C622.124 383.222 624.665 383.102 627.267 383.242C632.841 383.542 637.678 384.701 642.821 387C643.6 387.359 644.563 387.819 645.321 388.239C645.465 388.319 645.752 388.458 645.916 388.558C645.998 388.618 647.248 389.298 648.334 390.017C649.584 390.837 650.772 391.716 650.998 391.896C650.957 391.836 651.141 391.996 650.977 391.896Z" fill="#4B4BD8"/>
<path fill-rule="evenodd" clip-rule="evenodd" d="M670.075 430.009C665.977 440.741 658.989 450.753 649.869 457.308C646.652 459.627 643.168 461.425 639.459 462.784C636.57 463.764 633.742 464.523 630.729 464.883C628.147 465.203 625.606 465.322 623.004 465.183C617.43 464.883 612.593 463.724 607.45 461.425C606.671 461.066 605.708 460.606 604.95 460.186C604.806 460.106 604.519 459.966 604.355 459.866C604.274 459.807 603.023 459.127 601.917 458.408C600.667 457.588 599.478 456.709 599.253 456.529C599.253 456.509 599.171 456.449 599.294 456.529C600.032 457.029 600.831 457.448 601.63 457.808C604.765 459.247 608.29 459.667 611.712 458.727C613.598 458.208 615.565 457.208 617.532 456.089C634.029 446.616 652.39 417.877 662.063 405.387C662.739 404.507 663.374 403.708 663.968 403.008C664.768 402.049 665.3 401.51 666.141 401.13C667.411 400.57 669.01 400.65 670.034 401.11C671.284 401.669 672.104 402.569 672.76 404.148C675.137 409.943 672.227 424.373 670.075 430.009Z" fill="#4B4BD8"/>
<path fill-rule="evenodd" clip-rule="evenodd" d="M641.675 429.191C634.4 438.544 626.183 447.817 618.436 452.274C616.715 453.273 614.973 454.152 613.313 454.592C610.321 455.411 607.206 455.032 604.44 453.772C599.481 450.475 595.403 446.018 592.595 440.822C595.669 436.845 599.747 431.009 604.399 424.754C606.346 427.192 614.871 437.045 625.097 437.045C631.839 437.045 637.822 432.788 641.675 429.191Z" fill="#333333"/>
<path fill-rule="evenodd" clip-rule="evenodd" d="M657.616 407.663C654.543 411.64 650.485 417.476 645.854 423.712C643.948 421.313 635.382 411.401 625.136 411.401C618.496 411.401 612.574 415.558 608.701 419.135C615.935 409.822 624.132 400.609 631.837 396.172C633.558 395.173 635.3 394.293 636.96 393.854C639.89 393.054 642.903 393.394 645.628 394.573C650.649 397.871 654.788 402.387 657.616 407.663Z" fill="#333333"/>
<path d="M407.317 502.462C407.317 489.682 416.898 479.717 429.925 479.717C437.3 479.717 442.47 482.1 446.95 486.071L440.058 494.592C437.094 491.992 434.061 490.476 429.925 490.476C423.86 490.476 419.173 495.819 419.173 502.607C419.173 509.683 423.929 514.738 430.546 514.738C433.372 514.738 435.508 514.088 437.232 512.932V507.589H428.96V498.78H448.26V518.492C443.848 522.32 437.645 525.28 430.063 525.28C417.105 525.208 407.317 515.821 407.317 502.462Z" fill="#4B4BD8"/>
<path d="M454.499 515.878L470.209 503.077C474.137 499.895 475.584 497.725 475.584 495.049C475.584 492.229 473.723 490.493 470.898 490.493C468.073 490.493 465.868 492.229 462.561 496.279L454.705 489.336C459.184 483.116 463.594 479.717 471.794 479.717C480.958 479.717 487.229 485.503 487.229 494.109C487.229 501.269 483.784 505.03 477.513 509.803L470.347 515.155H487.642V525.28H454.499V515.878Z" fill="#4B4BD8"/>
<path d="M493.95 479.717H513.735C520.146 479.717 524.557 481.531 527.383 484.578C529.865 487.262 531.106 490.745 531.106 495.388C531.106 502.353 527.659 506.997 522.489 509.391L532.484 525.28H519.042L510.632 511.422H505.531V525.28H493.881V479.717H493.95ZM513.252 501.628C517.181 501.628 519.456 499.524 519.456 496.114C519.456 492.559 517.043 490.672 513.183 490.672H505.6V501.628H513.252Z" fill="#4B4BD8"/>
<path d="M544.104 514.469C545.647 514.469 546.93 514.973 547.952 515.982C548.974 516.97 549.485 518.242 549.485 519.797C549.485 521.353 548.974 522.635 547.952 523.644C546.93 524.632 545.647 525.126 544.104 525.126C542.543 525.126 541.25 524.621 540.228 523.612C539.225 522.603 538.723 521.332 538.723 519.797C538.723 518.263 539.225 516.991 540.228 515.982C541.25 514.973 542.543 514.469 544.104 514.469Z" fill="#4B4BD8"/>
<path d="M579.496 480.281L591.775 512.508L603.988 480.281H616.924V524.715H607.041V512.569L608.026 491.604L595.123 524.715H588.36L575.49 491.634L576.475 512.569V524.715H566.625V480.281H579.496Z" fill="#4B4BD8"/>
<path d="M655.189 515.56H637.919L634.636 524.715H624.163L641.958 480.281H651.085L668.978 524.715H658.505L655.189 515.56ZM640.579 508.144H652.53L646.521 491.512L640.579 508.144Z" fill="#4B4BD8"/>
<path d="M693.224 508.449H685.377V524.715H675.528V480.281H693.29C698.937 480.281 703.293 481.451 706.357 483.791C709.421 486.131 710.953 489.437 710.953 493.709C710.953 496.741 710.242 499.274 708.819 501.308C707.419 503.322 705.284 504.93 702.417 506.13L712.759 524.288V524.715H702.187L693.224 508.449ZM685.377 501.034H693.323C695.796 501.034 697.711 500.454 699.068 499.294C700.425 498.114 701.104 496.497 701.104 494.442C701.104 492.346 700.458 490.698 699.167 489.498C697.897 488.297 695.938 487.697 693.29 487.697H685.377V501.034Z" fill="#4B4BD8"/>
<path d="M735.528 506.893L730.406 512.02V524.715H720.556V480.281H730.406V500.423L734.74 494.9L746.92 480.281H759.035L742.061 500.026L759.528 524.715H747.807L735.528 506.893Z" fill="#4B4BD8"/>
<path d="M794.473 505.459H775.562V517.361H797.756V524.715H765.712V480.281H797.69V487.697H775.562V498.287H794.473V505.459Z" fill="#4B4BD8"/>
<path d="M842.649 487.697H828.006V524.715H818.157V487.697H803.711V480.281H842.649V487.697Z" fill="#4B4BD8"/>
<path fill-rule="evenodd" clip-rule="evenodd" d="M579.925 479.717L591.773 510.813L603.558 479.717H617.531V525.28H606.434V512.557L607.247 495.263L595.55 525.28H587.934L576.271 495.301L577.083 512.557V525.28H566.018V479.717H579.925ZM575.49 491.634L588.36 524.715H595.123L608.026 491.604L607.041 512.569V524.715H616.924V480.281H603.988L591.775 512.508L579.496 480.281H566.625V524.715H576.475V512.569L575.49 491.634ZM658.505 524.715L655.189 515.56H637.919L634.636 524.715H624.163L641.958 480.281H651.085L668.978 524.715H658.505ZM638.357 516.125L635.074 525.28H623.289L641.536 479.717H651.506L669.854 525.28H658.069L654.753 516.125H638.357ZM652.53 508.144L646.521 491.512L640.579 508.144H652.53ZM641.421 507.58H651.685L646.525 493.295L641.421 507.58ZM712.759 524.288V524.715H702.187L693.224 508.449H685.377V524.715H675.528V480.281H693.29C698.937 480.281 703.293 481.451 706.357 483.791C709.421 486.131 710.953 489.437 710.953 493.709C710.953 496.741 710.242 499.274 708.819 501.308C707.51 503.191 705.559 504.719 702.968 505.89C702.788 505.972 702.604 506.052 702.417 506.13L712.759 524.288ZM703.252 506.39L713.367 524.148V525.28H701.816L692.853 509.014H685.985V525.28H674.92V479.717H693.29C699.019 479.717 703.532 480.903 706.743 483.355C709.971 485.819 711.561 489.298 711.561 493.709C711.561 496.823 710.83 499.469 709.329 501.616C707.951 503.596 705.914 505.183 703.252 506.39ZM698.737 489.897L698.734 489.894C697.622 488.843 695.851 488.262 693.29 488.262H685.985V500.469H693.323C695.696 500.469 697.444 499.914 698.656 498.88C699.865 497.827 700.497 496.371 700.497 494.442C700.497 492.459 699.889 490.968 698.737 489.897ZM699.068 499.294C697.711 500.454 695.796 501.034 693.323 501.034H685.377V487.697H693.29C695.938 487.697 697.897 488.297 699.167 489.498C700.458 490.698 701.104 492.346 701.104 494.442C701.104 496.497 700.425 498.114 699.068 499.294ZM747.807 524.715L735.528 506.893L730.406 512.02V524.715H720.556V480.281H730.406V500.423L734.74 494.9L746.92 480.281H759.035L742.061 500.026L759.528 524.715H747.807ZM742.811 500.059L760.654 525.28H747.475L735.439 507.811L731.013 512.242V525.28H719.949V479.717H731.013V498.691L734.254 494.56L746.623 479.717H760.298L742.811 500.059ZM795.08 506.023H776.169V516.796H798.364V525.28H765.105V479.717H798.298V488.262H776.169V497.722H795.08V506.023ZM775.562 498.287V487.697H797.69V480.281H765.712V524.715H797.756V517.361H775.562V505.459H794.473V498.287H775.562ZM843.257 488.262H828.614V525.28H817.549V488.262H803.103V479.717H843.257V488.262ZM818.157 487.697V524.715H828.006V487.697H842.649V480.281H803.711V487.697H818.157Z" fill="#4B4BD8"/>
<ellipse cx="624.344" cy="362.769" rx="4.26777" ry="4.26068" fill="#333333"/>
<ellipse cx="446.398" cy="430.483" rx="4.26777" ry="4.26068" fill="#333333"/>
<ellipse cx="786.543" cy="430.483" rx="4.26777" ry="4.26068" fill="#333333"/>
<path d="M696.211 220.52H554.363C551.602 220.52 549.363 222.758 549.363 225.52V323.803C549.363 326.565 551.602 328.803 554.363 328.803H696.211C698.972 328.803 701.211 326.565 701.211 323.803V225.52C701.211 222.758 698.972 220.52 696.211 220.52Z" fill="#4B4BD8"/>
<path d="M508.209 220.52H364.554C361.792 220.52 359.554 222.758 359.554 225.52V323.803C359.554 326.565 361.792 328.803 364.554 328.803H508.209C510.971 328.803 513.209 326.565 513.209 323.803V225.52C513.209 222.758 510.971 220.52 508.209 220.52Z" fill="#4B4BD8"/>
<path d="M885.117 220.52H742.365C739.604 220.52 737.365 222.758 737.365 225.52V323.803C737.365 326.565 739.604 328.803 742.365 328.803H885.117C887.878 328.803 890.117 326.565 890.117 323.803V225.52C890.117 222.758 887.878 220.52 885.117 220.52Z" fill="#4B4BD8"/>
<path fill-rule="evenodd" clip-rule="evenodd" d="M413.427 274.852C413.156 274.799 412.833 274.637 412.562 274.422C410.076 271.993 413.266 269.186 416.887 267.567V262.98C417.751 263.466 418.184 263.52 418.238 263.628L421.049 260.822L420.131 258.448C428.293 255.588 431.589 254.508 438.237 253.375L437.048 252.242L439.047 251.109C443.479 252.62 447.695 252.998 446.939 256.775C447.154 254.238 444.02 253.267 439.156 251.865L438.237 252.458L440.021 253.915C432.075 255.318 427.157 256.883 421.318 258.933L422.129 260.984L419.21 263.898C419.697 264.007 424.779 265.787 430.074 262.009C430.128 262.009 430.184 261.956 430.184 261.902C430.021 261.632 429.697 261.362 429.264 260.984C430.778 261.092 431.805 262.495 431.589 263.898H430.885C430.995 263.467 430.885 262.926 430.67 262.603C426.616 265.625 421.805 266.057 417.751 264.654V268.215C415.805 268.917 412.238 271.075 412.292 273.18C412.4 274.204 412.94 274.583 413.427 274.852Z" fill="white"/>
<path fill-rule="evenodd" clip-rule="evenodd" d="M430.137 274.024C425.706 276.289 421.49 278.071 415.003 278.34C406.572 278.179 405.221 272.513 409.221 266.576C413.004 260.587 419.004 255.244 428.571 251.844C431.328 250.873 435.435 249.739 439.327 249.686C445.002 249.632 450.461 251.413 450.138 256.863C449.922 261.018 443.922 266.9 440.787 271.163C439.435 272.997 439.22 274.185 441.489 274.077C449.867 273.537 457.435 270.623 464.461 267.601C459.705 270.839 435.11 283.142 435.004 274.724C435.056 273.698 435.543 272.565 436.299 271.378C437.112 270.191 438.192 268.896 439.327 267.655C441.002 265.712 445.165 261.126 446.516 258.319C448.894 253.085 443.596 252.815 439.11 251.197L437.112 252.329L438.3 253.462C431.653 254.594 428.355 255.674 420.194 258.535L421.112 260.909L418.302 263.715C418.248 263.607 417.815 263.553 416.95 263.068V267.655C413.329 269.273 410.14 272.079 412.625 274.509C412.896 274.724 413.219 274.886 413.491 274.939C417.976 277.477 430.137 274.024 430.137 274.024ZM394.619 286.542V283.79H398.673V286.542H394.619ZM394.727 297.929V288.053H398.511V297.929H394.727ZM439.427 292.748C439.427 291.832 439.212 291.13 438.726 290.59C438.239 290.05 437.537 289.781 436.727 289.781H436.673C435.808 289.834 435.159 290.05 434.672 290.59C434.186 291.13 433.97 291.885 433.97 292.858C433.97 293.829 434.186 294.584 434.672 295.124C435.159 295.663 435.808 295.879 436.673 295.879C437.537 295.879 438.24 295.609 438.727 295.069C439.212 294.529 439.427 293.72 439.427 292.748ZM436.672 287.999C437.187 287.889 437.713 287.835 438.239 287.837C439.806 287.837 441.05 288.269 441.968 289.187C442.834 290.105 443.319 291.344 443.319 292.91C443.319 294.583 442.888 295.878 441.968 296.794C441.103 297.713 439.86 298.197 438.293 298.197C437.752 298.197 437.211 298.089 436.672 297.982L435.861 297.659C435.158 297.281 434.509 296.794 433.969 296.093V297.173C433.969 297.444 433.915 297.713 433.86 297.928H430.076C430.131 297.55 430.131 297.173 430.185 296.794C430.185 296.418 430.24 296.039 430.24 295.716V283.79H433.969V289.455C434.564 288.917 435.212 288.484 435.915 288.216C436.186 288.108 436.401 288.053 436.672 287.999ZM479.697 289.24C481.696 289.24 483.318 290.914 483.318 292.91C483.318 294.907 481.697 296.526 479.697 296.526C477.696 296.526 476.022 294.908 476.022 292.91C476.022 290.913 477.697 289.24 479.697 289.24ZM479.697 298.198C482.615 298.198 484.994 295.824 484.994 292.911C484.994 289.942 482.615 287.568 479.697 287.568C476.777 287.568 474.345 289.942 474.345 292.911C474.346 295.824 476.777 298.198 479.697 298.198ZM460.238 296.418H461.915V297.929H460.238V296.418ZM472.994 296.687C472.454 297.119 471.374 298.198 469.266 298.198C466.564 298.198 463.969 296.094 463.969 292.911C463.969 289.727 466.564 287.568 469.266 287.568C471.265 287.568 472.454 288.647 472.994 289.079C472.671 289.566 472.4 290.429 472.292 290.805C471.265 289.456 470.022 289.241 469.266 289.241C467.266 289.241 465.643 290.915 465.643 292.911C465.643 294.854 467.265 296.526 469.266 296.526C470.4 296.526 471.482 296.04 472.292 294.962C472.507 295.824 472.833 296.364 472.994 296.687ZM487.372 297.929V288.053H488.885V289.456C489.21 288.971 489.643 288.593 490.128 288.27C490.681 287.988 491.292 287.84 491.913 287.838C492.615 287.838 493.21 288 493.697 288.27C494.182 288.593 494.507 289.025 494.723 289.565C495.479 288.431 496.507 287.837 497.75 287.837C498.723 287.837 499.479 288.108 500.02 288.647C500.561 289.187 500.831 290.05 500.831 291.183V297.929H499.156V291.723C499.156 291.021 499.102 290.589 498.994 290.266C498.874 289.976 498.665 289.73 498.398 289.565C498.085 289.387 497.731 289.294 497.372 289.295C496.669 289.295 496.128 289.509 495.641 289.995C495.21 290.427 494.94 291.183 494.94 292.209V297.929H493.263V291.508C493.263 290.753 493.155 290.213 492.884 289.834C492.614 289.455 492.128 289.295 491.533 289.295C491.047 289.295 490.615 289.402 490.237 289.672C489.805 289.887 489.533 290.266 489.371 290.752C489.156 291.237 489.101 291.938 489.101 292.801V297.928L487.372 297.929ZM500.182 285.894V284.005H499.479V283.79H501.21V284.005H500.507V285.894H500.182ZM501.48 285.894V283.79H501.912L502.398 285.301C502.453 285.411 502.453 285.518 502.508 285.572C502.508 285.519 502.561 285.411 502.616 285.247L503.103 283.791H503.48V285.895H503.209V284.116L502.615 285.895H502.343L501.751 284.116V285.895L501.48 285.894ZM453.157 296.472C452.778 297.066 452.183 297.445 451.373 297.767C451.211 297.821 450.996 297.875 450.832 297.929C450.09 298.111 449.327 298.201 448.563 298.198C447.319 298.198 446.347 297.929 445.644 297.389C444.995 296.904 444.616 296.147 444.616 295.176C444.616 294.583 444.778 294.043 445.049 293.558C445.319 293.126 445.698 292.747 446.183 292.425C446.562 292.154 447.157 291.993 447.86 291.885C448.509 291.777 449.482 291.724 450.832 291.724H453.102V291.452C453.102 290.914 452.94 290.481 452.616 290.213C452.293 289.942 451.86 289.781 451.265 289.781C451.103 289.781 450.94 289.834 450.832 289.834C450.347 289.834 449.968 289.942 449.698 290.105C449.373 290.267 449.157 290.59 449.103 291.022H445.265C445.373 289.942 445.968 289.133 446.94 288.593C447.806 288.108 449.103 287.892 450.832 287.838H451.319C453.157 287.838 454.563 288.163 455.427 288.756C456.291 289.348 456.724 290.321 456.724 291.616V296.634C456.724 296.905 456.778 297.174 456.778 297.389C456.831 297.55 456.886 297.767 456.94 297.929H453.426C453.318 297.767 453.265 297.55 453.211 297.335C453.211 297.174 453.157 296.905 453.157 296.687V296.472ZM450.832 296.039C451.481 295.986 452.022 295.77 452.401 295.447C452.832 295.069 453.102 294.475 453.102 293.774V293.558H452.778C452.022 293.558 451.373 293.558 450.832 293.612C450.239 293.666 449.806 293.72 449.482 293.881C448.888 294.043 448.563 294.421 448.563 294.961C448.563 295.284 448.725 295.553 449.05 295.771C449.373 295.932 449.861 296.04 450.455 296.04L450.832 296.039ZM424.078 296.472C423.646 297.066 423.051 297.445 422.24 297.767C422.078 297.821 421.916 297.875 421.7 297.929C421.051 298.09 420.294 298.198 419.43 298.198C418.187 298.198 417.214 297.929 416.565 297.389C415.862 296.904 415.539 296.147 415.539 295.176C415.539 294.583 415.646 294.043 415.917 293.558C416.187 293.126 416.565 292.747 417.052 292.425C417.484 292.154 418.025 291.993 418.727 291.885C419.376 291.777 420.349 291.724 421.7 291.724H423.971V291.452C423.971 290.914 423.809 290.481 423.484 290.213C423.16 289.942 422.727 289.781 422.133 289.781C421.971 289.781 421.863 289.834 421.7 289.834C421.214 289.834 420.836 289.942 420.565 290.105C420.241 290.267 420.08 290.59 419.971 291.022H416.133C416.296 289.942 416.837 289.133 417.809 288.593C418.727 288.108 420.025 287.892 421.7 287.838H422.187C424.025 287.838 425.43 288.163 426.295 288.756C427.159 289.348 427.646 290.321 427.646 291.616V297.389C427.7 297.55 427.755 297.767 427.808 297.929H424.294C424.184 297.751 424.128 297.544 424.132 297.335C424.079 297.174 424.079 296.905 424.079 296.687L424.078 296.472ZM421.699 296.039C422.402 295.986 422.888 295.77 423.267 295.447C423.753 295.069 423.969 294.475 423.969 293.774V293.558H423.645C422.888 293.558 422.24 293.558 421.699 293.612C421.158 293.666 420.725 293.72 420.402 293.881C419.753 294.043 419.483 294.421 419.483 294.961C419.483 295.284 419.645 295.553 419.915 295.771C420.24 295.932 420.725 296.04 421.374 296.04L421.699 296.039ZM410.294 292.748C410.294 291.832 410.078 291.13 409.591 290.59C409.105 290.05 408.457 289.781 407.592 289.781C406.673 289.834 406.024 290.05 405.538 290.59C405.051 291.13 404.835 291.885 404.835 292.858C404.835 293.829 405.051 294.584 405.538 295.124C406.024 295.663 406.727 295.879 407.538 295.879H407.591C408.456 295.879 409.105 295.609 409.59 295.069C410.078 294.529 410.294 293.72 410.294 292.748ZM407.592 287.999C408.089 287.889 408.597 287.835 409.106 287.837C410.673 287.837 411.917 288.269 412.835 289.187C413.753 290.105 414.186 291.344 414.186 292.91C414.186 294.583 413.754 295.878 412.89 296.794C411.97 297.713 410.782 298.197 409.214 298.197C408.619 298.197 408.079 298.089 407.593 297.982C407.316 297.893 407.045 297.785 406.782 297.659C406.025 297.281 405.377 296.794 404.89 296.093V296.418C404.89 296.687 404.89 296.904 404.835 297.173C404.835 297.444 404.782 297.713 404.782 297.928H400.944C400.999 297.55 401.052 297.173 401.052 296.794C401.107 296.418 401.107 296.039 401.107 295.716V283.79H404.891V289.455C405.428 288.915 406.073 288.493 406.783 288.216C407.051 288.108 407.321 288.053 407.592 287.999ZM380.89 283.79L387.809 297.929H383.269L382.025 295.069H374.297L372.946 297.929H368.674L376.08 283.79H380.89ZM380.728 292.317L378.295 286.867L378.133 287.137L375.592 292.318L380.728 292.317ZM388.458 297.929V283.79H392.242V297.929H388.458Z" fill="white"/>
<line x1="421.869" y1="337.027" x2="421.869" y2="428.632" stroke="#333333" stroke-width="3"/>
<line y1="-1.5" x2="91.6042" y2="-1.5" transform="matrix(6.46232e-08 1 1 -2.95666e-08 812.997 337.027)" stroke="#333333" stroke-width="3"/>
<line x1="623.518" y1="337.027" x2="623.518" y2="363.656" stroke="#333333" stroke-width="3"/>
<line x1="445.975" y1="430.132" x2="420.368" y2="430.132" stroke="#333333" stroke-width="3"/>
<line y1="-1.5" x2="26.6729" y2="-1.5" transform="matrix(1 0 0 -1 786.324 428.632)" stroke="#333333" stroke-width="3"/>
<path d="M583.075 292.867H575.223V263.783L571.324 265.026L568.671 258.809L583.075 254.268V292.867Z" fill="white"/>
<path d="M597.803 268.703C602.622 259.945 610.907 260.918 610.907 260.918L612.802 253.944C595.15 253.944 587.785 265.567 587.785 275.73C587.785 290.002 593.904 293.462 602.568 293.462C622.224 293.408 622.224 261.351 597.803 268.703ZM602.46 286.542C598.724 286.542 596.395 284.164 596.395 280.488C596.395 277.136 599.103 274.433 602.46 274.433C606.304 274.433 608.524 277.136 608.524 280.488C608.524 283.785 605.817 286.542 602.46 286.542Z" fill="white"/>
<path d="M643.342 272.271C649.57 270.162 651.248 254.431 634.895 254.431C618.542 254.431 620.221 270.162 626.448 272.271C615.889 278.758 618.542 293.408 634.895 293.408C651.248 293.408 653.956 278.758 643.342 272.271ZM634.895 261.026C643.505 261.026 639.606 268.487 634.895 269.135C630.184 268.487 626.285 261.026 634.895 261.026ZM634.895 286.38C624.499 286.38 629.21 276.541 634.895 276.217C640.581 276.596 645.292 286.38 634.895 286.38Z" fill="white"/>
<path d="M676.481 272.271C682.709 270.162 684.387 254.431 668.034 254.431C651.681 254.431 653.36 270.162 659.587 272.271C649.028 278.758 651.681 293.408 668.034 293.408C684.387 293.408 687.041 278.758 676.481 272.271ZM667.98 261.026C676.59 261.026 672.691 268.487 667.98 269.135C663.269 268.487 659.37 261.026 667.98 261.026ZM667.98 286.38C657.583 286.38 662.294 276.541 667.98 276.217C673.72 276.596 678.377 286.38 667.98 286.38Z" fill="white"/>
<path fill-rule="evenodd" clip-rule="evenodd" d="M829.024 289.45C821.852 294.744 811.421 297.565 802.425 297.565C789.821 297.565 778.52 292.922 769.915 285.198C769.263 284.591 769.828 283.766 770.654 284.244C779.911 289.624 791.342 292.835 803.164 292.835C811.117 292.835 819.897 291.186 827.981 287.758C829.198 287.281 830.197 288.583 829.024 289.45Z" fill="white"/>
<path fill-rule="evenodd" clip-rule="evenodd" d="M832.022 286.023C831.11 284.851 825.938 285.459 823.634 285.762C822.939 285.849 822.808 285.242 823.46 284.808C827.589 281.901 834.326 282.768 835.108 283.723C835.89 284.678 834.891 291.447 831.023 294.657C830.414 295.135 829.849 294.874 830.11 294.224C830.979 292.054 832.935 287.238 832.022 286.023Z" fill="white"/>
<path fill-rule="evenodd" clip-rule="evenodd" d="M823.765 264.415V261.594C823.765 261.16 824.069 260.9 824.46 260.9H837.064C837.455 260.9 837.803 261.204 837.803 261.594V263.981C837.803 264.371 837.455 264.892 836.847 265.76L830.327 275.045C832.761 275.002 835.326 275.349 837.499 276.564C837.977 276.824 838.107 277.258 838.151 277.649V280.643C838.151 281.077 837.716 281.554 837.238 281.294C833.37 279.254 828.198 279.037 823.938 281.337C823.504 281.554 823.026 281.12 823.026 280.686V277.822C823.026 277.388 823.026 276.607 823.504 275.913L831.066 265.109H824.503C824.112 265.109 823.765 264.805 823.765 264.415ZM777.825 281.901H774C773.653 281.858 773.348 281.597 773.305 281.25V261.638C773.305 261.247 773.653 260.943 774.044 260.943H777.608C777.999 260.943 778.26 261.247 778.303 261.594V264.154H778.39C779.303 261.681 781.085 260.509 783.432 260.509C785.822 260.509 787.343 261.681 788.386 264.154C789.299 261.681 791.429 260.509 793.689 260.509C795.297 260.509 797.035 261.16 798.122 262.679C799.339 264.328 799.078 266.714 799.078 268.841V281.25C799.078 281.641 798.73 281.944 798.339 281.944H794.558C794.167 281.901 793.863 281.597 793.863 281.25V270.836C793.863 270.012 793.949 267.929 793.776 267.148C793.471 265.847 792.646 265.456 791.516 265.456C790.603 265.456 789.603 266.064 789.212 267.061C788.821 268.059 788.864 269.708 788.864 270.836V281.25C788.864 281.641 788.517 281.944 788.125 281.944H784.301C783.91 281.901 783.605 281.597 783.605 281.25V270.836C783.605 268.667 783.953 265.413 781.258 265.413C778.52 265.413 778.607 268.537 778.607 270.836V281.25C778.564 281.597 778.26 281.901 777.825 281.901ZM848.669 260.509C854.362 260.509 857.448 265.369 857.448 271.574C857.448 277.562 854.058 282.335 848.669 282.335C843.105 282.335 840.063 277.475 840.063 271.401C840.02 265.282 843.105 260.509 848.669 260.509ZM848.669 264.545C845.843 264.545 845.67 268.407 845.67 270.793C845.67 273.18 845.626 278.3 848.625 278.3C851.581 278.3 851.754 274.178 851.754 271.661C851.754 270.012 851.667 268.016 851.189 266.454C850.755 265.066 849.885 264.545 848.669 264.545ZM864.793 281.901H860.968C860.577 281.858 860.273 281.554 860.273 281.207V261.551C860.316 261.204 860.621 260.9 861.012 260.9H864.576C864.923 260.9 865.184 261.16 865.271 261.464V264.458H865.358C866.445 261.768 867.922 260.509 870.574 260.509C872.269 260.509 873.964 261.117 875.05 262.809C876.05 264.371 876.05 267.018 876.05 268.927V281.294C876.006 281.641 875.702 281.901 875.311 281.901H871.486C871.139 281.858 870.834 281.597 870.791 281.294V270.62C870.791 268.45 871.052 265.326 868.4 265.326C867.488 265.326 866.618 265.933 866.184 266.888C865.662 268.103 865.575 269.274 865.575 270.62V281.207C865.532 281.597 865.184 281.901 864.793 281.901ZM813.725 272.529C813.725 274.004 813.768 275.262 813.029 276.607C812.421 277.692 811.465 278.343 810.378 278.343C808.9 278.343 808.031 277.215 808.031 275.566C808.031 272.312 810.943 271.704 813.725 271.704V272.529ZM817.593 281.858C817.332 282.075 816.984 282.118 816.68 281.944C815.42 280.903 815.159 280.382 814.464 279.384C812.377 281.511 810.856 282.161 808.162 282.161C804.945 282.161 802.425 280.165 802.425 276.217C802.425 273.093 804.12 271.01 806.51 269.969C808.596 269.057 811.508 268.884 813.725 268.624V268.146C813.725 267.235 813.812 266.15 813.247 265.369C812.769 264.675 811.899 264.371 811.117 264.371C809.639 264.371 808.335 265.109 808.031 266.671C807.944 267.018 807.727 267.365 807.379 267.365L803.685 266.975C803.381 266.888 803.033 266.671 803.12 266.194C803.989 261.681 808.031 260.336 811.682 260.336C813.551 260.336 815.985 260.813 817.463 262.245C819.331 263.981 819.158 266.324 819.158 268.841V274.785C819.158 276.564 819.896 277.345 820.592 278.343C820.853 278.69 820.896 279.124 820.592 279.341C819.766 279.992 818.375 281.207 817.593 281.858ZM763.526 272.529C763.526 274.004 763.569 275.262 762.83 276.607C762.222 277.692 761.266 278.343 760.179 278.343C758.701 278.343 757.832 277.215 757.832 275.566C757.832 272.312 760.744 271.704 763.526 271.704V272.529ZM767.35 281.858C767.09 282.075 766.742 282.118 766.438 281.944C765.177 280.903 764.917 280.382 764.221 279.384C762.135 281.511 760.614 282.161 757.919 282.161C754.703 282.161 752.182 280.165 752.182 276.217C752.182 273.093 753.877 271.01 756.268 269.969C758.354 269.057 761.266 268.884 763.482 268.624V268.146C763.482 267.235 763.569 266.15 763.004 265.369C762.526 264.675 761.657 264.371 760.875 264.371C759.397 264.371 758.093 265.109 757.789 266.671C757.702 267.018 757.485 267.365 757.137 267.365L753.443 266.975C753.138 266.888 752.791 266.671 752.878 266.194C753.747 261.681 757.789 260.336 761.44 260.336C763.308 260.336 765.742 260.813 767.22 262.245C769.089 263.981 768.915 266.324 768.915 268.841V274.785C768.915 276.564 769.654 277.345 770.349 278.343C770.61 278.69 770.654 279.124 770.349 279.341C769.524 279.992 768.133 281.207 767.35 281.858Z" fill="white"/>
</g>
<defs>
<linearGradient id="paint0_linear" x1="986.884" y1="844.086" x2="986.884" y2="204.899" gradientUnits="userSpaceOnUse">
<stop stop-color="#808080" stop-opacity="0.25"/>
<stop offset="0.54" stop-color="#808080" stop-opacity="0.12"/>
<stop offset="1" stop-color="#808080" stop-opacity="0.1"/>
</linearGradient>
<clipPath id="clip0">
<rect width="1100" height="860" fill="white"/>
</clipPath>
</defs>
</svg>
