<svg width="1100" height="860" viewBox="0 0 1100 860" fill="none" xmlns="http://www.w3.org/2000/svg">
<g clip-path="url(#clip0)">
<path d="M1100 616.756C1100.02 635.096 1097.8 653.37 1093.4 671.174C1091.92 677.166 1090.19 683.04 1088.23 688.796C1085.83 695.891 1083.05 702.853 1079.9 709.651C1078.31 713.083 1076.64 716.453 1074.87 719.761C1074.9 738.568 1071.03 757.177 1063.5 774.413C1049.9 805.332 1025.64 830.333 995.159 844.865C976.074 853.972 955.216 858.758 934.072 858.88H208.832C176.562 858.952 144.849 850.473 116.917 834.306C112.789 831.914 108.767 829.366 104.85 826.663C96.3473 820.786 88.3585 814.196 80.9702 806.966C70.9679 797.178 62.1562 786.241 54.718 774.385C37.2425 746.622 27.9849 714.476 28.0174 681.667C10.3197 650.599 0 613.382 0 573.391C0 522.935 16.3995 476.908 43.3429 442.065C48.9601 434.785 55.113 427.936 61.7503 421.574C68.2992 415.278 75.3382 409.514 82.8007 404.335C88.769 400.183 95.0091 396.438 101.479 393.122C104.178 391.739 106.886 390.45 109.641 389.245C112.06 388.17 114.507 387.17 116.982 386.227C119.952 385.093 122.959 384.056 126.004 383.115C129.048 382.175 132.052 381.346 135.016 380.63C139.374 379.565 143.807 378.699 148.315 378.032C152.05 377.481 155.786 377.098 159.522 376.799C162.491 376.587 165.486 376.462 168.506 376.425H170.14C173.465 376.425 176.771 376.556 180.049 376.78C180.395 376.089 180.768 375.388 181.114 374.696C182.421 372.211 183.775 369.726 185.139 367.287V367.221C185.372 366.801 185.606 366.381 185.849 365.969C186.951 363.979 188.099 362.008 189.276 360.055C189.818 359.12 190.35 358.242 190.901 357.354C191.023 357.14 191.144 356.934 191.284 356.719C191.844 355.785 192.414 354.85 192.993 353.916C195.876 349.313 198.874 344.781 201.987 340.321C202.257 339.938 202.51 339.564 202.78 339.19C203.266 338.499 203.714 337.817 204.256 337.135C205.545 335.331 206.871 333.519 208.207 331.734C209.14 330.473 210.074 329.211 211.083 327.996C213.511 324.857 216.005 321.736 218.554 318.653C221.104 315.569 223.794 312.467 226.511 309.43C226.885 309.01 227.258 308.599 227.651 308.178L231.638 303.834C231.835 303.628 232.003 303.441 232.189 303.254C232.666 302.74 233.123 302.226 233.637 301.722C235.776 299.461 237.97 297.227 240.174 295.022C251.432 283.831 263.426 273.405 276.074 263.814C276.569 263.422 277.073 263.048 277.568 262.674C279.94 260.88 282.35 259.114 284.759 257.376C298.015 247.867 311.868 239.222 326.234 231.494C327.224 230.934 328.233 230.401 329.251 229.868C342.134 223.054 355.381 216.953 368.933 211.592C376.317 208.671 383.832 205.942 391.478 203.407C396.539 201.753 401.62 200.174 406.766 198.735C414.723 196.449 422.779 194.387 430.935 192.549C454.964 187.155 479.409 183.823 504.005 182.589C511.476 182.197 519.031 182 526.671 182C563.532 181.952 600.25 186.598 635.939 195.829C636.307 196.387 636.812 196.842 637.405 197.151C637.998 197.46 638.66 197.613 639.329 197.595H642.467C643.83 197.959 645.184 198.343 646.548 198.735C654.162 200.934 661.668 203.329 669.064 205.92L670.932 206.593C689.188 213.088 706.951 220.895 724.081 229.952C739.521 238.101 754.389 247.292 768.582 257.46C770.768 259.03 772.922 260.616 775.045 262.216C777.622 260.553 780.244 258.968 782.908 257.46C793.2 251.6 804.129 246.941 815.483 243.576C839.221 236.547 864.338 235.565 888.553 240.716C919.605 247.304 947.716 263.655 970.419 286.912C979.668 296.397 987.906 306.818 995 318.008C995.514 318.812 996.027 319.624 996.522 320.447C1002.61 330.384 1007.84 340.821 1012.16 351.645C1012.31 352.038 1012.47 352.421 1012.61 352.813C1016.6 362.943 1019.82 373.36 1022.23 383.975C1022.35 384.507 1022.48 385.049 1022.59 385.591C1024.85 395.864 1026.38 406.283 1027.18 416.771C1027.18 417.145 1027.18 417.528 1027.26 417.911C1027.65 423.337 1027.85 428.822 1027.86 434.366C1027.86 439.318 1027.69 444.233 1027.38 449.101C1027.38 449.633 1027.3 450.194 1027.26 450.736C1027.17 452.156 1027.05 453.539 1026.93 454.969C1034.06 460.722 1040.74 467.019 1046.9 473.806C1049.62 476.777 1052.25 479.863 1054.8 483.065C1062.56 492.79 1069.37 503.23 1075.16 514.245C1090.92 544.127 1100 579.203 1100 616.756Z" fill="#E7F3F6"/>
<path d="M994.468 800.668C994.468 821.907 972.465 841.781 934.071 858.899H208.832C175.277 858.899 143.851 846.752 116.917 825.569C110.146 817.534 106.578 809.209 106.578 800.659C106.578 778.085 131.458 757.014 174.474 739.205L175.688 738.719C187.829 733.739 201.398 729.039 216.229 724.62C216.602 724.507 216.985 724.405 217.359 724.274C229.126 720.817 241.644 717.54 254.911 714.444C255.332 714.351 255.743 714.248 256.163 714.173C261.281 712.959 266.501 711.828 271.834 710.697L273.889 710.268C312.693 702.213 356.801 695.822 404.636 691.487H404.692C411.392 690.864 418.163 690.306 425.005 689.814C432.616 689.207 440.321 688.693 448.11 688.216C454.059 687.833 460.083 687.506 466.125 687.207C466.147 687.198 466.171 687.193 466.195 687.193C466.219 687.193 466.243 687.198 466.265 687.207C493.526 685.834 521.693 685.114 550.495 685.114C621.715 685.114 689.031 689.487 748.68 697.261C748.736 697.251 748.793 697.251 748.849 697.261C758.02 698.457 767.023 699.719 775.801 701.064C778.314 701.456 780.816 701.849 783.273 702.251C793.178 703.852 802.829 705.543 812.224 707.324C922.706 728.338 994.468 762.34 994.468 800.668Z" fill="#CDE6EC"/>
<path d="M813.924 409.296C813.924 409.296 804.043 405.288 772.607 419.705C741.172 434.123 737.249 432.3 729.115 430.133C720.981 427.965 716.442 427.404 707.719 415.36C707.719 415.36 701.565 381.994 695.578 376.817C689.592 371.641 664.32 379.77 664.32 379.77C664.32 379.77 633.977 386.731 628.196 346.132C628.196 346.132 632.296 315.56 626.711 306.179C626.711 306.179 637.993 311.037 656.597 303.189C675.2 295.34 690.096 311.645 690.096 311.645C690.096 311.645 694.766 323.792 694.299 331.042C693.832 338.293 696.783 341.012 705.655 337.508C705.655 337.508 710.016 331.304 703.843 321.045C697.67 310.785 693.262 303.151 694.98 295.19C696.699 287.229 701.658 276.176 717.581 270.654C733.504 265.132 755.124 264.113 765.5 259.75C775.876 255.386 778.435 252.602 778.435 252.602C778.435 252.602 772.047 259.002 787.092 286.146C802.138 313.289 792.546 325.062 792.546 325.062C792.546 325.062 784.543 344.152 749.203 342.601C749.203 342.601 715.153 343.843 733.719 358.289C733.719 358.289 745.608 355.869 763.38 350.216C781.153 344.563 793.985 367.894 797.169 384.124C800.354 400.354 813.924 409.296 813.924 409.296Z" fill="#05A32F"/>
<path d="M768.152 273.159L768.339 273.103C769.703 278.279 754.489 299.097 741.48 315.645L741.331 315.523C759.673 292.22 769.208 277.167 768.152 273.159Z" fill="#444053"/>
<path d="M741.592 315.205L741.676 315.411C731.282 328.623 718.217 344.376 707.757 356.084C706.757 357.196 705.768 358.364 704.815 359.56L704.516 359.317C705.45 358.121 706.468 356.944 707.467 355.832C717.918 344.171 731.189 328.426 741.592 315.205Z" fill="#444053"/>
<path d="M704.768 359.019L704.973 359.374C685.94 383.153 684.679 420.108 684.633 420.398L680.617 415.726C680.663 415.427 685.604 382.967 704.768 359.019Z" fill="#444053"/>
<path d="M791.893 396.402C791.893 396.402 769.479 384.722 751.959 388.927C734.439 393.131 695.037 374.07 695.037 374.07C695.037 374.07 678.32 367.277 674.958 359.531C674.958 359.531 663.48 347.384 662.817 341.115C662.154 334.845 650.994 319.045 643.709 318.438" stroke="#444053" stroke-miterlimit="10"/>
<path d="M788.596 407.642C788.596 407.642 777.296 400.017 778.613 391.141" stroke="#444053" stroke-miterlimit="10"/>
<path d="M771.262 417.481C771.262 417.481 755.096 411.613 753.518 388.59" stroke="#444053" stroke-miterlimit="10"/>
<path d="M745.197 423.444C745.197 423.444 729.75 410.624 734.877 388.218" stroke="#444053" stroke-miterlimit="10"/>
<path d="M713.827 417.181C713.827 417.181 703.554 395.597 712.697 381.554" stroke="#444053" stroke-miterlimit="10"/>
<path d="M792.108 382.171C792.108 382.171 780.424 385.908 782.927 392.038" stroke="#444053" stroke-miterlimit="10"/>
<path d="M778.005 360.989C778.005 360.989 762.362 365.951 761.998 388.086" stroke="#444053" stroke-miterlimit="10"/>
<path d="M756.189 355.832C756.189 355.832 741.947 373.417 742.993 389.395" stroke="#444053" stroke-miterlimit="10"/>
<path d="M731.253 362.727C731.253 362.727 717.114 376.256 718.917 383.778" stroke="#444053" stroke-miterlimit="10"/>
<path d="M722.727 357.954C722.727 357.954 709.465 360.327 707.607 355.973" stroke="#444053" stroke-miterlimit="10"/>
<path d="M705.496 341.938C705.496 341.938 712.192 350.814 713.901 348.824" stroke="#444053" stroke-miterlimit="10"/>
<path d="M771.916 336.322C771.916 336.322 738.482 338.751 730.917 328.66" stroke="#444053" stroke-miterlimit="10"/>
<path d="M698.501 297.199C698.501 297.199 714.182 330.883 725.585 335.172" stroke="#444053" stroke-miterlimit="10"/>
<path d="M714.92 281.156C714.92 281.156 724.549 312.14 736.484 321.811" stroke="#444053" stroke-miterlimit="10"/>
<path d="M785.981 310.748C785.981 310.748 760.56 321.662 745.3 310.617" stroke="#444053" stroke-width="0.75" stroke-miterlimit="10"/>
<path d="M737.558 274.55C737.558 274.55 743.366 297.321 751.193 302.824" stroke="#444053" stroke-width="0.75" stroke-miterlimit="10"/>
<path d="M782.142 285.229C782.142 285.229 767.854 290.649 762.53 286.5" stroke="#444053" stroke-width="0.75" stroke-miterlimit="10"/>
<path d="M693.252 349.375C693.252 349.375 693.252 369.23 687.854 370.641" stroke="#444053" stroke-miterlimit="10"/>
<path d="M649.088 375.097C649.088 375.097 670.568 376.966 680.439 365.856" stroke="#444053" stroke-miterlimit="10"/>
<path d="M687.724 325.923C687.724 325.923 682.531 346.059 668.205 351.487" stroke="#444053" stroke-miterlimit="10"/>
<path d="M636.218 353.888C636.218 353.888 651.404 359.167 664.469 345.722" stroke="#444053" stroke-miterlimit="10"/>
<path d="M670.829 308.607C670.829 308.607 669.4 325.706 660.108 333.714" stroke="#444053" stroke-miterlimit="10"/>
<path d="M636.798 327.828C636.798 327.828 649.396 327.912 652.348 323.801" stroke="#444053" stroke-miterlimit="10"/>
<path d="M727.92 392.758H369.11V573.97H727.92V392.758Z" fill="#33323D"/>
<path d="M840.829 629.023H257.339V748.306H840.829V629.023Z" fill="#33323D"/>
<path d="M396.624 658.839H695.821L755.433 859.552H333.575L396.624 658.839Z" fill="white"/>
<path d="M240.716 557.908V619.848V632.892V748.296H352.486V638.199H745.682V748.296H857.453V632.892V619.848V557.908H240.716Z" fill="#504F60"/>
<path opacity="0.1" d="M857.453 557.908H240.716V619.839H857.453V557.908Z" fill="#33323D"/>
<path opacity="0.8" d="M824.216 598.058C829.281 598.058 833.387 593.95 833.387 588.883C833.387 583.815 829.281 579.707 824.216 579.707C819.15 579.707 815.044 583.815 815.044 588.883C815.044 593.95 819.15 598.058 824.216 598.058Z" fill="#8CCF4D"/>
<path opacity="0.8" d="M782.945 598.058C788.011 598.058 792.117 593.95 792.117 588.883C792.117 583.815 788.011 579.707 782.945 579.707C777.88 579.707 773.774 583.815 773.774 588.883C773.774 593.95 777.88 598.058 782.945 598.058Z" fill="#FA5959"/>
<path d="M714.742 349.17H382.297V546.435H714.742V349.17Z" fill="white"/>
<path d="M462.825 493.849V505.916H455.768V471.713H469.176C471.739 471.713 474.004 472.194 475.973 473.12C477.941 474.045 479.427 475.378 480.504 477.117C481.544 478.857 482.101 480.819 482.101 483.04C482.101 486.408 480.95 489.037 478.647 490.961C476.344 492.886 473.15 493.849 469.102 493.849H462.825ZM462.825 488.148H469.139C470.996 488.148 472.445 487.704 473.41 486.816C474.376 485.927 474.896 484.669 474.896 483.04C474.896 481.374 474.413 480.005 473.41 478.968C472.407 477.932 471.07 477.413 469.325 477.376H462.825V488.148Z" fill="black"/>
<path d="M500.784 486.852C499.855 486.741 499.038 486.667 498.333 486.667C495.77 486.667 494.061 487.518 493.281 489.258V505.878H486.484V480.448H492.91L493.096 483.483C494.47 481.151 496.364 479.967 498.778 479.967C499.521 479.967 500.227 480.078 500.895 480.263L500.784 486.852Z" fill="black"/>
<path d="M504.014 473.897C504.014 472.861 504.348 472.047 505.054 471.38C505.722 470.714 506.651 470.381 507.84 470.381C508.991 470.381 509.92 470.714 510.626 471.38C511.331 472.047 511.666 472.861 511.666 473.897C511.666 474.934 511.331 475.785 510.626 476.452C509.92 477.118 508.991 477.451 507.84 477.451C506.688 477.451 505.76 477.118 505.054 476.452C504.348 475.785 504.014 474.934 504.014 473.897ZM511.257 505.917H504.422V480.486H511.257V505.917Z" fill="black"/>
<path d="M523.143 480.486L523.366 483.41C525.186 481.152 527.637 480.005 530.683 480.005C533.394 480.005 535.4 480.782 536.737 482.374C538.074 483.966 538.742 486.335 538.78 489.481V505.916H531.983V489.666C531.983 488.222 531.686 487.186 531.054 486.52C530.423 485.853 529.383 485.557 527.934 485.557C526.003 485.557 524.592 486.372 523.626 488V505.916H516.829V480.486H523.143Z" fill="black"/>
<path d="M552.077 474.229V480.485H556.423V485.482H552.077V498.179C552.077 499.104 552.263 499.808 552.634 500.215C553.006 500.622 553.674 500.844 554.714 500.844C555.457 500.844 556.125 500.807 556.72 500.696V505.841C555.383 506.249 554.008 506.471 552.597 506.471C547.806 506.471 545.391 504.065 545.28 499.253V485.556H541.566V480.559H545.28V474.304H552.077V474.229Z" fill="black"/>
<path d="M586.654 471.713V494.256C586.654 497.994 585.465 500.956 583.126 503.14C580.786 505.324 577.554 506.397 573.506 506.397C569.495 506.397 566.301 505.324 563.961 503.214C561.621 501.104 560.395 498.18 560.358 494.515V471.713H567.415V494.293C567.415 496.551 567.935 498.18 569.012 499.179C570.089 500.178 571.575 500.734 573.469 500.734C577.443 500.734 579.449 498.661 579.523 494.478V471.713H586.654Z" fill="black"/>
<path d="M606.338 486.852C605.409 486.741 604.592 486.667 603.886 486.667C601.323 486.667 599.615 487.518 598.835 489.258V505.878H592.038V480.448H598.464L598.649 483.483C600.023 481.151 601.918 479.967 604.332 479.967C605.075 479.967 605.78 480.078 606.449 480.263L606.338 486.852Z" fill="black"/>
<path d="M623.685 505.916C623.387 505.287 623.127 504.547 623.016 503.621C621.382 505.472 619.228 506.361 616.59 506.361C614.102 506.361 612.022 505.657 610.388 504.214C608.754 502.77 607.937 500.956 607.937 498.772C607.937 496.07 608.939 493.997 610.945 492.553C612.951 491.11 615.848 490.369 619.636 490.369H622.756V488.926C622.756 487.741 622.459 486.816 621.865 486.113C621.27 485.409 620.305 485.039 619.005 485.039C617.853 485.039 616.962 485.298 616.293 485.853C615.625 486.409 615.328 487.149 615.328 488.111H608.531C608.531 486.631 608.976 485.261 609.905 484.04C610.834 482.781 612.096 481.819 613.768 481.078C615.439 480.375 617.296 480.005 619.376 480.005C622.533 480.005 625.022 480.782 626.879 482.374C628.736 483.966 629.664 486.15 629.664 489V500.031C629.664 502.437 630.036 504.251 630.667 505.509V505.916H623.685ZM618.039 501.178C619.042 501.178 619.97 500.956 620.825 500.512C621.679 500.068 622.31 499.475 622.719 498.698V494.33H620.156C616.739 494.33 614.919 495.515 614.696 497.847L614.659 498.254C614.659 499.105 614.956 499.809 615.551 500.327C616.182 500.919 616.999 501.178 618.039 501.178Z" fill="black"/>
<path d="M641.995 505.916H635.16V469.825H641.995V505.916Z" fill="black"/>
<path d="M547.734 452.499V462.16C528.696 462.16 513.246 446.702 513.246 427.655H522.868C522.868 441.354 534.042 452.499 547.734 452.499Z" fill="#FFB518"/>
<path d="M582.22 427.657C582.22 446.703 566.769 462.161 547.732 462.161V452.5C561.424 452.5 572.598 441.355 572.598 427.622H582.22V427.657Z" fill="#A40550"/>
<path d="M582.22 427.656H572.598C572.598 413.958 561.458 402.778 547.732 402.778V393.151C566.769 393.151 582.22 408.609 582.22 427.656Z" fill="#0784A2"/>
<path d="M547.734 393.151V402.778C534.042 402.778 522.868 413.923 522.868 427.656H513.246C513.246 408.609 528.697 393.151 547.734 393.151Z" fill="#02090A"/>
<path d="M547.734 447.979C558.953 447.979 568.048 438.88 568.048 427.656C568.048 416.432 558.953 407.333 547.734 407.333C536.515 407.333 527.42 416.432 527.42 427.656C527.42 438.88 536.515 447.979 547.734 447.979Z" fill="#05A32F"/>
<path d="M765.313 637.088C766.014 644.722 760.251 652.131 761.932 659.606C762.287 661.204 762.978 662.718 763.231 664.278C763.922 668.716 761.279 672.921 758.748 676.64L737.053 708.577C736.183 709.978 735.141 711.265 733.952 712.408C729.797 716.145 723.577 715.715 718.132 716.818C714.304 717.595 710.688 719.188 707.532 721.49C707.395 721.599 707.304 721.756 707.278 721.929C707.252 722.103 707.293 722.28 707.392 722.424C708.289 723.656 709.481 724.644 710.858 725.296C712.235 725.949 713.753 726.247 715.274 726.162C715.844 726.909 715.274 728.031 714.49 728.554C713.322 729.357 711.688 729.572 711.492 731.553C711.41 732.241 711.547 732.938 711.884 733.543C712.762 734.881 714.125 735.826 715.685 736.178C723.156 738.477 731.309 734.44 736.932 728.946C742.554 723.452 746.588 716.519 752.108 710.922C755.162 707.829 758.645 705.176 761.783 702.176C768.059 696.196 772.99 688.918 777.659 681.62C779.201 679.504 780.364 677.136 781.096 674.622C781.675 672.136 781.414 669.511 782.086 667.044C782.964 663.82 785.327 661.251 787.288 658.541C791.145 653.234 793.713 646.749 793.2 640.209C792.686 633.668 788.652 627.23 782.488 625.006C780.577 624.245 778.472 624.117 776.483 624.642C773.952 625.417 772.093 627.51 770.366 629.51L766.247 634.266C765.221 635.319 764.406 636.559 763.847 637.919C763.581 638.605 763.521 639.353 763.671 640.073C763.822 640.793 764.178 641.453 764.697 641.975" fill="#FBBEBE"/>
<path opacity="0.05" d="M765.313 637.088C766.014 644.722 760.251 652.131 761.932 659.606C762.287 661.204 762.978 662.718 763.231 664.278C763.922 668.716 761.279 672.921 758.748 676.64L737.053 708.577C736.183 709.978 735.141 711.265 733.952 712.408C729.797 716.145 723.577 715.715 718.132 716.818C714.304 717.595 710.688 719.188 707.532 721.49C707.395 721.599 707.304 721.756 707.278 721.929C707.252 722.103 707.293 722.28 707.392 722.424C708.289 723.656 709.481 724.644 710.858 725.296C712.235 725.949 713.753 726.247 715.274 726.162C715.844 726.909 715.274 728.031 714.49 728.554C713.322 729.357 711.688 729.572 711.492 731.553C711.41 732.241 711.547 732.938 711.884 733.543C712.762 734.881 714.125 735.826 715.685 736.178C723.156 738.477 731.309 734.44 736.932 728.946C742.554 723.452 746.588 716.519 752.108 710.922C755.162 707.829 758.645 705.176 761.783 702.176C768.059 696.196 772.99 688.918 777.659 681.62C779.201 679.504 780.364 677.136 781.096 674.622C781.675 672.136 781.414 669.511 782.086 667.044C782.964 663.82 785.327 661.251 787.288 658.541C791.145 653.234 793.713 646.749 793.2 640.209C792.686 633.668 788.652 627.23 782.488 625.006C780.577 624.245 778.472 624.117 776.483 624.642C773.952 625.417 772.093 627.51 770.366 629.51L766.247 634.266C765.221 635.319 764.406 636.559 763.847 637.919C763.581 638.605 763.521 639.353 763.671 640.073C763.822 640.793 764.178 641.453 764.697 641.975" fill="black"/>
<path d="M781.741 833.578C776.997 836.465 771.094 836.652 765.584 835.97C764.65 835.867 763.651 835.802 763.081 836.484C762.26 837.484 763.231 838.941 764.23 839.745C767.486 842.183 771.306 843.755 775.334 844.314C778.93 844.816 782.556 845.056 786.186 845.033C796.086 845.202 806.041 845.37 815.848 843.94C816.414 843.898 816.964 843.735 817.463 843.464C818.096 843.022 818.534 842.352 818.687 841.595C819.368 839.053 818.07 836.306 816.118 834.54C814.166 832.774 811.654 831.784 809.198 830.803L800.587 827.448C798.561 826.654 795.32 824.57 793.116 824.729C789.091 825.056 785.159 831.578 781.741 833.578Z" fill="#3F3D56"/>
<path opacity="0.05" d="M781.741 833.578C776.997 836.465 771.094 836.652 765.584 835.97C764.65 835.867 763.651 835.802 763.081 836.484C762.26 837.484 763.231 838.941 764.23 839.745C767.486 842.183 771.306 843.755 775.334 844.314C778.93 844.816 782.556 845.056 786.186 845.033C796.086 845.202 806.041 845.37 815.848 843.94C816.414 843.898 816.964 843.735 817.463 843.464C818.096 843.022 818.534 842.352 818.687 841.595C819.368 839.053 818.07 836.306 816.118 834.54C814.166 832.774 811.654 831.784 809.198 830.803L800.587 827.448C798.561 826.654 795.32 824.57 793.116 824.729C789.091 825.056 785.159 831.578 781.741 833.578Z" fill="black"/>
<path d="M787.746 719.162C784.169 723.937 780.452 729.441 781.339 735.355C781.816 738.541 783.599 741.354 784.907 744.297C786.544 748.346 787.755 752.555 788.521 756.855C789.866 763.106 791.211 769.376 792.033 775.72C792.967 782.887 788.577 803.621 788.166 810.843C788.064 812.581 787.867 814.469 786.653 815.721C786.177 816.216 785.542 816.655 785.336 817.263C785.206 817.881 785.305 818.525 785.617 819.075C787.643 823.644 791.78 827.036 796.375 828.98C800.97 830.923 812.149 834.259 817.136 834.436C817.799 834.516 818.47 834.426 819.088 834.175C819.761 833.772 820.291 833.167 820.601 832.446C824.206 825.56 820.741 801.042 820.797 793.258C820.797 786.718 822.375 780.327 822.095 773.842C821.862 768.638 820.47 763.564 819.966 758.369C819.135 749.857 820.694 741.316 822.263 732.907C823.459 726.469 824.654 720.022 826.186 713.65C827.12 709.772 828.203 705.848 830.342 702.437C832.032 699.755 834.33 697.522 836.263 694.962C841.621 687.935 843.999 679.081 842.884 670.313C842.772 669.454 830.444 673.443 829.37 673.911C824.947 675.793 820.876 678.415 817.332 681.666C814.531 684.376 812.243 688.01 809.74 691.056C806.209 695.355 802.726 699.687 799.289 704.054C795.385 709.068 791.538 714.104 787.746 719.162Z" fill="#464353"/>
<path opacity="0.05" d="M787.746 718.853C784.169 723.628 780.452 729.131 781.339 735.055C781.816 738.232 783.599 741.045 784.907 743.988C786.542 748.038 787.754 752.246 788.521 756.546C789.866 762.797 791.211 769.066 792.033 775.411C792.967 782.578 788.577 803.321 788.166 810.543C788.064 812.272 787.867 814.169 786.653 815.411C786.177 815.907 785.542 816.346 785.336 816.953C785.195 817.589 785.295 818.255 785.617 818.822C787.643 823.382 791.78 826.783 796.375 828.717C800.97 830.651 812.149 832.454 817.136 832.613C817.799 832.693 818.47 832.603 819.088 832.352C819.761 831.949 820.291 831.344 820.601 830.623C824.206 823.737 820.741 800.779 820.797 793.005C820.797 786.465 822.376 780.064 822.095 773.579C821.862 768.375 820.47 763.301 819.966 758.106C819.135 749.594 820.694 741.054 822.263 732.654C823.459 726.207 824.654 719.759 826.186 713.387C827.12 709.509 828.203 705.585 830.342 702.175C832.032 699.502 834.33 697.26 836.263 694.756C841.614 687.726 843.992 678.874 842.884 670.107C842.772 669.238 830.445 673.228 829.371 673.704C824.943 675.588 820.871 678.217 817.332 681.478C814.531 684.197 812.243 687.823 809.74 690.822C806.209 695.12 802.726 699.455 799.289 703.828C795.385 708.812 791.538 713.82 787.746 718.853Z" fill="black"/>
<path d="M747.877 614.036C758.982 614.036 767.984 605.029 767.984 593.919C767.984 582.808 758.982 573.802 747.877 573.802C736.772 573.802 727.77 582.808 727.77 593.919C727.77 605.029 736.772 614.036 747.877 614.036Z" fill="#FBBEBE"/>
<path d="M765.976 593.078C767.833 596.045 770.268 598.608 773.135 600.614C776.002 602.621 779.243 604.03 782.665 604.758L781.152 610.243C778.537 619.708 775.549 629.715 768.292 636.274C769.086 633.069 768.059 629.621 766.247 626.865C764.309 624.184 762.012 621.781 759.42 619.726L747.849 609.654C747.504 609.399 747.209 609.082 746.98 608.719C746.701 608.011 746.701 607.223 746.98 606.514C748.456 601.927 752.668 599.039 756.077 595.956C757.791 594.349 759.326 592.56 760.653 590.621C763.025 587.322 764.454 590.621 765.976 593.078Z" fill="#FBBEBE"/>
<path d="M721.382 573.7L720.934 569.962C724.109 570.785 727.116 568.094 729.143 565.291C731.17 562.487 733.056 559.198 736.147 558.04C739.883 556.62 743.88 558.89 747.466 560.759C751.487 562.997 755.901 564.441 760.466 565.01C761.195 565.035 761.917 565.154 762.614 565.365C764.949 566.197 766.061 569.103 766.397 571.784C766.733 574.466 766.64 577.269 767.798 579.643C768.666 581.437 770.17 582.773 771.085 584.539C773.541 589.304 771.169 595.807 773.765 600.479L767.321 594.564C766.724 594.023 765.892 593.462 765.248 593.92C764.604 594.378 764.697 595.069 764.482 595.695C763.857 597.564 761.568 598.087 759.897 597.368C758.225 596.648 757.02 595.06 755.797 593.63C752.948 590.266 749.558 587.314 745.524 585.875C743.778 585.205 741.909 584.916 740.042 585.027C738.175 585.138 736.354 585.647 734.7 586.52C731.693 588.22 729.489 592.182 725.809 592.322C720.756 592.509 718.655 583.1 716.311 579.381C717.165 578.735 717.765 577.81 718.007 576.767C718.249 575.723 718.118 574.628 717.637 573.672C718.048 573.513 721.317 573.093 721.382 573.7Z" fill="#464353"/>
<path d="M805.192 833.42C801.218 836.965 796.059 838.889 790.735 838.811C789.381 838.811 787.503 839.073 787.494 840.428C787.518 840.831 787.654 841.219 787.886 841.549C789.573 844.352 792.233 846.434 795.358 847.398C798.253 848.276 801.353 848.127 804.379 847.977L813.205 847.52C814.867 847.426 816.539 847.342 818.201 847.136C819.864 846.931 821.657 846.585 823.394 846.333C827.648 845.724 831.951 845.521 836.244 845.726C837.384 845.772 838.701 845.726 839.41 844.866C840.12 844.006 839.737 842.455 839.476 841.213C838.953 838.652 839.476 835.971 838.99 833.401C838.14 828.888 834.265 825.44 829.987 823.805C826.018 822.291 818.976 820.563 815.213 823.076C811.178 825.786 808.75 830.196 805.192 833.42Z" fill="#3F3D56"/>
<path d="M813.933 682.415C814.718 686.152 818.294 688.955 818.407 692.693C818.491 695.72 816.324 698.299 814.774 700.869C813.292 703.561 812.043 706.374 811.038 709.278C808.091 716.816 804.438 724.058 800.13 730.909C798.057 734.189 795.74 737.758 796.217 741.617C796.543 743.418 797.175 745.15 798.085 746.737L804.295 759.08C805.659 761.546 806.725 764.165 807.47 766.882C808.003 769.228 808.059 771.657 808.404 774.049C809.385 781.617 812.934 789.242 810.842 796.577C810.655 797.212 810.001 797.978 809.506 797.511C811.552 801.342 813.242 805.21 813.046 809.555C812.962 811.835 812.261 814.227 813.111 816.339C813.592 817.161 813.909 818.068 814.045 819.011C814.045 819.628 813.756 820.216 813.69 820.88C813.522 822.627 815.119 824.085 816.791 824.617C818.463 825.15 820.265 825.131 821.946 825.636C825.187 826.57 827.484 829.373 830.258 831.317C833.067 833.266 836.385 834.348 839.802 834.428C840.287 834.48 840.776 834.382 841.203 834.148C841.448 833.935 841.645 833.673 841.78 833.378C841.915 833.083 841.986 832.763 841.988 832.438C842.137 830.891 841.903 829.33 841.307 827.895C840.711 826.459 839.771 825.193 838.57 824.206C838.048 823.873 837.615 823.418 837.309 822.879C837.151 822.401 837.11 821.892 837.187 821.394C837.692 814.601 837.57 807.776 836.823 801.006C836.486 798.862 836.377 796.688 836.496 794.521C836.683 792.718 837.225 790.924 837.019 789.12C836.814 787.317 835.908 785.691 835.366 783.953C834.432 780.87 834.675 777.562 834.573 774.329C834.404 768.723 833.125 763.229 831.846 757.772C831.351 755.633 830.79 753.381 829.268 751.792C827.979 750.447 825.896 749.148 826.382 747.354C826.647 746.69 827.048 746.088 827.559 745.588C828.161 744.835 828.603 743.966 828.859 743.036C829.114 742.106 829.177 741.133 829.044 740.178C829.59 740.323 830.17 740.272 830.682 740.033C831.194 739.794 831.606 739.382 831.846 738.87C841.941 734.114 850.103 724.583 853.699 714.006C853.901 713.226 854.215 712.48 854.633 711.792C855.567 710.483 857.192 709.923 858.63 709.194C863.15 706.923 866.279 702.653 869.146 698.477C870.818 696.047 872.48 693.543 873.199 690.693C873.592 688.851 873.78 686.971 873.759 685.087L874.012 675.351C874.062 674.722 873.999 674.089 873.825 673.482C873.587 672.901 873.231 672.376 872.779 671.94C870.04 669.023 866.44 667.058 862.506 666.334C859.854 665.858 857.145 665.951 854.465 665.727C849.263 665.297 844.126 663.69 838.925 664.064C830.743 664.662 823.468 670.333 819.611 677.575C818.257 680.163 816.838 682.415 813.933 682.415Z" fill="#464353"/>
<path d="M768.544 619.101C768.663 620.603 768.462 622.112 767.956 623.53C767.321 624.894 765.715 625.95 764.323 625.399C764.743 624.465 763.623 623.353 762.586 623.474C762.073 623.588 761.596 623.826 761.196 624.166C760.796 624.506 760.484 624.939 760.289 625.427C759.592 626.815 759.36 628.391 759.626 629.921C759.952 631.79 761.054 633.659 760.765 635.528C760.531 637.116 759.364 638.705 759.99 640.2C760.392 640.871 760.896 641.476 761.484 641.994C762.305 643.001 762.707 644.285 762.608 645.581C762.509 646.876 761.916 648.084 760.952 648.955L776.623 649.263C776.053 651.889 777.22 654.57 778.565 656.897C782.329 663.292 787.52 668.728 793.734 672.781C799.947 676.833 807.014 679.392 814.381 680.256C813.983 680.491 813.643 680.811 813.383 681.193C813.124 681.576 812.953 682.011 812.881 682.467C812.81 682.924 812.84 683.39 812.97 683.833C813.1 684.277 813.327 684.686 813.634 685.031C814.904 686.292 817.061 686.133 818.658 685.311C820.255 684.489 821.516 683.134 822.973 682.088C825.543 680.255 828.684 679.407 831.826 679.696C833.788 679.882 835.693 680.518 837.663 680.63C843.472 680.938 848.459 676.762 854.016 675.024C858.088 673.772 862.692 673.772 866.157 671.23C867.633 670.137 868.837 668.343 868.408 666.558C868.043 665.534 867.467 664.598 866.717 663.811C864.747 661.27 863.589 658.205 862.188 655.318C859.394 649.595 855.551 644.448 850.859 640.143C847.325 637.044 843.581 634.194 839.653 631.613C838.696 630.899 837.677 630.273 836.608 629.744C835.181 629.279 833.79 628.714 832.443 628.053C830.575 626.894 829.538 624.848 828.128 623.194C825.018 619.569 820.246 617.896 816.417 615.046C813.849 613.177 811.588 610.617 808.516 609.692C807.031 609.244 805.443 609.206 803.949 608.758C800.568 607.73 798.103 604.721 794.778 603.507C792.144 602.572 789.249 602.797 786.466 602.451C783.405 602.071 780.48 600.959 777.94 599.209C777.096 598.528 776.151 597.986 775.138 597.601C770.945 596.321 770.599 604.142 770.207 606.861C769.581 611.019 768.544 615.018 768.544 619.101Z" fill="#A40550"/>
<path d="M772.635 645.356C773.336 652.99 767.573 660.39 769.254 667.875C769.609 669.473 770.3 670.986 770.552 672.547C771.253 676.985 768.601 681.19 766.07 684.899L744.375 716.761C743.505 718.162 742.463 719.449 741.274 720.592C737.118 724.33 730.899 723.9 725.454 725.002C721.626 725.781 718.011 727.374 714.854 729.674C714.716 729.783 714.625 729.94 714.599 730.114C714.573 730.287 714.614 730.464 714.714 730.609C715.609 731.843 716.801 732.831 718.178 733.484C719.555 734.137 721.074 734.434 722.596 734.346C723.166 735.103 722.596 736.215 721.812 736.738C720.644 737.551 719.01 737.766 718.814 739.747C718.732 740.435 718.869 741.132 719.206 741.737C720.087 743.072 721.448 744.016 723.007 744.372C730.478 746.671 738.631 742.634 744.253 737.14C749.876 731.646 753.91 724.713 759.439 719.116C762.493 716.023 765.976 713.369 769.105 710.37C775.39 704.39 780.265 697.111 784.981 689.814C786.522 687.697 787.684 685.329 788.418 682.815C788.997 680.33 788.736 677.704 789.408 675.238C790.286 672.014 792.649 669.435 794.61 666.735C798.467 661.428 801.035 654.943 800.522 648.402C800.008 641.862 795.974 635.424 789.81 633.2C787.9 632.434 785.793 632.306 783.805 632.836C781.283 633.611 779.415 635.704 777.688 637.704L773.569 642.46C772.542 643.51 771.73 644.751 771.178 646.113C770.911 646.797 770.848 647.543 770.998 648.261C771.147 648.979 771.502 649.639 772.019 650.159" fill="#FBBEBE"/>
<path d="M783.618 613.99C780.76 614.158 777.622 614.438 775.605 616.475C774.765 617.411 774.083 618.478 773.588 619.634C771.636 623.623 769.731 627.791 769.591 632.229C769.469 635.78 770.525 639.246 771.038 642.759C771.487 645.675 770.347 648.646 770.104 651.599C773.644 650.515 778.313 649.038 781.526 647.207C783.631 645.829 785.868 644.665 788.204 643.731C791.612 642.601 797.337 644.544 800.55 646.142C800.727 643.862 799.028 639.91 799.205 637.63C799.233 636.675 799.403 635.731 799.709 634.827C800.193 633.869 800.765 632.959 801.418 632.107C802.657 630.102 803.228 627.755 803.048 625.404C802.869 623.053 801.948 620.82 800.419 619.026C797.552 615.793 793.051 614.579 788.764 614.083C786.062 613.768 783.338 613.671 780.62 613.794" fill="#A40550"/>
<path d="M360.509 548.62L342.092 521.897C342.092 521.897 341.747 515.281 340.542 513.74C339.337 512.198 340.281 508.759 340.281 508.759C340.281 508.759 341.579 506.891 340.458 506.694C339.337 506.498 340.281 502.312 340.281 502.312L340.197 495.613C340.197 495.613 341.233 489.165 340.374 487.624C340.12 487.205 339.993 486.722 340.008 486.233C340.023 485.744 340.179 485.27 340.458 484.867C340.458 484.867 341.485 481.177 340.458 480.195C339.431 479.214 339.683 473.496 339.935 468.936C340.187 464.377 338.133 461.807 338.133 461.125C338.133 460.443 331.334 453.734 331.334 453.127C331.334 452.519 327.028 450.034 324.441 449.389C321.855 448.744 320.575 448.184 320.659 447.838C320.743 447.492 316.615 446.128 316.615 446.128C316.615 446.128 313.001 445.867 311.619 444.063C310.237 442.26 306.015 441.737 305.913 441.718L305.829 441.363C305.829 441.232 305.782 441.101 305.754 440.97C306.095 440.427 306.407 439.865 306.688 439.289L306.931 438.765C308.443 438.775 309.921 438.315 311.161 437.448C311.772 436.941 312.27 436.314 312.626 435.604C312.981 434.895 313.185 434.12 313.225 433.327C313.299 431.739 312.951 430.159 312.217 428.749C311.46 427.207 310.349 425.6 310.741 423.918C310.909 423.199 311.339 422.563 311.563 421.853C311.897 420.467 311.676 419.004 310.946 417.779C310.293 416.537 309.387 415.434 308.658 414.229C307.734 412.685 307.116 410.979 306.837 409.202C306.785 408.256 306.561 407.328 306.174 406.464C305.783 405.855 305.268 405.336 304.661 404.941C301.966 403.018 298.715 402.033 295.406 402.138C293.062 402.213 290.737 402.848 288.402 402.558C287.011 402.319 285.642 401.963 284.311 401.493C281.425 400.633 278.091 400.288 275.579 401.942C273.067 403.595 272.068 406.847 270.359 409.417C268.855 411.659 266.623 413.547 265.502 415.957C265.502 415.957 265.502 415.864 265.502 415.826C265.22 416.375 265.004 416.955 264.858 417.555C264.537 419.459 264.668 421.411 265.241 423.255C265.367 424.247 265.864 425.155 266.632 425.796C267.482 426.347 268.649 426.217 269.639 426.394L269.527 426.88C268.519 431.71 269.363 436.743 271.89 440.98C274.418 445.216 278.444 448.348 283.172 449.754C283.172 449.931 283.172 450.099 283.172 450.277C283.17 450.77 283.139 451.263 283.078 451.753C283.078 451.753 274.421 449.968 272.096 451.174C269.77 452.379 265.213 453.323 264.522 453.977C263.83 454.631 262.112 454.154 260.562 458.191C259.012 462.227 258.843 466.348 256.826 468.245C254.809 470.142 253.819 471.422 253.726 472.795C253.632 474.169 253.987 474.514 253.212 474.944C252.437 475.374 251.344 477.177 251.662 477.869C251.78 478.342 251.755 478.839 251.588 479.297C251.422 479.755 251.122 480.153 250.728 480.438C250.319 480.726 249.993 481.115 249.782 481.567C249.57 482.02 249.481 482.52 249.523 483.017C249.523 483.017 249 484.886 247.795 485.344C246.59 485.802 245.815 488.605 245.815 488.605L241.912 493.09L234.179 484.531C233.598 483.891 232.788 483.508 231.925 483.464C231.062 483.42 230.217 483.72 229.575 484.297L225.774 487.717C224.309 488.073 222.985 488.861 221.973 489.978C221.149 490.833 220.482 491.826 220.002 492.912L217.929 494.781C217.274 495.593 216.873 496.58 216.776 497.619C216.68 498.658 216.892 499.702 217.387 500.621L222.346 506.106V506.152C220.589 506.307 218.92 506.988 217.555 508.105C210.159 514.646 210.084 520.654 211.186 523.401C212.288 526.148 221.683 536.716 221.683 536.716C221.683 536.716 227.137 543.808 235.01 547.573L234.954 547.639C234.792 547.808 234.639 547.986 234.496 548.171L234.366 548.339L234.244 548.508L234.104 548.713C234.066 548.767 234.032 548.823 234.001 548.881L233.852 549.124C233.817 549.178 233.786 549.235 233.758 549.293C233.693 549.405 233.637 549.517 233.581 549.629C233.56 549.665 233.542 549.703 233.525 549.741C233.45 549.891 233.376 550.04 233.31 550.208L233.235 550.376C233.189 550.489 233.151 550.601 233.105 550.722C233.076 550.795 233.051 550.87 233.03 550.946L232.918 551.283C232.888 551.362 232.863 551.443 232.843 551.526C232.843 551.647 232.769 551.769 232.741 551.899C232.713 552.03 232.694 552.049 232.675 552.133C232.656 552.217 232.582 552.535 232.544 552.75C232.544 552.824 232.544 552.909 232.498 552.993C232.451 553.077 232.451 553.282 232.423 553.432C232.395 553.581 232.423 553.637 232.423 553.749L232.367 554.17V554.506C232.367 554.665 232.367 554.824 232.32 554.992C232.274 555.16 232.32 555.188 232.32 555.291C232.32 555.562 232.32 555.833 232.32 556.123C232.152 566.177 232.741 567.634 232.741 567.634C233.125 568.563 233.751 569.371 234.555 569.975C235.358 570.578 236.309 570.954 237.307 571.063C237.797 571.102 238.29 571.077 238.774 570.989C243.256 570.213 253.716 568.41 257.452 569.12C259.684 569.531 263.802 568.914 266.735 568.363L267.51 568.214L268.042 569.923L269.742 569.456L271.19 570.288L272.124 570.821C273.823 576.576 280.716 574.614 280.716 574.614L282.35 575.548L298.964 575.978C300.829 577.103 302.8 578.041 304.848 578.781C305.118 578.87 305.397 578.932 305.679 578.968C307.232 579.095 308.792 579.123 310.349 579.052C311.619 579.052 312.599 578.968 312.599 578.968C312.599 578.968 312.431 574.455 312.189 569.4C317.339 569.273 322.477 568.852 327.579 568.139C336.452 566.588 340.15 558.515 341.513 554.198C341.921 555.961 342.212 557.75 342.382 559.552C342.744 561.137 343.206 562.697 343.764 564.224C344.24 565.444 344.867 566.599 345.632 567.662C352.169 565.429 348.21 562.056 346.837 560.617C345.464 559.178 347.771 557.954 347.771 557.954C347.771 557.954 349.582 556.749 349.405 555.637C349.228 554.525 349.143 553.32 355.008 553.404C360.873 553.488 360.509 548.62 360.509 548.62ZM269.621 493.763C269.695 494.248 270.555 499.546 271.246 500.939C271.452 501.858 271.518 502.803 271.442 503.742C267.977 503.461 264.363 503.312 264.363 503.312C264.464 503.438 264.529 503.59 264.55 503.751L263.999 503.63L263.214 503.443L269.602 493.716L269.621 493.763ZM256.957 513.908L262.962 514.842L263.466 514.917C263.296 515.843 263.193 516.779 263.158 517.72C263.158 517.813 263.289 517.916 263.485 518.038C263.401 518.509 263.364 518.988 263.373 519.467C263.466 519.934 266.268 520.962 269.49 521.813C269.443 521.99 269.406 522.158 269.359 522.308C266.511 520.813 262.037 520.112 261.524 519C261.01 517.888 245.769 512.562 245.769 512.562L244.256 511.805L248.262 512.562L249.364 512.45C251.861 513.1 254.397 513.587 256.957 513.908Z" fill="url(#paint0_linear)"/>
<path d="M340.915 552.359C340.915 552.359 338.534 566.786 326.421 568.916C314.308 571.047 273.87 570.626 273.87 570.626C273.87 570.626 250.746 567.29 242.388 547.753C234.029 528.215 228.65 520.431 235.85 520.095C243.051 519.759 281.668 533.176 283.881 533.326C286.095 533.475 343.054 503.622 340.915 552.359Z" fill="#65617D"/>
<path opacity="0.05" d="M340.915 552.359C340.915 552.359 338.534 566.786 326.421 568.916C314.308 571.047 273.87 570.626 273.87 570.626C273.87 570.626 250.746 567.29 242.388 547.753C234.029 528.215 228.65 520.431 235.85 520.095C243.051 519.759 281.668 533.176 283.881 533.326C286.095 533.475 343.054 503.622 340.915 552.359Z" fill="black"/>
<path d="M232.479 568.42C232.855 569.344 233.473 570.149 234.269 570.749C235.065 571.35 236.008 571.724 236.999 571.831C237.49 571.861 237.982 571.833 238.466 571.747C242.902 570.98 253.305 569.186 256.976 569.878C259.18 570.28 263.261 569.672 266.165 569.13C268.099 568.766 269.518 568.42 269.518 568.42C269.518 568.42 266.1 557.068 265.68 556.731C265.259 556.395 250.317 547.387 250.317 547.387L238.494 546.537C236.902 546.775 235.463 547.619 234.478 548.892C233.236 550.405 232.162 552.882 232.087 556.946C231.891 566.953 232.479 568.42 232.479 568.42Z" fill="#3F3D56"/>
<path opacity="0.05" d="M232.479 568.421C232.854 569.345 233.473 570.149 234.269 570.75C235.065 571.35 236.008 571.724 236.999 571.831C235.841 570.336 234.769 568.776 233.787 567.159L233.852 558.881C233.617 556.61 233.917 554.316 234.728 552.182C235.539 550.049 236.838 548.135 238.521 546.594C238.521 546.594 232.292 547.014 232.115 557.003C231.937 566.991 232.479 568.421 232.479 568.421Z" fill="black"/>
<path opacity="0.1" d="M283.76 550.312L294.771 541.688L312.086 524.617L307.416 524.402C306.716 524.851 304.755 526.271 304.68 527.972C304.596 530.055 300.01 528.121 297.61 529.308C295.21 530.494 283.536 545.472 281.491 545.37C279.446 545.267 277.821 544.333 276.961 545.79L276.905 545.884L283.76 550.312Z" fill="black"/>
<path opacity="0.1" d="M234.45 548.912C234.842 549.098 235.244 549.285 235.645 549.453C244.004 553.041 254.323 560.554 255.099 561.918C255.566 562.75 261.552 566.384 266.165 569.113C268.099 568.748 269.518 568.403 269.518 568.403C269.518 568.403 266.1 557.05 265.68 556.714C265.26 556.377 250.317 547.37 250.317 547.37L238.494 546.52C236.886 546.76 235.435 547.618 234.45 548.912Z" fill="black"/>
<path d="M211.251 524.448C212.353 527.176 221.655 537.679 221.655 537.679C221.655 537.679 227.539 545.359 235.907 548.891C244.275 552.423 254.585 559.991 255.351 561.356C255.846 562.234 262.514 566.252 267.202 569.008L268.257 569.625L270.583 570.98L271.816 571.68C271.816 571.68 274.673 569.391 277.522 567.083C280.37 564.775 283.125 562.514 283.125 562.412C283.125 562.309 284.321 559.253 284.059 559.085C283.798 558.917 283.34 557.814 282.257 556.441C281.113 554.918 279.625 553.688 277.914 552.853C275.439 551.58 273.465 549.509 272.311 546.976C272.311 546.976 271.937 546.705 271.377 546.34C270.215 545.542 268.917 544.962 267.548 544.63C265.68 544.397 262.168 540.556 262.168 540.556C260.803 539.667 259.664 538.47 258.844 537.062C257.91 535.193 244.713 526.092 243.49 525.251L275.561 545.864L283.237 550.797L294.248 542.182L311.563 525.111L305.847 524.85C297.442 524.485 282.5 523.915 280.632 524.345C279.102 524.697 277.525 524.802 275.962 524.653C275.962 524.653 271.704 524.84 268.883 523.355C266.063 521.869 261.627 521.168 261.113 520.066C260.599 518.963 245.507 513.674 245.507 513.674C245.507 513.674 224.961 502.752 217.611 509.236C210.261 515.721 210.14 521.701 211.251 524.448Z" fill="#65617D"/>
<path d="M277.531 461.799L280.174 470.591L283.592 490.39L296.134 491.241L299.721 485.261L303.344 479.243C303.344 479.243 305.604 471.245 307.229 463.508C308.658 456.659 309.601 450.007 308.042 449.287C306.65 448.652 305.744 446.344 305.147 443.858C305.072 443.559 305.006 443.242 304.95 442.924C304.532 440.824 304.251 438.698 304.11 436.561C304.11 436.561 277.839 435.197 281.509 446.036C282.164 447.887 282.499 449.837 282.499 451.801C282.499 452.305 282.499 452.8 282.406 453.268C282.224 454.949 281.697 456.574 280.858 458.042C280.019 459.51 278.886 460.789 277.531 461.799Z" fill="#FBBEBE"/>
<path d="M272.077 460.351L273.011 475.301L275.14 488.018L277.531 493.913L279.669 526.131C279.669 526.131 300.215 528.513 305.24 526.084C305.61 525.942 305.934 525.699 306.174 525.383C312.216 516.254 310.236 489.812 310.236 489.812L312.534 472.741L311.002 463.883L307.266 463.49L304.409 463.182C304.409 463.182 303.764 463.976 302.83 465.209C300.299 468.545 295.649 475.123 295.966 477.861C296.386 481.598 295.452 485.457 293.996 486.055C292.539 486.653 291.353 487.681 291.1 486.653C290.737 485.792 290.646 484.84 290.839 483.925C291.1 482.467 289.728 478.029 289.728 478.029C289.728 478.029 287.43 472.825 287.598 470.61C287.766 468.396 287.346 465.826 286.664 465.228C285.983 464.63 285.039 464.032 285.805 461.304C286.571 458.575 282.443 453.259 282.443 453.259L272.077 460.351Z" fill="#E3E8F4"/>
<path opacity="0.1" d="M299.245 497.65L300.104 523.168L305.025 525.906C305.395 525.757 305.718 525.512 305.959 525.196C312.002 516.067 310.022 489.624 310.022 489.624L312.329 472.553L310.788 463.695L307.052 463.303C308.49 456.454 309.424 449.81 307.865 449.081C306.473 448.446 305.567 446.138 304.979 443.662L302.317 461.714C302.317 461.714 302.541 463.34 302.616 465.022C302.727 466.085 302.654 467.16 302.401 468.199C302.056 469.596 301.999 471.049 302.233 472.469C300.692 475.179 299.926 480.206 299.553 485.055C299.048 491.502 299.245 497.65 299.245 497.65Z" fill="black"/>
<path d="M305.054 443.215C305.054 443.215 309.359 443.747 310.722 445.541C312.086 447.335 315.672 447.597 315.672 447.597C315.672 447.597 319.763 448.961 319.679 449.298C319.595 449.634 320.874 450.157 323.414 450.839C325.955 451.521 330.241 453.998 330.241 454.577C330.241 455.156 336.975 461.828 336.975 462.51C336.975 463.192 339.02 465.752 338.768 470.274C338.516 474.797 338.254 480.552 339.281 481.487C340.309 482.421 339.281 486.093 339.281 486.093C339.005 486.493 338.851 486.964 338.836 487.45C338.821 487.935 338.946 488.415 339.197 488.831C340.047 490.363 339.02 496.764 339.02 496.764L339.113 503.426C339.113 503.426 338.179 507.603 339.281 507.78C340.383 507.958 339.113 509.826 339.113 509.826C339.113 509.826 338.179 513.237 339.366 514.779C340.552 516.32 340.897 522.88 340.897 522.88L359.155 549.425C359.155 549.425 359.417 554.293 353.617 554.209C347.817 554.125 347.892 555.321 348.07 556.424C348.247 557.526 346.445 558.732 346.445 558.732C346.445 558.732 344.147 559.928 345.511 561.376C346.874 562.824 350.797 566.16 344.315 568.374C343.552 567.321 342.924 566.175 342.447 564.964C341.898 563.458 341.443 561.92 341.084 560.357C341.084 560.357 340.486 553.864 339.291 553.013C338.095 552.163 338.264 548.061 338.264 548.061C338.264 548.061 339.973 544.735 337.582 543.389C335.191 542.044 300.561 522.833 300.561 522.833L299.721 497.306C299.721 497.306 299.123 478.441 302.709 472.124C302.475 470.704 302.533 469.252 302.878 467.854C303.475 466.322 302.794 461.37 302.794 461.37L305.054 443.215Z" fill="#3F3D56"/>
<path opacity="0.1" d="M282.696 453.492C282.696 453.492 274.122 451.726 271.816 452.922C269.509 454.118 264.998 455.053 264.344 455.726C263.691 456.398 261.963 455.903 260.422 459.911C258.881 463.92 258.722 468.022 256.752 469.9C254.781 471.778 253.772 473.058 253.688 474.422C253.604 475.787 253.941 476.132 253.175 476.553C252.409 476.973 251.307 478.777 251.634 479.459C251.961 480.141 269.378 495.165 269.378 495.165C269.378 495.165 270.237 500.884 271.003 502.332C271.769 503.78 270.153 523.757 268.444 525.121C266.735 526.486 279.922 526.374 279.922 526.374C279.922 526.374 280.52 513.292 281.033 512.582C281.547 511.872 280.688 497.903 280.688 497.903C280.688 497.903 280.604 485.952 281.715 482.794C282.826 479.636 282.649 469.134 282.649 469.134C282.649 469.134 283.63 462.836 284.825 461.369C286.02 459.902 282.696 453.492 282.696 453.492Z" fill="black"/>
<path d="M282.443 453.241C282.443 453.241 273.87 451.475 271.563 452.662C269.256 453.849 264.736 454.802 264.092 455.465C263.448 456.129 261.701 455.633 260.17 459.651C258.638 463.669 258.46 467.752 256.499 469.63C254.538 471.508 253.511 472.788 253.427 474.153C253.343 475.517 253.688 475.863 252.913 476.292C252.138 476.722 251.045 478.507 251.381 479.189C251.718 479.871 269.126 494.896 269.126 494.896C269.126 494.896 269.976 500.614 270.751 502.062C271.526 503.511 269.892 523.488 268.182 524.852C266.473 526.216 279.707 526.095 279.707 526.095C279.707 526.095 280.305 513.013 280.809 512.313C281.313 511.612 280.473 497.624 280.473 497.624C280.473 497.624 280.389 485.683 281.5 482.525C282.611 479.366 282.481 468.864 282.481 468.864C282.481 468.864 283.461 462.566 284.657 461.099C285.852 459.633 282.443 453.241 282.443 453.241Z" fill="#3F3D56"/>
<path opacity="0.1" d="M281.547 446.019C282.202 447.87 282.536 449.82 282.537 451.784C286.727 453.012 291.208 452.806 295.268 451.198C299.328 449.59 302.736 446.672 304.951 442.907C304.532 440.807 304.252 438.681 304.11 436.544C304.11 436.544 277.877 435.171 281.547 446.019Z" fill="black"/>
<path d="M268.575 432.526C268.571 437.535 270.49 442.355 273.934 445.991C277.378 449.627 282.086 451.802 287.086 452.068C292.086 452.333 296.997 450.669 300.807 447.418C304.616 444.167 307.033 439.577 307.56 434.596C308.086 429.614 306.682 424.62 303.636 420.643C300.591 416.667 296.136 414.012 291.191 413.225C286.246 412.438 281.188 413.58 277.06 416.415C272.932 419.25 270.048 423.562 269.004 428.461C268.718 429.797 268.574 431.16 268.575 432.526Z" fill="#FBBEBE"/>
<path d="M256.032 477.786L251.363 479.234C251.482 479.706 251.457 480.202 251.29 480.659C251.124 481.115 250.823 481.511 250.429 481.795C250.022 482.078 249.699 482.465 249.49 482.914C249.282 483.364 249.196 483.861 249.243 484.355C249.243 484.355 248.729 486.224 247.534 486.663C246.338 487.102 245.572 489.905 245.572 489.905L241.65 494.427C241.65 494.427 240.193 495.623 240.455 496.221C240.716 496.819 238.914 496.988 238.914 496.988L239.847 512.18L247.954 513.722L252.988 513.208L257.078 511.676L260.664 509.536L262.28 505.36L269.453 494.427L256.032 477.786Z" fill="#3F3D56"/>
<path d="M240.081 498.155C240.081 498.155 229.677 483.14 221.907 491.241C214.137 499.342 225.063 512.498 227.622 512.068C230.181 511.638 242.388 510.956 242.388 510.956L240.081 498.155Z" fill="#EE8E9E"/>
<path d="M264.591 491.662L218.633 468.193C217.925 467.832 217.059 468.113 216.698 468.821L198.777 503.949C198.416 504.657 198.696 505.524 199.404 505.885L245.362 529.354C246.07 529.716 246.936 529.435 247.297 528.727L265.218 493.598C265.579 492.89 265.298 492.024 264.591 491.662Z" fill="#3F3D56"/>
<path d="M260.316 493.75L219.532 472.923L203.844 503.674L244.628 524.501L260.316 493.75Z" fill="#0784A2"/>
<path d="M210.121 488.232C210.534 488.232 210.868 487.898 210.868 487.485C210.868 487.072 210.534 486.737 210.121 486.737C209.709 486.737 209.374 487.072 209.374 487.485C209.374 487.898 209.709 488.232 210.121 488.232Z" fill="#E6E8EC"/>
<path d="M254.267 511.358C254.953 511.358 255.509 510.802 255.509 510.116C255.509 509.429 254.953 508.873 254.267 508.873C253.581 508.873 253.025 509.429 253.025 510.116C253.025 510.802 253.581 511.358 254.267 511.358Z" fill="#E6E8EC"/>
<path d="M233.347 501.314C233.254 512.583 256.546 514.975 256.546 514.975L262.495 515.909L265.166 516.329L266.277 505.322C266.277 505.322 265.054 505.136 263.532 504.781C261.271 504.257 258.348 503.351 257.741 502.071C256.761 499.95 233.413 490.045 233.347 501.314Z" fill="#FBBEBE"/>
<path opacity="0.1" d="M269.004 428.46C269.54 428.5 270.045 428.724 270.433 429.095C271.087 429.796 271.124 431.039 271.984 431.469C272.305 431.604 272.659 431.643 273.002 431.581C275.271 431.263 276.578 428.703 278.764 427.993C280.034 427.666 281.378 427.782 282.574 428.32C283.06 428.477 283.498 428.757 283.844 429.133C284.573 430.067 284.059 431.469 284.395 432.609C284.862 434.197 286.758 434.823 288.392 435.029C290.027 435.234 291.876 435.356 292.969 436.589C293.33 437.052 293.59 437.585 293.73 438.156C293.87 438.726 293.887 439.319 293.781 439.897C293.683 440.299 293.683 440.719 293.781 441.121C294.229 442.401 296.443 442.205 297.022 441.196C297.451 440.457 297.321 439.85 298.32 439.645C299.034 439.588 299.75 439.713 300.403 440.009C302.141 440.606 303.972 440.887 305.81 440.84C306.979 438.346 307.608 435.633 307.655 432.879C307.702 430.125 307.168 427.392 306.085 424.859C305.003 422.326 303.398 420.05 301.375 418.182C299.352 416.313 296.958 414.893 294.348 414.015C291.738 413.137 288.973 412.82 286.232 413.087C283.492 413.353 280.839 414.196 278.447 415.559C276.055 416.923 273.978 418.778 272.352 421.001C270.726 423.224 269.589 425.766 269.014 428.46H269.004Z" fill="black"/>
<path d="M293.772 440.607C293.674 440.205 293.674 439.785 293.772 439.383C293.879 438.807 293.861 438.215 293.721 437.646C293.581 437.078 293.321 436.545 292.959 436.085C291.867 434.842 290.027 434.73 288.383 434.515C286.74 434.3 284.853 433.684 284.386 432.095C284.05 430.955 284.564 429.563 283.835 428.629C283.494 428.247 283.055 427.965 282.565 427.816C281.37 427.275 280.026 427.156 278.755 427.479C276.569 428.189 275.262 430.75 272.992 431.067C272.65 431.134 272.294 431.095 271.974 430.955C271.115 430.525 271.04 429.283 270.424 428.582C269.387 427.489 267.417 428.199 266.156 427.386C265.391 426.747 264.897 425.843 264.774 424.854C264.209 423.021 264.081 421.082 264.4 419.191C265.138 416.024 267.977 413.847 269.78 411.128C271.47 408.605 272.423 405.409 274.954 403.737C277.484 402.064 280.744 402.438 283.611 403.288C284.929 403.759 286.285 404.115 287.664 404.354C289.971 404.634 292.287 404.008 294.603 403.933C297.886 403.827 301.111 404.813 303.774 406.736C304.375 407.128 304.884 407.644 305.268 408.25C305.653 409.109 305.881 410.03 305.941 410.969C306.214 412.733 306.826 414.428 307.743 415.959C308.453 417.164 309.359 418.248 310.003 419.49C310.724 420.709 310.945 422.159 310.62 423.536C310.396 424.237 309.966 424.872 309.798 425.592C309.424 427.255 310.517 428.853 311.264 430.385C311.991 431.788 312.336 433.357 312.263 434.936C312.224 435.722 312.021 436.492 311.669 437.196C311.317 437.901 310.823 438.524 310.218 439.028C308.95 439.909 307.438 440.369 305.894 440.346C304.022 440.403 302.156 440.121 300.384 439.514C299.73 439.223 299.015 439.098 298.301 439.15C297.302 439.355 297.433 439.963 297.003 440.701C296.434 441.691 294.23 441.887 293.772 440.607Z" fill="#3F3D56"/>
<path opacity="0.1" d="M283.246 550.818L294.257 542.203L311.572 525.132L305.856 524.87C305.185 525.477 304.757 526.307 304.651 527.206C304.567 529.29 299.982 527.346 297.582 528.542C295.182 529.738 283.508 544.707 281.462 544.604C279.417 544.501 277.792 543.567 276.933 545.015L276.877 545.109C276.536 545.502 276.077 545.774 275.569 545.884L283.246 550.818Z" fill="black"/>
<path d="M261.066 550.219L266.595 567.888L267.463 570.691L270.097 569.972L275.906 568.374L301.757 561.273C305.013 561.132 308.2 560.284 311.096 558.787C315.983 556.048 321.575 554.828 327.159 555.284C330.577 555.601 334.378 554.125 337.535 548.294C337.535 548.294 344.698 527.131 326.617 521.067C308.537 515.003 307.668 524.29 307.668 524.29L307.416 524.44C306.716 524.888 304.754 526.309 304.68 528.009C304.596 530.093 300.01 528.159 297.61 529.345C295.21 530.532 283.536 545.51 281.491 545.407C279.445 545.304 277.82 544.37 276.961 545.828L276.905 545.921C276.27 546.79 274.374 546.996 273.113 547.024C272.721 547.044 272.329 547.044 271.937 547.024L271.769 547.07L270.461 547.463L261.066 550.219Z" fill="#65617D"/>
<path opacity="0.1" d="M262.495 515.917L265.166 516.338L266.277 505.331C266.277 505.331 265.054 505.144 263.531 504.789C263.933 506.331 263.018 512.264 262.495 515.917Z" fill="black"/>
<path opacity="0.1" d="M332.258 464.473C332.258 464.473 340.187 462.165 338.226 484.702C336.864 498.457 331.02 511.383 321.593 521.488C321.593 521.488 304.698 528.907 297.105 527.711C289.513 526.515 283.975 526.263 283.975 526.263C281.582 525.054 278.965 524.357 276.288 524.217C272.03 524.048 263.074 521.413 262.896 520.544C262.719 519.675 265.119 507.145 264.092 506.211C264.092 506.211 276.036 506.697 277.232 507.557C278.427 508.416 280.136 507.809 281.416 507.557C282.695 507.304 286.618 503.903 294.378 506.893C294.378 506.893 297.021 507.145 298.049 506.463C298.886 506.073 299.84 506.013 300.72 506.295C301.384 506.075 302.013 505.76 302.587 505.361C302.84 505.024 304.894 505.361 304.894 505.361C305.017 505.415 305.149 505.443 305.283 505.442C305.417 505.441 305.549 505.411 305.67 505.354C305.792 505.298 305.9 505.215 305.986 505.113C306.073 505.011 306.137 504.892 306.174 504.763C306.444 504.066 306.85 503.431 307.369 502.894C307.369 502.894 309.667 489.925 314.019 485.057C314.366 484.753 314.633 484.368 314.796 483.936C314.959 483.504 315.013 483.038 314.952 482.581C314.598 481.198 322.022 461.735 332.258 464.473Z" fill="black"/>
<path d="M332.043 462.734C332.043 462.734 339.982 460.435 338.021 482.963C336.662 496.719 330.817 509.646 321.388 519.749C321.388 519.749 304.493 527.177 296.9 525.981C289.308 524.785 283.76 524.505 283.76 524.505C281.372 523.296 278.757 522.599 276.083 522.459C271.815 522.281 262.859 519.656 262.691 518.787C262.523 517.918 264.905 505.388 263.887 504.444C263.887 504.444 275.831 504.939 277.027 505.799C278.222 506.659 279.922 506.042 281.201 505.799C282.481 505.556 286.403 502.146 294.173 505.126C294.173 505.126 296.816 505.388 297.834 504.706C298.672 504.318 299.624 504.255 300.505 504.528C301.167 504.302 301.795 503.988 302.373 503.594C302.625 503.248 304.671 503.594 304.671 503.594C304.793 503.649 304.925 503.676 305.059 503.675C305.193 503.674 305.325 503.644 305.447 503.587C305.568 503.531 305.676 503.448 305.763 503.346C305.85 503.244 305.913 503.125 305.95 502.996C306.22 502.299 306.626 501.664 307.145 501.127C307.145 501.127 309.452 488.158 313.804 483.29C314.152 482.986 314.419 482.601 314.582 482.169C314.745 481.737 314.798 481.272 314.738 480.814C314.393 479.468 321.808 460.033 332.043 462.734Z" fill="#3F3D56"/>
<path opacity="0.1" d="M270.433 547.415L281.696 561.057L281.771 560.982C281.855 560.72 282.966 557.824 282.705 557.646C282.443 557.469 280.491 553.208 276.569 551.414C274.574 550.441 272.898 548.917 271.741 547.022L270.433 547.415Z" fill="black"/>
<path opacity="0.1" d="M270.582 571.028L271.815 571.728C271.815 571.728 274.673 569.439 277.521 567.131C280.37 564.823 283.125 562.562 283.125 562.459C283.125 562.357 284.32 559.301 284.059 559.133C283.797 558.965 283.34 557.862 282.256 556.489C274.617 554.349 279.454 559.656 280.127 559.899C280.127 559.899 270.834 557.759 270.321 567.897C270.276 568.948 270.364 569.999 270.582 571.028Z" fill="black"/>
<path d="M280.006 575.317L281.631 576.252L298.096 576.672C299.942 577.795 301.894 578.734 303.923 579.475C304.192 579.556 304.467 579.615 304.745 579.653C306.274 579.778 307.808 579.806 309.34 579.737C310.601 579.737 311.572 579.653 311.572 579.653C311.572 579.653 310.797 558.882 310.209 556.695C309.929 555.649 308.546 555.873 307.183 556.396C306.161 556.815 305.174 557.315 304.232 557.891C304.232 557.891 297.246 558.573 296.135 559.171C295.023 559.769 291.867 558.826 289.905 559.171C287.944 559.517 284.442 556.863 284.442 556.863C274.888 553.705 280.267 559.592 280.949 559.853C280.949 559.853 271.61 557.714 271.134 567.852C270.658 577.99 280.006 575.317 280.006 575.317Z" fill="#3F3D56"/>
<path d="M303.812 567.3C303.989 571.598 307.342 576.933 309.34 579.755C310.601 579.755 311.572 579.671 311.572 579.671C311.572 579.671 310.797 558.9 310.209 556.713C309.929 555.667 308.547 555.891 307.183 556.414C305.53 559.516 303.662 563.824 303.812 567.3Z" fill="#565387"/>
<path opacity="0.1" d="M303.812 567.3C303.989 571.598 307.342 576.933 309.34 579.755C310.601 579.755 311.572 579.671 311.572 579.671C311.572 579.671 310.797 558.9 310.209 556.713C309.929 555.667 308.547 555.891 307.183 556.414C305.53 559.516 303.662 563.824 303.812 567.3Z" fill="black"/>
<path opacity="0.05" d="M300.99 567.87C302.13 572.018 302.111 576.671 303.923 579.493C304.192 579.573 304.467 579.633 304.745 579.671C306.273 579.795 307.808 579.824 309.339 579.755C310.6 579.755 311.572 579.671 311.572 579.671C311.572 579.671 310.796 558.9 310.208 556.713C309.928 555.667 308.546 555.891 307.182 556.414C306.16 556.833 305.173 557.333 304.231 557.909C304.231 557.909 299.543 562.553 300.99 567.87Z" fill="black"/>
<path opacity="0.1" d="M244.19 525.756C244.19 525.756 252.371 528.409 259.301 537.847L244.19 525.756Z" fill="black"/>
<g opacity="0.1">
<path opacity="0.1" d="M310.648 423.33C310.648 423.395 310.648 423.452 310.601 423.517C310.522 423.761 310.426 423.998 310.312 424.227C310.402 423.92 310.514 423.62 310.648 423.33Z" fill="black"/>
<path opacity="0.1" d="M264.382 419.192C264.52 418.594 264.734 418.017 265.017 417.473C265.017 417.613 264.923 417.762 264.886 417.912C264.575 419.803 264.706 421.742 265.269 423.574C265.393 424.561 265.883 425.464 266.642 426.106C267.912 426.919 269.882 426.209 270.919 427.302C271.573 428.003 271.61 429.246 272.469 429.676C272.789 429.816 273.144 429.855 273.487 429.788C275.757 429.47 277.064 426.91 279.249 426.2C280.521 425.872 281.866 425.991 283.06 426.536C283.55 426.686 283.989 426.967 284.33 427.349C285.058 428.283 284.545 429.676 284.881 430.815C285.348 432.404 287.244 433.03 288.878 433.235C290.512 433.441 292.362 433.563 293.454 434.805C293.816 435.266 294.076 435.798 294.216 436.367C294.356 436.935 294.373 437.528 294.267 438.104C294.169 438.506 294.169 438.925 294.267 439.328C294.715 440.608 296.928 440.411 297.507 439.402C297.937 438.664 297.806 438.057 298.806 437.851C299.519 437.799 300.235 437.924 300.888 438.216C302.66 438.823 304.527 439.104 306.398 439.047C307.942 439.071 309.454 438.61 310.722 437.73C311.277 437.294 311.729 436.742 312.049 436.113C311.76 437.258 311.104 438.275 310.181 439.01C308.912 439.89 307.4 440.351 305.857 440.327C303.985 440.384 302.118 440.103 300.347 439.496C299.693 439.204 298.978 439.079 298.264 439.131C297.265 439.337 297.395 439.944 296.975 440.682C296.387 441.692 294.173 441.888 293.725 440.608C293.632 440.205 293.632 439.786 293.725 439.384C293.832 438.808 293.815 438.216 293.674 437.647C293.534 437.078 293.275 436.546 292.913 436.085C291.82 434.843 289.98 434.73 288.336 434.516C286.693 434.301 284.806 433.684 284.339 432.096C284.003 430.956 284.517 429.563 283.788 428.629C283.45 428.248 283.014 427.967 282.528 427.816C281.329 427.275 279.982 427.157 278.708 427.48C276.532 428.19 275.215 430.75 272.946 431.068C272.603 431.135 272.248 431.096 271.928 430.956C271.068 430.526 270.994 429.283 270.377 428.582C269.341 427.489 267.379 428.199 266.109 427.386C265.345 426.748 264.851 425.843 264.727 424.854C264.172 423.02 264.053 421.08 264.382 419.192Z" fill="black"/>
</g>
<path opacity="0.1" d="M311.973 487.513C310.404 489.624 308.621 491.577 307.238 493.801C305.737 495.993 305.008 498.623 305.165 501.276C306.594 499.809 307.257 497.772 308.154 495.931C309.685 492.811 311.964 490.166 313.897 487.307C314.261 486.756 316.615 483.569 315.429 483.439C314.439 483.299 312.506 486.793 311.973 487.513Z" fill="black"/>
<path d="M320.379 687.441C321.509 691.067 322.648 694.701 324.058 698.224C326.599 704.348 329.796 710.178 333.594 715.613C336.042 719.19 338.673 722.64 341.476 725.947C344.987 730.086 348.947 734.253 350.142 739.542C350.862 742.597 350.619 745.784 350.918 748.886C351.216 751.988 352.234 755.314 354.765 757.183C356.568 758.519 358.875 758.921 361.088 759.267C362.676 759.519 364.655 759.603 365.477 758.229C365.765 757.668 365.915 757.047 365.916 756.417L366.299 751.848C366.374 750.857 366.729 749.596 367.719 749.549C368.709 749.502 369.204 750.82 370.044 751.418C371.165 752.203 372.846 751.418 373.462 750.231C373.974 748.946 374.007 747.52 373.556 746.213C372.876 743.613 371.653 741.185 369.967 739.092C368.282 736.998 366.172 735.285 363.778 734.066C362.114 733.396 360.519 732.566 359.015 731.59C357.486 730.261 356.219 728.657 355.279 726.862C346.612 712.585 337.899 698.233 331.782 682.695C330.576 679.918 329.762 676.987 329.363 673.986C329.064 670.931 329.54 667.857 329.736 664.792C330.098 659.286 329.588 653.758 328.224 648.412C327.925 647.009 327.398 645.664 326.664 644.432C324.142 640.61 318.259 640.04 314.523 642.675C313.148 643.734 312.007 645.067 311.174 646.591C310.341 648.114 309.834 649.794 309.685 651.524C309.415 654.626 311.198 657.84 312.104 660.727C314.85 669.641 317.608 678.546 320.379 687.441Z" fill="#F4B4B4"/>
<path opacity="0.05" d="M320.379 687.441C321.509 691.067 322.648 694.701 324.058 698.224C326.599 704.348 329.796 710.178 333.594 715.613C336.042 719.19 338.673 722.64 341.476 725.947C344.987 730.086 348.947 734.253 350.142 739.542C350.862 742.597 350.619 745.784 350.918 748.886C351.216 751.988 352.234 755.314 354.765 757.183C356.568 758.519 358.875 758.921 361.088 759.267C362.676 759.519 364.655 759.603 365.477 758.229C365.765 757.668 365.915 757.047 365.916 756.417L366.299 751.848C366.374 750.857 366.729 749.596 367.719 749.549C368.709 749.502 369.204 750.82 370.044 751.418C371.165 752.203 372.846 751.418 373.462 750.231C373.974 748.946 374.007 747.52 373.556 746.213C372.876 743.613 371.653 741.185 369.967 739.092C368.282 736.998 366.172 735.285 363.778 734.066C362.114 733.396 360.519 732.566 359.015 731.59C357.486 730.261 356.219 728.657 355.279 726.862C346.612 712.585 337.899 698.233 331.782 682.695C330.576 679.918 329.762 676.987 329.363 673.986C329.064 670.931 329.54 667.857 329.736 664.792C330.098 659.286 329.588 653.758 328.224 648.412C327.925 647.009 327.398 645.664 326.664 644.432C324.142 640.61 318.259 640.04 314.523 642.675C313.148 643.734 312.007 645.067 311.174 646.591C310.341 648.114 309.834 649.794 309.685 651.524C309.415 654.626 311.198 657.84 312.104 660.727C314.85 669.641 317.608 678.546 320.379 687.441Z" fill="black"/>
<path d="M265.931 840.099C267.621 840.687 269.418 840.904 271.199 840.735C271.329 839.277 273.291 838.95 274.747 839.025C275.452 839.001 276.151 839.163 276.774 839.492C277.138 839.726 277.418 840.062 277.773 840.305C278.406 840.652 279.116 840.835 279.837 840.837L287.421 841.473C290.801 841.762 294.322 842.024 297.488 840.819C298.119 840.619 298.679 840.243 299.104 839.735C299.963 838.502 299.104 836.736 297.918 835.839C296.732 834.942 295.2 834.54 294.005 833.624C291.371 831.615 291.007 827.859 289.615 824.85C288.626 822.953 287.406 821.186 285.982 819.59C284.951 818.219 283.749 816.985 282.405 815.918C279.361 813.722 275.868 813.769 272.291 813.451C269.77 813.227 267.398 813.077 265.586 815.32C263.344 818.123 264.241 823.729 264.381 826.999C264.556 831.4 265.074 835.78 265.931 840.099Z" fill="#514E7F"/>
<path opacity="0.05" d="M265.931 840.099C267.621 840.687 269.418 840.904 271.199 840.735C271.329 839.277 273.291 838.95 274.747 839.025C275.452 839.001 276.151 839.163 276.774 839.492C277.138 839.726 277.418 840.062 277.773 840.305C278.406 840.652 279.116 840.835 279.837 840.837L287.421 841.473C290.801 841.762 294.322 842.024 297.488 840.819C298.119 840.619 298.679 840.243 299.104 839.735C299.963 838.502 299.104 836.736 297.918 835.839C296.732 834.942 295.2 834.54 294.005 833.624C291.371 831.615 291.007 827.859 289.615 824.85C288.626 822.953 287.406 821.186 285.982 819.59C284.951 818.219 283.749 816.985 282.405 815.918C279.361 813.722 275.868 813.769 272.291 813.451C269.77 813.227 267.398 813.077 265.586 815.32C263.344 818.123 264.241 823.729 264.381 826.999C264.556 831.4 265.074 835.78 265.931 840.099Z" fill="black"/>
<path d="M268.995 692.515C266.679 693.263 265.67 696.15 266.1 698.551C266.529 700.953 267.967 703.027 269.153 705.157C272.534 711.203 273.991 718.117 276.83 724.424C278.95 729.096 281.817 733.487 283.909 738.215C286.001 742.943 287.299 748.279 286.029 753.296C285.413 755.735 284.217 757.968 283.424 760.369C282.638 762.972 282.125 765.649 281.892 768.358C280.864 777.56 280.679 786.837 281.341 796.072C281.347 797.198 281.582 798.31 282.032 799.342C282.508 800.277 283.33 801.211 282.966 802.145C282.807 802.528 282.462 802.809 282.294 803.182C281.808 804.229 282.779 805.341 283.666 806.088C283.508 806.369 283.295 806.616 283.04 806.813C282.785 807.01 282.493 807.155 282.182 807.238C282.818 807.643 283.307 808.243 283.576 808.948C283.845 809.653 283.88 810.426 283.676 811.153C282.891 811.274 282.845 812.479 283.34 813.115C283.835 813.75 284.619 814.143 284.974 814.862C285.183 815.448 285.16 816.092 284.91 816.662C284.66 817.231 284.202 817.684 283.629 817.927C282.462 818.376 281.19 818.474 279.968 818.207C277.897 817.919 275.852 817.469 273.851 816.862C272.805 816.656 271.868 816.08 271.213 815.239C270.558 814.398 270.228 813.348 270.284 812.283C269.821 808.48 269.68 804.645 269.863 800.818C270.19 782.28 269.863 763.724 269.06 745.195C268.733 737.72 266.492 730.479 263.606 723.602C262.011 720.087 260.237 716.657 258.292 713.324C254.127 705.699 250.447 697.252 251.4 688.609C251.503 687.675 251.839 686.563 252.763 686.414C253.125 686.375 253.49 686.436 253.819 686.591C255.737 687.488 257.594 688.511 259.375 689.656C262.303 691.374 265.604 692.355 268.995 692.515Z" fill="#464353"/>
<path opacity="0.05" d="M268.995 692.515C266.679 693.263 265.67 696.15 266.1 698.551C266.529 700.953 267.967 703.027 269.153 705.157C272.534 711.203 273.991 718.117 276.83 724.424C278.95 729.096 281.817 733.487 283.909 738.215C286.001 742.943 287.299 748.279 286.029 753.296C285.413 755.735 284.217 757.968 283.424 760.369C282.638 762.972 282.125 765.649 281.892 768.358C280.864 777.56 280.679 786.837 281.341 796.072C281.347 797.198 281.582 798.31 282.032 799.342C282.508 800.277 283.33 801.211 282.966 802.145C282.807 802.528 282.462 802.809 282.294 803.182C281.808 804.229 282.779 805.341 283.666 806.088C283.508 806.369 283.295 806.616 283.04 806.813C282.785 807.01 282.493 807.155 282.182 807.238C282.818 807.643 283.307 808.243 283.576 808.948C283.845 809.653 283.88 810.426 283.676 811.153C282.891 811.274 282.845 812.479 283.34 813.115C283.835 813.75 284.619 814.143 284.974 814.862C285.183 815.448 285.16 816.092 284.91 816.662C284.66 817.231 284.202 817.684 283.629 817.927C282.462 818.376 281.19 818.474 279.968 818.207C277.897 817.919 275.852 817.469 273.851 816.862C272.805 816.656 271.868 816.08 271.213 815.239C270.558 814.398 270.228 813.348 270.284 812.283C269.821 808.48 269.68 804.645 269.863 800.818C270.19 782.28 269.863 763.724 269.06 745.195C268.733 737.72 266.492 730.479 263.606 723.602C262.011 720.087 260.237 716.657 258.292 713.324C254.127 705.699 250.447 697.252 251.4 688.609C251.503 687.675 251.839 686.563 252.763 686.414C253.125 686.375 253.49 686.436 253.819 686.591C255.737 687.488 257.594 688.511 259.375 689.656C262.303 691.374 265.604 692.355 268.995 692.515Z" fill="black"/>
<path d="M237.681 669.978C236.473 669.202 235.08 668.763 233.646 668.707C231.984 668.791 230.564 669.884 229.266 670.931C227.728 672.112 226.268 673.392 224.896 674.762C222.053 677.793 220.073 681.53 219.16 685.584C218.247 689.639 218.434 693.864 219.703 697.822C221.076 701.943 223.588 705.577 226.072 709.137L231.115 716.388C238.811 727.442 246.506 738.496 254.566 749.288C254.568 749.553 254.654 749.811 254.811 750.024C254.969 750.237 255.191 750.395 255.444 750.474C255.733 750.549 256.098 750.54 256.275 750.783C256.357 750.934 256.393 751.106 256.378 751.278C256.36 752.076 256.208 752.866 255.929 753.614C255.799 753.86 255.765 754.147 255.836 754.417C256.098 755.025 257.2 754.679 257.554 755.249C257.788 755.623 257.498 756.108 257.19 756.426C256.882 756.744 256.499 757.099 256.555 757.538C256.611 757.977 257.377 758.472 257.349 759.014C257.349 759.332 257.069 759.575 256.873 759.827C256.598 760.229 256.473 760.715 256.519 761.2C256.565 761.685 256.78 762.138 257.125 762.481C257.657 767.751 254.79 772.759 254.22 778.01C253.286 786.307 257.069 794.409 257.526 802.734C257.499 803.671 257.678 804.602 258.049 805.462C258.825 806.901 260.851 807.77 260.748 809.405C260.602 810.077 260.412 810.739 260.179 811.386C260.02 812.321 260.468 813.255 260.487 814.189C260.506 815.124 259.674 816.273 258.797 815.899C259.457 818.104 260.045 820.328 260.562 822.571L278.213 824.028C278.403 822.441 278.349 820.834 278.054 819.263C277.69 817.553 276.924 815.965 276.522 814.273C276.261 813.441 276.188 812.561 276.307 811.696C276.427 810.832 276.736 810.005 277.213 809.274C276.753 809.28 276.306 809.123 275.951 808.83C275.595 808.538 275.354 808.129 275.271 807.677C275.123 806.765 275.139 805.835 275.317 804.93C275.784 800.323 273.851 795.782 273.907 791.157C273.963 787.513 275.243 784.009 275.887 780.43C277.269 772.768 275.831 764.462 279.24 757.463C281.304 753.249 284.162 748.577 281.846 744.494C280.706 742.476 278.689 741.093 277.372 739.187C276.299 737.385 275.493 735.437 274.981 733.403C272.264 724.994 267.865 717.182 264.008 709.184C262.937 707.179 262.142 705.039 261.645 702.821C261.373 700.875 261.272 698.908 261.346 696.944C261.346 693.418 261.131 689.895 260.702 686.395C260.615 684.861 260.177 683.369 259.422 682.031C258.66 681.019 257.709 680.166 256.621 679.518C250.83 675.547 243.938 673.276 237.681 669.978Z" fill="#464353"/>
<path d="M258.834 846.574C260.529 847.154 262.327 847.367 264.111 847.2C264.241 845.742 266.193 845.415 267.65 845.49C268.355 845.467 269.053 845.628 269.677 845.957C270.041 846.191 270.321 846.537 270.685 846.77C271.316 847.121 272.027 847.305 272.749 847.303L280.323 847.938C283.713 848.228 287.225 848.499 290.4 847.284C291.03 847.087 291.588 846.711 292.007 846.2C292.866 844.967 292.007 843.21 290.821 842.313C289.634 841.416 288.103 841.005 286.917 840.089C284.274 838.08 283.919 834.334 282.518 831.325C281.538 829.422 280.32 827.651 278.894 826.055C277.86 824.687 276.654 823.456 275.308 822.392C272.273 820.187 268.771 820.234 265.203 819.916C262.672 819.692 260.3 819.552 258.498 821.785C256.256 824.588 257.153 830.194 257.284 833.474C257.459 837.874 257.978 842.254 258.834 846.574Z" fill="#514E7F"/>
<path d="M337.068 639.395C346.723 639.395 354.551 631.564 354.551 621.904C354.551 612.243 346.723 604.412 337.068 604.412C327.412 604.412 319.585 612.243 319.585 621.904C319.585 631.564 327.412 639.395 337.068 639.395Z" fill="#F4B4B4"/>
<path d="M320.575 627.1C318.072 629.258 314.476 629.417 311.189 629.753C304.159 630.476 297.317 632.457 290.988 635.602C290.113 635.98 289.319 636.526 288.654 637.21C288.086 637.951 287.681 638.804 287.468 639.714C286.866 641.682 286.641 643.745 286.805 645.797C287.034 647.786 287.605 649.721 288.495 651.515C290.921 656.54 294.665 660.813 299.328 663.877C300.15 664.489 301.082 664.936 302.074 665.194C304.371 665.671 306.594 664.344 308.864 663.746C310.928 663.207 313.104 663.275 315.13 663.942C316.998 664.577 319.043 665.736 320.892 664.961C322.076 664.298 322.996 663.249 323.498 661.989C325.284 658.613 326.877 655.137 328.27 651.58C328.771 650.192 329.347 648.831 329.998 647.506C332.025 643.647 335.527 640.667 337.273 636.658C337.45 636.353 337.558 636.011 337.587 635.659C337.616 635.306 337.566 634.952 337.441 634.621C337.118 634.175 336.669 633.833 336.152 633.64C333.57 632.161 331.217 630.313 329.167 628.155C328.018 627.053 325.907 624.072 324.254 623.811C322.396 623.493 321.836 626.016 320.575 627.1Z" fill="#F4B4B4"/>
<path d="M320.986 662.643C318.959 663.577 316.569 663.175 314.374 662.717C308.714 661.531 302.989 660.335 297.75 657.887C296.113 657.26 294.695 656.169 293.669 654.747C293.032 653.531 292.644 652.2 292.53 650.832L291.596 644.292C291.259 642.021 291.838 639.919 291.895 637.62C291.93 637.365 291.915 637.106 291.849 636.857C291.783 636.609 291.668 636.376 291.512 636.172C291.192 635.903 290.779 635.772 290.363 635.807C287.739 635.854 286.151 638.611 284.311 640.479C283.248 641.558 281.977 642.41 280.575 642.983C278.894 643.675 276.84 644.161 276.139 645.843C275.859 646.543 275.897 647.338 275.598 648.038C274.421 650.842 269.406 649.907 268.126 652.71C267.762 653.495 267.79 654.476 267.193 655.093C266.595 655.71 265.474 655.7 264.55 655.85C260.898 656.448 259.133 660.662 256.014 662.652C253.389 664.334 250.008 664.297 247.179 665.605C245.61 666.333 244.218 667.473 242.556 667.95C240.894 668.426 239.016 668.174 237.233 668.221C237.042 668.203 236.85 668.224 236.669 668.284C236.487 668.343 236.32 668.44 236.177 668.567C236.066 668.736 235.993 668.927 235.963 669.127C235.932 669.327 235.945 669.531 236 669.725C236.865 675.25 239.153 680.455 242.64 684.826C246.126 689.197 250.69 692.584 255.883 694.654C256.486 694.846 257.058 695.123 257.583 695.477C259.17 696.663 259.45 699.214 261.253 700.055C261.903 700.284 262.604 700.328 263.279 700.183C263.953 700.038 264.574 699.709 265.073 699.233C266.067 698.275 267.003 697.258 267.874 696.187C269.52 694.467 271.68 693.329 274.029 692.944C276.195 692.599 278.614 692.851 280.37 691.515C281.088 690.855 281.756 690.143 282.369 689.384C283.669 688.17 285.213 687.247 286.898 686.675C291.501 684.855 296.367 683.786 301.308 683.507C305.913 683.255 310.647 683.675 315 682.18C316.13 681.83 317.171 681.24 318.053 680.452C318.989 679.439 319.685 678.229 320.089 676.911C321.659 672.321 321.969 667.393 320.986 662.643Z" fill="#FFB518"/>
<path d="M298.45 636.864C299.739 636.742 301.037 636.864 302.335 636.864C303.858 636.864 305.361 636.49 306.884 636.48C309.294 636.52 311.629 637.329 313.548 638.79C315.466 640.25 316.868 642.286 317.549 644.6C317.677 644.97 317.7 645.368 317.614 645.749C317.564 645.938 317.448 646.102 317.286 646.212C317.125 646.322 316.93 646.37 316.736 646.347C316.231 644.966 315.57 643.646 314.766 642.414C313.318 640.437 311.255 638.997 308.901 638.321C306.553 637.656 304.08 637.566 301.691 638.06C300.692 638.246 299.72 638.508 298.749 638.779L294.08 640.068C293.22 640.302 292.352 640.536 291.521 640.844C290.876 641.087 289.774 641.975 289.139 642.012C288.28 642.012 288.971 641.264 289.354 640.76C290.116 639.719 291.184 638.942 292.408 638.536C294.349 637.741 296.377 637.179 298.45 636.864Z" fill="#FFB518"/>
<path d="M310.237 689.403C311.367 693.029 312.497 696.664 313.916 700.186C316.453 706.312 319.651 712.143 323.452 717.575C325.9 721.153 328.531 724.602 331.334 727.909C334.836 732.048 338.749 736.216 340 741.495C340.72 744.56 340.477 747.746 340.776 750.839C341.074 753.931 342.092 757.267 344.614 759.136C346.426 760.463 348.733 760.864 350.946 761.22C352.524 761.472 354.504 761.556 355.335 760.182C355.617 759.619 355.767 758.999 355.774 758.37L356.148 753.801C356.232 752.81 356.587 751.549 357.567 751.502C358.548 751.455 359.062 752.773 359.902 753.371C361.023 754.156 362.704 753.371 363.32 752.184C363.828 750.899 363.861 749.474 363.414 748.166C362.73 745.567 361.506 743.141 359.821 741.048C358.136 738.955 356.028 737.241 353.636 736.019C351.97 735.346 350.373 734.517 348.863 733.543C347.332 732.213 346.065 730.606 345.128 728.806C336.452 714.538 327.738 700.186 321.63 684.638C320.426 681.864 319.609 678.937 319.202 675.939C318.913 672.884 319.38 669.81 319.585 666.745C319.947 661.239 319.437 655.711 318.072 650.365C317.775 648.96 317.244 647.615 316.503 646.385C313.991 642.554 308.098 641.993 304.362 644.628C302.986 645.686 301.844 647.019 301.009 648.543C300.175 650.066 299.666 651.746 299.515 653.477C299.245 656.579 301.038 659.793 301.934 662.68C304.692 671.6 307.46 680.508 310.237 689.403Z" fill="#F4B4B4"/>
<path d="M362.498 609.533C362.638 608.075 361.331 606.73 359.846 605.796C358.282 604.994 356.78 604.075 355.354 603.048C354.028 601.899 353.299 600.404 351.973 599.255C350.465 598.106 348.754 597.254 346.93 596.741C343.049 595.38 338.975 594.651 334.864 594.583C330.708 594.583 326.458 595.517 323.33 597.638C322.558 598.124 321.891 598.759 321.369 599.507C320.875 600.404 320.558 601.387 320.435 602.404C319.689 605.539 318.68 608.605 317.418 611.57C316.12 614.868 314.738 618.288 311.684 620.839C308.415 623.558 303.419 625.128 301.261 628.417C301.023 628.709 300.856 629.053 300.773 629.421C300.69 629.789 300.694 630.171 300.785 630.538C301.093 631.369 302.083 631.939 302.999 632.463C308.303 635.509 312.879 639.461 315.233 644.18C317.586 648.898 317.521 654.458 314.168 658.803C312.935 660.41 311.236 662.316 312.44 663.932C314.308 666.39 320.556 664.979 322.013 667.576C322.471 668.408 322.2 669.352 322.2 670.258C322.2 672.986 324.824 675.406 328.009 676.668C331.193 677.929 334.882 678.228 338.469 678.387C339.421 676.246 339.514 673.821 338.73 671.613C338.491 671.136 338.397 670.6 338.459 670.071C338.727 669.483 339.142 668.975 339.664 668.595C343.493 664.969 342.68 659.644 340.383 655.336C338.086 651.029 334.499 647.095 333.164 642.563C332.501 640.311 332.501 637.779 334.285 635.91C335.308 635.012 336.412 634.208 337.581 633.509C339.67 632.09 341.279 630.07 342.195 627.716C343.269 624.735 343.129 621.175 346.248 619.166C349.246 617.298 353.458 617.84 356.773 616.56C359.323 615.55 362.293 611.673 362.498 609.533Z" fill="#464353"/>
</g>
<defs>
<linearGradient id="paint0_linear" x1="285.619" y1="579.146" x2="285.619" y2="400.774" gradientUnits="userSpaceOnUse">
<stop stop-color="#808080" stop-opacity="0.25"/>
<stop offset="0.54" stop-color="#808080" stop-opacity="0.12"/>
<stop offset="1" stop-color="#808080" stop-opacity="0.1"/>
</linearGradient>
<clipPath id="clip0">
<rect width="1100" height="860" fill="white"/>
</clipPath>
</defs>
</svg>
