<svg width="260" height="260" viewBox="0 0 260 260" fill="none" xmlns="http://www.w3.org/2000/svg">
<path d="M179.651 63.2552H171.958V50.1123C171.958 45.1449 167.922 41.1434 162.989 41.1434H96.5154C91.548 41.1434 87.5465 45.1794 87.5465 50.1123V63.2552H79.8539V50.1123C79.8539 40.9019 87.3395 33.4163 96.5499 33.4163H162.989C172.199 33.4163 179.685 40.9019 179.685 50.1123V63.2552H179.651Z" fill="#FFC300"/>
<path d="M160.229 48.3189H99.2406C96.412 48.3189 94.1007 46.0076 94.1007 43.179V31.1399C94.1007 28.3112 96.412 26 99.2406 26H160.195C163.024 26 165.335 28.3112 165.335 31.1399V43.179C165.369 46.0076 163.058 48.3189 160.229 48.3189Z" fill="#E44501"/>
<path d="M28.9724 233.01C19.0376 233.01 11 224.972 11 215.038V61.3237C11 58.4951 13.3112 56.1838 16.1399 56.1838H243.33C246.159 56.1838 248.47 58.4951 248.47 61.3237V215.038C248.47 224.972 240.432 233.01 230.498 233.01H28.9724Z" fill="#E44501"/>
<path d="M11 128.487V59.0125C11 57.4602 13.3112 56.1838 16.1399 56.1838H243.33C246.159 56.1838 248.47 57.4602 248.47 59.0125V128.487C248.47 142.665 236.983 154.152 222.805 154.152H36.665C22.4871 154.152 11 142.665 11 128.487Z" fill="#FF6300"/>
<path d="M134.219 150.427H118.179V184.647H134.219V150.427Z" fill="#FFB600"/>
<path d="M133.012 164.984H119.386V183.612H133.012V164.984Z" fill="#FF9F00"/>
<path d="M133.391 183.957H118.972V164.57H133.391V183.957ZM119.766 183.198H132.633V165.363H119.766V183.198Z" fill="#E44501"/>
<path d="M126.182 132.006C121.766 132.006 118.144 136.111 118.144 141.216V150.427H134.185C134.185 150.427 134.185 146.322 134.185 141.216C134.219 136.145 130.632 132.006 126.182 132.006Z" fill="#E44501"/>
<path d="M135.185 158.533H117.213V163.673H135.185V158.533Z" fill="#FFC300"/>
<path d="M128.114 177.264L127.079 173.056C127.389 172.814 127.562 172.435 127.562 172.021C127.562 171.262 126.941 170.641 126.182 170.641C125.423 170.641 124.802 171.262 124.802 172.021C124.802 172.435 125.009 172.814 125.285 173.056L124.25 177.264H128.114Z" fill="#AB6B00"/>
<path d="M57.949 49.9055H31.3181V56.0803H57.949V49.9055Z" fill="#FFC300"/>
<path d="M225.461 49.9055H198.83V56.0803H225.461V49.9055Z" fill="#FFC300"/>
</svg>
