<svg width="260" height="260" viewBox="0 0 260 260" fill="none" xmlns="http://www.w3.org/2000/svg">
<path d="M129.914 135.346C85.6575 135.346 48.0258 83.4276 42.3591 14.5494L42 10H87.8124V28.5166H79.3922V18.4202H51.1785C57.6832 80.634 91.0448 126.965 129.914 126.965C168.782 126.965 202.184 80.634 208.649 18.4202H180.395V28.5166H171.975V10H217.827L217.468 14.5494C211.801 83.4276 174.17 135.346 129.914 135.346Z" fill="#FF9F00"/>
<path d="M181.472 25.1649C181.472 27.9584 181.433 30.7518 181.353 33.5453C181.313 34.7424 181.273 35.9796 181.233 37.1767C178.998 87.738 162.756 128.841 141.526 139.935C141.167 140.135 140.808 140.295 140.449 140.454C138.134 141.532 135.78 142.29 133.425 142.649C132.268 142.849 131.111 142.928 129.953 142.928C128.796 142.928 127.639 142.849 126.482 142.649C124.087 142.29 121.733 141.572 119.418 140.454C119.059 140.295 118.7 140.135 118.381 139.935C97.1106 128.802 80.8687 87.6981 78.634 37.1767C78.5941 35.9796 78.5142 34.7424 78.5142 33.5453C78.4344 30.7518 78.3945 27.9983 78.3945 25.1649C78.3945 24.6062 78.3945 24.0077 78.3945 23.449H181.512C181.472 24.0077 181.472 24.6062 181.472 25.1649Z" fill="#FF6300"/>
<path d="M109.801 207.097C121.054 180.599 123.049 169.345 119.657 142.648C119.578 141.93 119.458 141.172 119.378 140.453C119.338 140.254 119.298 140.094 119.298 139.934C119.139 138.857 118.979 137.74 118.819 136.662H140.967C140.808 137.779 140.648 138.817 140.489 139.934C140.449 140.134 140.409 140.294 140.409 140.453C140.289 141.172 140.209 141.93 140.129 142.648C136.777 169.345 138.773 180.599 150.026 207.097H109.801Z" fill="#FF6300"/>
<path d="M184.545 23.449H75.2419V33.5453H184.545V23.449Z" fill="#FF9F00"/>
<path d="M150.944 133.31H108.883V140.054H150.944V133.31Z" fill="#FF9F00"/>
<path d="M167.625 242.694H92.2021V249.438H167.625V242.694Z" fill="#295C6F"/>
<path d="M163.555 242.694H96.2726L103.017 207.098H156.81L163.555 242.694Z" fill="#295C6F"/>
<path opacity="0.2" d="M115.467 94.5617H125.125V71.2165H116.585V63.6743C121.693 62.6766 125.005 61.3996 128.397 59.2446H137.376V94.5218H145.517V104.339H115.467V94.5617Z" fill="#FFA700"/>
<path d="M114.31 93.4045H124.007V70.0593H115.467V62.5171C120.575 61.5194 123.848 60.2423 127.28 58.0874H136.259V93.4045H144.36V103.221H114.31V93.4045Z" fill="#FFA700"/>
</svg>
