<svg width="260" height="260" viewBox="0 0 260 260" fill="none" xmlns="http://www.w3.org/2000/svg">
<g clip-path="url(#clip0)">
<path d="M234.978 167.264C234.978 226.554 99.6104 226.554 99.6104 167.264C99.6104 107.974 129.93 59.915 167.314 59.915C204.697 59.915 234.978 107.974 234.978 167.264Z" fill="#E44501"/>
<path d="M192.712 127.657C192.712 141.706 181.323 153.096 167.274 153.096C153.225 153.096 141.836 141.706 141.836 127.657C141.836 113.609 153.225 102.219 167.274 102.219C181.323 102.179 192.712 113.609 192.712 127.657Z" fill="#FFC300"/>
<path d="M167.274 108.291C177.95 108.291 186.641 116.982 186.641 127.658C186.641 138.333 177.95 147.024 167.274 147.024C156.599 147.024 147.908 138.333 147.908 127.658C147.908 116.943 156.599 108.291 167.274 108.291ZM167.274 102.18C153.225 102.18 141.836 113.569 141.836 127.618C141.836 141.667 153.225 153.056 167.274 153.056C181.323 153.056 192.712 141.667 192.712 127.618C192.712 113.609 181.323 102.18 167.274 102.18Z" fill="#FFA700"/>
<path d="M159.615 134.166H164.575V122.221H160.21V118.371C162.829 117.856 164.496 117.221 166.242 116.109H170.846V134.166H175.013V139.206H159.615V134.166Z" fill="#FFA700"/>
<path d="M193.387 29L178.108 62.5342H156.48L141.201 29H193.387Z" fill="#E44501"/>
<path d="M179.1 62.0982H155.448C153.265 62.0982 151.479 60.3124 151.479 58.1297C151.479 55.947 153.265 54.1611 155.448 54.1611H179.1C181.283 54.1611 183.069 55.947 183.069 58.1297C183.069 60.3521 181.283 62.0982 179.1 62.0982Z" fill="#32393B"/>
<path opacity="0.35" d="M183.466 29L171.52 48.1284L176.481 29H183.466Z" fill="#32393B"/>
<path opacity="0.35" d="M163.107 48.1284L151.122 29H158.107L163.107 48.1284Z" fill="#32393B"/>
<path d="M254.384 167.86C241.645 178.893 192.474 231.198 166.599 231.198C150.011 231.198 112.111 215.721 91.5543 207.427C90.3241 206.911 89.2129 206.474 88.1414 205.998C82.6252 203.736 78.8947 202.307 77.982 202.228V153.375C77.982 153.375 82.1092 151.748 88.1414 149.486C89.2129 149.089 90.3241 148.692 91.5543 148.256C103.817 143.771 121.358 138.017 130.327 137.779C144.971 137.263 196.721 160.399 205.213 163.257C213.666 166.114 204.817 175.162 197.395 175.718C189.935 176.273 147.273 167.622 143.066 170.837C141.677 171.908 152.63 183.853 167.274 183.853C186.76 183.853 239.978 159.169 247.637 153.335C255.257 147.502 267.123 156.828 254.384 167.86Z" fill="#FFD3A6"/>
<path d="M70.521 139.723H0V226.396H70.521V139.723Z" fill="#FF6300"/>
<path d="M88.1811 144.128H70.5211V221.951H88.1811V144.128Z" fill="#F0F0F0"/>
<path d="M61.7902 211.712C61.7902 215.522 58.7344 218.578 54.9246 218.578C51.1148 218.578 48.0591 215.522 48.0591 211.712C48.0591 207.903 51.1148 204.847 54.9246 204.847C58.7344 204.847 61.7902 207.942 61.7902 211.712Z" fill="#FFC300"/>
</g>
<defs>
<clipPath id="clip0">
<rect width="260" height="260" fill="white"/>
</clipPath>
</defs>
</svg>
