<svg width="500" height="485" viewBox="0 0 500 485" fill="none" xmlns="http://www.w3.org/2000/svg">
<path d="M498.3 190.849C492.307 140.194 467.74 109.497 445.544 71.361C442.538 66.1963 439.543 61.0495 436.596 55.9155C408.238 6.45343 408 0 408 0H0V485C5.9744 469.145 35.4755 444.426 65.1746 428.57C115.113 401.907 159.893 412.299 209.274 412.799C240.295 413.113 271.417 413.428 301.833 409.465C351.543 402.994 400.461 384.274 437.948 351.026C475.436 317.753 500.47 269.135 499.831 219.008C499.703 209.468 499.593 201.786 498.3 190.849Z" fill="#1EAA1E"/>
</svg>
