<svg width="250" height="250" viewBox="0 0 250 250" fill="none" xmlns="http://www.w3.org/2000/svg">
<path d="M226.658 190.151C226.658 196.045 221.831 200.872 215.937 200.872H33.6834C27.789 200.872 22.9626 196.045 22.9626 190.151V68.8595C22.9626 62.965 27.789 58.1387 33.6834 58.1387H215.976C221.871 58.1387 226.697 62.965 226.697 68.8595V190.151H226.658Z" fill="#F0F0F1"/>
<path d="M215.976 194.304H33.6834C27.789 194.304 22.9626 189.478 22.9626 183.583V190.111C22.9626 196.005 27.789 200.832 33.6834 200.832H215.976C221.871 200.832 226.697 196.005 226.697 190.111V183.583C226.658 189.518 221.871 194.304 215.976 194.304Z" fill="#E1E0E4"/>
<path d="M109.718 107.509H122.654V106.678H109.045V177.016H109.718V107.509Z" fill="#003447"/>
<path d="M165.972 129.584H178.908V128.714H165.3V177.017H165.972V129.584Z" fill="#003447"/>
<path d="M99.0764 128.714H85.4678V177.017H99.0764V128.714Z" fill="#447BD4"/>
<path d="M122.654 106.678H109.045V177.016H122.654V106.678Z" fill="#092E69"/>
<path d="M152.324 142.678H138.715V177.016H152.324V142.678Z" fill="#447BD4"/>
<path d="M178.908 128.714H165.3V177.017H178.908V128.714Z" fill="#092E69"/>
<path d="M172.104 99.4389L160.513 106.243L164.943 108.696L145.124 133.025L116.759 84.0105L86.7329 123.571L89.7395 125.113L116.363 90.0236L144.609 138.88L167.871 110.278L172.222 112.692L172.104 99.4389Z" fill="#104BA9"/>
<path d="M72.6502 84.0105H68.6151V188.133H72.6502V84.0105Z" fill="#696578"/>
<path d="M191.132 177.016H58.4874V180.695H191.132V177.016Z" fill="#696578"/>
<path d="M226.697 68.8594H23.0022V77.9582H226.697V68.8594Z" fill="#E1E0E4"/>
<path d="M233.62 59.7604C233.62 65.6548 228.833 70.4416 222.899 70.4416H26.7208C20.8263 70.4416 16 65.6548 16 59.7604C16 53.8659 20.7868 49.0396 26.7208 49.0396H222.899C228.833 49.0396 233.62 53.8263 233.62 59.7604Z" fill="#104BA9"/>
<path d="M26.7208 53.2725H222.899C228.082 53.2725 232.394 56.9516 233.383 61.857C233.541 61.1845 233.581 60.4724 233.581 59.7208C233.581 53.8263 228.794 49 222.86 49H26.7208C20.8263 49 16 53.7868 16 59.7208C16 60.4329 16.0791 61.145 16.1978 61.857C17.2264 56.9516 21.5384 53.2725 26.7208 53.2725Z" fill="#092E69"/>
<path d="M222.899 65.9715H26.7208C21.578 65.9715 17.3055 62.3319 16.2769 57.5056C16.1187 58.2177 16.0396 58.9693 16.0396 59.721C16.0396 65.6154 20.8263 70.4022 26.7604 70.4022H222.939C228.833 70.4022 233.66 65.6154 233.66 59.721C233.66 58.9693 233.581 58.2177 233.422 57.5056C232.354 62.3319 228.042 65.9715 222.899 65.9715Z" fill="#447BD4"/>
</svg>
