<svg width="250" height="250" viewBox="0 0 250 250" fill="none" xmlns="http://www.w3.org/2000/svg">
<path d="M125 49.375C123.102 49.375 121.562 47.8359 121.562 45.9375V18.4375C121.562 16.5391 123.102 15 125 15C126.898 15 128.438 16.5391 128.438 18.4375V45.9375C128.438 47.8359 126.899 49.375 125 49.375Z" fill="#696578"/>
<path d="M154.322 228.648L128.437 212.469V180C128.437 178.102 126.898 176.562 125 176.562C123.102 176.562 121.562 178.102 121.562 180V212.486L96.0872 228.66C94.4844 229.678 94.0101 231.803 95.0276 233.405C96.0451 235.007 98.1694 235.482 99.7722 234.465L121.562 220.63V231.562C121.562 233.461 123.102 235 125 235C126.898 235 128.437 233.461 128.437 231.562V220.577L150.678 234.477C152.387 235.546 154.706 234.876 155.589 233.07C156.353 231.51 155.794 229.567 154.322 228.648Z" fill="#696578"/>
<path d="M166.247 52.8135C165.731 52.8135 165.206 52.6966 164.713 52.4495L125 32.5932L85.2873 52.4495C83.5892 53.2994 81.5246 52.6098 80.6755 50.9125C79.8264 49.2144 80.5144 47.1493 82.2129 46.3007L123.463 25.6757C124.431 25.1914 125.57 25.1914 126.537 25.6757L167.787 46.3007C169.485 47.1498 170.174 49.2144 169.325 50.9125C168.722 52.1169 167.508 52.8135 166.247 52.8135Z" fill="#447BD4"/>
<path d="M221.25 59.6875H28.75C26.8516 59.6875 25.3125 61.2266 25.3125 63.125V180C25.3125 181.898 26.8516 183.438 28.75 183.438H221.25C223.148 183.438 224.688 181.898 224.688 180V63.125C224.688 61.2266 223.149 59.6875 221.25 59.6875Z" fill="#F0F0F1"/>
<path d="M224.688 63.125C224.688 61.2266 223.148 59.6875 221.25 59.6875H28.75C26.8516 59.6875 25.3125 61.2266 25.3125 63.125V73.4375H224.688V63.125Z" fill="#E1E0E4"/>
<path d="M231.562 45.9375H18.4375C16.5391 45.9375 15 47.4766 15 49.375V63.125C15 65.0234 16.5391 66.5625 18.4375 66.5625H231.562C233.461 66.5625 235 65.0234 235 63.125V49.375C235 47.4766 233.461 45.9375 231.562 45.9375Z" fill="#104BA9"/>
<path d="M231.562 59.6875H18.4375C16.5391 59.6875 15 58.1484 15 56.25V63.125C15 65.0234 16.5391 66.5625 18.4375 66.5625H231.562C233.461 66.5625 235 65.0234 235 63.125V56.25C235 58.1484 233.461 59.6875 231.562 59.6875Z" fill="#092E69"/>
<path d="M100.938 111.25H87.1875C85.2891 111.25 83.75 112.789 83.75 114.688V155.938C83.75 157.836 85.2891 159.375 87.1875 159.375H100.938C102.836 159.375 104.375 157.836 104.375 155.938V114.688C104.375 112.789 102.836 111.25 100.938 111.25Z" fill="#447BD4"/>
<path d="M131.875 100.938H118.125C116.227 100.938 114.688 102.477 114.688 104.375V155.938C114.688 157.836 116.227 159.375 118.125 159.375H131.875C133.773 159.375 135.312 157.836 135.312 155.938V104.375C135.312 102.477 133.774 100.938 131.875 100.938Z" fill="#104BA9"/>
<path d="M162.812 87.1875H149.062C147.164 87.1875 145.625 88.7266 145.625 90.625V155.938C145.625 157.836 147.164 159.375 149.062 159.375H162.812C164.711 159.375 166.25 157.836 166.25 155.938V90.625C166.25 88.7266 164.711 87.1875 162.812 87.1875Z" fill="#092E69"/>
<path d="M180 159.375H70C68.1016 159.375 66.5625 157.836 66.5625 155.938V83.75C66.5625 81.8516 68.1016 80.3125 70 80.3125C71.8984 80.3125 73.4375 81.8516 73.4375 83.75V152.5H180C181.898 152.5 183.438 154.039 183.438 155.938C183.438 157.836 181.899 159.375 180 159.375Z" fill="#787485"/>
</svg>
