<svg width="120" height="120" viewBox="0 0 120 120" fill="none" xmlns="http://www.w3.org/2000/svg">
<path d="M112.008 21.4C112.008 16 109.608 10.8 105.408 6.59999C101.208 2.4 95.8082 0 89.8082 0C83.8082 0 78.4083 2.20007 74.2083 6.19991L7.20831 73.1999C6.00831 74.5998 5.40831 76.5999 5.60824 78.3999C5.66847 78.9425 5.82105 79.4663 6.04652 79.9616L0.608089 85.4C0.00809017 86 -0.191831 87.0001 0.208012 87.6001L14.4081 118.8C14.608 119.4 15.208 119.8 15.808 120C16.0079 120 16.0079 120 16.2081 120C16.8081 120 17.2081 119.8 17.608 119.4L38.3337 98.4842C39.1118 99.0155 40.0587 99.2002 41.0079 99.2002C42.4079 99.2002 44.0079 98.6002 45.2079 97.6001L105.208 37.4003C109.808 32.8 112.208 27.1999 112.008 21.4ZM16.8083 114.6L4.40847 87.3999L8.87049 82.9379L12.9535 85.0897C13.0688 85.1691 13.1891 85.2327 13.317 85.2814L19.6292 88.6081L20.0485 88.8376C20.3406 89.1198 20.6368 89.2962 21.0137 89.3654L34.6081 96.8L16.8083 114.6ZM102.608 34.3999L42.4083 94.5999C41.8083 95.1999 40.8082 95.3998 40.0083 95L39.7629 94.869C39.5872 94.6261 39.3275 94.4126 39.0085 94.2001L24.9589 86.6497L31.8085 79.8001C32.6084 79.0002 32.6084 77.8002 31.8085 77C31.0086 76.2001 29.8086 76.2001 29.0084 77L21.3165 84.6919L17.544 82.6646L23.0087 77.1999C23.8086 76.4 23.8086 75.2 23.0087 74.3999C22.2088 73.5999 21.0088 73.5999 20.2086 74.3999L13.9016 80.7069L9.60877 78.3997C9.56916 78.3798 9.52838 78.3627 9.48784 78.3456C9.43721 78.188 9.40885 78.0081 9.40885 77.7997C9.40885 76.9998 9.60878 76.3998 10.0089 75.9997L76.8082 9.1999C80.2083 5.79983 84.6082 3.99984 89.4082 3.99984C89.6081 3.99984 89.6081 3.99984 89.8082 3.99984C94.6082 3.99984 99.2083 5.99975 102.808 9.1999C106.208 12.6 108.208 16.9999 108.208 21.3998C108.208 26.2 106.408 30.5999 102.608 34.3999Z" fill="#AA155B"/>
<path d="M81.4083 13.3999C79.0083 15.6 77.8084 18.6 77.8084 21.7999C77.8084 24.9998 79.2083 27.9998 81.4083 30.1999C83.6084 32.5999 86.8083 33.7999 89.8083 33.7999C92.8083 33.7999 95.8083 32.5999 98.4082 30.1999C100.808 27.9998 102.008 24.9998 102.008 21.7999C102.008 18.6 100.608 15.6 98.4082 13.3999C93.6082 8.80007 86.0084 8.80007 81.4083 13.3999ZM95.6084 27.4C92.4085 30.6 87.4083 30.6 84.2084 27.4C82.6083 26.0001 81.8084 24 81.8084 21.8001C81.8084 19.8002 82.6083 17.8001 84.2084 16.2002C85.8085 14.6004 87.8084 13.8002 89.8083 13.8002C91.8083 13.8002 93.8084 14.6001 95.6084 16.2002C97.2085 17.6001 98.0084 19.6003 98.0084 21.8001C98.0084 23.8 97.2082 25.8 95.6084 27.4Z" fill="#AA155B"/>
</svg>
