<svg width="120" height="120" viewBox="0 0 120 120" fill="none" xmlns="http://www.w3.org/2000/svg">
<path d="M8 38H12V42H8V38Z" fill="#AA155B"/>
<path d="M108 38H112V42H108V38Z" fill="#AA155B"/>
<path d="M116 10H76V30H36V10H0V54H6V108H0V120H24V108H18V90H26V104C26 105.104 26.8955 106 28 106H76C76.5303 106 77.0391 105.789 77.4141 105.414L92.8281 90H102V108H96V120H120V108H114V54H120V30H116V10ZM80 14H112V30H100.828L109.414 21.4141L106.586 18.5859L95.1719 30H88.8281L97.4141 21.4141L94.5859 18.5859L83.1719 30H80V14ZM28 14H32V30H28V14ZM20 14H24V30H20V14ZM12 14H16V30H12V14ZM4 14H8V30H4V14ZM20 112V116H4V112H20ZM10 108V54H14V108H10ZM26 86H18V82H26V86ZM26 78H18V54H26V78ZM26 50H20V46H26V50ZM78 99.1719V90H87.1719L78 99.1719ZM90 86H76C74.8955 86 74 86.8955 74 88V102H30V46H90V86ZM94 86V82H102V86H94ZM102 54V78H94V54H102ZM94 50V46H100V50H94ZM116 112V116H100V112H116ZM106 108V54H110V108H106ZM116 50H104V42H16V50H4V34H116V50Z" fill="#AA155B"/>
</svg>
