<svg width="120" height="120" viewBox="0 0 120 120" fill="none" xmlns="http://www.w3.org/2000/svg">
<path d="M114 40C117.307 39.9836 119.984 37.3069 120 34C120 30.6863 117.314 28 114 28H98V24C98 21.7909 96.2092 20 94 20H88C85.7909 20 84 21.7909 84 24V28H36.0001V24C36.0001 21.7909 34.2092 20 32.0001 20H26.0001C23.7909 20 22.0001 21.7909 22.0001 24V28H6.0001C4.41683 27.9867 2.89601 28.6168 1.78611 29.746C0.635504 30.8611 -0.00966189 32.3977 0.000109399 34C0.000109399 37.3137 2.6864 40 6.0001 40H22.0001V46H4.00011C1.79097 46 0.000109399 47.7908 0.000109399 50V116C0.000109399 118.209 1.79097 120 4.00011 120H54.0001C56.2092 120 58.0001 118.209 58.0001 116V50C58.0001 47.7908 56.2092 46 54.0001 46H36.0001V40H84V46H66.0001C63.7909 46 62.0001 47.7908 62.0001 50V116C62.0001 118.209 63.7909 120 66.0001 120H116C118.209 120 120 118.209 120 116V50C120 47.7908 118.209 46 116 46H98V40H114ZM114 32C115.105 32 116 32.8954 116 34C116.001 34.5397 115.779 35.0559 115.386 35.426C115.021 35.7976 114.521 36.0048 114 36H98V32H114ZM94 56H88V36H94V56ZM94 24V32H88V24H94ZM32.0001 56H26.0001V36H32.0001V56ZM32.0001 24V32H26.0001V24H32.0001ZM6.0001 36C4.89554 36 4.00011 35.1046 4.00011 34C3.99904 33.4603 4.22128 32.9441 4.61411 32.574C4.97902 32.2024 5.47934 31.9952 6.0001 32H22.0001V36H6.0001ZM4.00011 116V96.8279L20.0001 80.8279L36.5861 97.4139C37.3708 98.1719 38.6182 98.161 39.3897 97.3896C40.1612 96.6181 40.172 95.3707 39.4141 94.5859L36.8281 91.9999L44.0001 84.8279L54.0001 94.8279V102H12.0001C10.8955 102 10.0001 102.895 10.0001 104C10.0001 105.104 10.8955 106 12.0001 106H54.0001V116H4.00011ZM54.0001 50V89.1719L45.4141 80.5859C44.6331 79.8052 43.3671 79.8052 42.5861 80.5859L34.0001 89.1719L21.4141 76.5859C20.6331 75.8052 19.3671 75.8052 18.5861 76.5859L4.00011 91.1719V50H22.0001V56C22.0001 58.2091 23.7909 60 26.0001 60H32.0001C34.2092 60 36.0001 58.2091 36.0001 56V50H54.0001ZM36.0001 36V32H84V36H36.0001ZM66.0001 116V96.8279L82 80.8279L98.586 97.4139C99.3708 98.1719 100.618 98.161 101.39 97.3896C102.161 96.6181 102.172 95.3707 101.414 94.5859L98.828 91.9999L106 84.8279L116 94.8279V102H74C72.8955 102 72 102.895 72 104C72 105.104 72.8955 106 74 106H116V116H66.0001ZM116 50V89.1719L107.414 80.5859C106.633 79.8052 105.367 79.8052 104.586 80.5859L96 89.1719L83.414 76.5859C82.633 75.8052 81.367 75.8052 80.586 76.5859L66.0001 91.1719V50H84V56C84 58.2091 85.7909 60 88 60H94C96.2092 60 98 58.2091 98 56V50H116Z" fill="#AA155B"/>
<path d="M30 69.9999C30 73.3136 32.6863 75.9999 36 75.9999C39.3137 75.9999 42 73.3136 42 69.9999C42 66.6862 39.3137 63.9999 36 63.9999C32.6863 63.9999 30 66.6862 30 69.9999ZM38 69.9999C38 71.1045 37.1046 71.9999 36 71.9999C34.8955 71.9999 34 71.1045 34 69.9999C34 68.8953 34.8955 67.9999 36 67.9999C37.1046 67.9999 38 68.8953 38 69.9999Z" fill="#AA155B"/>
<path d="M92.0001 69.9999C92.0001 73.3136 94.6864 75.9999 98.0001 75.9999C101.314 75.9999 104 73.3136 104 69.9999C104 66.6862 101.314 63.9999 98.0001 63.9999C94.6864 63.9999 92.0001 66.6862 92.0001 69.9999ZM100 69.9999C100 71.1045 99.1047 71.9999 98.0001 71.9999C96.8955 71.9999 96.0001 71.1045 96.0001 69.9999C96.0001 68.8953 96.8955 67.9999 98.0001 67.9999C99.1047 67.9999 100 68.8953 100 69.9999Z" fill="#AA155B"/>
</svg>
