<svg width="107" height="71" viewBox="0 0 107 71" fill="none" xmlns="http://www.w3.org/2000/svg">
<path fill-rule="evenodd" clip-rule="evenodd" d="M0 0V70.6569C1.27893 67.9188 7.59415 63.6499 13.9518 60.9114C22.3585 57.2904 30.0823 57.6268 38.1393 57.9777C40.3278 58.0731 42.5408 58.1694 44.7988 58.1879C51.4393 58.2421 58.1016 58.2965 64.6126 57.6121C75.2539 56.4946 85.7256 53.2616 93.7505 47.5197C101.775 41.7735 107.134 33.3772 106.997 24.7203C106.97 23.0728 106.947 21.7461 106.67 19.8574C105.623 12.7174 101.927 7.87344 98.0204 2.75313C97.3304 1.84877 96.6339 0.93578 95.9441 0H0Z" fill="#1EAA1E"/>
</svg>
