<svg width="250" height="250" viewBox="0 0 250 250" fill="none" xmlns="http://www.w3.org/2000/svg">
<path d="M220 231.75H58.2738V18H197.455L220 36.2379V231.75Z" fill="#D4D4D4"/>
<path d="M216.607 227.303H54.9533V18H194.072L216.607 35.8585V227.303Z" fill="#F6F6F6"/>
<path d="M197.257 50.6934H75.271V55.4906H197.257V50.6934Z" fill="#004290"/>
<path d="M197.257 69.6001H75.2709V74.357H197.257V69.6001Z" fill="#004290"/>
<path d="M197.257 88.5068H75.2709V93.3041H197.257V88.5068Z" fill="#004290"/>
<path d="M197.257 107.413H75.2709V112.21H197.257V107.413Z" fill="#004290"/>
<path d="M197.257 126.32H75.2709V131.117H197.257V126.32Z" fill="#004290"/>
<path d="M197.257 145.227H75.2709V150.024H197.257V145.227Z" fill="#004290"/>
<path d="M197.257 164.133H75.2709V168.89H197.257V164.133Z" fill="#004290"/>
<path d="M197.257 183H75.2709V187.756H197.257V183Z" fill="#004290"/>
<path d="M197.257 201.906H75.2709V206.663H197.257V201.906Z" fill="#004290"/>
<path d="M192.137 18L199.192 37.7935L216.607 35.8585C216.607 35.8585 214.551 19.3303 192.137 18Z" fill="#D9D9D9"/>
<path d="M74.2632 194.328L57.9769 181.105L41.6906 194.328V111.082H74.2632V194.328Z" fill="#002A68"/>
<path d="M62.1693 124.869C59.9522 123.176 56.324 123.216 54.1068 124.909C51.8896 126.602 49.1887 125.917 48.1002 123.337C47.0118 120.757 43.8674 118.983 41.0858 119.346C38.3042 119.709 36.3289 117.774 36.6917 114.992C37.0142 112.211 35.2002 109.107 32.6202 108.018C30.0402 106.93 29.3145 104.269 30.9673 102.012C32.6605 99.7945 32.6202 96.1663 30.9271 93.9491C29.2339 91.7319 29.9192 89.0309 32.4992 87.9425C35.0793 86.854 36.853 83.7097 36.4902 80.9281C36.1273 78.1465 38.0624 76.1712 40.8439 76.534C43.6255 76.8565 46.7296 75.0424 47.818 72.4624C48.9064 69.8824 51.5671 69.1568 53.7843 70.8096C56.0015 72.5027 59.6296 72.4625 61.8468 70.7694C64.064 69.0762 66.7649 69.7615 67.8534 72.3415C68.9418 74.9215 72.0862 76.6953 74.8678 76.3325C77.6494 75.9697 79.6247 77.9047 79.2619 80.6862C78.9394 83.4678 80.7535 86.5719 83.3335 87.6604C85.9135 88.7488 86.6391 91.4094 84.9863 93.6266C83.2931 95.8841 83.3335 99.4719 85.0266 101.689C86.7197 103.906 86.0344 106.607 83.4544 107.696C80.8744 108.784 79.1006 111.929 79.4634 114.71C79.8263 117.492 77.8912 119.467 75.1097 119.145C72.3281 118.822 69.224 120.636 68.1356 123.216C67.0875 125.796 64.3865 126.522 62.1693 124.869Z" fill="#F15317"/>
<path d="M53.9053 113.38C51.8494 111.485 49.3903 110.034 46.6893 109.268C45.8831 106.567 44.4318 104.108 42.4968 102.093C43.1418 99.3916 43.1015 96.4891 42.4565 93.7881C44.3915 91.7322 45.8024 89.2329 46.5684 86.5319C49.229 85.6853 51.6881 84.234 53.7037 82.3394C55.0341 82.6619 56.4047 82.8231 57.7753 82.8231C59.2266 82.8231 60.6375 82.6619 62.0081 82.3394C64.0641 84.234 66.5232 85.6853 69.2241 86.4512C70.0304 89.1521 71.4816 91.6112 73.4166 93.6268C72.7716 96.3278 72.8119 99.2303 73.4569 101.931C71.5219 103.987 70.111 106.487 69.3451 109.188C66.6844 110.034 64.2253 111.445 62.2097 113.38C60.8794 113.058 59.5088 112.896 58.1382 112.896C56.7272 112.896 55.2759 113.058 53.9053 113.38Z" fill="#D94912"/>
<path d="M57.9767 88.4663L61.9274 93.3845L67.813 95.642L64.3864 100.923L64.0639 107.212L57.9767 105.559L51.8895 107.212L51.567 100.923L48.1404 95.642L54.0261 93.3845L57.9767 88.4663Z" fill="#EAFBFF"/>
</svg>
