<svg width="250" height="250" viewBox="0 0 250 250" fill="none" xmlns="http://www.w3.org/2000/svg">
<path d="M162 144H97V205H162V144Z" fill="#004290"/>
<path d="M85.7634 78.0403C85.7634 78.0403 78.3591 84.8351 81.0755 95.8513C81.0755 95.8513 87.0275 114.249 102.145 128.516V144.265H157.128V129.494L164.615 123.008C164.615 123.008 169.995 118.862 169.965 111.683V70.8994H140.889" fill="#F5A987"/>
<path d="M140.882 70.8993L87.6748 77.7844C87.7275 79.1539 88.0811 80.5234 88.8185 81.8327C90.5266 84.8802 93.2882 87.2279 96.2454 89.0188C103.582 93.4508 111.716 94.557 120.181 94.4817C126.051 94.4215 131.89 93.8948 137.729 93.3756C142.372 92.9617 147.218 92.1792 151.868 92.9768C157.843 94.0001 164.562 97.7625 164.163 104.723C163.245 120.72 143.094 121.683 130.979 122.173C131.122 124.972 134.471 125.085 136.63 125.822C138.549 126.477 140.363 127.681 141.529 129.381C142.936 131.435 143.508 133.934 144.035 136.334C144.607 138.938 144.953 141.594 145.118 144.25H157.12V129.479L164.607 122.993C164.607 122.993 169.987 118.847 169.957 111.668V70.8843H140.882V70.8993Z" fill="#E49E84"/>
<path d="M78.5021 87.747C78.6526 87.7545 78.8031 87.7696 78.9611 87.7696H169.641C170.296 87.7696 170.89 87.7094 171.455 87.5965C175.902 98.7105 186.76 106.559 199.454 106.559C211.84 106.559 222.48 99.0942 227.115 88.4167H199.454V64.3903H227.115C222.472 53.7128 211.84 46.2483 199.454 46.2483C186.76 46.2483 175.902 54.1041 171.455 65.2105C170.898 65.1052 170.296 65.0375 169.641 65.0375H78.9611C78.8708 65.0375 78.7956 65.045 78.7053 65.0525C74.2808 53.8934 63.4001 46 50.6608 46C38.2751 46 27.6427 53.4645 23 64.142H50.6608V88.1684H23C27.6427 98.8459 38.2751 106.31 50.6608 106.31C63.212 106.303 73.9572 98.6427 78.5021 87.747Z" fill="#C6C6C6"/>
<path d="M78.5021 87.7472C78.6526 87.7547 78.8031 87.7698 78.9611 87.7698H90.4739C89.6989 87.4763 88.9389 87.1527 88.2015 86.7765C79.6007 82.3971 78.3441 73.6986 78.8859 65.0377C78.8257 65.0452 78.773 65.0452 78.7053 65.0452C75.9889 58.1977 70.842 52.5918 64.3332 49.2734C67.343 52.2231 69.6531 55.8124 70.699 60.109C72.7006 68.3184 70.7969 77.3857 67.1474 84.8953C65.3866 88.4997 63.0239 92.0889 59.2389 93.7895C55.3261 95.5503 50.9919 96.0544 46.7254 95.7008C38.7567 95.0386 30.6978 92.3899 23.8428 88.1535H23C27.6427 98.8311 38.2751 106.296 50.6608 106.296C63.212 106.303 73.9572 98.6429 78.5021 87.7472Z" fill="#AEAEAE"/>
<path d="M171.462 65.2032C170.905 65.0979 170.304 65.0302 169.649 65.0302H156.751C158.211 65.4591 159.648 65.9482 161.041 66.5125C165.157 68.183 169.416 70.9596 171.252 75.1885C173.035 79.2895 172.538 83.5936 171.116 87.6494C171.229 87.6268 171.349 87.6193 171.462 87.5967C175.909 98.7107 186.767 106.559 199.462 106.559C203.006 106.559 206.392 105.934 209.545 104.813C206.083 104.527 202.667 103.978 199.334 103.075C192.313 101.156 185.428 97.281 182.343 90.3508C180.635 86.5132 179.988 82.3069 180.183 78.1231C180.387 73.5707 181.004 68.7323 183.464 64.7969C187.497 58.3483 195.188 54.3376 202.825 55.0449C209.161 55.6318 214.09 59.1308 216.768 64.3906H227.13C222.487 53.713 211.855 46.2485 199.469 46.2485C186.767 46.241 175.902 54.0968 171.462 65.2032Z" fill="#AEAEAE"/>
<path d="M86.1473 79.9064C84.5069 79.9064 83.1825 78.281 83.1825 76.2719C83.1825 74.2704 84.5069 72.645 86.1473 72.645H163.975C165.616 72.645 166.94 74.2704 166.94 76.2719C166.94 78.2735 165.608 79.9064 163.975 79.9064H86.1473Z" fill="#AEAEAE"/>
<path d="M118.82 75.0453C118.82 79.6504 115.087 83.3827 110.482 83.3827C105.877 83.3827 102.145 79.6504 102.145 75.0453V59.4316C102.145 54.8265 105.877 51.0942 110.482 51.0942C115.095 51.0942 118.82 54.8265 118.82 59.4316V75.0453Z" fill="#E89776"/>
<path d="M136.608 73.8716C136.608 78.4767 132.876 82.209 128.271 82.209C123.658 82.209 119.933 78.4767 119.933 73.8716V55.7973C119.933 51.1922 123.665 47.46 128.271 47.46C132.876 47.46 136.608 51.1922 136.608 55.7973V73.8716Z" fill="#E89776"/>
<path d="M153.283 70.8767C153.283 75.4818 149.55 79.214 144.945 79.214C140.34 79.214 136.615 75.4818 136.615 70.8767V59.4316C136.615 54.8265 140.348 51.0942 144.945 51.0942C149.558 51.0942 153.283 54.8265 153.283 59.4316V70.8767Z" fill="#E89776"/>
<path d="M169.957 70.8991C169.957 75.5042 166.225 79.2364 161.62 79.2364C157.015 79.2364 153.283 75.5042 153.283 70.8991V63.1035C153.283 58.4984 157.015 54.7661 161.62 54.7661C166.225 54.7661 169.957 58.4984 169.957 63.1035V70.8991Z" fill="#E89776"/>
<path d="M119.196 114.241C122.348 89.139 101.407 83.3826 101.407 83.3826H125.629C136.608 81.0199 136.608 67.2422 136.608 67.2422H98.5554L85.7634 78.0401C85.7634 78.0401 78.8482 85.5723 81.0755 95.8511C81.0755 95.8511 86.2901 112.767 102.145 128.516" fill="#F5A987"/>
<path d="M134.418 67.2422C135.81 72.5772 131.13 76.633 127.277 78.0401C122.424 79.8084 113.815 78.6195 108.766 78.2959C105.922 78.1154 103.123 78.1906 100.324 78.755C98.8263 79.0559 96.7344 79.372 95.6509 80.5684C92.6184 83.9169 105.41 90.2075 107.307 91.7802C113.432 96.8594 117.435 103.948 119.436 111.57C120.844 88.7327 101.407 83.3826 101.407 83.3826H125.629C136.608 81.0199 136.608 67.2422 136.608 67.2422H134.418Z" fill="#E89776"/>
<path d="M156.044 156.688C156.044 159.134 154.065 161.12 151.619 161.12C149.174 161.12 147.188 159.141 147.188 156.688C147.188 154.243 149.174 152.256 151.619 152.256C154.065 152.256 156.044 154.243 156.044 156.688Z" fill="#004290" stroke="#002A68" stroke-width="4.9056" stroke-miterlimit="10"/>
</svg>
