<svg width="250" height="250" viewBox="0 0 250 250" fill="none" xmlns="http://www.w3.org/2000/svg">
<path d="M165.872 175.241C165.321 166.575 162.104 158.634 157.061 152.199C149.815 141.794 134.743 134.084 134.743 125.128C134.743 116.172 149.815 108.433 157.032 98.0281C162.075 91.5937 165.263 83.6521 165.814 74.9859C165.814 74.8699 165.843 74.754 165.843 74.6091C165.872 73.8265 165.901 73.0439 165.93 72.2614C165.93 49.1901 147.206 35.017 124.135 35.0459C101.063 35.0459 82.3688 49.2481 82.3688 72.3193C82.3688 72.4353 82.3688 72.5512 82.3978 72.6671C82.3978 73.3338 82.4267 73.9714 82.4557 74.6381C82.4557 74.812 82.4847 74.9859 82.4847 75.1308C83.0644 83.739 86.2526 91.6517 91.2669 98.0281C98.5129 108.462 113.585 116.172 113.585 125.128C113.585 134.113 98.5129 141.823 91.2959 152.257C86.2527 158.663 83.0934 166.575 82.5137 175.183C82.5137 175.357 82.4847 175.502 82.4557 175.676C82.4267 176.343 82.4268 176.98 82.3978 177.647C82.3978 177.763 82.3978 177.879 82.3978 177.995C82.3978 201.037 101.121 215.21 124.193 215.21C147.264 215.181 165.959 201.008 165.959 177.937C165.959 177.154 165.93 176.372 165.872 175.589C165.901 175.502 165.901 175.357 165.872 175.241Z" fill="#F6F6F6"/>
<path opacity="0.3636" d="M166.459 175.239C166.459 175.123 166.459 175.007 166.43 174.891C165.879 166.225 162.662 158.284 157.619 151.849C150.373 141.444 135.301 133.734 135.301 124.778C135.301 115.822 150.373 108.083 157.59 97.678C162.633 91.2436 165.821 83.302 166.372 74.6358C166.372 74.5198 166.401 74.4039 166.401 74.259C166.43 73.4764 166.459 72.6938 166.488 71.9113C166.488 48.84 147.764 34.6669 124.693 34.6958C101.622 34.6958 82.9271 48.898 82.9271 71.9692C82.9271 72.0852 82.9271 72.2011 82.9561 72.317C82.9561 72.9837 82.9851 73.6213 83.014 74.288C83.014 74.4619 83.0431 74.6358 83.0431 74.7807C83.6227 83.3889 86.811 91.3016 91.8252 97.678C99.0712 108.112 114.143 115.822 114.143 124.778C114.143 133.763 99.0712 141.473 91.8542 151.907C86.811 158.313 83.6517 166.225 83.0721 174.833C83.0721 175.007 83.043 175.152 83.014 175.326C82.9851 175.993 82.9851 176.63 82.9561 177.297C82.9561 177.413 82.9561 177.529 82.9561 177.645C82.9561 200.687 101.68 214.86 124.751 214.86C147.822 214.831 166.517 200.658 166.517 177.587C166.546 176.804 166.517 175.993 166.459 175.239ZM124.78 213.411C101.013 213.411 84.4343 198.687 84.4343 177.645V177.297C84.4343 176.688 84.4633 176.051 84.4923 175.413C84.5212 175.152 84.5212 175.007 84.5502 174.891C85.1009 166.834 88.0283 159.182 93.0135 152.806C95.825 148.748 99.8538 145.125 103.709 141.618C109.824 136.082 115.592 130.865 115.592 124.807C115.592 118.749 109.795 113.532 103.68 108.025C99.7958 104.518 95.796 100.895 92.9845 96.8955C87.9413 90.432 84.985 82.8092 84.4632 74.7227L84.4343 74.23C84.4053 73.6793 84.3763 73.1286 84.3763 72.6069L84.3474 71.9403C84.3474 50.9269 100.926 36.203 124.693 36.174C148.46 36.174 165.039 50.8979 165.039 71.9692C165.039 72.7228 165.01 73.4764 164.952 74.23L164.923 74.5778C164.401 82.7223 161.474 90.403 156.431 96.8375C153.619 100.895 149.59 104.518 145.735 108.025C139.62 113.561 133.823 118.778 133.823 124.836C133.823 130.894 139.62 136.111 145.735 141.647C149.619 145.154 153.619 148.748 156.401 152.748C161.474 159.211 164.43 166.921 164.952 175.065V175.152L164.981 175.413C165.039 176.167 165.068 176.92 165.068 177.674C165.097 198.658 148.518 213.382 124.78 213.411Z" fill="#8CD4D4"/>
<path d="M158.228 198.803C158.228 185.587 141.359 170.805 124.78 170.805C108.201 170.805 91.3324 185.616 91.3324 198.832C91.3324 212.049 108.201 213.353 124.78 213.353C141.359 213.353 158.228 212.02 158.228 198.803Z" fill="#F15317"/>
<path d="M124.751 173.471C141.127 173.471 157.764 186.978 158.169 199.267C158.169 199.122 158.198 198.977 158.198 198.803C158.198 185.587 141.33 170.805 124.751 170.805C108.172 170.805 91.3033 185.616 91.3033 198.832C91.3033 199.006 91.3322 199.122 91.3322 199.296C91.767 187.007 108.375 173.471 124.751 173.471Z" fill="#FF832B"/>
<path d="M130.78 120.952C130.78 113.532 137.04 107.851 143.677 101.851C147.416 98.4603 151.3 94.9533 153.851 91.2723L153.996 91.0694C156.691 87.6203 158.72 83.7655 160.053 79.6787L89.3036 79.7077C90.6368 83.7944 92.6657 87.6203 95.3612 91.0694L95.5351 91.3013C98.1147 94.9822 101.998 98.4893 105.737 101.88C112.375 107.88 118.664 113.561 118.664 120.981C118.693 128.372 130.78 128.372 130.78 120.952Z" fill="#F15317"/>
<path d="M124.722 80.5773L158.082 80.5483C156.836 84.4032 154.923 88.0552 152.373 91.3014L152.228 91.5043C149.822 94.9824 146.17 98.2865 142.634 101.504C136.344 107.156 130.461 112.518 130.461 119.503C130.461 126.517 119.07 126.517 119.07 119.503C119.07 112.518 113.157 107.156 106.868 101.504C103.332 98.3155 99.6507 95.0113 97.245 91.5333L97.1001 91.3304C94.5785 88.0842 92.6656 84.4612 91.3903 80.6063H89.3904C90.7236 84.693 92.7525 88.5189 95.448 91.968L95.6219 92.1999C98.2015 95.8809 102.085 99.3879 105.824 102.779C112.462 108.779 118.751 114.46 118.751 121.879C118.751 129.299 130.837 129.299 130.837 121.879C130.837 114.46 137.098 108.779 143.735 102.779C147.474 99.3879 151.358 95.8809 153.909 92.1999L154.054 91.997C156.749 88.5479 158.778 84.693 160.111 80.6063L124.722 80.5773Z" fill="#D94912"/>
<path d="M122.374 170.804C120.896 170.688 119.621 170.485 118.548 170.195C117.476 169.935 116.664 169.529 116.027 169.123L117.621 164.051C118.085 164.457 118.693 164.746 119.534 165.036C120.374 165.326 121.302 165.529 122.403 165.674L122.461 155.472C121.65 154.979 120.867 154.428 120.084 153.877C119.302 153.298 118.635 152.602 117.998 151.849C117.389 151.066 116.896 150.197 116.548 149.153C116.143 148.168 115.969 146.979 115.969 145.559C115.969 143.124 116.577 141.269 117.737 139.82C118.925 138.4 120.519 137.502 122.519 137.096V132.806L126.954 132.893V137.009C128.026 137.096 129.011 137.299 129.823 137.56C130.664 137.791 131.475 138.081 132.2 138.429L130.606 143.269C130.171 143.008 129.649 142.748 128.983 142.545C128.374 142.342 127.649 142.197 126.896 142.081L126.838 151.298C127.649 151.762 128.432 152.341 129.243 152.95C130.026 153.53 130.751 154.167 131.388 155.008C131.997 155.732 132.548 156.689 132.924 157.674C133.33 158.689 133.533 159.848 133.533 161.21C133.504 163.877 132.895 165.964 131.678 167.471C130.49 169.007 128.809 170.051 126.751 170.514V174.891L122.316 174.833L122.374 170.804ZM124.461 141.994C123.331 142.11 122.548 142.516 122.142 143.182C121.708 143.791 121.505 144.545 121.505 145.269C121.505 146.255 121.765 147.153 122.316 147.82C122.896 148.458 123.591 149.095 124.403 149.733L124.461 141.994ZM124.925 165.703C125.91 165.471 126.664 165.123 127.157 164.37C127.649 163.674 127.91 162.776 127.91 161.703C127.91 160.66 127.649 159.761 127.099 159.066C126.548 158.37 125.823 157.645 124.954 157.153L124.925 165.703Z" fill="#023B7E"/>
<path d="M122.345 149.066C122.925 149.704 123.621 150.342 124.432 150.979L124.461 143.27L124.432 149.704C123.621 149.066 122.896 148.429 122.345 147.791C121.911 147.269 121.708 146.603 121.621 145.878C121.592 146.081 121.534 146.313 121.534 146.516C121.534 147.501 121.795 148.4 122.345 149.066Z" fill="#002A68"/>
<path d="M129.301 152.979C128.49 152.371 127.707 151.791 126.896 151.327V152.573C127.707 153.037 128.49 153.617 129.301 154.226C130.084 154.805 130.809 155.443 131.446 156.283C132.055 157.008 132.606 157.964 132.982 158.95C133.33 159.79 133.475 160.805 133.533 161.906C133.533 161.674 133.562 161.472 133.591 161.211C133.591 159.848 133.388 158.689 132.982 157.675C132.577 156.689 132.055 155.762 131.446 155.008C130.809 154.197 130.084 153.559 129.301 152.979Z" fill="#002A68"/>
<path d="M119.534 166.341C120.374 166.631 121.302 166.834 122.403 166.979L122.461 156.776L122.403 165.732C121.302 165.587 120.374 165.385 119.534 165.095C118.693 164.805 118.055 164.515 117.621 164.109L116.027 169.182C116.114 169.239 116.258 169.297 116.374 169.355L117.621 165.385C118.055 165.732 118.693 166.051 119.534 166.341Z" fill="#002A68"/>
<path d="M117.737 141.125C118.925 139.705 120.519 138.806 122.519 138.4V134.111L126.954 134.198V132.922L122.519 132.835V137.125C120.519 137.531 118.925 138.429 117.737 139.85C116.548 141.27 115.969 143.125 115.969 145.588C115.969 145.82 115.998 145.994 115.998 146.226C116.114 144.081 116.664 142.429 117.737 141.125Z" fill="#002A68"/>
<path d="M126.983 138.284C128.055 138.371 129.04 138.574 129.852 138.835C130.577 139.038 131.214 139.299 131.881 139.589L132.258 138.458C131.504 138.082 130.722 137.792 129.881 137.589C129.069 137.328 128.084 137.125 127.012 137.038L126.983 138.284Z" fill="#002A68"/>
<path d="M127.157 165.645C127.649 164.95 127.91 164.051 127.91 162.979C127.91 162.747 127.852 162.573 127.823 162.341C127.736 163.124 127.533 163.82 127.157 164.37C126.664 165.124 125.91 165.501 124.925 165.703V166.979C125.91 166.747 126.664 166.399 127.157 165.645Z" fill="#002A68"/>
<path d="M129.041 141.85C128.432 141.647 127.707 141.502 126.954 141.386L126.896 150.603L126.954 142.111C127.707 142.226 128.403 142.4 129.041 142.574C129.678 142.777 130.229 143.038 130.664 143.299L132.258 138.459C132.2 138.43 132.113 138.401 132.055 138.372L130.693 142.574C130.2 142.313 129.678 142.053 129.041 141.85Z" fill="#004290"/>
<path d="M122.171 142.458C121.737 143.067 121.534 143.82 121.534 144.545C121.534 144.661 121.563 144.777 121.592 144.893C121.65 144.284 121.824 143.675 122.171 143.182C122.577 142.516 123.36 142.11 124.49 141.994V141.27C123.331 141.385 122.577 141.791 122.171 142.458Z" fill="#004290"/>
<path d="M127.099 158.37C126.548 157.675 125.823 156.95 124.954 156.458L124.925 165.008L124.954 157.182C125.823 157.704 126.519 158.399 127.099 159.095C127.591 159.704 127.823 160.486 127.881 161.356C127.881 161.24 127.939 161.124 127.939 161.008C127.939 159.936 127.649 159.066 127.099 158.37Z" fill="#004290"/>
<path d="M131.736 166.804C130.548 168.341 128.867 169.384 126.809 169.848V174.224L122.374 174.166V174.891L126.809 174.949V170.572C128.867 170.138 130.548 169.065 131.736 167.529C132.953 166.022 133.562 163.906 133.591 161.269C133.591 161.153 133.562 161.066 133.562 160.95C133.475 163.384 132.895 165.384 131.736 166.804Z" fill="#004290"/>
<path d="M122.374 170.08C120.896 169.964 119.621 169.761 118.548 169.471C117.592 169.239 116.838 168.862 116.201 168.515L115.998 169.123C116.635 169.529 117.476 169.935 118.519 170.196C119.592 170.486 120.838 170.659 122.345 170.804L122.374 170.08Z" fill="#004290"/>
<path d="M117.998 151.907C118.606 152.661 119.302 153.356 120.085 153.936C120.867 154.487 121.65 155.037 122.432 155.53V154.805C121.621 154.313 120.838 153.762 120.056 153.211C119.273 152.632 118.606 151.936 117.969 151.182C117.36 150.4 116.867 149.53 116.519 148.487C116.143 147.588 115.998 146.487 115.969 145.241C115.969 145.357 115.94 145.473 115.94 145.618C115.94 147.038 116.114 148.255 116.519 149.212C116.896 150.226 117.389 151.124 117.998 151.907Z" fill="#004290"/>
<path d="M92.5788 192.513C91.9121 194.339 91.5063 196.194 91.3904 198.02H157.793V195.209C157.59 194.31 157.329 193.412 157.01 192.513H92.5788Z" fill="#D94912"/>
<path d="M175.357 206.194C175.357 201.092 171.212 196.948 166.111 196.948L83.4486 197.006C78.3184 197.006 74.2028 201.15 74.2028 206.252C74.2028 211.353 78.3474 215.498 83.4776 215.498L166.14 215.44C171.241 215.44 175.357 211.295 175.357 206.194Z" fill="#023B7E"/>
<path d="M83.4486 199.324L166.111 199.266C170.835 199.266 174.661 202.803 175.241 207.353C175.299 206.976 175.357 206.57 175.357 206.194C175.357 201.092 171.212 196.948 166.111 196.948L83.4486 197.006C78.3184 197.006 74.2028 201.15 74.2028 206.252C74.2028 206.657 74.2607 207.034 74.3186 207.411C74.8983 202.86 78.7242 199.324 83.4486 199.324Z" fill="#003E4D"/>
<path d="M166.372 211.875L83.4777 211.933C78.9272 211.933 75.1593 208.745 74.3478 204.542C74.2319 205.093 74.1739 205.672 74.1739 206.281C74.1739 211.382 78.3185 215.527 83.4487 215.527L166.111 215.469C171.241 215.469 175.357 211.324 175.357 206.223C175.357 205.904 175.299 205.585 175.27 205.267C174.169 209.035 170.633 211.846 166.372 211.875Z" fill="#002A68"/>
<path d="M175.183 43.2459C175.183 38.1447 171.038 34 165.937 34L83.2747 34.058C78.1446 34.058 74.0288 38.2027 74.0288 43.3039C74.0288 48.405 78.1736 52.5497 83.3037 52.5497L165.966 52.5208C171.038 52.4918 175.154 48.3471 175.183 43.2459Z" fill="#023B7E"/>
<path d="M83.2459 36.3767L165.908 36.3187C170.633 36.3187 174.458 39.8548 175.038 44.4052C175.096 44.0285 175.154 43.6227 175.154 43.2459C175.154 38.1447 171.009 34 165.908 34L83.2459 34.058C78.1157 34.058 74 38.2027 74 43.3039C74 43.7096 74.0579 44.0864 74.1158 44.4632C74.6955 39.9127 78.5215 36.3767 83.2459 36.3767Z" fill="#003E4D"/>
<path d="M166.198 48.8979L83.3038 48.9559C78.7533 48.9559 74.9854 45.7676 74.1739 41.5649C74.0579 42.1156 74 42.6953 74 43.304C74 48.4052 78.1446 52.5499 83.2748 52.5499L165.937 52.5209C171.067 52.5209 175.183 48.3762 175.183 43.275C175.183 42.9562 175.125 42.6373 175.096 42.3185C173.966 46.0864 170.459 48.8979 166.198 48.8979Z" fill="#002A68"/>
<path opacity="0.3636" d="M88.202 52.6948C87.2165 54.2889 86.376 55.97 85.6514 57.738H163.763C163.039 55.97 162.198 54.2889 161.213 52.6948H88.202Z" fill="#8CD4D4"/>
<path d="M159.3 81.7368C159.561 81.0411 159.85 80.3745 160.082 79.6499L89.3324 79.6789C89.5643 80.3745 89.8252 81.0411 90.1151 81.7368H159.3Z" fill="#FF832B"/>
<path opacity="0.1" d="M117.824 174.022C111.969 186.978 101.361 194.803 94.1439 191.557C86.9269 188.282 85.8256 175.152 91.6803 162.196C97.5351 149.24 108.143 141.415 115.36 144.661C122.577 147.936 123.679 161.095 117.824 174.022Z" fill="white"/>
<path opacity="0.1" d="M117.621 76.4617C123.939 89.1856 123.302 102.373 116.201 105.88C109.1 109.387 98.2305 101.939 91.912 89.2146C85.5935 76.4907 86.2311 63.303 93.3322 59.7959C100.433 56.2598 111.302 63.7377 117.621 76.4617Z" fill="white"/>
<path opacity="0.1" d="M158.054 82.838C154.923 89.6783 149.271 93.794 145.475 92.0549C141.678 90.3159 141.127 83.3597 144.257 76.5195C147.387 69.6793 153.039 65.5636 156.836 67.3026C160.633 69.0417 161.184 75.9978 158.054 82.838Z" fill="white"/>
<path opacity="0.1" d="M153.706 158.544C157.068 165.268 156.778 172.253 153.01 174.108C149.271 175.992 143.504 172.05 140.113 165.355C136.75 158.631 137.04 151.646 140.779 149.791C144.547 147.907 150.315 151.82 153.706 158.544Z" fill="white"/>
</svg>
