<svg width="1286" height="180" viewBox="0 0 1286 180" fill="none" xmlns="http://www.w3.org/2000/svg">
<path d="M309.273 87.8244C309.273 57.8921 331.492 34.555 361.704 34.555C378.808 34.555 390.797 40.1356 401.188 49.4366L385.203 69.3915C378.329 63.3032 371.295 59.752 361.704 59.752C347.637 59.752 336.767 72.2661 336.767 88.1623C336.767 104.735 347.797 116.573 363.143 116.573C369.697 116.573 374.652 115.051 378.649 112.345V99.8311H359.466V79.1999H404.225V125.367C393.994 134.33 379.608 141.263 362.024 141.263C331.972 141.094 309.273 119.11 309.273 87.8244Z" fill="#092E69"/>
<path d="M418.694 119.244L455.129 89.2636C464.238 81.8114 467.594 76.7296 467.594 70.4628C467.594 63.8572 463.279 59.7918 456.727 59.7918C450.176 59.7918 445.062 63.8572 437.391 73.3422L419.174 57.0818C429.561 42.5155 439.788 34.5548 458.805 34.5548C480.059 34.5548 494.601 48.1052 494.601 68.261C494.601 85.0293 486.611 93.837 472.069 105.016L455.449 117.55H495.56V141.263H418.694V119.244Z" fill="#092E69"/>
<path d="M510.189 34.5548H556.071C570.94 34.5548 581.17 38.8026 587.725 45.9391C593.481 52.2262 596.358 60.3823 596.358 71.257C596.358 87.5689 588.366 98.4436 576.374 104.051L599.555 141.263H568.381L548.877 108.809H537.047V141.263H510.029V34.5548H510.189ZM554.952 85.8696C564.065 85.8696 569.34 80.9422 569.34 72.9562C569.34 64.6301 563.745 60.2122 554.793 60.2122H537.207V85.8696H554.952Z" fill="#092E69"/>
<path d="M626.503 115.942C630.081 115.942 633.057 117.124 635.427 119.487C637.797 121.8 638.982 124.778 638.982 128.421C638.982 132.064 637.797 135.067 635.427 137.43C633.057 139.744 630.081 140.901 626.503 140.901C622.881 140.901 619.883 139.719 617.513 137.356C615.187 134.993 614.024 132.015 614.024 128.421C614.024 124.828 615.187 121.849 617.513 119.487C619.883 117.124 622.881 115.942 626.503 115.942Z" fill="#092E69"/>
<path fill-rule="evenodd" clip-rule="evenodd" d="M746.907 96.2566H703.045V121.199H754.522V141.265H677.324V34.5346H754.37V54.7432H703.045V76.6186H746.907V96.2566ZM817.326 106.293L796.828 141.265H766.816L800.854 87.4684L767.667 34.5346H797.365L817.326 68.9159L837.287 34.5346H866.985L833.798 87.4684L867.836 141.265H837.824L817.326 106.293ZM905.917 141.265H880.196V34.5346H924.887C933.376 34.5346 940.895 35.9891 947.41 38.9416C953.979 41.8956 959.079 46.1333 962.647 51.6687C966.21 57.1495 967.979 63.3928 967.979 70.353C967.979 80.9336 964.073 89.3998 956.239 95.5903C948.49 101.705 937.853 104.673 924.506 104.673H905.917V141.265ZM937.742 80.8105L937.75 80.8032C940.558 78.4657 942.03 75.1031 942.03 70.4956C942.03 65.7364 940.548 62.0125 937.663 59.182C934.793 56.3656 930.768 54.8359 925.408 54.7432H905.917V84.4648H924.887C930.742 84.4648 934.951 83.1715 937.742 80.8105ZM1073.56 58.0764C1077.64 66.0607 1079.65 75.2539 1079.65 85.6173V90.2537C1079.65 100.66 1077.69 109.851 1073.71 117.789C1069.73 125.733 1064.01 131.89 1056.55 136.22C1049.15 140.547 1040.67 142.692 1031.15 142.692C1021.74 142.692 1013.29 140.57 1005.84 136.295C998.384 132.015 992.609 125.911 988.527 118.019L988.525 118.016C984.447 110.083 982.402 101.009 982.351 90.8317V90.8243V85.6887C982.351 75.2798 984.341 66.0635 988.368 58.0789L988.37 58.0754C992.448 50.0436 998.196 43.8626 1005.61 39.5779C1013.06 35.2535 1021.54 33.108 1031 33.108C1040.46 33.108 1048.92 35.2527 1056.32 39.578C1063.78 43.8618 1069.53 50.0426 1073.56 58.0764ZM1014.41 61.5089L1014.41 61.5136C1010.51 66.7276 1008.43 74.5503 1008.38 85.1961V90.2537C1008.38 100.695 1010.43 108.585 1014.35 114.1C1018.22 119.532 1023.75 122.269 1031.15 122.269C1038.41 122.269 1043.85 119.642 1047.66 114.445C1051.52 109.131 1053.58 101.253 1053.63 90.6094C1053.63 90.6075 1053.63 90.6055 1053.63 90.6036L1053.63 85.546C1053.63 74.8052 1051.57 66.885 1047.66 61.5756C1043.8 56.3253 1038.31 53.6733 1031 53.6733C1023.74 53.6733 1018.28 56.3026 1014.41 61.5089ZM1164.05 97.0632L1187.44 138.45V141.265H1160.63L1139.84 103.247H1123.93V141.265H1098.21V34.5346H1140.85C1154.12 34.5346 1164.58 37.3026 1172.03 43.0357C1179.54 48.81 1183.25 56.9828 1183.25 67.3572C1183.25 74.6675 1181.55 80.8899 1178.05 85.9348C1174.86 90.5553 1170.16 94.2507 1164.05 97.0632ZM1153.5 58.5632L1153.49 58.5548C1150.92 56.1077 1146.8 54.7432 1140.85 54.7432H1123.93V83.0382H1140.92C1146.44 83.0382 1150.5 81.7359 1153.3 79.3266C1156.09 76.8835 1157.53 73.524 1157.53 69.069C1157.53 64.4854 1156.14 61.0448 1153.5 58.5632ZM1285.18 54.7432H1251.22V141.265H1225.5V54.7432H1191.99V34.5346H1285.18V54.7432Z" fill="#092E69"/>
<path d="M250.391 86.6453C252.865 89.3117 252.578 92.981 249.36 97.4925C246.172 101.964 236.324 108.625 228.073 114.051C211.58 124.895 185.991 134.539 155.214 145.14C124.436 155.741 94.346 162.904 70.5924 165.922C58.7088 167.433 45.3433 167.876 37.4116 167.235C29.4086 166.588 23.3217 164.84 20.8479 162.173C18.3741 159.507 18.8932 155.385 22.6575 151.332C27.5208 146.096 34.9034 141.774 43.1545 136.349C45.9103 134.537 48.92 132.692 52.1654 130.827L55.7419 121.277C15.3288 140.894 -6.8207 160.608 3.01368 171.208C16.7034 185.963 87.1855 177.47 160.44 152.238C233.694 127.006 281.981 96.9611 268.291 82.2058C259.851 73.1084 229.821 70.4772 190.864 77.5293L200.635 82.1057C212.518 80.5956 226.675 80.949 234.606 81.5899C242.609 82.2366 247.917 83.979 250.391 86.6453Z" fill="#092E69"/>
<path d="M225.149 102.602L185.533 102.601C185.449 111.721 185.008 119.316 183.621 128.297C199.803 122.03 208.542 118.493 224.506 110.487C224.864 107.54 225.049 105.591 225.149 102.602Z" fill="#092E69"/>
<path d="M136.019 95.6387L178.927 95.6398C178.76 79.9341 176.571 64.3251 172.424 49.2374C160.475 52.1052 148.273 53.6366 136.02 53.8061L136.019 95.6387Z" fill="#104BA9"/>
<path d="M136.024 2.01782L136.023 46.8527C147.574 46.6815 159.078 45.2571 170.352 42.5998C162.554 19.6634 150.161 4.13231 136.024 2.01782Z" fill="#447BD4"/>
<path d="M178.925 102.593L136.016 102.592L136.042 144.122C152.045 139.705 160.489 136.699 176.176 131.019C177.86 121.338 178.819 112.455 178.925 102.593Z" fill="#092E69"/>
<path d="M203.938 37.0164C196 41.5417 187.584 45.0667 178.862 47.5185C183.139 63.1666 185.382 79.3512 185.532 95.6326L225.148 95.6336C224.427 74.1645 216.968 53.5511 203.938 37.0164Z" fill="#104BA9"/>
<path d="M199.48 31.7353C199.383 31.6317 199.291 31.5197 199.196 31.4127C198.673 30.8455 198.131 30.2987 197.599 29.7468C196.986 29.11 196.374 28.4664 195.742 27.8483C195.195 27.3117 194.629 26.8039 194.068 26.269C193.427 25.6713 192.787 25.0684 192.128 24.4911C191.557 23.9833 190.972 23.4976 190.391 23.0103C189.729 22.4465 189.052 21.8861 188.371 21.3478C187.774 20.874 187.169 20.4155 186.561 19.957C185.871 19.434 185.177 18.9126 184.473 18.4151C183.856 17.9769 183.228 17.549 182.6 17.1296C181.886 16.6456 181.173 16.1718 180.445 15.7133C179.808 15.3108 179.164 14.9135 178.519 14.528C177.78 14.0831 177.04 13.6517 176.293 13.2306C175.631 12.8824 174.971 12.5038 174.31 12.1556C173.55 11.7515 172.784 11.3626 171.998 10.9805C171.337 10.6493 170.665 10.3267 169.985 10.0125C169.202 9.64741 168.412 9.31796 167.623 8.96983C166.942 8.67774 166.264 8.38904 165.577 8.11393C164.775 7.79128 163.962 7.48899 163.149 7.1935C162.462 6.93877 161.775 6.68574 161.078 6.44799C160.252 6.16608 159.426 5.90965 158.577 5.65152C157.89 5.43924 157.199 5.22356 156.504 5.02996C156.238 4.95354 155.967 4.8941 155.699 4.82108C165.479 14.8163 172.735 27.2211 176.815 40.913C184.665 38.7362 192.267 35.6594 199.48 31.7353Z" fill="#447BD4"/>
<path d="M40.2829 95.6266L79.899 95.6276C80.0494 79.3463 82.2939 63.1618 86.5694 47.5139C77.8497 45.0633 69.4332 41.5379 61.4959 37.0105C48.4633 53.5429 41.003 74.1576 40.2829 95.6266Z" fill="#104BA9"/>
<path d="M129.615 102.578L86.6016 102.577C86.7524 119.936 88.699 138.798 92.0829 155.585C107.042 152.131 115.096 150.133 129.646 145.892L129.615 102.578Z" fill="#092E69"/>
<path d="M129.416 2.00327C115.279 4.11705 102.884 19.6475 95.0863 42.5835C106.36 45.243 117.864 46.668 129.415 46.8381L129.416 2.00327Z" fill="#447BD4"/>
<path d="M129.416 53.8072C117.163 53.6371 104.96 52.1051 93.0124 49.2367C88.8627 64.3242 86.6747 79.933 86.5065 95.6387L129.415 95.6398L129.416 53.8072Z" fill="#104BA9"/>
<path d="M109.71 4.82218C109.442 4.89519 109.174 4.95461 108.907 5.02763C108.206 5.22459 107.516 5.44363 106.819 5.65587C105.99 5.91056 105.167 6.16696 104.334 6.44542C103.633 6.68484 102.942 6.93953 102.252 7.19253C101.443 7.49308 100.634 7.79192 99.8333 8.11114C99.1428 8.38961 98.462 8.67827 97.778 8.97373C96.9923 9.32182 96.205 9.66991 95.429 10.0163C94.7482 10.3304 94.0754 10.6598 93.401 10.991C92.6379 11.3696 91.8781 11.7551 91.1247 12.1558C90.4632 12.5107 89.8017 12.8741 89.1419 13.2442C88.4014 13.6619 87.6673 14.0898 86.9381 14.5279C86.2766 14.9168 85.6265 15.3158 84.9892 15.7233C84.2713 16.1784 83.5614 16.6488 82.8548 17.114C82.2192 17.5419 81.5883 17.9732 80.964 18.4181C80.267 18.9123 79.5798 19.4268 78.8957 19.9413C78.281 20.4048 77.6696 20.8667 77.0678 21.3337C76.3918 21.8685 75.7465 22.4255 75.0657 22.9808C74.4784 23.4749 73.8863 23.9656 73.312 24.4767C72.6505 25.0507 72.023 25.645 71.3857 26.2393C70.821 26.7691 70.2515 27.2836 69.6998 27.8321C69.0722 28.4485 68.4607 29.0887 67.8477 29.7237C67.3153 30.2773 66.7732 30.8241 66.2505 31.3929C66.1553 31.4982 66.0633 31.6137 65.9633 31.7207C73.1682 35.64 80.7602 38.7155 88.6024 40.8926C92.6811 27.2095 99.9348 14.8118 109.71 4.82218Z" fill="#447BD4"/>
<path d="M79.93 102.578L40.2829 102.577C40.8997 124.126 46.601 145.486 56.3559 163.198C68.2199 161.049 74.6733 159.492 86.38 156.711C82.6853 139.598 80.0689 120.299 79.93 102.578Z" fill="#092E69"/>
</svg>
