<svg width="1398" height="218" viewBox="0 0 1398 218" fill="none" xmlns="http://www.w3.org/2000/svg">
<path d="M255.655 107.571C255.655 77.8766 277.695 54.7249 307.663 54.7249C324.629 54.7249 336.522 60.2612 346.828 69.4883L330.972 89.2846C324.154 83.2447 317.177 79.7217 307.663 79.7217C293.71 79.7217 282.928 92.1364 282.928 107.906C282.928 124.348 293.869 136.091 309.091 136.091C315.592 136.091 320.507 134.581 324.471 131.897V119.482H305.443V99.0151H349.841V144.815C339.693 153.707 325.422 160.585 307.981 160.585C278.171 160.417 255.655 138.608 255.655 107.571Z" fill="#333333"/>
<path d="M364.193 138.74L400.334 108.998C409.37 101.605 412.699 96.5641 412.699 90.347C412.699 83.7939 408.419 79.7608 401.92 79.7608C395.421 79.7608 390.348 83.7939 382.74 93.2036L364.669 77.0724C374.972 62.6218 385.117 54.7244 403.98 54.7244C425.063 54.7244 439.487 68.1671 439.487 88.1627C439.487 104.798 431.562 113.535 417.137 124.626L400.652 137.06H440.438V160.584H364.193V138.74Z" fill="#333333"/>
<path d="M454.949 54.7244H500.462C515.21 54.7244 525.358 58.9384 531.86 66.0182C537.569 72.2553 540.423 80.3466 540.423 91.1349C540.423 107.317 532.495 118.105 520.6 123.668L543.594 160.584H512.672L493.326 128.388H481.591V160.584H454.791V54.7244H454.949ZM499.351 105.631C508.39 105.631 513.624 100.743 513.624 92.8206C513.624 84.5606 508.073 80.1779 499.193 80.1779H481.749V105.631H499.351Z" fill="#333333"/>
<path d="M570.325 135.465C573.874 135.465 576.826 136.637 579.177 138.981C581.528 141.277 582.704 144.231 582.704 147.845C582.704 151.459 581.528 154.438 579.177 156.782C576.826 159.078 573.874 160.225 570.325 160.225C566.733 160.225 563.758 159.053 561.407 156.709C559.1 154.365 557.946 151.41 557.946 147.845C557.946 144.28 559.1 141.325 561.407 138.981C563.758 136.637 566.733 135.465 570.325 135.465Z" fill="#333333"/>
<path d="M1021.09 124.189L1021.09 124.195L1021.1 124.201C1023.49 125.912 1024.73 128.348 1024.73 131.784C1024.73 134.824 1023.55 137.092 1021.13 138.789C1018.61 140.502 1014.95 141.47 1009.92 141.47C1003.06 141.47 998.267 140.094 995.213 137.657C992.241 135.285 990.628 131.671 990.628 126.456V124.573H964.73V126.456C964.73 133.403 966.598 139.585 970.368 144.928L970.375 144.938C974.19 150.27 979.661 154.416 986.679 157.422L986.689 157.427C993.711 160.387 1001.46 161.851 1009.92 161.851C1022.03 161.851 1031.89 159.3 1039.32 153.999L1039.33 153.994C1046.84 148.583 1050.62 141.067 1050.62 131.644C1050.62 123.184 1047.54 116.044 1041.42 110.354C1035.37 104.732 1025.9 100.165 1013.23 96.532C1006.5 94.5903 1001.52 92.5477 998.216 90.4459C995.125 88.452 993.863 86.204 993.863 83.6879C993.863 80.7668 995.045 78.474 997.565 76.6624L997.572 76.6568L997.58 76.6511C1000.13 74.7778 1003.87 73.7217 1009.04 73.7217C1014.35 73.7217 1018.19 74.9652 1020.83 77.2011L1020.84 77.2065L1020.84 77.2118C1023.43 79.3644 1024.8 82.4154 1024.8 86.6326V88.5151H1050.62V86.6326C1050.62 80.1485 1048.85 74.3049 1045.29 69.1626C1041.79 64.0256 1036.87 60.0981 1030.61 57.357C1024.35 54.5703 1017.27 53.2 1009.4 53.2C1001.6 53.2 994.502 54.448 988.123 56.9785L988.118 56.9805C981.786 59.5127 976.801 63.0888 973.272 67.7601L973.269 67.7631C969.782 72.3982 968.039 77.7053 968.039 83.6178C968.039 95.1435 974.723 104.125 987.293 110.601L987.295 110.602C991.891 112.962 998.059 115.337 1005.76 117.736L1005.77 117.739C1013.39 120.07 1018.42 122.24 1021.09 124.189Z" fill="#333333"/>
<path d="M1165.28 160.511H1191.11V54.6636H1165.28V160.511Z" fill="#333333"/>
<path d="M1300.62 124.766L1300.78 122.742H1274.95L1274.81 124.476C1274.34 130.394 1272.53 134.464 1269.63 137.026C1266.79 139.54 1262.25 140.97 1255.66 140.97C1248.58 140.97 1243.69 138.614 1240.59 134.143C1237.44 129.523 1235.71 121.93 1235.71 111.023L1235.71 103.328L1235.71 103.322C1235.8 92.9041 1237.65 85.5975 1240.94 81.0681C1244.19 76.5991 1249.08 74.2739 1255.95 74.2739C1262.49 74.2739 1266.96 75.7244 1269.76 78.2698L1269.77 78.2794L1269.78 78.2889C1272.6 80.7844 1274.44 84.9959 1274.96 91.3345L1275.1 93.0637H1300.98L1300.76 90.988C1299.55 79.1826 1295 69.8414 1287.01 63.1649C1279.05 56.5052 1268.63 53.2613 1255.95 53.2613C1246.74 53.2613 1238.56 55.3404 1231.46 59.5554C1224.41 63.7292 1218.99 69.7425 1215.22 77.5296C1211.45 85.3064 1209.59 94.243 1209.59 104.292V110.532C1209.59 126.228 1213.6 138.827 1221.83 148.099L1221.83 148.107C1230.14 157.358 1241.5 161.913 1255.66 161.913C1268.52 161.913 1279.08 158.674 1287.15 152.021C1295.28 145.348 1299.75 136.202 1300.62 124.766Z" fill="#333333"/>
<path d="M1117.25 75.4657H1150.04V54.6636H1059.07V75.4657H1091.42V160.511H1117.25V75.4657Z" fill="#333333"/>
<path d="M693.395 160.511V139.849H646.56V54.6636H620.736V160.511H693.395Z" fill="#333333"/>
<path fill-rule="evenodd" clip-rule="evenodd" d="M705.385 137.391L705.388 137.395C709.366 145.227 715.004 151.298 722.292 155.556C729.569 159.807 737.819 161.913 746.99 161.913C756.258 161.913 764.538 159.785 771.772 155.48C779.062 151.172 784.651 145.048 788.53 137.163C792.405 129.288 794.311 120.184 794.311 109.901V105.344C794.311 95.1014 792.353 85.9951 788.38 78.0741C784.454 70.1035 778.842 63.9552 771.548 59.6921C764.316 55.3897 756.062 53.2613 746.843 53.2613C737.622 53.2613 729.344 55.3908 722.064 59.6923C714.818 63.9563 709.208 70.1044 705.234 78.0718L705.232 78.0763C701.308 85.998 699.375 95.1271 699.375 105.414L699.375 110.462L699.375 110.471C699.425 120.532 701.412 129.521 705.385 137.391ZM731.235 81.9129L731.231 81.9191C727.547 86.9312 725.542 94.5082 725.494 104.927V109.901C725.494 120.116 727.468 127.768 731.183 133.081C734.82 138.283 740.002 140.9 746.99 140.9C753.847 140.9 758.936 138.386 762.517 133.413C766.165 128.3 768.144 120.665 768.193 110.249V105.273C768.193 94.759 766.211 87.0838 762.52 81.9769C758.889 76.9516 753.749 74.4141 746.843 74.4141C739.985 74.4141 734.866 76.9298 731.235 81.9129Z" fill="#333333"/>
<path d="M899.541 146.967L900.007 146.435V103.11H854.111V122.37H874.182V137.241C871.097 139.786 865.96 141.251 858.347 141.251C850.572 141.251 844.923 138.696 841.085 133.773C837.185 128.772 835.086 121.172 835.086 110.672V104.154C835.135 93.7257 837.094 86.1977 840.68 81.2827C844.198 76.4604 849.303 73.9934 856.288 73.9934C861.896 73.9934 866.03 75.2854 868.922 77.6374L868.927 77.6417L868.932 77.6459C871.839 79.9759 873.864 83.7638 874.797 89.319L875.06 90.8902H900.246L899.993 88.7835C898.625 77.3751 894.203 68.4931 886.587 62.3729C878.988 56.22 868.59 53.2613 855.627 53.2613C846.23 53.2613 837.927 55.3114 830.784 59.4764C823.675 63.6031 818.229 69.5964 814.45 77.3894L814.447 77.3942C810.721 85.1335 808.894 94.2354 808.894 104.642V111.593L808.894 111.602C808.994 121.746 810.978 130.669 814.911 138.315L814.915 138.324C818.901 145.975 824.549 151.859 831.844 155.925L831.85 155.929L831.857 155.933C839.185 159.94 847.642 161.913 857.171 161.913C866.17 161.913 874.418 160.649 881.895 158.096L881.906 158.092C889.385 155.49 895.304 151.805 899.541 146.967Z" fill="#333333"/>
<path d="M920.545 160.511H946.369V54.6636H920.545V160.511Z" fill="#333333"/>
<path fill-rule="evenodd" clip-rule="evenodd" d="M1368.18 124.251L1368.19 124.256L1368.2 124.262C1370.59 125.973 1371.82 128.41 1371.82 131.846C1371.82 134.885 1370.65 137.154 1368.22 138.85C1365.71 140.564 1362.05 141.531 1357.02 141.531C1350.16 141.531 1345.36 140.155 1342.31 137.719C1339.34 135.347 1337.73 131.733 1337.73 126.517V124.635H1311.83V126.517C1311.83 133.465 1313.7 139.646 1317.47 144.99L1317.47 145C1321.29 150.331 1326.76 154.477 1333.78 157.484L1333.79 157.488C1340.81 160.448 1348.56 161.913 1357.02 161.913C1369.13 161.913 1378.99 159.361 1386.42 154.061L1386.43 154.056C1393.94 148.644 1397.72 141.128 1397.72 131.705C1397.72 123.245 1394.64 116.106 1388.52 110.415C1382.47 104.793 1373 100.226 1360.33 96.5934C1353.59 94.6517 1348.62 92.6091 1345.31 90.5072C1342.22 88.5134 1340.96 86.2653 1340.96 83.7493C1340.96 80.8282 1342.14 78.5353 1344.66 76.7238L1344.67 76.7182L1344.68 76.7125C1347.23 74.8392 1350.97 73.7831 1356.14 73.7831C1361.45 73.7831 1365.29 75.0266 1367.93 77.2624L1367.94 77.2678L1367.94 77.2732C1370.53 79.4258 1371.9 82.4768 1371.9 86.694V88.5765H1397.72V86.694C1397.72 80.2098 1395.95 74.3663 1392.39 69.224C1388.89 64.0869 1383.96 60.1595 1377.7 57.4184C1371.45 54.6317 1364.37 53.2613 1356.5 53.2613C1348.7 53.2613 1341.6 54.5093 1335.22 57.0399L1335.22 57.0419C1328.88 59.5741 1323.9 63.1502 1320.37 67.8214L1320.37 67.8245C1316.88 72.4596 1315.14 77.7667 1315.14 83.6792C1315.14 95.2049 1321.82 104.186 1334.39 110.663L1334.39 110.664C1338.99 113.024 1345.16 115.398 1352.85 117.798L1352.86 117.801C1360.49 120.132 1365.52 122.302 1368.18 124.251Z" fill="#333333"/>
<path d="M0 109.018C0 48.8089 48.7947 0 108.986 0C169.177 0 217.972 48.8089 217.972 109.018C217.972 116.341 217.25 123.495 215.874 130.414C184.861 125.523 162.929 106.64 155.84 97.8104C161.544 127.969 192.6 149.093 207.415 155.885C204.319 162.379 200.6 168.518 196.335 174.225C147.549 130.414 139.718 88.9802 138.524 75.3955C126.302 143.048 151.087 188.354 165.007 202.55C157.71 206.933 149.857 210.485 141.58 213.077C99.2078 132.491 119.851 65.9764 135.469 42.792C78.4292 85.1765 83.8615 176.573 93.7076 216.973C87.7688 216.139 81.9835 214.827 76.3921 213.077C71.1154 211.425 66.0113 209.382 61.1137 206.983C58.6691 98.7001 119.851 30.6688 150.747 10.1886C57.0394 33.8261 23.6935 126.678 18.734 170.149C6.90882 152.715 0 131.673 0 109.018Z" fill="#F15317"/>
</svg>
