<svg width="880" height="230" viewBox="0 0 880 230" fill="none" xmlns="http://www.w3.org/2000/svg">
<path d="M296.533 131.656V170.826H273.616V59.8048H317.159C325.482 59.8048 332.839 61.3668 339.232 64.3706C345.625 67.3744 350.45 71.7 353.948 77.3472C357.325 82.9944 359.134 89.3625 359.134 96.5717C359.134 107.506 355.395 116.036 347.917 122.284C340.438 128.532 330.065 131.656 316.918 131.656H296.533ZM296.533 113.153H317.038C323.069 113.153 327.773 111.711 330.909 108.827C334.046 105.944 335.734 101.858 335.734 96.5717C335.734 91.1648 334.166 86.7191 330.909 83.3548C327.653 79.9906 323.31 78.3084 317.641 78.1882H296.533V113.153Z" fill="black"/>
<path d="M419.807 108.947C416.792 108.586 414.138 108.346 411.846 108.346C403.524 108.346 397.975 111.109 395.442 116.757V170.705H373.369V88.1602H394.236L394.839 98.0127C399.302 90.443 405.453 86.5981 413.294 86.5981C415.706 86.5981 417.998 86.9586 420.169 87.5594L419.807 108.947Z" fill="black"/>
<path d="M430.081 66.7813C430.081 63.417 431.167 60.7737 433.459 58.6109C435.63 56.4482 438.646 55.3668 442.506 55.3668C446.246 55.3668 449.262 56.4482 451.554 58.6109C453.846 60.7737 454.932 63.417 454.932 66.7813C454.932 70.1456 453.846 72.9091 451.554 75.0719C449.262 77.2347 446.246 78.3161 442.506 78.3161C438.767 78.3161 435.751 77.2347 433.459 75.0719C431.167 72.9091 430.081 70.1456 430.081 66.7813ZM453.605 170.714H431.408V88.1686H453.605V170.714Z" fill="black"/>
<path d="M492.201 88.1721L492.924 97.6642C498.835 90.3349 506.796 86.6101 516.686 86.6101C525.492 86.6101 532.005 89.1333 536.347 94.2999C540.69 99.4665 542.861 107.156 542.981 117.369V170.717H520.908V117.97C520.908 113.284 519.943 109.92 517.893 107.757C515.842 105.594 512.465 104.633 507.761 104.633C501.488 104.633 496.905 107.276 493.769 112.563V170.717H471.696V88.1721H492.201Z" fill="black"/>
<path d="M586.381 67.975V88.2809H600.493V104.502H586.381V145.714C586.381 148.718 586.984 151.001 588.19 152.323C589.396 153.644 591.568 154.365 594.945 154.365C597.357 154.365 599.528 154.245 601.458 153.885V170.586C597.116 171.908 592.653 172.628 588.07 172.628C572.51 172.628 564.67 164.819 564.308 149.199V104.742H552.246V88.5212H564.308V68.2153H586.381V67.975Z" fill="black"/>
<path d="M698.677 59.8048V132.978C698.677 145.114 694.817 154.726 687.218 161.815C679.619 168.904 669.126 172.388 655.978 172.388C642.951 172.388 632.578 168.904 624.979 162.055C617.38 155.207 613.4 145.714 613.279 133.819V59.8048H636.197V133.098C636.197 140.428 637.885 145.714 641.383 148.959C644.881 152.203 649.706 154.005 655.858 154.005C668.764 154.005 675.277 147.276 675.518 133.699V59.8048H698.677Z" fill="black"/>
<path d="M762.602 108.947C759.586 108.586 756.933 108.346 754.641 108.346C746.318 108.346 740.77 111.109 738.237 116.757V170.705H716.163V88.1602H737.03L737.634 98.0127C742.096 90.443 748.248 86.5981 756.088 86.5981C758.501 86.5981 760.792 86.9586 762.964 87.5594L762.602 108.947Z" fill="black"/>
<path d="M818.933 170.826C817.968 168.783 817.124 166.38 816.762 163.376C811.455 169.384 804.459 172.268 795.895 172.268C787.813 172.268 781.059 169.985 775.751 165.299C770.444 160.613 767.791 154.725 767.791 147.636C767.791 138.865 771.047 132.137 777.561 127.451C784.074 122.765 793.482 120.362 805.786 120.362H815.918V115.676C815.918 111.831 814.953 108.827 813.023 106.544C811.093 104.261 807.957 103.059 803.735 103.059C799.996 103.059 797.101 103.901 794.93 105.703C792.759 107.505 791.794 109.908 791.794 113.032H769.72C769.72 108.226 771.168 103.78 774.183 99.8153C777.199 95.7301 781.3 92.6061 786.728 90.2031C792.156 87.9202 798.187 86.7186 804.941 86.7186C815.194 86.7186 823.275 89.2418 829.306 94.4084C835.337 99.575 838.353 106.664 838.353 115.916V151.722C838.353 159.532 839.559 165.419 841.609 169.504V170.826H818.933ZM800.599 155.446C803.856 155.446 806.871 154.725 809.645 153.284C812.42 151.842 814.47 149.919 815.797 147.396V133.218H807.474C796.377 133.218 790.467 137.063 789.743 144.633L789.623 145.954C789.623 148.718 790.588 151.001 792.517 152.683C794.568 154.605 797.222 155.446 800.599 155.446Z" fill="black"/>
<path d="M878.399 170.826H856.202V53.6764H878.399V170.826Z" fill="black"/>
<path d="M112.002 195.638V226.998C50.1771 226.998 0 176.822 0 114.998H31.2486C31.2486 159.462 67.5375 195.638 112.002 195.638Z" fill="#FFB518"/>
<path d="M223.999 114.999C223.999 176.824 173.822 227 111.996 227V195.64C156.461 195.64 192.75 159.464 192.75 114.887H223.999V114.999Z" fill="#A40550"/>
<path d="M224.001 115H192.752C192.752 70.5361 156.575 34.248 111.998 34.248V3C173.824 3 224.001 53.1761 224.001 115Z" fill="#0784A2"/>
<path d="M112.007 3.00052V34.2486C67.5425 34.2486 31.2536 70.4246 31.2536 115.001H0.00500488C0.00500488 53.1766 50.1821 3.00052 112.007 3.00052Z" fill="#02090A"/>
<path d="M112.004 180.967C148.438 180.967 177.973 151.432 177.973 114.999C177.973 78.5659 148.438 49.031 112.004 49.031C75.57 49.031 46.0344 78.5659 46.0344 114.999C46.0344 151.432 75.57 180.967 112.004 180.967Z" fill="#05A32F"/>
</svg>
