<svg width="250" height="250" viewBox="0 0 250 250" fill="none" xmlns="http://www.w3.org/2000/svg">
<path d="M147.894 117.527C145.9 110.775 139.582 106.048 132.54 106.048H94.9999H57.4597C50.4179 106.048 44.0996 110.775 42.106 117.527L36.3182 137.142L45.1768 139.762L50.9645 120.148C51.8166 117.286 54.4854 115.293 57.4597 115.293H94.9999H132.54C135.53 115.293 138.199 117.286 139.035 120.148L144.823 139.762L153.682 137.142L147.894 117.527Z" fill="#1C1C1C"/>
<path d="M166.656 249.987H23.328C17.0096 249.987 11.6399 245.421 10.611 239.183L4.45337 165.341H185.514L179.357 239.183C178.36 245.421 172.974 249.987 166.656 249.987Z" fill="#1C1C1C"/>
<path d="M185.531 165.357H4.4696V193.974H185.531V165.357Z" fill="#1C1C1C"/>
<path d="M174.518 135.373H15.4825C9.40538 135.373 4.48572 140.292 4.48572 146.37V171.514H185.547V146.37C185.531 140.292 180.595 135.373 174.518 135.373Z" fill="#004290"/>
<g opacity="0.3">
<path opacity="0.3" d="M185.531 156.9H4.4696V171.515H185.531V156.9Z" fill="#F0CD32"/>
</g>
<path d="M190 171.514H0V190.871H190V171.514Z" fill="#1C1C1C"/>
<path d="M190 159.473H0V171.531H190V159.473Z" fill="#023B7E"/>
<path d="M94.9998 235.109C105.113 235.109 113.312 226.91 113.312 216.797C113.312 206.684 105.113 198.485 94.9998 198.485C84.8864 198.485 76.6879 206.684 76.6879 216.797C76.6879 226.91 84.8864 235.109 94.9998 235.109Z" fill="#F15317"/>
<path d="M120.691 165.357H69.3085V178.829H120.691V165.357Z" fill="#002A68"/>
<path d="M120.691 165.357H69.3085V178.829H120.691V165.357Z" fill="#002A68"/>
<path d="M114.517 118.958H75.4661C72.7973 118.958 70.6268 116.788 70.6268 114.119V105.839C70.6268 103.17 72.7973 101 75.4661 101H114.517C117.186 101 119.357 103.17 119.357 105.839V114.119C119.357 116.788 117.186 118.958 114.517 118.958Z" fill="#F15317"/>
</svg>
