<svg width="250" height="250" viewBox="0 0 250 250" fill="none" xmlns="http://www.w3.org/2000/svg">
<path fill-rule="evenodd" clip-rule="evenodd" d="M125.5 97C133.508 97 140 90.5081 140 82.5C140 74.4919 133.508 68 125.5 68C117.492 68 111 74.4919 111 82.5C111 90.5081 117.492 97 125.5 97ZM125.5 117C144.554 117 160 101.554 160 82.5C160 63.4462 144.554 48 125.5 48C106.446 48 91 63.4462 91 82.5C91 101.554 106.446 117 125.5 117Z" fill="#E34F1B"/>
<path d="M57.9861 82.6678C58.5852 80.5007 60.557 79 62.8054 79H187.195C189.443 79 191.415 80.5007 192.014 82.6678L223.25 195.668C224.13 198.852 221.734 202 218.43 202H31.5696C28.2656 202 25.8701 198.852 26.7504 195.668L57.9861 82.6678Z" fill="#0755A3"/>
<path d="M124.099 160.918H112.599L105.146 146.493L102.14 148.296V160.918H91.9224V123.212H102.14V139.601C102.661 138.599 103.703 136.996 105.266 134.793L113.2 123.252H124.339L112.438 140.122L124.099 160.918Z" fill="#F6F6F6"/>
<path d="M143.294 138.839H159.562V159.155C155.155 160.677 150.306 161.439 145.017 161.439C139.207 161.439 134.719 159.756 131.553 156.39C128.387 153.024 126.785 148.216 126.785 141.965C126.785 135.874 128.508 131.146 131.994 127.78C135.48 124.414 140.328 122.691 146.579 122.691C148.944 122.691 151.188 122.931 153.311 123.372C155.435 123.813 157.238 124.374 158.801 125.055L155.595 133.029C152.871 131.707 149.905 131.025 146.66 131.025C143.694 131.025 141.37 131.987 139.767 133.91C138.165 135.834 137.323 138.599 137.323 142.205C137.323 145.731 138.044 148.416 139.527 150.259C141.01 152.102 143.093 153.024 145.898 153.024C147.421 153.024 148.783 152.864 150.066 152.583V146.693H143.334V138.839H143.294Z" fill="#F6F6F6"/>
</svg>
