<svg width="250" height="250" viewBox="0 0 250 250" fill="none" xmlns="http://www.w3.org/2000/svg">
<path d="M202.429 221H51.1066V21H181.335L202.429 38.0647V221Z" fill="#D4D4D4"/>
<path d="M199.255 216.839H48V21H178.17L199.255 37.7097V216.839Z" fill="#F6F6F6"/>
<path d="M181.15 69.2808H67.0106V73.7316H181.15V69.2808Z" fill="#0755A3"/>
<path d="M181.15 86.9712H67.0106V91.4598H181.15V86.9712Z" fill="#0755A3"/>
<path d="M181.15 104.662H67.0106V109.15H181.15V104.662Z" fill="#0755A3"/>
<path d="M181.15 122.352H67.0106V126.841H181.15V122.352Z" fill="#0755A3"/>
<path d="M181.15 140.042H67.0106V144.531H181.15V140.042Z" fill="#0755A3"/>
<path d="M181.15 157.733H67.0106V162.184H181.15V157.733Z" fill="#0755A3"/>
<path d="M151.652 175.386H67.0107V179.837H151.652V175.386Z" fill="#0755A3"/>
<path d="M151.652 193.076H67.0107V197.527H151.652V193.076Z" fill="#0755A3"/>
<path d="M79.5864 53.6778C79.4821 55.2077 78.9478 56.4121 77.9836 57.2911C77.0255 58.17 75.7604 58.6094 74.1882 58.6094C72.4687 58.6094 71.1145 57.9974 70.1258 56.7735C69.1432 55.543 68.6519 53.8568 68.6519 51.7148V50.8457C68.6519 49.4785 68.8791 48.2741 69.3335 47.2324C69.788 46.1908 70.4359 45.3932 71.2773 44.8398C72.1248 44.2799 73.1074 44 74.2251 44C75.7727 44 77.0194 44.4395 77.9652 45.3184C78.9109 46.1973 79.4575 47.431 79.6049 49.0195H76.8413C76.7737 48.1016 76.5312 47.4375 76.1136 47.0273C75.7021 46.6107 75.0726 46.4023 74.2251 46.4023C73.3039 46.4023 72.613 46.7539 72.1524 47.457C71.6979 48.1536 71.4646 49.2376 71.4523 50.709V51.7832C71.4523 53.3197 71.6703 54.4427 72.1063 55.1524C72.5485 55.862 73.2425 56.2168 74.1882 56.2168C75.0419 56.2168 75.6775 56.0118 76.0951 55.6016C76.5189 55.1849 76.7615 54.5437 76.8229 53.6778H79.5864ZM89.471 52.252H84.1649V56.0606H90.3921V58.4141H81.4013V44.1953H90.3737V46.5684H84.1649V49.957H89.471V52.252ZM96.9786 53.209H94.777V58.4141H92.0134V44.1953H96.9971C98.5816 44.1953 99.8036 44.5697 100.663 45.3184C101.523 46.0671 101.953 47.125 101.953 48.4922C101.953 49.4622 101.754 50.2728 101.354 50.9238C100.961 51.5684 100.363 52.0827 99.558 52.4668L102.46 58.2774V58.4141H99.4936L96.9786 53.209ZM94.777 50.8359H97.0063C97.7003 50.8359 98.2377 50.6504 98.6184 50.2793C98.9992 49.9017 99.1895 49.3841 99.1895 48.7266C99.1895 48.056 99.0083 47.5286 98.646 47.1445C98.2898 46.7604 97.7402 46.5684 96.9971 46.5684H94.777V50.8359ZM113.698 46.5684H109.59V58.4141H106.826V46.5684H102.773V44.1953H113.698V46.5684ZM118.221 58.4141H115.458V44.1953H118.221V58.4141ZM128.861 52.6035H123.555V58.4141H120.792V44.1953H129.525V46.5684H123.555V50.2402H128.861V52.6035ZM134.066 58.4141H131.303V44.1953H134.066V58.4141ZM147.166 53.6778C147.061 55.2077 146.527 56.4121 145.563 57.2911C144.605 58.17 143.339 58.6094 141.767 58.6094C140.048 58.6094 138.693 57.9974 137.705 56.7735C136.722 55.543 136.231 53.8568 136.231 51.7148V50.8457C136.231 49.4785 136.458 48.2741 136.913 47.2324C137.367 46.1908 138.015 45.3932 138.856 44.8398C139.704 44.2799 140.686 44 141.804 44C143.352 44 144.598 44.4395 145.544 45.3184C146.49 46.1973 147.036 47.431 147.184 49.0195H144.42C144.353 48.1016 144.11 47.4375 143.693 47.0273C143.281 46.6107 142.652 46.4023 141.804 46.4023C140.883 46.4023 140.192 46.7539 139.731 47.457C139.277 48.1536 139.044 49.2376 139.031 50.709V51.7832C139.031 53.3197 139.249 54.4427 139.685 55.1524C140.128 55.862 140.822 56.2168 141.767 56.2168C142.621 56.2168 143.257 56.0118 143.674 55.6016C144.098 55.1849 144.34 54.5437 144.402 53.6778H147.166ZM156.552 55.4844H151.707L150.786 58.4141H147.847L152.84 44.1953H155.401L160.422 58.4141H157.483L156.552 55.4844ZM152.453 53.1113H155.806L154.121 47.7891L152.453 53.1113ZM170.665 46.5684H166.557V58.4141H163.793V46.5684H159.74V44.1953H170.665V46.5684ZM180.32 52.252H175.014V56.0606H181.24V58.4141H172.25V44.1953H181.222V46.5684H175.014V49.957H180.32V52.252Z" fill="#E34F1B"/>
<path d="M176.359 21L182.96 39.5203L199.255 37.7097C199.255 37.7097 197.331 22.2447 176.359 21Z" fill="#D9D9D9"/>
<path d="M188.064 228.383L176.506 219L164.948 228.383V203.437H188.064V228.383Z" fill="#0755A3"/>
<path d="M179.482 210.051C177.908 208.849 175.333 208.878 173.76 210.08C172.186 211.281 170.27 210.795 169.497 208.964C168.725 207.133 166.493 205.874 164.519 206.132C162.545 206.389 161.143 205.016 161.401 203.042C161.63 201.068 160.342 198.865 158.511 198.093C156.68 197.32 156.165 195.432 157.338 193.83C158.54 192.256 158.511 189.682 157.31 188.108C156.108 186.535 156.595 184.618 158.426 183.845C160.256 183.073 161.515 180.841 161.258 178.867C161 176.893 162.374 175.491 164.348 175.749C166.322 175.978 168.524 174.69 169.297 172.859C170.069 171.028 171.958 170.514 173.531 171.686C175.104 172.888 177.679 172.859 179.253 171.658C180.826 170.456 182.743 170.943 183.515 172.774C184.288 174.605 186.519 175.863 188.493 175.606C190.467 175.348 191.869 176.722 191.612 178.696C191.383 180.67 192.67 182.873 194.501 183.645C196.332 184.417 196.847 186.306 195.674 187.879C194.473 189.481 194.501 192.027 195.703 193.601C196.904 195.174 196.418 197.091 194.587 197.864C192.756 198.636 191.497 200.868 191.755 202.842C192.012 204.816 190.639 206.217 188.665 205.989C186.691 205.76 184.488 207.047 183.716 208.878C182.972 210.709 181.055 211.224 179.482 210.051Z" fill="#E34F1B"/>
<path d="M173.617 201.897C172.158 200.553 170.413 199.523 168.496 198.979C167.924 197.063 166.894 195.317 165.521 193.887C165.978 191.97 165.95 189.91 165.492 187.994C166.865 186.535 167.866 184.761 168.41 182.844C170.298 182.243 172.043 181.213 173.474 179.869C174.418 180.098 175.391 180.212 176.363 180.212C177.393 180.212 178.395 180.098 179.367 179.869C180.826 181.213 182.571 182.243 184.488 182.787C185.06 184.704 186.09 186.449 187.464 187.879C187.006 189.796 187.034 191.856 187.492 193.773C186.119 195.232 185.118 197.005 184.574 198.922C182.686 199.523 180.941 200.524 179.51 201.897C178.566 201.669 177.594 201.554 176.621 201.554C175.619 201.554 174.59 201.669 173.617 201.897Z" fill="#D94912"/>
<path d="M176.506 183.933L179.31 187.423L183.487 189.025L181.055 192.773L180.826 197.236L176.506 196.063L172.187 197.236L171.958 192.773L169.526 189.025L173.703 187.423L176.506 183.933Z" fill="#EAFBFF"/>
</svg>
