<svg width="250" height="250" viewBox="0 0 250 250" fill="none" xmlns="http://www.w3.org/2000/svg">
<path d="M107.445 46.1353C115.247 32.6216 134.753 32.6216 142.555 46.1353L222.254 184.178C230.056 197.692 220.303 214.584 204.699 214.584H45.3008C29.6965 214.584 19.9438 197.692 27.746 184.178L107.445 46.1353Z" fill="#E34F1B"/>
<path fill-rule="evenodd" clip-rule="evenodd" d="M211.37 190.462L131.671 52.4192C128.706 47.284 121.294 47.284 118.329 52.4192L38.63 190.462C35.6652 195.597 39.3712 202.016 45.3008 202.016H204.699C210.629 202.016 214.335 195.597 211.37 190.462ZM142.555 46.1353C134.753 32.6216 115.247 32.6216 107.445 46.1353L27.746 184.178C19.9438 197.692 29.6965 214.584 45.3008 214.584H204.699C220.303 214.584 230.056 197.692 222.254 184.178L142.555 46.1353Z" fill="#0755A3"/>
<rect x="117.625" y="90.3252" width="15.0003" height="68.9201" rx="7.50013" fill="#F6F6F6"/>
<rect x="117.625" y="167.759" width="15.0003" height="15.0003" rx="7.50013" fill="#F6F6F6"/>
</svg>
