<svg width="120" height="120" viewBox="0 0 120 120" fill="none" xmlns="http://www.w3.org/2000/svg">
<path d="M94.6964 24.7923C95.7551 24.7923 96.6133 23.934 96.6133 22.8754V9.44408C96.6133 4.23667 92.2944 0 86.9855 0H9.5591C4.19885 0 0 4.14824 0 9.44408V95.0926C0 100.441 4.28805 104.792 9.5591 104.792H28.3706V118.083C28.3706 118.747 28.7146 119.364 29.2797 119.714C29.8448 120.063 30.5508 120.095 31.1448 119.797L40.5111 115.114L49.8775 119.797C50.1482 119.933 50.4419 120 50.7348 120C51.0855 120 51.4348 119.904 51.7426 119.714C52.3077 119.364 52.6517 118.747 52.6517 118.083V104.789L86.9852 104.728C92.2944 104.728 96.6133 100.406 96.6133 95.0926V81.6613C96.6133 80.6026 95.7551 79.7444 94.6964 79.7444H81.2779V24.7923H94.6964ZM92.7795 9.44408V20.9585H81.2779V9.57188C81.2779 6.42044 83.8397 3.84715 86.9891 3.83386C90.1824 3.83591 92.7795 6.35194 92.7795 9.44408ZM49.832 86.999C49.5637 87.1427 49.3341 87.3484 49.1611 87.5969C46.7557 89.5969 43.7326 90.6964 40.6006 90.6964C37.2746 90.6964 34.0812 89.4652 31.6099 87.2306C28.7961 84.6831 27.1821 81.0553 27.1821 77.2779C27.1821 69.8788 33.2015 63.8594 40.6006 63.8594C47.9997 63.8594 54.0191 69.8788 54.0191 77.2779C54.0191 80.9536 52.4973 84.4664 49.832 86.999ZM48.8179 114.981L41.3684 111.257C40.8288 110.987 40.1934 110.987 39.6539 111.257L32.2044 114.981V92.3447C34.7529 93.7686 37.6352 94.5303 40.6006 94.5303C43.4924 94.5303 46.3125 93.8034 48.8179 92.4426V114.981ZM52.6517 89.6104C55.9672 86.3698 57.853 81.9243 57.853 77.2779C57.853 67.7648 50.1137 60.0255 40.6006 60.0255C31.0875 60.0255 23.3482 67.7648 23.3482 77.2779C23.3482 81.829 25.168 86.209 28.3706 89.4361V100.958H9.5591C6.40204 100.958 3.83386 98.3271 3.83386 95.0926V9.44408C3.83386 6.29801 6.34862 3.83386 9.5591 3.83386H79.363C78.1592 5.43488 77.444 7.42262 77.444 9.57188V95.0926C77.444 97.274 78.1714 99.2894 79.3932 100.908L52.6517 100.955V89.6104ZM92.7795 83.5782V95.0926C92.7795 98.2358 90.1293 100.891 86.9873 100.894C83.8387 100.88 81.2779 98.2788 81.2779 95.0926V83.5782H92.7795Z" fill="#447BD4"/>
<path d="M40.6005 67.6933C35.3154 67.6933 31.0159 71.9928 31.0159 77.2779C31.0159 82.563 35.3154 86.8626 40.6005 86.8626C45.8856 86.8626 50.1852 82.563 50.1852 77.2779C50.1852 71.9928 45.8856 67.6933 40.6005 67.6933ZM40.6005 83.0287C37.4294 83.0287 34.8497 80.449 34.8497 77.2779C34.8497 74.1068 37.4294 71.5271 40.6005 71.5271C43.7716 71.5271 46.3513 74.1068 46.3513 77.2779C46.3513 80.449 43.7716 83.0287 40.6005 83.0287Z" fill="#447BD4"/>
<path d="M66.198 38.8498H15.0799C14.0212 38.8498 13.1629 39.7081 13.1629 40.7667C13.1629 41.8254 14.0212 42.6837 15.0799 42.6837H66.198C67.2567 42.6837 68.115 41.8254 68.115 40.7667C68.115 39.7081 67.2567 38.8498 66.198 38.8498Z" fill="#447BD4"/>
<path d="M58.5303 46.5175H22.7476C21.6889 46.5175 20.8306 47.3758 20.8306 48.4345C20.8306 49.4931 21.6889 50.3514 22.7476 50.3514H58.5303C59.589 50.3514 60.4472 49.4931 60.4472 48.4345C60.4472 47.3758 59.589 46.5175 58.5303 46.5175Z" fill="#447BD4"/>
<path d="M66.198 31.1821H58.5303C57.4716 31.1821 56.6134 32.0404 56.6134 33.099C56.6134 34.1577 57.4716 35.016 58.5303 35.016H66.198C67.2567 35.016 68.115 34.1577 68.115 33.099C68.115 32.0404 67.2567 31.1821 66.198 31.1821Z" fill="#447BD4"/>
<path d="M15.0799 35.016H50.8626C51.9212 35.016 52.7795 34.1577 52.7795 33.099C52.7795 32.0404 51.9212 31.1821 50.8626 31.1821H15.0799C14.0212 31.1821 13.1629 32.0404 13.1629 33.099C13.1629 34.1577 14.0212 35.016 15.0799 35.016Z" fill="#447BD4"/>
<path d="M21.5324 24.4317C21.8823 24.7039 22.2968 24.8358 22.7081 24.8358C23.2793 24.8358 23.8444 24.5815 24.2225 24.0959L28.6746 18.3732L33.1247 24.0954C33.4879 24.5623 34.0461 24.8355 34.6375 24.8355C35.2292 24.8355 35.7877 24.5626 36.1506 24.0956L40.6028 18.3729L45.0529 24.0951C45.416 24.5621 45.9745 24.8353 46.566 24.8353C47.1574 24.8353 47.7161 24.5621 48.079 24.0951L52.5289 18.3732L56.9787 24.0951C57.6284 24.9309 58.8328 25.0817 59.6686 24.4314C60.5043 23.7815 60.6549 22.5771 60.0049 21.7416L54.042 14.0739C53.6788 13.6069 53.1203 13.3337 52.5289 13.3337C51.9375 13.3337 51.3787 13.6069 51.0158 14.0739L46.566 19.7958L42.1161 14.0739C41.7529 13.6069 41.1947 13.3337 40.6033 13.3337C40.0116 13.3337 39.4531 13.6067 39.0902 14.0736L34.638 19.7963L30.1879 14.0744C29.8248 13.6074 29.2665 13.3342 28.6751 13.3342C28.0834 13.3342 27.5249 13.6072 27.162 14.0741L21.1965 21.7419C20.5463 22.5774 20.6968 23.7817 21.5324 24.4317Z" fill="#447BD4"/>
</svg>
