<svg width="120" height="120" viewBox="0 0 120 120" fill="none" xmlns="http://www.w3.org/2000/svg">
<g clip-path="url(#clip0)">
<path d="M116.809 114.043H6.38298V13.1915C6.38298 11.4288 4.95415 10 3.19149 10C1.42883 10 0 11.4288 0 13.1915V117.234C0 118.997 1.42883 120.426 3.19149 120.426H116.809C118.571 120.426 120 118.997 120 117.234C120 115.471 118.571 114.043 116.809 114.043Z" fill="#447BD4"/>
<path d="M9.49718 106.423H110.503C110.679 106.423 110.822 106.28 110.822 106.104C110.822 105.928 110.679 105.785 110.503 105.785H9.49718C9.32069 105.785 9.17803 105.928 9.17803 106.104C9.17803 106.28 9.32069 106.423 9.49718 106.423Z" fill="#447BD4"/>
<path d="M9.17803 86.9551C9.17803 87.1313 9.32069 87.2743 9.49718 87.2743H14.5611C15.7078 88.6259 17.4159 89.486 19.3273 89.486C21.2387 89.486 22.9471 88.6259 24.0935 87.2743H73.3563C74.4982 88.7685 76.2934 89.7368 78.3197 89.7368C80.346 89.7368 82.1415 88.7685 83.2838 87.2743H110.503C110.68 87.2743 110.822 87.1313 110.822 86.9551C110.822 86.7789 110.68 86.636 110.503 86.636H83.7127C84.2546 85.7104 84.5709 84.6365 84.5709 83.4869C84.5709 81.8634 83.9514 80.3848 82.9362 79.2732L91.5239 68.1253H103.396C104.431 70.1465 106.527 71.5338 108.955 71.5338C112.407 71.5338 115.205 68.7355 115.205 65.2839C115.205 61.8323 112.407 59.034 108.955 59.034C106.463 59.034 104.312 60.4929 103.309 62.6025L96.854 61.2068L103.818 52.166C104.603 52.5215 105.474 52.721 106.392 52.721C109.844 52.721 112.642 49.9227 112.642 46.4711C112.642 43.0195 109.844 40.2212 106.392 40.2212C102.94 40.2212 100.142 43.0195 100.142 46.4711C100.142 47.1225 100.247 47.748 100.432 48.3384H54.4918C53.6042 45.9678 51.3248 44.2769 48.6443 44.2769C45.9638 44.2769 43.6835 45.9678 42.7956 48.3384H21.0925C20.5321 48.1734 19.9407 48.0815 19.327 48.0815C18.7132 48.0815 18.1219 48.1737 17.5618 48.3384H9.49718C9.32069 48.3384 9.17803 48.4814 9.17803 48.6576C9.17803 48.8337 9.32069 48.9767 9.49718 48.9767H16.1157C14.2975 50.0695 13.0771 52.0549 13.0771 54.3311C13.0771 57.783 15.8754 60.581 19.327 60.581C20.9897 60.581 22.499 59.9309 23.6182 58.8729L33.4544 65.3411L31.5296 67.4873H9.49718C9.32069 67.4873 9.17803 67.6303 9.17803 67.8065C9.17803 67.9827 9.32069 68.1256 9.49718 68.1256H30.9574L22.3247 77.7512C21.4346 77.2638 20.413 76.9865 19.327 76.9865C15.875 76.9865 13.0771 79.7848 13.0771 83.2364C13.0771 84.4913 13.4505 85.6571 14.0872 86.6363H9.49718C9.32069 86.636 9.17803 86.7789 9.17803 86.9551ZM78.3194 87.438C76.1412 87.438 74.3683 85.6658 74.3683 83.4869C74.3683 81.3084 76.1412 79.5362 78.3194 79.5362C80.4986 79.5362 82.2708 81.3084 82.2708 83.4869C82.2708 85.6658 80.4989 87.438 78.3194 87.438ZM80.5573 77.6513C79.8625 77.3845 79.1084 77.2374 78.3194 77.2374C77.2257 77.2374 76.1977 77.5188 75.3041 78.0129L66.4123 68.1256H87.8955L80.5573 77.6513ZM64.6346 66.1492L72.2616 62.3733C73.408 63.7559 75.1381 64.637 77.0744 64.637C79.5587 64.637 81.7043 63.1875 82.7119 61.0887L91.8022 63.0544L88.3876 67.4873H65.8385L64.6346 66.1492ZM102.708 65.4119C102.723 66.1425 102.869 66.8385 103.114 67.487H92.0154L94.9123 63.7262L102.708 65.4119ZM106.391 42.52C108.57 42.52 110.342 44.2922 110.342 46.4707C110.342 48.6496 108.57 50.4218 106.391 50.4218C106.007 50.4218 105.636 50.364 105.285 50.261L105.308 50.2306L105.119 50.2077C103.563 49.6766 102.44 48.2037 102.44 46.4704C102.441 44.2919 104.213 42.52 106.391 42.52ZM100.669 48.9764C100.897 49.4947 101.189 49.9782 101.542 50.4116L93.7442 60.5334L83.3221 58.2799C83.2646 54.8778 80.4909 52.1363 77.0744 52.1363C73.6225 52.1363 70.8252 54.9346 70.8252 58.3865C70.8252 58.8719 70.8823 59.3436 70.9873 59.7975L62.6399 63.9301L53.7836 54.0815C54.4825 53.0723 54.8939 51.8475 54.8939 50.5265C54.8939 49.9903 54.8192 49.473 54.6922 48.9764H100.669ZM48.6443 46.5754C50.8222 46.5754 52.5951 48.3483 52.5951 50.5265C52.5951 52.705 50.8222 54.4776 48.6443 54.4776C46.4648 54.4776 44.6926 52.705 44.6926 50.5265C44.6926 48.3483 46.4648 46.5754 48.6443 46.5754ZM45.6695 56.0248C46.5539 56.5038 47.5675 56.7767 48.6443 56.7767C49.7342 56.7767 50.758 56.4971 51.6494 56.0066L59.9668 65.2543L55.4575 67.4867H49.9158C49.1457 67.1468 48.2952 66.9563 47.3993 66.9563C46.5054 66.9563 45.659 67.1487 44.8905 67.4867H41.9482L37.8229 64.7736L45.6695 56.0248ZM54.1681 68.1253L52.1358 69.1316C51.8103 68.7537 51.4391 68.4167 51.0331 68.1253H54.1681ZM43.7639 68.1253C43.6308 68.2208 43.5003 68.32 43.3752 68.4253L42.9185 68.1253H43.7639ZM25.1996 56.4732C25.4441 55.8052 25.5772 55.0833 25.5772 54.3307C25.5772 52.0549 24.3568 50.0692 22.5386 48.9764H42.5958C42.4688 49.473 42.3941 49.9903 42.3941 50.5265C42.3941 51.8609 42.8131 53.0963 43.5255 54.1109L35.3948 63.1769L25.1996 56.4732ZM35.8822 66.9371L36.718 67.487H35.3891L35.8822 66.9371ZM34.8165 68.1253H37.6886L41.6572 70.7353C41.3307 71.4936 41.1485 72.3288 41.1485 73.2068C41.1485 76.6584 43.9474 79.4567 47.3993 79.4567C50.8509 79.4567 53.6486 76.6584 53.6486 73.2068C53.6486 72.6809 53.5835 72.1702 53.4606 71.6822L60.6446 68.1253H62.5483L73.1738 79.9415C72.4783 80.9487 72.0702 82.1704 72.0702 83.4869C72.0702 84.6365 72.3858 85.7104 72.9274 86.636H24.5677C25.2041 85.6571 25.5775 84.491 25.5775 83.2361C25.5775 81.9113 25.1639 80.6838 24.4618 79.6728L34.8165 68.1253ZM19.3273 79.285C21.5061 79.285 23.2783 81.0579 23.2783 83.2361C23.2783 85.4146 21.5061 87.1868 19.3273 87.1868C17.1491 87.1868 15.3759 85.4146 15.3759 83.2361C15.3759 81.0579 17.1488 79.285 19.3273 79.285Z" fill="#447BD4"/>
<path d="M9.49718 29.8274H110.503C110.679 29.8274 110.822 29.6845 110.822 29.5083C110.822 29.3321 110.679 29.1891 110.503 29.1891H9.49718C9.32069 29.1891 9.17803 29.3321 9.17803 29.5083C9.17803 29.6845 9.32069 29.8274 9.49718 29.8274Z" fill="#447BD4"/>
</g>
<defs>
<clipPath id="clip0">
<rect width="120" height="120" fill="white"/>
</clipPath>
</defs>
</svg>
