<svg width="120" height="120" viewBox="0 0 120 120" fill="none" xmlns="http://www.w3.org/2000/svg">
<path d="M2 0C0.8955 0 0 0.8955 0 2V24H4V4H24V0H2Z" fill="#447BD4"/>
<path d="M118 0H96V4H116V24H120V2C120 0.8955 119.104 0 118 0Z" fill="#447BD4"/>
<path d="M4 116V96H0V118C0 119.104 0.8955 120 2 120H24V116H4Z" fill="#447BD4"/>
<path d="M116 96V116H96V120H118C119.104 120 120 119.104 120 118V96H116Z" fill="#447BD4"/>
<path d="M115.95 58C114.869 28.6637 91.3363 5.131 62 4.05V0H58V4.05C28.6637 5.131 5.131 28.6637 4.05 58H0V62H4.05C5.131 91.3363 28.6637 114.869 58 115.95V120H62V115.95C91.3363 114.869 114.869 91.3363 115.95 62H120V58H115.95ZM17.566 90C16.252 88.1465 15.061 86.209 14 84.2V76.6C14 72.955 16.955 70 20.6 70C48.9543 70 28.3296 70 35.4 70C39.045 70 42 72.955 42 76.6V90H17.566ZM30.758 52.788L37.906 57.078C37.104 61.974 31.07 66 28 66C23.5392 65.2402 19.8285 62.147 18.278 57.896C21.702 57.614 27.884 56.576 30.758 52.788ZM18.1103 53.884C18.6467 47.1815 21.8007 44 28 44C33.676 44 36.8 46.684 37.694 52.284L31.03 48.284C30.0828 47.7157 28.8542 48.023 28.286 48.9702C26.0946 52.6225 22.2217 53.4937 18.1103 53.884ZM62 111.95V108H58V111.95C43.617 111.398 30.1097 104.897 20.706 94H44C45.1045 94 46 93.1045 46 92V82H74V92C74 93.1045 74.8955 94 76 94H99.294C89.8902 104.897 76.383 111.398 62 111.95ZM62.758 40.788L69.906 45.078C69.104 49.974 63.07 54 60 54C55.5392 53.2402 51.8285 50.147 50.278 45.896C53.702 45.614 59.884 44.576 62.758 40.788ZM50.1102 41.884C50.6467 35.1815 53.8007 32 60 32C65.676 32 68.8 34.684 69.694 40.284L63.03 36.284C62.0827 35.7157 60.8542 36.023 60.286 36.9702C60.211 37.0952 60.15 37.2277 60.104 37.366C59.092 40.4 53.6282 41.55 50.1102 41.884ZM67.4 58C71.045 58 74 60.955 74 64.6V78H46V64.6C46 60.955 48.955 58 52.6 58C80.9543 58 60.3296 58 67.4 58ZM106 84.2C104.939 86.209 103.748 88.1465 102.434 90H78V76.6C78 72.955 80.955 70 84.6 70C91.8524 70 71.5226 70 99.4 70C103.045 70 106 72.955 106 76.6V84.2ZM94.758 52.788L101.906 57.078C101.104 61.974 95.07 66 92 66C87.5392 65.2402 83.8285 62.147 82.278 57.896C85.702 57.614 91.884 56.576 94.758 52.788ZM82.1103 53.884C82.6468 47.1815 85.8008 44 92 44C97.676 44 100.8 46.684 101.694 52.284L95.03 48.284C94.0827 47.7157 92.8543 48.023 92.286 48.9702C92.211 49.0952 92.15 49.2278 92.104 49.366C91.092 52.4 85.6283 53.55 82.1103 53.884ZM111.95 62C111.787 66.3493 111.076 70.6608 109.834 74.832C109.074 70.2215 105.364 66.6645 100.726 66.098C103.847 63.6415 105.767 59.9655 106 56C106 42.776 98.386 40 92 40C85.614 40 78 42.776 78 56C78.2325 59.9655 80.1525 63.6415 83.274 66.098C81.6465 66.2985 80.088 66.875 78.722 67.782C78.468 67.952 78.236 68.142 78 68.332V64.6C78.0107 59.256 74.0297 54.7455 68.726 54.092C71.846 51.6367 73.7657 47.9632 74 44C74 30.776 66.386 28 60 28C53.614 28 46 30.776 46 44C46.2325 47.9655 48.1525 51.6415 51.274 54.098C45.9725 54.7512 41.9922 59.2582 42 64.6V68.324C41.764 68.136 41.532 67.944 41.278 67.774C39.912 66.867 38.3535 66.2902 36.726 66.09C39.8455 63.6352 41.7653 59.9627 42 56C42 42.776 34.386 40 28 40C21.614 40 14 42.776 14 56C14.2325 59.9655 16.1525 63.6415 19.274 66.098C14.6357 66.6645 10.9262 70.2215 10.166 74.832C8.92375 70.6608 8.21275 66.3493 8.05 62H12V58H8.05C9.125 30.8713 30.8713 9.125 58 8.05V12H62V8.05C89.1288 9.125 110.875 30.8713 111.95 58H108V62H111.95Z" fill="#447BD4"/>
</svg>
