<svg width="120" height="120" viewBox="0 0 120 120" fill="none" xmlns="http://www.w3.org/2000/svg">
<path d="M117.594 105.823L87.3979 75.6371C86.9388 75.1782 86.3157 74.9202 85.6662 74.9202C85.0168 74.9202 84.3939 75.1782 83.9346 75.6371L81.5094 78.0615L73.9692 70.5238C80.6584 63.0329 84.731 53.1594 84.731 42.352C84.7312 18.9989 65.7262 0 42.3655 0C19.0048 0 0 18.9989 0 42.352C0 65.705 19.0051 84.7039 42.3657 84.7039C53.1563 84.7039 63.0157 80.6478 70.5038 73.9838L78.0463 81.5239L75.6228 83.9466C74.6665 84.9027 74.6665 86.4528 75.6228 87.4088L105.818 117.594C107.424 119.199 109.533 120 111.649 120C113.783 120 115.923 119.184 117.553 117.554C120.8 114.309 120.818 109.046 117.594 105.823ZM42.3655 79.8076C21.7057 79.8076 4.89768 63.0048 4.89768 42.352C4.89768 21.6991 21.7059 4.89608 42.3655 4.89608C63.0251 4.89608 79.8333 21.6989 79.8333 42.3517C79.8333 63.0046 63.0253 79.8076 42.3655 79.8076ZM114.09 114.092C112.754 115.429 110.596 115.446 109.282 114.132L86.6615 91.5195L88.6116 89.57C89.568 88.614 89.568 87.0638 88.6116 86.1076C87.6553 85.1516 86.1047 85.1516 85.1481 86.1076L83.1979 88.0571L80.8173 85.6773L83.2399 83.2552C83.2397 83.2552 83.2401 83.255 83.2399 83.2552C83.2401 83.2552 83.2408 83.2543 83.2408 83.2543L85.6655 80.8302L114.13 109.285C114.759 109.914 115.103 110.76 115.099 111.668C115.095 112.586 114.736 113.446 114.09 114.092Z" fill="#447BD4"/>
<path d="M42.3652 11.0163C25.0876 11.0163 11.0315 25.068 11.0315 42.34C11.0315 49.214 13.2171 55.7385 17.3523 61.2086C21.3514 66.4986 27.0352 70.4549 33.3571 72.3491C34.6527 72.7372 36.0177 72.002 36.4059 70.7068C36.7942 69.4117 36.0587 68.0471 34.7631 67.659C32.3398 66.9332 30.0769 65.8684 28.0189 64.5275C32.1082 61.3452 37.1123 59.6129 42.3645 59.6129C47.6289 59.6129 52.629 61.3396 56.7166 64.5245C54.6575 65.8672 52.3922 66.9329 49.967 67.6593C48.6712 68.0474 47.936 69.4119 48.3242 70.7071C48.6422 71.7678 49.6154 72.4532 50.669 72.4532C50.9016 72.4532 51.1384 72.4196 51.373 72.3496C55.2173 71.1981 58.8227 69.28 61.9601 66.7668C62.0966 66.6779 62.2258 66.5741 62.346 66.4553C64.2153 64.9096 65.9111 63.1501 67.3783 61.2093C71.5135 55.739 73.6993 49.2144 73.6993 42.3405C73.6991 25.0682 59.6428 11.0163 42.3652 11.0163ZM42.3645 54.7164C35.8597 54.7166 30.5679 49.4263 30.5679 42.9238C30.5679 36.4213 35.8597 31.131 42.3645 31.131C48.8689 31.131 54.1607 36.4211 54.1607 42.9238C54.1607 49.4266 48.8691 54.7164 42.3645 54.7164ZM60.6329 61.4003C58.0858 59.241 55.2147 57.5727 52.1357 56.4428C56.3256 53.4079 59.0583 48.4802 59.0583 42.9241C59.0583 33.722 51.5695 26.2352 42.3643 26.2352C33.1593 26.2352 25.67 33.7218 25.67 42.9241C25.67 48.4818 28.4041 53.4104 32.5959 56.4451C29.5173 57.5751 26.6439 59.2426 24.0968 61.3996C19.0233 56.5089 15.929 49.66 15.929 42.3402C15.9288 27.768 27.788 15.9126 42.365 15.9126C56.942 15.9126 68.8012 27.768 68.8012 42.3402C68.8014 49.6605 65.7069 56.5094 60.6329 61.4003Z" fill="#447BD4"/>
</svg>
