<svg width="250" height="250" viewBox="0 0 250 250" fill="none" xmlns="http://www.w3.org/2000/svg">
<path d="M151.085 196.054C158.677 183.67 163.059 169.113 163.059 153.551C163.059 137.989 158.677 123.433 151.084 111.048C151.071 111.019 150.798 110.528 150.643 110.341C136.213 87.3324 110.63 72 81.5301 72C52.4297 72 26.8457 87.332 12.416 110.341C12.2613 110.527 11.9887 111.018 11.9758 111.047C4.38281 123.432 0 137.988 0 153.551C0 169.114 4.3832 183.671 11.9758 196.056C11.9887 196.085 12.2605 196.575 12.4156 196.76C26.8449 219.77 52.4285 235.103 81.5297 235.103C110.639 235.103 136.231 219.76 150.657 196.738C150.805 196.557 150.94 196.362 151.047 196.143C151.062 196.113 151.071 196.084 151.085 196.054ZM6.18984 156.612H22.0664C22.3434 166.986 24.0223 177.027 26.9844 186.309C23.2359 187.673 19.5695 189.184 15.9965 190.834C10.1914 180.663 6.6875 169.019 6.18984 156.612ZM15.9969 116.269C19.5699 117.918 23.2359 119.429 26.9844 120.793C24.0223 130.075 22.3438 140.116 22.0668 150.49H6.18984C6.6875 138.084 10.1914 126.439 15.9969 116.269ZM156.87 150.489H140.994C140.717 140.116 139.038 130.075 136.076 120.793C139.825 119.429 143.491 117.919 147.063 116.268C152.868 126.439 156.372 138.084 156.87 150.489ZM134.869 150.489H111.867C111.764 142.62 111.264 134.945 110.394 127.655C117.186 126.448 123.83 124.815 130.266 122.77C132.973 131.295 134.589 140.653 134.869 150.489ZM84.591 228.261V183.08C90.9777 183.2 97.3035 183.696 103.518 184.559C99.8469 208.528 92.2059 224.751 84.591 228.261ZM65.1184 208.047C62.7293 201.178 60.8492 193.222 59.5312 184.561C65.7492 183.697 72.0785 183.201 78.4684 183.08V228.256C73.6918 226.043 68.8711 218.837 65.1184 208.047ZM78.4688 78.8414V124.022C72.0816 123.902 65.7562 123.406 59.541 122.543C63.2121 98.5746 70.8539 82.3516 78.4688 78.8414ZM97.9406 99.0555C100.33 105.925 102.21 113.88 103.528 122.543C97.3102 123.405 90.9809 123.902 84.5906 124.023V78.8473C89.3676 81.0602 94.1883 88.266 97.9406 99.0555ZM78.4688 130.146V150.49H57.3156C57.4187 142.729 57.9117 135.403 58.7176 128.61C65.2051 129.51 71.8066 130.025 78.4688 130.146ZM78.4688 156.612V176.957C71.8055 177.078 65.2031 177.593 58.7145 178.493C57.891 171.515 57.4164 164.164 57.3156 156.613H78.4688V156.612ZM84.591 176.957V156.612H105.743C105.64 164.373 105.147 171.7 104.341 178.493C97.8543 177.593 91.2531 177.078 84.591 176.957ZM84.591 150.489V130.145C91.2543 130.024 97.8563 129.509 104.345 128.609C105.168 135.587 105.643 142.938 105.744 150.489H84.591V150.489ZM109.57 121.584C108.194 112.556 106.227 104.243 103.723 97.0449C101.393 90.3441 98.6719 84.8973 95.6656 80.8113C109.628 86.2344 121.318 99.484 128.215 117C122.175 118.909 115.943 120.442 109.57 121.584ZM67.3938 80.8113C64.3871 84.8969 61.666 90.3438 59.3359 97.0445C56.8328 104.242 54.8652 112.555 53.4887 121.583C47.1172 120.441 40.8848 118.908 34.8453 117C41.7426 99.484 53.432 86.234 67.3938 80.8113ZM52.6656 127.655C51.7957 134.946 51.2957 142.62 51.1926 150.49H28.1914C28.4711 140.653 30.0875 131.295 32.7945 122.771C39.2301 124.815 45.8742 126.449 52.6656 127.655ZM28.1914 156.612H51.1926C51.2957 164.482 51.7957 172.157 52.6656 179.448C45.8738 180.654 39.2297 182.287 32.7945 184.332C30.0875 175.807 28.4711 166.449 28.1914 156.612ZM53.4887 185.519C54.8648 194.547 56.8324 202.86 59.3355 210.057C61.6656 216.758 64.3871 222.205 67.3938 226.291C53.4316 220.868 41.7422 207.619 34.8453 190.103C40.8844 188.194 47.1172 186.661 53.4887 185.519ZM95.6648 226.292C98.6715 222.206 101.393 216.759 103.723 210.058C106.226 202.86 108.194 194.547 109.57 185.519C115.942 186.661 122.175 188.194 128.214 190.103C121.318 207.619 109.628 220.869 95.6648 226.292ZM110.393 179.448C111.263 172.157 111.763 164.482 111.866 156.612H134.868C134.589 166.45 132.972 175.807 130.265 184.332C123.83 182.287 117.185 180.654 110.393 179.448ZM140.993 156.612H156.87C156.371 169.018 152.868 180.663 147.062 190.833C143.49 189.184 139.824 187.673 136.075 186.309C139.038 177.027 140.717 166.986 140.993 156.612ZM143.784 111.037C140.606 112.482 137.351 113.813 134.028 115.023C131.367 108.218 127.984 101.902 123.929 96.2629C121.124 92.3625 118.083 88.9 114.848 85.898C126.514 91.6699 136.482 100.371 143.784 111.037ZM48.2121 85.8973C44.9773 88.8996 41.9359 92.3625 39.1309 96.2625C35.0754 101.902 31.693 108.218 29.0324 115.023C25.709 113.812 22.4539 112.482 19.2754 111.036C26.5785 100.37 36.5461 91.6695 48.2121 85.8973ZM19.275 196.065C22.4535 194.62 25.709 193.29 29.032 192.079C31.6926 198.884 35.0754 205.2 39.1305 210.839C41.9359 214.74 44.9773 218.203 48.2125 221.205C36.5465 215.433 26.5785 206.732 19.275 196.065ZM114.848 221.205C118.083 218.203 121.124 214.739 123.929 210.839C127.984 205.201 131.368 198.884 134.028 192.079C137.351 193.289 140.606 194.62 143.784 196.065C136.482 206.732 126.513 215.433 114.848 221.205Z" fill="#0755A3"/>
<path d="M161.188 155.221C176.436 170.586 176.436 195.497 161.188 210.862C145.94 226.227 121.217 226.227 105.968 210.862C90.7204 195.497 90.7204 170.586 105.967 155.22C121.217 139.856 145.94 139.856 161.188 155.221Z" fill="#E9510F"/>
<path d="M178.972 231.866C178.184 231.866 177.397 231.564 176.799 230.961L156.034 210.036C154.843 208.836 154.851 206.897 156.05 205.706C157.25 204.516 159.189 204.523 160.379 205.723L181.144 226.648C182.335 227.848 182.328 229.786 181.128 230.977C180.531 231.57 179.752 231.866 178.972 231.866Z" fill="#0755A3"/>
<path d="M188.391 230.875C189.195 231.685 189.195 233.009 188.391 233.819L183.973 238.271C183.169 239.08 181.855 239.08 181.052 238.271L167.2 224.314C166.396 223.505 166.396 222.18 167.2 221.37L171.617 216.919C172.421 216.11 173.735 216.11 174.538 216.919L188.391 230.875Z" fill="#E9510F"/>
<path d="M199.397 240.515C200.201 241.324 200.201 242.649 199.397 243.458L193.539 249.363C192.735 250.172 191.421 250.172 190.618 249.363L173.47 232.085C172.667 231.275 172.667 229.951 173.47 229.141L179.33 223.236C180.133 222.427 181.447 222.427 182.25 223.236L199.397 240.515Z" fill="#0755A3"/>
<path d="M161.188 155.221C176.436 170.586 176.436 195.497 161.188 210.862C145.94 226.227 121.217 226.227 105.968 210.862C90.7204 195.497 90.7204 170.586 105.967 155.22C121.217 139.856 145.94 139.856 161.188 155.221Z" fill="#E9510F"/>
<path d="M152.37 201.976C142.009 212.416 125.149 212.416 114.788 201.976C104.426 191.535 104.426 174.548 114.788 164.107C125.149 153.667 142.008 153.667 152.37 164.107C162.73 174.548 162.73 191.535 152.37 201.976Z" fill="white"/>
<path d="M146.397 200.303C145.258 200.303 144.186 199.861 143.378 199.059C142.565 198.253 142.115 197.178 142.111 196.033C142.107 194.888 142.548 193.81 143.355 192.998C146.093 190.24 147.577 186.411 147.427 182.493C147.383 181.349 147.788 180.256 148.565 179.417C149.343 178.577 150.401 178.09 151.545 178.047C151.601 178.045 151.651 178.044 151.7 178.044C154.019 178.044 155.904 179.854 155.992 182.165C156.234 188.448 153.845 194.598 149.439 199.037C148.627 199.854 147.547 200.303 146.397 200.303Z" fill="#F6F6F6"/>
<path d="M182.998 170.267C182.216 170.267 181.434 169.969 180.836 169.373C179.639 168.179 179.636 166.24 180.831 165.044L185.378 160.485C186.572 159.288 188.51 159.286 189.707 160.48C190.904 161.674 190.907 163.612 189.713 164.809L185.165 169.367C184.567 169.967 183.783 170.267 182.998 170.267Z" fill="#E9510F"/>
<path d="M191.928 182.801H186.283C184.592 182.801 183.221 181.431 183.221 179.74C183.221 178.049 184.592 176.679 186.283 176.679H191.928C193.619 176.679 194.99 178.049 194.99 179.74C194.99 181.431 193.619 182.801 191.928 182.801Z" fill="#E9510F"/>
<path d="M187.545 199.894C186.761 199.894 185.976 199.595 185.378 198.995L180.831 194.436C179.636 193.239 179.639 191.301 180.836 190.108C182.034 188.913 183.972 188.916 185.165 190.113L189.713 194.672C190.907 195.869 190.904 197.807 189.707 199.001C189.11 199.596 188.327 199.894 187.545 199.894Z" fill="#E9510F"/>
</svg>
