<svg width="250" height="250" viewBox="0 0 250 250" fill="none" xmlns="http://www.w3.org/2000/svg">
<path d="M142.591 95H56.7317C50.8045 95 46.0628 100.927 46.0628 104.992V148.006C46.0628 152.07 50.8045 155.288 56.7317 155.288H142.422C148.349 155.288 153.091 152.07 153.091 148.006V104.992C153.091 100.927 148.349 95 142.591 95ZM142.422 140.555C142.422 144.619 137.68 147.837 131.753 147.837H67.57C61.6428 147.837 56.9011 144.619 56.9011 140.555V112.104C56.9011 108.04 61.6428 104.822 67.57 104.822H131.753C137.68 104.822 142.422 108.04 142.422 112.104V140.555Z" fill="#E34F1B"/>
<path d="M196.105 128.87H3.72577V249.784H196.105V128.87Z" fill="#0755A3"/>
<path d="M0 127.684V171.715L99.9153 181.367L200 172.392V127.684H0Z" fill="#07437E"/>
<path d="M112.616 170.36H92.2947V192.375H112.616V170.36Z" fill="#F6F6F6"/>
<path d="M106.52 178.997C106.52 181.198 104.826 182.892 102.625 182.892C100.423 182.892 98.7297 181.198 98.7297 178.997C98.7297 176.795 100.423 175.102 102.625 175.102C104.657 175.102 106.52 176.795 106.52 178.997Z" fill="#221F1F"/>
<path d="M104.657 179.335H100.762V186.956H104.657V179.335Z" fill="#221F1F"/>
</svg>
