<svg width="250" height="250" viewBox="0 0 250 250" fill="none" xmlns="http://www.w3.org/2000/svg">
<path d="M179.601 128H21.3992C20.0704 128 19 129.072 19 130.403V247.597C19 248.928 20.0704 250 21.3992 250H179.601C180.929 250 182 248.928 182 247.597V130.403C182 129.072 180.929 128 179.601 128Z" fill="#E34F1B"/>
<path d="M157.641 160H45.3945C44.0683 160 43 161.076 43 162.412V247.588C43 248.924 44.0683 250 45.3945 250H157.641C158.968 250 159.999 248.924 159.999 247.588V162.412C160.036 161.076 158.968 160 157.641 160Z" fill="#07437E"/>
<path d="M199.749 141.174L188.277 117.492C188.018 116.939 187.502 116.496 186.912 116.275L99.6737 86.1383C99.1573 85.9539 98.604 85.9539 98.0876 86.1383L14.5383 116.275C13.985 116.46 13.5424 116.865 13.2473 117.382L0.299841 141.063C-0.105917 141.801 -0.105881 142.686 0.336764 143.424C0.779409 144.162 1.55403 144.604 2.40243 144.604H197.609C198.421 144.604 199.195 144.199 199.638 143.498C200.08 142.797 200.117 141.912 199.749 141.174Z" fill="#074EA3"/>
<rect x="58" y="189" width="87" height="61" rx="4" fill="#E34F1B"/>
<rect x="58" y="209" width="43" height="21" fill="#E77D04"/>
<path d="M101 189H141C143.209 189 145 190.791 145 193V209H101V189Z" fill="#E77D04"/>
<path d="M101 230H145V246C145 248.209 143.209 250 141 250H101V230Z" fill="#E77D04"/>
</svg>
