<svg width="260" height="260" viewBox="0 0 260 260" fill="none" xmlns="http://www.w3.org/2000/svg">
<path d="M89.6831 191.977L68.0532 170.347C63.8221 166.116 63.8221 159.275 68.0532 155.083L71.2167 151.92L108.11 188.813L104.947 191.977C100.716 196.168 93.9142 196.168 89.6831 191.977Z" fill="#424B4E"/>
<path d="M108.189 162.082L103.049 156.941L97.908 151.801C91.8184 145.711 67.2227 121.116 43.1016 153.62C9.09482 199.45 4.15195 218.866 4.15195 218.866L36.3399 196.919L0 259.99L63.0708 223.65L41.1245 255.838C41.1245 255.838 60.54 250.856 106.37 216.888C138.874 192.767 114.279 168.172 108.189 162.082Z" fill="#FF9F00"/>
<path d="M46.7397 202.02C49.0331 198.066 48.3609 193.044 45.1184 189.841C45.0393 189.762 44.9206 189.644 44.8416 189.564C42.1922 187.113 38.4752 186.282 35.1536 187.271C39.7011 180.232 45.3557 171.968 52.4338 162.478C57.693 155.36 63.0708 151.564 68.33 151.168C77.1085 150.536 85.6497 159.077 88.4573 161.884L98.0661 171.493C100.874 174.301 109.415 182.842 108.782 191.621C108.387 196.919 104.591 202.258 97.473 207.517C87.9828 214.595 79.7184 220.25 72.6797 224.797C73.6683 221.476 72.8378 217.758 70.3862 215.109C70.3071 215.03 70.1886 214.911 70.1095 214.832C66.9065 211.629 61.8845 210.918 57.9302 213.211L31.4761 228.475L46.7397 202.02Z" fill="#FFC300"/>
<path d="M156.51 159.79C156.51 159.79 164.459 193.283 153.94 206.332C140.535 222.979 113.053 227.487 81.6165 234.644C109.85 215.387 109.731 188.537 109.731 188.537C119.775 182.606 156.51 159.79 156.51 159.79Z" fill="#295C6F"/>
<path d="M100.241 103.481C100.241 103.481 66.7483 95.5324 53.6991 106.051C37.0516 119.456 32.5438 146.938 25.3866 178.335C44.6439 150.102 71.4934 150.22 71.4934 150.22C77.4248 140.255 100.241 103.481 100.241 103.481Z" fill="#295C6F"/>
<path d="M164.024 159.038C135.75 177.583 109.217 193.045 109.217 193.045L66.9855 150.813C66.9855 150.813 82.4467 124.28 100.992 96.0066C107.161 108.937 115.94 121.512 127.209 132.821C138.518 144.13 151.093 152.909 164.024 159.038Z" fill="#FF6300"/>
<path d="M221.993 115.66C209.617 128.037 186.247 144.526 164.024 159.078C151.093 152.909 138.479 144.13 127.209 132.861C115.9 121.552 107.122 108.977 100.992 96.0464C115.544 73.8234 132.033 50.4536 144.41 38.0767C159.595 22.8922 176.717 14.1137 192.969 9.13135C198.109 20.9942 206.137 32.8175 216.695 43.415C227.292 54.0124 239.155 62.0001 250.978 67.1407C245.996 83.3137 237.178 100.475 221.993 115.66Z" fill="#E6E6E6"/>
<path d="M181.937 108.7C198.84 108.7 212.543 94.997 212.543 78.0937C212.543 61.1904 198.84 47.4875 181.937 47.4875C165.033 47.4875 151.33 61.1904 151.33 78.0937C151.33 94.997 165.033 108.7 181.937 108.7Z" fill="#1DA8B5"/>
<path d="M157.104 102.887C143.422 89.2053 143.422 66.9427 157.104 53.2609C170.785 39.5791 193.048 39.5791 206.73 53.2609C220.412 66.9427 220.412 89.2053 206.73 102.887C193.048 116.569 170.785 116.569 157.104 102.887ZM201.629 58.3619C190.754 47.4876 173.079 47.4876 162.165 58.3619C151.291 69.2362 151.291 86.9118 162.165 97.7861C173.039 108.66 190.715 108.66 201.629 97.7861C212.503 86.9514 212.503 69.2362 201.629 58.3619Z" fill="#E44501"/>
<path d="M255.486 46.9338C259.005 22.8918 255.407 4.62298 255.407 4.62298C255.407 4.62298 237.138 1.02458 213.096 4.54389C206.69 5.45338 199.889 6.91647 192.929 9.09132C198.07 20.9542 206.097 32.7775 216.655 43.3749C227.253 53.9724 239.115 61.9601 250.939 67.1006C253.114 60.1015 254.537 53.3397 255.486 46.9338Z" fill="#FF6300"/>
<path d="M90.8694 177.465C71.1375 197.197 50.9707 209.06 50.9707 209.06C50.9707 209.06 62.8335 188.893 82.5654 169.161C102.297 149.429 118.312 133.414 122.464 137.566C126.616 141.718 110.601 157.733 90.8694 177.465Z" fill="#295C6F"/>
</svg>
