<svg width="250" height="250" viewBox="0 0 250 250" fill="none" xmlns="http://www.w3.org/2000/svg">
<path d="M204.438 123H57.6201V218.473H204.438V123Z" fill="#023B7E"/>
<path d="M131.029 123H0V218.473H131.029V123Z" fill="#004290"/>
<path d="M163.899 218.474H143.517V236.354H163.899V218.474Z" fill="#919191"/>
<path d="M166.544 221.405V218.432H6.19275V221.405H63.5461V225.937H17.1426V228.91H131.029V225.937H67.3806V221.405H166.544Z" fill="#3F3F3F"/>
<path d="M172.942 235.247C172.942 243.142 168.554 249.519 163.14 249.519C157.727 249.519 153.339 243.121 153.339 235.247C153.339 227.353 157.727 220.976 163.14 220.976C168.554 220.976 172.942 227.353 172.942 235.247Z" fill="#3F3F3F"/>
<path d="M163.14 220.954H155.307V249.518H163.14V220.954Z" fill="#3F3F3F"/>
<path d="M165.108 235.245C165.108 243.139 160.72 249.517 155.307 249.517C149.893 249.517 145.505 243.119 145.505 235.245C145.505 227.35 149.893 220.973 155.307 220.973C160.72 220.953 165.108 227.35 165.108 235.245Z" fill="#4D4D4D"/>
<path d="M159.592 235.248C159.592 238.692 157.665 241.481 155.307 241.481C152.949 241.481 151.021 238.692 151.021 235.248C151.021 231.803 152.949 229.014 155.307 229.014C157.685 229.014 159.592 231.803 159.592 235.248Z" fill="#FCC63F"/>
<path d="M224.697 235.247C224.697 243.142 220.309 249.519 214.896 249.519C209.482 249.519 205.094 243.121 205.094 235.247C205.094 227.353 209.482 220.976 214.896 220.976C220.309 220.976 224.697 227.353 224.697 235.247Z" fill="#3F3F3F"/>
<path d="M214.895 220.954H207.062V249.518H214.895V220.954Z" fill="#3F3F3F"/>
<path d="M216.864 235.245C216.864 243.139 212.476 249.517 207.062 249.517C201.649 249.517 197.261 243.119 197.261 235.245C197.261 227.35 201.649 220.973 207.062 220.973C212.476 220.953 216.864 227.35 216.864 235.245Z" fill="#686868"/>
<path d="M211.348 235.248C211.348 238.692 209.42 241.481 207.062 241.481C204.704 241.481 202.776 238.692 202.776 235.248C202.776 231.803 204.704 229.014 207.062 229.014C209.42 229.014 211.348 231.803 211.348 235.248Z" fill="#FCC63F"/>
<path d="M108.596 235.246C108.596 243.141 104.208 249.518 98.7949 249.518C93.3815 249.518 88.9934 243.12 88.9934 235.246C88.9934 227.352 93.3815 220.975 98.7949 220.975C104.208 220.954 108.596 227.352 108.596 235.246Z" fill="#3F3F3F"/>
<path d="M98.7948 220.954H90.9618V249.518H98.7948V220.954Z" fill="#3F3F3F"/>
<path d="M100.763 235.245C100.763 243.139 96.3749 249.517 90.9614 249.517C85.548 249.517 81.1599 243.119 81.1599 235.245C81.1599 227.35 85.548 220.973 90.9614 220.973C96.3749 220.953 100.763 227.35 100.763 235.245Z" fill="#4D4D4D"/>
<path d="M95.247 235.248C95.247 238.692 93.3195 241.481 90.9614 241.481C88.6033 241.481 86.6758 238.692 86.6758 235.248C86.6758 231.803 88.6033 229.014 90.9614 229.014C93.3195 229.014 95.247 231.803 95.247 235.248Z" fill="#FCC63F"/>
<path d="M130.373 235.246C130.373 243.141 125.985 249.518 120.572 249.518C115.158 249.518 110.77 243.12 110.77 235.246C110.77 227.352 115.158 220.975 120.572 220.975C125.985 220.954 130.373 227.352 130.373 235.246Z" fill="#3F3F3F"/>
<path d="M120.571 220.954H112.738V249.518H120.571V220.954Z" fill="#3F3F3F"/>
<path d="M122.54 235.245C122.54 243.139 118.152 249.517 112.738 249.517C107.325 249.517 102.937 243.119 102.937 235.245C102.937 227.35 107.325 220.973 112.738 220.973C118.152 220.953 122.54 227.35 122.54 235.245Z" fill="#4D4D4D"/>
<path d="M117.024 235.248C117.024 238.692 115.096 241.481 112.738 241.481C110.38 241.481 108.452 238.692 108.452 235.248C108.452 231.803 110.38 229.014 112.738 229.014C115.096 229.014 117.024 231.803 117.024 235.248Z" fill="#FCC63F"/>
<path d="M34.7773 235.246C34.7773 243.141 30.3891 249.518 24.9757 249.518C19.5623 249.518 15.1742 243.12 15.1742 235.246C15.1742 227.352 19.5623 220.975 24.9757 220.975C30.3891 220.954 34.7773 227.352 34.7773 235.246Z" fill="#3F3F3F"/>
<path d="M24.9755 220.954H17.1425V249.518H24.9755V220.954Z" fill="#3F3F3F"/>
<path d="M26.9443 235.245C26.9443 243.139 22.5561 249.517 17.1427 249.517C11.7293 249.517 7.34119 243.119 7.34119 235.245C7.34119 227.35 11.7293 220.973 17.1427 220.973C22.5561 220.953 26.9443 227.35 26.9443 235.245Z" fill="#4D4D4D"/>
<path d="M21.4279 235.248C21.4279 238.692 19.5004 241.481 17.1423 241.481C14.7842 241.481 12.8567 238.692 12.8567 235.248C12.8567 231.803 14.7842 229.014 17.1423 229.014C19.5004 229.014 21.4279 231.803 21.4279 235.248Z" fill="#FCC63F"/>
<path d="M56.5535 235.246C56.5535 243.141 52.1654 249.518 46.752 249.518C41.3386 249.518 36.9504 243.12 36.9504 235.246C36.9504 227.352 41.3386 220.975 46.752 220.975C52.1654 220.954 56.5535 227.352 56.5535 235.246Z" fill="#3F3F3F"/>
<path d="M46.7522 220.954H38.9192V249.518H46.7522V220.954Z" fill="#3F3F3F"/>
<path d="M48.7205 235.245C48.7205 243.139 44.3324 249.517 38.919 249.517C33.5056 249.517 29.1174 243.119 29.1174 235.245C29.1174 227.35 33.5056 220.973 38.919 220.973C44.3324 220.953 48.7205 227.35 48.7205 235.245Z" fill="#4D4D4D"/>
<path d="M43.2045 235.248C43.2045 238.692 41.277 241.481 38.9189 241.481C36.5608 241.481 34.6333 238.692 34.6333 235.248C34.6333 231.803 36.5608 229.014 38.9189 229.014C41.277 229.014 43.2045 231.803 43.2045 235.248Z" fill="#FCC63F"/>
<path d="M172.265 164.563V146.129C172.265 145.637 172.675 145.247 173.147 145.247H174.152C174.644 145.247 175.033 145.657 175.033 146.129V164.563C175.033 165.055 174.623 165.445 174.152 165.445H173.147C172.675 165.445 172.265 165.055 172.265 164.563Z" fill="#F15317"/>
<path d="M221.416 155.07V146.109C221.416 145.617 221.006 145.228 220.535 145.228H219.53C219.038 145.228 218.648 145.638 218.648 146.109V155.07H221.416Z" fill="#F15317"/>
<path d="M220.043 147.443H173.66C172.901 147.443 172.265 146.827 172.265 146.048C172.265 145.289 172.88 144.654 173.66 144.654H220.043C220.801 144.654 221.437 145.269 221.437 146.048C221.417 146.827 220.801 147.443 220.043 147.443Z" fill="#F15317"/>
<path d="M217.52 146.048C217.52 148.467 216.105 150.415 214.834 150.415C212.004 150.415 208.436 148.467 208.436 146.048C208.436 143.628 212.004 141.68 214.834 141.68C216.044 141.68 217.52 143.648 217.52 146.048Z" fill="#B7B7B7"/>
<path d="M218.689 146.048C218.689 148.467 216.967 150.415 214.834 150.415C212.702 150.415 210.979 148.467 210.979 146.048C210.979 143.628 212.702 141.68 214.834 141.68C216.967 141.68 218.689 143.648 218.689 146.048Z" fill="#808080"/>
<path d="M215.163 148.714C216.363 148.714 217.336 147.52 217.336 146.048C217.336 144.576 216.363 143.382 215.163 143.382C213.962 143.382 212.989 144.576 212.989 146.048C212.989 147.52 213.962 148.714 215.163 148.714Z" fill="#FCC63F"/>
<path d="M208.129 146.048C208.129 148.467 206.714 150.415 205.443 150.415C202.613 150.415 199.045 148.467 199.045 146.048C199.045 143.628 202.613 141.68 205.443 141.68C206.653 141.68 208.129 143.648 208.129 146.048Z" fill="#B7B7B7"/>
<path d="M209.298 146.048C209.298 148.467 207.576 150.415 205.443 150.415C203.31 150.415 201.588 148.467 201.588 146.048C201.588 143.628 203.31 141.68 205.443 141.68C207.576 141.68 209.298 143.648 209.298 146.048Z" fill="#808080"/>
<path d="M205.771 148.714C206.971 148.714 207.944 147.52 207.944 146.048C207.944 144.576 206.971 143.382 205.771 143.382C204.57 143.382 203.597 144.576 203.597 146.048C203.597 147.52 204.57 148.714 205.771 148.714Z" fill="#FCC63F"/>
<path d="M198.758 146.048C198.758 148.467 197.343 150.415 196.072 150.415C193.242 150.415 189.674 148.467 189.674 146.048C189.674 143.628 193.242 141.68 196.072 141.68C197.282 141.68 198.758 143.648 198.758 146.048Z" fill="#B7B7B7"/>
<path d="M196.072 150.415C198.201 150.415 199.927 148.46 199.927 146.048C199.927 143.635 198.201 141.68 196.072 141.68C193.943 141.68 192.217 143.635 192.217 146.048C192.217 148.46 193.943 150.415 196.072 150.415Z" fill="#808080"/>
<path d="M198.574 146.048C198.574 147.524 197.589 148.714 196.4 148.714C195.19 148.714 194.227 147.524 194.227 146.048C194.227 144.572 195.211 143.382 196.4 143.382C197.589 143.403 198.574 144.592 198.574 146.048Z" fill="#FCC63F"/>
<path d="M189.326 146.048C189.326 148.467 187.911 150.415 186.639 150.415C183.81 150.415 180.242 148.467 180.242 146.048C180.242 143.628 183.81 141.68 186.639 141.68C187.849 141.68 189.326 143.648 189.326 146.048Z" fill="#B7B7B7"/>
<path d="M190.494 146.048C190.494 148.467 188.772 150.415 186.639 150.415C184.507 150.415 182.784 148.467 182.784 146.048C182.784 143.628 184.507 141.68 186.639 141.68C188.772 141.68 190.494 143.648 190.494 146.048Z" fill="#808080"/>
<path d="M189.141 146.048C189.141 147.524 188.156 148.714 186.967 148.714C185.757 148.714 184.794 147.524 184.794 146.048C184.794 144.572 185.778 143.382 186.967 143.382C188.177 143.403 189.141 144.592 189.141 146.048Z" fill="#FCC63F"/>
<path d="M143.517 221.406H122.334C122.334 221.406 122.334 227.024 122.334 228.89C122.334 230.387 123.688 231.228 124.139 231.351C128.978 232.602 143.517 236.375 143.517 236.375V221.406Z" fill="#B7B7B7"/>
<path d="M143.578 164.011C143.578 177.627 143.578 218.494 143.578 218.494H157.563C165.663 218.678 167.693 226.963 168.246 233.073C168.431 235.001 168.861 237.666 168.861 240.004C168.861 242.177 169.948 243.121 172.368 243.121C184.261 243.121 218.464 243.121 218.464 243.121V152.159C218.464 152.159 167.18 152.159 150.079 152.159C144.624 152.159 143.578 158.536 143.578 164.011Z" fill="#004290"/>
<path d="M205.279 152.159C205.279 152.159 219.468 152.159 226.317 152.159C230.808 152.159 233.31 155.132 234.642 159.295C236.18 164.052 236.837 170.368 237.062 175.494C237.349 182.117 237.513 233.791 237.513 233.791C237.513 233.791 237.513 243.121 226.133 243.121C214.752 243.121 182.374 243.121 179.627 243.121C176.858 243.121 174.152 241.07 174.152 235.247C174.152 233.278 174.131 229.464 174.152 221.877C174.193 206.99 174.295 183.942 174.152 176.212C174.049 171.065 172.901 152.159 179.627 152.159C186.352 152.159 205.279 152.159 205.279 152.159Z" fill="#023B7E"/>
<path d="M232.305 175.473H179.606V197.618H232.305V175.473Z" fill="#B7B7B7"/>
<path d="M174.131 221.877V239.819C174.131 241.644 175.607 243.12 177.432 243.12H233.966C235.914 243.12 237.493 241.541 237.493 239.593V222.041C237.493 222 237.472 221.959 237.472 221.897H174.131V221.877Z" fill="#4D4D4D"/>
<path d="M184.773 227.824H179.278V237.174H184.773V227.824Z" fill="#FCC63F"/>
<path d="M234.253 227.824H228.757V237.174H234.253V227.824Z" fill="#FCC63F"/>
<path d="M231.157 218.043H182.293C181.247 218.043 180.386 217.182 180.386 216.136V208.303C180.386 207.257 181.247 206.396 182.293 206.396H231.157C232.203 206.396 233.064 207.257 233.064 208.303V216.136C233.064 217.182 232.203 218.043 231.157 218.043Z" fill="#4D4D4D"/>
<path d="M207.719 214.576C211.32 214.576 214.24 213.511 214.24 212.198C214.24 210.884 211.32 209.819 207.719 209.819C204.118 209.819 201.198 210.884 201.198 212.198C201.198 213.511 204.118 214.576 207.719 214.576Z" fill="white"/>
<path d="M131.029 197.639H0V203.175H131.029V197.639Z" fill="#77A7FB"/>
<path d="M242.229 174.325H235.667V175.781H242.229C244.239 175.781 245.879 177.421 245.879 179.431V193.272C245.879 195.281 244.239 196.922 242.229 196.922H235.667V198.377H242.229C245.038 198.377 247.335 196.081 247.335 193.272V179.431C247.315 176.621 245.038 174.325 242.229 174.325Z" fill="#023B7E"/>
<path d="M235.791 170.736C220.391 170.736 172.963 170.736 172.963 170.736V179.368H239.81C239.81 179.368 239.4 175.001 239.01 173.565C238.826 172.848 237.965 170.736 235.791 170.736Z" fill="#F15317"/>
<path d="M168.451 179.369H155.307V197.64H168.451V179.369Z" fill="#B7B7B7"/>
<path d="M165.088 193.272V179.431C165.088 177.421 166.728 175.781 168.738 175.781H172.511V174.325H168.738C165.929 174.325 163.632 176.621 163.632 179.431V193.272C163.632 196.081 165.929 198.377 168.738 198.377H175.3V196.922H168.738C166.728 196.901 165.088 195.281 165.088 193.272Z" fill="#023B7E"/>
<path d="M169.948 179.368H174.008V170.736C174.008 170.736 171.691 170.736 170.911 170.736C170.235 170.736 169.948 172.212 169.948 172.704C169.948 174.365 169.948 179.368 169.948 179.368Z" fill="#D94912"/>
<path d="M165.293 190.791H160.987C159.839 190.791 158.916 189.848 158.916 188.72V178.898C158.916 177.749 159.859 176.827 160.987 176.827H165.293C166.441 176.827 167.364 177.77 167.364 178.898V188.72C167.364 189.848 166.441 190.791 165.293 190.791Z" fill="#023B7E"/>
<path d="M247.868 190.791H243.562C242.414 190.791 241.491 189.848 241.491 188.72V178.898C241.491 177.749 242.434 176.827 243.562 176.827H247.868C249.017 176.827 249.939 177.77 249.939 178.898V188.72C249.939 189.848 249.017 190.791 247.868 190.791Z" fill="#023B7E"/>
<path d="M223.692 227.435H190.494V229.013H223.692V227.435Z" fill="#3F3F3F"/>
<path d="M223.692 231.35H190.494V232.929H223.692V231.35Z" fill="#3F3F3F"/>
<path d="M223.692 235.574H190.494V237.153H223.692V235.574Z" fill="#3F3F3F"/>
<path d="M0 170.737L58.4607 155.071L50.7917 178.222L131.029 155.338V166.185L40.1699 188.495L50.238 164.011L0 179.37V170.737Z" fill="#F15317"/>
<path d="M0 155.07L79.6221 133.724L71.9326 156.854L131.029 138.318V147.114L61.3109 167.148L70.3332 142.972L0 162.37V155.07Z" fill="#F15317"/>
</svg>
