<svg width="250" height="250" viewBox="0 0 250 250" fill="none" xmlns="http://www.w3.org/2000/svg">
<g clip-path="url(#clip0)">
<path d="M152.995 145.022H149.233L149.677 158.697H151.722L155.174 157.521L152.995 153.123V145.022Z" fill="#1F201F"/>
<path d="M160.942 145.022V153.124L160.17 158.698H162.215L164.684 153.741V145.022H160.942Z" fill="#1F201F"/>
<path d="M170.45 139.814H150.255V143.344H170.45V139.814Z" fill="#002A68"/>
<path d="M172.206 142.534H148.5V147.511H172.206V142.534Z" fill="#023B7E"/>
<path d="M163.95 127.047H153.207V140.683H163.95V127.047Z" fill="#1F201F"/>
<path d="M157.932 127.047H147.189V140.683H157.932V127.047Z" fill="#2E2F2E"/>
<path d="M70.5565 91.479H47.7192V164.89H70.5565V91.479Z" fill="#C2C2C2"/>
<path d="M174.732 79.481H20.3685V102.087H174.732V79.481Z" fill="#002A68"/>
<path d="M200 193.909H34.5454V211.182H200V193.909Z" fill="#023B7E"/>
<path d="M85.1192 106.312H47.7192V178.083H85.1192V106.312Z" fill="#023B7E"/>
<path d="M96.1133 171.949H42.5112V178.526H96.1133V171.949Z" fill="#002A68"/>
<path d="M84.5403 190.582H37.3998V193.591H84.5403V190.582Z" fill="#070807"/>
<path d="M81.4735 187.573H40.4474V190.582H81.4735V187.573Z" fill="#1F201F"/>
<path d="M84.5403 184.563H37.3998V187.572H84.5403V184.563Z" fill="#070807"/>
<path d="M84.5403 178.527H37.3998V181.536H84.5403V178.527Z" fill="#070807"/>
<path d="M81.4735 181.535H40.4474V184.544H81.4735V181.535Z" fill="#1F201F"/>
<path d="M59.1381 91.479H36.3008V164.89H59.1381V91.479Z" fill="#F2F2F2"/>
<path d="M71.2702 190.582H24.1489V193.591H71.2702V190.582Z" fill="#2E2F2E"/>
<path d="M68.2228 187.573H27.1967V190.582H68.2228V187.573Z" fill="#464746"/>
<path d="M71.2702 184.563H24.1489V187.572H71.2702V184.563Z" fill="#2E2F2E"/>
<path d="M71.2702 178.527H24.1489V181.536H71.2702V178.527Z" fill="#2E2F2E"/>
<path d="M68.2228 181.535H27.1967V184.544H68.2228V181.535Z" fill="#464746"/>
<path d="M65.0405 106.312H27.6212V178.083H65.0405V106.312Z" fill="#004290"/>
<path d="M58.947 113.447H33.3129V116.668H58.947V113.447Z" fill="#023B7E"/>
<path d="M58.9447 119.888H33.3105V123.109H58.9447V119.888Z" fill="#023B7E"/>
<path d="M58.9447 126.35H33.3105V129.571H58.9447V126.35Z" fill="#023B7E"/>
<path d="M58.9447 132.811H33.3105V136.032H58.9447V132.811Z" fill="#023B7E"/>
<path d="M160.131 80.0208H5.76746V102.627H160.131V80.0208Z" fill="#023B7E"/>
<path d="M155.174 82.8176H8.25549V86.9646H155.174V82.8176Z" fill="#004290"/>
<path d="M169.197 101.894H144.083V131.405H169.197V101.894Z" fill="#C2C2C2"/>
<path d="M165.455 193.909H0V211.182H165.455V193.909Z" fill="#004290"/>
<path d="M163.97 139.814H143.775V143.344H163.97V139.814Z" fill="#023B7E"/>
<path d="M150.95 145.022H147.189V153.74L149.677 158.697L153.129 157.521L150.95 153.123V145.022Z" fill="#2E2F2E"/>
<path d="M158.896 145.022V153.124L156.698 157.521L160.169 158.698L162.638 153.741V145.022H158.896Z" fill="#2E2F2E"/>
<path d="M165.725 142.534H142.02V147.511H165.725V142.534Z" fill="#004290"/>
<path d="M74.5109 171.949H18.0156V178.526H74.5109V171.949Z" fill="#023B7E"/>
<path d="M157.952 101.894H139.068V131.405H157.952V101.894Z" fill="#F2F2F2"/>
<path d="M189.353 177.292H152.706V189.501H189.353V177.292Z" fill="#1F201F"/>
<path d="M191.822 177.292H155.175V189.501H191.822V177.292Z" fill="#1F201F"/>
<path d="M196.047 189.501H146.032V193.591H196.047V189.501Z" fill="#C2C2C2"/>
<path d="M181.889 189.501H131.874V193.591H181.889V189.501Z" fill="#F2F2F2"/>
<path d="M196.047 173.203H146.032V177.292H196.047V173.203Z" fill="#C2C2C2"/>
<path d="M181.889 173.204H131.875V177.293H181.889V173.204Z" fill="#F2F2F2"/>
<path d="M173.498 177.292H136.851V189.501H173.498V177.292Z" fill="#2E2F2E"/>
<rect x="27.2727" y="211.182" width="145.455" height="39.0909" fill="#004290"/>
<rect x="27.2727" y="211.182" width="145.455" height="3.63636" fill="#002A68"/>
<path d="M49.166 73H24.8821V79.4809H49.166V73Z" fill="#002A68"/>
<path d="M36.1461 73H11.8622V79.4809H36.1461V73Z" fill="#004290"/>
<path d="M111.889 193.636L102.395 184.697L125.504 160.232L134.97 169.17L111.889 193.636Z" fill="#F15317"/>
<path d="M127.369 162.165L125.504 160.232L102.395 184.697L104.376 186.55L127.369 162.165Z" fill="#D94912"/>
<path d="M77.0065 240.712C74.7723 243.072 71.0521 243.176 68.6926 240.942L57.6797 230.562C55.3202 228.328 55.2162 224.608 57.4504 222.248L100.936 176.164C103.17 173.805 106.89 173.701 109.25 175.935L120.263 186.315C122.622 188.549 122.726 192.269 120.492 194.628L77.0065 240.712Z" fill="#2E2F2E"/>
<path d="M59.3164 224.153L102.802 178.069C105.036 175.709 108.756 175.605 111.116 177.839L121.016 187.189C120.804 186.871 120.534 186.578 120.236 186.285L109.223 175.905C106.863 173.671 103.143 173.775 100.909 176.135L57.4234 222.219C55.1892 224.578 55.2932 228.298 57.6527 230.533L58.7645 231.591C57.1931 229.36 57.3464 226.241 59.3164 224.153Z" fill="#1F201F"/>
<path opacity="0.3" d="M184.498 107.225C167.355 91.0539 140.355 91.8282 124.155 108.97C107.984 126.112 108.758 153.113 125.9 169.312C143.042 185.483 170.043 184.709 186.242 167.568C202.414 150.397 201.64 123.397 184.498 107.225Z" fill="white"/>
<path d="M184.498 107.225C167.355 91.0539 140.355 91.8282 124.155 108.97C107.984 126.112 108.758 153.113 125.9 169.312C143.042 185.483 170.043 184.709 186.242 167.568C202.414 150.397 201.64 123.397 184.498 107.225ZM133.692 161.039C121.106 149.16 120.551 129.319 132.429 116.762C144.307 104.176 164.12 103.62 176.705 115.499C189.291 127.377 189.847 147.19 177.969 159.775C166.091 172.333 146.279 172.889 133.692 161.039Z" fill="#F15317"/>
<path d="M126.048 110.904C142.189 93.8161 169.107 92.9822 186.254 109.041C185.688 108.427 185.121 107.813 184.498 107.225C167.355 91.0539 140.355 91.8282 124.155 108.97C107.984 126.112 108.758 153.113 125.9 169.312C125.955 169.342 125.981 169.4 126.036 169.43C110.674 153.077 110.465 127.422 126.048 110.904Z" fill="#D94912"/>
</g>
<defs>
<clipPath id="clip0">
<rect width="250" height="250" fill="white"/>
</clipPath>
</defs>
</svg>
