<svg width="250" height="250" viewBox="0 0 250 250" fill="none" xmlns="http://www.w3.org/2000/svg">
<g clip-path="url(#clip0)">
<g opacity="0.67">
<path opacity="0.67" d="M31.6438 82.9702H22.2389V194.368H31.6438V82.9702Z" fill="#515474"/>
<path opacity="0.67" d="M35.8834 89.959H34.205V193.167H35.8834V89.959Z" fill="#515474"/>
<path opacity="0.67" d="M19.9528 89.959H18.2744V193.167H19.9528V89.959Z" fill="#515474"/>
<path opacity="0.67" d="M35.0443 95.052H19.1138V95.8623H35.0443V95.052Z" fill="#515474"/>
<path opacity="0.67" d="M35.0443 104.182H19.1138V104.993H35.0443V104.182Z" fill="#515474"/>
<path opacity="0.67" d="M35.0443 113.312H19.1138V114.123H35.0443V113.312Z" fill="#515474"/>
<path opacity="0.67" d="M35.0443 122.457H19.1138V123.267H35.0443V122.457Z" fill="#515474"/>
<path opacity="0.67" d="M35.0443 131.587H19.1138V132.397H35.0443V131.587Z" fill="#515474"/>
<path opacity="0.67" d="M35.0443 140.717H19.1138V141.527H35.0443V140.717Z" fill="#515474"/>
<path opacity="0.67" d="M35.0443 149.847H19.1138V150.657H35.0443V149.847Z" fill="#515474"/>
<path opacity="0.67" d="M35.0443 158.991H19.1138V159.802H35.0443V158.991Z" fill="#515474"/>
<path opacity="0.67" d="M35.0443 168.121H19.1138V168.932H35.0443V168.121Z" fill="#515474"/>
<path opacity="0.67" d="M35.0443 177.252H19.1138V178.062H35.0443V177.252Z" fill="#515474"/>
</g>
<g opacity="0.67">
<path opacity="0.67" d="M87.0032 82.9702H77.5983V194.368H87.0032V82.9702Z" fill="#515474"/>
<path opacity="0.67" d="M91.2424 89.959H89.564V193.167H91.2424V89.959Z" fill="#515474"/>
<path opacity="0.67" d="M75.312 89.959H73.6335V193.167H75.312V89.959Z" fill="#515474"/>
<path opacity="0.67" d="M90.389 95.052H74.4585V95.8623H90.389V95.052Z" fill="#515474"/>
<path opacity="0.67" d="M90.389 104.182H74.4585V104.993H90.389V104.182Z" fill="#515474"/>
<path opacity="0.67" d="M90.389 113.312H74.4585V114.123H90.389V113.312Z" fill="#515474"/>
<path opacity="0.67" d="M90.389 122.457H74.4585V123.267H90.389V122.457Z" fill="#515474"/>
<path opacity="0.67" d="M90.389 131.587H74.4585V132.397H90.389V131.587Z" fill="#515474"/>
<path opacity="0.67" d="M90.389 140.717H74.4585V141.527H90.389V140.717Z" fill="#515474"/>
<path opacity="0.67" d="M90.389 149.847H74.4585V150.657H90.389V149.847Z" fill="#515474"/>
<path opacity="0.67" d="M90.389 158.991H74.4585V159.802H90.389V158.991Z" fill="#515474"/>
<path opacity="0.67" d="M90.389 168.121H74.4585V168.932H90.389V168.121Z" fill="#515474"/>
<path opacity="0.67" d="M90.389 177.252H74.4585V178.062H90.389V177.252Z" fill="#515474"/>
</g>
<path d="M94.3967 145.188H70.4791V196.553H94.3967V145.188Z" fill="#023B7E"/>
<path d="M39.0376 145.188H15.1201V196.553H39.0376V145.188Z" fill="#023B7E"/>
<path d="M55.8365 250.465H0V176.18L55.8365 200.619V250.465Z" fill="#004290"/>
<path d="M35.2468 232.726H20.5751V250.465H35.2468V232.726Z" fill="#515474"/>
<path d="M15.1204 203.382H4.4856V214.263H15.1204V203.382Z" fill="#A2C7D0"/>
<path d="M27.0719 203.382H16.4515V214.263H27.0719V203.382Z" fill="#A2C7D0"/>
<path d="M39.0232 203.382H28.4028V214.263H39.0232V203.382Z" fill="#A2C7D0"/>
<path d="M50.9746 203.382H40.3542V214.263H50.9746V203.382Z" fill="#A2C7D0"/>
<path d="M15.1204 215.566H4.4856V226.446H15.1204V215.566Z" fill="#A2C7D0"/>
<path d="M27.0719 215.566H16.4515V226.446H27.0719V215.566Z" fill="#A2C7D0"/>
<path d="M39.0232 215.566H28.4028V226.446H39.0232V215.566Z" fill="#A2C7D0"/>
<path d="M50.9746 215.566H40.3542V226.446H50.9746V215.566Z" fill="#A2C7D0"/>
<path d="M111.673 250.465H55.8364V176.18L111.673 200.619V250.465Z" fill="#004290"/>
<path d="M91.098 232.726H76.4263V250.465H91.098V232.726Z" fill="#515474"/>
<path d="M70.9713 203.382H60.3364V214.263H70.9713V203.382Z" fill="#A2C7D0"/>
<path d="M82.9082 203.382H72.2878V214.263H82.9082V203.382Z" fill="#A2C7D0"/>
<path d="M94.8599 203.382H84.2395V214.263H94.8599V203.382Z" fill="#A2C7D0"/>
<path d="M106.826 203.382H96.2053V214.263H106.826V203.382Z" fill="#A2C7D0"/>
<path d="M70.9713 215.566H60.3364V226.446H70.9713V215.566Z" fill="#A2C7D0"/>
<path d="M82.9082 215.566H72.2878V226.446H82.9082V215.566Z" fill="#A2C7D0"/>
<path d="M94.8599 215.566H84.2395V226.446H94.8599V215.566Z" fill="#A2C7D0"/>
<path d="M106.826 215.566H96.2053V226.446H106.826V215.566Z" fill="#A2C7D0"/>
<path opacity="0.41" d="M106.826 203.382H96.2053V214.263H106.826V203.382Z" fill="white"/>
<path opacity="0.41" d="M106.826 215.566H96.2053V226.446H106.826V215.566Z" fill="white"/>
<path d="M177.725 210.139L172.183 230.063H143.433L137.978 210.139L143.433 194.368H172.169L177.725 210.139Z" fill="#F15317"/>
<path d="M161.519 228.602H152.78V233.956H161.519V228.602Z" fill="#B3B3B3"/>
<path d="M147.007 200.43H144.938V249.235H147.007V200.43Z" fill="#515474"/>
<path d="M170.389 200.43H168.32V249.235H170.389V200.43Z" fill="#515474"/>
<path d="M176.379 201.342C176.379 201.848 175.974 202.254 175.467 202.254H140.235C139.729 202.254 139.323 201.848 139.323 201.342C139.323 200.836 139.729 200.43 140.235 200.43H175.467C175.974 200.43 176.379 200.836 176.379 201.342Z" fill="#515474"/>
<path d="M176.379 220.109C176.379 220.615 175.974 221.02 175.467 221.02H140.235C139.729 221.02 139.323 220.615 139.323 220.109C139.323 219.603 139.729 219.197 140.235 219.197H175.467C175.974 219.183 176.379 219.603 176.379 220.109Z" fill="#515474"/>
<path d="M191.239 165.054V170.798H179.562C168.754 170.885 160 179.682 160 190.505V194.368H154.256V190.505C154.256 176.528 165.6 165.141 179.562 165.054H191.239Z" fill="#F2F2F2"/>
<path d="M232.389 163.086H191.239V249.221H232.389V163.086Z" fill="#004290"/>
<path d="M240 165.343V240.394H237.743V224.044H232.389V222.539H237.743V207.795H232.389V206.291H237.743V191.547H232.389V190.042H237.743V175.298H232.389V173.793H237.743V165.343C237.743 162.275 235.254 159.787 232.201 159.787C229.944 159.787 228.005 161.147 227.151 163.086H224.75C225.704 159.874 228.685 157.53 232.201 157.53C236.498 157.53 240 161.046 240 165.343Z" fill="#515474"/>
<path d="M137.052 250.465H131.524C131.452 240.076 122.988 231.655 112.57 231.655H108.866V226.128H112.57C126.012 226.128 136.965 237.038 137.052 250.465Z" fill="#004290"/>
<path d="M176.379 244.779H137.978V250.465H176.379V244.779Z" fill="#B3B3B3"/>
<path d="M234.415 244.779H189.228V250.465H234.415V244.779Z" fill="#B3B3B3"/>
<path opacity="0.52" d="M91.0835 232.726V250.465H86.9453V236.864H76.4263V232.726H91.0835Z" fill="#809C94"/>
<path opacity="0.3" d="M70.3781 54.6255C68.6997 54.6255 67.2672 55.0306 66.0952 55.6962C65.8348 55.1753 65.5165 54.6978 65.1692 54.2204C66.891 50.7912 65.256 45.5823 60.2497 45.5823C57.0954 45.5823 55.3012 47.6514 54.8093 50.0388C49.9766 50.5741 46.9381 53.685 45.7082 57.4904C44.5362 56.8248 43.1182 56.4341 41.4398 56.4341C36.0862 56.4341 33.2936 60.3987 33.0621 64.5513C32.3531 64.233 31.5284 64.0304 30.5879 64.0304C25.3356 64.0304 23.8019 69.7458 25.9288 73.146C22.8903 73.7971 23.1074 78.8613 26.6089 78.8613C28.678 78.8613 29.604 77.0672 29.3725 75.49C29.7487 75.5624 30.1538 75.6058 30.5879 75.6058C33.4528 75.6058 35.2036 73.9129 35.8692 71.8149C37.2293 73.0303 39.0813 73.7971 41.4398 73.7971C44.7822 73.7971 47.1117 72.2489 48.4573 70.0786C50.3094 71.9017 52.8993 73.0737 56.2707 73.0737C59.8735 73.0737 62.5937 71.7136 64.4602 69.6734C65.8492 71.0769 67.817 71.9885 70.3781 71.9885C81.5627 71.9885 81.5627 54.6255 70.3781 54.6255Z" fill="#809C94"/>
<path opacity="0.45" d="M154.66 56.4337C152.823 56.4337 151.217 56.781 149.828 57.4031C147.947 52.5994 143.664 48.8374 136.936 48.8374C132.523 48.8374 129.166 50.4579 126.851 52.9322C126.475 51.8904 125.983 50.9065 125.418 49.966C126.865 48.6638 126.619 45.8423 124.651 45.0754C125.303 41.8199 123.508 38 119.211 38C116.042 38 114.219 40.098 113.756 42.4999C112.96 42.3986 112.121 42.3407 111.253 42.3407C103.989 42.3407 99.0989 46.0014 96.5523 50.9354C95.7276 50.7618 94.845 50.6605 93.89 50.6605C83.9063 50.6605 80.6073 61.0204 83.9786 67.8788C78.162 69.4125 78.6829 79.2371 85.5702 79.2371C89.2743 79.2371 91.1264 76.3867 91.1698 73.5218C92.009 73.7099 92.9206 73.8112 93.89 73.8112C96.0604 73.8112 97.9124 73.3047 99.4462 72.4655C102.224 75.2436 106.145 77.0667 111.253 77.0667C112.338 77.0667 113.337 76.9654 114.306 76.8063C115.955 80.2499 119.269 82.8544 124.275 82.8544C128.949 82.8544 132.146 80.5972 133.897 77.4718C134.852 77.6599 135.851 77.7902 136.936 77.7902C140.481 77.7902 143.346 76.7339 145.545 75.041C147.382 77.7178 150.407 79.5988 154.66 79.5988C169.578 79.5843 169.578 56.4337 154.66 56.4337Z" fill="#809C94"/>
<path opacity="0.45" d="M170.577 51.7314C163.111 51.7314 163.111 63.3068 170.577 63.3068C178.029 63.3068 178.029 51.7314 170.577 51.7314Z" fill="#809C94"/>
<path opacity="0.45" d="M193.004 54.6252C189.69 54.6252 187.867 56.8969 187.491 59.429C187.057 59.3711 186.609 59.3277 186.131 59.3277C174.932 59.3277 174.932 76.6907 186.131 76.6907C192.57 76.6907 195.304 70.9465 194.335 66.0703C200.427 64.7826 199.992 54.6252 193.004 54.6252Z" fill="#809C94"/>
<path opacity="0.45" d="M205.665 60.4131C201.931 60.4131 201.931 66.2007 205.665 66.2007C209.383 66.2007 209.383 60.4131 205.665 60.4131Z" fill="#809C94"/>
</g>
<defs>
<clipPath id="clip0">
<rect width="250" height="250" fill="white"/>
</clipPath>
</defs>
</svg>
