<svg width="120" height="38" viewBox="0 0 120 38" fill="none" xmlns="http://www.w3.org/2000/svg">
<path d="M42.8438 18.3569C42.8438 11.0174 48.6047 5.25061 56.425 5.25061C60.854 5.25061 63.9919 6.61857 66.6558 8.92036L62.5537 13.8516C60.7559 12.3362 58.95 11.4761 56.4658 11.4761C52.8294 11.4761 50.0184 14.5315 50.0184 18.4552C50.0184 22.5263 52.8621 25.4425 56.858 25.4425C58.5496 25.4425 59.8489 25.082 60.8948 24.4021V21.3386H55.9265V16.2271H67.522V27.564C64.858 29.7593 61.1481 31.455 56.572 31.455C48.711 31.455 42.8438 26.0568 42.8438 18.3569Z" fill="white"/>
<path d="M71.0518 26.0728L80.49 18.7251C82.8679 16.8903 83.7341 15.637 83.7341 14.097C83.7341 12.4833 82.6146 11.4921 80.9231 11.4921C79.2315 11.4921 77.8996 12.4833 75.9139 14.8015L71.1988 10.7959C73.9036 7.23258 76.5676 5.28302 81.4624 5.28302C86.97 5.28302 90.7535 8.62512 90.7535 13.5482C90.7535 17.6603 88.7024 19.831 84.919 22.5505L80.5962 25.6387H91.0068V31.4382H71.0518V26.0728Z" fill="white"/>
<path d="M94.5781 5.27512H106.5C110.357 5.27512 113.021 6.32362 114.713 8.07658C116.192 9.60838 116.944 11.6235 116.944 14.2775C116.944 18.2749 114.893 20.9289 111.755 22.3133L117.769 31.4303H109.704L104.629 23.5092H101.565V31.4303H94.5781V5.27512ZM106.174 17.8326C108.552 17.8326 109.916 16.6366 109.916 14.6543C109.916 12.5982 108.478 11.5497 106.133 11.5497H101.557V17.8244H106.174V17.8326Z" fill="white"/>
<path fill-rule="evenodd" clip-rule="evenodd" d="M30.8969 5.88925C30.57 5.66808 30.235 5.47968 29.8754 5.32404C28.6497 4.77522 27.2768 4.61958 25.9449 4.98819C25.1849 5.20117 24.4086 5.61074 23.6241 6.06946C17.0378 9.96039 9.69973 21.7642 5.85091 26.8757C5.58942 27.2279 5.3361 27.5392 5.10729 27.8259C4.7886 28.2191 4.57614 28.4402 4.2411 28.5959C3.73447 28.8252 3.09708 28.7925 2.69667 28.6041C2.19003 28.3747 1.83865 28.0061 1.56899 27.359C0.612913 24.9998 1.81414 19.0774 2.67216 16.7675C4.30648 12.3523 7.09299 8.25657 10.7294 5.56978C12.0123 4.61958 13.4015 3.88235 14.8805 3.32533C16.0327 2.92395 17.1604 2.61268 18.3616 2.46523C19.3913 2.33417 20.4045 2.28502 21.4423 2.34236C23.665 2.46523 25.5935 2.94034 27.6446 3.88235C27.9551 4.0298 28.3392 4.2182 28.6415 4.39022C28.6987 4.42298 28.8131 4.48032 28.8785 4.52128C28.9112 4.54586 29.4096 4.82436 29.8427 5.11925C30.3412 5.4551 30.8152 5.81553 30.905 5.88925C30.8887 5.86467 30.9622 5.93021 30.8969 5.88925Z" fill="white"/>
<path fill-rule="evenodd" clip-rule="evenodd" d="M38.513 21.5112C36.8787 25.91 34.0921 30.0139 30.4558 32.7007C29.1728 33.6509 27.7837 34.3881 26.3046 34.9451C25.1524 35.3465 24.0247 35.6578 22.8235 35.8052C21.7939 35.9363 20.7806 35.9854 19.7428 35.9281C17.5201 35.8052 15.5916 35.3301 13.5405 34.3881C13.23 34.2407 12.846 34.0523 12.5436 33.8802C12.4864 33.8475 12.372 33.7901 12.3066 33.7492C12.2739 33.7246 11.7755 33.4461 11.3342 33.1512C10.8357 32.8154 10.3618 32.4549 10.2719 32.3812C10.2719 32.373 10.2392 32.3484 10.2882 32.3812C10.5824 32.586 10.9011 32.758 11.2198 32.9055C12.4701 33.4952 13.8756 33.6673 15.2402 33.2823C15.992 33.0693 16.7765 32.6597 17.561 32.201C24.1391 28.3183 31.4609 16.539 35.3179 11.4194C35.5875 11.0589 35.8409 10.7313 36.0778 10.4446C36.3965 10.0514 36.609 9.83022 36.944 9.67459C37.4507 9.44523 38.0881 9.47799 38.4966 9.6664C38.9951 9.89576 39.322 10.2644 39.5835 10.9115C40.5314 13.287 39.371 19.2012 38.513 21.5112Z" fill="white"/>
<path fill-rule="evenodd" clip-rule="evenodd" d="M27.1867 21.1745C24.2858 25.0081 21.009 28.8089 17.9201 30.6356C17.2337 31.0451 16.5391 31.4056 15.8772 31.5858C14.6842 31.9216 13.4421 31.766 12.3389 31.2499C10.3614 29.8983 8.73523 28.0716 7.61572 25.9419C8.84146 24.3118 10.4676 21.9199 12.3226 19.356C13.0989 20.3553 16.4983 24.3937 20.5759 24.3937C23.2644 24.3937 25.6505 22.6489 27.1867 21.1745Z" fill="white"/>
<path fill-rule="evenodd" clip-rule="evenodd" d="M33.5442 12.3524C32.3184 13.9825 30.7005 16.3744 28.8537 18.9301C28.0937 17.9472 24.678 13.8842 20.5922 13.8842C17.9446 13.8842 15.583 15.588 14.0386 17.0543C16.9231 13.2371 20.1918 9.46085 23.2643 7.64235C23.9507 7.23278 24.6453 6.87236 25.3072 6.69215C26.4758 6.36449 27.677 6.50375 28.7638 6.98704C30.7658 8.33862 32.4165 10.1899 33.5442 12.3524Z" fill="white"/>
</svg>
