<svg width="50" height="39" viewBox="0 0 50 39" fill="none" xmlns="http://www.w3.org/2000/svg">
<path fill-rule="evenodd" clip-rule="evenodd" d="M0 3.5C-1.68988e-07 1.56701 1.567 3.92817e-06 3.5 3.75918e-06L46.5 0C48.433 -1.68988e-07 50 1.567 50 3.5C50 5.433 48.433 7 46.5 7L3.5 7C1.567 7 1.68988e-07 5.433 0 3.5Z" fill="#1150B6"/>
<path fill-rule="evenodd" clip-rule="evenodd" d="M10 19.5C10 17.567 11.567 16 13.5 16L46.5 16C48.433 16 50 17.567 50 19.5C50 21.433 48.433 23 46.5 23L13.5 23C11.567 23 10 21.433 10 19.5Z" fill="#1150B6"/>
<path fill-rule="evenodd" clip-rule="evenodd" d="M20 35.5C20 33.567 21.567 32 23.5 32L46.5 32C48.433 32 50 33.567 50 35.5C50 37.433 48.433 39 46.5 39L23.5 39C21.567 39 20 37.433 20 35.5Z" fill="#1150B6"/>
</svg>
