<svg width="120" height="38" viewBox="0 0 120 38" fill="none" xmlns="http://www.w3.org/2000/svg">
<path d="M42.8438 18.3569C42.8438 11.0174 48.6047 5.25061 56.425 5.25061C60.854 5.25061 63.9919 6.61858 66.6558 8.92037L62.5537 13.8516C60.7559 12.3362 58.95 11.4761 56.4658 11.4761C52.8294 11.4761 50.0184 14.5315 50.0184 18.4552C50.0184 22.5263 52.8621 25.4425 56.858 25.4425C58.5496 25.4425 59.8489 25.082 60.8948 24.4021V21.3386H55.9265V16.2271H67.522V27.564C64.858 29.7593 61.1481 31.455 56.572 31.455C48.711 31.455 42.8438 26.0568 42.8438 18.3569Z" fill="black"/>
<path d="M71.0522 26.0729L80.4904 18.7252C82.8684 16.8903 83.7346 15.637 83.7346 14.0971C83.7346 12.4833 82.6151 11.4922 80.9235 11.4922C79.232 11.4922 77.9 12.4833 75.9143 14.8015L71.1993 10.7959C73.9041 7.23264 76.5681 5.28308 81.4629 5.28308C86.9705 5.28308 90.754 8.62518 90.754 13.5482C90.754 17.6603 88.7029 19.831 84.9194 22.5506L80.5967 25.6388H91.0073V31.4383H71.0522V26.0729Z" fill="black"/>
<path d="M94.5781 5.27515H106.5C110.357 5.27515 113.021 6.32365 114.713 8.07661C116.192 9.60841 116.944 11.6235 116.944 14.2775C116.944 18.2749 114.893 20.929 111.755 22.3133L117.769 31.4304H109.704L104.629 23.5093H101.565V31.4304H94.5781V5.27515ZM106.174 17.8326C108.552 17.8326 109.916 16.6366 109.916 14.6543C109.916 12.5983 108.478 11.5498 106.133 11.5498H101.557V17.8244H106.174V17.8326Z" fill="black"/>
<path fill-rule="evenodd" clip-rule="evenodd" d="M30.8969 5.88927C30.57 5.6681 30.235 5.4797 29.8754 5.32406C28.6497 4.77524 27.2768 4.6196 25.9449 4.98822C25.1849 5.20119 24.4086 5.61076 23.6241 6.06948C17.0378 9.96041 9.69973 21.7642 5.85091 26.8757C5.58942 27.2279 5.3361 27.5392 5.10729 27.8259C4.7886 28.2191 4.57614 28.4403 4.2411 28.5959C3.73447 28.8253 3.09708 28.7925 2.69667 28.6041C2.19003 28.3747 1.83865 28.0061 1.56899 27.359C0.612913 24.9999 1.81414 19.0775 2.67216 16.7675C4.30648 12.3523 7.09299 8.25659 10.7294 5.56981C12.0123 4.6196 13.4015 3.88237 14.8805 3.32536C16.0327 2.92398 17.1604 2.6127 18.3616 2.46526C19.3913 2.33419 20.4045 2.28505 21.4423 2.34239C23.665 2.46526 25.5935 2.94036 27.6446 3.88237C27.9551 4.02982 28.3392 4.21822 28.6415 4.39024C28.6987 4.42301 28.8131 4.48035 28.8785 4.5213C28.9112 4.54588 29.4096 4.82439 29.8427 5.11928C30.3412 5.45513 30.8152 5.81555 30.905 5.88927C30.8887 5.8647 30.9622 5.93023 30.8969 5.88927Z" fill="#E2791D"/>
<path fill-rule="evenodd" clip-rule="evenodd" d="M38.513 21.5112C36.8787 25.91 34.0921 30.0139 30.4558 32.7006C29.1728 33.6509 27.7837 34.3881 26.3046 34.9451C25.1524 35.3465 24.0247 35.6578 22.8235 35.8052C21.7939 35.9363 20.7806 35.9854 19.7428 35.9281C17.5201 35.8052 15.5916 35.3301 13.5405 34.3881C13.23 34.2406 12.846 34.0522 12.5436 33.8802C12.4864 33.8474 12.372 33.7901 12.3066 33.7492C12.2739 33.7246 11.7755 33.4461 11.3342 33.1512C10.8357 32.8153 10.3618 32.4549 10.2719 32.3812C10.2719 32.373 10.2392 32.3484 10.2882 32.3812C10.5824 32.586 10.9011 32.758 11.2198 32.9054C12.4701 33.4952 13.8756 33.6672 15.2402 33.2822C15.992 33.0693 16.7765 32.6597 17.561 32.201C24.1391 28.3182 31.4609 16.539 35.3179 11.4193C35.5875 11.0589 35.8409 10.7313 36.0778 10.4446C36.3965 10.0514 36.609 9.8302 36.944 9.67456C37.4507 9.4452 38.0881 9.47797 38.4966 9.66637C38.9951 9.89573 39.322 10.2643 39.5835 10.9115C40.5314 13.287 39.371 19.2012 38.513 21.5112Z" fill="#3C6BBC"/>
<path fill-rule="evenodd" clip-rule="evenodd" d="M27.1867 21.1745C24.2858 25.008 21.009 28.8089 17.9201 30.6355C17.2337 31.0451 16.5391 31.4055 15.8772 31.5857C14.6842 31.9216 13.4421 31.766 12.3389 31.2499C10.3614 29.8983 8.73523 28.0716 7.61572 25.9419C8.84146 24.3118 10.4676 21.9199 12.3226 19.356C13.0989 20.3553 16.4983 24.3937 20.5759 24.3937C23.2644 24.3937 25.6505 22.6489 27.1867 21.1745Z" fill="#2E5082"/>
<path fill-rule="evenodd" clip-rule="evenodd" d="M33.5442 12.3525C32.3184 13.9826 30.7005 16.3745 28.8537 18.9302C28.0937 17.9472 24.678 13.8843 20.5922 13.8843C17.9446 13.8843 15.583 15.5881 14.0386 17.0543C16.9231 13.2371 20.1918 9.4609 23.2643 7.64241C23.9507 7.23284 24.6453 6.87241 25.3072 6.6922C26.4758 6.36455 27.677 6.5038 28.7638 6.98709C30.7658 8.33868 32.4165 10.1899 33.5442 12.3525Z" fill="#9B511B"/>
</svg>
