<svg width="120" height="120" viewBox="0 0 120 120" fill="none" xmlns="http://www.w3.org/2000/svg">
<path d="M50.6149 14.0625H69.3649C70.6586 14.0625 71.7087 13.0133 71.7087 11.7188C71.7087 10.4242 70.6586 9.375 69.3649 9.375H50.6149C49.3204 9.375 48.2712 10.4242 48.2712 11.7188C48.2712 13.0133 49.3204 14.0625 50.6149 14.0625Z" fill="#AA155B"/>
<path d="M36.5524 23.4375H41.2399C42.5345 23.4375 43.5837 22.3883 43.5837 21.0938C43.5837 19.7992 42.5345 18.75 41.2399 18.75H36.5524C35.2579 18.75 34.2087 19.7992 34.2087 21.0938C34.2087 22.3883 35.2579 23.4375 36.5524 23.4375Z" fill="#AA155B"/>
<path d="M74.0524 23.4375H83.4274C84.7211 23.4375 85.7712 22.3883 85.7712 21.0938C85.7712 19.7992 84.7211 18.75 83.4274 18.75H74.0524C72.7579 18.75 71.7087 19.7992 71.7087 21.0938C71.7087 22.3883 72.7579 23.4375 74.0524 23.4375Z" fill="#AA155B"/>
<path d="M50.6149 18.75C49.3204 18.75 48.2712 19.7992 48.2712 21.0938C48.2712 22.3883 49.3204 23.4375 50.6149 23.4375H64.6774C65.9711 23.4375 67.0212 22.3883 67.0212 21.0938C67.0212 19.7992 65.9711 18.75 64.6774 18.75H50.6149Z" fill="#AA155B"/>
<path d="M36.5524 32.8125H83.4274C84.7211 32.8125 85.7712 31.7633 85.7712 30.4687C85.7712 29.1742 84.7211 28.125 83.4274 28.125H36.5524C35.2579 28.125 34.2087 29.1742 34.2087 30.4687C34.2087 31.7633 35.2579 32.8125 36.5524 32.8125Z" fill="#AA155B"/>
<path d="M83.4274 84.375H36.5524C35.2579 84.375 34.2087 85.4242 34.2087 86.7188C34.2087 88.0133 35.2579 89.0625 36.5524 89.0625H83.4274C84.7211 89.0625 85.7712 88.0133 85.7712 86.7188C85.7712 85.4242 84.722 84.375 83.4274 84.375Z" fill="#AA155B"/>
<path d="M55.3033 93.75H36.5533C35.2597 93.75 34.2068 94.8019 34.2068 96.0938C34.2068 97.3856 35.2597 98.4375 36.5533 98.4375H55.3033C56.5942 98.4375 57.6471 97.3856 57.6471 96.0938C57.6471 94.8019 56.5942 93.75 55.3033 93.75Z" fill="#AA155B"/>
<path d="M64.6756 93.75C63.3838 93.75 62.3318 94.8019 62.3318 96.0938C62.3318 97.3856 63.3838 98.4375 64.6756 98.4375C65.9692 98.4375 67.0221 97.3856 67.0221 96.0938C67.0221 94.8019 65.9692 93.75 64.6756 93.75Z" fill="#AA155B"/>
<path d="M117.656 37.5H99.8438V2.34375C99.8438 1.04919 98.7946 0 97.5 0H22.5C21.2054 0 20.1562 1.04919 20.1562 2.34375V37.5H2.34375C1.04919 37.5 0 38.5492 0 39.8438V77.3438C0 78.6383 1.04919 79.6875 2.34375 79.6875H10.7812V117.656C10.7812 118.951 11.8304 120 13.125 120H106.875C108.17 120 109.219 118.951 109.219 117.656V79.6875H117.656C118.951 79.6875 120 78.6383 120 77.3438V39.8438C120 38.5492 118.951 37.5 117.656 37.5ZM24.8438 4.6875H95.1562V37.5H24.8438V4.6875ZM29.5312 42.1875H90.4688V46.875H29.5312V42.1875ZM104.531 115.312H15.4687V79.6875H20.1562V108.281C20.1562 109.576 21.2054 110.625 22.5 110.625H97.5C98.7946 110.625 99.8438 109.576 99.8438 108.281V79.6875H104.531V115.312ZM24.8438 79.6875H95.1562V105.938H24.8438V79.6875ZM115.312 75H4.6875V42.1875H24.8438V49.2188C24.8438 50.5133 25.8929 51.5625 27.1875 51.5625H92.8125C94.1071 51.5625 95.1562 50.5133 95.1562 49.2188V42.1875H115.312V75Z" fill="#AA155B"/>
<path d="M32.8125 67.9688C32.8125 69.2633 31.7633 70.3125 30.4687 70.3125C29.1742 70.3125 28.125 69.2633 28.125 67.9688C28.125 66.6742 29.1742 65.625 30.4687 65.625C31.7633 65.625 32.8125 66.6742 32.8125 67.9688Z" fill="#AA155B"/>
<path d="M23.4375 67.9688C23.4375 69.2633 22.3883 70.3125 21.0938 70.3125C19.7992 70.3125 18.75 69.2633 18.75 67.9688C18.75 66.6742 19.7992 65.625 21.0938 65.625C22.3883 65.625 23.4375 66.6742 23.4375 67.9688Z" fill="#AA155B"/>
<path d="M14.0625 67.9688C14.0625 69.2633 13.0133 70.3125 11.7188 70.3125C10.4242 70.3125 9.375 69.2633 9.375 67.9688C9.375 66.6742 10.4242 65.625 11.7188 65.625C13.0133 65.625 14.0625 66.6742 14.0625 67.9688Z" fill="#AA155B"/>
<path d="M23.4375 58.5938C23.4375 59.8883 22.3883 60.9375 21.0938 60.9375C19.7992 60.9375 18.75 59.8883 18.75 58.5938C18.75 57.2992 19.7992 56.25 21.0938 56.25C22.3883 56.25 23.4375 57.2992 23.4375 58.5938Z" fill="#AA155B"/>
<path d="M14.0625 58.5938C14.0625 59.8883 13.0133 60.9375 11.7188 60.9375C10.4242 60.9375 9.375 59.8883 9.375 58.5938C9.375 57.2992 10.4242 56.25 11.7188 56.25C13.0133 56.25 14.0625 57.2992 14.0625 58.5938Z" fill="#AA155B"/>
<path d="M32.8125 58.5938C32.8125 59.8883 31.7633 60.9375 30.4687 60.9375C29.1742 60.9375 28.125 59.8883 28.125 58.5938C28.125 57.2992 29.1742 56.25 30.4687 56.25C31.7633 56.25 32.8125 57.2992 32.8125 58.5938Z" fill="#AA155B"/>
<path d="M98.9062 70.3125H108.281C109.576 70.3125 110.625 69.2633 110.625 67.9688V63.2812C110.625 59.404 107.471 56.25 103.594 56.25C99.7165 56.25 96.5625 59.404 96.5625 63.2812V67.9688C96.5625 69.2633 97.6117 70.3125 98.9062 70.3125ZM101.25 63.2812C101.25 61.9885 102.301 60.9375 103.594 60.9375C104.886 60.9375 105.938 61.9885 105.938 63.2812V65.625H101.25V63.2812Z" fill="#AA155B"/>
</svg>
