<svg width="120" height="120" viewBox="0 0 120 120" fill="none" xmlns="http://www.w3.org/2000/svg">
<path d="M21.1717 77.9107C21.3733 78.1191 21.5532 78.3475 21.7086 78.5922C21.8835 78.8713 22.0208 79.1723 22.1168 79.4874C22.3377 80.1205 22.3988 80.7983 22.2945 81.4607L17.8969 108.584C17.5432 110.619 17.9949 112.712 19.1567 114.42C20.2427 116.015 21.8676 117.165 23.7333 117.659C23.8262 117.704 23.9225 117.74 24.0212 117.769L24.3676 117.827C24.4538 117.843 24.54 117.856 24.6275 117.87L24.8617 117.909C24.9047 117.916 24.9535 117.921 25.0043 117.926L36.8538 119.922C37.1694 119.959 37.4869 119.977 37.8046 119.978C39.1758 119.978 40.5236 119.622 41.7161 118.946L61.8102 107.812L78.2897 116.944C79.3124 117.517 80.4506 117.854 81.6206 117.929C81.6392 117.933 81.6532 117.945 81.672 117.949L92.0627 119.681C92.5823 119.829 93.1168 119.918 93.6563 119.947L93.6739 119.95C93.7813 119.966 93.89 119.975 93.9988 119.975C94.071 119.975 94.1414 119.971 94.2116 119.964C96.4885 119.945 98.6525 118.969 100.174 117.275C101.803 115.46 102.517 113 102.111 110.595L97.7089 83.4517C97.4967 82.1713 97.9056 80.8662 98.8104 79.9357L117.709 60.5151C119.495 58.6924 120.307 56.1284 119.895 53.6101C119.494 51.0985 117.94 48.9197 115.695 47.7236C114.904 47.3047 114.047 47.0243 113.161 46.8945L101.301 44.9252L101.259 44.9186C101.221 44.9124 101.183 44.8975 101.145 44.8919L95.8925 44.0878L86.4741 42.628C85.6001 42.2333 84.9007 41.5326 84.5077 40.6578L73.2738 16.646C72.4335 14.8182 70.9336 13.3755 69.0746 12.6067C68.6779 12.434 68.2661 12.2984 67.8444 12.2016C67.7225 12.1551 67.5962 12.121 67.4675 12.1L55.4695 10.1203C55.4553 10.1179 55.4426 10.1237 55.4284 10.1217C54.0695 9.88206 52.6717 9.99757 51.3707 10.4571C49.306 11.1491 47.62 12.6652 46.7133 14.6449L35.473 38.6607C35.2661 39.1187 34.9768 39.5347 34.6196 39.8881C34.2051 40.2741 33.717 40.5723 33.1844 40.765C32.9411 40.8646 32.6868 40.9347 32.4268 40.9739L6.84605 44.8911C5.74393 45.0442 4.69131 45.4469 3.76838 46.0684C2.79349 46.6682 1.96328 47.4761 1.33721 48.4342C-0.757353 51.6021 -0.357126 55.8022 2.29804 58.5175L21.1717 77.9107ZM39.7603 115.455C39.0511 115.863 38.2332 116.04 37.4189 115.964L32.8713 115.197L52.0241 104.583C52.2448 104.464 52.4731 104.359 52.7076 104.27C53.5488 103.987 54.4596 103.987 55.3008 104.27C55.5257 104.355 55.745 104.455 55.9571 104.568L57.6832 105.524L39.7603 115.455ZM113.825 51.2589C114.962 51.8668 115.747 52.9727 115.946 54.246C116.16 55.5179 115.748 56.8148 114.839 57.7298L95.9341 77.157C94.1465 78.9927 93.3401 81.57 93.7624 84.0972L98.1641 111.241C98.3641 112.431 98.0228 113.649 97.2331 114.562C96.4434 115.475 95.2877 115.988 94.0808 115.962L88.3846 115.012C89.867 113.226 90.4978 110.883 90.1127 108.594L85.715 81.4703C85.6013 80.7916 85.6618 80.0951 85.8908 79.4462C86.0893 78.8819 86.4047 78.3658 86.8165 77.9319L105.708 58.5203L105.712 58.5153C107.497 56.6926 108.309 54.1286 107.897 51.6103C107.8 51.0585 107.647 50.5182 107.439 49.9978L112.548 50.8458C112.995 50.9085 113.427 51.0483 113.825 51.2589ZM66.7282 16.0493C66.998 16.0998 67.2613 16.1803 67.5132 16.2893C68.4631 16.6716 69.2285 17.4063 69.6495 18.3397L80.5991 41.7436L75.632 40.9825L75.5656 40.9677C75.507 40.9531 75.4477 40.9414 75.3879 40.9327C75.1508 40.8941 74.9206 40.8214 74.7044 40.717C74.2246 40.5387 73.7857 40.2658 73.4136 39.9143C73.0385 39.5538 72.7322 39.128 72.5096 38.6577L61.5225 15.1728L66.547 16.0019C66.6052 16.0201 66.6656 16.0357 66.7282 16.0493ZM4.66663 50.6488C4.99261 50.1482 5.42879 49.7287 5.9418 49.4225C6.39605 49.113 6.91658 48.9143 7.46154 48.8426L33.1075 44.9154C33.6587 44.8274 34.1976 44.674 34.7126 44.4585C35.7115 44.0812 36.624 43.5063 37.3957 42.7682C38.1056 42.0754 38.6822 41.2579 39.0966 40.3566L50.3346 16.3422C50.7886 15.3315 51.6515 14.562 52.7074 14.2264C53.1219 14.0709 53.5611 13.9918 54.0038 13.9931C54.4298 13.9869 54.8538 14.0532 55.2576 14.1892C55.3376 14.2234 55.4235 14.2548 55.5153 14.287C56.4648 14.6706 57.2299 15.4053 57.6516 16.3384L68.8812 40.34C69.3076 41.2457 69.893 42.0675 70.6095 42.7664C71.3364 43.4754 72.1992 44.03 73.146 44.3969C73.6439 44.6286 74.1717 44.7893 74.7142 44.8745L74.7612 44.8851C74.8198 44.8999 74.8801 44.9125 74.9387 44.9222L95.189 48.0249L100.604 48.8648C101.031 48.9278 101.444 49.0614 101.827 49.2601C102.963 49.8676 103.749 50.9732 103.948 52.2464C104.162 53.5179 103.75 54.8144 102.841 55.7292L83.9224 75.171C83.1202 76.0167 82.5056 77.0222 82.1189 78.1218C81.6694 79.3969 81.5478 80.7645 81.7653 82.0988L86.1646 109.236C86.4275 110.667 85.8829 112.128 84.7468 113.038C83.9889 113.665 83.0274 113.992 82.0443 113.958C81.4051 113.94 80.7803 113.764 80.2262 113.445L57.8631 101.052C57.4898 100.851 57.1036 100.675 56.7071 100.525C54.9585 99.9059 53.0503 99.9059 51.3017 100.525C50.8943 100.68 50.4977 100.861 50.1145 101.069L27.7784 113.446C27.2194 113.761 26.5952 113.942 25.9545 113.976C25.7687 113.978 25.583 113.967 25.3988 113.942L25.0301 113.881C24.3891 113.749 23.7892 113.465 23.281 113.052C22.9664 112.798 22.6903 112.5 22.4611 112.167C21.8761 111.309 21.6543 110.255 21.844 109.234L26.2433 82.0966C26.4523 80.8097 26.3416 79.4912 25.9211 78.2572C25.7298 77.6372 25.4587 77.0447 25.1144 76.4947C24.8123 76.0119 24.4609 75.5617 24.0658 75.1514L5.16654 55.731C3.81289 54.3712 3.60387 52.2463 4.66663 50.6488Z" fill="#AA155B"/>
</svg>
