<svg width="120" height="120" viewBox="0 0 120 120" fill="none" xmlns="http://www.w3.org/2000/svg">
<g clip-path="url(#clip0)">
<path d="M114 0H6C2.68629 0 0 2.68629 0 6V90C0 93.3137 2.68629 96 6 96H44V104C38.4799 104.007 34.0066 108.48 34 114V118C34 119.105 34.8954 120 36 120H84C85.1046 120 86 119.105 86 118V114C85.9934 108.48 81.5201 104.007 76 104V96H114C117.314 96 120 93.3137 120 90V6C120 2.68629 117.314 0 114 0ZM4 6C4 4.89543 4.89543 4 6 4H114C115.105 4 116 4.89543 116 6V76H4V6ZM82 114V116H38V114C38 110.686 40.6863 108 44 108H76C79.3137 108 82 110.686 82 114ZM72 104H48V96H72V104ZM116 90C116 91.1045 115.105 92 114 92H6C4.89543 92 4 91.1045 4 90V80H116V90Z" fill="#AA155B"/>
<path d="M55.9997 88H63.9997C65.1042 88 65.9997 87.1045 65.9997 86C65.9997 84.8954 65.1042 84 63.9997 84H55.9997C54.8951 84 53.9997 84.8954 53.9997 86C53.9997 87.1045 54.8951 88 55.9997 88Z" fill="#AA155B"/>
<path d="M106 100C98.2718 100.009 92.0089 106.272 92.0001 114V116C92.0001 118.209 93.791 120 96.0001 120H116C118.209 120 120 118.209 120 116V114C119.991 106.272 113.728 100.009 106 100ZM116 116H96.0001V114C96.0061 109.25 99.3473 105.157 104 104.2V108C104 109.105 104.896 110 106 110C107.105 110 108 109.105 108 108V104.2C112.653 105.157 115.994 109.25 116 114V116Z" fill="#AA155B"/>
<path d="M13.9997 12C15.1042 12 15.9997 11.1046 15.9997 9.99999C15.9997 8.89542 15.1042 7.99999 13.9997 7.99999H9.99966C8.89509 7.99999 7.99966 8.89542 7.99966 9.99999C7.99966 11.1046 8.89509 12 9.99966 12H13.9997Z" fill="#AA155B"/>
<path d="M22.0002 12H34.0002C35.1048 12 36.0002 11.1046 36.0002 9.99999C36.0002 8.89542 35.1048 7.99999 34.0002 7.99999H22.0002C20.8956 7.99999 20.0002 8.89542 20.0002 9.99999C20.0002 11.1046 20.8956 12 22.0002 12Z" fill="#AA155B"/>
<path d="M93.4558 37.372C93.6151 37.2018 93.7431 37.0047 93.8338 36.79C93.8453 36.7546 93.8546 36.7185 93.8618 36.682C93.9337 36.4895 93.9755 36.2872 93.9858 36.082C93.9858 36.056 93.9998 36.036 93.9998 36.01C93.9998 35.95 93.9698 35.898 93.9658 35.84C93.9539 35.6773 93.9217 35.5167 93.8698 35.362C93.8367 35.2697 93.7966 35.1801 93.7498 35.094C93.7246 35.0259 93.6959 34.9591 93.6638 34.894L81.6638 16.894C81.6458 16.868 81.6198 16.848 81.5998 16.822C81.5798 16.796 81.5398 16.752 81.5098 16.716C81.3661 16.5424 81.1936 16.395 80.9998 16.28C80.9898 16.28 80.9838 16.262 80.9718 16.256H80.9598C80.7542 16.1486 80.5316 16.0775 80.3018 16.046C80.2449 16.0356 80.1875 16.0282 80.1298 16.024C80.0858 16.014 80.0438 16 79.9998 16H39.9998C39.9558 16 39.9138 16.014 39.8698 16.016C39.8121 16.0202 39.7547 16.0276 39.6978 16.038C39.468 16.0695 39.2454 16.1406 39.0398 16.248H39.0278C39.0158 16.248 39.0098 16.266 38.9998 16.272C38.806 16.387 38.6335 16.5344 38.4898 16.708C38.4598 16.744 38.4278 16.776 38.3998 16.814C38.3718 16.852 38.3538 16.86 38.3358 16.886L26.3358 34.886C26.3037 34.9511 26.275 35.0179 26.2498 35.086C26.203 35.1721 26.1629 35.2617 26.1298 35.354C26.0779 35.5087 26.0457 35.6693 26.0338 35.832C26.0338 35.89 25.9998 35.942 25.9998 36.002C25.9998 36.028 26.0138 36.048 26.0138 36.074C26.0241 36.2792 26.0659 36.4815 26.1378 36.674C26.145 36.7105 26.1544 36.7466 26.1658 36.782C26.2566 36.9967 26.3845 37.1937 26.5438 37.364L58.5438 71.364C58.5738 71.396 58.6178 71.408 58.6518 71.438C58.7814 71.5593 58.9275 71.6616 59.0858 71.742C59.1463 71.7792 59.2091 71.8126 59.2738 71.842C59.7371 72.042 60.2625 72.042 60.7258 71.842C60.7905 71.8126 60.8533 71.7792 60.9138 71.742C61.0721 71.6616 61.2182 71.5593 61.3478 71.438C61.3818 71.408 61.4258 71.396 61.4558 71.364L93.4558 37.372ZM39.8438 21.838L46.5998 34H31.7378L39.8438 21.838ZM88.2618 34H73.3998L80.1578 21.838L88.2618 34ZM67.3258 38L59.9998 62.912L52.6738 38H67.3258ZM53.3998 34L59.9998 22.12L66.5998 34H53.3998ZM69.9998 31.88L63.3998 20H76.5998L69.9998 31.88ZM49.9998 31.88L43.3998 20H56.5998L49.9998 31.88ZM48.5038 38L55.7178 62.534L32.6278 38H48.5038ZM71.5038 38H87.3798L64.2818 62.534L71.5038 38Z" fill="#AA155B"/>
</g>
<defs>
<clipPath id="clip0">
<rect width="120" height="120" fill="white"/>
</clipPath>
</defs>
</svg>
