<svg width="120" height="120" viewBox="0 0 120 120" fill="none" xmlns="http://www.w3.org/2000/svg">
<path d="M100.573 76.0473C102.179 74.0581 104.001 71.8036 104.001 68.9999C104.001 66.1962 102.179 63.9417 100.573 61.9527C99.5685 60.7099 98.5304 59.4245 98.2986 58.4032C98.049 57.3023 98.4373 55.6421 98.8129 54.0367C99.3855 51.5878 100.035 48.8125 98.8596 46.3695C97.6645 43.8856 95.0685 42.6576 92.7783 41.5745C91.3129 40.8811 89.7978 40.1646 89.1224 39.3165C88.4391 38.4581 88.0751 36.8095 87.7233 35.2149C87.1785 32.7443 86.5606 29.9441 84.4246 28.2338C82.2985 26.5314 79.4448 26.5465 76.9293 26.5611C75.2931 26.5701 73.6029 26.5797 72.6045 26.0965C71.6448 25.6323 70.6177 24.32 69.6245 23.0513C68.0541 21.045 66.2743 18.7707 63.5705 18.1544C60.9598 17.5592 58.4219 18.8048 56.1829 19.9036C54.6921 20.635 53.1504 21.3917 52.0005 21.3917C50.8508 21.3917 49.3091 20.635 47.8182 19.9032C45.5791 18.8043 43.0423 17.559 40.4303 18.154C37.7265 18.7703 35.9465 21.0444 34.3764 23.0511C33.3831 24.32 32.3563 25.6319 31.3965 26.0961C30.3982 26.5791 28.7092 26.5709 27.0718 26.5607C24.5561 26.5475 21.7026 26.531 19.5763 28.2334C17.4404 29.9437 16.8225 32.7439 16.2777 35.2145C15.9259 36.8091 15.5621 38.4577 14.8786 39.316C14.2032 40.1642 12.6881 40.8807 11.2226 41.5741C8.93234 42.6574 6.3364 43.8852 5.14122 46.3691C3.96594 48.8119 4.61533 51.5876 5.18794 54.0365C5.56372 55.6421 5.95209 57.3021 5.70245 58.403C5.47089 59.4243 4.43272 60.7095 3.42847 61.9523C1.82215 63.9417 0.000732422 66.196 0.000732422 68.9999C0.000732422 71.8038 1.82215 74.0581 3.42908 76.0473C4.43292 77.2901 5.47129 78.5756 5.70306 79.5966C5.9527 80.6975 5.56433 82.3577 5.18875 83.9631C4.61594 86.412 3.96654 89.1876 5.14162 91.6305C6.33681 94.1144 8.93295 95.3424 11.2232 96.4258C12.6885 97.1189 14.2036 97.8356 14.879 98.6834C15.5623 99.5417 15.9259 101.19 16.2777 102.785C16.8225 105.255 17.4402 108.056 19.5765 109.766C21.7024 111.468 24.5551 111.453 27.0718 111.439C28.708 111.429 30.3984 111.42 31.3965 111.903C32.3563 112.368 33.3833 113.68 34.3766 114.949C35.9467 116.955 37.7267 119.229 40.4305 119.846C43.0409 120.441 45.5789 119.195 47.8184 118.097C49.3091 117.365 50.8508 116.608 52.0005 116.608C53.1504 116.608 54.6921 117.365 56.1831 118.097C58.0214 118.999 60.0607 120 62.1773 120C62.6386 120 63.1033 119.953 63.5707 119.846C66.2745 119.23 68.0545 116.956 69.6249 114.949C70.6182 113.68 71.645 112.368 72.6045 111.904C73.6029 111.421 75.2929 111.43 76.9293 111.439C79.4439 111.453 82.2987 111.469 84.4248 109.767C86.5606 108.056 87.1785 105.256 87.7233 102.785C88.0751 101.191 88.4389 99.5423 89.1224 98.684C89.7976 97.8361 91.3127 97.1193 92.7783 96.4262C95.0687 95.3428 97.6646 94.1146 98.8598 91.6309C100.035 89.1882 99.3857 86.4126 98.8131 83.9637C98.4375 82.3581 98.0492 80.6981 98.2988 79.5966C98.5304 78.5754 99.5685 77.2901 100.573 76.0473ZM97.0589 73.1931C95.7291 74.8392 94.3541 76.5416 93.8894 78.5917C93.4082 80.7136 93.9178 82.8922 94.4108 84.999C94.8321 86.8 95.2676 88.6623 94.7872 89.6605C94.2877 90.6987 92.5396 91.5256 90.849 92.3253C88.9171 93.2392 86.9191 94.1842 85.5889 95.8546C84.2507 97.5352 83.7715 99.7065 83.3086 101.806C82.9066 103.629 82.4908 105.513 81.6034 106.223C80.7257 106.926 78.8094 106.915 76.9542 106.905C74.8046 106.894 72.5809 106.881 70.6397 107.82C68.7354 108.741 67.3793 110.474 66.0677 112.15C64.9075 113.632 63.7078 115.165 62.5681 115.425C61.5145 115.665 59.8143 114.831 58.1709 114.025C56.2174 113.066 54.1975 112.074 52.0005 112.074C49.8033 112.074 47.7837 113.065 45.8302 114.024C44.1867 114.831 42.4862 115.666 41.4328 115.425C40.2932 115.165 39.0934 113.632 37.9331 112.15C36.6215 110.474 35.2655 108.742 33.3608 107.82C31.6372 106.986 29.6917 106.902 27.7722 106.902C27.5301 106.902 27.2875 106.904 27.0464 106.905C25.1923 106.915 23.2746 106.926 22.3973 106.223C21.5094 105.513 21.0938 103.628 20.6919 101.806C20.2287 99.7062 19.75 97.535 18.4118 95.8544C17.0813 94.184 15.0836 93.239 13.1517 92.3253C11.461 91.5254 9.71295 90.6987 9.21347 89.6605C8.73308 88.662 9.16878 86.7996 9.58986 84.9986C10.0826 82.8922 10.5925 80.7136 10.1115 78.5914C9.64673 76.5412 8.27158 74.839 6.94172 73.1929C5.75222 71.7203 4.52209 70.1971 4.52209 68.9995C4.52209 67.8019 5.75222 66.2789 6.94212 64.8061C8.27198 63.1602 9.64694 61.4582 10.1119 59.4075C10.5931 57.2856 10.0832 55.1072 9.59026 53.0004C9.16898 51.1994 8.73348 49.3372 9.21387 48.3385C9.71336 47.3003 11.4612 46.4736 13.1519 45.6739C15.084 44.76 17.0819 43.815 18.4122 42.1444C19.7504 40.4638 20.2295 38.2925 20.6925 36.193C21.0945 34.3705 21.5102 32.4862 22.3977 31.7756C23.2754 31.0731 25.1911 31.0837 27.0468 31.0938C29.1971 31.1061 31.4203 31.1181 33.3612 30.1791C35.2657 29.2579 36.6219 27.5252 37.9333 25.8495C39.0936 24.3671 40.2932 22.8344 41.433 22.5745C42.4864 22.3335 44.1869 23.168 45.8304 23.9748C47.7837 24.9335 49.8035 25.9248 52.0005 25.9248C54.1977 25.9248 56.2176 24.9335 58.1711 23.9744C59.8145 23.1678 61.5145 22.3333 62.5683 22.5743C63.7078 22.8342 64.9077 24.3669 66.0677 25.8491C67.3795 27.5249 68.7356 29.2577 70.6403 30.1789C72.5812 31.1179 74.8015 31.1051 76.9546 31.0936C78.8069 31.0837 80.7265 31.0729 81.6038 31.7754C82.4914 32.486 82.9072 34.3705 83.3092 36.1928C83.7721 38.2925 84.2513 40.4638 85.5895 42.1444C86.9197 43.815 88.9177 44.7598 90.8496 45.6739C92.5402 46.4736 94.2881 47.3003 94.7876 48.3385C95.268 49.3369 94.8323 51.199 94.4112 52.9999C93.9184 55.1064 93.4088 57.2852 93.8898 59.4069C94.3543 61.4572 95.7295 63.1596 97.0593 64.8057C98.2488 66.2785 99.479 67.8014 99.479 68.9991C99.479 70.1976 98.2488 71.7207 97.0589 73.1931Z" fill="#FF6300"/>
<path d="M52.0007 32.727C32.0542 32.727 15.8267 48.9991 15.8267 69C15.8267 89.0008 32.0542 105.273 52.0007 105.273C71.9471 105.273 88.1746 89.0008 88.1746 69C88.1746 48.9991 71.9471 32.727 52.0007 32.727ZM52.0007 100.739C34.5478 100.739 20.3485 86.5006 20.3485 69C20.3485 51.4993 34.5476 37.2612 52.0007 37.2612C69.4538 37.2612 83.6528 51.4993 83.6528 69C83.6528 86.5006 69.4538 100.739 52.0007 100.739Z" fill="#FF6300"/>
<path d="M76.8516 71.4847C75.6237 71.2495 74.4403 72.0542 74.205 73.2838C73.4248 77.3595 71.5289 81.1486 68.7223 84.2412C67.882 85.1674 67.9494 86.6011 68.8728 87.4437C69.3063 87.8391 69.8507 88.034 70.394 88.034C71.0085 88.034 71.6207 87.7841 72.0667 87.2926C75.4335 83.5823 77.7085 79.0337 78.6456 74.1385C78.8812 72.9089 78.0776 71.721 76.8516 71.4847Z" fill="#FF6300"/>
<path d="M74.4786 65.6042C74.4928 65.6441 74.506 65.684 74.5184 65.7242C74.8166 66.7 75.7118 67.3271 76.6792 67.3271C76.8986 67.3271 77.1219 67.2947 77.3427 67.2271C78.5364 66.8601 79.2077 65.5922 78.8417 64.3951C78.8078 64.2835 78.771 64.1725 78.731 64.0617C78.3063 62.8844 77.0101 62.275 75.8357 62.7011C74.6612 63.1272 74.0537 64.4269 74.4786 65.6042Z" fill="#FF6300"/>
<path d="M54.2614 66.8262V56.2431H58.8462C60.0946 56.2431 61.107 55.2282 61.107 53.9761C61.107 52.7241 60.0946 51.7092 58.8462 51.7092H54.2614V46.0273C54.2614 44.7752 53.2491 43.7603 52.0007 43.7603C50.7523 43.7603 49.7399 44.7752 49.7399 46.0273V51.8029C44.5994 52.4345 40.6334 56.2555 40.6334 60.8624V62.1142C40.6334 66.7211 44.5994 70.5421 49.7399 71.1735V81.7566H45.1551C43.9067 81.7566 42.8944 82.7715 42.8944 84.0236C42.8944 85.2756 43.9067 86.2905 45.1551 86.2905H49.7399V91.9724C49.7399 93.2244 50.7523 94.2394 52.0007 94.2394C53.2491 94.2394 54.2614 93.2244 54.2614 91.9724V86.1968C59.4019 85.5652 63.3679 81.7444 63.3679 77.1375V75.8855C63.3681 71.2786 59.4021 67.4578 54.2614 66.8262ZM49.7399 66.5905C47.1076 66.0815 45.1551 64.2677 45.1551 62.1142V60.8624C45.1551 58.7087 47.1076 56.8949 49.7399 56.3861V66.5905ZM58.8464 77.1379C58.8464 79.2914 56.8939 81.1052 54.2616 81.6142V71.4098C56.8939 71.9186 58.8464 73.7324 58.8464 75.8861V77.1379Z" fill="#FF6300"/>
</svg>
