<svg width="60" height="60" viewBox="0 0 60 60" fill="none" xmlns="http://www.w3.org/2000/svg">
<path d="M47 53V35.583C46.9946 32.4282 44.8843 29.6646 41.8418 28.8291L36 27.2358V22.8159C37.3765 22.3311 38.2026 20.9243 37.9556 19.4858C37.708 18.0474 36.4595 16.9971 35 17H34.376L39.9141 1.94385L38.0371 1.25293L32.2451 17H31V0H29V17H27.7549L21.9629 1.25293L20.0859 1.94385L25.624 17H25C23.5405 16.9971 22.292 18.0474 22.0444 19.4858C21.7974 20.9243 22.6235 22.3311 24 22.8159V27.2358L18.1582 28.8291C15.1157 29.6646 13.0054 32.4282 13 35.583V53C13.0044 56.8643 16.1357 59.9956 20 60H40C43.8643 59.9956 46.9956 56.8643 47 53ZM41.3149 30.7588C43.4883 31.3555 44.9961 33.3291 45 35.583V44H37.687L32.1689 29H34.8691L41.3149 30.7588ZM33.6401 19H35C35.5522 19 36 19.4478 36 20C36 20.5522 35.5522 21 35 21H32.9048L33.6401 19ZM34 23V27H31.4331L31.0659 26L32.166 23H34ZM31 19H31.5088L31 20.3838V19ZM31 31.6162L35.5552 44H31V31.6162ZM29 19V20.3838L28.4912 19H29ZM27.8311 23L28.9312 26L28.564 27H26V23H27.8311ZM29 31.6162V44H24.4448L29 31.6162ZM25 19H26.3599L27.0952 21H25C24.4478 21 24 20.5522 24 20C24 19.4478 24.4478 19 25 19ZM15 35.583C15.0039 33.3291 16.5117 31.3555 18.6851 30.7588L25.1338 29H27.834L22.313 44H15V35.583ZM15 53V46H21.5781L20.0859 50.0562L21.9629 50.7471L23.709 46H29V52H31V46H36.291L38.0371 50.7471L39.9141 50.0562L38.4219 46H45V53C45.0005 53.3359 44.9668 53.6709 44.8999 54H15.1001C15.0332 53.6709 14.9995 53.3359 15 53ZM16.0259 56H43.9741C43.0376 57.2544 41.5654 57.9956 40 58H20C18.4346 57.9956 16.9624 57.2544 16.0259 56Z" fill="#FF6300"/>
</svg>
