<svg width="120" height="120" viewBox="0 0 120 120" fill="none" xmlns="http://www.w3.org/2000/svg">
<path d="M17.3437 64.5968C17.9599 64.5968 18.565 64.3487 19.0008 63.913C19.4366 63.4744 19.6875 62.872 19.6875 62.2531C19.6875 61.637 19.4366 61.0318 19.0008 60.596C18.565 60.1602 17.9599 59.9094 17.3437 59.9094C16.7276 59.9094 16.1224 60.1602 15.6866 60.596C15.2508 61.0318 15 61.637 15 62.2531C15 62.872 15.2508 63.4762 15.6866 63.913C16.1224 64.3487 16.7276 64.5968 17.3437 64.5968Z" fill="#447BD4"/>
<path d="M118.79 32.1681L97.3698 20.3258C96.2373 19.6987 94.8109 20.1107 94.1847 21.2432C93.5585 22.3757 93.9695 23.8021 95.1021 24.4283L115.312 35.6014V115.313H105V41.7189C105 40.4244 103.951 39.3752 102.656 39.3752H17.3437C16.0492 39.3752 15 40.4244 15 41.7189V52.8782C15 54.1728 16.0492 55.222 17.3437 55.222C18.6383 55.222 19.6875 54.1728 19.6875 52.8782V44.0626H100.312V115.313H90.4988V91.8751C90.4988 89.2905 88.3958 87.1876 85.8113 87.1876H76.4363V63.7501C76.4363 61.1656 74.3334 59.0626 71.7488 59.0626H48.3114C45.7259 59.0626 43.6239 61.1656 43.6239 63.7501V87.1876H34.2187C31.6342 87.1876 29.5312 89.2905 29.5312 91.8751V115.313H19.6875V71.6282C19.6875 70.3337 18.6383 69.2845 17.3437 69.2845C16.0492 69.2845 15 70.3337 15 71.6282V115.313H4.68749V35.6014L59.9999 5.02189L78.6922 15.3563C79.8247 15.9826 81.2511 15.5715 81.8773 14.439C82.5035 13.3065 82.0924 11.8801 80.9599 11.2539L61.1342 0.293197C60.4284 -0.0977324 59.5714 -0.0977324 58.8655 0.293197L1.20941 32.1681C0.463256 32.5801 0 33.3656 0 34.2189V117.656C0 118.951 1.04919 120 2.34375 120H117.656C118.951 120 120 118.951 120 117.656V34.2189C120 33.3656 119.537 32.5801 118.79 32.1681ZM71.7488 91.8751H76.4363V96.5626H71.7488V91.8751ZM62.3436 63.7501V68.4376H57.6561V63.7501H62.3436ZM48.3114 63.7501H52.9686V70.7813C52.9686 72.0759 54.0178 73.1251 55.3124 73.1251H64.6874C65.9819 73.1251 67.0311 72.0759 67.0311 70.7813V63.7501H71.7488L71.7516 87.1876C71.7516 87.1876 71.7507 87.1876 71.7488 87.1876H48.3114V63.7501ZM48.3114 91.8751V96.5626H43.6239V91.8751H48.3114ZM34.2187 115.313V91.8751H38.9364V98.9063C38.9364 100.201 39.9856 101.25 41.2801 101.25H50.6551C51.9488 101.25 52.9989 100.201 52.9989 98.9063V91.8751H57.6561L57.6589 115.313C57.6589 115.313 57.658 115.313 57.6561 115.313H34.2187ZM62.3738 115.313V91.8751H67.0613V98.9063C67.0613 100.201 68.1105 101.25 69.4051 101.25H78.7801C80.0737 101.25 81.1238 100.201 81.1238 98.9063V91.8751H85.8113L85.814 115.313C85.814 115.313 85.8131 115.313 85.8113 115.313H62.3738Z" fill="#447BD4"/>
<path d="M88.0315 20.1856C88.6476 20.1856 89.2519 19.9348 89.6886 19.499C90.1243 19.0623 90.3752 18.458 90.3752 17.8419C90.3752 17.2248 90.1243 16.6206 89.6886 16.1848C89.2519 15.749 88.6476 15.4981 88.0315 15.4981C87.4144 15.4981 86.8101 15.749 86.3744 16.1848C85.9386 16.6206 85.6877 17.2248 85.6877 17.8419C85.6877 18.458 85.9386 19.0623 86.3744 19.499C86.8101 19.9348 87.4144 20.1856 88.0315 20.1856Z" fill="#447BD4"/>
<path d="M50.1562 23.9072C50.1562 29.3354 54.5717 33.751 59.9999 33.751C65.428 33.751 69.8436 29.3354 69.8436 23.9072C69.8436 18.4791 65.428 14.0635 59.9999 14.0635C54.5717 14.0635 50.1562 18.4791 50.1562 23.9072ZM65.1561 23.9072C65.1561 26.75 62.8435 29.0635 59.9999 29.0635C57.1563 29.0635 54.8436 26.75 54.8436 23.9072C54.8436 21.0636 57.1563 18.751 59.9999 18.751C62.8435 18.751 65.1561 21.0636 65.1561 23.9072Z" fill="#447BD4"/>
</svg>
