<svg width="200" height="200" viewBox="0 0 200 200" fill="none" xmlns="http://www.w3.org/2000/svg">
<path d="M179.793 78.0796H21.6947C20.3668 78.0796 19.2971 79.1493 19.2971 80.4773V197.409C19.2971 198.737 20.3668 199.807 21.6947 199.807H179.793C181.121 199.807 182.191 198.737 182.191 197.409V80.4773C182.191 79.1493 181.121 78.0796 179.793 78.0796Z" fill="#FF6300"/>
<path d="M157.881 110.356H45.4864C44.1584 110.356 43.0887 111.426 43.0887 112.754V197.41C43.0887 198.737 44.1584 199.807 45.4864 199.807H157.881C159.209 199.807 160.242 198.737 160.242 197.41V112.754C160.279 111.426 159.209 110.356 157.881 110.356Z" fill="#E44501"/>
<path d="M141.688 139.275H61.7169C59.9463 139.275 58.5446 140.677 58.5446 142.447V196.708C58.5446 198.479 59.9832 199.88 61.7169 199.88H141.688C143.422 199.88 144.86 198.442 144.86 196.708V142.447C144.86 140.677 143.459 139.275 141.688 139.275Z" fill="#FFA700"/>
<path d="M125.163 199.88H101.776V180.182H144.86C144.86 191.064 136.044 199.88 125.163 199.88Z" fill="#FF6300"/>
<path d="M101.703 158.824H58.6187V180.071H101.703V158.824Z" fill="#FF6300"/>
<path d="M144.787 158.973H101.703V139.275H125.089C135.971 139.275 144.787 148.091 144.787 158.973Z" fill="#FF6300"/>
<path d="M199.749 91.1739L188.277 67.4924C188.018 66.9391 187.502 66.4964 186.912 66.2751L99.6737 36.1383C99.1573 35.9539 98.604 35.9539 98.0876 36.1383L14.5383 66.2751C13.985 66.4595 13.5424 66.8653 13.2473 67.3817L0.299841 91.0632C-0.105917 91.801 -0.105881 92.6863 0.336764 93.424C0.779409 94.1618 1.55403 94.6044 2.40243 94.6044H197.609C198.421 94.6044 199.195 94.1986 199.638 93.4978C200.08 92.7969 200.117 91.9117 199.749 91.1739Z" fill="#FF6300"/>
<path d="M199.749 91.1748L188.277 67.4932C187.871 66.6817 187.059 66.1653 186.137 66.1653H15.3498C14.4646 66.1653 13.6899 66.6448 13.2473 67.4194L0.299841 91.101C-0.105917 91.8387 -0.105881 92.724 0.336764 93.4618C0.779409 94.1995 1.55403 94.6421 2.40243 94.6421H197.609C198.421 94.6421 199.195 94.2364 199.638 93.5355C200.08 92.7978 200.117 91.9125 199.749 91.1748Z" fill="#E44501"/>
</svg>
