<svg width="1332" height="765" viewBox="0 0 1332 765" fill="none" xmlns="http://www.w3.org/2000/svg">
<g clip-path="url(#clip0)">
<path d="M1200.46 727.689C1199.24 728.577 1198.13 729.44 1196.94 730.279C1192.54 733.389 1187.95 736.196 1183.17 738.682C1158.17 751.875 1127.36 758.32 1097.34 762.698C1030.02 772.523 961.293 774.432 892.856 776.305C707.94 781.387 522.575 786.458 338.109 774.748C265.226 770.127 190.74 762.394 124.696 738.682C115.229 735.293 105.948 731.556 96.8543 727.47C78.4514 719.19 60.7773 709.109 46.0792 697.071C32.2679 685.786 21.0683 672.824 14.3752 658.086C0.418132 627.395 7.80358 592.921 23.7406 562.838C30.3596 550.667 37.8242 538.977 46.0792 527.854C58.3843 510.915 71.9526 494.463 84.3306 477.536C128.376 417.369 157.116 341.248 116.46 279.537C104.774 261.808 87.8897 246.243 78.3663 227.736C66.2192 204.06 67.1545 177.771 71.0173 152.235C71.5194 148.992 72.0498 145.782 72.6086 142.604C79.2045 104.738 91.6189 63.942 129.894 40.3032C169.652 15.7403 226.112 16.9806 275.454 25.7114C352.187 39.4277 422.969 67.9791 494.503 93.7581C566.038 119.537 640.876 143.091 719.492 145.62C788.913 147.857 869.886 131.113 915.96 87.593C960.71 45.3253 1044.83 42.1029 1105.46 67.6386C1147.07 85.161 1178.12 116.728 1191.21 152.235C1193.87 159.364 1195.78 166.747 1196.91 174.269C1197.96 181.143 1198.3 188.106 1197.93 195.05C1197.75 198.479 1197.4 201.872 1196.91 205.228C1186.78 275.293 1113.86 330.56 1069.54 393.147C1047.88 423.717 1032.58 460.439 1047.48 493.405C1070.19 543.637 1149.19 561.5 1196.89 598.88C1205.86 605.683 1213.77 613.799 1220.33 622.956C1243.47 656.226 1234.93 701.156 1200.46 727.689Z" fill="#F6E6EE"/>
<path d="M934.104 458.574H875.67V758.5H934.104V458.574Z" fill="#7A98C5"/>
<path d="M952.462 726.972H858.826C843.259 726.972 830.63 739.604 830.63 755.177V758.522H980.636V755.177C980.657 739.583 968.029 726.972 952.462 726.972Z" fill="#7A98C5"/>
<path d="M917.452 458.574H859.017V758.5H917.452V458.574Z" fill="#2F3052"/>
<path d="M935.808 726.972H842.172C826.605 726.972 813.977 739.604 813.977 755.177V758.522H963.982V755.177C964.004 739.583 951.375 726.972 935.808 726.972Z" fill="#2F3052"/>
<path d="M859.017 458.574V497.388L934.105 472.08V458.574H859.017Z" fill="#ACACAC"/>
<path d="M318.815 458.574H260.38V758.5H318.815V458.574Z" fill="#7A98C5"/>
<path d="M337.194 726.972H243.558C227.991 726.972 215.363 739.604 215.363 755.177V758.522H365.368V755.177C365.368 739.583 352.761 726.972 337.194 726.972Z" fill="#7A98C5"/>
<path d="M302.162 458.574H243.727V758.5H302.162V458.574Z" fill="#2F3052"/>
<path d="M320.54 726.972H226.904C211.337 726.972 198.709 739.604 198.709 755.177V758.522H348.714V755.177C348.714 739.583 336.107 726.972 320.54 726.972Z" fill="#2F3052"/>
<path d="M243.727 458.574V497.388L318.815 472.08V458.574H243.727Z" fill="#ACACAC"/>
<path d="M817.128 219.49H969.497C981.87 219.49 993.284 226.158 999.353 236.937L1043.99 317.144C1049.5 326.922 1042.43 339.022 1031.21 339.022H868.897L817.128 219.49Z" fill="#2F3052"/>
<path d="M891.534 219.49L958.636 339.043H904.886L839.701 219.49H891.534Z" fill="#ACACAC"/>
<path d="M925.096 248.761L932.678 262.097H972.862L965.068 248.761H925.096Z" fill="#7A98C5"/>
<path d="M935.062 266.485L937.298 270.469H977.504L975.055 266.485H935.062Z" fill="#F3E2D9"/>
<path d="M939.13 273.665L941.366 277.648H981.572L979.123 273.665H939.13Z" fill="#F3E2D9"/>
<path d="M942.474 280.801L944.71 284.806H984.916L982.467 280.801H942.474Z" fill="#F3E2D9"/>
<path d="M952.589 298.078L954.825 302.062H995.01L992.561 298.078H952.589Z" fill="#F3E2D9"/>
<path d="M956.657 305.235L958.872 309.24H999.077L996.628 305.235H956.657Z" fill="#F3E2D9"/>
<path d="M946.434 288.086L949.884 294.243H1012L1008.21 288.086H946.434Z" fill="#7A98C5"/>
<path d="M972.862 248.761L993.242 284.039H1007.11L986.512 248.761H972.862Z" fill="#7A98C5"/>
<path d="M999.077 298.078L1005.79 309.241H1019.65L1012.73 298.078H999.077Z" fill="#7A98C5"/>
<path d="M244.557 458.575H963.662V413.221C963.662 396.413 959.488 379.86 951.524 365.054L884.358 240.24C877.479 227.458 864.127 219.469 849.625 219.469H244.557V458.575Z" fill="#7A98C5"/>
<path d="M189.679 458.575H364.196V413.221C364.196 396.413 360.022 379.86 352.057 365.055L284.551 239.601C277.885 227.224 264.959 219.491 250.904 219.491H189.679V458.575Z" fill="#2F3052"/>
<path d="M441.562 331.672L401.271 260.051H785.25L836.359 346.18" stroke="#2F3052" stroke-width="1.0617" stroke-miterlimit="10"/>
<path d="M419.947 293.198H805.267" stroke="#2F3052" stroke-width="2.1233" stroke-miterlimit="10"/>
<path d="M434.599 319.295H820.558L836.359 346.179L441.563 331.672L434.599 319.295Z" fill="#2F3052"/>
<path d="M415.028 134.917H396.543V219.49H415.028V134.917Z" fill="#7A98C5"/>
<path d="M396.543 134.917H350.353V219.49H396.543V134.917Z" fill="#2F3052"/>
<path d="M383.107 134.917H364.622V219.49H383.107V134.917Z" fill="#7A98C5"/>
<path d="M364.622 134.917H318.432V219.49H364.622V134.917Z" fill="#2F3052"/>
<path d="M350.779 134.917H332.295V219.49H350.779V134.917Z" fill="#7A98C5"/>
<path d="M332.294 134.917H286.104V219.49H332.294V134.917Z" fill="#2F3052"/>
<path d="M316.324 134.917H297.839V219.49H316.324V134.917Z" fill="#7A98C5"/>
<path d="M297.839 134.917H251.649V219.49H297.839V134.917Z" fill="#2F3052"/>
<path d="M311.85 148.061C311.85 150.703 309.7 152.854 307.059 152.854C304.418 152.854 302.267 150.703 302.267 148.061C302.267 145.419 304.418 143.268 307.059 143.268C309.721 143.268 311.85 145.419 311.85 148.061Z" fill="#FDFFFF"/>
<path d="M346.306 148.061C346.306 150.703 344.155 152.854 341.515 152.854C338.874 152.854 336.723 150.703 336.723 148.061C336.723 145.419 338.874 143.268 341.515 143.268C344.177 143.268 346.306 145.419 346.306 148.061Z" fill="#FDFFFF"/>
<path d="M378.654 148.061C378.654 150.703 376.503 152.854 373.863 152.854C371.222 152.854 369.071 150.703 369.071 148.061C369.071 145.419 371.222 143.268 373.863 143.268C376.503 143.268 378.654 145.419 378.654 148.061Z" fill="#FDFFFF"/>
<path d="M405.657 152.854C408.303 152.854 410.448 150.708 410.448 148.061C410.448 145.414 408.303 143.268 405.657 143.268C403.01 143.268 400.865 145.414 400.865 148.061C400.865 150.708 403.01 152.854 405.657 152.854Z" fill="#FDFFFF"/>
<path d="M415.027 207.22H251.649V219.491H415.027V207.22Z" fill="#ACACAC"/>
<path d="M456.588 631.769C456.588 671.542 488.829 703.794 528.588 703.794H686.494V631.769H456.588Z" fill="white"/>
<path d="M421.898 331.672H788.222C788.222 331.672 839.246 335.762 839.246 401.077C839.246 466.414 839.246 631.768 839.246 631.768H456.588V404.422C456.588 382.991 448.794 362.285 434.632 346.18L421.898 331.672Z" fill="#FDFFFF"/>
<path d="M658.555 523.464C692.392 523.464 719.822 496.024 719.822 462.175C719.822 428.326 692.392 400.886 658.555 400.886C624.718 400.886 597.288 428.326 597.288 462.175C597.288 496.024 624.718 523.464 658.555 523.464Z" fill="#61ABEB"/>
<path d="M618.135 592.209C651.972 592.209 679.402 564.769 679.402 530.92C679.402 497.071 651.972 469.631 618.135 469.631C584.299 469.631 556.868 497.071 556.868 530.92C556.868 564.769 584.299 592.209 618.135 592.209Z" fill="#C80788"/>
<path d="M705.212 592.209C739.048 592.209 766.479 564.769 766.479 530.92C766.479 497.071 739.048 469.631 705.212 469.631C671.375 469.631 643.945 497.071 643.945 530.92C643.945 564.769 671.375 592.209 705.212 592.209Z" fill="#F8F039"/>
<path d="M659.577 631.769C659.577 631.769 625.717 628.787 625.717 664.597C625.717 700.407 596.67 703.795 596.67 703.795H686.516V631.769H659.577Z" fill="#5F70A1"/>
<path d="M659.577 631.769H1044.64C1044.64 631.769 1080.55 633.665 1080.55 673.16V719.857H686.494V670.647C686.494 670.668 686.303 631.769 659.577 631.769Z" fill="#9ABDE7"/>
<path d="M1168.15 719.879C1168.15 719.879 1172.88 748.936 1125.61 758.139H752.02L797.465 719.879V680.362H1168.28L1168.15 719.879Z" fill="white"/>
<path d="M686.494 719.879C686.494 741.011 703.615 758.139 724.741 758.139H759.218C780.343 758.139 797.464 741.011 797.464 719.879H686.494Z" fill="#9ABDE7"/>
<path d="M73.0179 755.65L1331.88 755.65" stroke="#2F3052" stroke-width="20" stroke-miterlimit="10"/>
</g>
<defs>
<clipPath id="clip0">
<rect width="1332" height="765" fill="white"/>
</clipPath>
</defs>
</svg>
