<svg width="250" height="250" viewBox="0 0 250 250" fill="none" xmlns="http://www.w3.org/2000/svg">
<g clip-path="url(#clip0)">
<path d="M0 181.3C0 185.625 3.5 189.15 7.825 189.2V165.175C3.5 165.25 0 168.75 0 173.1V181.3Z" fill="#E34F1B"/>
<path d="M153.625 189.225C157.95 189.175 161.45 185.65 161.45 181.325V173.125C161.45 168.775 157.95 165.275 153.625 165.2V189.225Z" fill="#E34F1B"/>
<path d="M126.75 144.325V210.075C134.925 209.975 142 205.35 145.6 198.575C146.275 198.975 147.025 199.25 147.9 199.25H148.8C150.375 199.25 151.675 198.4 152.475 197.325C153.275 196.25 153.7 194.925 153.7 193.5V188.2V180.275V130.75H151.275C149.95 130.75 148.9 129.675 148.9 128.35C148.9 128.1 148.9 127.825 148.9 127.55C148.9 89.8751 118.375 59.3501 80.7002 59.3501C43.0502 59.3501 12.5002 89.8751 12.5002 127.55C12.5002 127.825 12.5002 128.075 12.5002 128.35C12.5252 129.675 11.4502 130.75 10.1252 130.75H7.7002V193.5C7.7002 194.925 8.1252 196.25 8.9252 197.325C9.7002 198.4 11.0252 199.25 12.6002 199.25H13.5252C14.3252 199.25 15.0252 199.025 15.6752 198.675C19.3002 205.375 26.3502 209.975 34.5002 210.075V144.325C28.0752 144.4 22.3752 147.275 18.4502 151.775V133.075C20.4502 132.7 21.9252 131.025 22.1252 128.975L22.1752 128.75V128.025C22.1752 111.85 28.7252 97.2251 39.3252 86.6251C49.9252 76.0251 64.5502 69.4751 80.7252 69.4751C96.9002 69.4751 111.525 76.0251 122.125 86.6251C132.725 97.2251 139.275 111.85 139.275 128.025V128.525V128.55C139.275 130.775 140.85 132.65 143 133.075V152C139.075 147.375 133.25 144.4 126.75 144.325Z" fill="#074EA3"/>
<path d="M151.275 130.75H153.7H155.875C157.175 130.75 158.225 129.7 158.25 128.425C158.25 128.125 158.25 127.85 158.25 127.55C158.275 84.725 123.55 50 80.7253 50C37.8753 50 3.15027 84.725 3.15027 127.55C3.15027 127.85 3.15027 128.125 3.15027 128.425C3.17527 129.725 4.22527 130.75 5.52527 130.75H7.70027H10.1253C11.4503 130.75 12.5253 129.675 12.5003 128.35C12.5003 128.1 12.5003 127.825 12.5003 127.55C12.5003 89.875 43.0253 59.35 80.7003 59.35C118.375 59.35 148.9 89.875 148.9 127.55C148.9 127.825 148.9 128.075 148.9 128.35C148.9 129.675 149.95 130.75 151.275 130.75Z" fill="#E34F1B"/>
<path d="M34.6503 144.325V210.3H42.6253C43.8753 210.3 44.8753 209.3 44.8753 208.05V146.575C44.8753 145.325 43.8753 144.325 42.6253 144.325H34.6503Z" fill="#E34F1B"/>
<path d="M116.475 146.575V208.05C116.475 209.3 117.475 210.3 118.725 210.3H126.7V144.325H118.725C117.475 144.325 116.475 145.325 116.475 146.575Z" fill="#E34F1B"/>
<path fill-rule="evenodd" clip-rule="evenodd" d="M146.975 190.575V169.15H151.975V190.575C151.975 219.056 128.88 242.15 100.4 242.15H78.9747V237.15H100.4C126.119 237.15 146.975 216.294 146.975 190.575Z" fill="#074EA3"/>
<path d="M92.7747 248L69.4247 250C66.8997 250.225 64.7247 248.225 64.7247 245.7V233.625C64.7247 231.1 66.8997 229.1 69.4247 229.325L92.7747 231.325C94.9997 231.525 96.7247 233.375 96.7247 235.625V243.7C96.7247 245.925 94.9997 247.8 92.7747 248Z" fill="#E34F1B"/>
</g>
<defs>
<clipPath id="clip0">
<rect y="50" width="161.45" height="200" fill="white"/>
</clipPath>
</defs>
</svg>
