<svg width="250" height="250" viewBox="0 0 250 250" fill="none" xmlns="http://www.w3.org/2000/svg">
<g clip-path="url(#clip0)">
<path d="M173.68 250.444H26.322C25.1179 250.444 24.1481 249.475 24.1481 248.271V199.776C24.1481 198.572 25.1179 197.635 26.322 197.635H173.68C174.884 197.635 175.854 198.605 175.854 199.776V248.271C175.82 249.475 174.884 250.444 173.68 250.444ZM28.496 246.13H171.539V201.95H28.496V246.13Z" fill="#0755A3"/>
<path d="M173.679 197.635C159.164 197.635 147.358 209.441 147.358 223.956C147.358 238.471 159.164 250.277 173.679 250.277C188.194 250.277 200 238.471 200 223.956C200 209.441 188.194 197.635 173.679 197.635Z" fill="#0755A3"/>
<path d="M173.678 210.98C166.521 210.98 160.702 216.799 160.702 223.957C160.702 231.114 166.521 236.933 173.678 236.933C180.835 236.933 186.655 231.114 186.655 223.957C186.655 216.833 180.835 210.98 173.678 210.98Z" fill="#F6F6F6"/>
<path d="M74.1127 215.328C72.9087 215.328 71.9388 214.358 71.9388 213.187V199.843C71.9388 198.639 72.9087 197.702 74.1127 197.702C75.3167 197.702 76.2532 198.672 76.2532 199.843V213.187C76.2532 214.358 75.2833 215.328 74.1127 215.328Z" fill="#0755A3"/>
<path d="M94.2466 215.328C93.0426 215.328 92.0728 214.358 92.0728 213.187V199.843C92.0728 198.639 93.0426 197.702 94.2466 197.702C95.4507 197.702 96.3872 198.672 96.3872 199.843V213.187C96.3872 214.358 95.4507 215.328 94.2466 215.328Z" fill="#0755A3"/>
<path d="M114.381 215.328C113.177 215.328 112.207 214.358 112.207 213.187V199.843C112.207 198.639 113.177 197.702 114.381 197.702C115.585 197.702 116.555 198.672 116.555 199.843V213.187C116.555 214.358 115.585 215.328 114.381 215.328Z" fill="#0755A3"/>
<path d="M134.549 215.328C133.345 215.328 132.375 214.358 132.375 213.187V199.843C132.375 198.639 133.345 197.702 134.549 197.702C135.753 197.702 136.723 198.672 136.723 199.843V213.187C136.689 214.358 135.719 215.328 134.549 215.328Z" fill="#0755A3"/>
<path d="M64.0143 250.01C62.8103 250.01 61.8403 249.04 61.8403 247.836V234.491C61.8403 233.287 62.8103 232.317 64.0143 232.317C65.2183 232.317 66.1882 233.287 66.1882 234.491V247.869C66.1882 249.04 65.2183 250.01 64.0143 250.01Z" fill="#0755A3"/>
<path d="M84.1799 250.01C82.9759 250.01 82.0394 249.04 82.0394 247.836V234.491C82.0394 233.287 83.0094 232.317 84.1799 232.317C85.384 232.317 86.3538 233.287 86.3538 234.491V247.869C86.3204 249.04 85.3505 250.01 84.1799 250.01Z" fill="#0755A3"/>
<path d="M104.315 250.01C103.111 250.01 102.141 249.04 102.141 247.836V234.491C102.141 233.287 103.111 232.317 104.315 232.317C105.519 232.317 106.455 233.287 106.455 234.491V247.869C106.488 249.04 105.519 250.01 104.315 250.01Z" fill="#0755A3"/>
<path d="M124.448 250.01C123.244 250.01 122.274 249.04 122.274 247.836V234.491C122.274 233.287 123.244 232.317 124.448 232.317C125.652 232.317 126.622 233.287 126.622 234.491V247.869C126.622 249.04 125.652 250.01 124.448 250.01Z" fill="#0755A3"/>
<path d="M86.1873 139.508H32.3745C31.1705 139.508 30.2341 140.478 30.2341 141.682V195.495C30.2341 196.699 31.204 197.635 32.3745 197.635H86.1873C87.3913 197.635 88.3612 196.665 88.3612 195.495V141.682C88.3277 140.478 87.3913 139.508 86.1873 139.508Z" fill="#E34F1B"/>
<path d="M165.485 117H102.007C100.803 117 99.8331 117.97 99.8331 119.174V195.495C99.8331 196.699 100.803 197.635 102.007 197.635H165.485C166.689 197.635 167.659 196.665 167.659 195.495V119.174C167.659 117.97 166.689 117 165.485 117Z" fill="#E34F1B"/>
<path d="M50.0675 139.508V168.271C50.0675 169.609 51.1712 170.712 52.509 170.712H65.2515C66.5893 170.712 67.6929 169.609 67.6929 168.271V139.508H50.0675Z" fill="#0755A3"/>
<path d="M124.882 117.167V145.93C124.882 147.268 125.986 148.371 127.324 148.371H140.066C141.404 148.371 142.508 147.268 142.508 145.93V117.167H124.882Z" fill="#0755A3"/>
<path d="M26.321 197.635C11.806 197.635 0 209.441 0 223.956C0 238.471 11.806 250.277 26.321 250.277C40.8361 250.277 52.642 238.471 52.642 223.956C52.642 209.441 40.8361 197.635 26.321 197.635Z" fill="#0755A3"/>
<path d="M26.322 210.98C19.1649 210.98 13.3455 216.799 13.3455 223.957C13.3455 231.114 19.1649 236.933 26.322 236.933C33.4792 236.933 39.2986 231.114 39.2986 223.957C39.2986 216.833 33.4792 210.98 26.322 210.98Z" fill="#F6F6F6"/>
</g>
<defs>
<clipPath id="clip0">
<rect width="250" height="250" fill="white"/>
</clipPath>
</defs>
</svg>
