<svg width="250" height="250" viewBox="0 0 250 250" fill="none" xmlns="http://www.w3.org/2000/svg">
<g clip-path="url(#clip0)">
<path d="M185 77C193.284 77 200 83.7157 200 92V169.895C200 178.179 193.284 184.895 185 184.895H164.737L164.737 208.579L140.559 184.895H107.105C98.8209 184.895 92.1052 178.179 92.1052 169.895V92C92.1052 83.7157 98.8209 77 107.105 77H185Z" fill="#E34F1B"/>
<path d="M15 118.579C6.71573 118.579 0 125.295 0 133.579V211.474C0 219.758 6.71572 226.474 15 226.474H28.9472V250.158L53.1249 226.474H92.8947C101.179 226.474 107.895 219.758 107.895 211.474V133.579C107.895 125.295 101.179 118.579 92.8947 118.579H15Z" fill="#0755A3"/>
<path fill-rule="evenodd" clip-rule="evenodd" d="M53.9484 138.316C55.6134 138.316 57.0993 139.361 57.6628 140.927L79.2418 200.927C79.9796 202.979 78.9146 205.24 76.8632 205.978C74.8118 206.716 72.5507 205.651 71.8129 203.599L63.5716 180.684H44.3252L36.0839 203.599C35.3461 205.651 33.085 206.716 31.0335 205.978C28.9821 205.24 27.9172 202.979 28.655 200.927L50.2339 140.927C50.7974 139.361 52.2834 138.316 53.9484 138.316ZM47.1645 172.79H60.7322L53.9484 153.927L47.1645 172.79Z" fill="#F6F6F6"/>
<path fill-rule="evenodd" clip-rule="evenodd" d="M146.316 95.4209C148.496 95.4209 150.263 97.1882 150.263 99.3683V103.316H174.474C176.654 103.316 178.421 105.083 178.421 107.263C178.421 109.443 176.654 111.21 174.474 111.21H171.264C168.012 118.131 161.058 129.367 149.854 141.571C155.229 147.222 161.256 152.817 167.609 157.509C169.362 158.804 169.734 161.276 168.438 163.029C167.143 164.783 164.672 165.154 162.918 163.859C156.259 158.941 149.975 153.129 144.374 147.264C138.786 152.805 132.335 158.437 124.973 163.862C123.218 165.155 120.747 164.781 119.454 163.026C118.161 161.271 118.535 158.799 120.29 157.506C127.441 152.237 133.672 146.78 139.036 141.439C131.206 132.545 125.219 124.181 122.187 119.367C121.025 117.523 121.578 115.085 123.422 113.923C125.267 112.761 127.704 113.314 128.866 115.159C131.689 119.639 137.26 127.414 144.514 135.712C153.212 126.152 159.067 117.357 162.411 111.21H118.158C115.978 111.21 114.211 109.443 114.211 107.263C114.211 105.083 115.978 103.316 118.158 103.316H142.369V99.3683C142.369 97.1882 144.136 95.4209 146.316 95.4209Z" fill="#F6F6F6"/>
</g>
<defs>
<clipPath id="clip0">
<rect width="250" height="250" fill="white"/>
</clipPath>
</defs>
</svg>
